%TF.GenerationSoftware,KiCad,Pcbnew,8.0.6*%
%TF.CreationDate,2024-12-06T15:31:51-05:00*%
%TF.ProjectId,LCC_Booster,4c43435f-426f-46f7-9374-65722e6b6963,5*%
%TF.SameCoordinates,Original*%
%TF.FileFunction,Soldermask,Top*%
%TF.FilePolarity,Negative*%
%FSLAX46Y46*%
G04 Gerber Fmt 4.6, Leading zero omitted, Abs format (unit mm)*
G04 Created by KiCad (PCBNEW 8.0.6) date 2024-12-06 15:31:51*
%MOMM*%
%LPD*%
G01*
G04 APERTURE LIST*
G04 Aperture macros list*
%AMRoundRect*
0 Rectangle with rounded corners*
0 $1 Rounding radius*
0 $2 $3 $4 $5 $6 $7 $8 $9 X,Y pos of 4 corners*
0 Add a 4 corners polygon primitive as box body*
4,1,4,$2,$3,$4,$5,$6,$7,$8,$9,$2,$3,0*
0 Add four circle primitives for the rounded corners*
1,1,$1+$1,$2,$3*
1,1,$1+$1,$4,$5*
1,1,$1+$1,$6,$7*
1,1,$1+$1,$8,$9*
0 Add four rect primitives between the rounded corners*
20,1,$1+$1,$2,$3,$4,$5,0*
20,1,$1+$1,$4,$5,$6,$7,0*
20,1,$1+$1,$6,$7,$8,$9,0*
20,1,$1+$1,$8,$9,$2,$3,0*%
%AMFreePoly0*
4,1,19,0.500000,-0.750000,0.000000,-0.750000,0.000000,-0.744911,-0.071157,-0.744911,-0.207708,-0.704816,-0.327430,-0.627875,-0.420627,-0.520320,-0.479746,-0.390866,-0.500000,-0.250000,-0.500000,0.250000,-0.479746,0.390866,-0.420627,0.520320,-0.327430,0.627875,-0.207708,0.704816,-0.071157,0.744911,0.000000,0.744911,0.000000,0.750000,0.500000,0.750000,0.500000,-0.750000,0.500000,-0.750000,
$1*%
%AMFreePoly1*
4,1,19,0.000000,0.744911,0.071157,0.744911,0.207708,0.704816,0.327430,0.627875,0.420627,0.520320,0.479746,0.390866,0.500000,0.250000,0.500000,-0.250000,0.479746,-0.390866,0.420627,-0.520320,0.327430,-0.627875,0.207708,-0.704816,0.071157,-0.744911,0.000000,-0.744911,0.000000,-0.750000,-0.500000,-0.750000,-0.500000,0.750000,0.000000,0.750000,0.000000,0.744911,0.000000,0.744911,
$1*%
%AMFreePoly2*
4,1,19,0.550000,-0.750000,0.000000,-0.750000,0.000000,-0.744911,-0.071157,-0.744911,-0.207708,-0.704816,-0.327430,-0.627875,-0.420627,-0.520320,-0.479746,-0.390866,-0.500000,-0.250000,-0.500000,0.250000,-0.479746,0.390866,-0.420627,0.520320,-0.327430,0.627875,-0.207708,0.704816,-0.071157,0.744911,0.000000,0.744911,0.000000,0.750000,0.550000,0.750000,0.550000,-0.750000,0.550000,-0.750000,
$1*%
%AMFreePoly3*
4,1,19,0.000000,0.744911,0.071157,0.744911,0.207708,0.704816,0.327430,0.627875,0.420627,0.520320,0.479746,0.390866,0.500000,0.250000,0.500000,-0.250000,0.479746,-0.390866,0.420627,-0.520320,0.327430,-0.627875,0.207708,-0.704816,0.071157,-0.744911,0.000000,-0.744911,0.000000,-0.750000,-0.550000,-0.750000,-0.550000,0.750000,0.000000,0.750000,0.000000,0.744911,0.000000,0.744911,
$1*%
G04 Aperture macros list end*
%ADD10C,0.000000*%
%ADD11C,0.900000*%
%ADD12C,8.600000*%
%ADD13FreePoly0,180.000000*%
%ADD14FreePoly1,180.000000*%
%ADD15RoundRect,0.250000X-0.475000X0.337500X-0.475000X-0.337500X0.475000X-0.337500X0.475000X0.337500X0*%
%ADD16RoundRect,0.250000X0.412500X0.650000X-0.412500X0.650000X-0.412500X-0.650000X0.412500X-0.650000X0*%
%ADD17RoundRect,0.250000X-0.350000X-0.450000X0.350000X-0.450000X0.350000X0.450000X-0.350000X0.450000X0*%
%ADD18R,1.600000X1.600000*%
%ADD19FreePoly0,0.000000*%
%ADD20FreePoly1,0.000000*%
%ADD21RoundRect,0.250000X-0.337500X-0.475000X0.337500X-0.475000X0.337500X0.475000X-0.337500X0.475000X0*%
%ADD22RoundRect,0.250000X0.475000X-0.337500X0.475000X0.337500X-0.475000X0.337500X-0.475000X-0.337500X0*%
%ADD23C,2.000000*%
%ADD24R,0.449999X1.500000*%
%ADD25R,5.000000X3.400001*%
%ADD26RoundRect,0.150000X-0.150000X0.725000X-0.150000X-0.725000X0.150000X-0.725000X0.150000X0.725000X0*%
%ADD27FreePoly2,270.000000*%
%ADD28R,1.500000X1.000000*%
%ADD29FreePoly3,270.000000*%
%ADD30RoundRect,0.150000X0.150000X-0.825000X0.150000X0.825000X-0.150000X0.825000X-0.150000X-0.825000X0*%
%ADD31RoundRect,0.250000X0.450000X-0.350000X0.450000X0.350000X-0.450000X0.350000X-0.450000X-0.350000X0*%
%ADD32C,3.300000*%
%ADD33C,1.652000*%
%ADD34C,1.234000*%
%ADD35O,1.600000X1.600000*%
%ADD36O,3.804000X1.604000*%
%ADD37O,1.604000X3.804000*%
%ADD38RoundRect,0.250000X0.337500X0.475000X-0.337500X0.475000X-0.337500X-0.475000X0.337500X-0.475000X0*%
%ADD39RoundRect,0.249999X1.425001X-0.450001X1.425001X0.450001X-1.425001X0.450001X-1.425001X-0.450001X0*%
%ADD40RoundRect,0.150000X-0.825000X-0.150000X0.825000X-0.150000X0.825000X0.150000X-0.825000X0.150000X0*%
%ADD41R,2.600000X2.600000*%
%ADD42C,2.600000*%
G04 APERTURE END LIST*
D10*
%TO.C,U8*%
G36*
X44405401Y-90458446D02*
G01*
X44414631Y-90461245D01*
X44423135Y-90465791D01*
X44430593Y-90471910D01*
X44436712Y-90479368D01*
X44441258Y-90487872D01*
X44444057Y-90497102D01*
X44445002Y-90506701D01*
X44445002Y-92868301D01*
X44444057Y-92877900D01*
X44441258Y-92887130D01*
X44436712Y-92895634D01*
X44430593Y-92903092D01*
X44423135Y-92909211D01*
X44414631Y-92913757D01*
X44405401Y-92916556D01*
X44395802Y-92917501D01*
X40944202Y-92917501D01*
X40934603Y-92916556D01*
X40925373Y-92913757D01*
X40916869Y-92909211D01*
X40909411Y-92903092D01*
X40903292Y-92895634D01*
X40898746Y-92887130D01*
X40895947Y-92877900D01*
X40895002Y-92868301D01*
X40895002Y-90506701D01*
X40895947Y-90497102D01*
X40898746Y-90487872D01*
X40903292Y-90479368D01*
X40909411Y-90471910D01*
X40916869Y-90465791D01*
X40925373Y-90461245D01*
X40934603Y-90458446D01*
X40944202Y-90457501D01*
X44395802Y-90457501D01*
X44405401Y-90458446D01*
G37*
%TO.C,U6*%
G36*
X44405401Y-75458446D02*
G01*
X44414631Y-75461245D01*
X44423135Y-75465791D01*
X44430593Y-75471910D01*
X44436712Y-75479368D01*
X44441258Y-75487872D01*
X44444057Y-75497102D01*
X44445002Y-75506701D01*
X44445002Y-77868301D01*
X44444057Y-77877900D01*
X44441258Y-77887130D01*
X44436712Y-77895634D01*
X44430593Y-77903092D01*
X44423135Y-77909211D01*
X44414631Y-77913757D01*
X44405401Y-77916556D01*
X44395802Y-77917501D01*
X40944202Y-77917501D01*
X40934603Y-77916556D01*
X40925373Y-77913757D01*
X40916869Y-77909211D01*
X40909411Y-77903092D01*
X40903292Y-77895634D01*
X40898746Y-77887130D01*
X40895947Y-77877900D01*
X40895002Y-77868301D01*
X40895002Y-75506701D01*
X40895947Y-75497102D01*
X40898746Y-75487872D01*
X40903292Y-75479368D01*
X40909411Y-75471910D01*
X40916869Y-75465791D01*
X40925373Y-75461245D01*
X40934603Y-75458446D01*
X40944202Y-75457501D01*
X44395802Y-75457501D01*
X44405401Y-75458446D01*
G37*
%TO.C,U4*%
G36*
X44405401Y-60458446D02*
G01*
X44414631Y-60461245D01*
X44423135Y-60465791D01*
X44430593Y-60471910D01*
X44436712Y-60479368D01*
X44441258Y-60487872D01*
X44444057Y-60497102D01*
X44445002Y-60506701D01*
X44445002Y-62868301D01*
X44444057Y-62877900D01*
X44441258Y-62887130D01*
X44436712Y-62895634D01*
X44430593Y-62903092D01*
X44423135Y-62909211D01*
X44414631Y-62913757D01*
X44405401Y-62916556D01*
X44395802Y-62917501D01*
X40944202Y-62917501D01*
X40934603Y-62916556D01*
X40925373Y-62913757D01*
X40916869Y-62909211D01*
X40909411Y-62903092D01*
X40903292Y-62895634D01*
X40898746Y-62887130D01*
X40895947Y-62877900D01*
X40895002Y-62868301D01*
X40895002Y-60506701D01*
X40895947Y-60497102D01*
X40898746Y-60487872D01*
X40903292Y-60479368D01*
X40909411Y-60471910D01*
X40916869Y-60465791D01*
X40925373Y-60461245D01*
X40934603Y-60458446D01*
X40944202Y-60457501D01*
X44395802Y-60457501D01*
X44405401Y-60458446D01*
G37*
%TO.C,U2*%
G36*
X44405401Y-45458446D02*
G01*
X44414631Y-45461245D01*
X44423135Y-45465791D01*
X44430593Y-45471910D01*
X44436712Y-45479368D01*
X44441258Y-45487872D01*
X44444057Y-45497102D01*
X44445002Y-45506701D01*
X44445002Y-47868301D01*
X44444057Y-47877900D01*
X44441258Y-47887130D01*
X44436712Y-47895634D01*
X44430593Y-47903092D01*
X44423135Y-47909211D01*
X44414631Y-47913757D01*
X44405401Y-47916556D01*
X44395802Y-47917501D01*
X40944202Y-47917501D01*
X40934603Y-47916556D01*
X40925373Y-47913757D01*
X40916869Y-47909211D01*
X40909411Y-47903092D01*
X40903292Y-47895634D01*
X40898746Y-47887130D01*
X40895947Y-47877900D01*
X40895002Y-47868301D01*
X40895002Y-45506701D01*
X40895947Y-45497102D01*
X40898746Y-45487872D01*
X40903292Y-45479368D01*
X40909411Y-45471910D01*
X40916869Y-45465791D01*
X40925373Y-45461245D01*
X40934603Y-45458446D01*
X40944202Y-45457501D01*
X44395802Y-45457501D01*
X44405401Y-45458446D01*
G37*
%TD*%
D11*
%TO.C,H3*%
X96775000Y-110000000D03*
X97719581Y-107719581D03*
X97719581Y-112280419D03*
X100000000Y-106775000D03*
D12*
X100000000Y-110000000D03*
D11*
X100000000Y-113225000D03*
X102280419Y-107719581D03*
X102280419Y-112280419D03*
X103225000Y-110000000D03*
%TD*%
%TO.C,H1*%
X26775000Y-30000000D03*
X27719581Y-27719581D03*
X27719581Y-32280419D03*
X30000000Y-26775000D03*
D12*
X30000000Y-30000000D03*
D11*
X30000000Y-33225000D03*
X32280419Y-27719581D03*
X32280419Y-32280419D03*
X33225000Y-30000000D03*
%TD*%
%TO.C,H4*%
X26775000Y-110000000D03*
X27719581Y-107719581D03*
X27719581Y-112280419D03*
X30000000Y-106775000D03*
D12*
X30000000Y-110000000D03*
D11*
X30000000Y-113225000D03*
X32280419Y-107719581D03*
X32280419Y-112280419D03*
X33225000Y-110000000D03*
%TD*%
%TO.C,H2*%
X96775000Y-30000000D03*
X97719581Y-27719581D03*
X97719581Y-32280419D03*
X100000000Y-26775000D03*
D12*
X100000000Y-30000000D03*
D11*
X100000000Y-33225000D03*
X102280419Y-27719581D03*
X102280419Y-32280419D03*
X103225000Y-30000000D03*
%TD*%
D13*
%TO.C,JP6*%
X54150000Y-44200000D03*
D14*
X52850000Y-44200000D03*
%TD*%
D15*
%TO.C,C21*%
X48750000Y-72712500D03*
X48750000Y-74787500D03*
%TD*%
D16*
%TO.C,C18*%
X38232502Y-82187501D03*
X35107502Y-82187501D03*
%TD*%
D15*
%TO.C,C7*%
X48750000Y-42712500D03*
X48750000Y-44787500D03*
%TD*%
%TO.C,C28*%
X48750000Y-87712500D03*
X48750000Y-89787500D03*
%TD*%
D17*
%TO.C,R12*%
X52500000Y-86950000D03*
X54500000Y-86950000D03*
%TD*%
%TO.C,R6*%
X52500000Y-56950000D03*
X54500000Y-56950000D03*
%TD*%
%TO.C,R13*%
X84500000Y-85750000D03*
X86500000Y-85750000D03*
%TD*%
D18*
%TO.C,U12*%
X71940000Y-95440000D03*
X71940000Y-97980000D03*
X71940000Y-100520000D03*
X71940000Y-103060000D03*
X79560000Y-103060000D03*
X79560000Y-100520000D03*
X79560000Y-97980000D03*
X79560000Y-95440000D03*
%TD*%
D19*
%TO.C,JP2*%
X79100000Y-63250000D03*
D20*
X80400000Y-63250000D03*
%TD*%
D21*
%TO.C,C34*%
X82462500Y-77750000D03*
X84537500Y-77750000D03*
%TD*%
D22*
%TO.C,C3*%
X42874346Y-53825000D03*
X42874346Y-51750000D03*
%TD*%
D16*
%TO.C,C11*%
X38209681Y-67314510D03*
X35084681Y-67314510D03*
%TD*%
D15*
%TO.C,C26*%
X40235532Y-97273779D03*
X40235532Y-99348779D03*
%TD*%
D17*
%TO.C,R4*%
X40500000Y-28250000D03*
X42500000Y-28250000D03*
%TD*%
D13*
%TO.C,JP7*%
X54150000Y-59200000D03*
D14*
X52850000Y-59200000D03*
%TD*%
D23*
%TO.C,SW1*%
X66500000Y-36000000D03*
X66500000Y-29500000D03*
X71000000Y-36000000D03*
X71000000Y-29500000D03*
%TD*%
D24*
%TO.C,U8*%
X44945001Y-88787502D03*
X44295000Y-88787502D03*
X43645001Y-88787502D03*
X42995000Y-88787502D03*
X42345001Y-88787502D03*
X41695000Y-88787502D03*
X41045001Y-88787502D03*
X40395000Y-88787502D03*
X40395000Y-94587500D03*
X41045001Y-94587500D03*
X41695000Y-94587500D03*
X42345001Y-94587500D03*
X42995000Y-94587500D03*
X43645001Y-94587500D03*
X44295000Y-94587500D03*
X44945001Y-94587500D03*
D25*
X42670002Y-91687501D03*
%TD*%
D26*
%TO.C,U3*%
X57497500Y-61850000D03*
X56227500Y-61850000D03*
X54957500Y-61850000D03*
X53687500Y-61850000D03*
X52417500Y-61850000D03*
X51147500Y-61850000D03*
X49877500Y-61850000D03*
X48607500Y-61850000D03*
X48607500Y-67000000D03*
X49877500Y-67000000D03*
X51147500Y-67000000D03*
X52417500Y-67000000D03*
X53687500Y-67000000D03*
X54957500Y-67000000D03*
X56227500Y-67000000D03*
X57497500Y-67000000D03*
%TD*%
D27*
%TO.C,JP11*%
X87000000Y-61700000D03*
D28*
X87000000Y-63000000D03*
D29*
X87000000Y-64300000D03*
%TD*%
D17*
%TO.C,R1*%
X40500000Y-24750000D03*
X42500000Y-24750000D03*
%TD*%
D21*
%TO.C,C13*%
X44750000Y-66656808D03*
X46825000Y-66656808D03*
%TD*%
D26*
%TO.C,U7*%
X57497500Y-91850000D03*
X56227500Y-91850000D03*
X54957500Y-91850000D03*
X53687500Y-91850000D03*
X52417500Y-91850000D03*
X51147500Y-91850000D03*
X49877500Y-91850000D03*
X48607500Y-91850000D03*
X48607500Y-97000000D03*
X49877500Y-97000000D03*
X51147500Y-97000000D03*
X52417500Y-97000000D03*
X53687500Y-97000000D03*
X54957500Y-97000000D03*
X56227500Y-97000000D03*
X57497500Y-97000000D03*
%TD*%
D30*
%TO.C,U9*%
X98190000Y-64475000D03*
X99460000Y-64475000D03*
X100730000Y-64475000D03*
X102000000Y-64475000D03*
X103270000Y-64475000D03*
X104540000Y-64475000D03*
X105810000Y-64475000D03*
X105810000Y-59525000D03*
X104540000Y-59525000D03*
X103270000Y-59525000D03*
X102000000Y-59525000D03*
X100730000Y-59525000D03*
X99460000Y-59525000D03*
X98190000Y-59525000D03*
%TD*%
D21*
%TO.C,C9*%
X44462500Y-56500000D03*
X46537500Y-56500000D03*
%TD*%
D31*
%TO.C,R16*%
X82500000Y-100250000D03*
X82500000Y-98250000D03*
%TD*%
D22*
%TO.C,C30*%
X108500000Y-71037500D03*
X108500000Y-68962500D03*
%TD*%
%TO.C,C29*%
X99000000Y-71037500D03*
X99000000Y-68962500D03*
%TD*%
D27*
%TO.C,JP10*%
X91000000Y-61700000D03*
D28*
X91000000Y-63000000D03*
D29*
X91000000Y-64300000D03*
%TD*%
D32*
%TO.C,J3*%
X105000000Y-102475000D03*
X105000000Y-74025000D03*
D33*
X102460000Y-92573000D03*
X100680000Y-93589000D03*
X102460000Y-94605000D03*
X100680000Y-95621000D03*
X102460000Y-96637000D03*
X100680000Y-97653000D03*
X102460000Y-98669000D03*
X100680000Y-99685000D03*
X102460000Y-76823000D03*
X100680000Y-77839000D03*
X102460000Y-78855000D03*
X100680000Y-79871000D03*
X102460000Y-80887000D03*
X100680000Y-81903000D03*
X102460000Y-82919000D03*
X100680000Y-83935000D03*
%TD*%
D34*
%TO.C,Y1*%
X105000000Y-68018861D03*
X102500000Y-68018861D03*
%TD*%
D21*
%TO.C,C16*%
X44462500Y-71500000D03*
X46537500Y-71500000D03*
%TD*%
D22*
%TO.C,C15*%
X59500000Y-82000000D03*
X59500000Y-79925000D03*
%TD*%
D18*
%TO.C,A1*%
X68950000Y-55610000D03*
D35*
X71490000Y-55610000D03*
X74030000Y-55610000D03*
X76570000Y-55610000D03*
X79110000Y-55610000D03*
X81650000Y-55610000D03*
X84190000Y-55610000D03*
X86730000Y-55610000D03*
X89270000Y-55610000D03*
X91810000Y-55610000D03*
X94350000Y-55610000D03*
X96890000Y-55610000D03*
X99430000Y-55610000D03*
X101970000Y-55610000D03*
X104510000Y-55610000D03*
X104510000Y-40370000D03*
X101970000Y-40370000D03*
X99430000Y-40370000D03*
X96890000Y-40370000D03*
X94350000Y-40370000D03*
X91810000Y-40370000D03*
X89270000Y-40370000D03*
X86730000Y-40370000D03*
X84190000Y-40370000D03*
X81650000Y-40370000D03*
X79110000Y-40370000D03*
X76570000Y-40370000D03*
X74030000Y-40370000D03*
X71490000Y-40370000D03*
X68950000Y-40370000D03*
%TD*%
D21*
%TO.C,C20*%
X44750000Y-81656808D03*
X46825000Y-81656808D03*
%TD*%
D24*
%TO.C,U6*%
X44945001Y-73787502D03*
X44295000Y-73787502D03*
X43645001Y-73787502D03*
X42995000Y-73787502D03*
X42345001Y-73787502D03*
X41695000Y-73787502D03*
X41045001Y-73787502D03*
X40395000Y-73787502D03*
X40395000Y-79587500D03*
X41045001Y-79587500D03*
X41695000Y-79587500D03*
X42345001Y-79587500D03*
X42995000Y-79587500D03*
X43645001Y-79587500D03*
X44295000Y-79587500D03*
X44945001Y-79587500D03*
D25*
X42670002Y-76687501D03*
%TD*%
D24*
%TO.C,U4*%
X44945001Y-58787502D03*
X44295000Y-58787502D03*
X43645001Y-58787502D03*
X42995000Y-58787502D03*
X42345001Y-58787502D03*
X41695000Y-58787502D03*
X41045001Y-58787502D03*
X40395000Y-58787502D03*
X40395000Y-64587500D03*
X41045001Y-64587500D03*
X41695000Y-64587500D03*
X42345001Y-64587500D03*
X42995000Y-64587500D03*
X43645001Y-64587500D03*
X44295000Y-64587500D03*
X44945001Y-64587500D03*
D25*
X42670002Y-61687501D03*
%TD*%
D36*
%TO.C,J2*%
X88000000Y-33250000D03*
X88000000Y-27000000D03*
D37*
X83200000Y-30250000D03*
%TD*%
D22*
%TO.C,C24*%
X42874346Y-98825000D03*
X42874346Y-96750000D03*
%TD*%
D13*
%TO.C,JP8*%
X54150000Y-74200000D03*
D14*
X52850000Y-74200000D03*
%TD*%
D38*
%TO.C,C32*%
X96537500Y-59500000D03*
X94462500Y-59500000D03*
%TD*%
D17*
%TO.C,R7*%
X40500000Y-31750000D03*
X42500000Y-31750000D03*
%TD*%
%TO.C,R10*%
X40500000Y-35250000D03*
X42500000Y-35250000D03*
%TD*%
D19*
%TO.C,JP1*%
X74600000Y-63250000D03*
D20*
X75900000Y-63250000D03*
%TD*%
D24*
%TO.C,U2*%
X44945001Y-43787502D03*
X44295000Y-43787502D03*
X43645001Y-43787502D03*
X42995000Y-43787502D03*
X42345001Y-43787502D03*
X41695000Y-43787502D03*
X41045001Y-43787502D03*
X40395000Y-43787502D03*
X40395000Y-49587500D03*
X41045001Y-49587500D03*
X41695000Y-49587500D03*
X42345001Y-49587500D03*
X42995000Y-49587500D03*
X43645001Y-49587500D03*
X44295000Y-49587500D03*
X44945001Y-49587500D03*
D25*
X42670002Y-46687501D03*
%TD*%
D17*
%TO.C,R9*%
X52500000Y-71950000D03*
X54500000Y-71950000D03*
%TD*%
D13*
%TO.C,JP9*%
X54150000Y-89200000D03*
D14*
X52850000Y-89200000D03*
%TD*%
D38*
%TO.C,C31*%
X87787500Y-75750000D03*
X85712500Y-75750000D03*
%TD*%
D22*
%TO.C,C22*%
X59500000Y-97000000D03*
X59500000Y-94925000D03*
%TD*%
D16*
%TO.C,C4*%
X38217934Y-52194636D03*
X35092934Y-52194636D03*
%TD*%
D39*
%TO.C,R14*%
X61500000Y-107050000D03*
X61500000Y-100950000D03*
%TD*%
%TO.C,R15*%
X67000000Y-107050000D03*
X67000000Y-100950000D03*
%TD*%
D21*
%TO.C,C6*%
X44750000Y-51656808D03*
X46825000Y-51656808D03*
%TD*%
D22*
%TO.C,C33*%
X80000000Y-73037500D03*
X80000000Y-70962500D03*
%TD*%
D15*
%TO.C,C14*%
X48750000Y-57712500D03*
X48750000Y-59787500D03*
%TD*%
D22*
%TO.C,C10*%
X42874346Y-68825000D03*
X42874346Y-66750000D03*
%TD*%
D17*
%TO.C,R5*%
X48500000Y-55750000D03*
X50500000Y-55750000D03*
%TD*%
D21*
%TO.C,C23*%
X44462500Y-86500000D03*
X46537500Y-86500000D03*
%TD*%
D17*
%TO.C,R11*%
X48500000Y-85750000D03*
X50500000Y-85750000D03*
%TD*%
D16*
%TO.C,C25*%
X38232502Y-97187501D03*
X35107502Y-97187501D03*
%TD*%
D15*
%TO.C,C19*%
X40235532Y-82273779D03*
X40235532Y-84348779D03*
%TD*%
D26*
%TO.C,U1*%
X57497500Y-46850000D03*
X56227500Y-46850000D03*
X54957500Y-46850000D03*
X53687500Y-46850000D03*
X52417500Y-46850000D03*
X51147500Y-46850000D03*
X49877500Y-46850000D03*
X48607500Y-46850000D03*
X48607500Y-52000000D03*
X49877500Y-52000000D03*
X51147500Y-52000000D03*
X52417500Y-52000000D03*
X53687500Y-52000000D03*
X54957500Y-52000000D03*
X56227500Y-52000000D03*
X57497500Y-52000000D03*
%TD*%
%TO.C,U5*%
X57497500Y-76850000D03*
X56227500Y-76850000D03*
X54957500Y-76850000D03*
X53687500Y-76850000D03*
X52417500Y-76850000D03*
X51147500Y-76850000D03*
X49877500Y-76850000D03*
X48607500Y-76850000D03*
X48607500Y-82000000D03*
X49877500Y-82000000D03*
X51147500Y-82000000D03*
X52417500Y-82000000D03*
X53687500Y-82000000D03*
X54957500Y-82000000D03*
X56227500Y-82000000D03*
X57497500Y-82000000D03*
%TD*%
D17*
%TO.C,R8*%
X48500000Y-70750000D03*
X50500000Y-70750000D03*
%TD*%
D21*
%TO.C,C27*%
X44750000Y-96656808D03*
X46825000Y-96656808D03*
%TD*%
D22*
%TO.C,C8*%
X59500000Y-67000000D03*
X59500000Y-64925000D03*
%TD*%
D40*
%TO.C,U10*%
X82525000Y-70095000D03*
X82525000Y-71365000D03*
X82525000Y-72635000D03*
X82525000Y-73905000D03*
X87475000Y-73905000D03*
X87475000Y-72635000D03*
X87475000Y-71365000D03*
X87475000Y-70095000D03*
%TD*%
D21*
%TO.C,C35*%
X79212500Y-92750000D03*
X81287500Y-92750000D03*
%TD*%
D18*
%TO.C,U11*%
X74440000Y-80440000D03*
X74440000Y-82980000D03*
X74440000Y-85520000D03*
X74440000Y-88060000D03*
X82060000Y-88060000D03*
X82060000Y-85520000D03*
X82060000Y-82980000D03*
X82060000Y-80440000D03*
%TD*%
D22*
%TO.C,C17*%
X42874346Y-83825000D03*
X42874346Y-81750000D03*
%TD*%
D17*
%TO.C,R2*%
X48500000Y-40750000D03*
X50500000Y-40750000D03*
%TD*%
%TO.C,R3*%
X52500000Y-41950000D03*
X54500000Y-41950000D03*
%TD*%
D15*
%TO.C,C12*%
X40235532Y-67273779D03*
X40235532Y-69348779D03*
%TD*%
%TO.C,C5*%
X40235532Y-52273779D03*
X40235532Y-54348779D03*
%TD*%
D21*
%TO.C,C2*%
X44462500Y-41500000D03*
X46537500Y-41500000D03*
%TD*%
D22*
%TO.C,C1*%
X59500000Y-52000000D03*
X59500000Y-49925000D03*
%TD*%
D41*
%TO.C,J1*%
X24305000Y-97500000D03*
D42*
X24305000Y-92500000D03*
X24305000Y-87500000D03*
X24305000Y-82500000D03*
X24305000Y-77500000D03*
X24305000Y-72500000D03*
X24305000Y-67500000D03*
X24305000Y-62500000D03*
X24305000Y-57500000D03*
X24305000Y-52500000D03*
X24305000Y-47500000D03*
X24305000Y-42500000D03*
%TD*%
M02*
