M48
; DRILL file {KiCad 8.0.6} date 2024-12-06T15:31:43-0500
; FORMAT={-:-/ absolute / inch / decimal}
; #@! TF.CreationDate,2024-12-06T15:31:43-05:00
; #@! TF.GenerationSoftware,Kicad,Pcbnew,8.0.6
; #@! TF.FileFunction,Plated,1,2,PTH
FMAT,2
INCH
; #@! TA.AperFunction,Plated,PTH,ViaDrill
T1C0.0118
; #@! TA.AperFunction,Plated,PTH,ViaDrill
T2C0.0197
; #@! TA.AperFunction,Plated,PTH,ComponentDrill
T3C0.0236
; #@! TA.AperFunction,Plated,PTH,ComponentDrill
T4C0.0248
; #@! TA.AperFunction,Plated,PTH,ComponentDrill
T5C0.0315
; #@! TA.AperFunction,Plated,PTH,ComponentDrill
T6C0.0370
; #@! TA.AperFunction,Plated,PTH,ComponentDrill
T7C0.0394
; #@! TA.AperFunction,Plated,PTH,ComponentDrill
T8C0.0433
; #@! TA.AperFunction,Plated,PTH,ComponentDrill
T9C0.0512
; #@! TA.AperFunction,Plated,PTH,ComponentDrill
T10C0.1693
%
G90
G05
T1
X0.9055Y-4.2815
X0.9154Y-4.6161
X1.0335Y-1.7717
X1.2008Y-3.1693
X1.2106Y-1.4961
X1.2205Y-2.3425
X1.2205Y-2.7461
X1.2303Y-2.9528
X1.25Y-3.7795
X1.25Y-4.6358
X1.3878Y-2.3425
X1.4173Y-2.7559
X1.4272Y-1.5059
X1.4469Y-1.122
X1.4469Y-1.8012
X1.4469Y-2.185
X1.4469Y-2.9528
X1.4567Y-3.3563
X1.4764Y-3.5728
X1.5453Y-1.8602
X1.5846Y-1.6339
X1.5945Y-4.1043
X1.624Y-3.376
X1.6923Y-2.2195
X1.6927Y-1.7028
X1.6927Y-2.2933
X1.6927Y-2.8839
X1.6927Y-3.4744
X1.6929Y-2.8051
X1.7126Y-1.5256
X1.7183Y-2.2679
X1.7224Y-1.6732
X1.7224Y-2.8543
X1.7224Y-3.4449
X1.7421Y-2.7362
X1.7618Y-2.0965
X1.7815Y-3.2677
X1.7987Y-1.2573
X1.811Y-1.9488
X1.811Y-2.5394
X1.811Y-3.1299
X1.811Y-3.7106
X1.8307Y-1.752
X1.8307Y-2.2933
X1.8406Y-2.8937
X1.8406Y-3.4843
X1.8602Y-2.7264
X1.8701Y-1.2795
X1.8701Y-3.3071
X1.8799Y-4.1043
X1.8996Y-1.5059
X1.9193Y-1.45
X1.9291Y-1.9685
X1.9291Y-2.5591
X1.9291Y-3.1496
X1.9291Y-3.7402
X1.9794Y-1.717
X1.9794Y-2.3075
X1.9794Y-2.8981
X1.9794Y-3.4886
X1.9924Y-3.4622
X2.0093Y-2.2786
X2.0149Y-2.8701
X2.0177Y-1.7815
X2.0472Y-1.9685
X2.0472Y-2.5394
X2.0472Y-3.1496
X2.0571Y-3.7106
X2.0669Y-3.8976
X2.0768Y-2.1063
X2.0768Y-2.7067
X2.0768Y-3.2972
X2.1157Y-2.7067
X2.1157Y-3.2972
X2.1161Y-2.1063
X2.126Y-3.8976
X2.1354Y-1.9689
X2.1354Y-3.15
X2.1457Y-3.6811
X2.1555Y-2.5492
X2.1949Y-3.7205
X2.2146Y-2.1358
X2.2244Y-3.4055
X2.2441Y-0.9547
X2.2441Y-1.5453
X2.2736Y-2.7067
X2.2736Y-3.2972
X2.2736Y-3.878
X2.2769Y-2.1063
X2.3031Y-2.2047
X2.3327Y-1.0531
X2.3327Y-1.7815
X2.3327Y-2.8248
X2.3425Y-2.2933
X2.3819Y-1.6142
X2.3917Y-2.2343
X2.4114Y-2.4705
X2.4803Y-2.9724
X2.4902Y-2.313
X2.5Y-3.7795
X2.5394Y-3.5335
X2.5886Y-3.2677
X2.6476Y-2.4213
X2.6673Y-3.4055
X2.7362Y-2.6969
X2.7559Y-2.1063
X2.7559Y-3.622
X2.874Y-2.4902
X2.8839Y-3.6122
X2.8839Y-4.2126
X2.9035Y-2.313
X2.9134Y-2.7756
X2.9134Y-2.9921
X2.9921Y-3.9665
X3.0512Y-2.5984
X3.0709Y-1.8504
X3.1496Y-0.8563
X3.1594Y-3.3661
X3.1693Y-2.5787
X3.1693Y-2.9331
X3.189Y-1.811
X3.1988Y-4.0059
X3.2087Y-4.0748
X3.2911Y-2.414
X3.2972Y-2.9528
X3.3071Y-2.628
X3.3169Y-3.6516
X3.3268Y-1.8504
X3.3858Y-3.4843
X3.4055Y-3.376
X3.4154Y-2.687
X3.4252Y-1.6929
X3.4252Y-2.6378
X3.4449Y-4.0945
X3.4646Y-2.3819
X3.4646Y-2.9921
X3.4724Y-2.0472
X3.5039Y-2.5886
X3.5335Y-3.2972
X3.5433Y-3.1004
X3.5827Y-2.6378
X3.5827Y-3.4843
X3.6024Y-2.7657
X3.6614Y-4.1437
X3.6909Y-1.4272
X3.6909Y-3.8287
X3.7008Y-2.3898
X3.7008Y-3.4941
X3.7106Y-2.4606
X3.7402Y-2.5886
X3.75Y-2.5
X3.7697Y-2.7756
X3.8091Y-4.6161
X3.8386Y-2.3425
X3.8484Y-3.4055
X3.8484Y-3.563
X3.9862Y-3.9764
X4.0059Y-3.4744
X4.0551Y-1.8898
X4.1142Y-2.4409
X4.1535Y-3.2874
X4.1535Y-3.8583
X4.1831Y-4.2717
X4.1929Y-4.5571
X4.2224Y-0.8858
X4.2421Y-1.2205
T2
X1.5059Y-2.1161
X1.5059Y-2.7067
X1.5059Y-3.2972
X1.5059Y-3.8878
X1.5333Y-2.0747
X1.5333Y-2.6652
X1.5333Y-3.2558
X1.5333Y-3.8463
X1.5841Y-2.058
X1.5841Y-2.6486
X1.5841Y-3.8297
X1.6016Y-3.2383
X1.6457Y-1.8381
X1.6457Y-2.4291
X1.6457Y-3.0197
X1.6457Y-3.6102
X1.6654Y-1.8031
X1.6654Y-1.874
X1.6654Y-2.3942
X1.6654Y-2.4651
X1.6654Y-2.9847
X1.6654Y-3.0556
X1.6654Y-3.5753
X1.6654Y-3.6462
X1.685Y-1.8381
X1.685Y-2.4291
X1.685Y-3.0197
X1.685Y-3.6102
X1.7047Y-1.8031
X1.7047Y-1.874
X1.7047Y-2.3942
X1.7047Y-2.4651
X1.7047Y-2.9847
X1.7047Y-3.0556
X1.7047Y-3.5753
X1.7047Y-3.6462
X1.7244Y-1.8386
X1.7244Y-2.4296
X1.7244Y-3.0202
X1.7244Y-3.6107
T3
X1.0541Y-1.1811
X1.0541Y-4.3307
X1.0913Y-1.0913
X1.0913Y-1.2709
X1.0913Y-4.2409
X1.0913Y-4.4205
X1.1811Y-1.0541
X1.1811Y-1.3081
X1.1811Y-4.2037
X1.1811Y-4.4577
X1.2709Y-1.0913
X1.2709Y-1.2709
X1.2709Y-4.2409
X1.2709Y-4.4205
X1.3081Y-1.1811
X1.3081Y-4.3307
X3.81Y-1.1811
X3.81Y-4.3307
X3.8472Y-1.0913
X3.8472Y-1.2709
X3.8472Y-4.2409
X3.8472Y-4.4205
X3.937Y-1.0541
X3.937Y-1.3081
X3.937Y-4.2037
X3.937Y-4.4577
X4.0268Y-1.0913
X4.0268Y-1.2709
X4.0268Y-4.2409
X4.0268Y-4.4205
X4.064Y-1.1811
X4.064Y-4.3307
T4
X4.0354Y-2.6779
X4.1339Y-2.6779
T6
X3.9638Y-3.0645
X3.9638Y-3.1445
X3.9638Y-3.2245
X3.9638Y-3.3045
X3.9638Y-3.6846
X3.9638Y-3.7646
X3.9638Y-3.8446
X3.9638Y-3.9246
X4.0339Y-3.0245
X4.0339Y-3.1045
X4.0339Y-3.1845
X4.0339Y-3.2645
X4.0339Y-3.6446
X4.0339Y-3.7246
X4.0339Y-3.8046
X4.0339Y-3.8846
T7
X2.7146Y-1.5894
X2.7146Y-2.1894
X2.8146Y-1.5894
X2.8146Y-2.1894
X2.9146Y-1.5894
X2.9146Y-2.1894
X3.0146Y-1.5894
X3.0146Y-2.1894
X3.1146Y-1.5894
X3.1146Y-2.1894
X3.2146Y-1.5894
X3.2146Y-2.1894
X3.3146Y-1.5894
X3.3146Y-2.1894
X3.4146Y-1.5894
X3.4146Y-2.1894
X3.5146Y-1.5894
X3.5146Y-2.1894
X3.6146Y-1.5894
X3.6146Y-2.1894
X3.7146Y-1.5894
X3.7146Y-2.1894
X3.8146Y-1.5894
X3.8146Y-2.1894
X3.9146Y-1.5894
X3.9146Y-2.1894
X4.0146Y-1.5894
X4.0146Y-2.1894
X4.1146Y-1.5894
X4.1146Y-2.1894
T8
X2.6181Y-1.1614
X2.6181Y-1.4173
X2.7953Y-1.1614
X2.7953Y-1.4173
T9
X0.9569Y-1.6732
X0.9569Y-1.8701
X0.9569Y-2.0669
X0.9569Y-2.2638
X0.9569Y-2.4606
X0.9569Y-2.6575
X0.9569Y-2.8543
X0.9569Y-3.0512
X0.9569Y-3.248
X0.9569Y-3.4449
X0.9569Y-3.6417
X0.9569Y-3.8386
T10
X1.1811Y-1.1811
X1.1811Y-4.3307
X3.937Y-1.1811
X3.937Y-4.3307
T5
G00X3.2756Y-1.2343
M15
G01X3.2756Y-1.1476
M16
G05
G00X3.5079Y-1.063
M15
G01X3.4213Y-1.063
M16
G05
G00X3.5079Y-1.3091
M15
G01X3.4213Y-1.3091
M16
G05
M30
