%TF.GenerationSoftware,KiCad,Pcbnew,8.0.2*%
%TF.CreationDate,2024-05-14T20:52:01-05:00*%
%TF.ProjectId,LCC_Booster,4c43435f-426f-46f7-9374-65722e6b6963,2*%
%TF.SameCoordinates,Original*%
%TF.FileFunction,Legend,Top*%
%TF.FilePolarity,Positive*%
%FSLAX46Y46*%
G04 Gerber Fmt 4.6, Leading zero omitted, Abs format (unit mm)*
G04 Created by KiCad (PCBNEW 8.0.2) date 2024-05-14 20:52:01*
%MOMM*%
%LPD*%
G01*
G04 APERTURE LIST*
%ADD10C,0.200000*%
%ADD11C,0.187500*%
%ADD12C,0.300000*%
%ADD13C,0.150000*%
%ADD14C,0.120000*%
%ADD15C,0.127000*%
%ADD16C,0.609600*%
G04 APERTURE END LIST*
D10*
X39750000Y-105000000D02*
X84750000Y-105000000D01*
X84750000Y-115000000D01*
X39750000Y-115000000D01*
X39750000Y-105000000D01*
G36*
X39750000Y-105000000D02*
G01*
X84750000Y-105000000D01*
X84750000Y-115000000D01*
X39750000Y-115000000D01*
X39750000Y-105000000D01*
G37*
D11*
X80693321Y-65694783D02*
X80693321Y-64980497D01*
X80693321Y-64980497D02*
X79979035Y-64909069D01*
X79979035Y-64909069D02*
X80050464Y-64980497D01*
X80050464Y-64980497D02*
X80121892Y-65123355D01*
X80121892Y-65123355D02*
X80121892Y-65480497D01*
X80121892Y-65480497D02*
X80050464Y-65623355D01*
X80050464Y-65623355D02*
X79979035Y-65694783D01*
X79979035Y-65694783D02*
X79836178Y-65766212D01*
X79836178Y-65766212D02*
X79479035Y-65766212D01*
X79479035Y-65766212D02*
X79336178Y-65694783D01*
X79336178Y-65694783D02*
X79264750Y-65623355D01*
X79264750Y-65623355D02*
X79193321Y-65480497D01*
X79193321Y-65480497D02*
X79193321Y-65123355D01*
X79193321Y-65123355D02*
X79264750Y-64980497D01*
X79264750Y-64980497D02*
X79336178Y-64909069D01*
X80193321Y-66266211D02*
X79193321Y-66623354D01*
X79193321Y-66623354D02*
X80193321Y-66980497D01*
D12*
X30554510Y-83300828D02*
X30554510Y-81800828D01*
X30554510Y-81800828D02*
X30911653Y-81800828D01*
X30911653Y-81800828D02*
X31125939Y-81872257D01*
X31125939Y-81872257D02*
X31268796Y-82015114D01*
X31268796Y-82015114D02*
X31340225Y-82157971D01*
X31340225Y-82157971D02*
X31411653Y-82443685D01*
X31411653Y-82443685D02*
X31411653Y-82657971D01*
X31411653Y-82657971D02*
X31340225Y-82943685D01*
X31340225Y-82943685D02*
X31268796Y-83086542D01*
X31268796Y-83086542D02*
X31125939Y-83229400D01*
X31125939Y-83229400D02*
X30911653Y-83300828D01*
X30911653Y-83300828D02*
X30554510Y-83300828D01*
X32054510Y-82729400D02*
X33197368Y-82729400D01*
X32625939Y-83300828D02*
X32625939Y-82157971D01*
X31054510Y-62515114D02*
X31268796Y-62586542D01*
X31268796Y-62586542D02*
X31340225Y-62657971D01*
X31340225Y-62657971D02*
X31411653Y-62800828D01*
X31411653Y-62800828D02*
X31411653Y-63015114D01*
X31411653Y-63015114D02*
X31340225Y-63157971D01*
X31340225Y-63157971D02*
X31268796Y-63229400D01*
X31268796Y-63229400D02*
X31125939Y-63300828D01*
X31125939Y-63300828D02*
X30554510Y-63300828D01*
X30554510Y-63300828D02*
X30554510Y-61800828D01*
X30554510Y-61800828D02*
X31054510Y-61800828D01*
X31054510Y-61800828D02*
X31197368Y-61872257D01*
X31197368Y-61872257D02*
X31268796Y-61943685D01*
X31268796Y-61943685D02*
X31340225Y-62086542D01*
X31340225Y-62086542D02*
X31340225Y-62229400D01*
X31340225Y-62229400D02*
X31268796Y-62372257D01*
X31268796Y-62372257D02*
X31197368Y-62443685D01*
X31197368Y-62443685D02*
X31054510Y-62515114D01*
X31054510Y-62515114D02*
X30554510Y-62515114D01*
X32054510Y-62729400D02*
X33197368Y-62729400D01*
X32625939Y-63300828D02*
X32625939Y-62157971D01*
X64300828Y-34088346D02*
X63586542Y-34588346D01*
X64300828Y-34945489D02*
X62800828Y-34945489D01*
X62800828Y-34945489D02*
X62800828Y-34374060D01*
X62800828Y-34374060D02*
X62872257Y-34231203D01*
X62872257Y-34231203D02*
X62943685Y-34159774D01*
X62943685Y-34159774D02*
X63086542Y-34088346D01*
X63086542Y-34088346D02*
X63300828Y-34088346D01*
X63300828Y-34088346D02*
X63443685Y-34159774D01*
X63443685Y-34159774D02*
X63515114Y-34231203D01*
X63515114Y-34231203D02*
X63586542Y-34374060D01*
X63586542Y-34374060D02*
X63586542Y-34945489D01*
X64229400Y-32874060D02*
X64300828Y-33016917D01*
X64300828Y-33016917D02*
X64300828Y-33302632D01*
X64300828Y-33302632D02*
X64229400Y-33445489D01*
X64229400Y-33445489D02*
X64086542Y-33516917D01*
X64086542Y-33516917D02*
X63515114Y-33516917D01*
X63515114Y-33516917D02*
X63372257Y-33445489D01*
X63372257Y-33445489D02*
X63300828Y-33302632D01*
X63300828Y-33302632D02*
X63300828Y-33016917D01*
X63300828Y-33016917D02*
X63372257Y-32874060D01*
X63372257Y-32874060D02*
X63515114Y-32802632D01*
X63515114Y-32802632D02*
X63657971Y-32802632D01*
X63657971Y-32802632D02*
X63800828Y-33516917D01*
X64229400Y-32231203D02*
X64300828Y-32088346D01*
X64300828Y-32088346D02*
X64300828Y-31802632D01*
X64300828Y-31802632D02*
X64229400Y-31659775D01*
X64229400Y-31659775D02*
X64086542Y-31588346D01*
X64086542Y-31588346D02*
X64015114Y-31588346D01*
X64015114Y-31588346D02*
X63872257Y-31659775D01*
X63872257Y-31659775D02*
X63800828Y-31802632D01*
X63800828Y-31802632D02*
X63800828Y-32016918D01*
X63800828Y-32016918D02*
X63729400Y-32159775D01*
X63729400Y-32159775D02*
X63586542Y-32231203D01*
X63586542Y-32231203D02*
X63515114Y-32231203D01*
X63515114Y-32231203D02*
X63372257Y-32159775D01*
X63372257Y-32159775D02*
X63300828Y-32016918D01*
X63300828Y-32016918D02*
X63300828Y-31802632D01*
X63300828Y-31802632D02*
X63372257Y-31659775D01*
X64229400Y-30374060D02*
X64300828Y-30516917D01*
X64300828Y-30516917D02*
X64300828Y-30802632D01*
X64300828Y-30802632D02*
X64229400Y-30945489D01*
X64229400Y-30945489D02*
X64086542Y-31016917D01*
X64086542Y-31016917D02*
X63515114Y-31016917D01*
X63515114Y-31016917D02*
X63372257Y-30945489D01*
X63372257Y-30945489D02*
X63300828Y-30802632D01*
X63300828Y-30802632D02*
X63300828Y-30516917D01*
X63300828Y-30516917D02*
X63372257Y-30374060D01*
X63372257Y-30374060D02*
X63515114Y-30302632D01*
X63515114Y-30302632D02*
X63657971Y-30302632D01*
X63657971Y-30302632D02*
X63800828Y-31016917D01*
X63300828Y-29874060D02*
X63300828Y-29302632D01*
X62800828Y-29659775D02*
X64086542Y-29659775D01*
X64086542Y-29659775D02*
X64229400Y-29588346D01*
X64229400Y-29588346D02*
X64300828Y-29445489D01*
X64300828Y-29445489D02*
X64300828Y-29302632D01*
D11*
X76193321Y-64837640D02*
X76193321Y-65766212D01*
X76193321Y-65766212D02*
X75621892Y-65266212D01*
X75621892Y-65266212D02*
X75621892Y-65480497D01*
X75621892Y-65480497D02*
X75550464Y-65623355D01*
X75550464Y-65623355D02*
X75479035Y-65694783D01*
X75479035Y-65694783D02*
X75336178Y-65766212D01*
X75336178Y-65766212D02*
X74979035Y-65766212D01*
X74979035Y-65766212D02*
X74836178Y-65694783D01*
X74836178Y-65694783D02*
X74764750Y-65623355D01*
X74764750Y-65623355D02*
X74693321Y-65480497D01*
X74693321Y-65480497D02*
X74693321Y-65051926D01*
X74693321Y-65051926D02*
X74764750Y-64909069D01*
X74764750Y-64909069D02*
X74836178Y-64837640D01*
X74836178Y-66409068D02*
X74764750Y-66480497D01*
X74764750Y-66480497D02*
X74693321Y-66409068D01*
X74693321Y-66409068D02*
X74764750Y-66337640D01*
X74764750Y-66337640D02*
X74836178Y-66409068D01*
X74836178Y-66409068D02*
X74693321Y-66409068D01*
X76193321Y-66980497D02*
X76193321Y-67909069D01*
X76193321Y-67909069D02*
X75621892Y-67409069D01*
X75621892Y-67409069D02*
X75621892Y-67623354D01*
X75621892Y-67623354D02*
X75550464Y-67766212D01*
X75550464Y-67766212D02*
X75479035Y-67837640D01*
X75479035Y-67837640D02*
X75336178Y-67909069D01*
X75336178Y-67909069D02*
X74979035Y-67909069D01*
X74979035Y-67909069D02*
X74836178Y-67837640D01*
X74836178Y-67837640D02*
X74764750Y-67766212D01*
X74764750Y-67766212D02*
X74693321Y-67623354D01*
X74693321Y-67623354D02*
X74693321Y-67194783D01*
X74693321Y-67194783D02*
X74764750Y-67051926D01*
X74764750Y-67051926D02*
X74836178Y-66980497D01*
X75693321Y-68409068D02*
X74693321Y-68766211D01*
X74693321Y-68766211D02*
X75693321Y-69123354D01*
D12*
X31054510Y-67515114D02*
X31268796Y-67586542D01*
X31268796Y-67586542D02*
X31340225Y-67657971D01*
X31340225Y-67657971D02*
X31411653Y-67800828D01*
X31411653Y-67800828D02*
X31411653Y-68015114D01*
X31411653Y-68015114D02*
X31340225Y-68157971D01*
X31340225Y-68157971D02*
X31268796Y-68229400D01*
X31268796Y-68229400D02*
X31125939Y-68300828D01*
X31125939Y-68300828D02*
X30554510Y-68300828D01*
X30554510Y-68300828D02*
X30554510Y-66800828D01*
X30554510Y-66800828D02*
X31054510Y-66800828D01*
X31054510Y-66800828D02*
X31197368Y-66872257D01*
X31197368Y-66872257D02*
X31268796Y-66943685D01*
X31268796Y-66943685D02*
X31340225Y-67086542D01*
X31340225Y-67086542D02*
X31340225Y-67229400D01*
X31340225Y-67229400D02*
X31268796Y-67372257D01*
X31268796Y-67372257D02*
X31197368Y-67443685D01*
X31197368Y-67443685D02*
X31054510Y-67515114D01*
X31054510Y-67515114D02*
X30554510Y-67515114D01*
X32054510Y-67729400D02*
X33197368Y-67729400D01*
X31340225Y-46872257D02*
X31197368Y-46800828D01*
X31197368Y-46800828D02*
X30983082Y-46800828D01*
X30983082Y-46800828D02*
X30768796Y-46872257D01*
X30768796Y-46872257D02*
X30625939Y-47015114D01*
X30625939Y-47015114D02*
X30554510Y-47157971D01*
X30554510Y-47157971D02*
X30483082Y-47443685D01*
X30483082Y-47443685D02*
X30483082Y-47657971D01*
X30483082Y-47657971D02*
X30554510Y-47943685D01*
X30554510Y-47943685D02*
X30625939Y-48086542D01*
X30625939Y-48086542D02*
X30768796Y-48229400D01*
X30768796Y-48229400D02*
X30983082Y-48300828D01*
X30983082Y-48300828D02*
X31125939Y-48300828D01*
X31125939Y-48300828D02*
X31340225Y-48229400D01*
X31340225Y-48229400D02*
X31411653Y-48157971D01*
X31411653Y-48157971D02*
X31411653Y-47657971D01*
X31411653Y-47657971D02*
X31125939Y-47657971D01*
X32054510Y-48300828D02*
X32054510Y-46800828D01*
X32054510Y-46800828D02*
X32911653Y-48300828D01*
X32911653Y-48300828D02*
X32911653Y-46800828D01*
X33625939Y-48300828D02*
X33625939Y-46800828D01*
X33625939Y-46800828D02*
X33983082Y-46800828D01*
X33983082Y-46800828D02*
X34197368Y-46872257D01*
X34197368Y-46872257D02*
X34340225Y-47015114D01*
X34340225Y-47015114D02*
X34411654Y-47157971D01*
X34411654Y-47157971D02*
X34483082Y-47443685D01*
X34483082Y-47443685D02*
X34483082Y-47657971D01*
X34483082Y-47657971D02*
X34411654Y-47943685D01*
X34411654Y-47943685D02*
X34340225Y-48086542D01*
X34340225Y-48086542D02*
X34197368Y-48229400D01*
X34197368Y-48229400D02*
X33983082Y-48300828D01*
X33983082Y-48300828D02*
X33625939Y-48300828D01*
X31411653Y-73157971D02*
X31340225Y-73229400D01*
X31340225Y-73229400D02*
X31125939Y-73300828D01*
X31125939Y-73300828D02*
X30983082Y-73300828D01*
X30983082Y-73300828D02*
X30768796Y-73229400D01*
X30768796Y-73229400D02*
X30625939Y-73086542D01*
X30625939Y-73086542D02*
X30554510Y-72943685D01*
X30554510Y-72943685D02*
X30483082Y-72657971D01*
X30483082Y-72657971D02*
X30483082Y-72443685D01*
X30483082Y-72443685D02*
X30554510Y-72157971D01*
X30554510Y-72157971D02*
X30625939Y-72015114D01*
X30625939Y-72015114D02*
X30768796Y-71872257D01*
X30768796Y-71872257D02*
X30983082Y-71800828D01*
X30983082Y-71800828D02*
X31125939Y-71800828D01*
X31125939Y-71800828D02*
X31340225Y-71872257D01*
X31340225Y-71872257D02*
X31411653Y-71943685D01*
X32054510Y-72729400D02*
X33197368Y-72729400D01*
X32625939Y-73300828D02*
X32625939Y-72157971D01*
X93199171Y-22554510D02*
X94699171Y-22554510D01*
X94699171Y-22554510D02*
X93199171Y-23411653D01*
X93199171Y-23411653D02*
X94699171Y-23411653D01*
X93199171Y-24768797D02*
X93984885Y-24768797D01*
X93984885Y-24768797D02*
X94127742Y-24697368D01*
X94127742Y-24697368D02*
X94199171Y-24554511D01*
X94199171Y-24554511D02*
X94199171Y-24268797D01*
X94199171Y-24268797D02*
X94127742Y-24125939D01*
X93270600Y-24768797D02*
X93199171Y-24625939D01*
X93199171Y-24625939D02*
X93199171Y-24268797D01*
X93199171Y-24268797D02*
X93270600Y-24125939D01*
X93270600Y-24125939D02*
X93413457Y-24054511D01*
X93413457Y-24054511D02*
X93556314Y-24054511D01*
X93556314Y-24054511D02*
X93699171Y-24125939D01*
X93699171Y-24125939D02*
X93770600Y-24268797D01*
X93770600Y-24268797D02*
X93770600Y-24625939D01*
X93770600Y-24625939D02*
X93842028Y-24768797D01*
X94199171Y-25483082D02*
X93199171Y-25483082D01*
X94056314Y-25483082D02*
X94127742Y-25554511D01*
X94127742Y-25554511D02*
X94199171Y-25697368D01*
X94199171Y-25697368D02*
X94199171Y-25911654D01*
X94199171Y-25911654D02*
X94127742Y-26054511D01*
X94127742Y-26054511D02*
X93984885Y-26125940D01*
X93984885Y-26125940D02*
X93199171Y-26125940D01*
X93199171Y-27054511D02*
X93270600Y-26911654D01*
X93270600Y-26911654D02*
X93342028Y-26840225D01*
X93342028Y-26840225D02*
X93484885Y-26768797D01*
X93484885Y-26768797D02*
X93913457Y-26768797D01*
X93913457Y-26768797D02*
X94056314Y-26840225D01*
X94056314Y-26840225D02*
X94127742Y-26911654D01*
X94127742Y-26911654D02*
X94199171Y-27054511D01*
X94199171Y-27054511D02*
X94199171Y-27268797D01*
X94199171Y-27268797D02*
X94127742Y-27411654D01*
X94127742Y-27411654D02*
X94056314Y-27483083D01*
X94056314Y-27483083D02*
X93913457Y-27554511D01*
X93913457Y-27554511D02*
X93484885Y-27554511D01*
X93484885Y-27554511D02*
X93342028Y-27483083D01*
X93342028Y-27483083D02*
X93270600Y-27411654D01*
X93270600Y-27411654D02*
X93199171Y-27268797D01*
X93199171Y-27268797D02*
X93199171Y-27054511D01*
X94699171Y-29125940D02*
X93199171Y-29625940D01*
X93199171Y-29625940D02*
X94699171Y-30125940D01*
X93033457Y-30554511D02*
X94233457Y-30554511D01*
X93033457Y-31125940D02*
X94233457Y-31125940D01*
X94233457Y-31125940D02*
X93033457Y-31811654D01*
X93033457Y-31811654D02*
X94233457Y-31811654D01*
X30483082Y-57872257D02*
X31197368Y-57872257D01*
X30340225Y-58300828D02*
X30840225Y-56800828D01*
X30840225Y-56800828D02*
X31340225Y-58300828D01*
X31840224Y-57729400D02*
X32983082Y-57729400D01*
X30554510Y-88300828D02*
X30554510Y-86800828D01*
X30554510Y-86800828D02*
X30911653Y-86800828D01*
X30911653Y-86800828D02*
X31125939Y-86872257D01*
X31125939Y-86872257D02*
X31268796Y-87015114D01*
X31268796Y-87015114D02*
X31340225Y-87157971D01*
X31340225Y-87157971D02*
X31411653Y-87443685D01*
X31411653Y-87443685D02*
X31411653Y-87657971D01*
X31411653Y-87657971D02*
X31340225Y-87943685D01*
X31340225Y-87943685D02*
X31268796Y-88086542D01*
X31268796Y-88086542D02*
X31125939Y-88229400D01*
X31125939Y-88229400D02*
X30911653Y-88300828D01*
X30911653Y-88300828D02*
X30554510Y-88300828D01*
X32054510Y-87729400D02*
X33197368Y-87729400D01*
X21840225Y-36800828D02*
X22340225Y-38300828D01*
X22340225Y-38300828D02*
X22840225Y-36800828D01*
X23097367Y-37266542D02*
X23783082Y-37266542D01*
X23440224Y-38466542D02*
X23440224Y-37266542D01*
X24868796Y-38466542D02*
X24468796Y-37895114D01*
X24183082Y-38466542D02*
X24183082Y-37266542D01*
X24183082Y-37266542D02*
X24640225Y-37266542D01*
X24640225Y-37266542D02*
X24754510Y-37323685D01*
X24754510Y-37323685D02*
X24811653Y-37380828D01*
X24811653Y-37380828D02*
X24868796Y-37495114D01*
X24868796Y-37495114D02*
X24868796Y-37666542D01*
X24868796Y-37666542D02*
X24811653Y-37780828D01*
X24811653Y-37780828D02*
X24754510Y-37837971D01*
X24754510Y-37837971D02*
X24640225Y-37895114D01*
X24640225Y-37895114D02*
X24183082Y-37895114D01*
X25325939Y-38123685D02*
X25897368Y-38123685D01*
X25211653Y-38466542D02*
X25611653Y-37266542D01*
X25611653Y-37266542D02*
X26011653Y-38466542D01*
X27097367Y-38352257D02*
X27040224Y-38409400D01*
X27040224Y-38409400D02*
X26868796Y-38466542D01*
X26868796Y-38466542D02*
X26754510Y-38466542D01*
X26754510Y-38466542D02*
X26583081Y-38409400D01*
X26583081Y-38409400D02*
X26468796Y-38295114D01*
X26468796Y-38295114D02*
X26411653Y-38180828D01*
X26411653Y-38180828D02*
X26354510Y-37952257D01*
X26354510Y-37952257D02*
X26354510Y-37780828D01*
X26354510Y-37780828D02*
X26411653Y-37552257D01*
X26411653Y-37552257D02*
X26468796Y-37437971D01*
X26468796Y-37437971D02*
X26583081Y-37323685D01*
X26583081Y-37323685D02*
X26754510Y-37266542D01*
X26754510Y-37266542D02*
X26868796Y-37266542D01*
X26868796Y-37266542D02*
X27040224Y-37323685D01*
X27040224Y-37323685D02*
X27097367Y-37380828D01*
X27611653Y-38466542D02*
X27611653Y-37266542D01*
X28297367Y-38466542D02*
X27783081Y-37780828D01*
X28297367Y-37266542D02*
X27611653Y-37952257D01*
X30483082Y-52872257D02*
X31197368Y-52872257D01*
X30340225Y-53300828D02*
X30840225Y-51800828D01*
X30840225Y-51800828D02*
X31340225Y-53300828D01*
X31840224Y-52729400D02*
X32983082Y-52729400D01*
X32411653Y-53300828D02*
X32411653Y-52157971D01*
X22054510Y-103300828D02*
X22054510Y-101800828D01*
X22054510Y-101800828D02*
X22411653Y-101800828D01*
X22411653Y-101800828D02*
X22625939Y-101872257D01*
X22625939Y-101872257D02*
X22768796Y-102015114D01*
X22768796Y-102015114D02*
X22840225Y-102157971D01*
X22840225Y-102157971D02*
X22911653Y-102443685D01*
X22911653Y-102443685D02*
X22911653Y-102657971D01*
X22911653Y-102657971D02*
X22840225Y-102943685D01*
X22840225Y-102943685D02*
X22768796Y-103086542D01*
X22768796Y-103086542D02*
X22625939Y-103229400D01*
X22625939Y-103229400D02*
X22411653Y-103300828D01*
X22411653Y-103300828D02*
X22054510Y-103300828D01*
X24411653Y-103157971D02*
X24340225Y-103229400D01*
X24340225Y-103229400D02*
X24125939Y-103300828D01*
X24125939Y-103300828D02*
X23983082Y-103300828D01*
X23983082Y-103300828D02*
X23768796Y-103229400D01*
X23768796Y-103229400D02*
X23625939Y-103086542D01*
X23625939Y-103086542D02*
X23554510Y-102943685D01*
X23554510Y-102943685D02*
X23483082Y-102657971D01*
X23483082Y-102657971D02*
X23483082Y-102443685D01*
X23483082Y-102443685D02*
X23554510Y-102157971D01*
X23554510Y-102157971D02*
X23625939Y-102015114D01*
X23625939Y-102015114D02*
X23768796Y-101872257D01*
X23768796Y-101872257D02*
X23983082Y-101800828D01*
X23983082Y-101800828D02*
X24125939Y-101800828D01*
X24125939Y-101800828D02*
X24340225Y-101872257D01*
X24340225Y-101872257D02*
X24411653Y-101943685D01*
X25911653Y-103157971D02*
X25840225Y-103229400D01*
X25840225Y-103229400D02*
X25625939Y-103300828D01*
X25625939Y-103300828D02*
X25483082Y-103300828D01*
X25483082Y-103300828D02*
X25268796Y-103229400D01*
X25268796Y-103229400D02*
X25125939Y-103086542D01*
X25125939Y-103086542D02*
X25054510Y-102943685D01*
X25054510Y-102943685D02*
X24983082Y-102657971D01*
X24983082Y-102657971D02*
X24983082Y-102443685D01*
X24983082Y-102443685D02*
X25054510Y-102157971D01*
X25054510Y-102157971D02*
X25125939Y-102015114D01*
X25125939Y-102015114D02*
X25268796Y-101872257D01*
X25268796Y-101872257D02*
X25483082Y-101800828D01*
X25483082Y-101800828D02*
X25625939Y-101800828D01*
X25625939Y-101800828D02*
X25840225Y-101872257D01*
X25840225Y-101872257D02*
X25911653Y-101943685D01*
X26554510Y-102729400D02*
X27697368Y-102729400D01*
X30554510Y-93300828D02*
X30554510Y-91800828D01*
X30554510Y-91800828D02*
X30911653Y-91800828D01*
X30911653Y-91800828D02*
X31125939Y-91872257D01*
X31125939Y-91872257D02*
X31268796Y-92015114D01*
X31268796Y-92015114D02*
X31340225Y-92157971D01*
X31340225Y-92157971D02*
X31411653Y-92443685D01*
X31411653Y-92443685D02*
X31411653Y-92657971D01*
X31411653Y-92657971D02*
X31340225Y-92943685D01*
X31340225Y-92943685D02*
X31268796Y-93086542D01*
X31268796Y-93086542D02*
X31125939Y-93229400D01*
X31125939Y-93229400D02*
X30911653Y-93300828D01*
X30911653Y-93300828D02*
X30554510Y-93300828D01*
X32911653Y-93157971D02*
X32840225Y-93229400D01*
X32840225Y-93229400D02*
X32625939Y-93300828D01*
X32625939Y-93300828D02*
X32483082Y-93300828D01*
X32483082Y-93300828D02*
X32268796Y-93229400D01*
X32268796Y-93229400D02*
X32125939Y-93086542D01*
X32125939Y-93086542D02*
X32054510Y-92943685D01*
X32054510Y-92943685D02*
X31983082Y-92657971D01*
X31983082Y-92657971D02*
X31983082Y-92443685D01*
X31983082Y-92443685D02*
X32054510Y-92157971D01*
X32054510Y-92157971D02*
X32125939Y-92015114D01*
X32125939Y-92015114D02*
X32268796Y-91872257D01*
X32268796Y-91872257D02*
X32483082Y-91800828D01*
X32483082Y-91800828D02*
X32625939Y-91800828D01*
X32625939Y-91800828D02*
X32840225Y-91872257D01*
X32840225Y-91872257D02*
X32911653Y-91943685D01*
X34411653Y-93157971D02*
X34340225Y-93229400D01*
X34340225Y-93229400D02*
X34125939Y-93300828D01*
X34125939Y-93300828D02*
X33983082Y-93300828D01*
X33983082Y-93300828D02*
X33768796Y-93229400D01*
X33768796Y-93229400D02*
X33625939Y-93086542D01*
X33625939Y-93086542D02*
X33554510Y-92943685D01*
X33554510Y-92943685D02*
X33483082Y-92657971D01*
X33483082Y-92657971D02*
X33483082Y-92443685D01*
X33483082Y-92443685D02*
X33554510Y-92157971D01*
X33554510Y-92157971D02*
X33625939Y-92015114D01*
X33625939Y-92015114D02*
X33768796Y-91872257D01*
X33768796Y-91872257D02*
X33983082Y-91800828D01*
X33983082Y-91800828D02*
X34125939Y-91800828D01*
X34125939Y-91800828D02*
X34340225Y-91872257D01*
X34340225Y-91872257D02*
X34411653Y-91943685D01*
X35054510Y-92729400D02*
X36197368Y-92729400D01*
X35625939Y-93300828D02*
X35625939Y-92157971D01*
X66299694Y-98476191D02*
X66299694Y-97333334D01*
X68299694Y-97904763D02*
X66299694Y-97904763D01*
X68299694Y-96666667D02*
X66299694Y-96666667D01*
X66299694Y-96666667D02*
X67728265Y-96000000D01*
X67728265Y-96000000D02*
X66299694Y-95333334D01*
X66299694Y-95333334D02*
X68299694Y-95333334D01*
X68299694Y-93238096D02*
X67347313Y-93904763D01*
X68299694Y-94380953D02*
X66299694Y-94380953D01*
X66299694Y-94380953D02*
X66299694Y-93619048D01*
X66299694Y-93619048D02*
X66394932Y-93428572D01*
X66394932Y-93428572D02*
X66490170Y-93333334D01*
X66490170Y-93333334D02*
X66680646Y-93238096D01*
X66680646Y-93238096D02*
X66966360Y-93238096D01*
X66966360Y-93238096D02*
X67156836Y-93333334D01*
X67156836Y-93333334D02*
X67252075Y-93428572D01*
X67252075Y-93428572D02*
X67347313Y-93619048D01*
X67347313Y-93619048D02*
X67347313Y-94380953D01*
X68109217Y-91238096D02*
X68204456Y-91333334D01*
X68204456Y-91333334D02*
X68299694Y-91619048D01*
X68299694Y-91619048D02*
X68299694Y-91809524D01*
X68299694Y-91809524D02*
X68204456Y-92095239D01*
X68204456Y-92095239D02*
X68013979Y-92285715D01*
X68013979Y-92285715D02*
X67823503Y-92380953D01*
X67823503Y-92380953D02*
X67442551Y-92476191D01*
X67442551Y-92476191D02*
X67156836Y-92476191D01*
X67156836Y-92476191D02*
X66775884Y-92380953D01*
X66775884Y-92380953D02*
X66585408Y-92285715D01*
X66585408Y-92285715D02*
X66394932Y-92095239D01*
X66394932Y-92095239D02*
X66299694Y-91809524D01*
X66299694Y-91809524D02*
X66299694Y-91619048D01*
X66299694Y-91619048D02*
X66394932Y-91333334D01*
X66394932Y-91333334D02*
X66490170Y-91238096D01*
X68204456Y-88952381D02*
X68299694Y-88666667D01*
X68299694Y-88666667D02*
X68299694Y-88190476D01*
X68299694Y-88190476D02*
X68204456Y-88000000D01*
X68204456Y-88000000D02*
X68109217Y-87904762D01*
X68109217Y-87904762D02*
X67918741Y-87809524D01*
X67918741Y-87809524D02*
X67728265Y-87809524D01*
X67728265Y-87809524D02*
X67537789Y-87904762D01*
X67537789Y-87904762D02*
X67442551Y-88000000D01*
X67442551Y-88000000D02*
X67347313Y-88190476D01*
X67347313Y-88190476D02*
X67252075Y-88571429D01*
X67252075Y-88571429D02*
X67156836Y-88761905D01*
X67156836Y-88761905D02*
X67061598Y-88857143D01*
X67061598Y-88857143D02*
X66871122Y-88952381D01*
X66871122Y-88952381D02*
X66680646Y-88952381D01*
X66680646Y-88952381D02*
X66490170Y-88857143D01*
X66490170Y-88857143D02*
X66394932Y-88761905D01*
X66394932Y-88761905D02*
X66299694Y-88571429D01*
X66299694Y-88571429D02*
X66299694Y-88095238D01*
X66299694Y-88095238D02*
X66394932Y-87809524D01*
X66966360Y-87142857D02*
X68299694Y-86666667D01*
X66966360Y-86190476D02*
X68299694Y-86666667D01*
X68299694Y-86666667D02*
X68775884Y-86857143D01*
X68775884Y-86857143D02*
X68871122Y-86952381D01*
X68871122Y-86952381D02*
X68966360Y-87142857D01*
X68204456Y-85523809D02*
X68299694Y-85333333D01*
X68299694Y-85333333D02*
X68299694Y-84952381D01*
X68299694Y-84952381D02*
X68204456Y-84761904D01*
X68204456Y-84761904D02*
X68013979Y-84666666D01*
X68013979Y-84666666D02*
X67918741Y-84666666D01*
X67918741Y-84666666D02*
X67728265Y-84761904D01*
X67728265Y-84761904D02*
X67633027Y-84952381D01*
X67633027Y-84952381D02*
X67633027Y-85238095D01*
X67633027Y-85238095D02*
X67537789Y-85428571D01*
X67537789Y-85428571D02*
X67347313Y-85523809D01*
X67347313Y-85523809D02*
X67252075Y-85523809D01*
X67252075Y-85523809D02*
X67061598Y-85428571D01*
X67061598Y-85428571D02*
X66966360Y-85238095D01*
X66966360Y-85238095D02*
X66966360Y-84952381D01*
X66966360Y-84952381D02*
X67061598Y-84761904D01*
X66966360Y-84095237D02*
X66966360Y-83333333D01*
X66299694Y-83809523D02*
X68013979Y-83809523D01*
X68013979Y-83809523D02*
X68204456Y-83714285D01*
X68204456Y-83714285D02*
X68299694Y-83523809D01*
X68299694Y-83523809D02*
X68299694Y-83333333D01*
X68204456Y-81904761D02*
X68299694Y-82095237D01*
X68299694Y-82095237D02*
X68299694Y-82476190D01*
X68299694Y-82476190D02*
X68204456Y-82666666D01*
X68204456Y-82666666D02*
X68013979Y-82761904D01*
X68013979Y-82761904D02*
X67252075Y-82761904D01*
X67252075Y-82761904D02*
X67061598Y-82666666D01*
X67061598Y-82666666D02*
X66966360Y-82476190D01*
X66966360Y-82476190D02*
X66966360Y-82095237D01*
X66966360Y-82095237D02*
X67061598Y-81904761D01*
X67061598Y-81904761D02*
X67252075Y-81809523D01*
X67252075Y-81809523D02*
X67442551Y-81809523D01*
X67442551Y-81809523D02*
X67633027Y-82761904D01*
X68299694Y-80952380D02*
X66966360Y-80952380D01*
X67156836Y-80952380D02*
X67061598Y-80857142D01*
X67061598Y-80857142D02*
X66966360Y-80666666D01*
X66966360Y-80666666D02*
X66966360Y-80380951D01*
X66966360Y-80380951D02*
X67061598Y-80190475D01*
X67061598Y-80190475D02*
X67252075Y-80095237D01*
X67252075Y-80095237D02*
X68299694Y-80095237D01*
X67252075Y-80095237D02*
X67061598Y-79999999D01*
X67061598Y-79999999D02*
X66966360Y-79809523D01*
X66966360Y-79809523D02*
X66966360Y-79523809D01*
X66966360Y-79523809D02*
X67061598Y-79333332D01*
X67061598Y-79333332D02*
X67252075Y-79238094D01*
X67252075Y-79238094D02*
X68299694Y-79238094D01*
X66966360Y-75904760D02*
X68299694Y-75904760D01*
X66204456Y-76380951D02*
X67633027Y-76857141D01*
X67633027Y-76857141D02*
X67633027Y-75619046D01*
X70471963Y-96619048D02*
X70567201Y-96333334D01*
X70567201Y-96333334D02*
X70662439Y-96238096D01*
X70662439Y-96238096D02*
X70852915Y-96142858D01*
X70852915Y-96142858D02*
X71138629Y-96142858D01*
X71138629Y-96142858D02*
X71329105Y-96238096D01*
X71329105Y-96238096D02*
X71424344Y-96333334D01*
X71424344Y-96333334D02*
X71519582Y-96523810D01*
X71519582Y-96523810D02*
X71519582Y-97285715D01*
X71519582Y-97285715D02*
X69519582Y-97285715D01*
X69519582Y-97285715D02*
X69519582Y-96619048D01*
X69519582Y-96619048D02*
X69614820Y-96428572D01*
X69614820Y-96428572D02*
X69710058Y-96333334D01*
X69710058Y-96333334D02*
X69900534Y-96238096D01*
X69900534Y-96238096D02*
X70091010Y-96238096D01*
X70091010Y-96238096D02*
X70281486Y-96333334D01*
X70281486Y-96333334D02*
X70376724Y-96428572D01*
X70376724Y-96428572D02*
X70471963Y-96619048D01*
X70471963Y-96619048D02*
X70471963Y-97285715D01*
X71519582Y-95000001D02*
X71424344Y-95190477D01*
X71424344Y-95190477D02*
X71233867Y-95285715D01*
X71233867Y-95285715D02*
X69519582Y-95285715D01*
X71519582Y-93952382D02*
X71424344Y-94142858D01*
X71424344Y-94142858D02*
X71329105Y-94238096D01*
X71329105Y-94238096D02*
X71138629Y-94333334D01*
X71138629Y-94333334D02*
X70567201Y-94333334D01*
X70567201Y-94333334D02*
X70376724Y-94238096D01*
X70376724Y-94238096D02*
X70281486Y-94142858D01*
X70281486Y-94142858D02*
X70186248Y-93952382D01*
X70186248Y-93952382D02*
X70186248Y-93666667D01*
X70186248Y-93666667D02*
X70281486Y-93476191D01*
X70281486Y-93476191D02*
X70376724Y-93380953D01*
X70376724Y-93380953D02*
X70567201Y-93285715D01*
X70567201Y-93285715D02*
X71138629Y-93285715D01*
X71138629Y-93285715D02*
X71329105Y-93380953D01*
X71329105Y-93380953D02*
X71424344Y-93476191D01*
X71424344Y-93476191D02*
X71519582Y-93666667D01*
X71519582Y-93666667D02*
X71519582Y-93952382D01*
X71424344Y-91571429D02*
X71519582Y-91761905D01*
X71519582Y-91761905D02*
X71519582Y-92142858D01*
X71519582Y-92142858D02*
X71424344Y-92333334D01*
X71424344Y-92333334D02*
X71329105Y-92428572D01*
X71329105Y-92428572D02*
X71138629Y-92523810D01*
X71138629Y-92523810D02*
X70567201Y-92523810D01*
X70567201Y-92523810D02*
X70376724Y-92428572D01*
X70376724Y-92428572D02*
X70281486Y-92333334D01*
X70281486Y-92333334D02*
X70186248Y-92142858D01*
X70186248Y-92142858D02*
X70186248Y-91761905D01*
X70186248Y-91761905D02*
X70281486Y-91571429D01*
X71519582Y-90714286D02*
X69519582Y-90714286D01*
X70757677Y-90523810D02*
X71519582Y-89952381D01*
X70186248Y-89952381D02*
X70948153Y-90714286D01*
X71329105Y-86428571D02*
X71424344Y-86523809D01*
X71424344Y-86523809D02*
X71519582Y-86809523D01*
X71519582Y-86809523D02*
X71519582Y-86999999D01*
X71519582Y-86999999D02*
X71424344Y-87285714D01*
X71424344Y-87285714D02*
X71233867Y-87476190D01*
X71233867Y-87476190D02*
X71043391Y-87571428D01*
X71043391Y-87571428D02*
X70662439Y-87666666D01*
X70662439Y-87666666D02*
X70376724Y-87666666D01*
X70376724Y-87666666D02*
X69995772Y-87571428D01*
X69995772Y-87571428D02*
X69805296Y-87476190D01*
X69805296Y-87476190D02*
X69614820Y-87285714D01*
X69614820Y-87285714D02*
X69519582Y-86999999D01*
X69519582Y-86999999D02*
X69519582Y-86809523D01*
X69519582Y-86809523D02*
X69614820Y-86523809D01*
X69614820Y-86523809D02*
X69710058Y-86428571D01*
X71519582Y-84714285D02*
X70471963Y-84714285D01*
X70471963Y-84714285D02*
X70281486Y-84809523D01*
X70281486Y-84809523D02*
X70186248Y-84999999D01*
X70186248Y-84999999D02*
X70186248Y-85380952D01*
X70186248Y-85380952D02*
X70281486Y-85571428D01*
X71424344Y-84714285D02*
X71519582Y-84904761D01*
X71519582Y-84904761D02*
X71519582Y-85380952D01*
X71519582Y-85380952D02*
X71424344Y-85571428D01*
X71424344Y-85571428D02*
X71233867Y-85666666D01*
X71233867Y-85666666D02*
X71043391Y-85666666D01*
X71043391Y-85666666D02*
X70852915Y-85571428D01*
X70852915Y-85571428D02*
X70757677Y-85380952D01*
X70757677Y-85380952D02*
X70757677Y-84904761D01*
X70757677Y-84904761D02*
X70662439Y-84714285D01*
X71519582Y-83761904D02*
X70186248Y-83761904D01*
X70567201Y-83761904D02*
X70376724Y-83666666D01*
X70376724Y-83666666D02*
X70281486Y-83571428D01*
X70281486Y-83571428D02*
X70186248Y-83380952D01*
X70186248Y-83380952D02*
X70186248Y-83190475D01*
X71519582Y-81666666D02*
X69519582Y-81666666D01*
X71424344Y-81666666D02*
X71519582Y-81857142D01*
X71519582Y-81857142D02*
X71519582Y-82238095D01*
X71519582Y-82238095D02*
X71424344Y-82428571D01*
X71424344Y-82428571D02*
X71329105Y-82523809D01*
X71329105Y-82523809D02*
X71138629Y-82619047D01*
X71138629Y-82619047D02*
X70567201Y-82619047D01*
X70567201Y-82619047D02*
X70376724Y-82523809D01*
X70376724Y-82523809D02*
X70281486Y-82428571D01*
X70281486Y-82428571D02*
X70186248Y-82238095D01*
X70186248Y-82238095D02*
X70186248Y-81857142D01*
X70186248Y-81857142D02*
X70281486Y-81666666D01*
X70186248Y-79380951D02*
X71519582Y-78904761D01*
X71519582Y-78904761D02*
X70186248Y-78428570D01*
X69710058Y-77761903D02*
X69614820Y-77666665D01*
X69614820Y-77666665D02*
X69519582Y-77476189D01*
X69519582Y-77476189D02*
X69519582Y-76999998D01*
X69519582Y-76999998D02*
X69614820Y-76809522D01*
X69614820Y-76809522D02*
X69710058Y-76714284D01*
X69710058Y-76714284D02*
X69900534Y-76619046D01*
X69900534Y-76619046D02*
X70091010Y-76619046D01*
X70091010Y-76619046D02*
X70376724Y-76714284D01*
X70376724Y-76714284D02*
X71519582Y-77857141D01*
X71519582Y-77857141D02*
X71519582Y-76619046D01*
X31411653Y-78157971D02*
X31340225Y-78229400D01*
X31340225Y-78229400D02*
X31125939Y-78300828D01*
X31125939Y-78300828D02*
X30983082Y-78300828D01*
X30983082Y-78300828D02*
X30768796Y-78229400D01*
X30768796Y-78229400D02*
X30625939Y-78086542D01*
X30625939Y-78086542D02*
X30554510Y-77943685D01*
X30554510Y-77943685D02*
X30483082Y-77657971D01*
X30483082Y-77657971D02*
X30483082Y-77443685D01*
X30483082Y-77443685D02*
X30554510Y-77157971D01*
X30554510Y-77157971D02*
X30625939Y-77015114D01*
X30625939Y-77015114D02*
X30768796Y-76872257D01*
X30768796Y-76872257D02*
X30983082Y-76800828D01*
X30983082Y-76800828D02*
X31125939Y-76800828D01*
X31125939Y-76800828D02*
X31340225Y-76872257D01*
X31340225Y-76872257D02*
X31411653Y-76943685D01*
X32054510Y-77729400D02*
X33197368Y-77729400D01*
D13*
X51771665Y-41392320D02*
X51771665Y-42106605D01*
X51771665Y-42106605D02*
X51724046Y-42249462D01*
X51724046Y-42249462D02*
X51628808Y-42344701D01*
X51628808Y-42344701D02*
X51485951Y-42392320D01*
X51485951Y-42392320D02*
X51390713Y-42392320D01*
X52247856Y-42392320D02*
X52247856Y-41392320D01*
X52247856Y-41392320D02*
X52628808Y-41392320D01*
X52628808Y-41392320D02*
X52724046Y-41439939D01*
X52724046Y-41439939D02*
X52771665Y-41487558D01*
X52771665Y-41487558D02*
X52819284Y-41582796D01*
X52819284Y-41582796D02*
X52819284Y-41725653D01*
X52819284Y-41725653D02*
X52771665Y-41820891D01*
X52771665Y-41820891D02*
X52724046Y-41868510D01*
X52724046Y-41868510D02*
X52628808Y-41916129D01*
X52628808Y-41916129D02*
X52247856Y-41916129D01*
X53676427Y-41725653D02*
X53676427Y-42392320D01*
X53438332Y-41344701D02*
X53200237Y-42058986D01*
X53200237Y-42058986D02*
X53819284Y-42058986D01*
X47653693Y-74890759D02*
X47701313Y-74938378D01*
X47701313Y-74938378D02*
X47748932Y-75081235D01*
X47748932Y-75081235D02*
X47748932Y-75176473D01*
X47748932Y-75176473D02*
X47701313Y-75319330D01*
X47701313Y-75319330D02*
X47606074Y-75414568D01*
X47606074Y-75414568D02*
X47510836Y-75462187D01*
X47510836Y-75462187D02*
X47320360Y-75509806D01*
X47320360Y-75509806D02*
X47177503Y-75509806D01*
X47177503Y-75509806D02*
X46987027Y-75462187D01*
X46987027Y-75462187D02*
X46891789Y-75414568D01*
X46891789Y-75414568D02*
X46796551Y-75319330D01*
X46796551Y-75319330D02*
X46748932Y-75176473D01*
X46748932Y-75176473D02*
X46748932Y-75081235D01*
X46748932Y-75081235D02*
X46796551Y-74938378D01*
X46796551Y-74938378D02*
X46844170Y-74890759D01*
X46844170Y-74509806D02*
X46796551Y-74462187D01*
X46796551Y-74462187D02*
X46748932Y-74366949D01*
X46748932Y-74366949D02*
X46748932Y-74128854D01*
X46748932Y-74128854D02*
X46796551Y-74033616D01*
X46796551Y-74033616D02*
X46844170Y-73985997D01*
X46844170Y-73985997D02*
X46939408Y-73938378D01*
X46939408Y-73938378D02*
X47034646Y-73938378D01*
X47034646Y-73938378D02*
X47177503Y-73985997D01*
X47177503Y-73985997D02*
X47748932Y-74557425D01*
X47748932Y-74557425D02*
X47748932Y-73938378D01*
X47748932Y-72985997D02*
X47748932Y-73557425D01*
X47748932Y-73271711D02*
X46748932Y-73271711D01*
X46748932Y-73271711D02*
X46891789Y-73366949D01*
X46891789Y-73366949D02*
X46987027Y-73462187D01*
X46987027Y-73462187D02*
X47034646Y-73557425D01*
X36027144Y-80797081D02*
X35979525Y-80844701D01*
X35979525Y-80844701D02*
X35836668Y-80892320D01*
X35836668Y-80892320D02*
X35741430Y-80892320D01*
X35741430Y-80892320D02*
X35598573Y-80844701D01*
X35598573Y-80844701D02*
X35503335Y-80749462D01*
X35503335Y-80749462D02*
X35455716Y-80654224D01*
X35455716Y-80654224D02*
X35408097Y-80463748D01*
X35408097Y-80463748D02*
X35408097Y-80320891D01*
X35408097Y-80320891D02*
X35455716Y-80130415D01*
X35455716Y-80130415D02*
X35503335Y-80035177D01*
X35503335Y-80035177D02*
X35598573Y-79939939D01*
X35598573Y-79939939D02*
X35741430Y-79892320D01*
X35741430Y-79892320D02*
X35836668Y-79892320D01*
X35836668Y-79892320D02*
X35979525Y-79939939D01*
X35979525Y-79939939D02*
X36027144Y-79987558D01*
X36979525Y-80892320D02*
X36408097Y-80892320D01*
X36693811Y-80892320D02*
X36693811Y-79892320D01*
X36693811Y-79892320D02*
X36598573Y-80035177D01*
X36598573Y-80035177D02*
X36503335Y-80130415D01*
X36503335Y-80130415D02*
X36408097Y-80178034D01*
X37550954Y-80320891D02*
X37455716Y-80273272D01*
X37455716Y-80273272D02*
X37408097Y-80225653D01*
X37408097Y-80225653D02*
X37360478Y-80130415D01*
X37360478Y-80130415D02*
X37360478Y-80082796D01*
X37360478Y-80082796D02*
X37408097Y-79987558D01*
X37408097Y-79987558D02*
X37455716Y-79939939D01*
X37455716Y-79939939D02*
X37550954Y-79892320D01*
X37550954Y-79892320D02*
X37741430Y-79892320D01*
X37741430Y-79892320D02*
X37836668Y-79939939D01*
X37836668Y-79939939D02*
X37884287Y-79987558D01*
X37884287Y-79987558D02*
X37931906Y-80082796D01*
X37931906Y-80082796D02*
X37931906Y-80130415D01*
X37931906Y-80130415D02*
X37884287Y-80225653D01*
X37884287Y-80225653D02*
X37836668Y-80273272D01*
X37836668Y-80273272D02*
X37741430Y-80320891D01*
X37741430Y-80320891D02*
X37550954Y-80320891D01*
X37550954Y-80320891D02*
X37455716Y-80368510D01*
X37455716Y-80368510D02*
X37408097Y-80416129D01*
X37408097Y-80416129D02*
X37360478Y-80511367D01*
X37360478Y-80511367D02*
X37360478Y-80701843D01*
X37360478Y-80701843D02*
X37408097Y-80797081D01*
X37408097Y-80797081D02*
X37455716Y-80844701D01*
X37455716Y-80844701D02*
X37550954Y-80892320D01*
X37550954Y-80892320D02*
X37741430Y-80892320D01*
X37741430Y-80892320D02*
X37836668Y-80844701D01*
X37836668Y-80844701D02*
X37884287Y-80797081D01*
X37884287Y-80797081D02*
X37931906Y-80701843D01*
X37931906Y-80701843D02*
X37931906Y-80511367D01*
X37931906Y-80511367D02*
X37884287Y-80416129D01*
X37884287Y-80416129D02*
X37836668Y-80368510D01*
X37836668Y-80368510D02*
X37741430Y-80320891D01*
X47649499Y-44468256D02*
X47697119Y-44515875D01*
X47697119Y-44515875D02*
X47744738Y-44658732D01*
X47744738Y-44658732D02*
X47744738Y-44753970D01*
X47744738Y-44753970D02*
X47697119Y-44896827D01*
X47697119Y-44896827D02*
X47601880Y-44992065D01*
X47601880Y-44992065D02*
X47506642Y-45039684D01*
X47506642Y-45039684D02*
X47316166Y-45087303D01*
X47316166Y-45087303D02*
X47173309Y-45087303D01*
X47173309Y-45087303D02*
X46982833Y-45039684D01*
X46982833Y-45039684D02*
X46887595Y-44992065D01*
X46887595Y-44992065D02*
X46792357Y-44896827D01*
X46792357Y-44896827D02*
X46744738Y-44753970D01*
X46744738Y-44753970D02*
X46744738Y-44658732D01*
X46744738Y-44658732D02*
X46792357Y-44515875D01*
X46792357Y-44515875D02*
X46839976Y-44468256D01*
X46744738Y-44134922D02*
X46744738Y-43468256D01*
X46744738Y-43468256D02*
X47744738Y-43896827D01*
X47684512Y-89996967D02*
X47732132Y-90044586D01*
X47732132Y-90044586D02*
X47779751Y-90187443D01*
X47779751Y-90187443D02*
X47779751Y-90282681D01*
X47779751Y-90282681D02*
X47732132Y-90425538D01*
X47732132Y-90425538D02*
X47636893Y-90520776D01*
X47636893Y-90520776D02*
X47541655Y-90568395D01*
X47541655Y-90568395D02*
X47351179Y-90616014D01*
X47351179Y-90616014D02*
X47208322Y-90616014D01*
X47208322Y-90616014D02*
X47017846Y-90568395D01*
X47017846Y-90568395D02*
X46922608Y-90520776D01*
X46922608Y-90520776D02*
X46827370Y-90425538D01*
X46827370Y-90425538D02*
X46779751Y-90282681D01*
X46779751Y-90282681D02*
X46779751Y-90187443D01*
X46779751Y-90187443D02*
X46827370Y-90044586D01*
X46827370Y-90044586D02*
X46874989Y-89996967D01*
X46874989Y-89616014D02*
X46827370Y-89568395D01*
X46827370Y-89568395D02*
X46779751Y-89473157D01*
X46779751Y-89473157D02*
X46779751Y-89235062D01*
X46779751Y-89235062D02*
X46827370Y-89139824D01*
X46827370Y-89139824D02*
X46874989Y-89092205D01*
X46874989Y-89092205D02*
X46970227Y-89044586D01*
X46970227Y-89044586D02*
X47065465Y-89044586D01*
X47065465Y-89044586D02*
X47208322Y-89092205D01*
X47208322Y-89092205D02*
X47779751Y-89663633D01*
X47779751Y-89663633D02*
X47779751Y-89044586D01*
X47208322Y-88473157D02*
X47160703Y-88568395D01*
X47160703Y-88568395D02*
X47113084Y-88616014D01*
X47113084Y-88616014D02*
X47017846Y-88663633D01*
X47017846Y-88663633D02*
X46970227Y-88663633D01*
X46970227Y-88663633D02*
X46874989Y-88616014D01*
X46874989Y-88616014D02*
X46827370Y-88568395D01*
X46827370Y-88568395D02*
X46779751Y-88473157D01*
X46779751Y-88473157D02*
X46779751Y-88282681D01*
X46779751Y-88282681D02*
X46827370Y-88187443D01*
X46827370Y-88187443D02*
X46874989Y-88139824D01*
X46874989Y-88139824D02*
X46970227Y-88092205D01*
X46970227Y-88092205D02*
X47017846Y-88092205D01*
X47017846Y-88092205D02*
X47113084Y-88139824D01*
X47113084Y-88139824D02*
X47160703Y-88187443D01*
X47160703Y-88187443D02*
X47208322Y-88282681D01*
X47208322Y-88282681D02*
X47208322Y-88473157D01*
X47208322Y-88473157D02*
X47255941Y-88568395D01*
X47255941Y-88568395D02*
X47303560Y-88616014D01*
X47303560Y-88616014D02*
X47398798Y-88663633D01*
X47398798Y-88663633D02*
X47589274Y-88663633D01*
X47589274Y-88663633D02*
X47684512Y-88616014D01*
X47684512Y-88616014D02*
X47732132Y-88568395D01*
X47732132Y-88568395D02*
X47779751Y-88473157D01*
X47779751Y-88473157D02*
X47779751Y-88282681D01*
X47779751Y-88282681D02*
X47732132Y-88187443D01*
X47732132Y-88187443D02*
X47684512Y-88139824D01*
X47684512Y-88139824D02*
X47589274Y-88092205D01*
X47589274Y-88092205D02*
X47398798Y-88092205D01*
X47398798Y-88092205D02*
X47303560Y-88139824D01*
X47303560Y-88139824D02*
X47255941Y-88187443D01*
X47255941Y-88187443D02*
X47208322Y-88282681D01*
X54337775Y-89892487D02*
X54004442Y-89416296D01*
X53766347Y-89892487D02*
X53766347Y-88892487D01*
X53766347Y-88892487D02*
X54147299Y-88892487D01*
X54147299Y-88892487D02*
X54242537Y-88940106D01*
X54242537Y-88940106D02*
X54290156Y-88987725D01*
X54290156Y-88987725D02*
X54337775Y-89082963D01*
X54337775Y-89082963D02*
X54337775Y-89225820D01*
X54337775Y-89225820D02*
X54290156Y-89321058D01*
X54290156Y-89321058D02*
X54242537Y-89368677D01*
X54242537Y-89368677D02*
X54147299Y-89416296D01*
X54147299Y-89416296D02*
X53766347Y-89416296D01*
X55290156Y-89892487D02*
X54718728Y-89892487D01*
X55004442Y-89892487D02*
X55004442Y-88892487D01*
X55004442Y-88892487D02*
X54909204Y-89035344D01*
X54909204Y-89035344D02*
X54813966Y-89130582D01*
X54813966Y-89130582D02*
X54718728Y-89178201D01*
X55671109Y-88987725D02*
X55718728Y-88940106D01*
X55718728Y-88940106D02*
X55813966Y-88892487D01*
X55813966Y-88892487D02*
X56052061Y-88892487D01*
X56052061Y-88892487D02*
X56147299Y-88940106D01*
X56147299Y-88940106D02*
X56194918Y-88987725D01*
X56194918Y-88987725D02*
X56242537Y-89082963D01*
X56242537Y-89082963D02*
X56242537Y-89178201D01*
X56242537Y-89178201D02*
X56194918Y-89321058D01*
X56194918Y-89321058D02*
X55623490Y-89892487D01*
X55623490Y-89892487D02*
X56242537Y-89892487D01*
X54688332Y-59892320D02*
X54354999Y-59416129D01*
X54116904Y-59892320D02*
X54116904Y-58892320D01*
X54116904Y-58892320D02*
X54497856Y-58892320D01*
X54497856Y-58892320D02*
X54593094Y-58939939D01*
X54593094Y-58939939D02*
X54640713Y-58987558D01*
X54640713Y-58987558D02*
X54688332Y-59082796D01*
X54688332Y-59082796D02*
X54688332Y-59225653D01*
X54688332Y-59225653D02*
X54640713Y-59320891D01*
X54640713Y-59320891D02*
X54593094Y-59368510D01*
X54593094Y-59368510D02*
X54497856Y-59416129D01*
X54497856Y-59416129D02*
X54116904Y-59416129D01*
X55545475Y-58892320D02*
X55354999Y-58892320D01*
X55354999Y-58892320D02*
X55259761Y-58939939D01*
X55259761Y-58939939D02*
X55212142Y-58987558D01*
X55212142Y-58987558D02*
X55116904Y-59130415D01*
X55116904Y-59130415D02*
X55069285Y-59320891D01*
X55069285Y-59320891D02*
X55069285Y-59701843D01*
X55069285Y-59701843D02*
X55116904Y-59797081D01*
X55116904Y-59797081D02*
X55164523Y-59844701D01*
X55164523Y-59844701D02*
X55259761Y-59892320D01*
X55259761Y-59892320D02*
X55450237Y-59892320D01*
X55450237Y-59892320D02*
X55545475Y-59844701D01*
X55545475Y-59844701D02*
X55593094Y-59797081D01*
X55593094Y-59797081D02*
X55640713Y-59701843D01*
X55640713Y-59701843D02*
X55640713Y-59463748D01*
X55640713Y-59463748D02*
X55593094Y-59368510D01*
X55593094Y-59368510D02*
X55545475Y-59320891D01*
X55545475Y-59320891D02*
X55450237Y-59273272D01*
X55450237Y-59273272D02*
X55259761Y-59273272D01*
X55259761Y-59273272D02*
X55164523Y-59320891D01*
X55164523Y-59320891D02*
X55116904Y-59368510D01*
X55116904Y-59368510D02*
X55069285Y-59463748D01*
X79357142Y-83019580D02*
X79309523Y-83067200D01*
X79309523Y-83067200D02*
X79166666Y-83114819D01*
X79166666Y-83114819D02*
X79071428Y-83114819D01*
X79071428Y-83114819D02*
X78928571Y-83067200D01*
X78928571Y-83067200D02*
X78833333Y-82971961D01*
X78833333Y-82971961D02*
X78785714Y-82876723D01*
X78785714Y-82876723D02*
X78738095Y-82686247D01*
X78738095Y-82686247D02*
X78738095Y-82543390D01*
X78738095Y-82543390D02*
X78785714Y-82352914D01*
X78785714Y-82352914D02*
X78833333Y-82257676D01*
X78833333Y-82257676D02*
X78928571Y-82162438D01*
X78928571Y-82162438D02*
X79071428Y-82114819D01*
X79071428Y-82114819D02*
X79166666Y-82114819D01*
X79166666Y-82114819D02*
X79309523Y-82162438D01*
X79309523Y-82162438D02*
X79357142Y-82210057D01*
X79690476Y-82114819D02*
X80309523Y-82114819D01*
X80309523Y-82114819D02*
X79976190Y-82495771D01*
X79976190Y-82495771D02*
X80119047Y-82495771D01*
X80119047Y-82495771D02*
X80214285Y-82543390D01*
X80214285Y-82543390D02*
X80261904Y-82591009D01*
X80261904Y-82591009D02*
X80309523Y-82686247D01*
X80309523Y-82686247D02*
X80309523Y-82924342D01*
X80309523Y-82924342D02*
X80261904Y-83019580D01*
X80261904Y-83019580D02*
X80214285Y-83067200D01*
X80214285Y-83067200D02*
X80119047Y-83114819D01*
X80119047Y-83114819D02*
X79833333Y-83114819D01*
X79833333Y-83114819D02*
X79738095Y-83067200D01*
X79738095Y-83067200D02*
X79690476Y-83019580D01*
X81166666Y-82448152D02*
X81166666Y-83114819D01*
X80928571Y-82067200D02*
X80690476Y-82781485D01*
X80690476Y-82781485D02*
X81309523Y-82781485D01*
X80204819Y-85761904D02*
X81014342Y-85761904D01*
X81014342Y-85761904D02*
X81109580Y-85714285D01*
X81109580Y-85714285D02*
X81157200Y-85666666D01*
X81157200Y-85666666D02*
X81204819Y-85571428D01*
X81204819Y-85571428D02*
X81204819Y-85380952D01*
X81204819Y-85380952D02*
X81157200Y-85285714D01*
X81157200Y-85285714D02*
X81109580Y-85238095D01*
X81109580Y-85238095D02*
X81014342Y-85190476D01*
X81014342Y-85190476D02*
X80204819Y-85190476D01*
X81204819Y-84190476D02*
X81204819Y-84761904D01*
X81204819Y-84476190D02*
X80204819Y-84476190D01*
X80204819Y-84476190D02*
X80347676Y-84571428D01*
X80347676Y-84571428D02*
X80442914Y-84666666D01*
X80442914Y-84666666D02*
X80490533Y-84761904D01*
X78916666Y-60904819D02*
X78916666Y-61619104D01*
X78916666Y-61619104D02*
X78869047Y-61761961D01*
X78869047Y-61761961D02*
X78773809Y-61857200D01*
X78773809Y-61857200D02*
X78630952Y-61904819D01*
X78630952Y-61904819D02*
X78535714Y-61904819D01*
X79392857Y-61904819D02*
X79392857Y-60904819D01*
X79392857Y-60904819D02*
X79773809Y-60904819D01*
X79773809Y-60904819D02*
X79869047Y-60952438D01*
X79869047Y-60952438D02*
X79916666Y-61000057D01*
X79916666Y-61000057D02*
X79964285Y-61095295D01*
X79964285Y-61095295D02*
X79964285Y-61238152D01*
X79964285Y-61238152D02*
X79916666Y-61333390D01*
X79916666Y-61333390D02*
X79869047Y-61381009D01*
X79869047Y-61381009D02*
X79773809Y-61428628D01*
X79773809Y-61428628D02*
X79392857Y-61428628D01*
X80297619Y-60904819D02*
X80916666Y-60904819D01*
X80916666Y-60904819D02*
X80583333Y-61285771D01*
X80583333Y-61285771D02*
X80726190Y-61285771D01*
X80726190Y-61285771D02*
X80821428Y-61333390D01*
X80821428Y-61333390D02*
X80869047Y-61381009D01*
X80869047Y-61381009D02*
X80916666Y-61476247D01*
X80916666Y-61476247D02*
X80916666Y-61714342D01*
X80916666Y-61714342D02*
X80869047Y-61809580D01*
X80869047Y-61809580D02*
X80821428Y-61857200D01*
X80821428Y-61857200D02*
X80726190Y-61904819D01*
X80726190Y-61904819D02*
X80440476Y-61904819D01*
X80440476Y-61904819D02*
X80345238Y-61857200D01*
X80345238Y-61857200D02*
X80297619Y-61809580D01*
X79357142Y-96019580D02*
X79309523Y-96067200D01*
X79309523Y-96067200D02*
X79166666Y-96114819D01*
X79166666Y-96114819D02*
X79071428Y-96114819D01*
X79071428Y-96114819D02*
X78928571Y-96067200D01*
X78928571Y-96067200D02*
X78833333Y-95971961D01*
X78833333Y-95971961D02*
X78785714Y-95876723D01*
X78785714Y-95876723D02*
X78738095Y-95686247D01*
X78738095Y-95686247D02*
X78738095Y-95543390D01*
X78738095Y-95543390D02*
X78785714Y-95352914D01*
X78785714Y-95352914D02*
X78833333Y-95257676D01*
X78833333Y-95257676D02*
X78928571Y-95162438D01*
X78928571Y-95162438D02*
X79071428Y-95114819D01*
X79071428Y-95114819D02*
X79166666Y-95114819D01*
X79166666Y-95114819D02*
X79309523Y-95162438D01*
X79309523Y-95162438D02*
X79357142Y-95210057D01*
X79690476Y-95114819D02*
X80309523Y-95114819D01*
X80309523Y-95114819D02*
X79976190Y-95495771D01*
X79976190Y-95495771D02*
X80119047Y-95495771D01*
X80119047Y-95495771D02*
X80214285Y-95543390D01*
X80214285Y-95543390D02*
X80261904Y-95591009D01*
X80261904Y-95591009D02*
X80309523Y-95686247D01*
X80309523Y-95686247D02*
X80309523Y-95924342D01*
X80309523Y-95924342D02*
X80261904Y-96019580D01*
X80261904Y-96019580D02*
X80214285Y-96067200D01*
X80214285Y-96067200D02*
X80119047Y-96114819D01*
X80119047Y-96114819D02*
X79833333Y-96114819D01*
X79833333Y-96114819D02*
X79738095Y-96067200D01*
X79738095Y-96067200D02*
X79690476Y-96019580D01*
X81214285Y-95114819D02*
X80738095Y-95114819D01*
X80738095Y-95114819D02*
X80690476Y-95591009D01*
X80690476Y-95591009D02*
X80738095Y-95543390D01*
X80738095Y-95543390D02*
X80833333Y-95495771D01*
X80833333Y-95495771D02*
X81071428Y-95495771D01*
X81071428Y-95495771D02*
X81166666Y-95543390D01*
X81166666Y-95543390D02*
X81214285Y-95591009D01*
X81214285Y-95591009D02*
X81261904Y-95686247D01*
X81261904Y-95686247D02*
X81261904Y-95924342D01*
X81261904Y-95924342D02*
X81214285Y-96019580D01*
X81214285Y-96019580D02*
X81166666Y-96067200D01*
X81166666Y-96067200D02*
X81071428Y-96114819D01*
X81071428Y-96114819D02*
X80833333Y-96114819D01*
X80833333Y-96114819D02*
X80738095Y-96067200D01*
X80738095Y-96067200D02*
X80690476Y-96019580D01*
X43438332Y-54297081D02*
X43390713Y-54344701D01*
X43390713Y-54344701D02*
X43247856Y-54392320D01*
X43247856Y-54392320D02*
X43152618Y-54392320D01*
X43152618Y-54392320D02*
X43009761Y-54344701D01*
X43009761Y-54344701D02*
X42914523Y-54249462D01*
X42914523Y-54249462D02*
X42866904Y-54154224D01*
X42866904Y-54154224D02*
X42819285Y-53963748D01*
X42819285Y-53963748D02*
X42819285Y-53820891D01*
X42819285Y-53820891D02*
X42866904Y-53630415D01*
X42866904Y-53630415D02*
X42914523Y-53535177D01*
X42914523Y-53535177D02*
X43009761Y-53439939D01*
X43009761Y-53439939D02*
X43152618Y-53392320D01*
X43152618Y-53392320D02*
X43247856Y-53392320D01*
X43247856Y-53392320D02*
X43390713Y-53439939D01*
X43390713Y-53439939D02*
X43438332Y-53487558D01*
X43771666Y-53392320D02*
X44390713Y-53392320D01*
X44390713Y-53392320D02*
X44057380Y-53773272D01*
X44057380Y-53773272D02*
X44200237Y-53773272D01*
X44200237Y-53773272D02*
X44295475Y-53820891D01*
X44295475Y-53820891D02*
X44343094Y-53868510D01*
X44343094Y-53868510D02*
X44390713Y-53963748D01*
X44390713Y-53963748D02*
X44390713Y-54201843D01*
X44390713Y-54201843D02*
X44343094Y-54297081D01*
X44343094Y-54297081D02*
X44295475Y-54344701D01*
X44295475Y-54344701D02*
X44200237Y-54392320D01*
X44200237Y-54392320D02*
X43914523Y-54392320D01*
X43914523Y-54392320D02*
X43819285Y-54344701D01*
X43819285Y-54344701D02*
X43771666Y-54297081D01*
X80204819Y-98761904D02*
X81014342Y-98761904D01*
X81014342Y-98761904D02*
X81109580Y-98714285D01*
X81109580Y-98714285D02*
X81157200Y-98666666D01*
X81157200Y-98666666D02*
X81204819Y-98571428D01*
X81204819Y-98571428D02*
X81204819Y-98380952D01*
X81204819Y-98380952D02*
X81157200Y-98285714D01*
X81157200Y-98285714D02*
X81109580Y-98238095D01*
X81109580Y-98238095D02*
X81014342Y-98190476D01*
X81014342Y-98190476D02*
X80204819Y-98190476D01*
X80300057Y-97761904D02*
X80252438Y-97714285D01*
X80252438Y-97714285D02*
X80204819Y-97619047D01*
X80204819Y-97619047D02*
X80204819Y-97380952D01*
X80204819Y-97380952D02*
X80252438Y-97285714D01*
X80252438Y-97285714D02*
X80300057Y-97238095D01*
X80300057Y-97238095D02*
X80395295Y-97190476D01*
X80395295Y-97190476D02*
X80490533Y-97190476D01*
X80490533Y-97190476D02*
X80633390Y-97238095D01*
X80633390Y-97238095D02*
X81204819Y-97809523D01*
X81204819Y-97809523D02*
X81204819Y-97190476D01*
X36027144Y-65797081D02*
X35979525Y-65844701D01*
X35979525Y-65844701D02*
X35836668Y-65892320D01*
X35836668Y-65892320D02*
X35741430Y-65892320D01*
X35741430Y-65892320D02*
X35598573Y-65844701D01*
X35598573Y-65844701D02*
X35503335Y-65749462D01*
X35503335Y-65749462D02*
X35455716Y-65654224D01*
X35455716Y-65654224D02*
X35408097Y-65463748D01*
X35408097Y-65463748D02*
X35408097Y-65320891D01*
X35408097Y-65320891D02*
X35455716Y-65130415D01*
X35455716Y-65130415D02*
X35503335Y-65035177D01*
X35503335Y-65035177D02*
X35598573Y-64939939D01*
X35598573Y-64939939D02*
X35741430Y-64892320D01*
X35741430Y-64892320D02*
X35836668Y-64892320D01*
X35836668Y-64892320D02*
X35979525Y-64939939D01*
X35979525Y-64939939D02*
X36027144Y-64987558D01*
X36979525Y-65892320D02*
X36408097Y-65892320D01*
X36693811Y-65892320D02*
X36693811Y-64892320D01*
X36693811Y-64892320D02*
X36598573Y-65035177D01*
X36598573Y-65035177D02*
X36503335Y-65130415D01*
X36503335Y-65130415D02*
X36408097Y-65178034D01*
X37931906Y-65892320D02*
X37360478Y-65892320D01*
X37646192Y-65892320D02*
X37646192Y-64892320D01*
X37646192Y-64892320D02*
X37550954Y-65035177D01*
X37550954Y-65035177D02*
X37455716Y-65130415D01*
X37455716Y-65130415D02*
X37360478Y-65178034D01*
X40727144Y-99297081D02*
X40679525Y-99344701D01*
X40679525Y-99344701D02*
X40536668Y-99392320D01*
X40536668Y-99392320D02*
X40441430Y-99392320D01*
X40441430Y-99392320D02*
X40298573Y-99344701D01*
X40298573Y-99344701D02*
X40203335Y-99249462D01*
X40203335Y-99249462D02*
X40155716Y-99154224D01*
X40155716Y-99154224D02*
X40108097Y-98963748D01*
X40108097Y-98963748D02*
X40108097Y-98820891D01*
X40108097Y-98820891D02*
X40155716Y-98630415D01*
X40155716Y-98630415D02*
X40203335Y-98535177D01*
X40203335Y-98535177D02*
X40298573Y-98439939D01*
X40298573Y-98439939D02*
X40441430Y-98392320D01*
X40441430Y-98392320D02*
X40536668Y-98392320D01*
X40536668Y-98392320D02*
X40679525Y-98439939D01*
X40679525Y-98439939D02*
X40727144Y-98487558D01*
X41108097Y-98487558D02*
X41155716Y-98439939D01*
X41155716Y-98439939D02*
X41250954Y-98392320D01*
X41250954Y-98392320D02*
X41489049Y-98392320D01*
X41489049Y-98392320D02*
X41584287Y-98439939D01*
X41584287Y-98439939D02*
X41631906Y-98487558D01*
X41631906Y-98487558D02*
X41679525Y-98582796D01*
X41679525Y-98582796D02*
X41679525Y-98678034D01*
X41679525Y-98678034D02*
X41631906Y-98820891D01*
X41631906Y-98820891D02*
X41060478Y-99392320D01*
X41060478Y-99392320D02*
X41679525Y-99392320D01*
X42536668Y-98392320D02*
X42346192Y-98392320D01*
X42346192Y-98392320D02*
X42250954Y-98439939D01*
X42250954Y-98439939D02*
X42203335Y-98487558D01*
X42203335Y-98487558D02*
X42108097Y-98630415D01*
X42108097Y-98630415D02*
X42060478Y-98820891D01*
X42060478Y-98820891D02*
X42060478Y-99201843D01*
X42060478Y-99201843D02*
X42108097Y-99297081D01*
X42108097Y-99297081D02*
X42155716Y-99344701D01*
X42155716Y-99344701D02*
X42250954Y-99392320D01*
X42250954Y-99392320D02*
X42441430Y-99392320D01*
X42441430Y-99392320D02*
X42536668Y-99344701D01*
X42536668Y-99344701D02*
X42584287Y-99297081D01*
X42584287Y-99297081D02*
X42631906Y-99201843D01*
X42631906Y-99201843D02*
X42631906Y-98963748D01*
X42631906Y-98963748D02*
X42584287Y-98868510D01*
X42584287Y-98868510D02*
X42536668Y-98820891D01*
X42536668Y-98820891D02*
X42441430Y-98773272D01*
X42441430Y-98773272D02*
X42250954Y-98773272D01*
X42250954Y-98773272D02*
X42155716Y-98820891D01*
X42155716Y-98820891D02*
X42108097Y-98868510D01*
X42108097Y-98868510D02*
X42060478Y-98963748D01*
X43503335Y-56892320D02*
X43170002Y-56416129D01*
X42931907Y-56892320D02*
X42931907Y-55892320D01*
X42931907Y-55892320D02*
X43312859Y-55892320D01*
X43312859Y-55892320D02*
X43408097Y-55939939D01*
X43408097Y-55939939D02*
X43455716Y-55987558D01*
X43455716Y-55987558D02*
X43503335Y-56082796D01*
X43503335Y-56082796D02*
X43503335Y-56225653D01*
X43503335Y-56225653D02*
X43455716Y-56320891D01*
X43455716Y-56320891D02*
X43408097Y-56368510D01*
X43408097Y-56368510D02*
X43312859Y-56416129D01*
X43312859Y-56416129D02*
X42931907Y-56416129D01*
X44360478Y-56225653D02*
X44360478Y-56892320D01*
X44122383Y-55844701D02*
X43884288Y-56558986D01*
X43884288Y-56558986D02*
X44503335Y-56558986D01*
X51771665Y-56392320D02*
X51771665Y-57106605D01*
X51771665Y-57106605D02*
X51724046Y-57249462D01*
X51724046Y-57249462D02*
X51628808Y-57344701D01*
X51628808Y-57344701D02*
X51485951Y-57392320D01*
X51485951Y-57392320D02*
X51390713Y-57392320D01*
X52247856Y-57392320D02*
X52247856Y-56392320D01*
X52247856Y-56392320D02*
X52628808Y-56392320D01*
X52628808Y-56392320D02*
X52724046Y-56439939D01*
X52724046Y-56439939D02*
X52771665Y-56487558D01*
X52771665Y-56487558D02*
X52819284Y-56582796D01*
X52819284Y-56582796D02*
X52819284Y-56725653D01*
X52819284Y-56725653D02*
X52771665Y-56820891D01*
X52771665Y-56820891D02*
X52724046Y-56868510D01*
X52724046Y-56868510D02*
X52628808Y-56916129D01*
X52628808Y-56916129D02*
X52247856Y-56916129D01*
X53724046Y-56392320D02*
X53247856Y-56392320D01*
X53247856Y-56392320D02*
X53200237Y-56868510D01*
X53200237Y-56868510D02*
X53247856Y-56820891D01*
X53247856Y-56820891D02*
X53343094Y-56773272D01*
X53343094Y-56773272D02*
X53581189Y-56773272D01*
X53581189Y-56773272D02*
X53676427Y-56820891D01*
X53676427Y-56820891D02*
X53724046Y-56868510D01*
X53724046Y-56868510D02*
X53771665Y-56963748D01*
X53771665Y-56963748D02*
X53771665Y-57201843D01*
X53771665Y-57201843D02*
X53724046Y-57297081D01*
X53724046Y-57297081D02*
X53676427Y-57344701D01*
X53676427Y-57344701D02*
X53581189Y-57392320D01*
X53581189Y-57392320D02*
X53343094Y-57392320D01*
X53343094Y-57392320D02*
X53247856Y-57344701D01*
X53247856Y-57344701D02*
X53200237Y-57297081D01*
X73407200Y-33833332D02*
X73454819Y-33690475D01*
X73454819Y-33690475D02*
X73454819Y-33452380D01*
X73454819Y-33452380D02*
X73407200Y-33357142D01*
X73407200Y-33357142D02*
X73359580Y-33309523D01*
X73359580Y-33309523D02*
X73264342Y-33261904D01*
X73264342Y-33261904D02*
X73169104Y-33261904D01*
X73169104Y-33261904D02*
X73073866Y-33309523D01*
X73073866Y-33309523D02*
X73026247Y-33357142D01*
X73026247Y-33357142D02*
X72978628Y-33452380D01*
X72978628Y-33452380D02*
X72931009Y-33642856D01*
X72931009Y-33642856D02*
X72883390Y-33738094D01*
X72883390Y-33738094D02*
X72835771Y-33785713D01*
X72835771Y-33785713D02*
X72740533Y-33833332D01*
X72740533Y-33833332D02*
X72645295Y-33833332D01*
X72645295Y-33833332D02*
X72550057Y-33785713D01*
X72550057Y-33785713D02*
X72502438Y-33738094D01*
X72502438Y-33738094D02*
X72454819Y-33642856D01*
X72454819Y-33642856D02*
X72454819Y-33404761D01*
X72454819Y-33404761D02*
X72502438Y-33261904D01*
X72454819Y-32928570D02*
X73454819Y-32690475D01*
X73454819Y-32690475D02*
X72740533Y-32499999D01*
X72740533Y-32499999D02*
X73454819Y-32309523D01*
X73454819Y-32309523D02*
X72454819Y-32071428D01*
X73454819Y-31166666D02*
X73454819Y-31738094D01*
X73454819Y-31452380D02*
X72454819Y-31452380D01*
X72454819Y-31452380D02*
X72597676Y-31547618D01*
X72597676Y-31547618D02*
X72692914Y-31642856D01*
X72692914Y-31642856D02*
X72740533Y-31738094D01*
X46715182Y-90761905D02*
X45905659Y-90761905D01*
X45905659Y-90761905D02*
X45810421Y-90809524D01*
X45810421Y-90809524D02*
X45762802Y-90857143D01*
X45762802Y-90857143D02*
X45715182Y-90952381D01*
X45715182Y-90952381D02*
X45715182Y-91142857D01*
X45715182Y-91142857D02*
X45762802Y-91238095D01*
X45762802Y-91238095D02*
X45810421Y-91285714D01*
X45810421Y-91285714D02*
X45905659Y-91333333D01*
X45905659Y-91333333D02*
X46715182Y-91333333D01*
X45715182Y-92333333D02*
X45715182Y-91761905D01*
X45715182Y-92047619D02*
X46715182Y-92047619D01*
X46715182Y-92047619D02*
X46572325Y-91952381D01*
X46572325Y-91952381D02*
X46477087Y-91857143D01*
X46477087Y-91857143D02*
X46429468Y-91761905D01*
X46715182Y-92952381D02*
X46715182Y-93047619D01*
X46715182Y-93047619D02*
X46667563Y-93142857D01*
X46667563Y-93142857D02*
X46619944Y-93190476D01*
X46619944Y-93190476D02*
X46524706Y-93238095D01*
X46524706Y-93238095D02*
X46334230Y-93285714D01*
X46334230Y-93285714D02*
X46096135Y-93285714D01*
X46096135Y-93285714D02*
X45905659Y-93238095D01*
X45905659Y-93238095D02*
X45810421Y-93190476D01*
X45810421Y-93190476D02*
X45762802Y-93142857D01*
X45762802Y-93142857D02*
X45715182Y-93047619D01*
X45715182Y-93047619D02*
X45715182Y-92952381D01*
X45715182Y-92952381D02*
X45762802Y-92857143D01*
X45762802Y-92857143D02*
X45810421Y-92809524D01*
X45810421Y-92809524D02*
X45905659Y-92761905D01*
X45905659Y-92761905D02*
X46096135Y-92714286D01*
X46096135Y-92714286D02*
X46334230Y-92714286D01*
X46334230Y-92714286D02*
X46524706Y-92761905D01*
X46524706Y-92761905D02*
X46619944Y-92809524D01*
X46619944Y-92809524D02*
X46667563Y-92857143D01*
X46667563Y-92857143D02*
X46715182Y-92952381D01*
X58074818Y-65394405D02*
X58884341Y-65394405D01*
X58884341Y-65394405D02*
X58979579Y-65346786D01*
X58979579Y-65346786D02*
X59027199Y-65299167D01*
X59027199Y-65299167D02*
X59074818Y-65203929D01*
X59074818Y-65203929D02*
X59074818Y-65013453D01*
X59074818Y-65013453D02*
X59027199Y-64918215D01*
X59027199Y-64918215D02*
X58979579Y-64870596D01*
X58979579Y-64870596D02*
X58884341Y-64822977D01*
X58884341Y-64822977D02*
X58074818Y-64822977D01*
X58074818Y-63870596D02*
X58074818Y-64346786D01*
X58074818Y-64346786D02*
X58551008Y-64394405D01*
X58551008Y-64394405D02*
X58503389Y-64346786D01*
X58503389Y-64346786D02*
X58455770Y-64251548D01*
X58455770Y-64251548D02*
X58455770Y-64013453D01*
X58455770Y-64013453D02*
X58503389Y-63918215D01*
X58503389Y-63918215D02*
X58551008Y-63870596D01*
X58551008Y-63870596D02*
X58646246Y-63822977D01*
X58646246Y-63822977D02*
X58884341Y-63822977D01*
X58884341Y-63822977D02*
X58979579Y-63870596D01*
X58979579Y-63870596D02*
X59027199Y-63918215D01*
X59027199Y-63918215D02*
X59074818Y-64013453D01*
X59074818Y-64013453D02*
X59074818Y-64251548D01*
X59074818Y-64251548D02*
X59027199Y-64346786D01*
X59027199Y-64346786D02*
X58979579Y-64394405D01*
X84454819Y-63833333D02*
X85169104Y-63833333D01*
X85169104Y-63833333D02*
X85311961Y-63880952D01*
X85311961Y-63880952D02*
X85407200Y-63976190D01*
X85407200Y-63976190D02*
X85454819Y-64119047D01*
X85454819Y-64119047D02*
X85454819Y-64214285D01*
X85454819Y-63357142D02*
X84454819Y-63357142D01*
X84454819Y-63357142D02*
X84454819Y-62976190D01*
X84454819Y-62976190D02*
X84502438Y-62880952D01*
X84502438Y-62880952D02*
X84550057Y-62833333D01*
X84550057Y-62833333D02*
X84645295Y-62785714D01*
X84645295Y-62785714D02*
X84788152Y-62785714D01*
X84788152Y-62785714D02*
X84883390Y-62833333D01*
X84883390Y-62833333D02*
X84931009Y-62880952D01*
X84931009Y-62880952D02*
X84978628Y-62976190D01*
X84978628Y-62976190D02*
X84978628Y-63357142D01*
X85454819Y-62309523D02*
X85454819Y-62119047D01*
X85454819Y-62119047D02*
X85407200Y-62023809D01*
X85407200Y-62023809D02*
X85359580Y-61976190D01*
X85359580Y-61976190D02*
X85216723Y-61880952D01*
X85216723Y-61880952D02*
X85026247Y-61833333D01*
X85026247Y-61833333D02*
X84645295Y-61833333D01*
X84645295Y-61833333D02*
X84550057Y-61880952D01*
X84550057Y-61880952D02*
X84502438Y-61928571D01*
X84502438Y-61928571D02*
X84454819Y-62023809D01*
X84454819Y-62023809D02*
X84454819Y-62214285D01*
X84454819Y-62214285D02*
X84502438Y-62309523D01*
X84502438Y-62309523D02*
X84550057Y-62357142D01*
X84550057Y-62357142D02*
X84645295Y-62404761D01*
X84645295Y-62404761D02*
X84883390Y-62404761D01*
X84883390Y-62404761D02*
X84978628Y-62357142D01*
X84978628Y-62357142D02*
X85026247Y-62309523D01*
X85026247Y-62309523D02*
X85073866Y-62214285D01*
X85073866Y-62214285D02*
X85073866Y-62023809D01*
X85073866Y-62023809D02*
X85026247Y-61928571D01*
X85026247Y-61928571D02*
X84978628Y-61880952D01*
X84978628Y-61880952D02*
X84883390Y-61833333D01*
X87454819Y-60114285D02*
X87454819Y-60685713D01*
X87454819Y-60399999D02*
X86454819Y-60399999D01*
X86454819Y-60399999D02*
X86597676Y-60495237D01*
X86597676Y-60495237D02*
X86692914Y-60590475D01*
X86692914Y-60590475D02*
X86740533Y-60685713D01*
X86454819Y-65933332D02*
X86454819Y-65314285D01*
X86454819Y-65314285D02*
X86835771Y-65647618D01*
X86835771Y-65647618D02*
X86835771Y-65504761D01*
X86835771Y-65504761D02*
X86883390Y-65409523D01*
X86883390Y-65409523D02*
X86931009Y-65361904D01*
X86931009Y-65361904D02*
X87026247Y-65314285D01*
X87026247Y-65314285D02*
X87264342Y-65314285D01*
X87264342Y-65314285D02*
X87359580Y-65361904D01*
X87359580Y-65361904D02*
X87407200Y-65409523D01*
X87407200Y-65409523D02*
X87454819Y-65504761D01*
X87454819Y-65504761D02*
X87454819Y-65790475D01*
X87454819Y-65790475D02*
X87407200Y-65885713D01*
X87407200Y-65885713D02*
X87359580Y-65933332D01*
X43503335Y-41892320D02*
X43170002Y-41416129D01*
X42931907Y-41892320D02*
X42931907Y-40892320D01*
X42931907Y-40892320D02*
X43312859Y-40892320D01*
X43312859Y-40892320D02*
X43408097Y-40939939D01*
X43408097Y-40939939D02*
X43455716Y-40987558D01*
X43455716Y-40987558D02*
X43503335Y-41082796D01*
X43503335Y-41082796D02*
X43503335Y-41225653D01*
X43503335Y-41225653D02*
X43455716Y-41320891D01*
X43455716Y-41320891D02*
X43408097Y-41368510D01*
X43408097Y-41368510D02*
X43312859Y-41416129D01*
X43312859Y-41416129D02*
X42931907Y-41416129D01*
X44455716Y-41892320D02*
X43884288Y-41892320D01*
X44170002Y-41892320D02*
X44170002Y-40892320D01*
X44170002Y-40892320D02*
X44074764Y-41035177D01*
X44074764Y-41035177D02*
X43979526Y-41130415D01*
X43979526Y-41130415D02*
X43884288Y-41178034D01*
X45357142Y-67859580D02*
X45309523Y-67907200D01*
X45309523Y-67907200D02*
X45166666Y-67954819D01*
X45166666Y-67954819D02*
X45071428Y-67954819D01*
X45071428Y-67954819D02*
X44928571Y-67907200D01*
X44928571Y-67907200D02*
X44833333Y-67811961D01*
X44833333Y-67811961D02*
X44785714Y-67716723D01*
X44785714Y-67716723D02*
X44738095Y-67526247D01*
X44738095Y-67526247D02*
X44738095Y-67383390D01*
X44738095Y-67383390D02*
X44785714Y-67192914D01*
X44785714Y-67192914D02*
X44833333Y-67097676D01*
X44833333Y-67097676D02*
X44928571Y-67002438D01*
X44928571Y-67002438D02*
X45071428Y-66954819D01*
X45071428Y-66954819D02*
X45166666Y-66954819D01*
X45166666Y-66954819D02*
X45309523Y-67002438D01*
X45309523Y-67002438D02*
X45357142Y-67050057D01*
X46309523Y-67954819D02*
X45738095Y-67954819D01*
X46023809Y-67954819D02*
X46023809Y-66954819D01*
X46023809Y-66954819D02*
X45928571Y-67097676D01*
X45928571Y-67097676D02*
X45833333Y-67192914D01*
X45833333Y-67192914D02*
X45738095Y-67240533D01*
X46642857Y-66954819D02*
X47261904Y-66954819D01*
X47261904Y-66954819D02*
X46928571Y-67335771D01*
X46928571Y-67335771D02*
X47071428Y-67335771D01*
X47071428Y-67335771D02*
X47166666Y-67383390D01*
X47166666Y-67383390D02*
X47214285Y-67431009D01*
X47214285Y-67431009D02*
X47261904Y-67526247D01*
X47261904Y-67526247D02*
X47261904Y-67764342D01*
X47261904Y-67764342D02*
X47214285Y-67859580D01*
X47214285Y-67859580D02*
X47166666Y-67907200D01*
X47166666Y-67907200D02*
X47071428Y-67954819D01*
X47071428Y-67954819D02*
X46785714Y-67954819D01*
X46785714Y-67954819D02*
X46690476Y-67907200D01*
X46690476Y-67907200D02*
X46642857Y-67859580D01*
X58074818Y-95394405D02*
X58884341Y-95394405D01*
X58884341Y-95394405D02*
X58979579Y-95346786D01*
X58979579Y-95346786D02*
X59027199Y-95299167D01*
X59027199Y-95299167D02*
X59074818Y-95203929D01*
X59074818Y-95203929D02*
X59074818Y-95013453D01*
X59074818Y-95013453D02*
X59027199Y-94918215D01*
X59027199Y-94918215D02*
X58979579Y-94870596D01*
X58979579Y-94870596D02*
X58884341Y-94822977D01*
X58884341Y-94822977D02*
X58074818Y-94822977D01*
X59074818Y-94299167D02*
X59074818Y-94108691D01*
X59074818Y-94108691D02*
X59027199Y-94013453D01*
X59027199Y-94013453D02*
X58979579Y-93965834D01*
X58979579Y-93965834D02*
X58836722Y-93870596D01*
X58836722Y-93870596D02*
X58646246Y-93822977D01*
X58646246Y-93822977D02*
X58265294Y-93822977D01*
X58265294Y-93822977D02*
X58170056Y-93870596D01*
X58170056Y-93870596D02*
X58122437Y-93918215D01*
X58122437Y-93918215D02*
X58074818Y-94013453D01*
X58074818Y-94013453D02*
X58074818Y-94203929D01*
X58074818Y-94203929D02*
X58122437Y-94299167D01*
X58122437Y-94299167D02*
X58170056Y-94346786D01*
X58170056Y-94346786D02*
X58265294Y-94394405D01*
X58265294Y-94394405D02*
X58503389Y-94394405D01*
X58503389Y-94394405D02*
X58598627Y-94346786D01*
X58598627Y-94346786D02*
X58646246Y-94299167D01*
X58646246Y-94299167D02*
X58693865Y-94203929D01*
X58693865Y-94203929D02*
X58693865Y-94013453D01*
X58693865Y-94013453D02*
X58646246Y-93918215D01*
X58646246Y-93918215D02*
X58598627Y-93870596D01*
X58598627Y-93870596D02*
X58503389Y-93822977D01*
X97174819Y-64238094D02*
X97984342Y-64238094D01*
X97984342Y-64238094D02*
X98079580Y-64190475D01*
X98079580Y-64190475D02*
X98127200Y-64142856D01*
X98127200Y-64142856D02*
X98174819Y-64047618D01*
X98174819Y-64047618D02*
X98174819Y-63857142D01*
X98174819Y-63857142D02*
X98127200Y-63761904D01*
X98127200Y-63761904D02*
X98079580Y-63714285D01*
X98079580Y-63714285D02*
X97984342Y-63666666D01*
X97984342Y-63666666D02*
X97174819Y-63666666D01*
X98174819Y-62666666D02*
X98174819Y-63238094D01*
X98174819Y-62952380D02*
X97174819Y-62952380D01*
X97174819Y-62952380D02*
X97317676Y-63047618D01*
X97317676Y-63047618D02*
X97412914Y-63142856D01*
X97412914Y-63142856D02*
X97460533Y-63238094D01*
X98174819Y-61714285D02*
X98174819Y-62285713D01*
X98174819Y-61999999D02*
X97174819Y-61999999D01*
X97174819Y-61999999D02*
X97317676Y-62095237D01*
X97317676Y-62095237D02*
X97412914Y-62190475D01*
X97412914Y-62190475D02*
X97460533Y-62285713D01*
X45503335Y-56387081D02*
X45455716Y-56434701D01*
X45455716Y-56434701D02*
X45312859Y-56482320D01*
X45312859Y-56482320D02*
X45217621Y-56482320D01*
X45217621Y-56482320D02*
X45074764Y-56434701D01*
X45074764Y-56434701D02*
X44979526Y-56339462D01*
X44979526Y-56339462D02*
X44931907Y-56244224D01*
X44931907Y-56244224D02*
X44884288Y-56053748D01*
X44884288Y-56053748D02*
X44884288Y-55910891D01*
X44884288Y-55910891D02*
X44931907Y-55720415D01*
X44931907Y-55720415D02*
X44979526Y-55625177D01*
X44979526Y-55625177D02*
X45074764Y-55529939D01*
X45074764Y-55529939D02*
X45217621Y-55482320D01*
X45217621Y-55482320D02*
X45312859Y-55482320D01*
X45312859Y-55482320D02*
X45455716Y-55529939D01*
X45455716Y-55529939D02*
X45503335Y-55577558D01*
X45979526Y-56482320D02*
X46170002Y-56482320D01*
X46170002Y-56482320D02*
X46265240Y-56434701D01*
X46265240Y-56434701D02*
X46312859Y-56387081D01*
X46312859Y-56387081D02*
X46408097Y-56244224D01*
X46408097Y-56244224D02*
X46455716Y-56053748D01*
X46455716Y-56053748D02*
X46455716Y-55672796D01*
X46455716Y-55672796D02*
X46408097Y-55577558D01*
X46408097Y-55577558D02*
X46360478Y-55529939D01*
X46360478Y-55529939D02*
X46265240Y-55482320D01*
X46265240Y-55482320D02*
X46074764Y-55482320D01*
X46074764Y-55482320D02*
X45979526Y-55529939D01*
X45979526Y-55529939D02*
X45931907Y-55577558D01*
X45931907Y-55577558D02*
X45884288Y-55672796D01*
X45884288Y-55672796D02*
X45884288Y-55910891D01*
X45884288Y-55910891D02*
X45931907Y-56006129D01*
X45931907Y-56006129D02*
X45979526Y-56053748D01*
X45979526Y-56053748D02*
X46074764Y-56101367D01*
X46074764Y-56101367D02*
X46265240Y-56101367D01*
X46265240Y-56101367D02*
X46360478Y-56053748D01*
X46360478Y-56053748D02*
X46408097Y-56006129D01*
X46408097Y-56006129D02*
X46455716Y-55910891D01*
X109359580Y-68392857D02*
X109407200Y-68440476D01*
X109407200Y-68440476D02*
X109454819Y-68583333D01*
X109454819Y-68583333D02*
X109454819Y-68678571D01*
X109454819Y-68678571D02*
X109407200Y-68821428D01*
X109407200Y-68821428D02*
X109311961Y-68916666D01*
X109311961Y-68916666D02*
X109216723Y-68964285D01*
X109216723Y-68964285D02*
X109026247Y-69011904D01*
X109026247Y-69011904D02*
X108883390Y-69011904D01*
X108883390Y-69011904D02*
X108692914Y-68964285D01*
X108692914Y-68964285D02*
X108597676Y-68916666D01*
X108597676Y-68916666D02*
X108502438Y-68821428D01*
X108502438Y-68821428D02*
X108454819Y-68678571D01*
X108454819Y-68678571D02*
X108454819Y-68583333D01*
X108454819Y-68583333D02*
X108502438Y-68440476D01*
X108502438Y-68440476D02*
X108550057Y-68392857D01*
X108454819Y-68059523D02*
X108454819Y-67440476D01*
X108454819Y-67440476D02*
X108835771Y-67773809D01*
X108835771Y-67773809D02*
X108835771Y-67630952D01*
X108835771Y-67630952D02*
X108883390Y-67535714D01*
X108883390Y-67535714D02*
X108931009Y-67488095D01*
X108931009Y-67488095D02*
X109026247Y-67440476D01*
X109026247Y-67440476D02*
X109264342Y-67440476D01*
X109264342Y-67440476D02*
X109359580Y-67488095D01*
X109359580Y-67488095D02*
X109407200Y-67535714D01*
X109407200Y-67535714D02*
X109454819Y-67630952D01*
X109454819Y-67630952D02*
X109454819Y-67916666D01*
X109454819Y-67916666D02*
X109407200Y-68011904D01*
X109407200Y-68011904D02*
X109359580Y-68059523D01*
X108454819Y-66821428D02*
X108454819Y-66726190D01*
X108454819Y-66726190D02*
X108502438Y-66630952D01*
X108502438Y-66630952D02*
X108550057Y-66583333D01*
X108550057Y-66583333D02*
X108645295Y-66535714D01*
X108645295Y-66535714D02*
X108835771Y-66488095D01*
X108835771Y-66488095D02*
X109073866Y-66488095D01*
X109073866Y-66488095D02*
X109264342Y-66535714D01*
X109264342Y-66535714D02*
X109359580Y-66583333D01*
X109359580Y-66583333D02*
X109407200Y-66630952D01*
X109407200Y-66630952D02*
X109454819Y-66726190D01*
X109454819Y-66726190D02*
X109454819Y-66821428D01*
X109454819Y-66821428D02*
X109407200Y-66916666D01*
X109407200Y-66916666D02*
X109359580Y-66964285D01*
X109359580Y-66964285D02*
X109264342Y-67011904D01*
X109264342Y-67011904D02*
X109073866Y-67059523D01*
X109073866Y-67059523D02*
X108835771Y-67059523D01*
X108835771Y-67059523D02*
X108645295Y-67011904D01*
X108645295Y-67011904D02*
X108550057Y-66964285D01*
X108550057Y-66964285D02*
X108502438Y-66916666D01*
X108502438Y-66916666D02*
X108454819Y-66821428D01*
X101335726Y-68393128D02*
X101383346Y-68440747D01*
X101383346Y-68440747D02*
X101430965Y-68583604D01*
X101430965Y-68583604D02*
X101430965Y-68678842D01*
X101430965Y-68678842D02*
X101383346Y-68821699D01*
X101383346Y-68821699D02*
X101288107Y-68916937D01*
X101288107Y-68916937D02*
X101192869Y-68964556D01*
X101192869Y-68964556D02*
X101002393Y-69012175D01*
X101002393Y-69012175D02*
X100859536Y-69012175D01*
X100859536Y-69012175D02*
X100669060Y-68964556D01*
X100669060Y-68964556D02*
X100573822Y-68916937D01*
X100573822Y-68916937D02*
X100478584Y-68821699D01*
X100478584Y-68821699D02*
X100430965Y-68678842D01*
X100430965Y-68678842D02*
X100430965Y-68583604D01*
X100430965Y-68583604D02*
X100478584Y-68440747D01*
X100478584Y-68440747D02*
X100526203Y-68393128D01*
X100526203Y-68012175D02*
X100478584Y-67964556D01*
X100478584Y-67964556D02*
X100430965Y-67869318D01*
X100430965Y-67869318D02*
X100430965Y-67631223D01*
X100430965Y-67631223D02*
X100478584Y-67535985D01*
X100478584Y-67535985D02*
X100526203Y-67488366D01*
X100526203Y-67488366D02*
X100621441Y-67440747D01*
X100621441Y-67440747D02*
X100716679Y-67440747D01*
X100716679Y-67440747D02*
X100859536Y-67488366D01*
X100859536Y-67488366D02*
X101430965Y-68059794D01*
X101430965Y-68059794D02*
X101430965Y-67440747D01*
X101430965Y-66964556D02*
X101430965Y-66774080D01*
X101430965Y-66774080D02*
X101383346Y-66678842D01*
X101383346Y-66678842D02*
X101335726Y-66631223D01*
X101335726Y-66631223D02*
X101192869Y-66535985D01*
X101192869Y-66535985D02*
X101002393Y-66488366D01*
X101002393Y-66488366D02*
X100621441Y-66488366D01*
X100621441Y-66488366D02*
X100526203Y-66535985D01*
X100526203Y-66535985D02*
X100478584Y-66583604D01*
X100478584Y-66583604D02*
X100430965Y-66678842D01*
X100430965Y-66678842D02*
X100430965Y-66869318D01*
X100430965Y-66869318D02*
X100478584Y-66964556D01*
X100478584Y-66964556D02*
X100526203Y-67012175D01*
X100526203Y-67012175D02*
X100621441Y-67059794D01*
X100621441Y-67059794D02*
X100859536Y-67059794D01*
X100859536Y-67059794D02*
X100954774Y-67012175D01*
X100954774Y-67012175D02*
X101002393Y-66964556D01*
X101002393Y-66964556D02*
X101050012Y-66869318D01*
X101050012Y-66869318D02*
X101050012Y-66678842D01*
X101050012Y-66678842D02*
X101002393Y-66583604D01*
X101002393Y-66583604D02*
X100954774Y-66535985D01*
X100954774Y-66535985D02*
X100859536Y-66488366D01*
X29238095Y-25154819D02*
X29238095Y-24154819D01*
X29238095Y-24631009D02*
X29809523Y-24631009D01*
X29809523Y-25154819D02*
X29809523Y-24154819D01*
X30809523Y-25154819D02*
X30238095Y-25154819D01*
X30523809Y-25154819D02*
X30523809Y-24154819D01*
X30523809Y-24154819D02*
X30428571Y-24297676D01*
X30428571Y-24297676D02*
X30333333Y-24392914D01*
X30333333Y-24392914D02*
X30238095Y-24440533D01*
X92454819Y-63833333D02*
X93169104Y-63833333D01*
X93169104Y-63833333D02*
X93311961Y-63880952D01*
X93311961Y-63880952D02*
X93407200Y-63976190D01*
X93407200Y-63976190D02*
X93454819Y-64119047D01*
X93454819Y-64119047D02*
X93454819Y-64214285D01*
X93454819Y-63357142D02*
X92454819Y-63357142D01*
X92454819Y-63357142D02*
X92454819Y-62976190D01*
X92454819Y-62976190D02*
X92502438Y-62880952D01*
X92502438Y-62880952D02*
X92550057Y-62833333D01*
X92550057Y-62833333D02*
X92645295Y-62785714D01*
X92645295Y-62785714D02*
X92788152Y-62785714D01*
X92788152Y-62785714D02*
X92883390Y-62833333D01*
X92883390Y-62833333D02*
X92931009Y-62880952D01*
X92931009Y-62880952D02*
X92978628Y-62976190D01*
X92978628Y-62976190D02*
X92978628Y-63357142D01*
X92883390Y-62214285D02*
X92835771Y-62309523D01*
X92835771Y-62309523D02*
X92788152Y-62357142D01*
X92788152Y-62357142D02*
X92692914Y-62404761D01*
X92692914Y-62404761D02*
X92645295Y-62404761D01*
X92645295Y-62404761D02*
X92550057Y-62357142D01*
X92550057Y-62357142D02*
X92502438Y-62309523D01*
X92502438Y-62309523D02*
X92454819Y-62214285D01*
X92454819Y-62214285D02*
X92454819Y-62023809D01*
X92454819Y-62023809D02*
X92502438Y-61928571D01*
X92502438Y-61928571D02*
X92550057Y-61880952D01*
X92550057Y-61880952D02*
X92645295Y-61833333D01*
X92645295Y-61833333D02*
X92692914Y-61833333D01*
X92692914Y-61833333D02*
X92788152Y-61880952D01*
X92788152Y-61880952D02*
X92835771Y-61928571D01*
X92835771Y-61928571D02*
X92883390Y-62023809D01*
X92883390Y-62023809D02*
X92883390Y-62214285D01*
X92883390Y-62214285D02*
X92931009Y-62309523D01*
X92931009Y-62309523D02*
X92978628Y-62357142D01*
X92978628Y-62357142D02*
X93073866Y-62404761D01*
X93073866Y-62404761D02*
X93264342Y-62404761D01*
X93264342Y-62404761D02*
X93359580Y-62357142D01*
X93359580Y-62357142D02*
X93407200Y-62309523D01*
X93407200Y-62309523D02*
X93454819Y-62214285D01*
X93454819Y-62214285D02*
X93454819Y-62023809D01*
X93454819Y-62023809D02*
X93407200Y-61928571D01*
X93407200Y-61928571D02*
X93359580Y-61880952D01*
X93359580Y-61880952D02*
X93264342Y-61833333D01*
X93264342Y-61833333D02*
X93073866Y-61833333D01*
X93073866Y-61833333D02*
X92978628Y-61880952D01*
X92978628Y-61880952D02*
X92931009Y-61928571D01*
X92931009Y-61928571D02*
X92883390Y-62023809D01*
X91454819Y-60114285D02*
X91454819Y-60685713D01*
X91454819Y-60399999D02*
X90454819Y-60399999D01*
X90454819Y-60399999D02*
X90597676Y-60495237D01*
X90597676Y-60495237D02*
X90692914Y-60590475D01*
X90692914Y-60590475D02*
X90740533Y-60685713D01*
X90454819Y-65933332D02*
X90454819Y-65314285D01*
X90454819Y-65314285D02*
X90835771Y-65647618D01*
X90835771Y-65647618D02*
X90835771Y-65504761D01*
X90835771Y-65504761D02*
X90883390Y-65409523D01*
X90883390Y-65409523D02*
X90931009Y-65361904D01*
X90931009Y-65361904D02*
X91026247Y-65314285D01*
X91026247Y-65314285D02*
X91264342Y-65314285D01*
X91264342Y-65314285D02*
X91359580Y-65361904D01*
X91359580Y-65361904D02*
X91407200Y-65409523D01*
X91407200Y-65409523D02*
X91454819Y-65504761D01*
X91454819Y-65504761D02*
X91454819Y-65790475D01*
X91454819Y-65790475D02*
X91407200Y-65885713D01*
X91407200Y-65885713D02*
X91359580Y-65933332D01*
X29238095Y-115954819D02*
X29238095Y-114954819D01*
X29238095Y-115431009D02*
X29809523Y-115431009D01*
X29809523Y-115954819D02*
X29809523Y-114954819D01*
X30714285Y-115288152D02*
X30714285Y-115954819D01*
X30476190Y-114907200D02*
X30238095Y-115621485D01*
X30238095Y-115621485D02*
X30857142Y-115621485D01*
X104523809Y-70978628D02*
X104523809Y-71454819D01*
X104190476Y-70454819D02*
X104523809Y-70978628D01*
X104523809Y-70978628D02*
X104857142Y-70454819D01*
X105714285Y-71454819D02*
X105142857Y-71454819D01*
X105428571Y-71454819D02*
X105428571Y-70454819D01*
X105428571Y-70454819D02*
X105333333Y-70597676D01*
X105333333Y-70597676D02*
X105238095Y-70692914D01*
X105238095Y-70692914D02*
X105142857Y-70740533D01*
X45027144Y-71387081D02*
X44979525Y-71434701D01*
X44979525Y-71434701D02*
X44836668Y-71482320D01*
X44836668Y-71482320D02*
X44741430Y-71482320D01*
X44741430Y-71482320D02*
X44598573Y-71434701D01*
X44598573Y-71434701D02*
X44503335Y-71339462D01*
X44503335Y-71339462D02*
X44455716Y-71244224D01*
X44455716Y-71244224D02*
X44408097Y-71053748D01*
X44408097Y-71053748D02*
X44408097Y-70910891D01*
X44408097Y-70910891D02*
X44455716Y-70720415D01*
X44455716Y-70720415D02*
X44503335Y-70625177D01*
X44503335Y-70625177D02*
X44598573Y-70529939D01*
X44598573Y-70529939D02*
X44741430Y-70482320D01*
X44741430Y-70482320D02*
X44836668Y-70482320D01*
X44836668Y-70482320D02*
X44979525Y-70529939D01*
X44979525Y-70529939D02*
X45027144Y-70577558D01*
X45979525Y-71482320D02*
X45408097Y-71482320D01*
X45693811Y-71482320D02*
X45693811Y-70482320D01*
X45693811Y-70482320D02*
X45598573Y-70625177D01*
X45598573Y-70625177D02*
X45503335Y-70720415D01*
X45503335Y-70720415D02*
X45408097Y-70768034D01*
X46836668Y-70482320D02*
X46646192Y-70482320D01*
X46646192Y-70482320D02*
X46550954Y-70529939D01*
X46550954Y-70529939D02*
X46503335Y-70577558D01*
X46503335Y-70577558D02*
X46408097Y-70720415D01*
X46408097Y-70720415D02*
X46360478Y-70910891D01*
X46360478Y-70910891D02*
X46360478Y-71291843D01*
X46360478Y-71291843D02*
X46408097Y-71387081D01*
X46408097Y-71387081D02*
X46455716Y-71434701D01*
X46455716Y-71434701D02*
X46550954Y-71482320D01*
X46550954Y-71482320D02*
X46741430Y-71482320D01*
X46741430Y-71482320D02*
X46836668Y-71434701D01*
X46836668Y-71434701D02*
X46884287Y-71387081D01*
X46884287Y-71387081D02*
X46931906Y-71291843D01*
X46931906Y-71291843D02*
X46931906Y-71053748D01*
X46931906Y-71053748D02*
X46884287Y-70958510D01*
X46884287Y-70958510D02*
X46836668Y-70910891D01*
X46836668Y-70910891D02*
X46741430Y-70863272D01*
X46741430Y-70863272D02*
X46550954Y-70863272D01*
X46550954Y-70863272D02*
X46455716Y-70910891D01*
X46455716Y-70910891D02*
X46408097Y-70958510D01*
X46408097Y-70958510D02*
X46360478Y-71053748D01*
X60359580Y-82525358D02*
X60407200Y-82572977D01*
X60407200Y-82572977D02*
X60454819Y-82715834D01*
X60454819Y-82715834D02*
X60454819Y-82811072D01*
X60454819Y-82811072D02*
X60407200Y-82953929D01*
X60407200Y-82953929D02*
X60311961Y-83049167D01*
X60311961Y-83049167D02*
X60216723Y-83096786D01*
X60216723Y-83096786D02*
X60026247Y-83144405D01*
X60026247Y-83144405D02*
X59883390Y-83144405D01*
X59883390Y-83144405D02*
X59692914Y-83096786D01*
X59692914Y-83096786D02*
X59597676Y-83049167D01*
X59597676Y-83049167D02*
X59502438Y-82953929D01*
X59502438Y-82953929D02*
X59454819Y-82811072D01*
X59454819Y-82811072D02*
X59454819Y-82715834D01*
X59454819Y-82715834D02*
X59502438Y-82572977D01*
X59502438Y-82572977D02*
X59550057Y-82525358D01*
X60454819Y-81572977D02*
X60454819Y-82144405D01*
X60454819Y-81858691D02*
X59454819Y-81858691D01*
X59454819Y-81858691D02*
X59597676Y-81953929D01*
X59597676Y-81953929D02*
X59692914Y-82049167D01*
X59692914Y-82049167D02*
X59740533Y-82144405D01*
X59454819Y-80668215D02*
X59454819Y-81144405D01*
X59454819Y-81144405D02*
X59931009Y-81192024D01*
X59931009Y-81192024D02*
X59883390Y-81144405D01*
X59883390Y-81144405D02*
X59835771Y-81049167D01*
X59835771Y-81049167D02*
X59835771Y-80811072D01*
X59835771Y-80811072D02*
X59883390Y-80715834D01*
X59883390Y-80715834D02*
X59931009Y-80668215D01*
X59931009Y-80668215D02*
X60026247Y-80620596D01*
X60026247Y-80620596D02*
X60264342Y-80620596D01*
X60264342Y-80620596D02*
X60359580Y-80668215D01*
X60359580Y-80668215D02*
X60407200Y-80715834D01*
X60407200Y-80715834D02*
X60454819Y-80811072D01*
X60454819Y-80811072D02*
X60454819Y-81049167D01*
X60454819Y-81049167D02*
X60407200Y-81144405D01*
X60407200Y-81144405D02*
X60359580Y-81192024D01*
X64039104Y-48704285D02*
X64039104Y-48228095D01*
X64324819Y-48799523D02*
X63324819Y-48466190D01*
X63324819Y-48466190D02*
X64324819Y-48132857D01*
X64324819Y-47275714D02*
X64324819Y-47847142D01*
X64324819Y-47561428D02*
X63324819Y-47561428D01*
X63324819Y-47561428D02*
X63467676Y-47656666D01*
X63467676Y-47656666D02*
X63562914Y-47751904D01*
X63562914Y-47751904D02*
X63610533Y-47847142D01*
X103964819Y-49251904D02*
X104774342Y-49251904D01*
X104774342Y-49251904D02*
X104869580Y-49204285D01*
X104869580Y-49204285D02*
X104917200Y-49156666D01*
X104917200Y-49156666D02*
X104964819Y-49061428D01*
X104964819Y-49061428D02*
X104964819Y-48870952D01*
X104964819Y-48870952D02*
X104917200Y-48775714D01*
X104917200Y-48775714D02*
X104869580Y-48728095D01*
X104869580Y-48728095D02*
X104774342Y-48680476D01*
X104774342Y-48680476D02*
X103964819Y-48680476D01*
X104917200Y-48251904D02*
X104964819Y-48109047D01*
X104964819Y-48109047D02*
X104964819Y-47870952D01*
X104964819Y-47870952D02*
X104917200Y-47775714D01*
X104917200Y-47775714D02*
X104869580Y-47728095D01*
X104869580Y-47728095D02*
X104774342Y-47680476D01*
X104774342Y-47680476D02*
X104679104Y-47680476D01*
X104679104Y-47680476D02*
X104583866Y-47728095D01*
X104583866Y-47728095D02*
X104536247Y-47775714D01*
X104536247Y-47775714D02*
X104488628Y-47870952D01*
X104488628Y-47870952D02*
X104441009Y-48061428D01*
X104441009Y-48061428D02*
X104393390Y-48156666D01*
X104393390Y-48156666D02*
X104345771Y-48204285D01*
X104345771Y-48204285D02*
X104250533Y-48251904D01*
X104250533Y-48251904D02*
X104155295Y-48251904D01*
X104155295Y-48251904D02*
X104060057Y-48204285D01*
X104060057Y-48204285D02*
X104012438Y-48156666D01*
X104012438Y-48156666D02*
X103964819Y-48061428D01*
X103964819Y-48061428D02*
X103964819Y-47823333D01*
X103964819Y-47823333D02*
X104012438Y-47680476D01*
X104441009Y-46918571D02*
X104488628Y-46775714D01*
X104488628Y-46775714D02*
X104536247Y-46728095D01*
X104536247Y-46728095D02*
X104631485Y-46680476D01*
X104631485Y-46680476D02*
X104774342Y-46680476D01*
X104774342Y-46680476D02*
X104869580Y-46728095D01*
X104869580Y-46728095D02*
X104917200Y-46775714D01*
X104917200Y-46775714D02*
X104964819Y-46870952D01*
X104964819Y-46870952D02*
X104964819Y-47251904D01*
X104964819Y-47251904D02*
X103964819Y-47251904D01*
X103964819Y-47251904D02*
X103964819Y-46918571D01*
X103964819Y-46918571D02*
X104012438Y-46823333D01*
X104012438Y-46823333D02*
X104060057Y-46775714D01*
X104060057Y-46775714D02*
X104155295Y-46728095D01*
X104155295Y-46728095D02*
X104250533Y-46728095D01*
X104250533Y-46728095D02*
X104345771Y-46775714D01*
X104345771Y-46775714D02*
X104393390Y-46823333D01*
X104393390Y-46823333D02*
X104441009Y-46918571D01*
X104441009Y-46918571D02*
X104441009Y-47251904D01*
X45357142Y-82859580D02*
X45309523Y-82907200D01*
X45309523Y-82907200D02*
X45166666Y-82954819D01*
X45166666Y-82954819D02*
X45071428Y-82954819D01*
X45071428Y-82954819D02*
X44928571Y-82907200D01*
X44928571Y-82907200D02*
X44833333Y-82811961D01*
X44833333Y-82811961D02*
X44785714Y-82716723D01*
X44785714Y-82716723D02*
X44738095Y-82526247D01*
X44738095Y-82526247D02*
X44738095Y-82383390D01*
X44738095Y-82383390D02*
X44785714Y-82192914D01*
X44785714Y-82192914D02*
X44833333Y-82097676D01*
X44833333Y-82097676D02*
X44928571Y-82002438D01*
X44928571Y-82002438D02*
X45071428Y-81954819D01*
X45071428Y-81954819D02*
X45166666Y-81954819D01*
X45166666Y-81954819D02*
X45309523Y-82002438D01*
X45309523Y-82002438D02*
X45357142Y-82050057D01*
X45738095Y-82050057D02*
X45785714Y-82002438D01*
X45785714Y-82002438D02*
X45880952Y-81954819D01*
X45880952Y-81954819D02*
X46119047Y-81954819D01*
X46119047Y-81954819D02*
X46214285Y-82002438D01*
X46214285Y-82002438D02*
X46261904Y-82050057D01*
X46261904Y-82050057D02*
X46309523Y-82145295D01*
X46309523Y-82145295D02*
X46309523Y-82240533D01*
X46309523Y-82240533D02*
X46261904Y-82383390D01*
X46261904Y-82383390D02*
X45690476Y-82954819D01*
X45690476Y-82954819D02*
X46309523Y-82954819D01*
X46928571Y-81954819D02*
X47023809Y-81954819D01*
X47023809Y-81954819D02*
X47119047Y-82002438D01*
X47119047Y-82002438D02*
X47166666Y-82050057D01*
X47166666Y-82050057D02*
X47214285Y-82145295D01*
X47214285Y-82145295D02*
X47261904Y-82335771D01*
X47261904Y-82335771D02*
X47261904Y-82573866D01*
X47261904Y-82573866D02*
X47214285Y-82764342D01*
X47214285Y-82764342D02*
X47166666Y-82859580D01*
X47166666Y-82859580D02*
X47119047Y-82907200D01*
X47119047Y-82907200D02*
X47023809Y-82954819D01*
X47023809Y-82954819D02*
X46928571Y-82954819D01*
X46928571Y-82954819D02*
X46833333Y-82907200D01*
X46833333Y-82907200D02*
X46785714Y-82859580D01*
X46785714Y-82859580D02*
X46738095Y-82764342D01*
X46738095Y-82764342D02*
X46690476Y-82573866D01*
X46690476Y-82573866D02*
X46690476Y-82335771D01*
X46690476Y-82335771D02*
X46738095Y-82145295D01*
X46738095Y-82145295D02*
X46785714Y-82050057D01*
X46785714Y-82050057D02*
X46833333Y-82002438D01*
X46833333Y-82002438D02*
X46928571Y-81954819D01*
X46715182Y-75925596D02*
X45905659Y-75925596D01*
X45905659Y-75925596D02*
X45810421Y-75973215D01*
X45810421Y-75973215D02*
X45762802Y-76020834D01*
X45762802Y-76020834D02*
X45715182Y-76116072D01*
X45715182Y-76116072D02*
X45715182Y-76306548D01*
X45715182Y-76306548D02*
X45762802Y-76401786D01*
X45762802Y-76401786D02*
X45810421Y-76449405D01*
X45810421Y-76449405D02*
X45905659Y-76497024D01*
X45905659Y-76497024D02*
X46715182Y-76497024D01*
X46286611Y-77116072D02*
X46334230Y-77020834D01*
X46334230Y-77020834D02*
X46381849Y-76973215D01*
X46381849Y-76973215D02*
X46477087Y-76925596D01*
X46477087Y-76925596D02*
X46524706Y-76925596D01*
X46524706Y-76925596D02*
X46619944Y-76973215D01*
X46619944Y-76973215D02*
X46667563Y-77020834D01*
X46667563Y-77020834D02*
X46715182Y-77116072D01*
X46715182Y-77116072D02*
X46715182Y-77306548D01*
X46715182Y-77306548D02*
X46667563Y-77401786D01*
X46667563Y-77401786D02*
X46619944Y-77449405D01*
X46619944Y-77449405D02*
X46524706Y-77497024D01*
X46524706Y-77497024D02*
X46477087Y-77497024D01*
X46477087Y-77497024D02*
X46381849Y-77449405D01*
X46381849Y-77449405D02*
X46334230Y-77401786D01*
X46334230Y-77401786D02*
X46286611Y-77306548D01*
X46286611Y-77306548D02*
X46286611Y-77116072D01*
X46286611Y-77116072D02*
X46238992Y-77020834D01*
X46238992Y-77020834D02*
X46191373Y-76973215D01*
X46191373Y-76973215D02*
X46096135Y-76925596D01*
X46096135Y-76925596D02*
X45905659Y-76925596D01*
X45905659Y-76925596D02*
X45810421Y-76973215D01*
X45810421Y-76973215D02*
X45762802Y-77020834D01*
X45762802Y-77020834D02*
X45715182Y-77116072D01*
X45715182Y-77116072D02*
X45715182Y-77306548D01*
X45715182Y-77306548D02*
X45762802Y-77401786D01*
X45762802Y-77401786D02*
X45810421Y-77449405D01*
X45810421Y-77449405D02*
X45905659Y-77497024D01*
X45905659Y-77497024D02*
X46096135Y-77497024D01*
X46096135Y-77497024D02*
X46191373Y-77449405D01*
X46191373Y-77449405D02*
X46238992Y-77401786D01*
X46238992Y-77401786D02*
X46286611Y-77306548D01*
X46715182Y-60925596D02*
X45905659Y-60925596D01*
X45905659Y-60925596D02*
X45810421Y-60973215D01*
X45810421Y-60973215D02*
X45762802Y-61020834D01*
X45762802Y-61020834D02*
X45715182Y-61116072D01*
X45715182Y-61116072D02*
X45715182Y-61306548D01*
X45715182Y-61306548D02*
X45762802Y-61401786D01*
X45762802Y-61401786D02*
X45810421Y-61449405D01*
X45810421Y-61449405D02*
X45905659Y-61497024D01*
X45905659Y-61497024D02*
X46715182Y-61497024D01*
X46715182Y-62401786D02*
X46715182Y-62211310D01*
X46715182Y-62211310D02*
X46667563Y-62116072D01*
X46667563Y-62116072D02*
X46619944Y-62068453D01*
X46619944Y-62068453D02*
X46477087Y-61973215D01*
X46477087Y-61973215D02*
X46286611Y-61925596D01*
X46286611Y-61925596D02*
X45905659Y-61925596D01*
X45905659Y-61925596D02*
X45810421Y-61973215D01*
X45810421Y-61973215D02*
X45762802Y-62020834D01*
X45762802Y-62020834D02*
X45715182Y-62116072D01*
X45715182Y-62116072D02*
X45715182Y-62306548D01*
X45715182Y-62306548D02*
X45762802Y-62401786D01*
X45762802Y-62401786D02*
X45810421Y-62449405D01*
X45810421Y-62449405D02*
X45905659Y-62497024D01*
X45905659Y-62497024D02*
X46143754Y-62497024D01*
X46143754Y-62497024D02*
X46238992Y-62449405D01*
X46238992Y-62449405D02*
X46286611Y-62401786D01*
X46286611Y-62401786D02*
X46334230Y-62306548D01*
X46334230Y-62306548D02*
X46334230Y-62116072D01*
X46334230Y-62116072D02*
X46286611Y-62020834D01*
X46286611Y-62020834D02*
X46238992Y-61973215D01*
X46238992Y-61973215D02*
X46143754Y-61925596D01*
X79666666Y-28454819D02*
X79666666Y-29169104D01*
X79666666Y-29169104D02*
X79619047Y-29311961D01*
X79619047Y-29311961D02*
X79523809Y-29407200D01*
X79523809Y-29407200D02*
X79380952Y-29454819D01*
X79380952Y-29454819D02*
X79285714Y-29454819D01*
X80095238Y-28550057D02*
X80142857Y-28502438D01*
X80142857Y-28502438D02*
X80238095Y-28454819D01*
X80238095Y-28454819D02*
X80476190Y-28454819D01*
X80476190Y-28454819D02*
X80571428Y-28502438D01*
X80571428Y-28502438D02*
X80619047Y-28550057D01*
X80619047Y-28550057D02*
X80666666Y-28645295D01*
X80666666Y-28645295D02*
X80666666Y-28740533D01*
X80666666Y-28740533D02*
X80619047Y-28883390D01*
X80619047Y-28883390D02*
X80047619Y-29454819D01*
X80047619Y-29454819D02*
X80666666Y-29454819D01*
X43857142Y-99297081D02*
X43809523Y-99344701D01*
X43809523Y-99344701D02*
X43666666Y-99392320D01*
X43666666Y-99392320D02*
X43571428Y-99392320D01*
X43571428Y-99392320D02*
X43428571Y-99344701D01*
X43428571Y-99344701D02*
X43333333Y-99249462D01*
X43333333Y-99249462D02*
X43285714Y-99154224D01*
X43285714Y-99154224D02*
X43238095Y-98963748D01*
X43238095Y-98963748D02*
X43238095Y-98820891D01*
X43238095Y-98820891D02*
X43285714Y-98630415D01*
X43285714Y-98630415D02*
X43333333Y-98535177D01*
X43333333Y-98535177D02*
X43428571Y-98439939D01*
X43428571Y-98439939D02*
X43571428Y-98392320D01*
X43571428Y-98392320D02*
X43666666Y-98392320D01*
X43666666Y-98392320D02*
X43809523Y-98439939D01*
X43809523Y-98439939D02*
X43857142Y-98487558D01*
X44238095Y-98487558D02*
X44285714Y-98439939D01*
X44285714Y-98439939D02*
X44380952Y-98392320D01*
X44380952Y-98392320D02*
X44619047Y-98392320D01*
X44619047Y-98392320D02*
X44714285Y-98439939D01*
X44714285Y-98439939D02*
X44761904Y-98487558D01*
X44761904Y-98487558D02*
X44809523Y-98582796D01*
X44809523Y-98582796D02*
X44809523Y-98678034D01*
X44809523Y-98678034D02*
X44761904Y-98820891D01*
X44761904Y-98820891D02*
X44190476Y-99392320D01*
X44190476Y-99392320D02*
X44809523Y-99392320D01*
X45666666Y-98725653D02*
X45666666Y-99392320D01*
X45428571Y-98344701D02*
X45190476Y-99058986D01*
X45190476Y-99058986D02*
X45809523Y-99058986D01*
X51771665Y-71392320D02*
X51771665Y-72106605D01*
X51771665Y-72106605D02*
X51724046Y-72249462D01*
X51724046Y-72249462D02*
X51628808Y-72344701D01*
X51628808Y-72344701D02*
X51485951Y-72392320D01*
X51485951Y-72392320D02*
X51390713Y-72392320D01*
X52247856Y-72392320D02*
X52247856Y-71392320D01*
X52247856Y-71392320D02*
X52628808Y-71392320D01*
X52628808Y-71392320D02*
X52724046Y-71439939D01*
X52724046Y-71439939D02*
X52771665Y-71487558D01*
X52771665Y-71487558D02*
X52819284Y-71582796D01*
X52819284Y-71582796D02*
X52819284Y-71725653D01*
X52819284Y-71725653D02*
X52771665Y-71820891D01*
X52771665Y-71820891D02*
X52724046Y-71868510D01*
X52724046Y-71868510D02*
X52628808Y-71916129D01*
X52628808Y-71916129D02*
X52247856Y-71916129D01*
X53676427Y-71392320D02*
X53485951Y-71392320D01*
X53485951Y-71392320D02*
X53390713Y-71439939D01*
X53390713Y-71439939D02*
X53343094Y-71487558D01*
X53343094Y-71487558D02*
X53247856Y-71630415D01*
X53247856Y-71630415D02*
X53200237Y-71820891D01*
X53200237Y-71820891D02*
X53200237Y-72201843D01*
X53200237Y-72201843D02*
X53247856Y-72297081D01*
X53247856Y-72297081D02*
X53295475Y-72344701D01*
X53295475Y-72344701D02*
X53390713Y-72392320D01*
X53390713Y-72392320D02*
X53581189Y-72392320D01*
X53581189Y-72392320D02*
X53676427Y-72344701D01*
X53676427Y-72344701D02*
X53724046Y-72297081D01*
X53724046Y-72297081D02*
X53771665Y-72201843D01*
X53771665Y-72201843D02*
X53771665Y-71963748D01*
X53771665Y-71963748D02*
X53724046Y-71868510D01*
X53724046Y-71868510D02*
X53676427Y-71820891D01*
X53676427Y-71820891D02*
X53581189Y-71773272D01*
X53581189Y-71773272D02*
X53390713Y-71773272D01*
X53390713Y-71773272D02*
X53295475Y-71820891D01*
X53295475Y-71820891D02*
X53247856Y-71868510D01*
X53247856Y-71868510D02*
X53200237Y-71963748D01*
X96357142Y-61019580D02*
X96309523Y-61067200D01*
X96309523Y-61067200D02*
X96166666Y-61114819D01*
X96166666Y-61114819D02*
X96071428Y-61114819D01*
X96071428Y-61114819D02*
X95928571Y-61067200D01*
X95928571Y-61067200D02*
X95833333Y-60971961D01*
X95833333Y-60971961D02*
X95785714Y-60876723D01*
X95785714Y-60876723D02*
X95738095Y-60686247D01*
X95738095Y-60686247D02*
X95738095Y-60543390D01*
X95738095Y-60543390D02*
X95785714Y-60352914D01*
X95785714Y-60352914D02*
X95833333Y-60257676D01*
X95833333Y-60257676D02*
X95928571Y-60162438D01*
X95928571Y-60162438D02*
X96071428Y-60114819D01*
X96071428Y-60114819D02*
X96166666Y-60114819D01*
X96166666Y-60114819D02*
X96309523Y-60162438D01*
X96309523Y-60162438D02*
X96357142Y-60210057D01*
X96690476Y-60114819D02*
X97309523Y-60114819D01*
X97309523Y-60114819D02*
X96976190Y-60495771D01*
X96976190Y-60495771D02*
X97119047Y-60495771D01*
X97119047Y-60495771D02*
X97214285Y-60543390D01*
X97214285Y-60543390D02*
X97261904Y-60591009D01*
X97261904Y-60591009D02*
X97309523Y-60686247D01*
X97309523Y-60686247D02*
X97309523Y-60924342D01*
X97309523Y-60924342D02*
X97261904Y-61019580D01*
X97261904Y-61019580D02*
X97214285Y-61067200D01*
X97214285Y-61067200D02*
X97119047Y-61114819D01*
X97119047Y-61114819D02*
X96833333Y-61114819D01*
X96833333Y-61114819D02*
X96738095Y-61067200D01*
X96738095Y-61067200D02*
X96690476Y-61019580D01*
X97690476Y-60210057D02*
X97738095Y-60162438D01*
X97738095Y-60162438D02*
X97833333Y-60114819D01*
X97833333Y-60114819D02*
X98071428Y-60114819D01*
X98071428Y-60114819D02*
X98166666Y-60162438D01*
X98166666Y-60162438D02*
X98214285Y-60210057D01*
X98214285Y-60210057D02*
X98261904Y-60305295D01*
X98261904Y-60305295D02*
X98261904Y-60400533D01*
X98261904Y-60400533D02*
X98214285Y-60543390D01*
X98214285Y-60543390D02*
X97642857Y-61114819D01*
X97642857Y-61114819D02*
X98261904Y-61114819D01*
X42833333Y-71454819D02*
X42500000Y-70978628D01*
X42261905Y-71454819D02*
X42261905Y-70454819D01*
X42261905Y-70454819D02*
X42642857Y-70454819D01*
X42642857Y-70454819D02*
X42738095Y-70502438D01*
X42738095Y-70502438D02*
X42785714Y-70550057D01*
X42785714Y-70550057D02*
X42833333Y-70645295D01*
X42833333Y-70645295D02*
X42833333Y-70788152D01*
X42833333Y-70788152D02*
X42785714Y-70883390D01*
X42785714Y-70883390D02*
X42738095Y-70931009D01*
X42738095Y-70931009D02*
X42642857Y-70978628D01*
X42642857Y-70978628D02*
X42261905Y-70978628D01*
X43166667Y-70454819D02*
X43833333Y-70454819D01*
X43833333Y-70454819D02*
X43404762Y-71454819D01*
X42357142Y-86454819D02*
X42023809Y-85978628D01*
X41785714Y-86454819D02*
X41785714Y-85454819D01*
X41785714Y-85454819D02*
X42166666Y-85454819D01*
X42166666Y-85454819D02*
X42261904Y-85502438D01*
X42261904Y-85502438D02*
X42309523Y-85550057D01*
X42309523Y-85550057D02*
X42357142Y-85645295D01*
X42357142Y-85645295D02*
X42357142Y-85788152D01*
X42357142Y-85788152D02*
X42309523Y-85883390D01*
X42309523Y-85883390D02*
X42261904Y-85931009D01*
X42261904Y-85931009D02*
X42166666Y-85978628D01*
X42166666Y-85978628D02*
X41785714Y-85978628D01*
X43309523Y-86454819D02*
X42738095Y-86454819D01*
X43023809Y-86454819D02*
X43023809Y-85454819D01*
X43023809Y-85454819D02*
X42928571Y-85597676D01*
X42928571Y-85597676D02*
X42833333Y-85692914D01*
X42833333Y-85692914D02*
X42738095Y-85740533D01*
X43928571Y-85454819D02*
X44023809Y-85454819D01*
X44023809Y-85454819D02*
X44119047Y-85502438D01*
X44119047Y-85502438D02*
X44166666Y-85550057D01*
X44166666Y-85550057D02*
X44214285Y-85645295D01*
X44214285Y-85645295D02*
X44261904Y-85835771D01*
X44261904Y-85835771D02*
X44261904Y-86073866D01*
X44261904Y-86073866D02*
X44214285Y-86264342D01*
X44214285Y-86264342D02*
X44166666Y-86359580D01*
X44166666Y-86359580D02*
X44119047Y-86407200D01*
X44119047Y-86407200D02*
X44023809Y-86454819D01*
X44023809Y-86454819D02*
X43928571Y-86454819D01*
X43928571Y-86454819D02*
X43833333Y-86407200D01*
X43833333Y-86407200D02*
X43785714Y-86359580D01*
X43785714Y-86359580D02*
X43738095Y-86264342D01*
X43738095Y-86264342D02*
X43690476Y-86073866D01*
X43690476Y-86073866D02*
X43690476Y-85835771D01*
X43690476Y-85835771D02*
X43738095Y-85645295D01*
X43738095Y-85645295D02*
X43785714Y-85550057D01*
X43785714Y-85550057D02*
X43833333Y-85502438D01*
X43833333Y-85502438D02*
X43928571Y-85454819D01*
X46715182Y-45925596D02*
X45905659Y-45925596D01*
X45905659Y-45925596D02*
X45810421Y-45973215D01*
X45810421Y-45973215D02*
X45762802Y-46020834D01*
X45762802Y-46020834D02*
X45715182Y-46116072D01*
X45715182Y-46116072D02*
X45715182Y-46306548D01*
X45715182Y-46306548D02*
X45762802Y-46401786D01*
X45762802Y-46401786D02*
X45810421Y-46449405D01*
X45810421Y-46449405D02*
X45905659Y-46497024D01*
X45905659Y-46497024D02*
X46715182Y-46497024D01*
X46381849Y-47401786D02*
X45715182Y-47401786D01*
X46762802Y-47163691D02*
X46048516Y-46925596D01*
X46048516Y-46925596D02*
X46048516Y-47544643D01*
X54688332Y-74892320D02*
X54354999Y-74416129D01*
X54116904Y-74892320D02*
X54116904Y-73892320D01*
X54116904Y-73892320D02*
X54497856Y-73892320D01*
X54497856Y-73892320D02*
X54593094Y-73939939D01*
X54593094Y-73939939D02*
X54640713Y-73987558D01*
X54640713Y-73987558D02*
X54688332Y-74082796D01*
X54688332Y-74082796D02*
X54688332Y-74225653D01*
X54688332Y-74225653D02*
X54640713Y-74320891D01*
X54640713Y-74320891D02*
X54593094Y-74368510D01*
X54593094Y-74368510D02*
X54497856Y-74416129D01*
X54497856Y-74416129D02*
X54116904Y-74416129D01*
X55164523Y-74892320D02*
X55354999Y-74892320D01*
X55354999Y-74892320D02*
X55450237Y-74844701D01*
X55450237Y-74844701D02*
X55497856Y-74797081D01*
X55497856Y-74797081D02*
X55593094Y-74654224D01*
X55593094Y-74654224D02*
X55640713Y-74463748D01*
X55640713Y-74463748D02*
X55640713Y-74082796D01*
X55640713Y-74082796D02*
X55593094Y-73987558D01*
X55593094Y-73987558D02*
X55545475Y-73939939D01*
X55545475Y-73939939D02*
X55450237Y-73892320D01*
X55450237Y-73892320D02*
X55259761Y-73892320D01*
X55259761Y-73892320D02*
X55164523Y-73939939D01*
X55164523Y-73939939D02*
X55116904Y-73987558D01*
X55116904Y-73987558D02*
X55069285Y-74082796D01*
X55069285Y-74082796D02*
X55069285Y-74320891D01*
X55069285Y-74320891D02*
X55116904Y-74416129D01*
X55116904Y-74416129D02*
X55164523Y-74463748D01*
X55164523Y-74463748D02*
X55259761Y-74511367D01*
X55259761Y-74511367D02*
X55450237Y-74511367D01*
X55450237Y-74511367D02*
X55545475Y-74463748D01*
X55545475Y-74463748D02*
X55593094Y-74416129D01*
X55593094Y-74416129D02*
X55640713Y-74320891D01*
X51771665Y-86392320D02*
X51771665Y-87106605D01*
X51771665Y-87106605D02*
X51724046Y-87249462D01*
X51724046Y-87249462D02*
X51628808Y-87344701D01*
X51628808Y-87344701D02*
X51485951Y-87392320D01*
X51485951Y-87392320D02*
X51390713Y-87392320D01*
X52247856Y-87392320D02*
X52247856Y-86392320D01*
X52247856Y-86392320D02*
X52628808Y-86392320D01*
X52628808Y-86392320D02*
X52724046Y-86439939D01*
X52724046Y-86439939D02*
X52771665Y-86487558D01*
X52771665Y-86487558D02*
X52819284Y-86582796D01*
X52819284Y-86582796D02*
X52819284Y-86725653D01*
X52819284Y-86725653D02*
X52771665Y-86820891D01*
X52771665Y-86820891D02*
X52724046Y-86868510D01*
X52724046Y-86868510D02*
X52628808Y-86916129D01*
X52628808Y-86916129D02*
X52247856Y-86916129D01*
X53152618Y-86392320D02*
X53819284Y-86392320D01*
X53819284Y-86392320D02*
X53390713Y-87392320D01*
X85857142Y-77019580D02*
X85809523Y-77067200D01*
X85809523Y-77067200D02*
X85666666Y-77114819D01*
X85666666Y-77114819D02*
X85571428Y-77114819D01*
X85571428Y-77114819D02*
X85428571Y-77067200D01*
X85428571Y-77067200D02*
X85333333Y-76971961D01*
X85333333Y-76971961D02*
X85285714Y-76876723D01*
X85285714Y-76876723D02*
X85238095Y-76686247D01*
X85238095Y-76686247D02*
X85238095Y-76543390D01*
X85238095Y-76543390D02*
X85285714Y-76352914D01*
X85285714Y-76352914D02*
X85333333Y-76257676D01*
X85333333Y-76257676D02*
X85428571Y-76162438D01*
X85428571Y-76162438D02*
X85571428Y-76114819D01*
X85571428Y-76114819D02*
X85666666Y-76114819D01*
X85666666Y-76114819D02*
X85809523Y-76162438D01*
X85809523Y-76162438D02*
X85857142Y-76210057D01*
X86190476Y-76114819D02*
X86809523Y-76114819D01*
X86809523Y-76114819D02*
X86476190Y-76495771D01*
X86476190Y-76495771D02*
X86619047Y-76495771D01*
X86619047Y-76495771D02*
X86714285Y-76543390D01*
X86714285Y-76543390D02*
X86761904Y-76591009D01*
X86761904Y-76591009D02*
X86809523Y-76686247D01*
X86809523Y-76686247D02*
X86809523Y-76924342D01*
X86809523Y-76924342D02*
X86761904Y-77019580D01*
X86761904Y-77019580D02*
X86714285Y-77067200D01*
X86714285Y-77067200D02*
X86619047Y-77114819D01*
X86619047Y-77114819D02*
X86333333Y-77114819D01*
X86333333Y-77114819D02*
X86238095Y-77067200D01*
X86238095Y-77067200D02*
X86190476Y-77019580D01*
X87761904Y-77114819D02*
X87190476Y-77114819D01*
X87476190Y-77114819D02*
X87476190Y-76114819D01*
X87476190Y-76114819D02*
X87380952Y-76257676D01*
X87380952Y-76257676D02*
X87285714Y-76352914D01*
X87285714Y-76352914D02*
X87190476Y-76400533D01*
X60359580Y-97525358D02*
X60407200Y-97572977D01*
X60407200Y-97572977D02*
X60454819Y-97715834D01*
X60454819Y-97715834D02*
X60454819Y-97811072D01*
X60454819Y-97811072D02*
X60407200Y-97953929D01*
X60407200Y-97953929D02*
X60311961Y-98049167D01*
X60311961Y-98049167D02*
X60216723Y-98096786D01*
X60216723Y-98096786D02*
X60026247Y-98144405D01*
X60026247Y-98144405D02*
X59883390Y-98144405D01*
X59883390Y-98144405D02*
X59692914Y-98096786D01*
X59692914Y-98096786D02*
X59597676Y-98049167D01*
X59597676Y-98049167D02*
X59502438Y-97953929D01*
X59502438Y-97953929D02*
X59454819Y-97811072D01*
X59454819Y-97811072D02*
X59454819Y-97715834D01*
X59454819Y-97715834D02*
X59502438Y-97572977D01*
X59502438Y-97572977D02*
X59550057Y-97525358D01*
X59550057Y-97144405D02*
X59502438Y-97096786D01*
X59502438Y-97096786D02*
X59454819Y-97001548D01*
X59454819Y-97001548D02*
X59454819Y-96763453D01*
X59454819Y-96763453D02*
X59502438Y-96668215D01*
X59502438Y-96668215D02*
X59550057Y-96620596D01*
X59550057Y-96620596D02*
X59645295Y-96572977D01*
X59645295Y-96572977D02*
X59740533Y-96572977D01*
X59740533Y-96572977D02*
X59883390Y-96620596D01*
X59883390Y-96620596D02*
X60454819Y-97192024D01*
X60454819Y-97192024D02*
X60454819Y-96572977D01*
X59550057Y-96192024D02*
X59502438Y-96144405D01*
X59502438Y-96144405D02*
X59454819Y-96049167D01*
X59454819Y-96049167D02*
X59454819Y-95811072D01*
X59454819Y-95811072D02*
X59502438Y-95715834D01*
X59502438Y-95715834D02*
X59550057Y-95668215D01*
X59550057Y-95668215D02*
X59645295Y-95620596D01*
X59645295Y-95620596D02*
X59740533Y-95620596D01*
X59740533Y-95620596D02*
X59883390Y-95668215D01*
X59883390Y-95668215D02*
X60454819Y-96239643D01*
X60454819Y-96239643D02*
X60454819Y-95620596D01*
X36503335Y-50797081D02*
X36455716Y-50844701D01*
X36455716Y-50844701D02*
X36312859Y-50892320D01*
X36312859Y-50892320D02*
X36217621Y-50892320D01*
X36217621Y-50892320D02*
X36074764Y-50844701D01*
X36074764Y-50844701D02*
X35979526Y-50749462D01*
X35979526Y-50749462D02*
X35931907Y-50654224D01*
X35931907Y-50654224D02*
X35884288Y-50463748D01*
X35884288Y-50463748D02*
X35884288Y-50320891D01*
X35884288Y-50320891D02*
X35931907Y-50130415D01*
X35931907Y-50130415D02*
X35979526Y-50035177D01*
X35979526Y-50035177D02*
X36074764Y-49939939D01*
X36074764Y-49939939D02*
X36217621Y-49892320D01*
X36217621Y-49892320D02*
X36312859Y-49892320D01*
X36312859Y-49892320D02*
X36455716Y-49939939D01*
X36455716Y-49939939D02*
X36503335Y-49987558D01*
X37360478Y-50225653D02*
X37360478Y-50892320D01*
X37122383Y-49844701D02*
X36884288Y-50558986D01*
X36884288Y-50558986D02*
X37503335Y-50558986D01*
X45333333Y-52859580D02*
X45285714Y-52907200D01*
X45285714Y-52907200D02*
X45142857Y-52954819D01*
X45142857Y-52954819D02*
X45047619Y-52954819D01*
X45047619Y-52954819D02*
X44904762Y-52907200D01*
X44904762Y-52907200D02*
X44809524Y-52811961D01*
X44809524Y-52811961D02*
X44761905Y-52716723D01*
X44761905Y-52716723D02*
X44714286Y-52526247D01*
X44714286Y-52526247D02*
X44714286Y-52383390D01*
X44714286Y-52383390D02*
X44761905Y-52192914D01*
X44761905Y-52192914D02*
X44809524Y-52097676D01*
X44809524Y-52097676D02*
X44904762Y-52002438D01*
X44904762Y-52002438D02*
X45047619Y-51954819D01*
X45047619Y-51954819D02*
X45142857Y-51954819D01*
X45142857Y-51954819D02*
X45285714Y-52002438D01*
X45285714Y-52002438D02*
X45333333Y-52050057D01*
X46190476Y-51954819D02*
X46000000Y-51954819D01*
X46000000Y-51954819D02*
X45904762Y-52002438D01*
X45904762Y-52002438D02*
X45857143Y-52050057D01*
X45857143Y-52050057D02*
X45761905Y-52192914D01*
X45761905Y-52192914D02*
X45714286Y-52383390D01*
X45714286Y-52383390D02*
X45714286Y-52764342D01*
X45714286Y-52764342D02*
X45761905Y-52859580D01*
X45761905Y-52859580D02*
X45809524Y-52907200D01*
X45809524Y-52907200D02*
X45904762Y-52954819D01*
X45904762Y-52954819D02*
X46095238Y-52954819D01*
X46095238Y-52954819D02*
X46190476Y-52907200D01*
X46190476Y-52907200D02*
X46238095Y-52859580D01*
X46238095Y-52859580D02*
X46285714Y-52764342D01*
X46285714Y-52764342D02*
X46285714Y-52526247D01*
X46285714Y-52526247D02*
X46238095Y-52431009D01*
X46238095Y-52431009D02*
X46190476Y-52383390D01*
X46190476Y-52383390D02*
X46095238Y-52335771D01*
X46095238Y-52335771D02*
X45904762Y-52335771D01*
X45904762Y-52335771D02*
X45809524Y-52383390D01*
X45809524Y-52383390D02*
X45761905Y-52431009D01*
X45761905Y-52431009D02*
X45714286Y-52526247D01*
X99238095Y-115954819D02*
X99238095Y-114954819D01*
X99238095Y-115431009D02*
X99809523Y-115431009D01*
X99809523Y-115954819D02*
X99809523Y-114954819D01*
X100190476Y-114954819D02*
X100809523Y-114954819D01*
X100809523Y-114954819D02*
X100476190Y-115335771D01*
X100476190Y-115335771D02*
X100619047Y-115335771D01*
X100619047Y-115335771D02*
X100714285Y-115383390D01*
X100714285Y-115383390D02*
X100761904Y-115431009D01*
X100761904Y-115431009D02*
X100809523Y-115526247D01*
X100809523Y-115526247D02*
X100809523Y-115764342D01*
X100809523Y-115764342D02*
X100761904Y-115859580D01*
X100761904Y-115859580D02*
X100714285Y-115907200D01*
X100714285Y-115907200D02*
X100619047Y-115954819D01*
X100619047Y-115954819D02*
X100333333Y-115954819D01*
X100333333Y-115954819D02*
X100238095Y-115907200D01*
X100238095Y-115907200D02*
X100190476Y-115859580D01*
X79699580Y-72642857D02*
X79747200Y-72690476D01*
X79747200Y-72690476D02*
X79794819Y-72833333D01*
X79794819Y-72833333D02*
X79794819Y-72928571D01*
X79794819Y-72928571D02*
X79747200Y-73071428D01*
X79747200Y-73071428D02*
X79651961Y-73166666D01*
X79651961Y-73166666D02*
X79556723Y-73214285D01*
X79556723Y-73214285D02*
X79366247Y-73261904D01*
X79366247Y-73261904D02*
X79223390Y-73261904D01*
X79223390Y-73261904D02*
X79032914Y-73214285D01*
X79032914Y-73214285D02*
X78937676Y-73166666D01*
X78937676Y-73166666D02*
X78842438Y-73071428D01*
X78842438Y-73071428D02*
X78794819Y-72928571D01*
X78794819Y-72928571D02*
X78794819Y-72833333D01*
X78794819Y-72833333D02*
X78842438Y-72690476D01*
X78842438Y-72690476D02*
X78890057Y-72642857D01*
X78794819Y-72309523D02*
X78794819Y-71690476D01*
X78794819Y-71690476D02*
X79175771Y-72023809D01*
X79175771Y-72023809D02*
X79175771Y-71880952D01*
X79175771Y-71880952D02*
X79223390Y-71785714D01*
X79223390Y-71785714D02*
X79271009Y-71738095D01*
X79271009Y-71738095D02*
X79366247Y-71690476D01*
X79366247Y-71690476D02*
X79604342Y-71690476D01*
X79604342Y-71690476D02*
X79699580Y-71738095D01*
X79699580Y-71738095D02*
X79747200Y-71785714D01*
X79747200Y-71785714D02*
X79794819Y-71880952D01*
X79794819Y-71880952D02*
X79794819Y-72166666D01*
X79794819Y-72166666D02*
X79747200Y-72261904D01*
X79747200Y-72261904D02*
X79699580Y-72309523D01*
X78794819Y-71357142D02*
X78794819Y-70738095D01*
X78794819Y-70738095D02*
X79175771Y-71071428D01*
X79175771Y-71071428D02*
X79175771Y-70928571D01*
X79175771Y-70928571D02*
X79223390Y-70833333D01*
X79223390Y-70833333D02*
X79271009Y-70785714D01*
X79271009Y-70785714D02*
X79366247Y-70738095D01*
X79366247Y-70738095D02*
X79604342Y-70738095D01*
X79604342Y-70738095D02*
X79699580Y-70785714D01*
X79699580Y-70785714D02*
X79747200Y-70833333D01*
X79747200Y-70833333D02*
X79794819Y-70928571D01*
X79794819Y-70928571D02*
X79794819Y-71214285D01*
X79794819Y-71214285D02*
X79747200Y-71309523D01*
X79747200Y-71309523D02*
X79699580Y-71357142D01*
X47690652Y-60082353D02*
X47738272Y-60129972D01*
X47738272Y-60129972D02*
X47785891Y-60272829D01*
X47785891Y-60272829D02*
X47785891Y-60368067D01*
X47785891Y-60368067D02*
X47738272Y-60510924D01*
X47738272Y-60510924D02*
X47643033Y-60606162D01*
X47643033Y-60606162D02*
X47547795Y-60653781D01*
X47547795Y-60653781D02*
X47357319Y-60701400D01*
X47357319Y-60701400D02*
X47214462Y-60701400D01*
X47214462Y-60701400D02*
X47023986Y-60653781D01*
X47023986Y-60653781D02*
X46928748Y-60606162D01*
X46928748Y-60606162D02*
X46833510Y-60510924D01*
X46833510Y-60510924D02*
X46785891Y-60368067D01*
X46785891Y-60368067D02*
X46785891Y-60272829D01*
X46785891Y-60272829D02*
X46833510Y-60129972D01*
X46833510Y-60129972D02*
X46881129Y-60082353D01*
X47785891Y-59129972D02*
X47785891Y-59701400D01*
X47785891Y-59415686D02*
X46785891Y-59415686D01*
X46785891Y-59415686D02*
X46928748Y-59510924D01*
X46928748Y-59510924D02*
X47023986Y-59606162D01*
X47023986Y-59606162D02*
X47071605Y-59701400D01*
X47119224Y-58272829D02*
X47785891Y-58272829D01*
X46738272Y-58510924D02*
X47452557Y-58749019D01*
X47452557Y-58749019D02*
X47452557Y-58129972D01*
X43857142Y-69297081D02*
X43809523Y-69344701D01*
X43809523Y-69344701D02*
X43666666Y-69392320D01*
X43666666Y-69392320D02*
X43571428Y-69392320D01*
X43571428Y-69392320D02*
X43428571Y-69344701D01*
X43428571Y-69344701D02*
X43333333Y-69249462D01*
X43333333Y-69249462D02*
X43285714Y-69154224D01*
X43285714Y-69154224D02*
X43238095Y-68963748D01*
X43238095Y-68963748D02*
X43238095Y-68820891D01*
X43238095Y-68820891D02*
X43285714Y-68630415D01*
X43285714Y-68630415D02*
X43333333Y-68535177D01*
X43333333Y-68535177D02*
X43428571Y-68439939D01*
X43428571Y-68439939D02*
X43571428Y-68392320D01*
X43571428Y-68392320D02*
X43666666Y-68392320D01*
X43666666Y-68392320D02*
X43809523Y-68439939D01*
X43809523Y-68439939D02*
X43857142Y-68487558D01*
X44809523Y-69392320D02*
X44238095Y-69392320D01*
X44523809Y-69392320D02*
X44523809Y-68392320D01*
X44523809Y-68392320D02*
X44428571Y-68535177D01*
X44428571Y-68535177D02*
X44333333Y-68630415D01*
X44333333Y-68630415D02*
X44238095Y-68678034D01*
X45428571Y-68392320D02*
X45523809Y-68392320D01*
X45523809Y-68392320D02*
X45619047Y-68439939D01*
X45619047Y-68439939D02*
X45666666Y-68487558D01*
X45666666Y-68487558D02*
X45714285Y-68582796D01*
X45714285Y-68582796D02*
X45761904Y-68773272D01*
X45761904Y-68773272D02*
X45761904Y-69011367D01*
X45761904Y-69011367D02*
X45714285Y-69201843D01*
X45714285Y-69201843D02*
X45666666Y-69297081D01*
X45666666Y-69297081D02*
X45619047Y-69344701D01*
X45619047Y-69344701D02*
X45523809Y-69392320D01*
X45523809Y-69392320D02*
X45428571Y-69392320D01*
X45428571Y-69392320D02*
X45333333Y-69344701D01*
X45333333Y-69344701D02*
X45285714Y-69297081D01*
X45285714Y-69297081D02*
X45238095Y-69201843D01*
X45238095Y-69201843D02*
X45190476Y-69011367D01*
X45190476Y-69011367D02*
X45190476Y-68773272D01*
X45190476Y-68773272D02*
X45238095Y-68582796D01*
X45238095Y-68582796D02*
X45285714Y-68487558D01*
X45285714Y-68487558D02*
X45333333Y-68439939D01*
X45333333Y-68439939D02*
X45428571Y-68392320D01*
X49938332Y-59142320D02*
X49604999Y-58666129D01*
X49366904Y-59142320D02*
X49366904Y-58142320D01*
X49366904Y-58142320D02*
X49747856Y-58142320D01*
X49747856Y-58142320D02*
X49843094Y-58189939D01*
X49843094Y-58189939D02*
X49890713Y-58237558D01*
X49890713Y-58237558D02*
X49938332Y-58332796D01*
X49938332Y-58332796D02*
X49938332Y-58475653D01*
X49938332Y-58475653D02*
X49890713Y-58570891D01*
X49890713Y-58570891D02*
X49843094Y-58618510D01*
X49843094Y-58618510D02*
X49747856Y-58666129D01*
X49747856Y-58666129D02*
X49366904Y-58666129D01*
X50843094Y-58142320D02*
X50366904Y-58142320D01*
X50366904Y-58142320D02*
X50319285Y-58618510D01*
X50319285Y-58618510D02*
X50366904Y-58570891D01*
X50366904Y-58570891D02*
X50462142Y-58523272D01*
X50462142Y-58523272D02*
X50700237Y-58523272D01*
X50700237Y-58523272D02*
X50795475Y-58570891D01*
X50795475Y-58570891D02*
X50843094Y-58618510D01*
X50843094Y-58618510D02*
X50890713Y-58713748D01*
X50890713Y-58713748D02*
X50890713Y-58951843D01*
X50890713Y-58951843D02*
X50843094Y-59047081D01*
X50843094Y-59047081D02*
X50795475Y-59094701D01*
X50795475Y-59094701D02*
X50700237Y-59142320D01*
X50700237Y-59142320D02*
X50462142Y-59142320D01*
X50462142Y-59142320D02*
X50366904Y-59094701D01*
X50366904Y-59094701D02*
X50319285Y-59047081D01*
X74416666Y-60904819D02*
X74416666Y-61619104D01*
X74416666Y-61619104D02*
X74369047Y-61761961D01*
X74369047Y-61761961D02*
X74273809Y-61857200D01*
X74273809Y-61857200D02*
X74130952Y-61904819D01*
X74130952Y-61904819D02*
X74035714Y-61904819D01*
X74892857Y-61904819D02*
X74892857Y-60904819D01*
X74892857Y-60904819D02*
X75273809Y-60904819D01*
X75273809Y-60904819D02*
X75369047Y-60952438D01*
X75369047Y-60952438D02*
X75416666Y-61000057D01*
X75416666Y-61000057D02*
X75464285Y-61095295D01*
X75464285Y-61095295D02*
X75464285Y-61238152D01*
X75464285Y-61238152D02*
X75416666Y-61333390D01*
X75416666Y-61333390D02*
X75369047Y-61381009D01*
X75369047Y-61381009D02*
X75273809Y-61428628D01*
X75273809Y-61428628D02*
X74892857Y-61428628D01*
X75845238Y-61000057D02*
X75892857Y-60952438D01*
X75892857Y-60952438D02*
X75988095Y-60904819D01*
X75988095Y-60904819D02*
X76226190Y-60904819D01*
X76226190Y-60904819D02*
X76321428Y-60952438D01*
X76321428Y-60952438D02*
X76369047Y-61000057D01*
X76369047Y-61000057D02*
X76416666Y-61095295D01*
X76416666Y-61095295D02*
X76416666Y-61190533D01*
X76416666Y-61190533D02*
X76369047Y-61333390D01*
X76369047Y-61333390D02*
X75797619Y-61904819D01*
X75797619Y-61904819D02*
X76416666Y-61904819D01*
X46357142Y-86387081D02*
X46309523Y-86434701D01*
X46309523Y-86434701D02*
X46166666Y-86482320D01*
X46166666Y-86482320D02*
X46071428Y-86482320D01*
X46071428Y-86482320D02*
X45928571Y-86434701D01*
X45928571Y-86434701D02*
X45833333Y-86339462D01*
X45833333Y-86339462D02*
X45785714Y-86244224D01*
X45785714Y-86244224D02*
X45738095Y-86053748D01*
X45738095Y-86053748D02*
X45738095Y-85910891D01*
X45738095Y-85910891D02*
X45785714Y-85720415D01*
X45785714Y-85720415D02*
X45833333Y-85625177D01*
X45833333Y-85625177D02*
X45928571Y-85529939D01*
X45928571Y-85529939D02*
X46071428Y-85482320D01*
X46071428Y-85482320D02*
X46166666Y-85482320D01*
X46166666Y-85482320D02*
X46309523Y-85529939D01*
X46309523Y-85529939D02*
X46357142Y-85577558D01*
X46738095Y-85577558D02*
X46785714Y-85529939D01*
X46785714Y-85529939D02*
X46880952Y-85482320D01*
X46880952Y-85482320D02*
X47119047Y-85482320D01*
X47119047Y-85482320D02*
X47214285Y-85529939D01*
X47214285Y-85529939D02*
X47261904Y-85577558D01*
X47261904Y-85577558D02*
X47309523Y-85672796D01*
X47309523Y-85672796D02*
X47309523Y-85768034D01*
X47309523Y-85768034D02*
X47261904Y-85910891D01*
X47261904Y-85910891D02*
X46690476Y-86482320D01*
X46690476Y-86482320D02*
X47309523Y-86482320D01*
X47642857Y-85482320D02*
X48261904Y-85482320D01*
X48261904Y-85482320D02*
X47928571Y-85863272D01*
X47928571Y-85863272D02*
X48071428Y-85863272D01*
X48071428Y-85863272D02*
X48166666Y-85910891D01*
X48166666Y-85910891D02*
X48214285Y-85958510D01*
X48214285Y-85958510D02*
X48261904Y-86053748D01*
X48261904Y-86053748D02*
X48261904Y-86291843D01*
X48261904Y-86291843D02*
X48214285Y-86387081D01*
X48214285Y-86387081D02*
X48166666Y-86434701D01*
X48166666Y-86434701D02*
X48071428Y-86482320D01*
X48071428Y-86482320D02*
X47785714Y-86482320D01*
X47785714Y-86482320D02*
X47690476Y-86434701D01*
X47690476Y-86434701D02*
X47642857Y-86387081D01*
X49462141Y-89142320D02*
X49128808Y-88666129D01*
X48890713Y-89142320D02*
X48890713Y-88142320D01*
X48890713Y-88142320D02*
X49271665Y-88142320D01*
X49271665Y-88142320D02*
X49366903Y-88189939D01*
X49366903Y-88189939D02*
X49414522Y-88237558D01*
X49414522Y-88237558D02*
X49462141Y-88332796D01*
X49462141Y-88332796D02*
X49462141Y-88475653D01*
X49462141Y-88475653D02*
X49414522Y-88570891D01*
X49414522Y-88570891D02*
X49366903Y-88618510D01*
X49366903Y-88618510D02*
X49271665Y-88666129D01*
X49271665Y-88666129D02*
X48890713Y-88666129D01*
X50414522Y-89142320D02*
X49843094Y-89142320D01*
X50128808Y-89142320D02*
X50128808Y-88142320D01*
X50128808Y-88142320D02*
X50033570Y-88285177D01*
X50033570Y-88285177D02*
X49938332Y-88380415D01*
X49938332Y-88380415D02*
X49843094Y-88428034D01*
X51366903Y-89142320D02*
X50795475Y-89142320D01*
X51081189Y-89142320D02*
X51081189Y-88142320D01*
X51081189Y-88142320D02*
X50985951Y-88285177D01*
X50985951Y-88285177D02*
X50890713Y-88380415D01*
X50890713Y-88380415D02*
X50795475Y-88428034D01*
X36027144Y-95797081D02*
X35979525Y-95844701D01*
X35979525Y-95844701D02*
X35836668Y-95892320D01*
X35836668Y-95892320D02*
X35741430Y-95892320D01*
X35741430Y-95892320D02*
X35598573Y-95844701D01*
X35598573Y-95844701D02*
X35503335Y-95749462D01*
X35503335Y-95749462D02*
X35455716Y-95654224D01*
X35455716Y-95654224D02*
X35408097Y-95463748D01*
X35408097Y-95463748D02*
X35408097Y-95320891D01*
X35408097Y-95320891D02*
X35455716Y-95130415D01*
X35455716Y-95130415D02*
X35503335Y-95035177D01*
X35503335Y-95035177D02*
X35598573Y-94939939D01*
X35598573Y-94939939D02*
X35741430Y-94892320D01*
X35741430Y-94892320D02*
X35836668Y-94892320D01*
X35836668Y-94892320D02*
X35979525Y-94939939D01*
X35979525Y-94939939D02*
X36027144Y-94987558D01*
X36408097Y-94987558D02*
X36455716Y-94939939D01*
X36455716Y-94939939D02*
X36550954Y-94892320D01*
X36550954Y-94892320D02*
X36789049Y-94892320D01*
X36789049Y-94892320D02*
X36884287Y-94939939D01*
X36884287Y-94939939D02*
X36931906Y-94987558D01*
X36931906Y-94987558D02*
X36979525Y-95082796D01*
X36979525Y-95082796D02*
X36979525Y-95178034D01*
X36979525Y-95178034D02*
X36931906Y-95320891D01*
X36931906Y-95320891D02*
X36360478Y-95892320D01*
X36360478Y-95892320D02*
X36979525Y-95892320D01*
X37884287Y-94892320D02*
X37408097Y-94892320D01*
X37408097Y-94892320D02*
X37360478Y-95368510D01*
X37360478Y-95368510D02*
X37408097Y-95320891D01*
X37408097Y-95320891D02*
X37503335Y-95273272D01*
X37503335Y-95273272D02*
X37741430Y-95273272D01*
X37741430Y-95273272D02*
X37836668Y-95320891D01*
X37836668Y-95320891D02*
X37884287Y-95368510D01*
X37884287Y-95368510D02*
X37931906Y-95463748D01*
X37931906Y-95463748D02*
X37931906Y-95701843D01*
X37931906Y-95701843D02*
X37884287Y-95797081D01*
X37884287Y-95797081D02*
X37836668Y-95844701D01*
X37836668Y-95844701D02*
X37741430Y-95892320D01*
X37741430Y-95892320D02*
X37503335Y-95892320D01*
X37503335Y-95892320D02*
X37408097Y-95844701D01*
X37408097Y-95844701D02*
X37360478Y-95797081D01*
X40727144Y-84297081D02*
X40679525Y-84344701D01*
X40679525Y-84344701D02*
X40536668Y-84392320D01*
X40536668Y-84392320D02*
X40441430Y-84392320D01*
X40441430Y-84392320D02*
X40298573Y-84344701D01*
X40298573Y-84344701D02*
X40203335Y-84249462D01*
X40203335Y-84249462D02*
X40155716Y-84154224D01*
X40155716Y-84154224D02*
X40108097Y-83963748D01*
X40108097Y-83963748D02*
X40108097Y-83820891D01*
X40108097Y-83820891D02*
X40155716Y-83630415D01*
X40155716Y-83630415D02*
X40203335Y-83535177D01*
X40203335Y-83535177D02*
X40298573Y-83439939D01*
X40298573Y-83439939D02*
X40441430Y-83392320D01*
X40441430Y-83392320D02*
X40536668Y-83392320D01*
X40536668Y-83392320D02*
X40679525Y-83439939D01*
X40679525Y-83439939D02*
X40727144Y-83487558D01*
X41679525Y-84392320D02*
X41108097Y-84392320D01*
X41393811Y-84392320D02*
X41393811Y-83392320D01*
X41393811Y-83392320D02*
X41298573Y-83535177D01*
X41298573Y-83535177D02*
X41203335Y-83630415D01*
X41203335Y-83630415D02*
X41108097Y-83678034D01*
X42155716Y-84392320D02*
X42346192Y-84392320D01*
X42346192Y-84392320D02*
X42441430Y-84344701D01*
X42441430Y-84344701D02*
X42489049Y-84297081D01*
X42489049Y-84297081D02*
X42584287Y-84154224D01*
X42584287Y-84154224D02*
X42631906Y-83963748D01*
X42631906Y-83963748D02*
X42631906Y-83582796D01*
X42631906Y-83582796D02*
X42584287Y-83487558D01*
X42584287Y-83487558D02*
X42536668Y-83439939D01*
X42536668Y-83439939D02*
X42441430Y-83392320D01*
X42441430Y-83392320D02*
X42250954Y-83392320D01*
X42250954Y-83392320D02*
X42155716Y-83439939D01*
X42155716Y-83439939D02*
X42108097Y-83487558D01*
X42108097Y-83487558D02*
X42060478Y-83582796D01*
X42060478Y-83582796D02*
X42060478Y-83820891D01*
X42060478Y-83820891D02*
X42108097Y-83916129D01*
X42108097Y-83916129D02*
X42155716Y-83963748D01*
X42155716Y-83963748D02*
X42250954Y-84011367D01*
X42250954Y-84011367D02*
X42441430Y-84011367D01*
X42441430Y-84011367D02*
X42536668Y-83963748D01*
X42536668Y-83963748D02*
X42584287Y-83916129D01*
X42584287Y-83916129D02*
X42631906Y-83820891D01*
X58074818Y-50394405D02*
X58884341Y-50394405D01*
X58884341Y-50394405D02*
X58979579Y-50346786D01*
X58979579Y-50346786D02*
X59027199Y-50299167D01*
X59027199Y-50299167D02*
X59074818Y-50203929D01*
X59074818Y-50203929D02*
X59074818Y-50013453D01*
X59074818Y-50013453D02*
X59027199Y-49918215D01*
X59027199Y-49918215D02*
X58979579Y-49870596D01*
X58979579Y-49870596D02*
X58884341Y-49822977D01*
X58884341Y-49822977D02*
X58074818Y-49822977D01*
X58074818Y-49442024D02*
X58074818Y-48822977D01*
X58074818Y-48822977D02*
X58455770Y-49156310D01*
X58455770Y-49156310D02*
X58455770Y-49013453D01*
X58455770Y-49013453D02*
X58503389Y-48918215D01*
X58503389Y-48918215D02*
X58551008Y-48870596D01*
X58551008Y-48870596D02*
X58646246Y-48822977D01*
X58646246Y-48822977D02*
X58884341Y-48822977D01*
X58884341Y-48822977D02*
X58979579Y-48870596D01*
X58979579Y-48870596D02*
X59027199Y-48918215D01*
X59027199Y-48918215D02*
X59074818Y-49013453D01*
X59074818Y-49013453D02*
X59074818Y-49299167D01*
X59074818Y-49299167D02*
X59027199Y-49394405D01*
X59027199Y-49394405D02*
X58979579Y-49442024D01*
X58074818Y-80394405D02*
X58884341Y-80394405D01*
X58884341Y-80394405D02*
X58979579Y-80346786D01*
X58979579Y-80346786D02*
X59027199Y-80299167D01*
X59027199Y-80299167D02*
X59074818Y-80203929D01*
X59074818Y-80203929D02*
X59074818Y-80013453D01*
X59074818Y-80013453D02*
X59027199Y-79918215D01*
X59027199Y-79918215D02*
X58979579Y-79870596D01*
X58979579Y-79870596D02*
X58884341Y-79822977D01*
X58884341Y-79822977D02*
X58074818Y-79822977D01*
X58074818Y-79442024D02*
X58074818Y-78775358D01*
X58074818Y-78775358D02*
X59074818Y-79203929D01*
X99238095Y-25154819D02*
X99238095Y-24154819D01*
X99238095Y-24631009D02*
X99809523Y-24631009D01*
X99809523Y-25154819D02*
X99809523Y-24154819D01*
X100238095Y-24250057D02*
X100285714Y-24202438D01*
X100285714Y-24202438D02*
X100380952Y-24154819D01*
X100380952Y-24154819D02*
X100619047Y-24154819D01*
X100619047Y-24154819D02*
X100714285Y-24202438D01*
X100714285Y-24202438D02*
X100761904Y-24250057D01*
X100761904Y-24250057D02*
X100809523Y-24345295D01*
X100809523Y-24345295D02*
X100809523Y-24440533D01*
X100809523Y-24440533D02*
X100761904Y-24583390D01*
X100761904Y-24583390D02*
X100190476Y-25154819D01*
X100190476Y-25154819D02*
X100809523Y-25154819D01*
X49938332Y-74142320D02*
X49604999Y-73666129D01*
X49366904Y-74142320D02*
X49366904Y-73142320D01*
X49366904Y-73142320D02*
X49747856Y-73142320D01*
X49747856Y-73142320D02*
X49843094Y-73189939D01*
X49843094Y-73189939D02*
X49890713Y-73237558D01*
X49890713Y-73237558D02*
X49938332Y-73332796D01*
X49938332Y-73332796D02*
X49938332Y-73475653D01*
X49938332Y-73475653D02*
X49890713Y-73570891D01*
X49890713Y-73570891D02*
X49843094Y-73618510D01*
X49843094Y-73618510D02*
X49747856Y-73666129D01*
X49747856Y-73666129D02*
X49366904Y-73666129D01*
X50509761Y-73570891D02*
X50414523Y-73523272D01*
X50414523Y-73523272D02*
X50366904Y-73475653D01*
X50366904Y-73475653D02*
X50319285Y-73380415D01*
X50319285Y-73380415D02*
X50319285Y-73332796D01*
X50319285Y-73332796D02*
X50366904Y-73237558D01*
X50366904Y-73237558D02*
X50414523Y-73189939D01*
X50414523Y-73189939D02*
X50509761Y-73142320D01*
X50509761Y-73142320D02*
X50700237Y-73142320D01*
X50700237Y-73142320D02*
X50795475Y-73189939D01*
X50795475Y-73189939D02*
X50843094Y-73237558D01*
X50843094Y-73237558D02*
X50890713Y-73332796D01*
X50890713Y-73332796D02*
X50890713Y-73380415D01*
X50890713Y-73380415D02*
X50843094Y-73475653D01*
X50843094Y-73475653D02*
X50795475Y-73523272D01*
X50795475Y-73523272D02*
X50700237Y-73570891D01*
X50700237Y-73570891D02*
X50509761Y-73570891D01*
X50509761Y-73570891D02*
X50414523Y-73618510D01*
X50414523Y-73618510D02*
X50366904Y-73666129D01*
X50366904Y-73666129D02*
X50319285Y-73761367D01*
X50319285Y-73761367D02*
X50319285Y-73951843D01*
X50319285Y-73951843D02*
X50366904Y-74047081D01*
X50366904Y-74047081D02*
X50414523Y-74094701D01*
X50414523Y-74094701D02*
X50509761Y-74142320D01*
X50509761Y-74142320D02*
X50700237Y-74142320D01*
X50700237Y-74142320D02*
X50795475Y-74094701D01*
X50795475Y-74094701D02*
X50843094Y-74047081D01*
X50843094Y-74047081D02*
X50890713Y-73951843D01*
X50890713Y-73951843D02*
X50890713Y-73761367D01*
X50890713Y-73761367D02*
X50843094Y-73666129D01*
X50843094Y-73666129D02*
X50795475Y-73618510D01*
X50795475Y-73618510D02*
X50700237Y-73570891D01*
X45357142Y-97859580D02*
X45309523Y-97907200D01*
X45309523Y-97907200D02*
X45166666Y-97954819D01*
X45166666Y-97954819D02*
X45071428Y-97954819D01*
X45071428Y-97954819D02*
X44928571Y-97907200D01*
X44928571Y-97907200D02*
X44833333Y-97811961D01*
X44833333Y-97811961D02*
X44785714Y-97716723D01*
X44785714Y-97716723D02*
X44738095Y-97526247D01*
X44738095Y-97526247D02*
X44738095Y-97383390D01*
X44738095Y-97383390D02*
X44785714Y-97192914D01*
X44785714Y-97192914D02*
X44833333Y-97097676D01*
X44833333Y-97097676D02*
X44928571Y-97002438D01*
X44928571Y-97002438D02*
X45071428Y-96954819D01*
X45071428Y-96954819D02*
X45166666Y-96954819D01*
X45166666Y-96954819D02*
X45309523Y-97002438D01*
X45309523Y-97002438D02*
X45357142Y-97050057D01*
X45738095Y-97050057D02*
X45785714Y-97002438D01*
X45785714Y-97002438D02*
X45880952Y-96954819D01*
X45880952Y-96954819D02*
X46119047Y-96954819D01*
X46119047Y-96954819D02*
X46214285Y-97002438D01*
X46214285Y-97002438D02*
X46261904Y-97050057D01*
X46261904Y-97050057D02*
X46309523Y-97145295D01*
X46309523Y-97145295D02*
X46309523Y-97240533D01*
X46309523Y-97240533D02*
X46261904Y-97383390D01*
X46261904Y-97383390D02*
X45690476Y-97954819D01*
X45690476Y-97954819D02*
X46309523Y-97954819D01*
X46642857Y-96954819D02*
X47309523Y-96954819D01*
X47309523Y-96954819D02*
X46880952Y-97954819D01*
X60359580Y-67049167D02*
X60407200Y-67096786D01*
X60407200Y-67096786D02*
X60454819Y-67239643D01*
X60454819Y-67239643D02*
X60454819Y-67334881D01*
X60454819Y-67334881D02*
X60407200Y-67477738D01*
X60407200Y-67477738D02*
X60311961Y-67572976D01*
X60311961Y-67572976D02*
X60216723Y-67620595D01*
X60216723Y-67620595D02*
X60026247Y-67668214D01*
X60026247Y-67668214D02*
X59883390Y-67668214D01*
X59883390Y-67668214D02*
X59692914Y-67620595D01*
X59692914Y-67620595D02*
X59597676Y-67572976D01*
X59597676Y-67572976D02*
X59502438Y-67477738D01*
X59502438Y-67477738D02*
X59454819Y-67334881D01*
X59454819Y-67334881D02*
X59454819Y-67239643D01*
X59454819Y-67239643D02*
X59502438Y-67096786D01*
X59502438Y-67096786D02*
X59550057Y-67049167D01*
X59883390Y-66477738D02*
X59835771Y-66572976D01*
X59835771Y-66572976D02*
X59788152Y-66620595D01*
X59788152Y-66620595D02*
X59692914Y-66668214D01*
X59692914Y-66668214D02*
X59645295Y-66668214D01*
X59645295Y-66668214D02*
X59550057Y-66620595D01*
X59550057Y-66620595D02*
X59502438Y-66572976D01*
X59502438Y-66572976D02*
X59454819Y-66477738D01*
X59454819Y-66477738D02*
X59454819Y-66287262D01*
X59454819Y-66287262D02*
X59502438Y-66192024D01*
X59502438Y-66192024D02*
X59550057Y-66144405D01*
X59550057Y-66144405D02*
X59645295Y-66096786D01*
X59645295Y-66096786D02*
X59692914Y-66096786D01*
X59692914Y-66096786D02*
X59788152Y-66144405D01*
X59788152Y-66144405D02*
X59835771Y-66192024D01*
X59835771Y-66192024D02*
X59883390Y-66287262D01*
X59883390Y-66287262D02*
X59883390Y-66477738D01*
X59883390Y-66477738D02*
X59931009Y-66572976D01*
X59931009Y-66572976D02*
X59978628Y-66620595D01*
X59978628Y-66620595D02*
X60073866Y-66668214D01*
X60073866Y-66668214D02*
X60264342Y-66668214D01*
X60264342Y-66668214D02*
X60359580Y-66620595D01*
X60359580Y-66620595D02*
X60407200Y-66572976D01*
X60407200Y-66572976D02*
X60454819Y-66477738D01*
X60454819Y-66477738D02*
X60454819Y-66287262D01*
X60454819Y-66287262D02*
X60407200Y-66192024D01*
X60407200Y-66192024D02*
X60359580Y-66144405D01*
X60359580Y-66144405D02*
X60264342Y-66096786D01*
X60264342Y-66096786D02*
X60073866Y-66096786D01*
X60073866Y-66096786D02*
X59978628Y-66144405D01*
X59978628Y-66144405D02*
X59931009Y-66192024D01*
X59931009Y-66192024D02*
X59883390Y-66287262D01*
X83761905Y-68054819D02*
X83761905Y-68864342D01*
X83761905Y-68864342D02*
X83809524Y-68959580D01*
X83809524Y-68959580D02*
X83857143Y-69007200D01*
X83857143Y-69007200D02*
X83952381Y-69054819D01*
X83952381Y-69054819D02*
X84142857Y-69054819D01*
X84142857Y-69054819D02*
X84238095Y-69007200D01*
X84238095Y-69007200D02*
X84285714Y-68959580D01*
X84285714Y-68959580D02*
X84333333Y-68864342D01*
X84333333Y-68864342D02*
X84333333Y-68054819D01*
X85333333Y-69054819D02*
X84761905Y-69054819D01*
X85047619Y-69054819D02*
X85047619Y-68054819D01*
X85047619Y-68054819D02*
X84952381Y-68197676D01*
X84952381Y-68197676D02*
X84857143Y-68292914D01*
X84857143Y-68292914D02*
X84761905Y-68340533D01*
X85714286Y-68150057D02*
X85761905Y-68102438D01*
X85761905Y-68102438D02*
X85857143Y-68054819D01*
X85857143Y-68054819D02*
X86095238Y-68054819D01*
X86095238Y-68054819D02*
X86190476Y-68102438D01*
X86190476Y-68102438D02*
X86238095Y-68150057D01*
X86238095Y-68150057D02*
X86285714Y-68245295D01*
X86285714Y-68245295D02*
X86285714Y-68340533D01*
X86285714Y-68340533D02*
X86238095Y-68483390D01*
X86238095Y-68483390D02*
X85666667Y-69054819D01*
X85666667Y-69054819D02*
X86285714Y-69054819D01*
X43857142Y-84297081D02*
X43809523Y-84344701D01*
X43809523Y-84344701D02*
X43666666Y-84392320D01*
X43666666Y-84392320D02*
X43571428Y-84392320D01*
X43571428Y-84392320D02*
X43428571Y-84344701D01*
X43428571Y-84344701D02*
X43333333Y-84249462D01*
X43333333Y-84249462D02*
X43285714Y-84154224D01*
X43285714Y-84154224D02*
X43238095Y-83963748D01*
X43238095Y-83963748D02*
X43238095Y-83820891D01*
X43238095Y-83820891D02*
X43285714Y-83630415D01*
X43285714Y-83630415D02*
X43333333Y-83535177D01*
X43333333Y-83535177D02*
X43428571Y-83439939D01*
X43428571Y-83439939D02*
X43571428Y-83392320D01*
X43571428Y-83392320D02*
X43666666Y-83392320D01*
X43666666Y-83392320D02*
X43809523Y-83439939D01*
X43809523Y-83439939D02*
X43857142Y-83487558D01*
X44809523Y-84392320D02*
X44238095Y-84392320D01*
X44523809Y-84392320D02*
X44523809Y-83392320D01*
X44523809Y-83392320D02*
X44428571Y-83535177D01*
X44428571Y-83535177D02*
X44333333Y-83630415D01*
X44333333Y-83630415D02*
X44238095Y-83678034D01*
X45142857Y-83392320D02*
X45809523Y-83392320D01*
X45809523Y-83392320D02*
X45380952Y-84392320D01*
X49938332Y-44142320D02*
X49604999Y-43666129D01*
X49366904Y-44142320D02*
X49366904Y-43142320D01*
X49366904Y-43142320D02*
X49747856Y-43142320D01*
X49747856Y-43142320D02*
X49843094Y-43189939D01*
X49843094Y-43189939D02*
X49890713Y-43237558D01*
X49890713Y-43237558D02*
X49938332Y-43332796D01*
X49938332Y-43332796D02*
X49938332Y-43475653D01*
X49938332Y-43475653D02*
X49890713Y-43570891D01*
X49890713Y-43570891D02*
X49843094Y-43618510D01*
X49843094Y-43618510D02*
X49747856Y-43666129D01*
X49747856Y-43666129D02*
X49366904Y-43666129D01*
X50319285Y-43237558D02*
X50366904Y-43189939D01*
X50366904Y-43189939D02*
X50462142Y-43142320D01*
X50462142Y-43142320D02*
X50700237Y-43142320D01*
X50700237Y-43142320D02*
X50795475Y-43189939D01*
X50795475Y-43189939D02*
X50843094Y-43237558D01*
X50843094Y-43237558D02*
X50890713Y-43332796D01*
X50890713Y-43332796D02*
X50890713Y-43428034D01*
X50890713Y-43428034D02*
X50843094Y-43570891D01*
X50843094Y-43570891D02*
X50271666Y-44142320D01*
X50271666Y-44142320D02*
X50890713Y-44142320D01*
X54688332Y-44892320D02*
X54354999Y-44416129D01*
X54116904Y-44892320D02*
X54116904Y-43892320D01*
X54116904Y-43892320D02*
X54497856Y-43892320D01*
X54497856Y-43892320D02*
X54593094Y-43939939D01*
X54593094Y-43939939D02*
X54640713Y-43987558D01*
X54640713Y-43987558D02*
X54688332Y-44082796D01*
X54688332Y-44082796D02*
X54688332Y-44225653D01*
X54688332Y-44225653D02*
X54640713Y-44320891D01*
X54640713Y-44320891D02*
X54593094Y-44368510D01*
X54593094Y-44368510D02*
X54497856Y-44416129D01*
X54497856Y-44416129D02*
X54116904Y-44416129D01*
X55021666Y-43892320D02*
X55640713Y-43892320D01*
X55640713Y-43892320D02*
X55307380Y-44273272D01*
X55307380Y-44273272D02*
X55450237Y-44273272D01*
X55450237Y-44273272D02*
X55545475Y-44320891D01*
X55545475Y-44320891D02*
X55593094Y-44368510D01*
X55593094Y-44368510D02*
X55640713Y-44463748D01*
X55640713Y-44463748D02*
X55640713Y-44701843D01*
X55640713Y-44701843D02*
X55593094Y-44797081D01*
X55593094Y-44797081D02*
X55545475Y-44844701D01*
X55545475Y-44844701D02*
X55450237Y-44892320D01*
X55450237Y-44892320D02*
X55164523Y-44892320D01*
X55164523Y-44892320D02*
X55069285Y-44844701D01*
X55069285Y-44844701D02*
X55021666Y-44797081D01*
X40727144Y-69297081D02*
X40679525Y-69344701D01*
X40679525Y-69344701D02*
X40536668Y-69392320D01*
X40536668Y-69392320D02*
X40441430Y-69392320D01*
X40441430Y-69392320D02*
X40298573Y-69344701D01*
X40298573Y-69344701D02*
X40203335Y-69249462D01*
X40203335Y-69249462D02*
X40155716Y-69154224D01*
X40155716Y-69154224D02*
X40108097Y-68963748D01*
X40108097Y-68963748D02*
X40108097Y-68820891D01*
X40108097Y-68820891D02*
X40155716Y-68630415D01*
X40155716Y-68630415D02*
X40203335Y-68535177D01*
X40203335Y-68535177D02*
X40298573Y-68439939D01*
X40298573Y-68439939D02*
X40441430Y-68392320D01*
X40441430Y-68392320D02*
X40536668Y-68392320D01*
X40536668Y-68392320D02*
X40679525Y-68439939D01*
X40679525Y-68439939D02*
X40727144Y-68487558D01*
X41679525Y-69392320D02*
X41108097Y-69392320D01*
X41393811Y-69392320D02*
X41393811Y-68392320D01*
X41393811Y-68392320D02*
X41298573Y-68535177D01*
X41298573Y-68535177D02*
X41203335Y-68630415D01*
X41203335Y-68630415D02*
X41108097Y-68678034D01*
X42060478Y-68487558D02*
X42108097Y-68439939D01*
X42108097Y-68439939D02*
X42203335Y-68392320D01*
X42203335Y-68392320D02*
X42441430Y-68392320D01*
X42441430Y-68392320D02*
X42536668Y-68439939D01*
X42536668Y-68439939D02*
X42584287Y-68487558D01*
X42584287Y-68487558D02*
X42631906Y-68582796D01*
X42631906Y-68582796D02*
X42631906Y-68678034D01*
X42631906Y-68678034D02*
X42584287Y-68820891D01*
X42584287Y-68820891D02*
X42012859Y-69392320D01*
X42012859Y-69392320D02*
X42631906Y-69392320D01*
X41203335Y-54297081D02*
X41155716Y-54344701D01*
X41155716Y-54344701D02*
X41012859Y-54392320D01*
X41012859Y-54392320D02*
X40917621Y-54392320D01*
X40917621Y-54392320D02*
X40774764Y-54344701D01*
X40774764Y-54344701D02*
X40679526Y-54249462D01*
X40679526Y-54249462D02*
X40631907Y-54154224D01*
X40631907Y-54154224D02*
X40584288Y-53963748D01*
X40584288Y-53963748D02*
X40584288Y-53820891D01*
X40584288Y-53820891D02*
X40631907Y-53630415D01*
X40631907Y-53630415D02*
X40679526Y-53535177D01*
X40679526Y-53535177D02*
X40774764Y-53439939D01*
X40774764Y-53439939D02*
X40917621Y-53392320D01*
X40917621Y-53392320D02*
X41012859Y-53392320D01*
X41012859Y-53392320D02*
X41155716Y-53439939D01*
X41155716Y-53439939D02*
X41203335Y-53487558D01*
X42108097Y-53392320D02*
X41631907Y-53392320D01*
X41631907Y-53392320D02*
X41584288Y-53868510D01*
X41584288Y-53868510D02*
X41631907Y-53820891D01*
X41631907Y-53820891D02*
X41727145Y-53773272D01*
X41727145Y-53773272D02*
X41965240Y-53773272D01*
X41965240Y-53773272D02*
X42060478Y-53820891D01*
X42060478Y-53820891D02*
X42108097Y-53868510D01*
X42108097Y-53868510D02*
X42155716Y-53963748D01*
X42155716Y-53963748D02*
X42155716Y-54201843D01*
X42155716Y-54201843D02*
X42108097Y-54297081D01*
X42108097Y-54297081D02*
X42060478Y-54344701D01*
X42060478Y-54344701D02*
X41965240Y-54392320D01*
X41965240Y-54392320D02*
X41727145Y-54392320D01*
X41727145Y-54392320D02*
X41631907Y-54344701D01*
X41631907Y-54344701D02*
X41584288Y-54297081D01*
X45503335Y-41387081D02*
X45455716Y-41434701D01*
X45455716Y-41434701D02*
X45312859Y-41482320D01*
X45312859Y-41482320D02*
X45217621Y-41482320D01*
X45217621Y-41482320D02*
X45074764Y-41434701D01*
X45074764Y-41434701D02*
X44979526Y-41339462D01*
X44979526Y-41339462D02*
X44931907Y-41244224D01*
X44931907Y-41244224D02*
X44884288Y-41053748D01*
X44884288Y-41053748D02*
X44884288Y-40910891D01*
X44884288Y-40910891D02*
X44931907Y-40720415D01*
X44931907Y-40720415D02*
X44979526Y-40625177D01*
X44979526Y-40625177D02*
X45074764Y-40529939D01*
X45074764Y-40529939D02*
X45217621Y-40482320D01*
X45217621Y-40482320D02*
X45312859Y-40482320D01*
X45312859Y-40482320D02*
X45455716Y-40529939D01*
X45455716Y-40529939D02*
X45503335Y-40577558D01*
X45884288Y-40577558D02*
X45931907Y-40529939D01*
X45931907Y-40529939D02*
X46027145Y-40482320D01*
X46027145Y-40482320D02*
X46265240Y-40482320D01*
X46265240Y-40482320D02*
X46360478Y-40529939D01*
X46360478Y-40529939D02*
X46408097Y-40577558D01*
X46408097Y-40577558D02*
X46455716Y-40672796D01*
X46455716Y-40672796D02*
X46455716Y-40768034D01*
X46455716Y-40768034D02*
X46408097Y-40910891D01*
X46408097Y-40910891D02*
X45836669Y-41482320D01*
X45836669Y-41482320D02*
X46455716Y-41482320D01*
X60359580Y-52049167D02*
X60407200Y-52096786D01*
X60407200Y-52096786D02*
X60454819Y-52239643D01*
X60454819Y-52239643D02*
X60454819Y-52334881D01*
X60454819Y-52334881D02*
X60407200Y-52477738D01*
X60407200Y-52477738D02*
X60311961Y-52572976D01*
X60311961Y-52572976D02*
X60216723Y-52620595D01*
X60216723Y-52620595D02*
X60026247Y-52668214D01*
X60026247Y-52668214D02*
X59883390Y-52668214D01*
X59883390Y-52668214D02*
X59692914Y-52620595D01*
X59692914Y-52620595D02*
X59597676Y-52572976D01*
X59597676Y-52572976D02*
X59502438Y-52477738D01*
X59502438Y-52477738D02*
X59454819Y-52334881D01*
X59454819Y-52334881D02*
X59454819Y-52239643D01*
X59454819Y-52239643D02*
X59502438Y-52096786D01*
X59502438Y-52096786D02*
X59550057Y-52049167D01*
X60454819Y-51096786D02*
X60454819Y-51668214D01*
X60454819Y-51382500D02*
X59454819Y-51382500D01*
X59454819Y-51382500D02*
X59597676Y-51477738D01*
X59597676Y-51477738D02*
X59692914Y-51572976D01*
X59692914Y-51572976D02*
X59740533Y-51668214D01*
X20454819Y-70333333D02*
X21169104Y-70333333D01*
X21169104Y-70333333D02*
X21311961Y-70380952D01*
X21311961Y-70380952D02*
X21407200Y-70476190D01*
X21407200Y-70476190D02*
X21454819Y-70619047D01*
X21454819Y-70619047D02*
X21454819Y-70714285D01*
X20454819Y-69952380D02*
X20454819Y-69333333D01*
X20454819Y-69333333D02*
X20835771Y-69666666D01*
X20835771Y-69666666D02*
X20835771Y-69523809D01*
X20835771Y-69523809D02*
X20883390Y-69428571D01*
X20883390Y-69428571D02*
X20931009Y-69380952D01*
X20931009Y-69380952D02*
X21026247Y-69333333D01*
X21026247Y-69333333D02*
X21264342Y-69333333D01*
X21264342Y-69333333D02*
X21359580Y-69380952D01*
X21359580Y-69380952D02*
X21407200Y-69428571D01*
X21407200Y-69428571D02*
X21454819Y-69523809D01*
X21454819Y-69523809D02*
X21454819Y-69809523D01*
X21454819Y-69809523D02*
X21407200Y-69904761D01*
X21407200Y-69904761D02*
X21359580Y-69952380D01*
X87360224Y-94863163D02*
X88075055Y-94863163D01*
X88075055Y-94863163D02*
X88218022Y-94910818D01*
X88218022Y-94910818D02*
X88313333Y-95006129D01*
X88313333Y-95006129D02*
X88360988Y-95149095D01*
X88360988Y-95149095D02*
X88360988Y-95244406D01*
X88360988Y-93862399D02*
X88360988Y-94434264D01*
X88360988Y-94148331D02*
X87360224Y-94148331D01*
X87360224Y-94148331D02*
X87503190Y-94243642D01*
X87503190Y-94243642D02*
X87598501Y-94338953D01*
X87598501Y-94338953D02*
X87646157Y-94434264D01*
X92254819Y-110833333D02*
X92969104Y-110833333D01*
X92969104Y-110833333D02*
X93111961Y-110880952D01*
X93111961Y-110880952D02*
X93207200Y-110976190D01*
X93207200Y-110976190D02*
X93254819Y-111119047D01*
X93254819Y-111119047D02*
X93254819Y-111214285D01*
X93254819Y-110357142D02*
X92254819Y-110357142D01*
X92254819Y-110357142D02*
X92254819Y-109976190D01*
X92254819Y-109976190D02*
X92302438Y-109880952D01*
X92302438Y-109880952D02*
X92350057Y-109833333D01*
X92350057Y-109833333D02*
X92445295Y-109785714D01*
X92445295Y-109785714D02*
X92588152Y-109785714D01*
X92588152Y-109785714D02*
X92683390Y-109833333D01*
X92683390Y-109833333D02*
X92731009Y-109880952D01*
X92731009Y-109880952D02*
X92778628Y-109976190D01*
X92778628Y-109976190D02*
X92778628Y-110357142D01*
X93254819Y-108833333D02*
X93254819Y-109404761D01*
X93254819Y-109119047D02*
X92254819Y-109119047D01*
X92254819Y-109119047D02*
X92397676Y-109214285D01*
X92397676Y-109214285D02*
X92492914Y-109309523D01*
X92492914Y-109309523D02*
X92540533Y-109404761D01*
D14*
%TO.C,JP4*%
X51604999Y-44737501D02*
X51604999Y-43337501D01*
X52304999Y-42637501D02*
X52904999Y-42637501D01*
X52904999Y-45437501D02*
X52304999Y-45437501D01*
X53604999Y-43337501D02*
X53604999Y-44737501D01*
X51604999Y-43337501D02*
G75*
G02*
X52304999Y-42637501I700000J0D01*
G01*
X52304999Y-45437501D02*
G75*
G02*
X51604999Y-44737501I-1J699999D01*
G01*
X52904999Y-42637501D02*
G75*
G02*
X53604999Y-43337501I0J-700000D01*
G01*
X53604999Y-44737501D02*
G75*
G02*
X52904999Y-45437501I-699999J-1D01*
G01*
%TO.C,C21*%
X47994999Y-74171666D02*
X47994999Y-74403336D01*
X48714999Y-74171666D02*
X48714999Y-74403336D01*
%TO.C,C18*%
X37381254Y-81277501D02*
X35958750Y-81277501D01*
X37381254Y-83097501D02*
X35958750Y-83097501D01*
%TO.C,C7*%
X47994999Y-44171666D02*
X47994999Y-44403336D01*
X48714999Y-44171666D02*
X48714999Y-44403336D01*
%TO.C,C28*%
X47994999Y-89171666D02*
X47994999Y-89403336D01*
X48714999Y-89171666D02*
X48714999Y-89403336D01*
%TO.C,C34*%
X80115835Y-81140000D02*
X79884165Y-81140000D01*
X80115835Y-81860000D02*
X79884165Y-81860000D01*
%TO.C,U1*%
X81590000Y-82690000D02*
X81805000Y-82690000D01*
X81590000Y-85000000D02*
X81590000Y-82690000D01*
X81590000Y-85000000D02*
X81590000Y-87310000D01*
X81590000Y-87310000D02*
X81805000Y-87310000D01*
X84410000Y-82690000D02*
X84195000Y-82690000D01*
X84410000Y-85000000D02*
X84410000Y-82690000D01*
X84410000Y-85000000D02*
X84410000Y-87310000D01*
X84410000Y-87310000D02*
X84195000Y-87310000D01*
X81805000Y-88100000D02*
X81475000Y-88340000D01*
X81475000Y-87860000D01*
X81805000Y-88100000D01*
G36*
X81805000Y-88100000D02*
G01*
X81475000Y-88340000D01*
X81475000Y-87860000D01*
X81805000Y-88100000D01*
G37*
%TO.C,JP3*%
X78350000Y-63550000D02*
X78350000Y-62950000D01*
X79050000Y-62250000D02*
X80450000Y-62250000D01*
X80450000Y-64250000D02*
X79050000Y-64250000D01*
X81150000Y-62950000D02*
X81150000Y-63550000D01*
X78350000Y-62950000D02*
G75*
G02*
X79050000Y-62250000I699999J1D01*
G01*
X79050000Y-64250000D02*
G75*
G02*
X78350000Y-63550000I-1J699999D01*
G01*
X80450000Y-62250000D02*
G75*
G02*
X81150000Y-62950000I0J-700000D01*
G01*
X81150000Y-63550000D02*
G75*
G02*
X80450000Y-64250000I-700000J0D01*
G01*
%TO.C,C35*%
X80115835Y-94140000D02*
X79884165Y-94140000D01*
X80115835Y-94860000D02*
X79884165Y-94860000D01*
%TO.C,C3*%
X43121667Y-52327501D02*
X43353337Y-52327501D01*
X43121667Y-53047501D02*
X43353337Y-53047501D01*
%TO.C,U2*%
X81590000Y-95690000D02*
X81805000Y-95690000D01*
X81590000Y-98000000D02*
X81590000Y-95690000D01*
X81590000Y-98000000D02*
X81590000Y-100310000D01*
X81590000Y-100310000D02*
X81805000Y-100310000D01*
X84410000Y-95690000D02*
X84195000Y-95690000D01*
X84410000Y-98000000D02*
X84410000Y-95690000D01*
X84410000Y-98000000D02*
X84410000Y-100310000D01*
X84410000Y-100310000D02*
X84195000Y-100310000D01*
X81805000Y-101100000D02*
X81475000Y-101340000D01*
X81475000Y-100860000D01*
X81805000Y-101100000D01*
G36*
X81805000Y-101100000D02*
G01*
X81475000Y-101340000D01*
X81475000Y-100860000D01*
X81805000Y-101100000D01*
G37*
%TO.C,C11*%
X37381254Y-66277501D02*
X35958750Y-66277501D01*
X37381254Y-68097501D02*
X35958750Y-68097501D01*
%TO.C,C26*%
X41331351Y-97139166D02*
X41331351Y-97370836D01*
X42051351Y-97139166D02*
X42051351Y-97370836D01*
%TO.C,JP5*%
X51604999Y-59737501D02*
X51604999Y-58337501D01*
X52304999Y-57637501D02*
X52904999Y-57637501D01*
X52904999Y-60437501D02*
X52304999Y-60437501D01*
X53604999Y-58337501D02*
X53604999Y-59737501D01*
X51604999Y-58337501D02*
G75*
G02*
X52304999Y-57637501I700000J0D01*
G01*
X52304999Y-60437501D02*
G75*
G02*
X51604999Y-59737501I-1J699999D01*
G01*
X52904999Y-57637501D02*
G75*
G02*
X53604999Y-58337501I0J-700000D01*
G01*
X53604999Y-59737501D02*
G75*
G02*
X52904999Y-60437501I-699999J-1D01*
G01*
%TO.C,SW1*%
X65500000Y-30500000D02*
X65500000Y-35000000D01*
X68000000Y-36250000D02*
X69500000Y-36250000D01*
X69500000Y-29250000D02*
X68000000Y-29250000D01*
X72000000Y-35000000D02*
X72000000Y-30500000D01*
%TO.C,U5*%
X47659999Y-64632501D02*
X47659999Y-62682501D01*
X47659999Y-64632501D02*
X47659999Y-66582501D01*
X57779999Y-64632501D02*
X57779999Y-62682501D01*
X57779999Y-64632501D02*
X57779999Y-66582501D01*
X58054999Y-62172501D02*
X57724999Y-61932501D01*
X58054999Y-61692501D01*
X58054999Y-62172501D01*
G36*
X58054999Y-62172501D02*
G01*
X57724999Y-61932501D01*
X58054999Y-61692501D01*
X58054999Y-62172501D01*
G37*
%TO.C,JP9*%
X86000000Y-64400000D02*
X86000000Y-61600000D01*
X86700000Y-60950000D02*
X87300000Y-60950000D01*
X87300000Y-65050000D02*
X86700000Y-65050000D01*
X88000000Y-61600000D02*
X88000000Y-64400000D01*
X86000000Y-61650000D02*
G75*
G02*
X86700000Y-60950000I699999J1D01*
G01*
X86700000Y-65050000D02*
G75*
G02*
X86000000Y-64350000I0J700000D01*
G01*
X87300000Y-60950000D02*
G75*
G02*
X88000000Y-61650000I1J-699999D01*
G01*
X88000000Y-64350000D02*
G75*
G02*
X87300000Y-65050000I-700000J0D01*
G01*
%TO.C,C13*%
X44054167Y-65827501D02*
X44285837Y-65827501D01*
X44054167Y-66547501D02*
X44285837Y-66547501D01*
%TO.C,U9*%
X47659999Y-94632501D02*
X47659999Y-92682501D01*
X47659999Y-94632501D02*
X47659999Y-96582501D01*
X57779999Y-94632501D02*
X57779999Y-92682501D01*
X57779999Y-94632501D02*
X57779999Y-96582501D01*
X58054999Y-92172501D02*
X57724999Y-91932501D01*
X58054999Y-91692501D01*
X58054999Y-92172501D01*
G36*
X58054999Y-92172501D02*
G01*
X57724999Y-91932501D01*
X58054999Y-91692501D01*
X58054999Y-92172501D01*
G37*
%TO.C,U11*%
X98565000Y-62000000D02*
X98565000Y-60050000D01*
X98565000Y-62000000D02*
X98565000Y-63950000D01*
X107435000Y-62000000D02*
X107435000Y-60050000D01*
X107435000Y-62000000D02*
X107435000Y-63950000D01*
X98630000Y-64700000D02*
X98300000Y-64940000D01*
X98300000Y-64460000D01*
X98630000Y-64700000D01*
G36*
X98630000Y-64700000D02*
G01*
X98300000Y-64940000D01*
X98300000Y-64460000D01*
X98630000Y-64700000D01*
G37*
%TO.C,C9*%
X45554167Y-56827501D02*
X45785837Y-56827501D01*
X45554167Y-57547501D02*
X45785837Y-57547501D01*
%TO.C,C30*%
X108517570Y-70367634D02*
X108517570Y-70135964D01*
X109237570Y-70367634D02*
X109237570Y-70135964D01*
%TO.C,C29*%
X100616146Y-70366106D02*
X100616146Y-70134436D01*
X101336146Y-70366106D02*
X101336146Y-70134436D01*
%TO.C,JP8*%
X90000000Y-64400000D02*
X90000000Y-61600000D01*
X90700000Y-60950000D02*
X91300000Y-60950000D01*
X91300000Y-65050000D02*
X90700000Y-65050000D01*
X92000000Y-61600000D02*
X92000000Y-64400000D01*
X90000000Y-61650000D02*
G75*
G02*
X90700000Y-60950000I699999J1D01*
G01*
X90700000Y-65050000D02*
G75*
G02*
X90000000Y-64350000I0J700000D01*
G01*
X91300000Y-60950000D02*
G75*
G02*
X92000000Y-61650000I1J-699999D01*
G01*
X92000000Y-64350000D02*
G75*
G02*
X91300000Y-65050000I-700000J0D01*
G01*
D15*
%TO.C,Y1*%
X103527328Y-70018861D02*
X106327328Y-70018861D01*
X106327328Y-66018861D02*
X103527328Y-66018861D01*
X101627328Y-68018861D02*
G75*
G02*
X103527328Y-66018861I1950000J50000D01*
G01*
X103527328Y-70018861D02*
G75*
G02*
X101627328Y-68018861I50000J1950000D01*
G01*
X106327328Y-66018861D02*
G75*
G02*
X108227328Y-68018861I-49999J-1949999D01*
G01*
X108227328Y-68018861D02*
G75*
G02*
X106327328Y-70018861I-1949999J-50001D01*
G01*
D14*
%TO.C,C16*%
X45554167Y-71827501D02*
X45785837Y-71827501D01*
X45554167Y-72547501D02*
X45785837Y-72547501D01*
%TO.C,C15*%
X58359999Y-81998336D02*
X58359999Y-81766666D01*
X59079999Y-81998336D02*
X59079999Y-81766666D01*
%TO.C,A1*%
X65010000Y-38970000D02*
X65010000Y-57010000D01*
X65010000Y-57010000D02*
X67680000Y-57010000D01*
X67680000Y-41640000D02*
X67680000Y-38970000D01*
X67680000Y-41640000D02*
X105780000Y-41640000D01*
X67680000Y-54340000D02*
X67680000Y-57010000D01*
X70220000Y-54340000D02*
X67680000Y-54340000D01*
X70220000Y-54340000D02*
X70220000Y-57010000D01*
X70220000Y-54340000D02*
X105780000Y-54340000D01*
X70220000Y-57010000D02*
X108450000Y-57010000D01*
X100570000Y-44050000D02*
X110990000Y-44050000D01*
X100570000Y-51930000D02*
X100570000Y-44050000D01*
X105780000Y-41640000D02*
X105780000Y-38970000D01*
X105780000Y-54340000D02*
X105780000Y-57010000D01*
X108450000Y-38970000D02*
X65010000Y-38970000D01*
X108450000Y-38970000D02*
X108450000Y-44050000D01*
X108450000Y-57010000D02*
X108450000Y-51930000D01*
X110990000Y-44050000D02*
X110990000Y-51930000D01*
X110990000Y-51930000D02*
X100570000Y-51930000D01*
%TO.C,C20*%
X44054167Y-80827501D02*
X44285837Y-80827501D01*
X44054167Y-81547501D02*
X44285837Y-81547501D01*
D15*
%TO.C,J2*%
X83500000Y-19500000D02*
X83500000Y-28130000D01*
X83500000Y-19500000D02*
X92500000Y-19500000D01*
X83500000Y-33800000D02*
X83500000Y-32370000D01*
X85880000Y-33800000D02*
X83500000Y-33800000D01*
X92500000Y-19500000D02*
X92500000Y-33800000D01*
X92500000Y-33800000D02*
X90120000Y-33800000D01*
D10*
X88100000Y-34450000D02*
G75*
G02*
X87900000Y-34450000I-100000J0D01*
G01*
X87900000Y-34450000D02*
G75*
G02*
X88100000Y-34450000I100000J0D01*
G01*
D14*
%TO.C,C24*%
X43121667Y-97327501D02*
X43353337Y-97327501D01*
X43121667Y-98047501D02*
X43353337Y-98047501D01*
%TO.C,JP6*%
X51604999Y-74737501D02*
X51604999Y-73337501D01*
X52304999Y-72637501D02*
X52904999Y-72637501D01*
X52904999Y-75437501D02*
X52304999Y-75437501D01*
X53604999Y-73337501D02*
X53604999Y-74737501D01*
X51604999Y-73337501D02*
G75*
G02*
X52304999Y-72637501I700000J0D01*
G01*
X52304999Y-75437501D02*
G75*
G02*
X51604999Y-74737501I-1J699999D01*
G01*
X52904999Y-72637501D02*
G75*
G02*
X53604999Y-73337501I0J-700000D01*
G01*
X53604999Y-74737501D02*
G75*
G02*
X52904999Y-75437501I-699999J-1D01*
G01*
%TO.C,C32*%
X97115835Y-59140000D02*
X96884165Y-59140000D01*
X97115835Y-59860000D02*
X96884165Y-59860000D01*
%TO.C,JP7*%
X51604999Y-89737501D02*
X51604999Y-88337501D01*
X52304999Y-87637501D02*
X52904999Y-87637501D01*
X52904999Y-90437501D02*
X52304999Y-90437501D01*
X53604999Y-88337501D02*
X53604999Y-89737501D01*
X51604999Y-88337501D02*
G75*
G02*
X52304999Y-87637501I700000J0D01*
G01*
X52304999Y-90437501D02*
G75*
G02*
X51604999Y-89737501I-1J699999D01*
G01*
X52904999Y-87637501D02*
G75*
G02*
X53604999Y-88337501I0J-700000D01*
G01*
X53604999Y-89737501D02*
G75*
G02*
X52904999Y-90437501I-699999J-1D01*
G01*
%TO.C,C31*%
X86615835Y-75140000D02*
X86384165Y-75140000D01*
X86615835Y-75860000D02*
X86384165Y-75860000D01*
%TO.C,C22*%
X58359999Y-96998336D02*
X58359999Y-96766666D01*
X59079999Y-96998336D02*
X59079999Y-96766666D01*
%TO.C,C4*%
X37381254Y-51277501D02*
X35958750Y-51277501D01*
X37381254Y-53097501D02*
X35958750Y-53097501D01*
%TO.C,C6*%
X44054167Y-50827501D02*
X44285837Y-50827501D01*
X44054167Y-51547501D02*
X44285837Y-51547501D01*
%TO.C,C33*%
X80140000Y-72115835D02*
X80140000Y-71884165D01*
X80860000Y-72115835D02*
X80860000Y-71884165D01*
%TO.C,C14*%
X47994999Y-59171666D02*
X47994999Y-59403336D01*
X48714999Y-59171666D02*
X48714999Y-59403336D01*
%TO.C,C10*%
X43121667Y-67327501D02*
X43353337Y-67327501D01*
X43121667Y-68047501D02*
X43353337Y-68047501D01*
%TO.C,JP2*%
X73850000Y-63550000D02*
X73850000Y-62950000D01*
X74550000Y-62250000D02*
X75950000Y-62250000D01*
X75950000Y-64250000D02*
X74550000Y-64250000D01*
X76650000Y-62950000D02*
X76650000Y-63550000D01*
X73850000Y-62950000D02*
G75*
G02*
X74550000Y-62250000I699999J1D01*
G01*
X74550000Y-64250000D02*
G75*
G02*
X73850000Y-63550000I-1J699999D01*
G01*
X75950000Y-62250000D02*
G75*
G02*
X76650000Y-62950000I0J-700000D01*
G01*
X76650000Y-63550000D02*
G75*
G02*
X75950000Y-64250000I-700000J0D01*
G01*
%TO.C,C23*%
X45554167Y-86827501D02*
X45785837Y-86827501D01*
X45554167Y-87547501D02*
X45785837Y-87547501D01*
%TO.C,C25*%
X37381254Y-96277501D02*
X35958750Y-96277501D01*
X37381254Y-98097501D02*
X35958750Y-98097501D01*
%TO.C,C19*%
X41331351Y-82139166D02*
X41331351Y-82370836D01*
X42051351Y-82139166D02*
X42051351Y-82370836D01*
%TO.C,U3*%
X47659999Y-49632501D02*
X47659999Y-47682501D01*
X47659999Y-49632501D02*
X47659999Y-51582501D01*
X57779999Y-49632501D02*
X57779999Y-47682501D01*
X57779999Y-49632501D02*
X57779999Y-51582501D01*
X58054999Y-47172501D02*
X57724999Y-46932501D01*
X58054999Y-46692501D01*
X58054999Y-47172501D01*
G36*
X58054999Y-47172501D02*
G01*
X57724999Y-46932501D01*
X58054999Y-46692501D01*
X58054999Y-47172501D01*
G37*
%TO.C,U7*%
X47659999Y-79632501D02*
X47659999Y-77682501D01*
X47659999Y-79632501D02*
X47659999Y-81582501D01*
X57779999Y-79632501D02*
X57779999Y-77682501D01*
X57779999Y-79632501D02*
X57779999Y-81582501D01*
X58054999Y-77172501D02*
X57724999Y-76932501D01*
X58054999Y-76692501D01*
X58054999Y-77172501D01*
G36*
X58054999Y-77172501D02*
G01*
X57724999Y-76932501D01*
X58054999Y-76692501D01*
X58054999Y-77172501D01*
G37*
%TO.C,C27*%
X44054167Y-95827501D02*
X44285837Y-95827501D01*
X44054167Y-96547501D02*
X44285837Y-96547501D01*
%TO.C,C8*%
X58359999Y-66998336D02*
X58359999Y-66766666D01*
X59079999Y-66998336D02*
X59079999Y-66766666D01*
%TO.C,U12*%
X85000000Y-69440000D02*
X83050000Y-69440000D01*
X85000000Y-69440000D02*
X86950000Y-69440000D01*
X85000000Y-74560000D02*
X83050000Y-74560000D01*
X85000000Y-74560000D02*
X86950000Y-74560000D01*
X82300000Y-69535000D02*
X82060000Y-69205000D01*
X82540000Y-69205000D01*
X82300000Y-69535000D01*
G36*
X82300000Y-69535000D02*
G01*
X82060000Y-69205000D01*
X82540000Y-69205000D01*
X82300000Y-69535000D01*
G37*
%TO.C,C17*%
X43121667Y-82327501D02*
X43353337Y-82327501D01*
X43121667Y-83047501D02*
X43353337Y-83047501D01*
%TO.C,C12*%
X41331351Y-67139166D02*
X41331351Y-67370836D01*
X42051351Y-67139166D02*
X42051351Y-67370836D01*
%TO.C,C5*%
X41331351Y-52139166D02*
X41331351Y-52370836D01*
X42051351Y-52139166D02*
X42051351Y-52370836D01*
%TO.C,C2*%
X45554167Y-41827501D02*
X45785837Y-41827501D01*
X45554167Y-42547501D02*
X45785837Y-42547501D01*
%TO.C,C1*%
X58359999Y-51998336D02*
X58359999Y-51766666D01*
X59079999Y-51998336D02*
X59079999Y-51766666D01*
%TO.C,J3*%
X19044000Y-39940000D02*
X28965000Y-39940000D01*
X19044000Y-100060000D02*
X19044000Y-39940000D01*
X19044000Y-100060000D02*
X28965000Y-100060000D01*
X22004000Y-100060000D02*
X22004000Y-39940000D01*
X23030000Y-41430000D02*
X23066000Y-41465000D01*
X23030000Y-46430000D02*
X23066000Y-46465000D01*
X23030000Y-51430000D02*
X23066000Y-51465000D01*
X23030000Y-56430000D02*
X23066000Y-56465000D01*
X23030000Y-61430000D02*
X23066000Y-61465000D01*
X23030000Y-66430000D02*
X23066000Y-66465000D01*
X23030000Y-71430000D02*
X23066000Y-71465000D01*
X23030000Y-76430000D02*
X23066000Y-76465000D01*
X23030000Y-81430000D02*
X23066000Y-81465000D01*
X23030000Y-86430000D02*
X23066000Y-86465000D01*
X23030000Y-91430000D02*
X23066000Y-91465000D01*
X23236000Y-41225000D02*
X23282000Y-41272000D01*
X23236000Y-46225000D02*
X23282000Y-46272000D01*
X23236000Y-51225000D02*
X23282000Y-51272000D01*
X23236000Y-56225000D02*
X23282000Y-56272000D01*
X23236000Y-61225000D02*
X23282000Y-61272000D01*
X23236000Y-66225000D02*
X23282000Y-66272000D01*
X23236000Y-71225000D02*
X23282000Y-71272000D01*
X23236000Y-76225000D02*
X23282000Y-76272000D01*
X23236000Y-81225000D02*
X23282000Y-81272000D01*
X23236000Y-86225000D02*
X23282000Y-86272000D01*
X23236000Y-91225000D02*
X23282000Y-91272000D01*
X25328000Y-43727000D02*
X25374000Y-43774000D01*
X25328000Y-48727000D02*
X25374000Y-48774000D01*
X25328000Y-53727000D02*
X25374000Y-53774000D01*
X25328000Y-58727000D02*
X25374000Y-58774000D01*
X25328000Y-63727000D02*
X25374000Y-63774000D01*
X25328000Y-68727000D02*
X25374000Y-68774000D01*
X25328000Y-73727000D02*
X25374000Y-73774000D01*
X25328000Y-78727000D02*
X25374000Y-78774000D01*
X25328000Y-83727000D02*
X25374000Y-83774000D01*
X25328000Y-88727000D02*
X25374000Y-88774000D01*
X25328000Y-93727000D02*
X25374000Y-93774000D01*
X25544000Y-43534000D02*
X25579000Y-43569000D01*
X25544000Y-48534000D02*
X25579000Y-48569000D01*
X25544000Y-53534000D02*
X25579000Y-53569000D01*
X25544000Y-58534000D02*
X25579000Y-58569000D01*
X25544000Y-63534000D02*
X25579000Y-63569000D01*
X25544000Y-68534000D02*
X25579000Y-68569000D01*
X25544000Y-73534000D02*
X25579000Y-73569000D01*
X25544000Y-78534000D02*
X25579000Y-78569000D01*
X25544000Y-83534000D02*
X25579000Y-83569000D01*
X25544000Y-88534000D02*
X25579000Y-88569000D01*
X25544000Y-93534000D02*
X25579000Y-93569000D01*
X26905000Y-100060000D02*
X26905000Y-39940000D01*
X28405000Y-100060000D02*
X28405000Y-39940000D01*
X28465000Y-100300000D02*
X29205000Y-100300000D01*
X28965000Y-100060000D02*
X28965000Y-39940000D01*
X29205000Y-100300000D02*
X29205000Y-99800000D01*
X22769573Y-98183042D02*
G75*
G02*
X22770000Y-96816000I1535420J683041D01*
G01*
X23621958Y-95964573D02*
G75*
G02*
X24989000Y-95965000I683042J-1535427D01*
G01*
X24988042Y-99035427D02*
G75*
G02*
X23621000Y-99035000I-683041J1535420D01*
G01*
X25839756Y-96816682D02*
G75*
G02*
X25985000Y-97500000I-1534756J-683318D01*
G01*
X25985253Y-97471195D02*
G75*
G02*
X25840000Y-98184000I-1680254J-28806D01*
G01*
X25985000Y-42500000D02*
G75*
G02*
X22625000Y-42500000I-1680000J0D01*
G01*
X22625000Y-42500000D02*
G75*
G02*
X25985000Y-42500000I1680000J0D01*
G01*
X25985000Y-47500000D02*
G75*
G02*
X22625000Y-47500000I-1680000J0D01*
G01*
X22625000Y-47500000D02*
G75*
G02*
X25985000Y-47500000I1680000J0D01*
G01*
X25985000Y-52500000D02*
G75*
G02*
X22625000Y-52500000I-1680000J0D01*
G01*
X22625000Y-52500000D02*
G75*
G02*
X25985000Y-52500000I1680000J0D01*
G01*
X25985000Y-57500000D02*
G75*
G02*
X22625000Y-57500000I-1680000J0D01*
G01*
X22625000Y-57500000D02*
G75*
G02*
X25985000Y-57500000I1680000J0D01*
G01*
X25985000Y-62500000D02*
G75*
G02*
X22625000Y-62500000I-1680000J0D01*
G01*
X22625000Y-62500000D02*
G75*
G02*
X25985000Y-62500000I1680000J0D01*
G01*
X25985000Y-67500000D02*
G75*
G02*
X22625000Y-67500000I-1680000J0D01*
G01*
X22625000Y-67500000D02*
G75*
G02*
X25985000Y-67500000I1680000J0D01*
G01*
X25985000Y-72500000D02*
G75*
G02*
X22625000Y-72500000I-1680000J0D01*
G01*
X22625000Y-72500000D02*
G75*
G02*
X25985000Y-72500000I1680000J0D01*
G01*
X25985000Y-77500000D02*
G75*
G02*
X22625000Y-77500000I-1680000J0D01*
G01*
X22625000Y-77500000D02*
G75*
G02*
X25985000Y-77500000I1680000J0D01*
G01*
X25985000Y-82500000D02*
G75*
G02*
X22625000Y-82500000I-1680000J0D01*
G01*
X22625000Y-82500000D02*
G75*
G02*
X25985000Y-82500000I1680000J0D01*
G01*
X25985000Y-87500000D02*
G75*
G02*
X22625000Y-87500000I-1680000J0D01*
G01*
X22625000Y-87500000D02*
G75*
G02*
X25985000Y-87500000I1680000J0D01*
G01*
X25985000Y-92500000D02*
G75*
G02*
X22625000Y-92500000I-1680000J0D01*
G01*
X22625000Y-92500000D02*
G75*
G02*
X25985000Y-92500000I1680000J0D01*
G01*
D15*
%TO.C,J1*%
X89365000Y-72940000D02*
X89365000Y-104060000D01*
X89365000Y-104060000D02*
X110635000Y-104060000D01*
X110635000Y-72940000D02*
X89365000Y-72940000D01*
X110635000Y-104060000D02*
X110635000Y-72940000D01*
D16*
X88850000Y-99800000D02*
G75*
G02*
X88550000Y-99800000I-150000J0D01*
G01*
X88550000Y-99800000D02*
G75*
G02*
X88850000Y-99800000I150000J0D01*
G01*
D14*
%TO.C,JP1*%
X90000000Y-110700000D02*
X90000000Y-109300000D01*
X90700000Y-108600000D02*
X91300000Y-108600000D01*
X91300000Y-111400000D02*
X90700000Y-111400000D01*
X92000000Y-109300000D02*
X92000000Y-110700000D01*
X90000000Y-109300000D02*
G75*
G02*
X90700000Y-108600000I699999J1D01*
G01*
X90700000Y-111400000D02*
G75*
G02*
X90000000Y-110700000I0J700000D01*
G01*
X91300000Y-108600000D02*
G75*
G02*
X92000000Y-109300000I1J-699999D01*
G01*
X92000000Y-110700000D02*
G75*
G02*
X91300000Y-111400000I-700000J0D01*
G01*
%TD*%
M02*
