%TF.GenerationSoftware,KiCad,Pcbnew,8.0.1*%
%TF.CreationDate,2024-04-17T00:29:44-04:00*%
%TF.ProjectId,LCC_Booster,4c43435f-426f-46f7-9374-65722e6b6963,rev?*%
%TF.SameCoordinates,Original*%
%TF.FileFunction,Legend,Top*%
%TF.FilePolarity,Positive*%
%FSLAX46Y46*%
G04 Gerber Fmt 4.6, Leading zero omitted, Abs format (unit mm)*
G04 Created by KiCad (PCBNEW 8.0.1) date 2024-04-17 00:29:44*
%MOMM*%
%LPD*%
G01*
G04 APERTURE LIST*
%ADD10C,0.100000*%
%ADD11C,0.300000*%
%ADD12C,0.500000*%
%ADD13C,0.150000*%
%ADD14C,0.127000*%
%ADD15C,0.200000*%
%ADD16C,0.120000*%
%ADD17C,0.609600*%
G04 APERTURE END LIST*
D10*
X68687500Y-111500000D02*
X93812500Y-111500000D01*
X93812500Y-118500000D01*
X68687500Y-118500000D01*
X68687500Y-111500000D01*
G36*
X68687500Y-111500000D02*
G01*
X93812500Y-111500000D01*
X93812500Y-118500000D01*
X68687500Y-118500000D01*
X68687500Y-111500000D01*
G37*
D11*
X31678571Y-82428328D02*
X31678571Y-80928328D01*
X31678571Y-80928328D02*
X32035714Y-80928328D01*
X32035714Y-80928328D02*
X32250000Y-80999757D01*
X32250000Y-80999757D02*
X32392857Y-81142614D01*
X32392857Y-81142614D02*
X32464286Y-81285471D01*
X32464286Y-81285471D02*
X32535714Y-81571185D01*
X32535714Y-81571185D02*
X32535714Y-81785471D01*
X32535714Y-81785471D02*
X32464286Y-82071185D01*
X32464286Y-82071185D02*
X32392857Y-82214042D01*
X32392857Y-82214042D02*
X32250000Y-82356900D01*
X32250000Y-82356900D02*
X32035714Y-82428328D01*
X32035714Y-82428328D02*
X31678571Y-82428328D01*
X33178571Y-81856900D02*
X34321429Y-81856900D01*
X33750000Y-82428328D02*
X33750000Y-81285471D01*
X31678571Y-87428328D02*
X31678571Y-85928328D01*
X31678571Y-85928328D02*
X32035714Y-85928328D01*
X32035714Y-85928328D02*
X32250000Y-85999757D01*
X32250000Y-85999757D02*
X32392857Y-86142614D01*
X32392857Y-86142614D02*
X32464286Y-86285471D01*
X32464286Y-86285471D02*
X32535714Y-86571185D01*
X32535714Y-86571185D02*
X32535714Y-86785471D01*
X32535714Y-86785471D02*
X32464286Y-87071185D01*
X32464286Y-87071185D02*
X32392857Y-87214042D01*
X32392857Y-87214042D02*
X32250000Y-87356900D01*
X32250000Y-87356900D02*
X32035714Y-87428328D01*
X32035714Y-87428328D02*
X31678571Y-87428328D01*
X33178571Y-86856900D02*
X34321429Y-86856900D01*
X22804510Y-92050828D02*
X22804510Y-90550828D01*
X22804510Y-90550828D02*
X23161653Y-90550828D01*
X23161653Y-90550828D02*
X23375939Y-90622257D01*
X23375939Y-90622257D02*
X23518796Y-90765114D01*
X23518796Y-90765114D02*
X23590225Y-90907971D01*
X23590225Y-90907971D02*
X23661653Y-91193685D01*
X23661653Y-91193685D02*
X23661653Y-91407971D01*
X23661653Y-91407971D02*
X23590225Y-91693685D01*
X23590225Y-91693685D02*
X23518796Y-91836542D01*
X23518796Y-91836542D02*
X23375939Y-91979400D01*
X23375939Y-91979400D02*
X23161653Y-92050828D01*
X23161653Y-92050828D02*
X22804510Y-92050828D01*
X25161653Y-91907971D02*
X25090225Y-91979400D01*
X25090225Y-91979400D02*
X24875939Y-92050828D01*
X24875939Y-92050828D02*
X24733082Y-92050828D01*
X24733082Y-92050828D02*
X24518796Y-91979400D01*
X24518796Y-91979400D02*
X24375939Y-91836542D01*
X24375939Y-91836542D02*
X24304510Y-91693685D01*
X24304510Y-91693685D02*
X24233082Y-91407971D01*
X24233082Y-91407971D02*
X24233082Y-91193685D01*
X24233082Y-91193685D02*
X24304510Y-90907971D01*
X24304510Y-90907971D02*
X24375939Y-90765114D01*
X24375939Y-90765114D02*
X24518796Y-90622257D01*
X24518796Y-90622257D02*
X24733082Y-90550828D01*
X24733082Y-90550828D02*
X24875939Y-90550828D01*
X24875939Y-90550828D02*
X25090225Y-90622257D01*
X25090225Y-90622257D02*
X25161653Y-90693685D01*
X26661653Y-91907971D02*
X26590225Y-91979400D01*
X26590225Y-91979400D02*
X26375939Y-92050828D01*
X26375939Y-92050828D02*
X26233082Y-92050828D01*
X26233082Y-92050828D02*
X26018796Y-91979400D01*
X26018796Y-91979400D02*
X25875939Y-91836542D01*
X25875939Y-91836542D02*
X25804510Y-91693685D01*
X25804510Y-91693685D02*
X25733082Y-91407971D01*
X25733082Y-91407971D02*
X25733082Y-91193685D01*
X25733082Y-91193685D02*
X25804510Y-90907971D01*
X25804510Y-90907971D02*
X25875939Y-90765114D01*
X25875939Y-90765114D02*
X26018796Y-90622257D01*
X26018796Y-90622257D02*
X26233082Y-90550828D01*
X26233082Y-90550828D02*
X26375939Y-90550828D01*
X26375939Y-90550828D02*
X26590225Y-90622257D01*
X26590225Y-90622257D02*
X26661653Y-90693685D01*
X27304510Y-91479400D02*
X28447368Y-91479400D01*
X21340225Y-47300828D02*
X21840225Y-48800828D01*
X21840225Y-48800828D02*
X22340225Y-47300828D01*
X22483082Y-48943685D02*
X23625939Y-48943685D01*
X23768796Y-47300828D02*
X24625939Y-47300828D01*
X24197367Y-48800828D02*
X24197367Y-47300828D01*
X25983081Y-48800828D02*
X25483081Y-48086542D01*
X25125938Y-48800828D02*
X25125938Y-47300828D01*
X25125938Y-47300828D02*
X25697367Y-47300828D01*
X25697367Y-47300828D02*
X25840224Y-47372257D01*
X25840224Y-47372257D02*
X25911653Y-47443685D01*
X25911653Y-47443685D02*
X25983081Y-47586542D01*
X25983081Y-47586542D02*
X25983081Y-47800828D01*
X25983081Y-47800828D02*
X25911653Y-47943685D01*
X25911653Y-47943685D02*
X25840224Y-48015114D01*
X25840224Y-48015114D02*
X25697367Y-48086542D01*
X25697367Y-48086542D02*
X25125938Y-48086542D01*
X26554510Y-48372257D02*
X27268796Y-48372257D01*
X26411653Y-48800828D02*
X26911653Y-47300828D01*
X26911653Y-47300828D02*
X27411653Y-48800828D01*
X28768795Y-48657971D02*
X28697367Y-48729400D01*
X28697367Y-48729400D02*
X28483081Y-48800828D01*
X28483081Y-48800828D02*
X28340224Y-48800828D01*
X28340224Y-48800828D02*
X28125938Y-48729400D01*
X28125938Y-48729400D02*
X27983081Y-48586542D01*
X27983081Y-48586542D02*
X27911652Y-48443685D01*
X27911652Y-48443685D02*
X27840224Y-48157971D01*
X27840224Y-48157971D02*
X27840224Y-47943685D01*
X27840224Y-47943685D02*
X27911652Y-47657971D01*
X27911652Y-47657971D02*
X27983081Y-47515114D01*
X27983081Y-47515114D02*
X28125938Y-47372257D01*
X28125938Y-47372257D02*
X28340224Y-47300828D01*
X28340224Y-47300828D02*
X28483081Y-47300828D01*
X28483081Y-47300828D02*
X28697367Y-47372257D01*
X28697367Y-47372257D02*
X28768795Y-47443685D01*
X29411652Y-48800828D02*
X29411652Y-47300828D01*
X30268795Y-48800828D02*
X29625938Y-47943685D01*
X30268795Y-47300828D02*
X29411652Y-48157971D01*
X32178571Y-61642614D02*
X32392857Y-61714042D01*
X32392857Y-61714042D02*
X32464286Y-61785471D01*
X32464286Y-61785471D02*
X32535714Y-61928328D01*
X32535714Y-61928328D02*
X32535714Y-62142614D01*
X32535714Y-62142614D02*
X32464286Y-62285471D01*
X32464286Y-62285471D02*
X32392857Y-62356900D01*
X32392857Y-62356900D02*
X32250000Y-62428328D01*
X32250000Y-62428328D02*
X31678571Y-62428328D01*
X31678571Y-62428328D02*
X31678571Y-60928328D01*
X31678571Y-60928328D02*
X32178571Y-60928328D01*
X32178571Y-60928328D02*
X32321429Y-60999757D01*
X32321429Y-60999757D02*
X32392857Y-61071185D01*
X32392857Y-61071185D02*
X32464286Y-61214042D01*
X32464286Y-61214042D02*
X32464286Y-61356900D01*
X32464286Y-61356900D02*
X32392857Y-61499757D01*
X32392857Y-61499757D02*
X32321429Y-61571185D01*
X32321429Y-61571185D02*
X32178571Y-61642614D01*
X32178571Y-61642614D02*
X31678571Y-61642614D01*
X33178571Y-61856900D02*
X34321429Y-61856900D01*
X33750000Y-62428328D02*
X33750000Y-61285471D01*
X31714286Y-56999757D02*
X32428572Y-56999757D01*
X31571429Y-57428328D02*
X32071429Y-55928328D01*
X32071429Y-55928328D02*
X32571429Y-57428328D01*
X33071428Y-56856900D02*
X34214286Y-56856900D01*
X22804510Y-105300828D02*
X22804510Y-103800828D01*
X22804510Y-103800828D02*
X23161653Y-103800828D01*
X23161653Y-103800828D02*
X23375939Y-103872257D01*
X23375939Y-103872257D02*
X23518796Y-104015114D01*
X23518796Y-104015114D02*
X23590225Y-104157971D01*
X23590225Y-104157971D02*
X23661653Y-104443685D01*
X23661653Y-104443685D02*
X23661653Y-104657971D01*
X23661653Y-104657971D02*
X23590225Y-104943685D01*
X23590225Y-104943685D02*
X23518796Y-105086542D01*
X23518796Y-105086542D02*
X23375939Y-105229400D01*
X23375939Y-105229400D02*
X23161653Y-105300828D01*
X23161653Y-105300828D02*
X22804510Y-105300828D01*
X25161653Y-105157971D02*
X25090225Y-105229400D01*
X25090225Y-105229400D02*
X24875939Y-105300828D01*
X24875939Y-105300828D02*
X24733082Y-105300828D01*
X24733082Y-105300828D02*
X24518796Y-105229400D01*
X24518796Y-105229400D02*
X24375939Y-105086542D01*
X24375939Y-105086542D02*
X24304510Y-104943685D01*
X24304510Y-104943685D02*
X24233082Y-104657971D01*
X24233082Y-104657971D02*
X24233082Y-104443685D01*
X24233082Y-104443685D02*
X24304510Y-104157971D01*
X24304510Y-104157971D02*
X24375939Y-104015114D01*
X24375939Y-104015114D02*
X24518796Y-103872257D01*
X24518796Y-103872257D02*
X24733082Y-103800828D01*
X24733082Y-103800828D02*
X24875939Y-103800828D01*
X24875939Y-103800828D02*
X25090225Y-103872257D01*
X25090225Y-103872257D02*
X25161653Y-103943685D01*
X26661653Y-105157971D02*
X26590225Y-105229400D01*
X26590225Y-105229400D02*
X26375939Y-105300828D01*
X26375939Y-105300828D02*
X26233082Y-105300828D01*
X26233082Y-105300828D02*
X26018796Y-105229400D01*
X26018796Y-105229400D02*
X25875939Y-105086542D01*
X25875939Y-105086542D02*
X25804510Y-104943685D01*
X25804510Y-104943685D02*
X25733082Y-104657971D01*
X25733082Y-104657971D02*
X25733082Y-104443685D01*
X25733082Y-104443685D02*
X25804510Y-104157971D01*
X25804510Y-104157971D02*
X25875939Y-104015114D01*
X25875939Y-104015114D02*
X26018796Y-103872257D01*
X26018796Y-103872257D02*
X26233082Y-103800828D01*
X26233082Y-103800828D02*
X26375939Y-103800828D01*
X26375939Y-103800828D02*
X26590225Y-103872257D01*
X26590225Y-103872257D02*
X26661653Y-103943685D01*
X27304510Y-104729400D02*
X28447368Y-104729400D01*
X27875939Y-105300828D02*
X27875939Y-104157971D01*
X22590225Y-33872257D02*
X22447368Y-33800828D01*
X22447368Y-33800828D02*
X22233082Y-33800828D01*
X22233082Y-33800828D02*
X22018796Y-33872257D01*
X22018796Y-33872257D02*
X21875939Y-34015114D01*
X21875939Y-34015114D02*
X21804510Y-34157971D01*
X21804510Y-34157971D02*
X21733082Y-34443685D01*
X21733082Y-34443685D02*
X21733082Y-34657971D01*
X21733082Y-34657971D02*
X21804510Y-34943685D01*
X21804510Y-34943685D02*
X21875939Y-35086542D01*
X21875939Y-35086542D02*
X22018796Y-35229400D01*
X22018796Y-35229400D02*
X22233082Y-35300828D01*
X22233082Y-35300828D02*
X22375939Y-35300828D01*
X22375939Y-35300828D02*
X22590225Y-35229400D01*
X22590225Y-35229400D02*
X22661653Y-35157971D01*
X22661653Y-35157971D02*
X22661653Y-34657971D01*
X22661653Y-34657971D02*
X22375939Y-34657971D01*
X23304510Y-35300828D02*
X23304510Y-33800828D01*
X23304510Y-33800828D02*
X24161653Y-35300828D01*
X24161653Y-35300828D02*
X24161653Y-33800828D01*
X24875939Y-35300828D02*
X24875939Y-33800828D01*
X24875939Y-33800828D02*
X25233082Y-33800828D01*
X25233082Y-33800828D02*
X25447368Y-33872257D01*
X25447368Y-33872257D02*
X25590225Y-34015114D01*
X25590225Y-34015114D02*
X25661654Y-34157971D01*
X25661654Y-34157971D02*
X25733082Y-34443685D01*
X25733082Y-34443685D02*
X25733082Y-34657971D01*
X25733082Y-34657971D02*
X25661654Y-34943685D01*
X25661654Y-34943685D02*
X25590225Y-35086542D01*
X25590225Y-35086542D02*
X25447368Y-35229400D01*
X25447368Y-35229400D02*
X25233082Y-35300828D01*
X25233082Y-35300828D02*
X24875939Y-35300828D01*
X31714286Y-51999757D02*
X32428572Y-51999757D01*
X31571429Y-52428328D02*
X32071429Y-50928328D01*
X32071429Y-50928328D02*
X32571429Y-52428328D01*
X33071428Y-51856900D02*
X34214286Y-51856900D01*
X33642857Y-52428328D02*
X33642857Y-51285471D01*
X32535714Y-72285471D02*
X32464286Y-72356900D01*
X32464286Y-72356900D02*
X32250000Y-72428328D01*
X32250000Y-72428328D02*
X32107143Y-72428328D01*
X32107143Y-72428328D02*
X31892857Y-72356900D01*
X31892857Y-72356900D02*
X31750000Y-72214042D01*
X31750000Y-72214042D02*
X31678571Y-72071185D01*
X31678571Y-72071185D02*
X31607143Y-71785471D01*
X31607143Y-71785471D02*
X31607143Y-71571185D01*
X31607143Y-71571185D02*
X31678571Y-71285471D01*
X31678571Y-71285471D02*
X31750000Y-71142614D01*
X31750000Y-71142614D02*
X31892857Y-70999757D01*
X31892857Y-70999757D02*
X32107143Y-70928328D01*
X32107143Y-70928328D02*
X32250000Y-70928328D01*
X32250000Y-70928328D02*
X32464286Y-70999757D01*
X32464286Y-70999757D02*
X32535714Y-71071185D01*
X33178571Y-71856900D02*
X34321429Y-71856900D01*
X33750000Y-72428328D02*
X33750000Y-71285471D01*
X32535714Y-77285471D02*
X32464286Y-77356900D01*
X32464286Y-77356900D02*
X32250000Y-77428328D01*
X32250000Y-77428328D02*
X32107143Y-77428328D01*
X32107143Y-77428328D02*
X31892857Y-77356900D01*
X31892857Y-77356900D02*
X31750000Y-77214042D01*
X31750000Y-77214042D02*
X31678571Y-77071185D01*
X31678571Y-77071185D02*
X31607143Y-76785471D01*
X31607143Y-76785471D02*
X31607143Y-76571185D01*
X31607143Y-76571185D02*
X31678571Y-76285471D01*
X31678571Y-76285471D02*
X31750000Y-76142614D01*
X31750000Y-76142614D02*
X31892857Y-75999757D01*
X31892857Y-75999757D02*
X32107143Y-75928328D01*
X32107143Y-75928328D02*
X32250000Y-75928328D01*
X32250000Y-75928328D02*
X32464286Y-75999757D01*
X32464286Y-75999757D02*
X32535714Y-76071185D01*
X33178571Y-76856900D02*
X34321429Y-76856900D01*
X32178571Y-66642614D02*
X32392857Y-66714042D01*
X32392857Y-66714042D02*
X32464286Y-66785471D01*
X32464286Y-66785471D02*
X32535714Y-66928328D01*
X32535714Y-66928328D02*
X32535714Y-67142614D01*
X32535714Y-67142614D02*
X32464286Y-67285471D01*
X32464286Y-67285471D02*
X32392857Y-67356900D01*
X32392857Y-67356900D02*
X32250000Y-67428328D01*
X32250000Y-67428328D02*
X31678571Y-67428328D01*
X31678571Y-67428328D02*
X31678571Y-65928328D01*
X31678571Y-65928328D02*
X32178571Y-65928328D01*
X32178571Y-65928328D02*
X32321429Y-65999757D01*
X32321429Y-65999757D02*
X32392857Y-66071185D01*
X32392857Y-66071185D02*
X32464286Y-66214042D01*
X32464286Y-66214042D02*
X32464286Y-66356900D01*
X32464286Y-66356900D02*
X32392857Y-66499757D01*
X32392857Y-66499757D02*
X32321429Y-66571185D01*
X32321429Y-66571185D02*
X32178571Y-66642614D01*
X32178571Y-66642614D02*
X31678571Y-66642614D01*
X33178571Y-66856900D02*
X34321429Y-66856900D01*
D12*
X95118117Y-102595237D02*
X95118117Y-101166666D01*
X97618117Y-101880952D02*
X95118117Y-101880952D01*
X97618117Y-100333332D02*
X95118117Y-100333332D01*
X95118117Y-100333332D02*
X96903831Y-99499999D01*
X96903831Y-99499999D02*
X95118117Y-98666666D01*
X95118117Y-98666666D02*
X97618117Y-98666666D01*
X97618117Y-96047618D02*
X96427641Y-96880951D01*
X97618117Y-97476189D02*
X95118117Y-97476189D01*
X95118117Y-97476189D02*
X95118117Y-96523808D01*
X95118117Y-96523808D02*
X95237165Y-96285713D01*
X95237165Y-96285713D02*
X95356212Y-96166666D01*
X95356212Y-96166666D02*
X95594308Y-96047618D01*
X95594308Y-96047618D02*
X95951450Y-96047618D01*
X95951450Y-96047618D02*
X96189546Y-96166666D01*
X96189546Y-96166666D02*
X96308593Y-96285713D01*
X96308593Y-96285713D02*
X96427641Y-96523808D01*
X96427641Y-96523808D02*
X96427641Y-97476189D01*
X97380022Y-93547618D02*
X97499070Y-93666666D01*
X97499070Y-93666666D02*
X97618117Y-94023808D01*
X97618117Y-94023808D02*
X97618117Y-94261904D01*
X97618117Y-94261904D02*
X97499070Y-94619047D01*
X97499070Y-94619047D02*
X97260974Y-94857142D01*
X97260974Y-94857142D02*
X97022879Y-94976189D01*
X97022879Y-94976189D02*
X96546689Y-95095237D01*
X96546689Y-95095237D02*
X96189546Y-95095237D01*
X96189546Y-95095237D02*
X95713355Y-94976189D01*
X95713355Y-94976189D02*
X95475260Y-94857142D01*
X95475260Y-94857142D02*
X95237165Y-94619047D01*
X95237165Y-94619047D02*
X95118117Y-94261904D01*
X95118117Y-94261904D02*
X95118117Y-94023808D01*
X95118117Y-94023808D02*
X95237165Y-93666666D01*
X95237165Y-93666666D02*
X95356212Y-93547618D01*
X97499070Y-90690475D02*
X97618117Y-90333332D01*
X97618117Y-90333332D02*
X97618117Y-89738094D01*
X97618117Y-89738094D02*
X97499070Y-89499999D01*
X97499070Y-89499999D02*
X97380022Y-89380951D01*
X97380022Y-89380951D02*
X97141927Y-89261904D01*
X97141927Y-89261904D02*
X96903831Y-89261904D01*
X96903831Y-89261904D02*
X96665736Y-89380951D01*
X96665736Y-89380951D02*
X96546689Y-89499999D01*
X96546689Y-89499999D02*
X96427641Y-89738094D01*
X96427641Y-89738094D02*
X96308593Y-90214285D01*
X96308593Y-90214285D02*
X96189546Y-90452380D01*
X96189546Y-90452380D02*
X96070498Y-90571427D01*
X96070498Y-90571427D02*
X95832403Y-90690475D01*
X95832403Y-90690475D02*
X95594308Y-90690475D01*
X95594308Y-90690475D02*
X95356212Y-90571427D01*
X95356212Y-90571427D02*
X95237165Y-90452380D01*
X95237165Y-90452380D02*
X95118117Y-90214285D01*
X95118117Y-90214285D02*
X95118117Y-89619046D01*
X95118117Y-89619046D02*
X95237165Y-89261904D01*
X95951450Y-88428571D02*
X97618117Y-87833333D01*
X95951450Y-87238094D02*
X97618117Y-87833333D01*
X97618117Y-87833333D02*
X98213355Y-88071428D01*
X98213355Y-88071428D02*
X98332403Y-88190475D01*
X98332403Y-88190475D02*
X98451450Y-88428571D01*
X97499070Y-86404761D02*
X97618117Y-86166666D01*
X97618117Y-86166666D02*
X97618117Y-85690475D01*
X97618117Y-85690475D02*
X97499070Y-85452380D01*
X97499070Y-85452380D02*
X97260974Y-85333332D01*
X97260974Y-85333332D02*
X97141927Y-85333332D01*
X97141927Y-85333332D02*
X96903831Y-85452380D01*
X96903831Y-85452380D02*
X96784784Y-85690475D01*
X96784784Y-85690475D02*
X96784784Y-86047618D01*
X96784784Y-86047618D02*
X96665736Y-86285713D01*
X96665736Y-86285713D02*
X96427641Y-86404761D01*
X96427641Y-86404761D02*
X96308593Y-86404761D01*
X96308593Y-86404761D02*
X96070498Y-86285713D01*
X96070498Y-86285713D02*
X95951450Y-86047618D01*
X95951450Y-86047618D02*
X95951450Y-85690475D01*
X95951450Y-85690475D02*
X96070498Y-85452380D01*
X95951450Y-84619046D02*
X95951450Y-83666665D01*
X95118117Y-84261903D02*
X97260974Y-84261903D01*
X97260974Y-84261903D02*
X97499070Y-84142856D01*
X97499070Y-84142856D02*
X97618117Y-83904761D01*
X97618117Y-83904761D02*
X97618117Y-83666665D01*
X97499070Y-81880951D02*
X97618117Y-82119047D01*
X97618117Y-82119047D02*
X97618117Y-82595237D01*
X97618117Y-82595237D02*
X97499070Y-82833332D01*
X97499070Y-82833332D02*
X97260974Y-82952380D01*
X97260974Y-82952380D02*
X96308593Y-82952380D01*
X96308593Y-82952380D02*
X96070498Y-82833332D01*
X96070498Y-82833332D02*
X95951450Y-82595237D01*
X95951450Y-82595237D02*
X95951450Y-82119047D01*
X95951450Y-82119047D02*
X96070498Y-81880951D01*
X96070498Y-81880951D02*
X96308593Y-81761904D01*
X96308593Y-81761904D02*
X96546689Y-81761904D01*
X96546689Y-81761904D02*
X96784784Y-82952380D01*
X97618117Y-80690475D02*
X95951450Y-80690475D01*
X96189546Y-80690475D02*
X96070498Y-80571428D01*
X96070498Y-80571428D02*
X95951450Y-80333333D01*
X95951450Y-80333333D02*
X95951450Y-79976190D01*
X95951450Y-79976190D02*
X96070498Y-79738094D01*
X96070498Y-79738094D02*
X96308593Y-79619047D01*
X96308593Y-79619047D02*
X97618117Y-79619047D01*
X96308593Y-79619047D02*
X96070498Y-79499999D01*
X96070498Y-79499999D02*
X95951450Y-79261904D01*
X95951450Y-79261904D02*
X95951450Y-78904761D01*
X95951450Y-78904761D02*
X96070498Y-78666666D01*
X96070498Y-78666666D02*
X96308593Y-78547618D01*
X96308593Y-78547618D02*
X97618117Y-78547618D01*
X95951450Y-74380952D02*
X97618117Y-74380952D01*
X94999070Y-74976190D02*
X96784784Y-75571428D01*
X96784784Y-75571428D02*
X96784784Y-74023809D01*
X100333453Y-102059523D02*
X100452501Y-101702380D01*
X100452501Y-101702380D02*
X100571549Y-101583333D01*
X100571549Y-101583333D02*
X100809644Y-101464285D01*
X100809644Y-101464285D02*
X101166787Y-101464285D01*
X101166787Y-101464285D02*
X101404882Y-101583333D01*
X101404882Y-101583333D02*
X101523930Y-101702380D01*
X101523930Y-101702380D02*
X101642977Y-101940475D01*
X101642977Y-101940475D02*
X101642977Y-102892856D01*
X101642977Y-102892856D02*
X99142977Y-102892856D01*
X99142977Y-102892856D02*
X99142977Y-102059523D01*
X99142977Y-102059523D02*
X99262025Y-101821428D01*
X99262025Y-101821428D02*
X99381072Y-101702380D01*
X99381072Y-101702380D02*
X99619168Y-101583333D01*
X99619168Y-101583333D02*
X99857263Y-101583333D01*
X99857263Y-101583333D02*
X100095358Y-101702380D01*
X100095358Y-101702380D02*
X100214406Y-101821428D01*
X100214406Y-101821428D02*
X100333453Y-102059523D01*
X100333453Y-102059523D02*
X100333453Y-102892856D01*
X101642977Y-100035714D02*
X101523930Y-100273809D01*
X101523930Y-100273809D02*
X101285834Y-100392856D01*
X101285834Y-100392856D02*
X99142977Y-100392856D01*
X101642977Y-98726190D02*
X101523930Y-98964285D01*
X101523930Y-98964285D02*
X101404882Y-99083332D01*
X101404882Y-99083332D02*
X101166787Y-99202380D01*
X101166787Y-99202380D02*
X100452501Y-99202380D01*
X100452501Y-99202380D02*
X100214406Y-99083332D01*
X100214406Y-99083332D02*
X100095358Y-98964285D01*
X100095358Y-98964285D02*
X99976310Y-98726190D01*
X99976310Y-98726190D02*
X99976310Y-98369047D01*
X99976310Y-98369047D02*
X100095358Y-98130951D01*
X100095358Y-98130951D02*
X100214406Y-98011904D01*
X100214406Y-98011904D02*
X100452501Y-97892856D01*
X100452501Y-97892856D02*
X101166787Y-97892856D01*
X101166787Y-97892856D02*
X101404882Y-98011904D01*
X101404882Y-98011904D02*
X101523930Y-98130951D01*
X101523930Y-98130951D02*
X101642977Y-98369047D01*
X101642977Y-98369047D02*
X101642977Y-98726190D01*
X101523930Y-95749999D02*
X101642977Y-95988094D01*
X101642977Y-95988094D02*
X101642977Y-96464285D01*
X101642977Y-96464285D02*
X101523930Y-96702380D01*
X101523930Y-96702380D02*
X101404882Y-96821427D01*
X101404882Y-96821427D02*
X101166787Y-96940475D01*
X101166787Y-96940475D02*
X100452501Y-96940475D01*
X100452501Y-96940475D02*
X100214406Y-96821427D01*
X100214406Y-96821427D02*
X100095358Y-96702380D01*
X100095358Y-96702380D02*
X99976310Y-96464285D01*
X99976310Y-96464285D02*
X99976310Y-95988094D01*
X99976310Y-95988094D02*
X100095358Y-95749999D01*
X101642977Y-94678570D02*
X99142977Y-94678570D01*
X100690596Y-94440475D02*
X101642977Y-93726189D01*
X99976310Y-93726189D02*
X100928691Y-94678570D01*
X101404882Y-89321427D02*
X101523930Y-89440475D01*
X101523930Y-89440475D02*
X101642977Y-89797617D01*
X101642977Y-89797617D02*
X101642977Y-90035713D01*
X101642977Y-90035713D02*
X101523930Y-90392856D01*
X101523930Y-90392856D02*
X101285834Y-90630951D01*
X101285834Y-90630951D02*
X101047739Y-90749998D01*
X101047739Y-90749998D02*
X100571549Y-90869046D01*
X100571549Y-90869046D02*
X100214406Y-90869046D01*
X100214406Y-90869046D02*
X99738215Y-90749998D01*
X99738215Y-90749998D02*
X99500120Y-90630951D01*
X99500120Y-90630951D02*
X99262025Y-90392856D01*
X99262025Y-90392856D02*
X99142977Y-90035713D01*
X99142977Y-90035713D02*
X99142977Y-89797617D01*
X99142977Y-89797617D02*
X99262025Y-89440475D01*
X99262025Y-89440475D02*
X99381072Y-89321427D01*
X101642977Y-87178570D02*
X100333453Y-87178570D01*
X100333453Y-87178570D02*
X100095358Y-87297617D01*
X100095358Y-87297617D02*
X99976310Y-87535713D01*
X99976310Y-87535713D02*
X99976310Y-88011903D01*
X99976310Y-88011903D02*
X100095358Y-88249998D01*
X101523930Y-87178570D02*
X101642977Y-87416665D01*
X101642977Y-87416665D02*
X101642977Y-88011903D01*
X101642977Y-88011903D02*
X101523930Y-88249998D01*
X101523930Y-88249998D02*
X101285834Y-88369046D01*
X101285834Y-88369046D02*
X101047739Y-88369046D01*
X101047739Y-88369046D02*
X100809644Y-88249998D01*
X100809644Y-88249998D02*
X100690596Y-88011903D01*
X100690596Y-88011903D02*
X100690596Y-87416665D01*
X100690596Y-87416665D02*
X100571549Y-87178570D01*
X101642977Y-85988093D02*
X99976310Y-85988093D01*
X100452501Y-85988093D02*
X100214406Y-85869046D01*
X100214406Y-85869046D02*
X100095358Y-85749998D01*
X100095358Y-85749998D02*
X99976310Y-85511903D01*
X99976310Y-85511903D02*
X99976310Y-85273808D01*
X101642977Y-83369046D02*
X99142977Y-83369046D01*
X101523930Y-83369046D02*
X101642977Y-83607141D01*
X101642977Y-83607141D02*
X101642977Y-84083332D01*
X101642977Y-84083332D02*
X101523930Y-84321427D01*
X101523930Y-84321427D02*
X101404882Y-84440474D01*
X101404882Y-84440474D02*
X101166787Y-84559522D01*
X101166787Y-84559522D02*
X100452501Y-84559522D01*
X100452501Y-84559522D02*
X100214406Y-84440474D01*
X100214406Y-84440474D02*
X100095358Y-84321427D01*
X100095358Y-84321427D02*
X99976310Y-84083332D01*
X99976310Y-84083332D02*
X99976310Y-83607141D01*
X99976310Y-83607141D02*
X100095358Y-83369046D01*
X99976310Y-80511903D02*
X101642977Y-79916665D01*
X101642977Y-79916665D02*
X99976310Y-79321426D01*
X101642977Y-77059522D02*
X101642977Y-78488093D01*
X101642977Y-77773807D02*
X99142977Y-77773807D01*
X99142977Y-77773807D02*
X99500120Y-78011903D01*
X99500120Y-78011903D02*
X99738215Y-78249998D01*
X99738215Y-78249998D02*
X99857263Y-78488093D01*
X101404882Y-75988093D02*
X101523930Y-75869046D01*
X101523930Y-75869046D02*
X101642977Y-75988093D01*
X101642977Y-75988093D02*
X101523930Y-76107141D01*
X101523930Y-76107141D02*
X101404882Y-75988093D01*
X101404882Y-75988093D02*
X101642977Y-75988093D01*
X99142977Y-74321427D02*
X99142977Y-74083332D01*
X99142977Y-74083332D02*
X99262025Y-73845236D01*
X99262025Y-73845236D02*
X99381072Y-73726189D01*
X99381072Y-73726189D02*
X99619168Y-73607141D01*
X99619168Y-73607141D02*
X100095358Y-73488094D01*
X100095358Y-73488094D02*
X100690596Y-73488094D01*
X100690596Y-73488094D02*
X101166787Y-73607141D01*
X101166787Y-73607141D02*
X101404882Y-73726189D01*
X101404882Y-73726189D02*
X101523930Y-73845236D01*
X101523930Y-73845236D02*
X101642977Y-74083332D01*
X101642977Y-74083332D02*
X101642977Y-74321427D01*
X101642977Y-74321427D02*
X101523930Y-74559522D01*
X101523930Y-74559522D02*
X101404882Y-74678570D01*
X101404882Y-74678570D02*
X101166787Y-74797617D01*
X101166787Y-74797617D02*
X100690596Y-74916665D01*
X100690596Y-74916665D02*
X100095358Y-74916665D01*
X100095358Y-74916665D02*
X99619168Y-74797617D01*
X99619168Y-74797617D02*
X99381072Y-74678570D01*
X99381072Y-74678570D02*
X99262025Y-74559522D01*
X99262025Y-74559522D02*
X99142977Y-74321427D01*
D13*
X119182319Y-29403333D02*
X119896604Y-29403333D01*
X119896604Y-29403333D02*
X120039461Y-29450952D01*
X120039461Y-29450952D02*
X120134700Y-29546190D01*
X120134700Y-29546190D02*
X120182319Y-29689047D01*
X120182319Y-29689047D02*
X120182319Y-29784285D01*
X119277557Y-28974761D02*
X119229938Y-28927142D01*
X119229938Y-28927142D02*
X119182319Y-28831904D01*
X119182319Y-28831904D02*
X119182319Y-28593809D01*
X119182319Y-28593809D02*
X119229938Y-28498571D01*
X119229938Y-28498571D02*
X119277557Y-28450952D01*
X119277557Y-28450952D02*
X119372795Y-28403333D01*
X119372795Y-28403333D02*
X119468033Y-28403333D01*
X119468033Y-28403333D02*
X119610890Y-28450952D01*
X119610890Y-28450952D02*
X120182319Y-29022380D01*
X120182319Y-29022380D02*
X120182319Y-28403333D01*
X88117200Y-66503332D02*
X88164819Y-66360475D01*
X88164819Y-66360475D02*
X88164819Y-66122380D01*
X88164819Y-66122380D02*
X88117200Y-66027142D01*
X88117200Y-66027142D02*
X88069580Y-65979523D01*
X88069580Y-65979523D02*
X87974342Y-65931904D01*
X87974342Y-65931904D02*
X87879104Y-65931904D01*
X87879104Y-65931904D02*
X87783866Y-65979523D01*
X87783866Y-65979523D02*
X87736247Y-66027142D01*
X87736247Y-66027142D02*
X87688628Y-66122380D01*
X87688628Y-66122380D02*
X87641009Y-66312856D01*
X87641009Y-66312856D02*
X87593390Y-66408094D01*
X87593390Y-66408094D02*
X87545771Y-66455713D01*
X87545771Y-66455713D02*
X87450533Y-66503332D01*
X87450533Y-66503332D02*
X87355295Y-66503332D01*
X87355295Y-66503332D02*
X87260057Y-66455713D01*
X87260057Y-66455713D02*
X87212438Y-66408094D01*
X87212438Y-66408094D02*
X87164819Y-66312856D01*
X87164819Y-66312856D02*
X87164819Y-66074761D01*
X87164819Y-66074761D02*
X87212438Y-65931904D01*
X87164819Y-65598570D02*
X88164819Y-65360475D01*
X88164819Y-65360475D02*
X87450533Y-65169999D01*
X87450533Y-65169999D02*
X88164819Y-64979523D01*
X88164819Y-64979523D02*
X87164819Y-64741428D01*
X87260057Y-64408094D02*
X87212438Y-64360475D01*
X87212438Y-64360475D02*
X87164819Y-64265237D01*
X87164819Y-64265237D02*
X87164819Y-64027142D01*
X87164819Y-64027142D02*
X87212438Y-63931904D01*
X87212438Y-63931904D02*
X87260057Y-63884285D01*
X87260057Y-63884285D02*
X87355295Y-63836666D01*
X87355295Y-63836666D02*
X87450533Y-63836666D01*
X87450533Y-63836666D02*
X87593390Y-63884285D01*
X87593390Y-63884285D02*
X88164819Y-64455713D01*
X88164819Y-64455713D02*
X88164819Y-63836666D01*
X42357142Y-88149580D02*
X42309523Y-88197200D01*
X42309523Y-88197200D02*
X42166666Y-88244819D01*
X42166666Y-88244819D02*
X42071428Y-88244819D01*
X42071428Y-88244819D02*
X41928571Y-88197200D01*
X41928571Y-88197200D02*
X41833333Y-88101961D01*
X41833333Y-88101961D02*
X41785714Y-88006723D01*
X41785714Y-88006723D02*
X41738095Y-87816247D01*
X41738095Y-87816247D02*
X41738095Y-87673390D01*
X41738095Y-87673390D02*
X41785714Y-87482914D01*
X41785714Y-87482914D02*
X41833333Y-87387676D01*
X41833333Y-87387676D02*
X41928571Y-87292438D01*
X41928571Y-87292438D02*
X42071428Y-87244819D01*
X42071428Y-87244819D02*
X42166666Y-87244819D01*
X42166666Y-87244819D02*
X42309523Y-87292438D01*
X42309523Y-87292438D02*
X42357142Y-87340057D01*
X43214285Y-87578152D02*
X43214285Y-88244819D01*
X42976190Y-87197200D02*
X42738095Y-87911485D01*
X42738095Y-87911485D02*
X43357142Y-87911485D01*
X43928571Y-87244819D02*
X44023809Y-87244819D01*
X44023809Y-87244819D02*
X44119047Y-87292438D01*
X44119047Y-87292438D02*
X44166666Y-87340057D01*
X44166666Y-87340057D02*
X44214285Y-87435295D01*
X44214285Y-87435295D02*
X44261904Y-87625771D01*
X44261904Y-87625771D02*
X44261904Y-87863866D01*
X44261904Y-87863866D02*
X44214285Y-88054342D01*
X44214285Y-88054342D02*
X44166666Y-88149580D01*
X44166666Y-88149580D02*
X44119047Y-88197200D01*
X44119047Y-88197200D02*
X44023809Y-88244819D01*
X44023809Y-88244819D02*
X43928571Y-88244819D01*
X43928571Y-88244819D02*
X43833333Y-88197200D01*
X43833333Y-88197200D02*
X43785714Y-88149580D01*
X43785714Y-88149580D02*
X43738095Y-88054342D01*
X43738095Y-88054342D02*
X43690476Y-87863866D01*
X43690476Y-87863866D02*
X43690476Y-87625771D01*
X43690476Y-87625771D02*
X43738095Y-87435295D01*
X43738095Y-87435295D02*
X43785714Y-87340057D01*
X43785714Y-87340057D02*
X43833333Y-87292438D01*
X43833333Y-87292438D02*
X43928571Y-87244819D01*
X64913095Y-31234819D02*
X64913095Y-32044342D01*
X64913095Y-32044342D02*
X64960714Y-32139580D01*
X64960714Y-32139580D02*
X65008333Y-32187200D01*
X65008333Y-32187200D02*
X65103571Y-32234819D01*
X65103571Y-32234819D02*
X65294047Y-32234819D01*
X65294047Y-32234819D02*
X65389285Y-32187200D01*
X65389285Y-32187200D02*
X65436904Y-32139580D01*
X65436904Y-32139580D02*
X65484523Y-32044342D01*
X65484523Y-32044342D02*
X65484523Y-31234819D01*
X66389285Y-31568152D02*
X66389285Y-32234819D01*
X66151190Y-31187200D02*
X65913095Y-31901485D01*
X65913095Y-31901485D02*
X66532142Y-31901485D01*
X20704819Y-98333333D02*
X21419104Y-98333333D01*
X21419104Y-98333333D02*
X21561961Y-98380952D01*
X21561961Y-98380952D02*
X21657200Y-98476190D01*
X21657200Y-98476190D02*
X21704819Y-98619047D01*
X21704819Y-98619047D02*
X21704819Y-98714285D01*
X20704819Y-97380952D02*
X20704819Y-97857142D01*
X20704819Y-97857142D02*
X21181009Y-97904761D01*
X21181009Y-97904761D02*
X21133390Y-97857142D01*
X21133390Y-97857142D02*
X21085771Y-97761904D01*
X21085771Y-97761904D02*
X21085771Y-97523809D01*
X21085771Y-97523809D02*
X21133390Y-97428571D01*
X21133390Y-97428571D02*
X21181009Y-97380952D01*
X21181009Y-97380952D02*
X21276247Y-97333333D01*
X21276247Y-97333333D02*
X21514342Y-97333333D01*
X21514342Y-97333333D02*
X21609580Y-97380952D01*
X21609580Y-97380952D02*
X21657200Y-97428571D01*
X21657200Y-97428571D02*
X21704819Y-97523809D01*
X21704819Y-97523809D02*
X21704819Y-97761904D01*
X21704819Y-97761904D02*
X21657200Y-97857142D01*
X21657200Y-97857142D02*
X21609580Y-97904761D01*
X75744580Y-65452857D02*
X75792200Y-65500476D01*
X75792200Y-65500476D02*
X75839819Y-65643333D01*
X75839819Y-65643333D02*
X75839819Y-65738571D01*
X75839819Y-65738571D02*
X75792200Y-65881428D01*
X75792200Y-65881428D02*
X75696961Y-65976666D01*
X75696961Y-65976666D02*
X75601723Y-66024285D01*
X75601723Y-66024285D02*
X75411247Y-66071904D01*
X75411247Y-66071904D02*
X75268390Y-66071904D01*
X75268390Y-66071904D02*
X75077914Y-66024285D01*
X75077914Y-66024285D02*
X74982676Y-65976666D01*
X74982676Y-65976666D02*
X74887438Y-65881428D01*
X74887438Y-65881428D02*
X74839819Y-65738571D01*
X74839819Y-65738571D02*
X74839819Y-65643333D01*
X74839819Y-65643333D02*
X74887438Y-65500476D01*
X74887438Y-65500476D02*
X74935057Y-65452857D01*
X75839819Y-64500476D02*
X75839819Y-65071904D01*
X75839819Y-64786190D02*
X74839819Y-64786190D01*
X74839819Y-64786190D02*
X74982676Y-64881428D01*
X74982676Y-64881428D02*
X75077914Y-64976666D01*
X75077914Y-64976666D02*
X75125533Y-65071904D01*
X74935057Y-64119523D02*
X74887438Y-64071904D01*
X74887438Y-64071904D02*
X74839819Y-63976666D01*
X74839819Y-63976666D02*
X74839819Y-63738571D01*
X74839819Y-63738571D02*
X74887438Y-63643333D01*
X74887438Y-63643333D02*
X74935057Y-63595714D01*
X74935057Y-63595714D02*
X75030295Y-63548095D01*
X75030295Y-63548095D02*
X75125533Y-63548095D01*
X75125533Y-63548095D02*
X75268390Y-63595714D01*
X75268390Y-63595714D02*
X75839819Y-64167142D01*
X75839819Y-64167142D02*
X75839819Y-63548095D01*
X42357142Y-54869580D02*
X42309523Y-54917200D01*
X42309523Y-54917200D02*
X42166666Y-54964819D01*
X42166666Y-54964819D02*
X42071428Y-54964819D01*
X42071428Y-54964819D02*
X41928571Y-54917200D01*
X41928571Y-54917200D02*
X41833333Y-54821961D01*
X41833333Y-54821961D02*
X41785714Y-54726723D01*
X41785714Y-54726723D02*
X41738095Y-54536247D01*
X41738095Y-54536247D02*
X41738095Y-54393390D01*
X41738095Y-54393390D02*
X41785714Y-54202914D01*
X41785714Y-54202914D02*
X41833333Y-54107676D01*
X41833333Y-54107676D02*
X41928571Y-54012438D01*
X41928571Y-54012438D02*
X42071428Y-53964819D01*
X42071428Y-53964819D02*
X42166666Y-53964819D01*
X42166666Y-53964819D02*
X42309523Y-54012438D01*
X42309523Y-54012438D02*
X42357142Y-54060057D01*
X42738095Y-54060057D02*
X42785714Y-54012438D01*
X42785714Y-54012438D02*
X42880952Y-53964819D01*
X42880952Y-53964819D02*
X43119047Y-53964819D01*
X43119047Y-53964819D02*
X43214285Y-54012438D01*
X43214285Y-54012438D02*
X43261904Y-54060057D01*
X43261904Y-54060057D02*
X43309523Y-54155295D01*
X43309523Y-54155295D02*
X43309523Y-54250533D01*
X43309523Y-54250533D02*
X43261904Y-54393390D01*
X43261904Y-54393390D02*
X42690476Y-54964819D01*
X42690476Y-54964819D02*
X43309523Y-54964819D01*
X43928571Y-53964819D02*
X44023809Y-53964819D01*
X44023809Y-53964819D02*
X44119047Y-54012438D01*
X44119047Y-54012438D02*
X44166666Y-54060057D01*
X44166666Y-54060057D02*
X44214285Y-54155295D01*
X44214285Y-54155295D02*
X44261904Y-54345771D01*
X44261904Y-54345771D02*
X44261904Y-54583866D01*
X44261904Y-54583866D02*
X44214285Y-54774342D01*
X44214285Y-54774342D02*
X44166666Y-54869580D01*
X44166666Y-54869580D02*
X44119047Y-54917200D01*
X44119047Y-54917200D02*
X44023809Y-54964819D01*
X44023809Y-54964819D02*
X43928571Y-54964819D01*
X43928571Y-54964819D02*
X43833333Y-54917200D01*
X43833333Y-54917200D02*
X43785714Y-54869580D01*
X43785714Y-54869580D02*
X43738095Y-54774342D01*
X43738095Y-54774342D02*
X43690476Y-54583866D01*
X43690476Y-54583866D02*
X43690476Y-54345771D01*
X43690476Y-54345771D02*
X43738095Y-54155295D01*
X43738095Y-54155295D02*
X43785714Y-54060057D01*
X43785714Y-54060057D02*
X43833333Y-54012438D01*
X43833333Y-54012438D02*
X43928571Y-53964819D01*
X20704819Y-41833333D02*
X21419104Y-41833333D01*
X21419104Y-41833333D02*
X21561961Y-41880952D01*
X21561961Y-41880952D02*
X21657200Y-41976190D01*
X21657200Y-41976190D02*
X21704819Y-42119047D01*
X21704819Y-42119047D02*
X21704819Y-42214285D01*
X21038152Y-40928571D02*
X21704819Y-40928571D01*
X20657200Y-41166666D02*
X21371485Y-41404761D01*
X21371485Y-41404761D02*
X21371485Y-40785714D01*
X35109580Y-107142857D02*
X35157200Y-107190476D01*
X35157200Y-107190476D02*
X35204819Y-107333333D01*
X35204819Y-107333333D02*
X35204819Y-107428571D01*
X35204819Y-107428571D02*
X35157200Y-107571428D01*
X35157200Y-107571428D02*
X35061961Y-107666666D01*
X35061961Y-107666666D02*
X34966723Y-107714285D01*
X34966723Y-107714285D02*
X34776247Y-107761904D01*
X34776247Y-107761904D02*
X34633390Y-107761904D01*
X34633390Y-107761904D02*
X34442914Y-107714285D01*
X34442914Y-107714285D02*
X34347676Y-107666666D01*
X34347676Y-107666666D02*
X34252438Y-107571428D01*
X34252438Y-107571428D02*
X34204819Y-107428571D01*
X34204819Y-107428571D02*
X34204819Y-107333333D01*
X34204819Y-107333333D02*
X34252438Y-107190476D01*
X34252438Y-107190476D02*
X34300057Y-107142857D01*
X34300057Y-106761904D02*
X34252438Y-106714285D01*
X34252438Y-106714285D02*
X34204819Y-106619047D01*
X34204819Y-106619047D02*
X34204819Y-106380952D01*
X34204819Y-106380952D02*
X34252438Y-106285714D01*
X34252438Y-106285714D02*
X34300057Y-106238095D01*
X34300057Y-106238095D02*
X34395295Y-106190476D01*
X34395295Y-106190476D02*
X34490533Y-106190476D01*
X34490533Y-106190476D02*
X34633390Y-106238095D01*
X34633390Y-106238095D02*
X35204819Y-106809523D01*
X35204819Y-106809523D02*
X35204819Y-106190476D01*
X34204819Y-105857142D02*
X34204819Y-105190476D01*
X34204819Y-105190476D02*
X35204819Y-105619047D01*
X87839104Y-45254285D02*
X87839104Y-44778095D01*
X88124819Y-45349523D02*
X87124819Y-45016190D01*
X87124819Y-45016190D02*
X88124819Y-44682857D01*
X88124819Y-43825714D02*
X88124819Y-44397142D01*
X88124819Y-44111428D02*
X87124819Y-44111428D01*
X87124819Y-44111428D02*
X87267676Y-44206666D01*
X87267676Y-44206666D02*
X87362914Y-44301904D01*
X87362914Y-44301904D02*
X87410533Y-44397142D01*
X127764819Y-45801904D02*
X128574342Y-45801904D01*
X128574342Y-45801904D02*
X128669580Y-45754285D01*
X128669580Y-45754285D02*
X128717200Y-45706666D01*
X128717200Y-45706666D02*
X128764819Y-45611428D01*
X128764819Y-45611428D02*
X128764819Y-45420952D01*
X128764819Y-45420952D02*
X128717200Y-45325714D01*
X128717200Y-45325714D02*
X128669580Y-45278095D01*
X128669580Y-45278095D02*
X128574342Y-45230476D01*
X128574342Y-45230476D02*
X127764819Y-45230476D01*
X128717200Y-44801904D02*
X128764819Y-44659047D01*
X128764819Y-44659047D02*
X128764819Y-44420952D01*
X128764819Y-44420952D02*
X128717200Y-44325714D01*
X128717200Y-44325714D02*
X128669580Y-44278095D01*
X128669580Y-44278095D02*
X128574342Y-44230476D01*
X128574342Y-44230476D02*
X128479104Y-44230476D01*
X128479104Y-44230476D02*
X128383866Y-44278095D01*
X128383866Y-44278095D02*
X128336247Y-44325714D01*
X128336247Y-44325714D02*
X128288628Y-44420952D01*
X128288628Y-44420952D02*
X128241009Y-44611428D01*
X128241009Y-44611428D02*
X128193390Y-44706666D01*
X128193390Y-44706666D02*
X128145771Y-44754285D01*
X128145771Y-44754285D02*
X128050533Y-44801904D01*
X128050533Y-44801904D02*
X127955295Y-44801904D01*
X127955295Y-44801904D02*
X127860057Y-44754285D01*
X127860057Y-44754285D02*
X127812438Y-44706666D01*
X127812438Y-44706666D02*
X127764819Y-44611428D01*
X127764819Y-44611428D02*
X127764819Y-44373333D01*
X127764819Y-44373333D02*
X127812438Y-44230476D01*
X128241009Y-43468571D02*
X128288628Y-43325714D01*
X128288628Y-43325714D02*
X128336247Y-43278095D01*
X128336247Y-43278095D02*
X128431485Y-43230476D01*
X128431485Y-43230476D02*
X128574342Y-43230476D01*
X128574342Y-43230476D02*
X128669580Y-43278095D01*
X128669580Y-43278095D02*
X128717200Y-43325714D01*
X128717200Y-43325714D02*
X128764819Y-43420952D01*
X128764819Y-43420952D02*
X128764819Y-43801904D01*
X128764819Y-43801904D02*
X127764819Y-43801904D01*
X127764819Y-43801904D02*
X127764819Y-43468571D01*
X127764819Y-43468571D02*
X127812438Y-43373333D01*
X127812438Y-43373333D02*
X127860057Y-43325714D01*
X127860057Y-43325714D02*
X127955295Y-43278095D01*
X127955295Y-43278095D02*
X128050533Y-43278095D01*
X128050533Y-43278095D02*
X128145771Y-43325714D01*
X128145771Y-43325714D02*
X128193390Y-43373333D01*
X128193390Y-43373333D02*
X128241009Y-43468571D01*
X128241009Y-43468571D02*
X128241009Y-43801904D01*
X38357142Y-72109580D02*
X38309523Y-72157200D01*
X38309523Y-72157200D02*
X38166666Y-72204819D01*
X38166666Y-72204819D02*
X38071428Y-72204819D01*
X38071428Y-72204819D02*
X37928571Y-72157200D01*
X37928571Y-72157200D02*
X37833333Y-72061961D01*
X37833333Y-72061961D02*
X37785714Y-71966723D01*
X37785714Y-71966723D02*
X37738095Y-71776247D01*
X37738095Y-71776247D02*
X37738095Y-71633390D01*
X37738095Y-71633390D02*
X37785714Y-71442914D01*
X37785714Y-71442914D02*
X37833333Y-71347676D01*
X37833333Y-71347676D02*
X37928571Y-71252438D01*
X37928571Y-71252438D02*
X38071428Y-71204819D01*
X38071428Y-71204819D02*
X38166666Y-71204819D01*
X38166666Y-71204819D02*
X38309523Y-71252438D01*
X38309523Y-71252438D02*
X38357142Y-71300057D01*
X38738095Y-71300057D02*
X38785714Y-71252438D01*
X38785714Y-71252438D02*
X38880952Y-71204819D01*
X38880952Y-71204819D02*
X39119047Y-71204819D01*
X39119047Y-71204819D02*
X39214285Y-71252438D01*
X39214285Y-71252438D02*
X39261904Y-71300057D01*
X39261904Y-71300057D02*
X39309523Y-71395295D01*
X39309523Y-71395295D02*
X39309523Y-71490533D01*
X39309523Y-71490533D02*
X39261904Y-71633390D01*
X39261904Y-71633390D02*
X38690476Y-72204819D01*
X38690476Y-72204819D02*
X39309523Y-72204819D01*
X40261904Y-72204819D02*
X39690476Y-72204819D01*
X39976190Y-72204819D02*
X39976190Y-71204819D01*
X39976190Y-71204819D02*
X39880952Y-71347676D01*
X39880952Y-71347676D02*
X39785714Y-71442914D01*
X39785714Y-71442914D02*
X39690476Y-71490533D01*
X64488095Y-45234819D02*
X64488095Y-46044342D01*
X64488095Y-46044342D02*
X64535714Y-46139580D01*
X64535714Y-46139580D02*
X64583333Y-46187200D01*
X64583333Y-46187200D02*
X64678571Y-46234819D01*
X64678571Y-46234819D02*
X64869047Y-46234819D01*
X64869047Y-46234819D02*
X64964285Y-46187200D01*
X64964285Y-46187200D02*
X65011904Y-46139580D01*
X65011904Y-46139580D02*
X65059523Y-46044342D01*
X65059523Y-46044342D02*
X65059523Y-45234819D01*
X65440476Y-45234819D02*
X66059523Y-45234819D01*
X66059523Y-45234819D02*
X65726190Y-45615771D01*
X65726190Y-45615771D02*
X65869047Y-45615771D01*
X65869047Y-45615771D02*
X65964285Y-45663390D01*
X65964285Y-45663390D02*
X66011904Y-45711009D01*
X66011904Y-45711009D02*
X66059523Y-45806247D01*
X66059523Y-45806247D02*
X66059523Y-46044342D01*
X66059523Y-46044342D02*
X66011904Y-46139580D01*
X66011904Y-46139580D02*
X65964285Y-46187200D01*
X65964285Y-46187200D02*
X65869047Y-46234819D01*
X65869047Y-46234819D02*
X65583333Y-46234819D01*
X65583333Y-46234819D02*
X65488095Y-46187200D01*
X65488095Y-46187200D02*
X65440476Y-46139580D01*
X76963095Y-63544819D02*
X76963095Y-64354342D01*
X76963095Y-64354342D02*
X77010714Y-64449580D01*
X77010714Y-64449580D02*
X77058333Y-64497200D01*
X77058333Y-64497200D02*
X77153571Y-64544819D01*
X77153571Y-64544819D02*
X77344047Y-64544819D01*
X77344047Y-64544819D02*
X77439285Y-64497200D01*
X77439285Y-64497200D02*
X77486904Y-64449580D01*
X77486904Y-64449580D02*
X77534523Y-64354342D01*
X77534523Y-64354342D02*
X77534523Y-63544819D01*
X77915476Y-63544819D02*
X78582142Y-63544819D01*
X78582142Y-63544819D02*
X78153571Y-64544819D01*
X45583333Y-26704819D02*
X45250000Y-26228628D01*
X45011905Y-26704819D02*
X45011905Y-25704819D01*
X45011905Y-25704819D02*
X45392857Y-25704819D01*
X45392857Y-25704819D02*
X45488095Y-25752438D01*
X45488095Y-25752438D02*
X45535714Y-25800057D01*
X45535714Y-25800057D02*
X45583333Y-25895295D01*
X45583333Y-25895295D02*
X45583333Y-26038152D01*
X45583333Y-26038152D02*
X45535714Y-26133390D01*
X45535714Y-26133390D02*
X45488095Y-26181009D01*
X45488095Y-26181009D02*
X45392857Y-26228628D01*
X45392857Y-26228628D02*
X45011905Y-26228628D01*
X45964286Y-25800057D02*
X46011905Y-25752438D01*
X46011905Y-25752438D02*
X46107143Y-25704819D01*
X46107143Y-25704819D02*
X46345238Y-25704819D01*
X46345238Y-25704819D02*
X46440476Y-25752438D01*
X46440476Y-25752438D02*
X46488095Y-25800057D01*
X46488095Y-25800057D02*
X46535714Y-25895295D01*
X46535714Y-25895295D02*
X46535714Y-25990533D01*
X46535714Y-25990533D02*
X46488095Y-26133390D01*
X46488095Y-26133390D02*
X45916667Y-26704819D01*
X45916667Y-26704819D02*
X46535714Y-26704819D01*
X34857142Y-75859580D02*
X34809523Y-75907200D01*
X34809523Y-75907200D02*
X34666666Y-75954819D01*
X34666666Y-75954819D02*
X34571428Y-75954819D01*
X34571428Y-75954819D02*
X34428571Y-75907200D01*
X34428571Y-75907200D02*
X34333333Y-75811961D01*
X34333333Y-75811961D02*
X34285714Y-75716723D01*
X34285714Y-75716723D02*
X34238095Y-75526247D01*
X34238095Y-75526247D02*
X34238095Y-75383390D01*
X34238095Y-75383390D02*
X34285714Y-75192914D01*
X34285714Y-75192914D02*
X34333333Y-75097676D01*
X34333333Y-75097676D02*
X34428571Y-75002438D01*
X34428571Y-75002438D02*
X34571428Y-74954819D01*
X34571428Y-74954819D02*
X34666666Y-74954819D01*
X34666666Y-74954819D02*
X34809523Y-75002438D01*
X34809523Y-75002438D02*
X34857142Y-75050057D01*
X35809523Y-75954819D02*
X35238095Y-75954819D01*
X35523809Y-75954819D02*
X35523809Y-74954819D01*
X35523809Y-74954819D02*
X35428571Y-75097676D01*
X35428571Y-75097676D02*
X35333333Y-75192914D01*
X35333333Y-75192914D02*
X35238095Y-75240533D01*
X36142857Y-74954819D02*
X36809523Y-74954819D01*
X36809523Y-74954819D02*
X36380952Y-75954819D01*
X80523333Y-42454819D02*
X80190000Y-41978628D01*
X79951905Y-42454819D02*
X79951905Y-41454819D01*
X79951905Y-41454819D02*
X80332857Y-41454819D01*
X80332857Y-41454819D02*
X80428095Y-41502438D01*
X80428095Y-41502438D02*
X80475714Y-41550057D01*
X80475714Y-41550057D02*
X80523333Y-41645295D01*
X80523333Y-41645295D02*
X80523333Y-41788152D01*
X80523333Y-41788152D02*
X80475714Y-41883390D01*
X80475714Y-41883390D02*
X80428095Y-41931009D01*
X80428095Y-41931009D02*
X80332857Y-41978628D01*
X80332857Y-41978628D02*
X79951905Y-41978628D01*
X81380476Y-41788152D02*
X81380476Y-42454819D01*
X81142381Y-41407200D02*
X80904286Y-42121485D01*
X80904286Y-42121485D02*
X81523333Y-42121485D01*
X53704819Y-91061666D02*
X53228628Y-91394999D01*
X53704819Y-91633094D02*
X52704819Y-91633094D01*
X52704819Y-91633094D02*
X52704819Y-91252142D01*
X52704819Y-91252142D02*
X52752438Y-91156904D01*
X52752438Y-91156904D02*
X52800057Y-91109285D01*
X52800057Y-91109285D02*
X52895295Y-91061666D01*
X52895295Y-91061666D02*
X53038152Y-91061666D01*
X53038152Y-91061666D02*
X53133390Y-91109285D01*
X53133390Y-91109285D02*
X53181009Y-91156904D01*
X53181009Y-91156904D02*
X53228628Y-91252142D01*
X53228628Y-91252142D02*
X53228628Y-91633094D01*
X52704819Y-90728332D02*
X52704819Y-90061666D01*
X52704819Y-90061666D02*
X53704819Y-90490237D01*
X123009819Y-76098394D02*
X123819342Y-76098394D01*
X123819342Y-76098394D02*
X123914580Y-76050775D01*
X123914580Y-76050775D02*
X123962200Y-76003156D01*
X123962200Y-76003156D02*
X124009819Y-75907918D01*
X124009819Y-75907918D02*
X124009819Y-75717442D01*
X124009819Y-75717442D02*
X123962200Y-75622204D01*
X123962200Y-75622204D02*
X123914580Y-75574585D01*
X123914580Y-75574585D02*
X123819342Y-75526966D01*
X123819342Y-75526966D02*
X123009819Y-75526966D01*
X123105057Y-75098394D02*
X123057438Y-75050775D01*
X123057438Y-75050775D02*
X123009819Y-74955537D01*
X123009819Y-74955537D02*
X123009819Y-74717442D01*
X123009819Y-74717442D02*
X123057438Y-74622204D01*
X123057438Y-74622204D02*
X123105057Y-74574585D01*
X123105057Y-74574585D02*
X123200295Y-74526966D01*
X123200295Y-74526966D02*
X123295533Y-74526966D01*
X123295533Y-74526966D02*
X123438390Y-74574585D01*
X123438390Y-74574585D02*
X124009819Y-75146013D01*
X124009819Y-75146013D02*
X124009819Y-74526966D01*
X123009819Y-74193632D02*
X123009819Y-73574585D01*
X123009819Y-73574585D02*
X123390771Y-73907918D01*
X123390771Y-73907918D02*
X123390771Y-73765061D01*
X123390771Y-73765061D02*
X123438390Y-73669823D01*
X123438390Y-73669823D02*
X123486009Y-73622204D01*
X123486009Y-73622204D02*
X123581247Y-73574585D01*
X123581247Y-73574585D02*
X123819342Y-73574585D01*
X123819342Y-73574585D02*
X123914580Y-73622204D01*
X123914580Y-73622204D02*
X123962200Y-73669823D01*
X123962200Y-73669823D02*
X124009819Y-73765061D01*
X124009819Y-73765061D02*
X124009819Y-74050775D01*
X124009819Y-74050775D02*
X123962200Y-74146013D01*
X123962200Y-74146013D02*
X123914580Y-74193632D01*
X63744580Y-72452857D02*
X63792200Y-72500476D01*
X63792200Y-72500476D02*
X63839819Y-72643333D01*
X63839819Y-72643333D02*
X63839819Y-72738571D01*
X63839819Y-72738571D02*
X63792200Y-72881428D01*
X63792200Y-72881428D02*
X63696961Y-72976666D01*
X63696961Y-72976666D02*
X63601723Y-73024285D01*
X63601723Y-73024285D02*
X63411247Y-73071904D01*
X63411247Y-73071904D02*
X63268390Y-73071904D01*
X63268390Y-73071904D02*
X63077914Y-73024285D01*
X63077914Y-73024285D02*
X62982676Y-72976666D01*
X62982676Y-72976666D02*
X62887438Y-72881428D01*
X62887438Y-72881428D02*
X62839819Y-72738571D01*
X62839819Y-72738571D02*
X62839819Y-72643333D01*
X62839819Y-72643333D02*
X62887438Y-72500476D01*
X62887438Y-72500476D02*
X62935057Y-72452857D01*
X63839819Y-71500476D02*
X63839819Y-72071904D01*
X63839819Y-71786190D02*
X62839819Y-71786190D01*
X62839819Y-71786190D02*
X62982676Y-71881428D01*
X62982676Y-71881428D02*
X63077914Y-71976666D01*
X63077914Y-71976666D02*
X63125533Y-72071904D01*
X62839819Y-71167142D02*
X62839819Y-70548095D01*
X62839819Y-70548095D02*
X63220771Y-70881428D01*
X63220771Y-70881428D02*
X63220771Y-70738571D01*
X63220771Y-70738571D02*
X63268390Y-70643333D01*
X63268390Y-70643333D02*
X63316009Y-70595714D01*
X63316009Y-70595714D02*
X63411247Y-70548095D01*
X63411247Y-70548095D02*
X63649342Y-70548095D01*
X63649342Y-70548095D02*
X63744580Y-70595714D01*
X63744580Y-70595714D02*
X63792200Y-70643333D01*
X63792200Y-70643333D02*
X63839819Y-70738571D01*
X63839819Y-70738571D02*
X63839819Y-71024285D01*
X63839819Y-71024285D02*
X63792200Y-71119523D01*
X63792200Y-71119523D02*
X63744580Y-71167142D01*
X36295180Y-96511905D02*
X35485657Y-96511905D01*
X35485657Y-96511905D02*
X35390419Y-96559524D01*
X35390419Y-96559524D02*
X35342800Y-96607143D01*
X35342800Y-96607143D02*
X35295180Y-96702381D01*
X35295180Y-96702381D02*
X35295180Y-96892857D01*
X35295180Y-96892857D02*
X35342800Y-96988095D01*
X35342800Y-96988095D02*
X35390419Y-97035714D01*
X35390419Y-97035714D02*
X35485657Y-97083333D01*
X35485657Y-97083333D02*
X36295180Y-97083333D01*
X36199942Y-97511905D02*
X36247561Y-97559524D01*
X36247561Y-97559524D02*
X36295180Y-97654762D01*
X36295180Y-97654762D02*
X36295180Y-97892857D01*
X36295180Y-97892857D02*
X36247561Y-97988095D01*
X36247561Y-97988095D02*
X36199942Y-98035714D01*
X36199942Y-98035714D02*
X36104704Y-98083333D01*
X36104704Y-98083333D02*
X36009466Y-98083333D01*
X36009466Y-98083333D02*
X35866609Y-98035714D01*
X35866609Y-98035714D02*
X35295180Y-97464286D01*
X35295180Y-97464286D02*
X35295180Y-98083333D01*
X35295180Y-99035714D02*
X35295180Y-98464286D01*
X35295180Y-98750000D02*
X36295180Y-98750000D01*
X36295180Y-98750000D02*
X36152323Y-98654762D01*
X36152323Y-98654762D02*
X36057085Y-98559524D01*
X36057085Y-98559524D02*
X36009466Y-98464286D01*
X40833333Y-48449580D02*
X40785714Y-48497200D01*
X40785714Y-48497200D02*
X40642857Y-48544819D01*
X40642857Y-48544819D02*
X40547619Y-48544819D01*
X40547619Y-48544819D02*
X40404762Y-48497200D01*
X40404762Y-48497200D02*
X40309524Y-48401961D01*
X40309524Y-48401961D02*
X40261905Y-48306723D01*
X40261905Y-48306723D02*
X40214286Y-48116247D01*
X40214286Y-48116247D02*
X40214286Y-47973390D01*
X40214286Y-47973390D02*
X40261905Y-47782914D01*
X40261905Y-47782914D02*
X40309524Y-47687676D01*
X40309524Y-47687676D02*
X40404762Y-47592438D01*
X40404762Y-47592438D02*
X40547619Y-47544819D01*
X40547619Y-47544819D02*
X40642857Y-47544819D01*
X40642857Y-47544819D02*
X40785714Y-47592438D01*
X40785714Y-47592438D02*
X40833333Y-47640057D01*
X41309524Y-48544819D02*
X41500000Y-48544819D01*
X41500000Y-48544819D02*
X41595238Y-48497200D01*
X41595238Y-48497200D02*
X41642857Y-48449580D01*
X41642857Y-48449580D02*
X41738095Y-48306723D01*
X41738095Y-48306723D02*
X41785714Y-48116247D01*
X41785714Y-48116247D02*
X41785714Y-47735295D01*
X41785714Y-47735295D02*
X41738095Y-47640057D01*
X41738095Y-47640057D02*
X41690476Y-47592438D01*
X41690476Y-47592438D02*
X41595238Y-47544819D01*
X41595238Y-47544819D02*
X41404762Y-47544819D01*
X41404762Y-47544819D02*
X41309524Y-47592438D01*
X41309524Y-47592438D02*
X41261905Y-47640057D01*
X41261905Y-47640057D02*
X41214286Y-47735295D01*
X41214286Y-47735295D02*
X41214286Y-47973390D01*
X41214286Y-47973390D02*
X41261905Y-48068628D01*
X41261905Y-48068628D02*
X41309524Y-48116247D01*
X41309524Y-48116247D02*
X41404762Y-48163866D01*
X41404762Y-48163866D02*
X41595238Y-48163866D01*
X41595238Y-48163866D02*
X41690476Y-48116247D01*
X41690476Y-48116247D02*
X41738095Y-48068628D01*
X41738095Y-48068628D02*
X41785714Y-47973390D01*
X63769580Y-32356666D02*
X63817200Y-32404285D01*
X63817200Y-32404285D02*
X63864819Y-32547142D01*
X63864819Y-32547142D02*
X63864819Y-32642380D01*
X63864819Y-32642380D02*
X63817200Y-32785237D01*
X63817200Y-32785237D02*
X63721961Y-32880475D01*
X63721961Y-32880475D02*
X63626723Y-32928094D01*
X63626723Y-32928094D02*
X63436247Y-32975713D01*
X63436247Y-32975713D02*
X63293390Y-32975713D01*
X63293390Y-32975713D02*
X63102914Y-32928094D01*
X63102914Y-32928094D02*
X63007676Y-32880475D01*
X63007676Y-32880475D02*
X62912438Y-32785237D01*
X62912438Y-32785237D02*
X62864819Y-32642380D01*
X62864819Y-32642380D02*
X62864819Y-32547142D01*
X62864819Y-32547142D02*
X62912438Y-32404285D01*
X62912438Y-32404285D02*
X62960057Y-32356666D01*
X63198152Y-31499523D02*
X63864819Y-31499523D01*
X62817200Y-31737618D02*
X63531485Y-31975713D01*
X63531485Y-31975713D02*
X63531485Y-31356666D01*
X118911905Y-54844819D02*
X118911905Y-55654342D01*
X118911905Y-55654342D02*
X118959524Y-55749580D01*
X118959524Y-55749580D02*
X119007143Y-55797200D01*
X119007143Y-55797200D02*
X119102381Y-55844819D01*
X119102381Y-55844819D02*
X119292857Y-55844819D01*
X119292857Y-55844819D02*
X119388095Y-55797200D01*
X119388095Y-55797200D02*
X119435714Y-55749580D01*
X119435714Y-55749580D02*
X119483333Y-55654342D01*
X119483333Y-55654342D02*
X119483333Y-54844819D01*
X119911905Y-54940057D02*
X119959524Y-54892438D01*
X119959524Y-54892438D02*
X120054762Y-54844819D01*
X120054762Y-54844819D02*
X120292857Y-54844819D01*
X120292857Y-54844819D02*
X120388095Y-54892438D01*
X120388095Y-54892438D02*
X120435714Y-54940057D01*
X120435714Y-54940057D02*
X120483333Y-55035295D01*
X120483333Y-55035295D02*
X120483333Y-55130533D01*
X120483333Y-55130533D02*
X120435714Y-55273390D01*
X120435714Y-55273390D02*
X119864286Y-55844819D01*
X119864286Y-55844819D02*
X120483333Y-55844819D01*
X120864286Y-54940057D02*
X120911905Y-54892438D01*
X120911905Y-54892438D02*
X121007143Y-54844819D01*
X121007143Y-54844819D02*
X121245238Y-54844819D01*
X121245238Y-54844819D02*
X121340476Y-54892438D01*
X121340476Y-54892438D02*
X121388095Y-54940057D01*
X121388095Y-54940057D02*
X121435714Y-55035295D01*
X121435714Y-55035295D02*
X121435714Y-55130533D01*
X121435714Y-55130533D02*
X121388095Y-55273390D01*
X121388095Y-55273390D02*
X120816667Y-55844819D01*
X120816667Y-55844819D02*
X121435714Y-55844819D01*
X36295180Y-42988095D02*
X35485657Y-42988095D01*
X35485657Y-42988095D02*
X35390419Y-43035714D01*
X35390419Y-43035714D02*
X35342800Y-43083333D01*
X35342800Y-43083333D02*
X35295180Y-43178571D01*
X35295180Y-43178571D02*
X35295180Y-43369047D01*
X35295180Y-43369047D02*
X35342800Y-43464285D01*
X35342800Y-43464285D02*
X35390419Y-43511904D01*
X35390419Y-43511904D02*
X35485657Y-43559523D01*
X35485657Y-43559523D02*
X36295180Y-43559523D01*
X36295180Y-44464285D02*
X36295180Y-44273809D01*
X36295180Y-44273809D02*
X36247561Y-44178571D01*
X36247561Y-44178571D02*
X36199942Y-44130952D01*
X36199942Y-44130952D02*
X36057085Y-44035714D01*
X36057085Y-44035714D02*
X35866609Y-43988095D01*
X35866609Y-43988095D02*
X35485657Y-43988095D01*
X35485657Y-43988095D02*
X35390419Y-44035714D01*
X35390419Y-44035714D02*
X35342800Y-44083333D01*
X35342800Y-44083333D02*
X35295180Y-44178571D01*
X35295180Y-44178571D02*
X35295180Y-44369047D01*
X35295180Y-44369047D02*
X35342800Y-44464285D01*
X35342800Y-44464285D02*
X35390419Y-44511904D01*
X35390419Y-44511904D02*
X35485657Y-44559523D01*
X35485657Y-44559523D02*
X35723752Y-44559523D01*
X35723752Y-44559523D02*
X35818990Y-44511904D01*
X35818990Y-44511904D02*
X35866609Y-44464285D01*
X35866609Y-44464285D02*
X35914228Y-44369047D01*
X35914228Y-44369047D02*
X35914228Y-44178571D01*
X35914228Y-44178571D02*
X35866609Y-44083333D01*
X35866609Y-44083333D02*
X35818990Y-44035714D01*
X35818990Y-44035714D02*
X35723752Y-43988095D01*
X35857142Y-86769580D02*
X35809523Y-86817200D01*
X35809523Y-86817200D02*
X35666666Y-86864819D01*
X35666666Y-86864819D02*
X35571428Y-86864819D01*
X35571428Y-86864819D02*
X35428571Y-86817200D01*
X35428571Y-86817200D02*
X35333333Y-86721961D01*
X35333333Y-86721961D02*
X35285714Y-86626723D01*
X35285714Y-86626723D02*
X35238095Y-86436247D01*
X35238095Y-86436247D02*
X35238095Y-86293390D01*
X35238095Y-86293390D02*
X35285714Y-86102914D01*
X35285714Y-86102914D02*
X35333333Y-86007676D01*
X35333333Y-86007676D02*
X35428571Y-85912438D01*
X35428571Y-85912438D02*
X35571428Y-85864819D01*
X35571428Y-85864819D02*
X35666666Y-85864819D01*
X35666666Y-85864819D02*
X35809523Y-85912438D01*
X35809523Y-85912438D02*
X35857142Y-85960057D01*
X36238095Y-85960057D02*
X36285714Y-85912438D01*
X36285714Y-85912438D02*
X36380952Y-85864819D01*
X36380952Y-85864819D02*
X36619047Y-85864819D01*
X36619047Y-85864819D02*
X36714285Y-85912438D01*
X36714285Y-85912438D02*
X36761904Y-85960057D01*
X36761904Y-85960057D02*
X36809523Y-86055295D01*
X36809523Y-86055295D02*
X36809523Y-86150533D01*
X36809523Y-86150533D02*
X36761904Y-86293390D01*
X36761904Y-86293390D02*
X36190476Y-86864819D01*
X36190476Y-86864819D02*
X36809523Y-86864819D01*
X37380952Y-86293390D02*
X37285714Y-86245771D01*
X37285714Y-86245771D02*
X37238095Y-86198152D01*
X37238095Y-86198152D02*
X37190476Y-86102914D01*
X37190476Y-86102914D02*
X37190476Y-86055295D01*
X37190476Y-86055295D02*
X37238095Y-85960057D01*
X37238095Y-85960057D02*
X37285714Y-85912438D01*
X37285714Y-85912438D02*
X37380952Y-85864819D01*
X37380952Y-85864819D02*
X37571428Y-85864819D01*
X37571428Y-85864819D02*
X37666666Y-85912438D01*
X37666666Y-85912438D02*
X37714285Y-85960057D01*
X37714285Y-85960057D02*
X37761904Y-86055295D01*
X37761904Y-86055295D02*
X37761904Y-86102914D01*
X37761904Y-86102914D02*
X37714285Y-86198152D01*
X37714285Y-86198152D02*
X37666666Y-86245771D01*
X37666666Y-86245771D02*
X37571428Y-86293390D01*
X37571428Y-86293390D02*
X37380952Y-86293390D01*
X37380952Y-86293390D02*
X37285714Y-86341009D01*
X37285714Y-86341009D02*
X37238095Y-86388628D01*
X37238095Y-86388628D02*
X37190476Y-86483866D01*
X37190476Y-86483866D02*
X37190476Y-86674342D01*
X37190476Y-86674342D02*
X37238095Y-86769580D01*
X37238095Y-86769580D02*
X37285714Y-86817200D01*
X37285714Y-86817200D02*
X37380952Y-86864819D01*
X37380952Y-86864819D02*
X37571428Y-86864819D01*
X37571428Y-86864819D02*
X37666666Y-86817200D01*
X37666666Y-86817200D02*
X37714285Y-86769580D01*
X37714285Y-86769580D02*
X37761904Y-86674342D01*
X37761904Y-86674342D02*
X37761904Y-86483866D01*
X37761904Y-86483866D02*
X37714285Y-86388628D01*
X37714285Y-86388628D02*
X37666666Y-86341009D01*
X37666666Y-86341009D02*
X37571428Y-86293390D01*
X64963095Y-56044819D02*
X64963095Y-56854342D01*
X64963095Y-56854342D02*
X65010714Y-56949580D01*
X65010714Y-56949580D02*
X65058333Y-56997200D01*
X65058333Y-56997200D02*
X65153571Y-57044819D01*
X65153571Y-57044819D02*
X65344047Y-57044819D01*
X65344047Y-57044819D02*
X65439285Y-56997200D01*
X65439285Y-56997200D02*
X65486904Y-56949580D01*
X65486904Y-56949580D02*
X65534523Y-56854342D01*
X65534523Y-56854342D02*
X65534523Y-56044819D01*
X66058333Y-57044819D02*
X66248809Y-57044819D01*
X66248809Y-57044819D02*
X66344047Y-56997200D01*
X66344047Y-56997200D02*
X66391666Y-56949580D01*
X66391666Y-56949580D02*
X66486904Y-56806723D01*
X66486904Y-56806723D02*
X66534523Y-56616247D01*
X66534523Y-56616247D02*
X66534523Y-56235295D01*
X66534523Y-56235295D02*
X66486904Y-56140057D01*
X66486904Y-56140057D02*
X66439285Y-56092438D01*
X66439285Y-56092438D02*
X66344047Y-56044819D01*
X66344047Y-56044819D02*
X66153571Y-56044819D01*
X66153571Y-56044819D02*
X66058333Y-56092438D01*
X66058333Y-56092438D02*
X66010714Y-56140057D01*
X66010714Y-56140057D02*
X65963095Y-56235295D01*
X65963095Y-56235295D02*
X65963095Y-56473390D01*
X65963095Y-56473390D02*
X66010714Y-56568628D01*
X66010714Y-56568628D02*
X66058333Y-56616247D01*
X66058333Y-56616247D02*
X66153571Y-56663866D01*
X66153571Y-56663866D02*
X66344047Y-56663866D01*
X66344047Y-56663866D02*
X66439285Y-56616247D01*
X66439285Y-56616247D02*
X66486904Y-56568628D01*
X66486904Y-56568628D02*
X66534523Y-56473390D01*
X75523333Y-48454819D02*
X75190000Y-47978628D01*
X74951905Y-48454819D02*
X74951905Y-47454819D01*
X74951905Y-47454819D02*
X75332857Y-47454819D01*
X75332857Y-47454819D02*
X75428095Y-47502438D01*
X75428095Y-47502438D02*
X75475714Y-47550057D01*
X75475714Y-47550057D02*
X75523333Y-47645295D01*
X75523333Y-47645295D02*
X75523333Y-47788152D01*
X75523333Y-47788152D02*
X75475714Y-47883390D01*
X75475714Y-47883390D02*
X75428095Y-47931009D01*
X75428095Y-47931009D02*
X75332857Y-47978628D01*
X75332857Y-47978628D02*
X74951905Y-47978628D01*
X76380476Y-47454819D02*
X76190000Y-47454819D01*
X76190000Y-47454819D02*
X76094762Y-47502438D01*
X76094762Y-47502438D02*
X76047143Y-47550057D01*
X76047143Y-47550057D02*
X75951905Y-47692914D01*
X75951905Y-47692914D02*
X75904286Y-47883390D01*
X75904286Y-47883390D02*
X75904286Y-48264342D01*
X75904286Y-48264342D02*
X75951905Y-48359580D01*
X75951905Y-48359580D02*
X75999524Y-48407200D01*
X75999524Y-48407200D02*
X76094762Y-48454819D01*
X76094762Y-48454819D02*
X76285238Y-48454819D01*
X76285238Y-48454819D02*
X76380476Y-48407200D01*
X76380476Y-48407200D02*
X76428095Y-48359580D01*
X76428095Y-48359580D02*
X76475714Y-48264342D01*
X76475714Y-48264342D02*
X76475714Y-48026247D01*
X76475714Y-48026247D02*
X76428095Y-47931009D01*
X76428095Y-47931009D02*
X76380476Y-47883390D01*
X76380476Y-47883390D02*
X76285238Y-47835771D01*
X76285238Y-47835771D02*
X76094762Y-47835771D01*
X76094762Y-47835771D02*
X75999524Y-47883390D01*
X75999524Y-47883390D02*
X75951905Y-47931009D01*
X75951905Y-47931009D02*
X75904286Y-48026247D01*
X48954819Y-32666666D02*
X48478628Y-32999999D01*
X48954819Y-33238094D02*
X47954819Y-33238094D01*
X47954819Y-33238094D02*
X47954819Y-32857142D01*
X47954819Y-32857142D02*
X48002438Y-32761904D01*
X48002438Y-32761904D02*
X48050057Y-32714285D01*
X48050057Y-32714285D02*
X48145295Y-32666666D01*
X48145295Y-32666666D02*
X48288152Y-32666666D01*
X48288152Y-32666666D02*
X48383390Y-32714285D01*
X48383390Y-32714285D02*
X48431009Y-32761904D01*
X48431009Y-32761904D02*
X48478628Y-32857142D01*
X48478628Y-32857142D02*
X48478628Y-33238094D01*
X48954819Y-31714285D02*
X48954819Y-32285713D01*
X48954819Y-31999999D02*
X47954819Y-31999999D01*
X47954819Y-31999999D02*
X48097676Y-32095237D01*
X48097676Y-32095237D02*
X48192914Y-32190475D01*
X48192914Y-32190475D02*
X48240533Y-32285713D01*
X64476905Y-100864819D02*
X64476905Y-101674342D01*
X64476905Y-101674342D02*
X64524524Y-101769580D01*
X64524524Y-101769580D02*
X64572143Y-101817200D01*
X64572143Y-101817200D02*
X64667381Y-101864819D01*
X64667381Y-101864819D02*
X64857857Y-101864819D01*
X64857857Y-101864819D02*
X64953095Y-101817200D01*
X64953095Y-101817200D02*
X65000714Y-101769580D01*
X65000714Y-101769580D02*
X65048333Y-101674342D01*
X65048333Y-101674342D02*
X65048333Y-100864819D01*
X66048333Y-101864819D02*
X65476905Y-101864819D01*
X65762619Y-101864819D02*
X65762619Y-100864819D01*
X65762619Y-100864819D02*
X65667381Y-101007676D01*
X65667381Y-101007676D02*
X65572143Y-101102914D01*
X65572143Y-101102914D02*
X65476905Y-101150533D01*
X66524524Y-101864819D02*
X66715000Y-101864819D01*
X66715000Y-101864819D02*
X66810238Y-101817200D01*
X66810238Y-101817200D02*
X66857857Y-101769580D01*
X66857857Y-101769580D02*
X66953095Y-101626723D01*
X66953095Y-101626723D02*
X67000714Y-101436247D01*
X67000714Y-101436247D02*
X67000714Y-101055295D01*
X67000714Y-101055295D02*
X66953095Y-100960057D01*
X66953095Y-100960057D02*
X66905476Y-100912438D01*
X66905476Y-100912438D02*
X66810238Y-100864819D01*
X66810238Y-100864819D02*
X66619762Y-100864819D01*
X66619762Y-100864819D02*
X66524524Y-100912438D01*
X66524524Y-100912438D02*
X66476905Y-100960057D01*
X66476905Y-100960057D02*
X66429286Y-101055295D01*
X66429286Y-101055295D02*
X66429286Y-101293390D01*
X66429286Y-101293390D02*
X66476905Y-101388628D01*
X66476905Y-101388628D02*
X66524524Y-101436247D01*
X66524524Y-101436247D02*
X66619762Y-101483866D01*
X66619762Y-101483866D02*
X66810238Y-101483866D01*
X66810238Y-101483866D02*
X66905476Y-101436247D01*
X66905476Y-101436247D02*
X66953095Y-101388628D01*
X66953095Y-101388628D02*
X67000714Y-101293390D01*
X87359957Y-91817738D02*
X87312338Y-91912976D01*
X87312338Y-91912976D02*
X87217100Y-92008214D01*
X87217100Y-92008214D02*
X87074242Y-92151071D01*
X87074242Y-92151071D02*
X87026623Y-92246309D01*
X87026623Y-92246309D02*
X87026623Y-92341547D01*
X87264719Y-92293928D02*
X87217100Y-92389166D01*
X87217100Y-92389166D02*
X87121861Y-92484404D01*
X87121861Y-92484404D02*
X86931385Y-92532023D01*
X86931385Y-92532023D02*
X86598052Y-92532023D01*
X86598052Y-92532023D02*
X86407576Y-92484404D01*
X86407576Y-92484404D02*
X86312338Y-92389166D01*
X86312338Y-92389166D02*
X86264719Y-92293928D01*
X86264719Y-92293928D02*
X86264719Y-92103452D01*
X86264719Y-92103452D02*
X86312338Y-92008214D01*
X86312338Y-92008214D02*
X86407576Y-91912976D01*
X86407576Y-91912976D02*
X86598052Y-91865357D01*
X86598052Y-91865357D02*
X86931385Y-91865357D01*
X86931385Y-91865357D02*
X87121861Y-91912976D01*
X87121861Y-91912976D02*
X87217100Y-92008214D01*
X87217100Y-92008214D02*
X87264719Y-92103452D01*
X87264719Y-92103452D02*
X87264719Y-92293928D01*
X86598052Y-91008214D02*
X87264719Y-91008214D01*
X86217100Y-91246309D02*
X86931385Y-91484404D01*
X86931385Y-91484404D02*
X86931385Y-90865357D01*
X53704819Y-81441666D02*
X53228628Y-81774999D01*
X53704819Y-82013094D02*
X52704819Y-82013094D01*
X52704819Y-82013094D02*
X52704819Y-81632142D01*
X52704819Y-81632142D02*
X52752438Y-81536904D01*
X52752438Y-81536904D02*
X52800057Y-81489285D01*
X52800057Y-81489285D02*
X52895295Y-81441666D01*
X52895295Y-81441666D02*
X53038152Y-81441666D01*
X53038152Y-81441666D02*
X53133390Y-81489285D01*
X53133390Y-81489285D02*
X53181009Y-81536904D01*
X53181009Y-81536904D02*
X53228628Y-81632142D01*
X53228628Y-81632142D02*
X53228628Y-82013094D01*
X53704819Y-80965475D02*
X53704819Y-80774999D01*
X53704819Y-80774999D02*
X53657200Y-80679761D01*
X53657200Y-80679761D02*
X53609580Y-80632142D01*
X53609580Y-80632142D02*
X53466723Y-80536904D01*
X53466723Y-80536904D02*
X53276247Y-80489285D01*
X53276247Y-80489285D02*
X52895295Y-80489285D01*
X52895295Y-80489285D02*
X52800057Y-80536904D01*
X52800057Y-80536904D02*
X52752438Y-80584523D01*
X52752438Y-80584523D02*
X52704819Y-80679761D01*
X52704819Y-80679761D02*
X52704819Y-80870237D01*
X52704819Y-80870237D02*
X52752438Y-80965475D01*
X52752438Y-80965475D02*
X52800057Y-81013094D01*
X52800057Y-81013094D02*
X52895295Y-81060713D01*
X52895295Y-81060713D02*
X53133390Y-81060713D01*
X53133390Y-81060713D02*
X53228628Y-81013094D01*
X53228628Y-81013094D02*
X53276247Y-80965475D01*
X53276247Y-80965475D02*
X53323866Y-80870237D01*
X53323866Y-80870237D02*
X53323866Y-80679761D01*
X53323866Y-80679761D02*
X53276247Y-80584523D01*
X53276247Y-80584523D02*
X53228628Y-80536904D01*
X53228628Y-80536904D02*
X53133390Y-80489285D01*
X21009819Y-70083333D02*
X21724104Y-70083333D01*
X21724104Y-70083333D02*
X21866961Y-70130952D01*
X21866961Y-70130952D02*
X21962200Y-70226190D01*
X21962200Y-70226190D02*
X22009819Y-70369047D01*
X22009819Y-70369047D02*
X22009819Y-70464285D01*
X21009819Y-69702380D02*
X21009819Y-69083333D01*
X21009819Y-69083333D02*
X21390771Y-69416666D01*
X21390771Y-69416666D02*
X21390771Y-69273809D01*
X21390771Y-69273809D02*
X21438390Y-69178571D01*
X21438390Y-69178571D02*
X21486009Y-69130952D01*
X21486009Y-69130952D02*
X21581247Y-69083333D01*
X21581247Y-69083333D02*
X21819342Y-69083333D01*
X21819342Y-69083333D02*
X21914580Y-69130952D01*
X21914580Y-69130952D02*
X21962200Y-69178571D01*
X21962200Y-69178571D02*
X22009819Y-69273809D01*
X22009819Y-69273809D02*
X22009819Y-69559523D01*
X22009819Y-69559523D02*
X21962200Y-69654761D01*
X21962200Y-69654761D02*
X21914580Y-69702380D01*
X42357142Y-70149580D02*
X42309523Y-70197200D01*
X42309523Y-70197200D02*
X42166666Y-70244819D01*
X42166666Y-70244819D02*
X42071428Y-70244819D01*
X42071428Y-70244819D02*
X41928571Y-70197200D01*
X41928571Y-70197200D02*
X41833333Y-70101961D01*
X41833333Y-70101961D02*
X41785714Y-70006723D01*
X41785714Y-70006723D02*
X41738095Y-69816247D01*
X41738095Y-69816247D02*
X41738095Y-69673390D01*
X41738095Y-69673390D02*
X41785714Y-69482914D01*
X41785714Y-69482914D02*
X41833333Y-69387676D01*
X41833333Y-69387676D02*
X41928571Y-69292438D01*
X41928571Y-69292438D02*
X42071428Y-69244819D01*
X42071428Y-69244819D02*
X42166666Y-69244819D01*
X42166666Y-69244819D02*
X42309523Y-69292438D01*
X42309523Y-69292438D02*
X42357142Y-69340057D01*
X42690476Y-69244819D02*
X43309523Y-69244819D01*
X43309523Y-69244819D02*
X42976190Y-69625771D01*
X42976190Y-69625771D02*
X43119047Y-69625771D01*
X43119047Y-69625771D02*
X43214285Y-69673390D01*
X43214285Y-69673390D02*
X43261904Y-69721009D01*
X43261904Y-69721009D02*
X43309523Y-69816247D01*
X43309523Y-69816247D02*
X43309523Y-70054342D01*
X43309523Y-70054342D02*
X43261904Y-70149580D01*
X43261904Y-70149580D02*
X43214285Y-70197200D01*
X43214285Y-70197200D02*
X43119047Y-70244819D01*
X43119047Y-70244819D02*
X42833333Y-70244819D01*
X42833333Y-70244819D02*
X42738095Y-70197200D01*
X42738095Y-70197200D02*
X42690476Y-70149580D01*
X43928571Y-69244819D02*
X44023809Y-69244819D01*
X44023809Y-69244819D02*
X44119047Y-69292438D01*
X44119047Y-69292438D02*
X44166666Y-69340057D01*
X44166666Y-69340057D02*
X44214285Y-69435295D01*
X44214285Y-69435295D02*
X44261904Y-69625771D01*
X44261904Y-69625771D02*
X44261904Y-69863866D01*
X44261904Y-69863866D02*
X44214285Y-70054342D01*
X44214285Y-70054342D02*
X44166666Y-70149580D01*
X44166666Y-70149580D02*
X44119047Y-70197200D01*
X44119047Y-70197200D02*
X44023809Y-70244819D01*
X44023809Y-70244819D02*
X43928571Y-70244819D01*
X43928571Y-70244819D02*
X43833333Y-70197200D01*
X43833333Y-70197200D02*
X43785714Y-70149580D01*
X43785714Y-70149580D02*
X43738095Y-70054342D01*
X43738095Y-70054342D02*
X43690476Y-69863866D01*
X43690476Y-69863866D02*
X43690476Y-69625771D01*
X43690476Y-69625771D02*
X43738095Y-69435295D01*
X43738095Y-69435295D02*
X43785714Y-69340057D01*
X43785714Y-69340057D02*
X43833333Y-69292438D01*
X43833333Y-69292438D02*
X43928571Y-69244819D01*
X52486905Y-63544819D02*
X52486905Y-64354342D01*
X52486905Y-64354342D02*
X52534524Y-64449580D01*
X52534524Y-64449580D02*
X52582143Y-64497200D01*
X52582143Y-64497200D02*
X52677381Y-64544819D01*
X52677381Y-64544819D02*
X52867857Y-64544819D01*
X52867857Y-64544819D02*
X52963095Y-64497200D01*
X52963095Y-64497200D02*
X53010714Y-64449580D01*
X53010714Y-64449580D02*
X53058333Y-64354342D01*
X53058333Y-64354342D02*
X53058333Y-63544819D01*
X54058333Y-64544819D02*
X53486905Y-64544819D01*
X53772619Y-64544819D02*
X53772619Y-63544819D01*
X53772619Y-63544819D02*
X53677381Y-63687676D01*
X53677381Y-63687676D02*
X53582143Y-63782914D01*
X53582143Y-63782914D02*
X53486905Y-63830533D01*
X54677381Y-63544819D02*
X54772619Y-63544819D01*
X54772619Y-63544819D02*
X54867857Y-63592438D01*
X54867857Y-63592438D02*
X54915476Y-63640057D01*
X54915476Y-63640057D02*
X54963095Y-63735295D01*
X54963095Y-63735295D02*
X55010714Y-63925771D01*
X55010714Y-63925771D02*
X55010714Y-64163866D01*
X55010714Y-64163866D02*
X54963095Y-64354342D01*
X54963095Y-64354342D02*
X54915476Y-64449580D01*
X54915476Y-64449580D02*
X54867857Y-64497200D01*
X54867857Y-64497200D02*
X54772619Y-64544819D01*
X54772619Y-64544819D02*
X54677381Y-64544819D01*
X54677381Y-64544819D02*
X54582143Y-64497200D01*
X54582143Y-64497200D02*
X54534524Y-64449580D01*
X54534524Y-64449580D02*
X54486905Y-64354342D01*
X54486905Y-64354342D02*
X54439286Y-64163866D01*
X54439286Y-64163866D02*
X54439286Y-63925771D01*
X54439286Y-63925771D02*
X54486905Y-63735295D01*
X54486905Y-63735295D02*
X54534524Y-63640057D01*
X54534524Y-63640057D02*
X54582143Y-63592438D01*
X54582143Y-63592438D02*
X54677381Y-63544819D01*
X51769580Y-65452857D02*
X51817200Y-65500476D01*
X51817200Y-65500476D02*
X51864819Y-65643333D01*
X51864819Y-65643333D02*
X51864819Y-65738571D01*
X51864819Y-65738571D02*
X51817200Y-65881428D01*
X51817200Y-65881428D02*
X51721961Y-65976666D01*
X51721961Y-65976666D02*
X51626723Y-66024285D01*
X51626723Y-66024285D02*
X51436247Y-66071904D01*
X51436247Y-66071904D02*
X51293390Y-66071904D01*
X51293390Y-66071904D02*
X51102914Y-66024285D01*
X51102914Y-66024285D02*
X51007676Y-65976666D01*
X51007676Y-65976666D02*
X50912438Y-65881428D01*
X50912438Y-65881428D02*
X50864819Y-65738571D01*
X50864819Y-65738571D02*
X50864819Y-65643333D01*
X50864819Y-65643333D02*
X50912438Y-65500476D01*
X50912438Y-65500476D02*
X50960057Y-65452857D01*
X51864819Y-64500476D02*
X51864819Y-65071904D01*
X51864819Y-64786190D02*
X50864819Y-64786190D01*
X50864819Y-64786190D02*
X51007676Y-64881428D01*
X51007676Y-64881428D02*
X51102914Y-64976666D01*
X51102914Y-64976666D02*
X51150533Y-65071904D01*
X50864819Y-63595714D02*
X50864819Y-64071904D01*
X50864819Y-64071904D02*
X51341009Y-64119523D01*
X51341009Y-64119523D02*
X51293390Y-64071904D01*
X51293390Y-64071904D02*
X51245771Y-63976666D01*
X51245771Y-63976666D02*
X51245771Y-63738571D01*
X51245771Y-63738571D02*
X51293390Y-63643333D01*
X51293390Y-63643333D02*
X51341009Y-63595714D01*
X51341009Y-63595714D02*
X51436247Y-63548095D01*
X51436247Y-63548095D02*
X51674342Y-63548095D01*
X51674342Y-63548095D02*
X51769580Y-63595714D01*
X51769580Y-63595714D02*
X51817200Y-63643333D01*
X51817200Y-63643333D02*
X51864819Y-63738571D01*
X51864819Y-63738571D02*
X51864819Y-63976666D01*
X51864819Y-63976666D02*
X51817200Y-64071904D01*
X51817200Y-64071904D02*
X51769580Y-64119523D01*
X76064580Y-80272857D02*
X76112200Y-80320476D01*
X76112200Y-80320476D02*
X76159819Y-80463333D01*
X76159819Y-80463333D02*
X76159819Y-80558571D01*
X76159819Y-80558571D02*
X76112200Y-80701428D01*
X76112200Y-80701428D02*
X76016961Y-80796666D01*
X76016961Y-80796666D02*
X75921723Y-80844285D01*
X75921723Y-80844285D02*
X75731247Y-80891904D01*
X75731247Y-80891904D02*
X75588390Y-80891904D01*
X75588390Y-80891904D02*
X75397914Y-80844285D01*
X75397914Y-80844285D02*
X75302676Y-80796666D01*
X75302676Y-80796666D02*
X75207438Y-80701428D01*
X75207438Y-80701428D02*
X75159819Y-80558571D01*
X75159819Y-80558571D02*
X75159819Y-80463333D01*
X75159819Y-80463333D02*
X75207438Y-80320476D01*
X75207438Y-80320476D02*
X75255057Y-80272857D01*
X75255057Y-79891904D02*
X75207438Y-79844285D01*
X75207438Y-79844285D02*
X75159819Y-79749047D01*
X75159819Y-79749047D02*
X75159819Y-79510952D01*
X75159819Y-79510952D02*
X75207438Y-79415714D01*
X75207438Y-79415714D02*
X75255057Y-79368095D01*
X75255057Y-79368095D02*
X75350295Y-79320476D01*
X75350295Y-79320476D02*
X75445533Y-79320476D01*
X75445533Y-79320476D02*
X75588390Y-79368095D01*
X75588390Y-79368095D02*
X76159819Y-79939523D01*
X76159819Y-79939523D02*
X76159819Y-79320476D01*
X75493152Y-78463333D02*
X76159819Y-78463333D01*
X75112200Y-78701428D02*
X75826485Y-78939523D01*
X75826485Y-78939523D02*
X75826485Y-78320476D01*
X39083333Y-51859580D02*
X39035714Y-51907200D01*
X39035714Y-51907200D02*
X38892857Y-51954819D01*
X38892857Y-51954819D02*
X38797619Y-51954819D01*
X38797619Y-51954819D02*
X38654762Y-51907200D01*
X38654762Y-51907200D02*
X38559524Y-51811961D01*
X38559524Y-51811961D02*
X38511905Y-51716723D01*
X38511905Y-51716723D02*
X38464286Y-51526247D01*
X38464286Y-51526247D02*
X38464286Y-51383390D01*
X38464286Y-51383390D02*
X38511905Y-51192914D01*
X38511905Y-51192914D02*
X38559524Y-51097676D01*
X38559524Y-51097676D02*
X38654762Y-51002438D01*
X38654762Y-51002438D02*
X38797619Y-50954819D01*
X38797619Y-50954819D02*
X38892857Y-50954819D01*
X38892857Y-50954819D02*
X39035714Y-51002438D01*
X39035714Y-51002438D02*
X39083333Y-51050057D01*
X39940476Y-50954819D02*
X39750000Y-50954819D01*
X39750000Y-50954819D02*
X39654762Y-51002438D01*
X39654762Y-51002438D02*
X39607143Y-51050057D01*
X39607143Y-51050057D02*
X39511905Y-51192914D01*
X39511905Y-51192914D02*
X39464286Y-51383390D01*
X39464286Y-51383390D02*
X39464286Y-51764342D01*
X39464286Y-51764342D02*
X39511905Y-51859580D01*
X39511905Y-51859580D02*
X39559524Y-51907200D01*
X39559524Y-51907200D02*
X39654762Y-51954819D01*
X39654762Y-51954819D02*
X39845238Y-51954819D01*
X39845238Y-51954819D02*
X39940476Y-51907200D01*
X39940476Y-51907200D02*
X39988095Y-51859580D01*
X39988095Y-51859580D02*
X40035714Y-51764342D01*
X40035714Y-51764342D02*
X40035714Y-51526247D01*
X40035714Y-51526247D02*
X39988095Y-51431009D01*
X39988095Y-51431009D02*
X39940476Y-51383390D01*
X39940476Y-51383390D02*
X39845238Y-51335771D01*
X39845238Y-51335771D02*
X39654762Y-51335771D01*
X39654762Y-51335771D02*
X39559524Y-51383390D01*
X39559524Y-51383390D02*
X39511905Y-51431009D01*
X39511905Y-51431009D02*
X39464286Y-51526247D01*
X88577219Y-108675357D02*
X88101028Y-109008690D01*
X88577219Y-109246785D02*
X87577219Y-109246785D01*
X87577219Y-109246785D02*
X87577219Y-108865833D01*
X87577219Y-108865833D02*
X87624838Y-108770595D01*
X87624838Y-108770595D02*
X87672457Y-108722976D01*
X87672457Y-108722976D02*
X87767695Y-108675357D01*
X87767695Y-108675357D02*
X87910552Y-108675357D01*
X87910552Y-108675357D02*
X88005790Y-108722976D01*
X88005790Y-108722976D02*
X88053409Y-108770595D01*
X88053409Y-108770595D02*
X88101028Y-108865833D01*
X88101028Y-108865833D02*
X88101028Y-109246785D01*
X88577219Y-107722976D02*
X88577219Y-108294404D01*
X88577219Y-108008690D02*
X87577219Y-108008690D01*
X87577219Y-108008690D02*
X87720076Y-108103928D01*
X87720076Y-108103928D02*
X87815314Y-108199166D01*
X87815314Y-108199166D02*
X87862933Y-108294404D01*
X87577219Y-107103928D02*
X87577219Y-107008690D01*
X87577219Y-107008690D02*
X87624838Y-106913452D01*
X87624838Y-106913452D02*
X87672457Y-106865833D01*
X87672457Y-106865833D02*
X87767695Y-106818214D01*
X87767695Y-106818214D02*
X87958171Y-106770595D01*
X87958171Y-106770595D02*
X88196266Y-106770595D01*
X88196266Y-106770595D02*
X88386742Y-106818214D01*
X88386742Y-106818214D02*
X88481980Y-106865833D01*
X88481980Y-106865833D02*
X88529600Y-106913452D01*
X88529600Y-106913452D02*
X88577219Y-107008690D01*
X88577219Y-107008690D02*
X88577219Y-107103928D01*
X88577219Y-107103928D02*
X88529600Y-107199166D01*
X88529600Y-107199166D02*
X88481980Y-107246785D01*
X88481980Y-107246785D02*
X88386742Y-107294404D01*
X88386742Y-107294404D02*
X88196266Y-107342023D01*
X88196266Y-107342023D02*
X87958171Y-107342023D01*
X87958171Y-107342023D02*
X87767695Y-107294404D01*
X87767695Y-107294404D02*
X87672457Y-107246785D01*
X87672457Y-107246785D02*
X87624838Y-107199166D01*
X87624838Y-107199166D02*
X87577219Y-107103928D01*
X88577219Y-99055357D02*
X88101028Y-99388690D01*
X88577219Y-99626785D02*
X87577219Y-99626785D01*
X87577219Y-99626785D02*
X87577219Y-99245833D01*
X87577219Y-99245833D02*
X87624838Y-99150595D01*
X87624838Y-99150595D02*
X87672457Y-99102976D01*
X87672457Y-99102976D02*
X87767695Y-99055357D01*
X87767695Y-99055357D02*
X87910552Y-99055357D01*
X87910552Y-99055357D02*
X88005790Y-99102976D01*
X88005790Y-99102976D02*
X88053409Y-99150595D01*
X88053409Y-99150595D02*
X88101028Y-99245833D01*
X88101028Y-99245833D02*
X88101028Y-99626785D01*
X88577219Y-98102976D02*
X88577219Y-98674404D01*
X88577219Y-98388690D02*
X87577219Y-98388690D01*
X87577219Y-98388690D02*
X87720076Y-98483928D01*
X87720076Y-98483928D02*
X87815314Y-98579166D01*
X87815314Y-98579166D02*
X87862933Y-98674404D01*
X87672457Y-97722023D02*
X87624838Y-97674404D01*
X87624838Y-97674404D02*
X87577219Y-97579166D01*
X87577219Y-97579166D02*
X87577219Y-97341071D01*
X87577219Y-97341071D02*
X87624838Y-97245833D01*
X87624838Y-97245833D02*
X87672457Y-97198214D01*
X87672457Y-97198214D02*
X87767695Y-97150595D01*
X87767695Y-97150595D02*
X87862933Y-97150595D01*
X87862933Y-97150595D02*
X88005790Y-97198214D01*
X88005790Y-97198214D02*
X88577219Y-97769642D01*
X88577219Y-97769642D02*
X88577219Y-97150595D01*
X64838095Y-70544819D02*
X64838095Y-71354342D01*
X64838095Y-71354342D02*
X64885714Y-71449580D01*
X64885714Y-71449580D02*
X64933333Y-71497200D01*
X64933333Y-71497200D02*
X65028571Y-71544819D01*
X65028571Y-71544819D02*
X65219047Y-71544819D01*
X65219047Y-71544819D02*
X65314285Y-71497200D01*
X65314285Y-71497200D02*
X65361904Y-71449580D01*
X65361904Y-71449580D02*
X65409523Y-71354342D01*
X65409523Y-71354342D02*
X65409523Y-70544819D01*
X66028571Y-70973390D02*
X65933333Y-70925771D01*
X65933333Y-70925771D02*
X65885714Y-70878152D01*
X65885714Y-70878152D02*
X65838095Y-70782914D01*
X65838095Y-70782914D02*
X65838095Y-70735295D01*
X65838095Y-70735295D02*
X65885714Y-70640057D01*
X65885714Y-70640057D02*
X65933333Y-70592438D01*
X65933333Y-70592438D02*
X66028571Y-70544819D01*
X66028571Y-70544819D02*
X66219047Y-70544819D01*
X66219047Y-70544819D02*
X66314285Y-70592438D01*
X66314285Y-70592438D02*
X66361904Y-70640057D01*
X66361904Y-70640057D02*
X66409523Y-70735295D01*
X66409523Y-70735295D02*
X66409523Y-70782914D01*
X66409523Y-70782914D02*
X66361904Y-70878152D01*
X66361904Y-70878152D02*
X66314285Y-70925771D01*
X66314285Y-70925771D02*
X66219047Y-70973390D01*
X66219047Y-70973390D02*
X66028571Y-70973390D01*
X66028571Y-70973390D02*
X65933333Y-71021009D01*
X65933333Y-71021009D02*
X65885714Y-71068628D01*
X65885714Y-71068628D02*
X65838095Y-71163866D01*
X65838095Y-71163866D02*
X65838095Y-71354342D01*
X65838095Y-71354342D02*
X65885714Y-71449580D01*
X65885714Y-71449580D02*
X65933333Y-71497200D01*
X65933333Y-71497200D02*
X66028571Y-71544819D01*
X66028571Y-71544819D02*
X66219047Y-71544819D01*
X66219047Y-71544819D02*
X66314285Y-71497200D01*
X66314285Y-71497200D02*
X66361904Y-71449580D01*
X66361904Y-71449580D02*
X66409523Y-71354342D01*
X66409523Y-71354342D02*
X66409523Y-71163866D01*
X66409523Y-71163866D02*
X66361904Y-71068628D01*
X66361904Y-71068628D02*
X66314285Y-71021009D01*
X66314285Y-71021009D02*
X66219047Y-70973390D01*
X49868333Y-26704819D02*
X49535000Y-26228628D01*
X49296905Y-26704819D02*
X49296905Y-25704819D01*
X49296905Y-25704819D02*
X49677857Y-25704819D01*
X49677857Y-25704819D02*
X49773095Y-25752438D01*
X49773095Y-25752438D02*
X49820714Y-25800057D01*
X49820714Y-25800057D02*
X49868333Y-25895295D01*
X49868333Y-25895295D02*
X49868333Y-26038152D01*
X49868333Y-26038152D02*
X49820714Y-26133390D01*
X49820714Y-26133390D02*
X49773095Y-26181009D01*
X49773095Y-26181009D02*
X49677857Y-26228628D01*
X49677857Y-26228628D02*
X49296905Y-26228628D01*
X50201667Y-25704819D02*
X50820714Y-25704819D01*
X50820714Y-25704819D02*
X50487381Y-26085771D01*
X50487381Y-26085771D02*
X50630238Y-26085771D01*
X50630238Y-26085771D02*
X50725476Y-26133390D01*
X50725476Y-26133390D02*
X50773095Y-26181009D01*
X50773095Y-26181009D02*
X50820714Y-26276247D01*
X50820714Y-26276247D02*
X50820714Y-26514342D01*
X50820714Y-26514342D02*
X50773095Y-26609580D01*
X50773095Y-26609580D02*
X50725476Y-26657200D01*
X50725476Y-26657200D02*
X50630238Y-26704819D01*
X50630238Y-26704819D02*
X50344524Y-26704819D01*
X50344524Y-26704819D02*
X50249286Y-26657200D01*
X50249286Y-26657200D02*
X50201667Y-26609580D01*
X80333333Y-48454819D02*
X80000000Y-47978628D01*
X79761905Y-48454819D02*
X79761905Y-47454819D01*
X79761905Y-47454819D02*
X80142857Y-47454819D01*
X80142857Y-47454819D02*
X80238095Y-47502438D01*
X80238095Y-47502438D02*
X80285714Y-47550057D01*
X80285714Y-47550057D02*
X80333333Y-47645295D01*
X80333333Y-47645295D02*
X80333333Y-47788152D01*
X80333333Y-47788152D02*
X80285714Y-47883390D01*
X80285714Y-47883390D02*
X80238095Y-47931009D01*
X80238095Y-47931009D02*
X80142857Y-47978628D01*
X80142857Y-47978628D02*
X79761905Y-47978628D01*
X81238095Y-47454819D02*
X80761905Y-47454819D01*
X80761905Y-47454819D02*
X80714286Y-47931009D01*
X80714286Y-47931009D02*
X80761905Y-47883390D01*
X80761905Y-47883390D02*
X80857143Y-47835771D01*
X80857143Y-47835771D02*
X81095238Y-47835771D01*
X81095238Y-47835771D02*
X81190476Y-47883390D01*
X81190476Y-47883390D02*
X81238095Y-47931009D01*
X81238095Y-47931009D02*
X81285714Y-48026247D01*
X81285714Y-48026247D02*
X81285714Y-48264342D01*
X81285714Y-48264342D02*
X81238095Y-48359580D01*
X81238095Y-48359580D02*
X81190476Y-48407200D01*
X81190476Y-48407200D02*
X81095238Y-48454819D01*
X81095238Y-48454819D02*
X80857143Y-48454819D01*
X80857143Y-48454819D02*
X80761905Y-48407200D01*
X80761905Y-48407200D02*
X80714286Y-48359580D01*
X76611905Y-78364819D02*
X76611905Y-79174342D01*
X76611905Y-79174342D02*
X76659524Y-79269580D01*
X76659524Y-79269580D02*
X76707143Y-79317200D01*
X76707143Y-79317200D02*
X76802381Y-79364819D01*
X76802381Y-79364819D02*
X76992857Y-79364819D01*
X76992857Y-79364819D02*
X77088095Y-79317200D01*
X77088095Y-79317200D02*
X77135714Y-79269580D01*
X77135714Y-79269580D02*
X77183333Y-79174342D01*
X77183333Y-79174342D02*
X77183333Y-78364819D01*
X78183333Y-79364819D02*
X77611905Y-79364819D01*
X77897619Y-79364819D02*
X77897619Y-78364819D01*
X77897619Y-78364819D02*
X77802381Y-78507676D01*
X77802381Y-78507676D02*
X77707143Y-78602914D01*
X77707143Y-78602914D02*
X77611905Y-78650533D01*
X79040476Y-78698152D02*
X79040476Y-79364819D01*
X78802381Y-78317200D02*
X78564286Y-79031485D01*
X78564286Y-79031485D02*
X79183333Y-79031485D01*
X33859580Y-90892857D02*
X33907200Y-90940476D01*
X33907200Y-90940476D02*
X33954819Y-91083333D01*
X33954819Y-91083333D02*
X33954819Y-91178571D01*
X33954819Y-91178571D02*
X33907200Y-91321428D01*
X33907200Y-91321428D02*
X33811961Y-91416666D01*
X33811961Y-91416666D02*
X33716723Y-91464285D01*
X33716723Y-91464285D02*
X33526247Y-91511904D01*
X33526247Y-91511904D02*
X33383390Y-91511904D01*
X33383390Y-91511904D02*
X33192914Y-91464285D01*
X33192914Y-91464285D02*
X33097676Y-91416666D01*
X33097676Y-91416666D02*
X33002438Y-91321428D01*
X33002438Y-91321428D02*
X32954819Y-91178571D01*
X32954819Y-91178571D02*
X32954819Y-91083333D01*
X32954819Y-91083333D02*
X33002438Y-90940476D01*
X33002438Y-90940476D02*
X33050057Y-90892857D01*
X32954819Y-90559523D02*
X32954819Y-89940476D01*
X32954819Y-89940476D02*
X33335771Y-90273809D01*
X33335771Y-90273809D02*
X33335771Y-90130952D01*
X33335771Y-90130952D02*
X33383390Y-90035714D01*
X33383390Y-90035714D02*
X33431009Y-89988095D01*
X33431009Y-89988095D02*
X33526247Y-89940476D01*
X33526247Y-89940476D02*
X33764342Y-89940476D01*
X33764342Y-89940476D02*
X33859580Y-89988095D01*
X33859580Y-89988095D02*
X33907200Y-90035714D01*
X33907200Y-90035714D02*
X33954819Y-90130952D01*
X33954819Y-90130952D02*
X33954819Y-90416666D01*
X33954819Y-90416666D02*
X33907200Y-90511904D01*
X33907200Y-90511904D02*
X33859580Y-90559523D01*
X32954819Y-89607142D02*
X32954819Y-88940476D01*
X32954819Y-88940476D02*
X33954819Y-89369047D01*
X111545224Y-105783163D02*
X112260055Y-105783163D01*
X112260055Y-105783163D02*
X112403022Y-105830818D01*
X112403022Y-105830818D02*
X112498333Y-105926129D01*
X112498333Y-105926129D02*
X112545988Y-106069095D01*
X112545988Y-106069095D02*
X112545988Y-106164406D01*
X112545988Y-104782399D02*
X112545988Y-105354264D01*
X112545988Y-105068331D02*
X111545224Y-105068331D01*
X111545224Y-105068331D02*
X111688190Y-105163642D01*
X111688190Y-105163642D02*
X111783501Y-105258953D01*
X111783501Y-105258953D02*
X111831157Y-105354264D01*
X64466905Y-85864819D02*
X64466905Y-86674342D01*
X64466905Y-86674342D02*
X64514524Y-86769580D01*
X64514524Y-86769580D02*
X64562143Y-86817200D01*
X64562143Y-86817200D02*
X64657381Y-86864819D01*
X64657381Y-86864819D02*
X64847857Y-86864819D01*
X64847857Y-86864819D02*
X64943095Y-86817200D01*
X64943095Y-86817200D02*
X64990714Y-86769580D01*
X64990714Y-86769580D02*
X65038333Y-86674342D01*
X65038333Y-86674342D02*
X65038333Y-85864819D01*
X66038333Y-86864819D02*
X65466905Y-86864819D01*
X65752619Y-86864819D02*
X65752619Y-85864819D01*
X65752619Y-85864819D02*
X65657381Y-86007676D01*
X65657381Y-86007676D02*
X65562143Y-86102914D01*
X65562143Y-86102914D02*
X65466905Y-86150533D01*
X66943095Y-85864819D02*
X66466905Y-85864819D01*
X66466905Y-85864819D02*
X66419286Y-86341009D01*
X66419286Y-86341009D02*
X66466905Y-86293390D01*
X66466905Y-86293390D02*
X66562143Y-86245771D01*
X66562143Y-86245771D02*
X66800238Y-86245771D01*
X66800238Y-86245771D02*
X66895476Y-86293390D01*
X66895476Y-86293390D02*
X66943095Y-86341009D01*
X66943095Y-86341009D02*
X66990714Y-86436247D01*
X66990714Y-86436247D02*
X66990714Y-86674342D01*
X66990714Y-86674342D02*
X66943095Y-86769580D01*
X66943095Y-86769580D02*
X66895476Y-86817200D01*
X66895476Y-86817200D02*
X66800238Y-86864819D01*
X66800238Y-86864819D02*
X66562143Y-86864819D01*
X66562143Y-86864819D02*
X66466905Y-86817200D01*
X66466905Y-86817200D02*
X66419286Y-86769580D01*
X125814819Y-74681904D02*
X126624342Y-74681904D01*
X126624342Y-74681904D02*
X126719580Y-74634285D01*
X126719580Y-74634285D02*
X126767200Y-74586666D01*
X126767200Y-74586666D02*
X126814819Y-74491428D01*
X126814819Y-74491428D02*
X126814819Y-74300952D01*
X126814819Y-74300952D02*
X126767200Y-74205714D01*
X126767200Y-74205714D02*
X126719580Y-74158095D01*
X126719580Y-74158095D02*
X126624342Y-74110476D01*
X126624342Y-74110476D02*
X125814819Y-74110476D01*
X126814819Y-73110476D02*
X126814819Y-73681904D01*
X126814819Y-73396190D02*
X125814819Y-73396190D01*
X125814819Y-73396190D02*
X125957676Y-73491428D01*
X125957676Y-73491428D02*
X126052914Y-73586666D01*
X126052914Y-73586666D02*
X126100533Y-73681904D01*
X33859580Y-54416666D02*
X33907200Y-54464285D01*
X33907200Y-54464285D02*
X33954819Y-54607142D01*
X33954819Y-54607142D02*
X33954819Y-54702380D01*
X33954819Y-54702380D02*
X33907200Y-54845237D01*
X33907200Y-54845237D02*
X33811961Y-54940475D01*
X33811961Y-54940475D02*
X33716723Y-54988094D01*
X33716723Y-54988094D02*
X33526247Y-55035713D01*
X33526247Y-55035713D02*
X33383390Y-55035713D01*
X33383390Y-55035713D02*
X33192914Y-54988094D01*
X33192914Y-54988094D02*
X33097676Y-54940475D01*
X33097676Y-54940475D02*
X33002438Y-54845237D01*
X33002438Y-54845237D02*
X32954819Y-54702380D01*
X32954819Y-54702380D02*
X32954819Y-54607142D01*
X32954819Y-54607142D02*
X33002438Y-54464285D01*
X33002438Y-54464285D02*
X33050057Y-54416666D01*
X32954819Y-54083332D02*
X32954819Y-53416666D01*
X32954819Y-53416666D02*
X33954819Y-53845237D01*
X40357142Y-84449580D02*
X40309523Y-84497200D01*
X40309523Y-84497200D02*
X40166666Y-84544819D01*
X40166666Y-84544819D02*
X40071428Y-84544819D01*
X40071428Y-84544819D02*
X39928571Y-84497200D01*
X39928571Y-84497200D02*
X39833333Y-84401961D01*
X39833333Y-84401961D02*
X39785714Y-84306723D01*
X39785714Y-84306723D02*
X39738095Y-84116247D01*
X39738095Y-84116247D02*
X39738095Y-83973390D01*
X39738095Y-83973390D02*
X39785714Y-83782914D01*
X39785714Y-83782914D02*
X39833333Y-83687676D01*
X39833333Y-83687676D02*
X39928571Y-83592438D01*
X39928571Y-83592438D02*
X40071428Y-83544819D01*
X40071428Y-83544819D02*
X40166666Y-83544819D01*
X40166666Y-83544819D02*
X40309523Y-83592438D01*
X40309523Y-83592438D02*
X40357142Y-83640057D01*
X40738095Y-83640057D02*
X40785714Y-83592438D01*
X40785714Y-83592438D02*
X40880952Y-83544819D01*
X40880952Y-83544819D02*
X41119047Y-83544819D01*
X41119047Y-83544819D02*
X41214285Y-83592438D01*
X41214285Y-83592438D02*
X41261904Y-83640057D01*
X41261904Y-83640057D02*
X41309523Y-83735295D01*
X41309523Y-83735295D02*
X41309523Y-83830533D01*
X41309523Y-83830533D02*
X41261904Y-83973390D01*
X41261904Y-83973390D02*
X40690476Y-84544819D01*
X40690476Y-84544819D02*
X41309523Y-84544819D01*
X41785714Y-84544819D02*
X41976190Y-84544819D01*
X41976190Y-84544819D02*
X42071428Y-84497200D01*
X42071428Y-84497200D02*
X42119047Y-84449580D01*
X42119047Y-84449580D02*
X42214285Y-84306723D01*
X42214285Y-84306723D02*
X42261904Y-84116247D01*
X42261904Y-84116247D02*
X42261904Y-83735295D01*
X42261904Y-83735295D02*
X42214285Y-83640057D01*
X42214285Y-83640057D02*
X42166666Y-83592438D01*
X42166666Y-83592438D02*
X42071428Y-83544819D01*
X42071428Y-83544819D02*
X41880952Y-83544819D01*
X41880952Y-83544819D02*
X41785714Y-83592438D01*
X41785714Y-83592438D02*
X41738095Y-83640057D01*
X41738095Y-83640057D02*
X41690476Y-83735295D01*
X41690476Y-83735295D02*
X41690476Y-83973390D01*
X41690476Y-83973390D02*
X41738095Y-84068628D01*
X41738095Y-84068628D02*
X41785714Y-84116247D01*
X41785714Y-84116247D02*
X41880952Y-84163866D01*
X41880952Y-84163866D02*
X42071428Y-84163866D01*
X42071428Y-84163866D02*
X42166666Y-84116247D01*
X42166666Y-84116247D02*
X42214285Y-84068628D01*
X42214285Y-84068628D02*
X42261904Y-83973390D01*
X38607142Y-105859580D02*
X38559523Y-105907200D01*
X38559523Y-105907200D02*
X38416666Y-105954819D01*
X38416666Y-105954819D02*
X38321428Y-105954819D01*
X38321428Y-105954819D02*
X38178571Y-105907200D01*
X38178571Y-105907200D02*
X38083333Y-105811961D01*
X38083333Y-105811961D02*
X38035714Y-105716723D01*
X38035714Y-105716723D02*
X37988095Y-105526247D01*
X37988095Y-105526247D02*
X37988095Y-105383390D01*
X37988095Y-105383390D02*
X38035714Y-105192914D01*
X38035714Y-105192914D02*
X38083333Y-105097676D01*
X38083333Y-105097676D02*
X38178571Y-105002438D01*
X38178571Y-105002438D02*
X38321428Y-104954819D01*
X38321428Y-104954819D02*
X38416666Y-104954819D01*
X38416666Y-104954819D02*
X38559523Y-105002438D01*
X38559523Y-105002438D02*
X38607142Y-105050057D01*
X38940476Y-104954819D02*
X39559523Y-104954819D01*
X39559523Y-104954819D02*
X39226190Y-105335771D01*
X39226190Y-105335771D02*
X39369047Y-105335771D01*
X39369047Y-105335771D02*
X39464285Y-105383390D01*
X39464285Y-105383390D02*
X39511904Y-105431009D01*
X39511904Y-105431009D02*
X39559523Y-105526247D01*
X39559523Y-105526247D02*
X39559523Y-105764342D01*
X39559523Y-105764342D02*
X39511904Y-105859580D01*
X39511904Y-105859580D02*
X39464285Y-105907200D01*
X39464285Y-105907200D02*
X39369047Y-105954819D01*
X39369047Y-105954819D02*
X39083333Y-105954819D01*
X39083333Y-105954819D02*
X38988095Y-105907200D01*
X38988095Y-105907200D02*
X38940476Y-105859580D01*
X40416666Y-104954819D02*
X40226190Y-104954819D01*
X40226190Y-104954819D02*
X40130952Y-105002438D01*
X40130952Y-105002438D02*
X40083333Y-105050057D01*
X40083333Y-105050057D02*
X39988095Y-105192914D01*
X39988095Y-105192914D02*
X39940476Y-105383390D01*
X39940476Y-105383390D02*
X39940476Y-105764342D01*
X39940476Y-105764342D02*
X39988095Y-105859580D01*
X39988095Y-105859580D02*
X40035714Y-105907200D01*
X40035714Y-105907200D02*
X40130952Y-105954819D01*
X40130952Y-105954819D02*
X40321428Y-105954819D01*
X40321428Y-105954819D02*
X40416666Y-105907200D01*
X40416666Y-105907200D02*
X40464285Y-105859580D01*
X40464285Y-105859580D02*
X40511904Y-105764342D01*
X40511904Y-105764342D02*
X40511904Y-105526247D01*
X40511904Y-105526247D02*
X40464285Y-105431009D01*
X40464285Y-105431009D02*
X40416666Y-105383390D01*
X40416666Y-105383390D02*
X40321428Y-105335771D01*
X40321428Y-105335771D02*
X40130952Y-105335771D01*
X40130952Y-105335771D02*
X40035714Y-105383390D01*
X40035714Y-105383390D02*
X39988095Y-105431009D01*
X39988095Y-105431009D02*
X39940476Y-105526247D01*
X75419580Y-32126666D02*
X75467200Y-32174285D01*
X75467200Y-32174285D02*
X75514819Y-32317142D01*
X75514819Y-32317142D02*
X75514819Y-32412380D01*
X75514819Y-32412380D02*
X75467200Y-32555237D01*
X75467200Y-32555237D02*
X75371961Y-32650475D01*
X75371961Y-32650475D02*
X75276723Y-32698094D01*
X75276723Y-32698094D02*
X75086247Y-32745713D01*
X75086247Y-32745713D02*
X74943390Y-32745713D01*
X74943390Y-32745713D02*
X74752914Y-32698094D01*
X74752914Y-32698094D02*
X74657676Y-32650475D01*
X74657676Y-32650475D02*
X74562438Y-32555237D01*
X74562438Y-32555237D02*
X74514819Y-32412380D01*
X74514819Y-32412380D02*
X74514819Y-32317142D01*
X74514819Y-32317142D02*
X74562438Y-32174285D01*
X74562438Y-32174285D02*
X74610057Y-32126666D01*
X74610057Y-31745713D02*
X74562438Y-31698094D01*
X74562438Y-31698094D02*
X74514819Y-31602856D01*
X74514819Y-31602856D02*
X74514819Y-31364761D01*
X74514819Y-31364761D02*
X74562438Y-31269523D01*
X74562438Y-31269523D02*
X74610057Y-31221904D01*
X74610057Y-31221904D02*
X74705295Y-31174285D01*
X74705295Y-31174285D02*
X74800533Y-31174285D01*
X74800533Y-31174285D02*
X74943390Y-31221904D01*
X74943390Y-31221904D02*
X75514819Y-31793332D01*
X75514819Y-31793332D02*
X75514819Y-31174285D01*
X38357142Y-90359580D02*
X38309523Y-90407200D01*
X38309523Y-90407200D02*
X38166666Y-90454819D01*
X38166666Y-90454819D02*
X38071428Y-90454819D01*
X38071428Y-90454819D02*
X37928571Y-90407200D01*
X37928571Y-90407200D02*
X37833333Y-90311961D01*
X37833333Y-90311961D02*
X37785714Y-90216723D01*
X37785714Y-90216723D02*
X37738095Y-90026247D01*
X37738095Y-90026247D02*
X37738095Y-89883390D01*
X37738095Y-89883390D02*
X37785714Y-89692914D01*
X37785714Y-89692914D02*
X37833333Y-89597676D01*
X37833333Y-89597676D02*
X37928571Y-89502438D01*
X37928571Y-89502438D02*
X38071428Y-89454819D01*
X38071428Y-89454819D02*
X38166666Y-89454819D01*
X38166666Y-89454819D02*
X38309523Y-89502438D01*
X38309523Y-89502438D02*
X38357142Y-89550057D01*
X38690476Y-89454819D02*
X39309523Y-89454819D01*
X39309523Y-89454819D02*
X38976190Y-89835771D01*
X38976190Y-89835771D02*
X39119047Y-89835771D01*
X39119047Y-89835771D02*
X39214285Y-89883390D01*
X39214285Y-89883390D02*
X39261904Y-89931009D01*
X39261904Y-89931009D02*
X39309523Y-90026247D01*
X39309523Y-90026247D02*
X39309523Y-90264342D01*
X39309523Y-90264342D02*
X39261904Y-90359580D01*
X39261904Y-90359580D02*
X39214285Y-90407200D01*
X39214285Y-90407200D02*
X39119047Y-90454819D01*
X39119047Y-90454819D02*
X38833333Y-90454819D01*
X38833333Y-90454819D02*
X38738095Y-90407200D01*
X38738095Y-90407200D02*
X38690476Y-90359580D01*
X40261904Y-90454819D02*
X39690476Y-90454819D01*
X39976190Y-90454819D02*
X39976190Y-89454819D01*
X39976190Y-89454819D02*
X39880952Y-89597676D01*
X39880952Y-89597676D02*
X39785714Y-89692914D01*
X39785714Y-89692914D02*
X39690476Y-89740533D01*
X38199580Y-56392857D02*
X38247200Y-56440476D01*
X38247200Y-56440476D02*
X38294819Y-56583333D01*
X38294819Y-56583333D02*
X38294819Y-56678571D01*
X38294819Y-56678571D02*
X38247200Y-56821428D01*
X38247200Y-56821428D02*
X38151961Y-56916666D01*
X38151961Y-56916666D02*
X38056723Y-56964285D01*
X38056723Y-56964285D02*
X37866247Y-57011904D01*
X37866247Y-57011904D02*
X37723390Y-57011904D01*
X37723390Y-57011904D02*
X37532914Y-56964285D01*
X37532914Y-56964285D02*
X37437676Y-56916666D01*
X37437676Y-56916666D02*
X37342438Y-56821428D01*
X37342438Y-56821428D02*
X37294819Y-56678571D01*
X37294819Y-56678571D02*
X37294819Y-56583333D01*
X37294819Y-56583333D02*
X37342438Y-56440476D01*
X37342438Y-56440476D02*
X37390057Y-56392857D01*
X38294819Y-55440476D02*
X38294819Y-56011904D01*
X38294819Y-55726190D02*
X37294819Y-55726190D01*
X37294819Y-55726190D02*
X37437676Y-55821428D01*
X37437676Y-55821428D02*
X37532914Y-55916666D01*
X37532914Y-55916666D02*
X37580533Y-56011904D01*
X38294819Y-54488095D02*
X38294819Y-55059523D01*
X38294819Y-54773809D02*
X37294819Y-54773809D01*
X37294819Y-54773809D02*
X37437676Y-54869047D01*
X37437676Y-54869047D02*
X37532914Y-54964285D01*
X37532914Y-54964285D02*
X37580533Y-55059523D01*
X38199580Y-37916666D02*
X38247200Y-37964285D01*
X38247200Y-37964285D02*
X38294819Y-38107142D01*
X38294819Y-38107142D02*
X38294819Y-38202380D01*
X38294819Y-38202380D02*
X38247200Y-38345237D01*
X38247200Y-38345237D02*
X38151961Y-38440475D01*
X38151961Y-38440475D02*
X38056723Y-38488094D01*
X38056723Y-38488094D02*
X37866247Y-38535713D01*
X37866247Y-38535713D02*
X37723390Y-38535713D01*
X37723390Y-38535713D02*
X37532914Y-38488094D01*
X37532914Y-38488094D02*
X37437676Y-38440475D01*
X37437676Y-38440475D02*
X37342438Y-38345237D01*
X37342438Y-38345237D02*
X37294819Y-38202380D01*
X37294819Y-38202380D02*
X37294819Y-38107142D01*
X37294819Y-38107142D02*
X37342438Y-37964285D01*
X37342438Y-37964285D02*
X37390057Y-37916666D01*
X38294819Y-36964285D02*
X38294819Y-37535713D01*
X38294819Y-37249999D02*
X37294819Y-37249999D01*
X37294819Y-37249999D02*
X37437676Y-37345237D01*
X37437676Y-37345237D02*
X37532914Y-37440475D01*
X37532914Y-37440475D02*
X37580533Y-37535713D01*
X75233365Y-43763661D02*
X75138127Y-43716042D01*
X75138127Y-43716042D02*
X75042889Y-43620804D01*
X75042889Y-43620804D02*
X74900032Y-43477946D01*
X74900032Y-43477946D02*
X74804794Y-43430327D01*
X74804794Y-43430327D02*
X74709556Y-43430327D01*
X74757175Y-43668423D02*
X74661937Y-43620804D01*
X74661937Y-43620804D02*
X74566699Y-43525565D01*
X74566699Y-43525565D02*
X74519080Y-43335089D01*
X74519080Y-43335089D02*
X74519080Y-43001756D01*
X74519080Y-43001756D02*
X74566699Y-42811280D01*
X74566699Y-42811280D02*
X74661937Y-42716042D01*
X74661937Y-42716042D02*
X74757175Y-42668423D01*
X74757175Y-42668423D02*
X74947651Y-42668423D01*
X74947651Y-42668423D02*
X75042889Y-42716042D01*
X75042889Y-42716042D02*
X75138127Y-42811280D01*
X75138127Y-42811280D02*
X75185746Y-43001756D01*
X75185746Y-43001756D02*
X75185746Y-43335089D01*
X75185746Y-43335089D02*
X75138127Y-43525565D01*
X75138127Y-43525565D02*
X75042889Y-43620804D01*
X75042889Y-43620804D02*
X74947651Y-43668423D01*
X74947651Y-43668423D02*
X74757175Y-43668423D01*
X75566699Y-42763661D02*
X75614318Y-42716042D01*
X75614318Y-42716042D02*
X75709556Y-42668423D01*
X75709556Y-42668423D02*
X75947651Y-42668423D01*
X75947651Y-42668423D02*
X76042889Y-42716042D01*
X76042889Y-42716042D02*
X76090508Y-42763661D01*
X76090508Y-42763661D02*
X76138127Y-42858899D01*
X76138127Y-42858899D02*
X76138127Y-42954137D01*
X76138127Y-42954137D02*
X76090508Y-43096994D01*
X76090508Y-43096994D02*
X75519080Y-43668423D01*
X75519080Y-43668423D02*
X76138127Y-43668423D01*
X76114580Y-94772857D02*
X76162200Y-94820476D01*
X76162200Y-94820476D02*
X76209819Y-94963333D01*
X76209819Y-94963333D02*
X76209819Y-95058571D01*
X76209819Y-95058571D02*
X76162200Y-95201428D01*
X76162200Y-95201428D02*
X76066961Y-95296666D01*
X76066961Y-95296666D02*
X75971723Y-95344285D01*
X75971723Y-95344285D02*
X75781247Y-95391904D01*
X75781247Y-95391904D02*
X75638390Y-95391904D01*
X75638390Y-95391904D02*
X75447914Y-95344285D01*
X75447914Y-95344285D02*
X75352676Y-95296666D01*
X75352676Y-95296666D02*
X75257438Y-95201428D01*
X75257438Y-95201428D02*
X75209819Y-95058571D01*
X75209819Y-95058571D02*
X75209819Y-94963333D01*
X75209819Y-94963333D02*
X75257438Y-94820476D01*
X75257438Y-94820476D02*
X75305057Y-94772857D01*
X75305057Y-94391904D02*
X75257438Y-94344285D01*
X75257438Y-94344285D02*
X75209819Y-94249047D01*
X75209819Y-94249047D02*
X75209819Y-94010952D01*
X75209819Y-94010952D02*
X75257438Y-93915714D01*
X75257438Y-93915714D02*
X75305057Y-93868095D01*
X75305057Y-93868095D02*
X75400295Y-93820476D01*
X75400295Y-93820476D02*
X75495533Y-93820476D01*
X75495533Y-93820476D02*
X75638390Y-93868095D01*
X75638390Y-93868095D02*
X76209819Y-94439523D01*
X76209819Y-94439523D02*
X76209819Y-93820476D01*
X75209819Y-93487142D02*
X75209819Y-92868095D01*
X75209819Y-92868095D02*
X75590771Y-93201428D01*
X75590771Y-93201428D02*
X75590771Y-93058571D01*
X75590771Y-93058571D02*
X75638390Y-92963333D01*
X75638390Y-92963333D02*
X75686009Y-92915714D01*
X75686009Y-92915714D02*
X75781247Y-92868095D01*
X75781247Y-92868095D02*
X76019342Y-92868095D01*
X76019342Y-92868095D02*
X76114580Y-92915714D01*
X76114580Y-92915714D02*
X76162200Y-92963333D01*
X76162200Y-92963333D02*
X76209819Y-93058571D01*
X76209819Y-93058571D02*
X76209819Y-93344285D01*
X76209819Y-93344285D02*
X76162200Y-93439523D01*
X76162200Y-93439523D02*
X76114580Y-93487142D01*
X88511905Y-84864819D02*
X88511905Y-85674342D01*
X88511905Y-85674342D02*
X88559524Y-85769580D01*
X88559524Y-85769580D02*
X88607143Y-85817200D01*
X88607143Y-85817200D02*
X88702381Y-85864819D01*
X88702381Y-85864819D02*
X88892857Y-85864819D01*
X88892857Y-85864819D02*
X88988095Y-85817200D01*
X88988095Y-85817200D02*
X89035714Y-85769580D01*
X89035714Y-85769580D02*
X89083333Y-85674342D01*
X89083333Y-85674342D02*
X89083333Y-84864819D01*
X90083333Y-85864819D02*
X89511905Y-85864819D01*
X89797619Y-85864819D02*
X89797619Y-84864819D01*
X89797619Y-84864819D02*
X89702381Y-85007676D01*
X89702381Y-85007676D02*
X89607143Y-85102914D01*
X89607143Y-85102914D02*
X89511905Y-85150533D01*
X90464286Y-84960057D02*
X90511905Y-84912438D01*
X90511905Y-84912438D02*
X90607143Y-84864819D01*
X90607143Y-84864819D02*
X90845238Y-84864819D01*
X90845238Y-84864819D02*
X90940476Y-84912438D01*
X90940476Y-84912438D02*
X90988095Y-84960057D01*
X90988095Y-84960057D02*
X91035714Y-85055295D01*
X91035714Y-85055295D02*
X91035714Y-85150533D01*
X91035714Y-85150533D02*
X90988095Y-85293390D01*
X90988095Y-85293390D02*
X90416667Y-85864819D01*
X90416667Y-85864819D02*
X91035714Y-85864819D01*
X40357142Y-102449580D02*
X40309523Y-102497200D01*
X40309523Y-102497200D02*
X40166666Y-102544819D01*
X40166666Y-102544819D02*
X40071428Y-102544819D01*
X40071428Y-102544819D02*
X39928571Y-102497200D01*
X39928571Y-102497200D02*
X39833333Y-102401961D01*
X39833333Y-102401961D02*
X39785714Y-102306723D01*
X39785714Y-102306723D02*
X39738095Y-102116247D01*
X39738095Y-102116247D02*
X39738095Y-101973390D01*
X39738095Y-101973390D02*
X39785714Y-101782914D01*
X39785714Y-101782914D02*
X39833333Y-101687676D01*
X39833333Y-101687676D02*
X39928571Y-101592438D01*
X39928571Y-101592438D02*
X40071428Y-101544819D01*
X40071428Y-101544819D02*
X40166666Y-101544819D01*
X40166666Y-101544819D02*
X40309523Y-101592438D01*
X40309523Y-101592438D02*
X40357142Y-101640057D01*
X40690476Y-101544819D02*
X41309523Y-101544819D01*
X41309523Y-101544819D02*
X40976190Y-101925771D01*
X40976190Y-101925771D02*
X41119047Y-101925771D01*
X41119047Y-101925771D02*
X41214285Y-101973390D01*
X41214285Y-101973390D02*
X41261904Y-102021009D01*
X41261904Y-102021009D02*
X41309523Y-102116247D01*
X41309523Y-102116247D02*
X41309523Y-102354342D01*
X41309523Y-102354342D02*
X41261904Y-102449580D01*
X41261904Y-102449580D02*
X41214285Y-102497200D01*
X41214285Y-102497200D02*
X41119047Y-102544819D01*
X41119047Y-102544819D02*
X40833333Y-102544819D01*
X40833333Y-102544819D02*
X40738095Y-102497200D01*
X40738095Y-102497200D02*
X40690476Y-102449580D01*
X41785714Y-102544819D02*
X41976190Y-102544819D01*
X41976190Y-102544819D02*
X42071428Y-102497200D01*
X42071428Y-102497200D02*
X42119047Y-102449580D01*
X42119047Y-102449580D02*
X42214285Y-102306723D01*
X42214285Y-102306723D02*
X42261904Y-102116247D01*
X42261904Y-102116247D02*
X42261904Y-101735295D01*
X42261904Y-101735295D02*
X42214285Y-101640057D01*
X42214285Y-101640057D02*
X42166666Y-101592438D01*
X42166666Y-101592438D02*
X42071428Y-101544819D01*
X42071428Y-101544819D02*
X41880952Y-101544819D01*
X41880952Y-101544819D02*
X41785714Y-101592438D01*
X41785714Y-101592438D02*
X41738095Y-101640057D01*
X41738095Y-101640057D02*
X41690476Y-101735295D01*
X41690476Y-101735295D02*
X41690476Y-101973390D01*
X41690476Y-101973390D02*
X41738095Y-102068628D01*
X41738095Y-102068628D02*
X41785714Y-102116247D01*
X41785714Y-102116247D02*
X41880952Y-102163866D01*
X41880952Y-102163866D02*
X42071428Y-102163866D01*
X42071428Y-102163866D02*
X42166666Y-102116247D01*
X42166666Y-102116247D02*
X42214285Y-102068628D01*
X42214285Y-102068628D02*
X42261904Y-101973390D01*
X36295180Y-78511905D02*
X35485657Y-78511905D01*
X35485657Y-78511905D02*
X35390419Y-78559524D01*
X35390419Y-78559524D02*
X35342800Y-78607143D01*
X35342800Y-78607143D02*
X35295180Y-78702381D01*
X35295180Y-78702381D02*
X35295180Y-78892857D01*
X35295180Y-78892857D02*
X35342800Y-78988095D01*
X35342800Y-78988095D02*
X35390419Y-79035714D01*
X35390419Y-79035714D02*
X35485657Y-79083333D01*
X35485657Y-79083333D02*
X36295180Y-79083333D01*
X35295180Y-80083333D02*
X35295180Y-79511905D01*
X35295180Y-79797619D02*
X36295180Y-79797619D01*
X36295180Y-79797619D02*
X36152323Y-79702381D01*
X36152323Y-79702381D02*
X36057085Y-79607143D01*
X36057085Y-79607143D02*
X36009466Y-79511905D01*
X36295180Y-80940476D02*
X36295180Y-80750000D01*
X36295180Y-80750000D02*
X36247561Y-80654762D01*
X36247561Y-80654762D02*
X36199942Y-80607143D01*
X36199942Y-80607143D02*
X36057085Y-80511905D01*
X36057085Y-80511905D02*
X35866609Y-80464286D01*
X35866609Y-80464286D02*
X35485657Y-80464286D01*
X35485657Y-80464286D02*
X35390419Y-80511905D01*
X35390419Y-80511905D02*
X35342800Y-80559524D01*
X35342800Y-80559524D02*
X35295180Y-80654762D01*
X35295180Y-80654762D02*
X35295180Y-80845238D01*
X35295180Y-80845238D02*
X35342800Y-80940476D01*
X35342800Y-80940476D02*
X35390419Y-80988095D01*
X35390419Y-80988095D02*
X35485657Y-81035714D01*
X35485657Y-81035714D02*
X35723752Y-81035714D01*
X35723752Y-81035714D02*
X35818990Y-80988095D01*
X35818990Y-80988095D02*
X35866609Y-80940476D01*
X35866609Y-80940476D02*
X35914228Y-80845238D01*
X35914228Y-80845238D02*
X35914228Y-80654762D01*
X35914228Y-80654762D02*
X35866609Y-80559524D01*
X35866609Y-80559524D02*
X35818990Y-80511905D01*
X35818990Y-80511905D02*
X35723752Y-80464286D01*
X51819580Y-49066666D02*
X51867200Y-49114285D01*
X51867200Y-49114285D02*
X51914819Y-49257142D01*
X51914819Y-49257142D02*
X51914819Y-49352380D01*
X51914819Y-49352380D02*
X51867200Y-49495237D01*
X51867200Y-49495237D02*
X51771961Y-49590475D01*
X51771961Y-49590475D02*
X51676723Y-49638094D01*
X51676723Y-49638094D02*
X51486247Y-49685713D01*
X51486247Y-49685713D02*
X51343390Y-49685713D01*
X51343390Y-49685713D02*
X51152914Y-49638094D01*
X51152914Y-49638094D02*
X51057676Y-49590475D01*
X51057676Y-49590475D02*
X50962438Y-49495237D01*
X50962438Y-49495237D02*
X50914819Y-49352380D01*
X50914819Y-49352380D02*
X50914819Y-49257142D01*
X50914819Y-49257142D02*
X50962438Y-49114285D01*
X50962438Y-49114285D02*
X51010057Y-49066666D01*
X50914819Y-48161904D02*
X50914819Y-48638094D01*
X50914819Y-48638094D02*
X51391009Y-48685713D01*
X51391009Y-48685713D02*
X51343390Y-48638094D01*
X51343390Y-48638094D02*
X51295771Y-48542856D01*
X51295771Y-48542856D02*
X51295771Y-48304761D01*
X51295771Y-48304761D02*
X51343390Y-48209523D01*
X51343390Y-48209523D02*
X51391009Y-48161904D01*
X51391009Y-48161904D02*
X51486247Y-48114285D01*
X51486247Y-48114285D02*
X51724342Y-48114285D01*
X51724342Y-48114285D02*
X51819580Y-48161904D01*
X51819580Y-48161904D02*
X51867200Y-48209523D01*
X51867200Y-48209523D02*
X51914819Y-48304761D01*
X51914819Y-48304761D02*
X51914819Y-48542856D01*
X51914819Y-48542856D02*
X51867200Y-48638094D01*
X51867200Y-48638094D02*
X51819580Y-48685713D01*
X76611905Y-92864819D02*
X76611905Y-93674342D01*
X76611905Y-93674342D02*
X76659524Y-93769580D01*
X76659524Y-93769580D02*
X76707143Y-93817200D01*
X76707143Y-93817200D02*
X76802381Y-93864819D01*
X76802381Y-93864819D02*
X76992857Y-93864819D01*
X76992857Y-93864819D02*
X77088095Y-93817200D01*
X77088095Y-93817200D02*
X77135714Y-93769580D01*
X77135714Y-93769580D02*
X77183333Y-93674342D01*
X77183333Y-93674342D02*
X77183333Y-92864819D01*
X78183333Y-93864819D02*
X77611905Y-93864819D01*
X77897619Y-93864819D02*
X77897619Y-92864819D01*
X77897619Y-92864819D02*
X77802381Y-93007676D01*
X77802381Y-93007676D02*
X77707143Y-93102914D01*
X77707143Y-93102914D02*
X77611905Y-93150533D01*
X78516667Y-92864819D02*
X79135714Y-92864819D01*
X79135714Y-92864819D02*
X78802381Y-93245771D01*
X78802381Y-93245771D02*
X78945238Y-93245771D01*
X78945238Y-93245771D02*
X79040476Y-93293390D01*
X79040476Y-93293390D02*
X79088095Y-93341009D01*
X79088095Y-93341009D02*
X79135714Y-93436247D01*
X79135714Y-93436247D02*
X79135714Y-93674342D01*
X79135714Y-93674342D02*
X79088095Y-93769580D01*
X79088095Y-93769580D02*
X79040476Y-93817200D01*
X79040476Y-93817200D02*
X78945238Y-93864819D01*
X78945238Y-93864819D02*
X78659524Y-93864819D01*
X78659524Y-93864819D02*
X78564286Y-93817200D01*
X78564286Y-93817200D02*
X78516667Y-93769580D01*
X62011905Y-115364819D02*
X62011905Y-116174342D01*
X62011905Y-116174342D02*
X62059524Y-116269580D01*
X62059524Y-116269580D02*
X62107143Y-116317200D01*
X62107143Y-116317200D02*
X62202381Y-116364819D01*
X62202381Y-116364819D02*
X62392857Y-116364819D01*
X62392857Y-116364819D02*
X62488095Y-116317200D01*
X62488095Y-116317200D02*
X62535714Y-116269580D01*
X62535714Y-116269580D02*
X62583333Y-116174342D01*
X62583333Y-116174342D02*
X62583333Y-115364819D01*
X63583333Y-116364819D02*
X63011905Y-116364819D01*
X63297619Y-116364819D02*
X63297619Y-115364819D01*
X63297619Y-115364819D02*
X63202381Y-115507676D01*
X63202381Y-115507676D02*
X63107143Y-115602914D01*
X63107143Y-115602914D02*
X63011905Y-115650533D01*
X64154762Y-115793390D02*
X64059524Y-115745771D01*
X64059524Y-115745771D02*
X64011905Y-115698152D01*
X64011905Y-115698152D02*
X63964286Y-115602914D01*
X63964286Y-115602914D02*
X63964286Y-115555295D01*
X63964286Y-115555295D02*
X64011905Y-115460057D01*
X64011905Y-115460057D02*
X64059524Y-115412438D01*
X64059524Y-115412438D02*
X64154762Y-115364819D01*
X64154762Y-115364819D02*
X64345238Y-115364819D01*
X64345238Y-115364819D02*
X64440476Y-115412438D01*
X64440476Y-115412438D02*
X64488095Y-115460057D01*
X64488095Y-115460057D02*
X64535714Y-115555295D01*
X64535714Y-115555295D02*
X64535714Y-115602914D01*
X64535714Y-115602914D02*
X64488095Y-115698152D01*
X64488095Y-115698152D02*
X64440476Y-115745771D01*
X64440476Y-115745771D02*
X64345238Y-115793390D01*
X64345238Y-115793390D02*
X64154762Y-115793390D01*
X64154762Y-115793390D02*
X64059524Y-115841009D01*
X64059524Y-115841009D02*
X64011905Y-115888628D01*
X64011905Y-115888628D02*
X63964286Y-115983866D01*
X63964286Y-115983866D02*
X63964286Y-116174342D01*
X63964286Y-116174342D02*
X64011905Y-116269580D01*
X64011905Y-116269580D02*
X64059524Y-116317200D01*
X64059524Y-116317200D02*
X64154762Y-116364819D01*
X64154762Y-116364819D02*
X64345238Y-116364819D01*
X64345238Y-116364819D02*
X64440476Y-116317200D01*
X64440476Y-116317200D02*
X64488095Y-116269580D01*
X64488095Y-116269580D02*
X64535714Y-116174342D01*
X64535714Y-116174342D02*
X64535714Y-115983866D01*
X64535714Y-115983866D02*
X64488095Y-115888628D01*
X64488095Y-115888628D02*
X64440476Y-115841009D01*
X64440476Y-115841009D02*
X64345238Y-115793390D01*
X111517200Y-78603332D02*
X111564819Y-78460475D01*
X111564819Y-78460475D02*
X111564819Y-78222380D01*
X111564819Y-78222380D02*
X111517200Y-78127142D01*
X111517200Y-78127142D02*
X111469580Y-78079523D01*
X111469580Y-78079523D02*
X111374342Y-78031904D01*
X111374342Y-78031904D02*
X111279104Y-78031904D01*
X111279104Y-78031904D02*
X111183866Y-78079523D01*
X111183866Y-78079523D02*
X111136247Y-78127142D01*
X111136247Y-78127142D02*
X111088628Y-78222380D01*
X111088628Y-78222380D02*
X111041009Y-78412856D01*
X111041009Y-78412856D02*
X110993390Y-78508094D01*
X110993390Y-78508094D02*
X110945771Y-78555713D01*
X110945771Y-78555713D02*
X110850533Y-78603332D01*
X110850533Y-78603332D02*
X110755295Y-78603332D01*
X110755295Y-78603332D02*
X110660057Y-78555713D01*
X110660057Y-78555713D02*
X110612438Y-78508094D01*
X110612438Y-78508094D02*
X110564819Y-78412856D01*
X110564819Y-78412856D02*
X110564819Y-78174761D01*
X110564819Y-78174761D02*
X110612438Y-78031904D01*
X110564819Y-77698570D02*
X111564819Y-77460475D01*
X111564819Y-77460475D02*
X110850533Y-77269999D01*
X110850533Y-77269999D02*
X111564819Y-77079523D01*
X111564819Y-77079523D02*
X110564819Y-76841428D01*
X111564819Y-75936666D02*
X111564819Y-76508094D01*
X111564819Y-76222380D02*
X110564819Y-76222380D01*
X110564819Y-76222380D02*
X110707676Y-76317618D01*
X110707676Y-76317618D02*
X110802914Y-76412856D01*
X110802914Y-76412856D02*
X110850533Y-76508094D01*
X63809580Y-102772857D02*
X63857200Y-102820476D01*
X63857200Y-102820476D02*
X63904819Y-102963333D01*
X63904819Y-102963333D02*
X63904819Y-103058571D01*
X63904819Y-103058571D02*
X63857200Y-103201428D01*
X63857200Y-103201428D02*
X63761961Y-103296666D01*
X63761961Y-103296666D02*
X63666723Y-103344285D01*
X63666723Y-103344285D02*
X63476247Y-103391904D01*
X63476247Y-103391904D02*
X63333390Y-103391904D01*
X63333390Y-103391904D02*
X63142914Y-103344285D01*
X63142914Y-103344285D02*
X63047676Y-103296666D01*
X63047676Y-103296666D02*
X62952438Y-103201428D01*
X62952438Y-103201428D02*
X62904819Y-103058571D01*
X62904819Y-103058571D02*
X62904819Y-102963333D01*
X62904819Y-102963333D02*
X62952438Y-102820476D01*
X62952438Y-102820476D02*
X63000057Y-102772857D01*
X62904819Y-102439523D02*
X62904819Y-101820476D01*
X62904819Y-101820476D02*
X63285771Y-102153809D01*
X63285771Y-102153809D02*
X63285771Y-102010952D01*
X63285771Y-102010952D02*
X63333390Y-101915714D01*
X63333390Y-101915714D02*
X63381009Y-101868095D01*
X63381009Y-101868095D02*
X63476247Y-101820476D01*
X63476247Y-101820476D02*
X63714342Y-101820476D01*
X63714342Y-101820476D02*
X63809580Y-101868095D01*
X63809580Y-101868095D02*
X63857200Y-101915714D01*
X63857200Y-101915714D02*
X63904819Y-102010952D01*
X63904819Y-102010952D02*
X63904819Y-102296666D01*
X63904819Y-102296666D02*
X63857200Y-102391904D01*
X63857200Y-102391904D02*
X63809580Y-102439523D01*
X63238152Y-100963333D02*
X63904819Y-100963333D01*
X62857200Y-101201428D02*
X63571485Y-101439523D01*
X63571485Y-101439523D02*
X63571485Y-100820476D01*
X38357142Y-87859580D02*
X38309523Y-87907200D01*
X38309523Y-87907200D02*
X38166666Y-87954819D01*
X38166666Y-87954819D02*
X38071428Y-87954819D01*
X38071428Y-87954819D02*
X37928571Y-87907200D01*
X37928571Y-87907200D02*
X37833333Y-87811961D01*
X37833333Y-87811961D02*
X37785714Y-87716723D01*
X37785714Y-87716723D02*
X37738095Y-87526247D01*
X37738095Y-87526247D02*
X37738095Y-87383390D01*
X37738095Y-87383390D02*
X37785714Y-87192914D01*
X37785714Y-87192914D02*
X37833333Y-87097676D01*
X37833333Y-87097676D02*
X37928571Y-87002438D01*
X37928571Y-87002438D02*
X38071428Y-86954819D01*
X38071428Y-86954819D02*
X38166666Y-86954819D01*
X38166666Y-86954819D02*
X38309523Y-87002438D01*
X38309523Y-87002438D02*
X38357142Y-87050057D01*
X38738095Y-87050057D02*
X38785714Y-87002438D01*
X38785714Y-87002438D02*
X38880952Y-86954819D01*
X38880952Y-86954819D02*
X39119047Y-86954819D01*
X39119047Y-86954819D02*
X39214285Y-87002438D01*
X39214285Y-87002438D02*
X39261904Y-87050057D01*
X39261904Y-87050057D02*
X39309523Y-87145295D01*
X39309523Y-87145295D02*
X39309523Y-87240533D01*
X39309523Y-87240533D02*
X39261904Y-87383390D01*
X39261904Y-87383390D02*
X38690476Y-87954819D01*
X38690476Y-87954819D02*
X39309523Y-87954819D01*
X40166666Y-86954819D02*
X39976190Y-86954819D01*
X39976190Y-86954819D02*
X39880952Y-87002438D01*
X39880952Y-87002438D02*
X39833333Y-87050057D01*
X39833333Y-87050057D02*
X39738095Y-87192914D01*
X39738095Y-87192914D02*
X39690476Y-87383390D01*
X39690476Y-87383390D02*
X39690476Y-87764342D01*
X39690476Y-87764342D02*
X39738095Y-87859580D01*
X39738095Y-87859580D02*
X39785714Y-87907200D01*
X39785714Y-87907200D02*
X39880952Y-87954819D01*
X39880952Y-87954819D02*
X40071428Y-87954819D01*
X40071428Y-87954819D02*
X40166666Y-87907200D01*
X40166666Y-87907200D02*
X40214285Y-87859580D01*
X40214285Y-87859580D02*
X40261904Y-87764342D01*
X40261904Y-87764342D02*
X40261904Y-87526247D01*
X40261904Y-87526247D02*
X40214285Y-87431009D01*
X40214285Y-87431009D02*
X40166666Y-87383390D01*
X40166666Y-87383390D02*
X40071428Y-87335771D01*
X40071428Y-87335771D02*
X39880952Y-87335771D01*
X39880952Y-87335771D02*
X39785714Y-87383390D01*
X39785714Y-87383390D02*
X39738095Y-87431009D01*
X39738095Y-87431009D02*
X39690476Y-87526247D01*
X61394580Y-117272857D02*
X61442200Y-117320476D01*
X61442200Y-117320476D02*
X61489819Y-117463333D01*
X61489819Y-117463333D02*
X61489819Y-117558571D01*
X61489819Y-117558571D02*
X61442200Y-117701428D01*
X61442200Y-117701428D02*
X61346961Y-117796666D01*
X61346961Y-117796666D02*
X61251723Y-117844285D01*
X61251723Y-117844285D02*
X61061247Y-117891904D01*
X61061247Y-117891904D02*
X60918390Y-117891904D01*
X60918390Y-117891904D02*
X60727914Y-117844285D01*
X60727914Y-117844285D02*
X60632676Y-117796666D01*
X60632676Y-117796666D02*
X60537438Y-117701428D01*
X60537438Y-117701428D02*
X60489819Y-117558571D01*
X60489819Y-117558571D02*
X60489819Y-117463333D01*
X60489819Y-117463333D02*
X60537438Y-117320476D01*
X60537438Y-117320476D02*
X60585057Y-117272857D01*
X60489819Y-116939523D02*
X60489819Y-116320476D01*
X60489819Y-116320476D02*
X60870771Y-116653809D01*
X60870771Y-116653809D02*
X60870771Y-116510952D01*
X60870771Y-116510952D02*
X60918390Y-116415714D01*
X60918390Y-116415714D02*
X60966009Y-116368095D01*
X60966009Y-116368095D02*
X61061247Y-116320476D01*
X61061247Y-116320476D02*
X61299342Y-116320476D01*
X61299342Y-116320476D02*
X61394580Y-116368095D01*
X61394580Y-116368095D02*
X61442200Y-116415714D01*
X61442200Y-116415714D02*
X61489819Y-116510952D01*
X61489819Y-116510952D02*
X61489819Y-116796666D01*
X61489819Y-116796666D02*
X61442200Y-116891904D01*
X61442200Y-116891904D02*
X61394580Y-116939523D01*
X60489819Y-115987142D02*
X60489819Y-115368095D01*
X60489819Y-115368095D02*
X60870771Y-115701428D01*
X60870771Y-115701428D02*
X60870771Y-115558571D01*
X60870771Y-115558571D02*
X60918390Y-115463333D01*
X60918390Y-115463333D02*
X60966009Y-115415714D01*
X60966009Y-115415714D02*
X61061247Y-115368095D01*
X61061247Y-115368095D02*
X61299342Y-115368095D01*
X61299342Y-115368095D02*
X61394580Y-115415714D01*
X61394580Y-115415714D02*
X61442200Y-115463333D01*
X61442200Y-115463333D02*
X61489819Y-115558571D01*
X61489819Y-115558571D02*
X61489819Y-115844285D01*
X61489819Y-115844285D02*
X61442200Y-115939523D01*
X61442200Y-115939523D02*
X61394580Y-115987142D01*
X88359580Y-88142857D02*
X88407200Y-88190476D01*
X88407200Y-88190476D02*
X88454819Y-88333333D01*
X88454819Y-88333333D02*
X88454819Y-88428571D01*
X88454819Y-88428571D02*
X88407200Y-88571428D01*
X88407200Y-88571428D02*
X88311961Y-88666666D01*
X88311961Y-88666666D02*
X88216723Y-88714285D01*
X88216723Y-88714285D02*
X88026247Y-88761904D01*
X88026247Y-88761904D02*
X87883390Y-88761904D01*
X87883390Y-88761904D02*
X87692914Y-88714285D01*
X87692914Y-88714285D02*
X87597676Y-88666666D01*
X87597676Y-88666666D02*
X87502438Y-88571428D01*
X87502438Y-88571428D02*
X87454819Y-88428571D01*
X87454819Y-88428571D02*
X87454819Y-88333333D01*
X87454819Y-88333333D02*
X87502438Y-88190476D01*
X87502438Y-88190476D02*
X87550057Y-88142857D01*
X87550057Y-87761904D02*
X87502438Y-87714285D01*
X87502438Y-87714285D02*
X87454819Y-87619047D01*
X87454819Y-87619047D02*
X87454819Y-87380952D01*
X87454819Y-87380952D02*
X87502438Y-87285714D01*
X87502438Y-87285714D02*
X87550057Y-87238095D01*
X87550057Y-87238095D02*
X87645295Y-87190476D01*
X87645295Y-87190476D02*
X87740533Y-87190476D01*
X87740533Y-87190476D02*
X87883390Y-87238095D01*
X87883390Y-87238095D02*
X88454819Y-87809523D01*
X88454819Y-87809523D02*
X88454819Y-87190476D01*
X87550057Y-86809523D02*
X87502438Y-86761904D01*
X87502438Y-86761904D02*
X87454819Y-86666666D01*
X87454819Y-86666666D02*
X87454819Y-86428571D01*
X87454819Y-86428571D02*
X87502438Y-86333333D01*
X87502438Y-86333333D02*
X87550057Y-86285714D01*
X87550057Y-86285714D02*
X87645295Y-86238095D01*
X87645295Y-86238095D02*
X87740533Y-86238095D01*
X87740533Y-86238095D02*
X87883390Y-86285714D01*
X87883390Y-86285714D02*
X88454819Y-86857142D01*
X88454819Y-86857142D02*
X88454819Y-86238095D01*
X51011905Y-105734819D02*
X51011905Y-106544342D01*
X51011905Y-106544342D02*
X51059524Y-106639580D01*
X51059524Y-106639580D02*
X51107143Y-106687200D01*
X51107143Y-106687200D02*
X51202381Y-106734819D01*
X51202381Y-106734819D02*
X51392857Y-106734819D01*
X51392857Y-106734819D02*
X51488095Y-106687200D01*
X51488095Y-106687200D02*
X51535714Y-106639580D01*
X51535714Y-106639580D02*
X51583333Y-106544342D01*
X51583333Y-106544342D02*
X51583333Y-105734819D01*
X52011905Y-105830057D02*
X52059524Y-105782438D01*
X52059524Y-105782438D02*
X52154762Y-105734819D01*
X52154762Y-105734819D02*
X52392857Y-105734819D01*
X52392857Y-105734819D02*
X52488095Y-105782438D01*
X52488095Y-105782438D02*
X52535714Y-105830057D01*
X52535714Y-105830057D02*
X52583333Y-105925295D01*
X52583333Y-105925295D02*
X52583333Y-106020533D01*
X52583333Y-106020533D02*
X52535714Y-106163390D01*
X52535714Y-106163390D02*
X51964286Y-106734819D01*
X51964286Y-106734819D02*
X52583333Y-106734819D01*
X53202381Y-105734819D02*
X53297619Y-105734819D01*
X53297619Y-105734819D02*
X53392857Y-105782438D01*
X53392857Y-105782438D02*
X53440476Y-105830057D01*
X53440476Y-105830057D02*
X53488095Y-105925295D01*
X53488095Y-105925295D02*
X53535714Y-106115771D01*
X53535714Y-106115771D02*
X53535714Y-106353866D01*
X53535714Y-106353866D02*
X53488095Y-106544342D01*
X53488095Y-106544342D02*
X53440476Y-106639580D01*
X53440476Y-106639580D02*
X53392857Y-106687200D01*
X53392857Y-106687200D02*
X53297619Y-106734819D01*
X53297619Y-106734819D02*
X53202381Y-106734819D01*
X53202381Y-106734819D02*
X53107143Y-106687200D01*
X53107143Y-106687200D02*
X53059524Y-106639580D01*
X53059524Y-106639580D02*
X53011905Y-106544342D01*
X53011905Y-106544342D02*
X52964286Y-106353866D01*
X52964286Y-106353866D02*
X52964286Y-106115771D01*
X52964286Y-106115771D02*
X53011905Y-105925295D01*
X53011905Y-105925295D02*
X53059524Y-105830057D01*
X53059524Y-105830057D02*
X53107143Y-105782438D01*
X53107143Y-105782438D02*
X53202381Y-105734819D01*
X53704819Y-86251666D02*
X53228628Y-86584999D01*
X53704819Y-86823094D02*
X52704819Y-86823094D01*
X52704819Y-86823094D02*
X52704819Y-86442142D01*
X52704819Y-86442142D02*
X52752438Y-86346904D01*
X52752438Y-86346904D02*
X52800057Y-86299285D01*
X52800057Y-86299285D02*
X52895295Y-86251666D01*
X52895295Y-86251666D02*
X53038152Y-86251666D01*
X53038152Y-86251666D02*
X53133390Y-86299285D01*
X53133390Y-86299285D02*
X53181009Y-86346904D01*
X53181009Y-86346904D02*
X53228628Y-86442142D01*
X53228628Y-86442142D02*
X53228628Y-86823094D01*
X53133390Y-85680237D02*
X53085771Y-85775475D01*
X53085771Y-85775475D02*
X53038152Y-85823094D01*
X53038152Y-85823094D02*
X52942914Y-85870713D01*
X52942914Y-85870713D02*
X52895295Y-85870713D01*
X52895295Y-85870713D02*
X52800057Y-85823094D01*
X52800057Y-85823094D02*
X52752438Y-85775475D01*
X52752438Y-85775475D02*
X52704819Y-85680237D01*
X52704819Y-85680237D02*
X52704819Y-85489761D01*
X52704819Y-85489761D02*
X52752438Y-85394523D01*
X52752438Y-85394523D02*
X52800057Y-85346904D01*
X52800057Y-85346904D02*
X52895295Y-85299285D01*
X52895295Y-85299285D02*
X52942914Y-85299285D01*
X52942914Y-85299285D02*
X53038152Y-85346904D01*
X53038152Y-85346904D02*
X53085771Y-85394523D01*
X53085771Y-85394523D02*
X53133390Y-85489761D01*
X53133390Y-85489761D02*
X53133390Y-85680237D01*
X53133390Y-85680237D02*
X53181009Y-85775475D01*
X53181009Y-85775475D02*
X53228628Y-85823094D01*
X53228628Y-85823094D02*
X53323866Y-85870713D01*
X53323866Y-85870713D02*
X53514342Y-85870713D01*
X53514342Y-85870713D02*
X53609580Y-85823094D01*
X53609580Y-85823094D02*
X53657200Y-85775475D01*
X53657200Y-85775475D02*
X53704819Y-85680237D01*
X53704819Y-85680237D02*
X53704819Y-85489761D01*
X53704819Y-85489761D02*
X53657200Y-85394523D01*
X53657200Y-85394523D02*
X53609580Y-85346904D01*
X53609580Y-85346904D02*
X53514342Y-85299285D01*
X53514342Y-85299285D02*
X53323866Y-85299285D01*
X53323866Y-85299285D02*
X53228628Y-85346904D01*
X53228628Y-85346904D02*
X53181009Y-85394523D01*
X53181009Y-85394523D02*
X53133390Y-85489761D01*
X35857142Y-68769580D02*
X35809523Y-68817200D01*
X35809523Y-68817200D02*
X35666666Y-68864819D01*
X35666666Y-68864819D02*
X35571428Y-68864819D01*
X35571428Y-68864819D02*
X35428571Y-68817200D01*
X35428571Y-68817200D02*
X35333333Y-68721961D01*
X35333333Y-68721961D02*
X35285714Y-68626723D01*
X35285714Y-68626723D02*
X35238095Y-68436247D01*
X35238095Y-68436247D02*
X35238095Y-68293390D01*
X35238095Y-68293390D02*
X35285714Y-68102914D01*
X35285714Y-68102914D02*
X35333333Y-68007676D01*
X35333333Y-68007676D02*
X35428571Y-67912438D01*
X35428571Y-67912438D02*
X35571428Y-67864819D01*
X35571428Y-67864819D02*
X35666666Y-67864819D01*
X35666666Y-67864819D02*
X35809523Y-67912438D01*
X35809523Y-67912438D02*
X35857142Y-67960057D01*
X36809523Y-68864819D02*
X36238095Y-68864819D01*
X36523809Y-68864819D02*
X36523809Y-67864819D01*
X36523809Y-67864819D02*
X36428571Y-68007676D01*
X36428571Y-68007676D02*
X36333333Y-68102914D01*
X36333333Y-68102914D02*
X36238095Y-68150533D01*
X37380952Y-68293390D02*
X37285714Y-68245771D01*
X37285714Y-68245771D02*
X37238095Y-68198152D01*
X37238095Y-68198152D02*
X37190476Y-68102914D01*
X37190476Y-68102914D02*
X37190476Y-68055295D01*
X37190476Y-68055295D02*
X37238095Y-67960057D01*
X37238095Y-67960057D02*
X37285714Y-67912438D01*
X37285714Y-67912438D02*
X37380952Y-67864819D01*
X37380952Y-67864819D02*
X37571428Y-67864819D01*
X37571428Y-67864819D02*
X37666666Y-67912438D01*
X37666666Y-67912438D02*
X37714285Y-67960057D01*
X37714285Y-67960057D02*
X37761904Y-68055295D01*
X37761904Y-68055295D02*
X37761904Y-68102914D01*
X37761904Y-68102914D02*
X37714285Y-68198152D01*
X37714285Y-68198152D02*
X37666666Y-68245771D01*
X37666666Y-68245771D02*
X37571428Y-68293390D01*
X37571428Y-68293390D02*
X37380952Y-68293390D01*
X37380952Y-68293390D02*
X37285714Y-68341009D01*
X37285714Y-68341009D02*
X37238095Y-68388628D01*
X37238095Y-68388628D02*
X37190476Y-68483866D01*
X37190476Y-68483866D02*
X37190476Y-68674342D01*
X37190476Y-68674342D02*
X37238095Y-68769580D01*
X37238095Y-68769580D02*
X37285714Y-68817200D01*
X37285714Y-68817200D02*
X37380952Y-68864819D01*
X37380952Y-68864819D02*
X37571428Y-68864819D01*
X37571428Y-68864819D02*
X37666666Y-68817200D01*
X37666666Y-68817200D02*
X37714285Y-68769580D01*
X37714285Y-68769580D02*
X37761904Y-68674342D01*
X37761904Y-68674342D02*
X37761904Y-68483866D01*
X37761904Y-68483866D02*
X37714285Y-68388628D01*
X37714285Y-68388628D02*
X37666666Y-68341009D01*
X37666666Y-68341009D02*
X37571428Y-68293390D01*
X62359580Y-46166666D02*
X62407200Y-46214285D01*
X62407200Y-46214285D02*
X62454819Y-46357142D01*
X62454819Y-46357142D02*
X62454819Y-46452380D01*
X62454819Y-46452380D02*
X62407200Y-46595237D01*
X62407200Y-46595237D02*
X62311961Y-46690475D01*
X62311961Y-46690475D02*
X62216723Y-46738094D01*
X62216723Y-46738094D02*
X62026247Y-46785713D01*
X62026247Y-46785713D02*
X61883390Y-46785713D01*
X61883390Y-46785713D02*
X61692914Y-46738094D01*
X61692914Y-46738094D02*
X61597676Y-46690475D01*
X61597676Y-46690475D02*
X61502438Y-46595237D01*
X61502438Y-46595237D02*
X61454819Y-46452380D01*
X61454819Y-46452380D02*
X61454819Y-46357142D01*
X61454819Y-46357142D02*
X61502438Y-46214285D01*
X61502438Y-46214285D02*
X61550057Y-46166666D01*
X61454819Y-45833332D02*
X61454819Y-45214285D01*
X61454819Y-45214285D02*
X61835771Y-45547618D01*
X61835771Y-45547618D02*
X61835771Y-45404761D01*
X61835771Y-45404761D02*
X61883390Y-45309523D01*
X61883390Y-45309523D02*
X61931009Y-45261904D01*
X61931009Y-45261904D02*
X62026247Y-45214285D01*
X62026247Y-45214285D02*
X62264342Y-45214285D01*
X62264342Y-45214285D02*
X62359580Y-45261904D01*
X62359580Y-45261904D02*
X62407200Y-45309523D01*
X62407200Y-45309523D02*
X62454819Y-45404761D01*
X62454819Y-45404761D02*
X62454819Y-45690475D01*
X62454819Y-45690475D02*
X62407200Y-45785713D01*
X62407200Y-45785713D02*
X62359580Y-45833332D01*
X63869580Y-87772857D02*
X63917200Y-87820476D01*
X63917200Y-87820476D02*
X63964819Y-87963333D01*
X63964819Y-87963333D02*
X63964819Y-88058571D01*
X63964819Y-88058571D02*
X63917200Y-88201428D01*
X63917200Y-88201428D02*
X63821961Y-88296666D01*
X63821961Y-88296666D02*
X63726723Y-88344285D01*
X63726723Y-88344285D02*
X63536247Y-88391904D01*
X63536247Y-88391904D02*
X63393390Y-88391904D01*
X63393390Y-88391904D02*
X63202914Y-88344285D01*
X63202914Y-88344285D02*
X63107676Y-88296666D01*
X63107676Y-88296666D02*
X63012438Y-88201428D01*
X63012438Y-88201428D02*
X62964819Y-88058571D01*
X62964819Y-88058571D02*
X62964819Y-87963333D01*
X62964819Y-87963333D02*
X63012438Y-87820476D01*
X63012438Y-87820476D02*
X63060057Y-87772857D01*
X63060057Y-87391904D02*
X63012438Y-87344285D01*
X63012438Y-87344285D02*
X62964819Y-87249047D01*
X62964819Y-87249047D02*
X62964819Y-87010952D01*
X62964819Y-87010952D02*
X63012438Y-86915714D01*
X63012438Y-86915714D02*
X63060057Y-86868095D01*
X63060057Y-86868095D02*
X63155295Y-86820476D01*
X63155295Y-86820476D02*
X63250533Y-86820476D01*
X63250533Y-86820476D02*
X63393390Y-86868095D01*
X63393390Y-86868095D02*
X63964819Y-87439523D01*
X63964819Y-87439523D02*
X63964819Y-86820476D01*
X62964819Y-85915714D02*
X62964819Y-86391904D01*
X62964819Y-86391904D02*
X63441009Y-86439523D01*
X63441009Y-86439523D02*
X63393390Y-86391904D01*
X63393390Y-86391904D02*
X63345771Y-86296666D01*
X63345771Y-86296666D02*
X63345771Y-86058571D01*
X63345771Y-86058571D02*
X63393390Y-85963333D01*
X63393390Y-85963333D02*
X63441009Y-85915714D01*
X63441009Y-85915714D02*
X63536247Y-85868095D01*
X63536247Y-85868095D02*
X63774342Y-85868095D01*
X63774342Y-85868095D02*
X63869580Y-85915714D01*
X63869580Y-85915714D02*
X63917200Y-85963333D01*
X63917200Y-85963333D02*
X63964819Y-86058571D01*
X63964819Y-86058571D02*
X63964819Y-86296666D01*
X63964819Y-86296666D02*
X63917200Y-86391904D01*
X63917200Y-86391904D02*
X63869580Y-86439523D01*
X76186905Y-108364819D02*
X76186905Y-109174342D01*
X76186905Y-109174342D02*
X76234524Y-109269580D01*
X76234524Y-109269580D02*
X76282143Y-109317200D01*
X76282143Y-109317200D02*
X76377381Y-109364819D01*
X76377381Y-109364819D02*
X76567857Y-109364819D01*
X76567857Y-109364819D02*
X76663095Y-109317200D01*
X76663095Y-109317200D02*
X76710714Y-109269580D01*
X76710714Y-109269580D02*
X76758333Y-109174342D01*
X76758333Y-109174342D02*
X76758333Y-108364819D01*
X77758333Y-109364819D02*
X77186905Y-109364819D01*
X77472619Y-109364819D02*
X77472619Y-108364819D01*
X77472619Y-108364819D02*
X77377381Y-108507676D01*
X77377381Y-108507676D02*
X77282143Y-108602914D01*
X77282143Y-108602914D02*
X77186905Y-108650533D01*
X78091667Y-108364819D02*
X78758333Y-108364819D01*
X78758333Y-108364819D02*
X78329762Y-109364819D01*
X35857142Y-104769580D02*
X35809523Y-104817200D01*
X35809523Y-104817200D02*
X35666666Y-104864819D01*
X35666666Y-104864819D02*
X35571428Y-104864819D01*
X35571428Y-104864819D02*
X35428571Y-104817200D01*
X35428571Y-104817200D02*
X35333333Y-104721961D01*
X35333333Y-104721961D02*
X35285714Y-104626723D01*
X35285714Y-104626723D02*
X35238095Y-104436247D01*
X35238095Y-104436247D02*
X35238095Y-104293390D01*
X35238095Y-104293390D02*
X35285714Y-104102914D01*
X35285714Y-104102914D02*
X35333333Y-104007676D01*
X35333333Y-104007676D02*
X35428571Y-103912438D01*
X35428571Y-103912438D02*
X35571428Y-103864819D01*
X35571428Y-103864819D02*
X35666666Y-103864819D01*
X35666666Y-103864819D02*
X35809523Y-103912438D01*
X35809523Y-103912438D02*
X35857142Y-103960057D01*
X36190476Y-103864819D02*
X36809523Y-103864819D01*
X36809523Y-103864819D02*
X36476190Y-104245771D01*
X36476190Y-104245771D02*
X36619047Y-104245771D01*
X36619047Y-104245771D02*
X36714285Y-104293390D01*
X36714285Y-104293390D02*
X36761904Y-104341009D01*
X36761904Y-104341009D02*
X36809523Y-104436247D01*
X36809523Y-104436247D02*
X36809523Y-104674342D01*
X36809523Y-104674342D02*
X36761904Y-104769580D01*
X36761904Y-104769580D02*
X36714285Y-104817200D01*
X36714285Y-104817200D02*
X36619047Y-104864819D01*
X36619047Y-104864819D02*
X36333333Y-104864819D01*
X36333333Y-104864819D02*
X36238095Y-104817200D01*
X36238095Y-104817200D02*
X36190476Y-104769580D01*
X37380952Y-104293390D02*
X37285714Y-104245771D01*
X37285714Y-104245771D02*
X37238095Y-104198152D01*
X37238095Y-104198152D02*
X37190476Y-104102914D01*
X37190476Y-104102914D02*
X37190476Y-104055295D01*
X37190476Y-104055295D02*
X37238095Y-103960057D01*
X37238095Y-103960057D02*
X37285714Y-103912438D01*
X37285714Y-103912438D02*
X37380952Y-103864819D01*
X37380952Y-103864819D02*
X37571428Y-103864819D01*
X37571428Y-103864819D02*
X37666666Y-103912438D01*
X37666666Y-103912438D02*
X37714285Y-103960057D01*
X37714285Y-103960057D02*
X37761904Y-104055295D01*
X37761904Y-104055295D02*
X37761904Y-104102914D01*
X37761904Y-104102914D02*
X37714285Y-104198152D01*
X37714285Y-104198152D02*
X37666666Y-104245771D01*
X37666666Y-104245771D02*
X37571428Y-104293390D01*
X37571428Y-104293390D02*
X37380952Y-104293390D01*
X37380952Y-104293390D02*
X37285714Y-104341009D01*
X37285714Y-104341009D02*
X37238095Y-104388628D01*
X37238095Y-104388628D02*
X37190476Y-104483866D01*
X37190476Y-104483866D02*
X37190476Y-104674342D01*
X37190476Y-104674342D02*
X37238095Y-104769580D01*
X37238095Y-104769580D02*
X37285714Y-104817200D01*
X37285714Y-104817200D02*
X37380952Y-104864819D01*
X37380952Y-104864819D02*
X37571428Y-104864819D01*
X37571428Y-104864819D02*
X37666666Y-104817200D01*
X37666666Y-104817200D02*
X37714285Y-104769580D01*
X37714285Y-104769580D02*
X37761904Y-104674342D01*
X37761904Y-104674342D02*
X37761904Y-104483866D01*
X37761904Y-104483866D02*
X37714285Y-104388628D01*
X37714285Y-104388628D02*
X37666666Y-104341009D01*
X37666666Y-104341009D02*
X37571428Y-104293390D01*
X36833333Y-50769580D02*
X36785714Y-50817200D01*
X36785714Y-50817200D02*
X36642857Y-50864819D01*
X36642857Y-50864819D02*
X36547619Y-50864819D01*
X36547619Y-50864819D02*
X36404762Y-50817200D01*
X36404762Y-50817200D02*
X36309524Y-50721961D01*
X36309524Y-50721961D02*
X36261905Y-50626723D01*
X36261905Y-50626723D02*
X36214286Y-50436247D01*
X36214286Y-50436247D02*
X36214286Y-50293390D01*
X36214286Y-50293390D02*
X36261905Y-50102914D01*
X36261905Y-50102914D02*
X36309524Y-50007676D01*
X36309524Y-50007676D02*
X36404762Y-49912438D01*
X36404762Y-49912438D02*
X36547619Y-49864819D01*
X36547619Y-49864819D02*
X36642857Y-49864819D01*
X36642857Y-49864819D02*
X36785714Y-49912438D01*
X36785714Y-49912438D02*
X36833333Y-49960057D01*
X37404762Y-50293390D02*
X37309524Y-50245771D01*
X37309524Y-50245771D02*
X37261905Y-50198152D01*
X37261905Y-50198152D02*
X37214286Y-50102914D01*
X37214286Y-50102914D02*
X37214286Y-50055295D01*
X37214286Y-50055295D02*
X37261905Y-49960057D01*
X37261905Y-49960057D02*
X37309524Y-49912438D01*
X37309524Y-49912438D02*
X37404762Y-49864819D01*
X37404762Y-49864819D02*
X37595238Y-49864819D01*
X37595238Y-49864819D02*
X37690476Y-49912438D01*
X37690476Y-49912438D02*
X37738095Y-49960057D01*
X37738095Y-49960057D02*
X37785714Y-50055295D01*
X37785714Y-50055295D02*
X37785714Y-50102914D01*
X37785714Y-50102914D02*
X37738095Y-50198152D01*
X37738095Y-50198152D02*
X37690476Y-50245771D01*
X37690476Y-50245771D02*
X37595238Y-50293390D01*
X37595238Y-50293390D02*
X37404762Y-50293390D01*
X37404762Y-50293390D02*
X37309524Y-50341009D01*
X37309524Y-50341009D02*
X37261905Y-50388628D01*
X37261905Y-50388628D02*
X37214286Y-50483866D01*
X37214286Y-50483866D02*
X37214286Y-50674342D01*
X37214286Y-50674342D02*
X37261905Y-50769580D01*
X37261905Y-50769580D02*
X37309524Y-50817200D01*
X37309524Y-50817200D02*
X37404762Y-50864819D01*
X37404762Y-50864819D02*
X37595238Y-50864819D01*
X37595238Y-50864819D02*
X37690476Y-50817200D01*
X37690476Y-50817200D02*
X37738095Y-50769580D01*
X37738095Y-50769580D02*
X37785714Y-50674342D01*
X37785714Y-50674342D02*
X37785714Y-50483866D01*
X37785714Y-50483866D02*
X37738095Y-50388628D01*
X37738095Y-50388628D02*
X37690476Y-50341009D01*
X37690476Y-50341009D02*
X37595238Y-50293390D01*
X52487557Y-76520238D02*
X52439938Y-76615476D01*
X52439938Y-76615476D02*
X52344700Y-76710714D01*
X52344700Y-76710714D02*
X52201842Y-76853571D01*
X52201842Y-76853571D02*
X52154223Y-76948809D01*
X52154223Y-76948809D02*
X52154223Y-77044047D01*
X52392319Y-76996428D02*
X52344700Y-77091666D01*
X52344700Y-77091666D02*
X52249461Y-77186904D01*
X52249461Y-77186904D02*
X52058985Y-77234523D01*
X52058985Y-77234523D02*
X51725652Y-77234523D01*
X51725652Y-77234523D02*
X51535176Y-77186904D01*
X51535176Y-77186904D02*
X51439938Y-77091666D01*
X51439938Y-77091666D02*
X51392319Y-76996428D01*
X51392319Y-76996428D02*
X51392319Y-76805952D01*
X51392319Y-76805952D02*
X51439938Y-76710714D01*
X51439938Y-76710714D02*
X51535176Y-76615476D01*
X51535176Y-76615476D02*
X51725652Y-76567857D01*
X51725652Y-76567857D02*
X52058985Y-76567857D01*
X52058985Y-76567857D02*
X52249461Y-76615476D01*
X52249461Y-76615476D02*
X52344700Y-76710714D01*
X52344700Y-76710714D02*
X52392319Y-76805952D01*
X52392319Y-76805952D02*
X52392319Y-76996428D01*
X51392319Y-76234523D02*
X51392319Y-75615476D01*
X51392319Y-75615476D02*
X51773271Y-75948809D01*
X51773271Y-75948809D02*
X51773271Y-75805952D01*
X51773271Y-75805952D02*
X51820890Y-75710714D01*
X51820890Y-75710714D02*
X51868509Y-75663095D01*
X51868509Y-75663095D02*
X51963747Y-75615476D01*
X51963747Y-75615476D02*
X52201842Y-75615476D01*
X52201842Y-75615476D02*
X52297080Y-75663095D01*
X52297080Y-75663095D02*
X52344700Y-75710714D01*
X52344700Y-75710714D02*
X52392319Y-75805952D01*
X52392319Y-75805952D02*
X52392319Y-76091666D01*
X52392319Y-76091666D02*
X52344700Y-76186904D01*
X52344700Y-76186904D02*
X52297080Y-76234523D01*
X54789761Y-25487557D02*
X54694523Y-25439938D01*
X54694523Y-25439938D02*
X54599285Y-25344700D01*
X54599285Y-25344700D02*
X54456428Y-25201842D01*
X54456428Y-25201842D02*
X54361190Y-25154223D01*
X54361190Y-25154223D02*
X54265952Y-25154223D01*
X54313571Y-25392319D02*
X54218333Y-25344700D01*
X54218333Y-25344700D02*
X54123095Y-25249461D01*
X54123095Y-25249461D02*
X54075476Y-25058985D01*
X54075476Y-25058985D02*
X54075476Y-24725652D01*
X54075476Y-24725652D02*
X54123095Y-24535176D01*
X54123095Y-24535176D02*
X54218333Y-24439938D01*
X54218333Y-24439938D02*
X54313571Y-24392319D01*
X54313571Y-24392319D02*
X54504047Y-24392319D01*
X54504047Y-24392319D02*
X54599285Y-24439938D01*
X54599285Y-24439938D02*
X54694523Y-24535176D01*
X54694523Y-24535176D02*
X54742142Y-24725652D01*
X54742142Y-24725652D02*
X54742142Y-25058985D01*
X54742142Y-25058985D02*
X54694523Y-25249461D01*
X54694523Y-25249461D02*
X54599285Y-25344700D01*
X54599285Y-25344700D02*
X54504047Y-25392319D01*
X54504047Y-25392319D02*
X54313571Y-25392319D01*
X55694523Y-25392319D02*
X55123095Y-25392319D01*
X55408809Y-25392319D02*
X55408809Y-24392319D01*
X55408809Y-24392319D02*
X55313571Y-24535176D01*
X55313571Y-24535176D02*
X55218333Y-24630414D01*
X55218333Y-24630414D02*
X55123095Y-24678033D01*
X88577219Y-103865357D02*
X88101028Y-104198690D01*
X88577219Y-104436785D02*
X87577219Y-104436785D01*
X87577219Y-104436785D02*
X87577219Y-104055833D01*
X87577219Y-104055833D02*
X87624838Y-103960595D01*
X87624838Y-103960595D02*
X87672457Y-103912976D01*
X87672457Y-103912976D02*
X87767695Y-103865357D01*
X87767695Y-103865357D02*
X87910552Y-103865357D01*
X87910552Y-103865357D02*
X88005790Y-103912976D01*
X88005790Y-103912976D02*
X88053409Y-103960595D01*
X88053409Y-103960595D02*
X88101028Y-104055833D01*
X88101028Y-104055833D02*
X88101028Y-104436785D01*
X88577219Y-102912976D02*
X88577219Y-103484404D01*
X88577219Y-103198690D02*
X87577219Y-103198690D01*
X87577219Y-103198690D02*
X87720076Y-103293928D01*
X87720076Y-103293928D02*
X87815314Y-103389166D01*
X87815314Y-103389166D02*
X87862933Y-103484404D01*
X88577219Y-101960595D02*
X88577219Y-102532023D01*
X88577219Y-102246309D02*
X87577219Y-102246309D01*
X87577219Y-102246309D02*
X87720076Y-102341547D01*
X87720076Y-102341547D02*
X87815314Y-102436785D01*
X87815314Y-102436785D02*
X87862933Y-102532023D01*
X76463095Y-31004819D02*
X76463095Y-31814342D01*
X76463095Y-31814342D02*
X76510714Y-31909580D01*
X76510714Y-31909580D02*
X76558333Y-31957200D01*
X76558333Y-31957200D02*
X76653571Y-32004819D01*
X76653571Y-32004819D02*
X76844047Y-32004819D01*
X76844047Y-32004819D02*
X76939285Y-31957200D01*
X76939285Y-31957200D02*
X76986904Y-31909580D01*
X76986904Y-31909580D02*
X77034523Y-31814342D01*
X77034523Y-31814342D02*
X77034523Y-31004819D01*
X77463095Y-31100057D02*
X77510714Y-31052438D01*
X77510714Y-31052438D02*
X77605952Y-31004819D01*
X77605952Y-31004819D02*
X77844047Y-31004819D01*
X77844047Y-31004819D02*
X77939285Y-31052438D01*
X77939285Y-31052438D02*
X77986904Y-31100057D01*
X77986904Y-31100057D02*
X78034523Y-31195295D01*
X78034523Y-31195295D02*
X78034523Y-31290533D01*
X78034523Y-31290533D02*
X77986904Y-31433390D01*
X77986904Y-31433390D02*
X77415476Y-32004819D01*
X77415476Y-32004819D02*
X78034523Y-32004819D01*
X50294580Y-107642857D02*
X50342200Y-107690476D01*
X50342200Y-107690476D02*
X50389819Y-107833333D01*
X50389819Y-107833333D02*
X50389819Y-107928571D01*
X50389819Y-107928571D02*
X50342200Y-108071428D01*
X50342200Y-108071428D02*
X50246961Y-108166666D01*
X50246961Y-108166666D02*
X50151723Y-108214285D01*
X50151723Y-108214285D02*
X49961247Y-108261904D01*
X49961247Y-108261904D02*
X49818390Y-108261904D01*
X49818390Y-108261904D02*
X49627914Y-108214285D01*
X49627914Y-108214285D02*
X49532676Y-108166666D01*
X49532676Y-108166666D02*
X49437438Y-108071428D01*
X49437438Y-108071428D02*
X49389819Y-107928571D01*
X49389819Y-107928571D02*
X49389819Y-107833333D01*
X49389819Y-107833333D02*
X49437438Y-107690476D01*
X49437438Y-107690476D02*
X49485057Y-107642857D01*
X49389819Y-107309523D02*
X49389819Y-106690476D01*
X49389819Y-106690476D02*
X49770771Y-107023809D01*
X49770771Y-107023809D02*
X49770771Y-106880952D01*
X49770771Y-106880952D02*
X49818390Y-106785714D01*
X49818390Y-106785714D02*
X49866009Y-106738095D01*
X49866009Y-106738095D02*
X49961247Y-106690476D01*
X49961247Y-106690476D02*
X50199342Y-106690476D01*
X50199342Y-106690476D02*
X50294580Y-106738095D01*
X50294580Y-106738095D02*
X50342200Y-106785714D01*
X50342200Y-106785714D02*
X50389819Y-106880952D01*
X50389819Y-106880952D02*
X50389819Y-107166666D01*
X50389819Y-107166666D02*
X50342200Y-107261904D01*
X50342200Y-107261904D02*
X50294580Y-107309523D01*
X49389819Y-105785714D02*
X49389819Y-106261904D01*
X49389819Y-106261904D02*
X49866009Y-106309523D01*
X49866009Y-106309523D02*
X49818390Y-106261904D01*
X49818390Y-106261904D02*
X49770771Y-106166666D01*
X49770771Y-106166666D02*
X49770771Y-105928571D01*
X49770771Y-105928571D02*
X49818390Y-105833333D01*
X49818390Y-105833333D02*
X49866009Y-105785714D01*
X49866009Y-105785714D02*
X49961247Y-105738095D01*
X49961247Y-105738095D02*
X50199342Y-105738095D01*
X50199342Y-105738095D02*
X50294580Y-105785714D01*
X50294580Y-105785714D02*
X50342200Y-105833333D01*
X50342200Y-105833333D02*
X50389819Y-105928571D01*
X50389819Y-105928571D02*
X50389819Y-106166666D01*
X50389819Y-106166666D02*
X50342200Y-106261904D01*
X50342200Y-106261904D02*
X50294580Y-106309523D01*
X75469580Y-110272857D02*
X75517200Y-110320476D01*
X75517200Y-110320476D02*
X75564819Y-110463333D01*
X75564819Y-110463333D02*
X75564819Y-110558571D01*
X75564819Y-110558571D02*
X75517200Y-110701428D01*
X75517200Y-110701428D02*
X75421961Y-110796666D01*
X75421961Y-110796666D02*
X75326723Y-110844285D01*
X75326723Y-110844285D02*
X75136247Y-110891904D01*
X75136247Y-110891904D02*
X74993390Y-110891904D01*
X74993390Y-110891904D02*
X74802914Y-110844285D01*
X74802914Y-110844285D02*
X74707676Y-110796666D01*
X74707676Y-110796666D02*
X74612438Y-110701428D01*
X74612438Y-110701428D02*
X74564819Y-110558571D01*
X74564819Y-110558571D02*
X74564819Y-110463333D01*
X74564819Y-110463333D02*
X74612438Y-110320476D01*
X74612438Y-110320476D02*
X74660057Y-110272857D01*
X74564819Y-109939523D02*
X74564819Y-109320476D01*
X74564819Y-109320476D02*
X74945771Y-109653809D01*
X74945771Y-109653809D02*
X74945771Y-109510952D01*
X74945771Y-109510952D02*
X74993390Y-109415714D01*
X74993390Y-109415714D02*
X75041009Y-109368095D01*
X75041009Y-109368095D02*
X75136247Y-109320476D01*
X75136247Y-109320476D02*
X75374342Y-109320476D01*
X75374342Y-109320476D02*
X75469580Y-109368095D01*
X75469580Y-109368095D02*
X75517200Y-109415714D01*
X75517200Y-109415714D02*
X75564819Y-109510952D01*
X75564819Y-109510952D02*
X75564819Y-109796666D01*
X75564819Y-109796666D02*
X75517200Y-109891904D01*
X75517200Y-109891904D02*
X75469580Y-109939523D01*
X74660057Y-108939523D02*
X74612438Y-108891904D01*
X74612438Y-108891904D02*
X74564819Y-108796666D01*
X74564819Y-108796666D02*
X74564819Y-108558571D01*
X74564819Y-108558571D02*
X74612438Y-108463333D01*
X74612438Y-108463333D02*
X74660057Y-108415714D01*
X74660057Y-108415714D02*
X74755295Y-108368095D01*
X74755295Y-108368095D02*
X74850533Y-108368095D01*
X74850533Y-108368095D02*
X74993390Y-108415714D01*
X74993390Y-108415714D02*
X75564819Y-108987142D01*
X75564819Y-108987142D02*
X75564819Y-108368095D01*
X63744580Y-57952857D02*
X63792200Y-58000476D01*
X63792200Y-58000476D02*
X63839819Y-58143333D01*
X63839819Y-58143333D02*
X63839819Y-58238571D01*
X63839819Y-58238571D02*
X63792200Y-58381428D01*
X63792200Y-58381428D02*
X63696961Y-58476666D01*
X63696961Y-58476666D02*
X63601723Y-58524285D01*
X63601723Y-58524285D02*
X63411247Y-58571904D01*
X63411247Y-58571904D02*
X63268390Y-58571904D01*
X63268390Y-58571904D02*
X63077914Y-58524285D01*
X63077914Y-58524285D02*
X62982676Y-58476666D01*
X62982676Y-58476666D02*
X62887438Y-58381428D01*
X62887438Y-58381428D02*
X62839819Y-58238571D01*
X62839819Y-58238571D02*
X62839819Y-58143333D01*
X62839819Y-58143333D02*
X62887438Y-58000476D01*
X62887438Y-58000476D02*
X62935057Y-57952857D01*
X63839819Y-57000476D02*
X63839819Y-57571904D01*
X63839819Y-57286190D02*
X62839819Y-57286190D01*
X62839819Y-57286190D02*
X62982676Y-57381428D01*
X62982676Y-57381428D02*
X63077914Y-57476666D01*
X63077914Y-57476666D02*
X63125533Y-57571904D01*
X63173152Y-56143333D02*
X63839819Y-56143333D01*
X62792200Y-56381428D02*
X63506485Y-56619523D01*
X63506485Y-56619523D02*
X63506485Y-56000476D01*
X42357142Y-34549580D02*
X42309523Y-34597200D01*
X42309523Y-34597200D02*
X42166666Y-34644819D01*
X42166666Y-34644819D02*
X42071428Y-34644819D01*
X42071428Y-34644819D02*
X41928571Y-34597200D01*
X41928571Y-34597200D02*
X41833333Y-34501961D01*
X41833333Y-34501961D02*
X41785714Y-34406723D01*
X41785714Y-34406723D02*
X41738095Y-34216247D01*
X41738095Y-34216247D02*
X41738095Y-34073390D01*
X41738095Y-34073390D02*
X41785714Y-33882914D01*
X41785714Y-33882914D02*
X41833333Y-33787676D01*
X41833333Y-33787676D02*
X41928571Y-33692438D01*
X41928571Y-33692438D02*
X42071428Y-33644819D01*
X42071428Y-33644819D02*
X42166666Y-33644819D01*
X42166666Y-33644819D02*
X42309523Y-33692438D01*
X42309523Y-33692438D02*
X42357142Y-33740057D01*
X43309523Y-34644819D02*
X42738095Y-34644819D01*
X43023809Y-34644819D02*
X43023809Y-33644819D01*
X43023809Y-33644819D02*
X42928571Y-33787676D01*
X42928571Y-33787676D02*
X42833333Y-33882914D01*
X42833333Y-33882914D02*
X42738095Y-33930533D01*
X43928571Y-33644819D02*
X44023809Y-33644819D01*
X44023809Y-33644819D02*
X44119047Y-33692438D01*
X44119047Y-33692438D02*
X44166666Y-33740057D01*
X44166666Y-33740057D02*
X44214285Y-33835295D01*
X44214285Y-33835295D02*
X44261904Y-34025771D01*
X44261904Y-34025771D02*
X44261904Y-34263866D01*
X44261904Y-34263866D02*
X44214285Y-34454342D01*
X44214285Y-34454342D02*
X44166666Y-34549580D01*
X44166666Y-34549580D02*
X44119047Y-34597200D01*
X44119047Y-34597200D02*
X44023809Y-34644819D01*
X44023809Y-34644819D02*
X43928571Y-34644819D01*
X43928571Y-34644819D02*
X43833333Y-34597200D01*
X43833333Y-34597200D02*
X43785714Y-34549580D01*
X43785714Y-34549580D02*
X43738095Y-34454342D01*
X43738095Y-34454342D02*
X43690476Y-34263866D01*
X43690476Y-34263866D02*
X43690476Y-34025771D01*
X43690476Y-34025771D02*
X43738095Y-33835295D01*
X43738095Y-33835295D02*
X43785714Y-33740057D01*
X43785714Y-33740057D02*
X43833333Y-33692438D01*
X43833333Y-33692438D02*
X43928571Y-33644819D01*
X36295180Y-60511905D02*
X35485657Y-60511905D01*
X35485657Y-60511905D02*
X35390419Y-60559524D01*
X35390419Y-60559524D02*
X35342800Y-60607143D01*
X35342800Y-60607143D02*
X35295180Y-60702381D01*
X35295180Y-60702381D02*
X35295180Y-60892857D01*
X35295180Y-60892857D02*
X35342800Y-60988095D01*
X35342800Y-60988095D02*
X35390419Y-61035714D01*
X35390419Y-61035714D02*
X35485657Y-61083333D01*
X35485657Y-61083333D02*
X36295180Y-61083333D01*
X35295180Y-62083333D02*
X35295180Y-61511905D01*
X35295180Y-61797619D02*
X36295180Y-61797619D01*
X36295180Y-61797619D02*
X36152323Y-61702381D01*
X36152323Y-61702381D02*
X36057085Y-61607143D01*
X36057085Y-61607143D02*
X36009466Y-61511905D01*
X35295180Y-63035714D02*
X35295180Y-62464286D01*
X35295180Y-62750000D02*
X36295180Y-62750000D01*
X36295180Y-62750000D02*
X36152323Y-62654762D01*
X36152323Y-62654762D02*
X36057085Y-62559524D01*
X36057085Y-62559524D02*
X36009466Y-62464286D01*
X40357142Y-66449580D02*
X40309523Y-66497200D01*
X40309523Y-66497200D02*
X40166666Y-66544819D01*
X40166666Y-66544819D02*
X40071428Y-66544819D01*
X40071428Y-66544819D02*
X39928571Y-66497200D01*
X39928571Y-66497200D02*
X39833333Y-66401961D01*
X39833333Y-66401961D02*
X39785714Y-66306723D01*
X39785714Y-66306723D02*
X39738095Y-66116247D01*
X39738095Y-66116247D02*
X39738095Y-65973390D01*
X39738095Y-65973390D02*
X39785714Y-65782914D01*
X39785714Y-65782914D02*
X39833333Y-65687676D01*
X39833333Y-65687676D02*
X39928571Y-65592438D01*
X39928571Y-65592438D02*
X40071428Y-65544819D01*
X40071428Y-65544819D02*
X40166666Y-65544819D01*
X40166666Y-65544819D02*
X40309523Y-65592438D01*
X40309523Y-65592438D02*
X40357142Y-65640057D01*
X41309523Y-66544819D02*
X40738095Y-66544819D01*
X41023809Y-66544819D02*
X41023809Y-65544819D01*
X41023809Y-65544819D02*
X40928571Y-65687676D01*
X40928571Y-65687676D02*
X40833333Y-65782914D01*
X40833333Y-65782914D02*
X40738095Y-65830533D01*
X41785714Y-66544819D02*
X41976190Y-66544819D01*
X41976190Y-66544819D02*
X42071428Y-66497200D01*
X42071428Y-66497200D02*
X42119047Y-66449580D01*
X42119047Y-66449580D02*
X42214285Y-66306723D01*
X42214285Y-66306723D02*
X42261904Y-66116247D01*
X42261904Y-66116247D02*
X42261904Y-65735295D01*
X42261904Y-65735295D02*
X42214285Y-65640057D01*
X42214285Y-65640057D02*
X42166666Y-65592438D01*
X42166666Y-65592438D02*
X42071428Y-65544819D01*
X42071428Y-65544819D02*
X41880952Y-65544819D01*
X41880952Y-65544819D02*
X41785714Y-65592438D01*
X41785714Y-65592438D02*
X41738095Y-65640057D01*
X41738095Y-65640057D02*
X41690476Y-65735295D01*
X41690476Y-65735295D02*
X41690476Y-65973390D01*
X41690476Y-65973390D02*
X41738095Y-66068628D01*
X41738095Y-66068628D02*
X41785714Y-66116247D01*
X41785714Y-66116247D02*
X41880952Y-66163866D01*
X41880952Y-66163866D02*
X42071428Y-66163866D01*
X42071428Y-66163866D02*
X42166666Y-66116247D01*
X42166666Y-66116247D02*
X42214285Y-66068628D01*
X42214285Y-66068628D02*
X42261904Y-65973390D01*
X38607142Y-69859580D02*
X38559523Y-69907200D01*
X38559523Y-69907200D02*
X38416666Y-69954819D01*
X38416666Y-69954819D02*
X38321428Y-69954819D01*
X38321428Y-69954819D02*
X38178571Y-69907200D01*
X38178571Y-69907200D02*
X38083333Y-69811961D01*
X38083333Y-69811961D02*
X38035714Y-69716723D01*
X38035714Y-69716723D02*
X37988095Y-69526247D01*
X37988095Y-69526247D02*
X37988095Y-69383390D01*
X37988095Y-69383390D02*
X38035714Y-69192914D01*
X38035714Y-69192914D02*
X38083333Y-69097676D01*
X38083333Y-69097676D02*
X38178571Y-69002438D01*
X38178571Y-69002438D02*
X38321428Y-68954819D01*
X38321428Y-68954819D02*
X38416666Y-68954819D01*
X38416666Y-68954819D02*
X38559523Y-69002438D01*
X38559523Y-69002438D02*
X38607142Y-69050057D01*
X39559523Y-69954819D02*
X38988095Y-69954819D01*
X39273809Y-69954819D02*
X39273809Y-68954819D01*
X39273809Y-68954819D02*
X39178571Y-69097676D01*
X39178571Y-69097676D02*
X39083333Y-69192914D01*
X39083333Y-69192914D02*
X38988095Y-69240533D01*
X40416666Y-68954819D02*
X40226190Y-68954819D01*
X40226190Y-68954819D02*
X40130952Y-69002438D01*
X40130952Y-69002438D02*
X40083333Y-69050057D01*
X40083333Y-69050057D02*
X39988095Y-69192914D01*
X39988095Y-69192914D02*
X39940476Y-69383390D01*
X39940476Y-69383390D02*
X39940476Y-69764342D01*
X39940476Y-69764342D02*
X39988095Y-69859580D01*
X39988095Y-69859580D02*
X40035714Y-69907200D01*
X40035714Y-69907200D02*
X40130952Y-69954819D01*
X40130952Y-69954819D02*
X40321428Y-69954819D01*
X40321428Y-69954819D02*
X40416666Y-69907200D01*
X40416666Y-69907200D02*
X40464285Y-69859580D01*
X40464285Y-69859580D02*
X40511904Y-69764342D01*
X40511904Y-69764342D02*
X40511904Y-69526247D01*
X40511904Y-69526247D02*
X40464285Y-69431009D01*
X40464285Y-69431009D02*
X40416666Y-69383390D01*
X40416666Y-69383390D02*
X40321428Y-69335771D01*
X40321428Y-69335771D02*
X40130952Y-69335771D01*
X40130952Y-69335771D02*
X40035714Y-69383390D01*
X40035714Y-69383390D02*
X39988095Y-69431009D01*
X39988095Y-69431009D02*
X39940476Y-69526247D01*
X53013095Y-47944819D02*
X53013095Y-48754342D01*
X53013095Y-48754342D02*
X53060714Y-48849580D01*
X53060714Y-48849580D02*
X53108333Y-48897200D01*
X53108333Y-48897200D02*
X53203571Y-48944819D01*
X53203571Y-48944819D02*
X53394047Y-48944819D01*
X53394047Y-48944819D02*
X53489285Y-48897200D01*
X53489285Y-48897200D02*
X53536904Y-48849580D01*
X53536904Y-48849580D02*
X53584523Y-48754342D01*
X53584523Y-48754342D02*
X53584523Y-47944819D01*
X54536904Y-47944819D02*
X54060714Y-47944819D01*
X54060714Y-47944819D02*
X54013095Y-48421009D01*
X54013095Y-48421009D02*
X54060714Y-48373390D01*
X54060714Y-48373390D02*
X54155952Y-48325771D01*
X54155952Y-48325771D02*
X54394047Y-48325771D01*
X54394047Y-48325771D02*
X54489285Y-48373390D01*
X54489285Y-48373390D02*
X54536904Y-48421009D01*
X54536904Y-48421009D02*
X54584523Y-48516247D01*
X54584523Y-48516247D02*
X54584523Y-48754342D01*
X54584523Y-48754342D02*
X54536904Y-48849580D01*
X54536904Y-48849580D02*
X54489285Y-48897200D01*
X54489285Y-48897200D02*
X54394047Y-48944819D01*
X54394047Y-48944819D02*
X54155952Y-48944819D01*
X54155952Y-48944819D02*
X54060714Y-48897200D01*
X54060714Y-48897200D02*
X54013095Y-48849580D01*
X112658628Y-65941190D02*
X113134819Y-65941190D01*
X112134819Y-66274523D02*
X112658628Y-65941190D01*
X112658628Y-65941190D02*
X112134819Y-65607857D01*
X113134819Y-64750714D02*
X113134819Y-65322142D01*
X113134819Y-65036428D02*
X112134819Y-65036428D01*
X112134819Y-65036428D02*
X112277676Y-65131666D01*
X112277676Y-65131666D02*
X112372914Y-65226904D01*
X112372914Y-65226904D02*
X112420533Y-65322142D01*
D14*
%TO.C,J2*%
X122950000Y-32300000D02*
X122950000Y-29920000D01*
X122950000Y-25680000D02*
X122950000Y-23300000D01*
X122950000Y-23300000D02*
X124380000Y-23300000D01*
X137250000Y-23300000D02*
X128620000Y-23300000D01*
X137250000Y-23300000D02*
X137250000Y-32300000D01*
X137250000Y-32300000D02*
X122950000Y-32300000D01*
D15*
X122400000Y-27800000D02*
G75*
G02*
X122200000Y-27800000I-100000J0D01*
G01*
X122200000Y-27800000D02*
G75*
G02*
X122400000Y-27800000I100000J0D01*
G01*
D16*
%TO.C,SW2*%
X88860000Y-60820000D02*
X93060000Y-60820000D01*
X88860000Y-62020000D02*
X88860000Y-60820000D01*
X88860000Y-69670000D02*
X88860000Y-70020000D01*
X88860000Y-70020000D02*
X93060000Y-70020000D01*
X93060000Y-60820000D02*
X93060000Y-62020000D01*
X93060000Y-70020000D02*
X93060000Y-68820000D01*
X88860000Y-69400000D02*
X88380000Y-68920000D01*
X88860000Y-68920000D01*
X88860000Y-69400000D01*
G36*
X88860000Y-69400000D02*
G01*
X88380000Y-68920000D01*
X88860000Y-68920000D01*
X88860000Y-69400000D01*
G37*
%TO.C,C40*%
X42884165Y-88590000D02*
X43115835Y-88590000D01*
X42884165Y-89310000D02*
X43115835Y-89310000D01*
%TO.C,U4*%
X65675000Y-22065000D02*
X63725000Y-22065000D01*
X65675000Y-22065000D02*
X67625000Y-22065000D01*
X65675000Y-30935000D02*
X63725000Y-30935000D01*
X65675000Y-30935000D02*
X67625000Y-30935000D01*
X68615000Y-31200000D02*
X68135000Y-31200000D01*
X68375000Y-30870000D01*
X68615000Y-31200000D01*
G36*
X68615000Y-31200000D02*
G01*
X68135000Y-31200000D01*
X68375000Y-30870000D01*
X68615000Y-31200000D01*
G37*
%TO.C,J5*%
X20294000Y-92940000D02*
X30215000Y-92940000D01*
X20294000Y-103060000D02*
X20294000Y-92940000D01*
X20294000Y-103060000D02*
X30215000Y-103060000D01*
X23254000Y-103060000D02*
X23254000Y-92940000D01*
X24280000Y-94430000D02*
X24316000Y-94465000D01*
X24486000Y-94225000D02*
X24532000Y-94272000D01*
X26578000Y-96727000D02*
X26624000Y-96774000D01*
X26794000Y-96534000D02*
X26829000Y-96569000D01*
X28155000Y-103060000D02*
X28155000Y-92940000D01*
X29655000Y-103060000D02*
X29655000Y-92940000D01*
X29715000Y-103300000D02*
X30455000Y-103300000D01*
X30215000Y-103060000D02*
X30215000Y-92940000D01*
X30455000Y-103300000D02*
X30455000Y-102800000D01*
X24019574Y-101183042D02*
G75*
G02*
X24020001Y-99816001I1535419J683041D01*
G01*
X24871958Y-98964574D02*
G75*
G02*
X26239000Y-98965000I683042J-1535426D01*
G01*
X26238042Y-102035426D02*
G75*
G02*
X24871001Y-102034999I-683041J1535419D01*
G01*
X27089755Y-99816682D02*
G75*
G02*
X27234999Y-100500000I-1534755J-683318D01*
G01*
X27235252Y-100471195D02*
G75*
G02*
X27089999Y-101184000I-1680253J-28806D01*
G01*
X27235000Y-95500000D02*
G75*
G02*
X23875000Y-95500000I-1680000J0D01*
G01*
X23875000Y-95500000D02*
G75*
G02*
X27235000Y-95500000I1680000J0D01*
G01*
%TO.C,C12*%
X73865000Y-64694165D02*
X73865000Y-64925835D01*
X74585000Y-64694165D02*
X74585000Y-64925835D01*
%TO.C,C20*%
X43115835Y-52990000D02*
X42884165Y-52990000D01*
X43115835Y-53710000D02*
X42884165Y-53710000D01*
%TO.C,J4*%
X20294000Y-36440000D02*
X30215000Y-36440000D01*
X20294000Y-46560000D02*
X20294000Y-36440000D01*
X20294000Y-46560000D02*
X30215000Y-46560000D01*
X23254000Y-46560000D02*
X23254000Y-36440000D01*
X24280000Y-37930000D02*
X24316000Y-37965000D01*
X24486000Y-37725000D02*
X24532000Y-37772000D01*
X26578000Y-40227000D02*
X26624000Y-40274000D01*
X26794000Y-40034000D02*
X26829000Y-40069000D01*
X28155000Y-46560000D02*
X28155000Y-36440000D01*
X29655000Y-46560000D02*
X29655000Y-36440000D01*
X29715000Y-46800000D02*
X30455000Y-46800000D01*
X30215000Y-46560000D02*
X30215000Y-36440000D01*
X30455000Y-46800000D02*
X30455000Y-46300000D01*
X24019574Y-44683042D02*
G75*
G02*
X24020001Y-43316001I1535419J683041D01*
G01*
X24871958Y-42464574D02*
G75*
G02*
X26239000Y-42465000I683042J-1535426D01*
G01*
X26238042Y-45535426D02*
G75*
G02*
X24871001Y-45534999I-683041J1535419D01*
G01*
X27089755Y-43316682D02*
G75*
G02*
X27234999Y-44000000I-1534755J-683318D01*
G01*
X27235252Y-43971195D02*
G75*
G02*
X27089999Y-44684000I-1680253J-28806D01*
G01*
X27235000Y-39000000D02*
G75*
G02*
X23875000Y-39000000I-1680000J0D01*
G01*
X23875000Y-39000000D02*
G75*
G02*
X27235000Y-39000000I1680000J0D01*
G01*
%TO.C,C27*%
X35590000Y-107538748D02*
X35590000Y-108961252D01*
X37410000Y-107538748D02*
X37410000Y-108961252D01*
%TO.C,A1*%
X88810000Y-35520000D02*
X88810000Y-53560000D01*
X88810000Y-53560000D02*
X91480000Y-53560000D01*
X91480000Y-38190000D02*
X91480000Y-35520000D01*
X91480000Y-38190000D02*
X129580000Y-38190000D01*
X91480000Y-50890000D02*
X91480000Y-53560000D01*
X94020000Y-50890000D02*
X91480000Y-50890000D01*
X94020000Y-50890000D02*
X94020000Y-53560000D01*
X94020000Y-50890000D02*
X129580000Y-50890000D01*
X94020000Y-53560000D02*
X132250000Y-53560000D01*
X124370000Y-40600000D02*
X134790000Y-40600000D01*
X124370000Y-48480000D02*
X124370000Y-40600000D01*
X129580000Y-38190000D02*
X129580000Y-35520000D01*
X129580000Y-50890000D02*
X129580000Y-53560000D01*
X132250000Y-35520000D02*
X88810000Y-35520000D01*
X132250000Y-35520000D02*
X132250000Y-40600000D01*
X132250000Y-53560000D02*
X132250000Y-48480000D01*
X134790000Y-40600000D02*
X134790000Y-48480000D01*
X134790000Y-48480000D02*
X124370000Y-48480000D01*
%TO.C,C21*%
X38640000Y-73865835D02*
X38640000Y-73634165D01*
X39360000Y-73865835D02*
X39360000Y-73634165D01*
%TO.C,U3*%
X65250000Y-36065000D02*
X63300000Y-36065000D01*
X65250000Y-36065000D02*
X67200000Y-36065000D01*
X65250000Y-44935000D02*
X63300000Y-44935000D01*
X65250000Y-44935000D02*
X67200000Y-44935000D01*
X68190000Y-45200000D02*
X67710000Y-45200000D01*
X67950000Y-44870000D01*
X68190000Y-45200000D01*
G36*
X68190000Y-45200000D02*
G01*
X67710000Y-45200000D01*
X67950000Y-44870000D01*
X68190000Y-45200000D01*
G37*
%TO.C,U7*%
X77725000Y-54375000D02*
X75775000Y-54375000D01*
X77725000Y-54375000D02*
X79675000Y-54375000D01*
X77725000Y-63245000D02*
X75775000Y-63245000D01*
X77725000Y-63245000D02*
X79675000Y-63245000D01*
X80665000Y-63510000D02*
X80185000Y-63510000D01*
X80425000Y-63180000D01*
X80665000Y-63510000D01*
G36*
X80665000Y-63510000D02*
G01*
X80185000Y-63510000D01*
X80425000Y-63180000D01*
X80665000Y-63510000D01*
G37*
%TO.C,C17*%
X34590000Y-71538748D02*
X34590000Y-72961252D01*
X36410000Y-71538748D02*
X36410000Y-72961252D01*
%TO.C,U23*%
X117595000Y-74860300D02*
X117595000Y-72910300D01*
X117595000Y-74860300D02*
X117595000Y-76810300D01*
X122715000Y-74860300D02*
X122715000Y-72910300D01*
X122715000Y-74860300D02*
X122715000Y-76810300D01*
X122950000Y-72400300D02*
X122620000Y-72160300D01*
X122950000Y-71920300D01*
X122950000Y-72400300D01*
G36*
X122950000Y-72400300D02*
G01*
X122620000Y-72160300D01*
X122950000Y-71920300D01*
X122950000Y-72400300D01*
G37*
%TO.C,C13*%
X61865000Y-71694165D02*
X61865000Y-71925835D01*
X62585000Y-71694165D02*
X62585000Y-71925835D01*
%TO.C,C9*%
X40884165Y-48890000D02*
X41115835Y-48890000D01*
X40884165Y-49610000D02*
X41115835Y-49610000D01*
%TO.C,C4*%
X61890000Y-32074165D02*
X61890000Y-32305835D01*
X62610000Y-32074165D02*
X62610000Y-32305835D01*
%TO.C,U22*%
X116290000Y-56225000D02*
X116290000Y-56470000D01*
X116290000Y-67995000D02*
X116290000Y-67750000D01*
X120150000Y-56225000D02*
X116290000Y-56225000D01*
X120150000Y-56225000D02*
X124010000Y-56225000D01*
X120150000Y-67995000D02*
X116290000Y-67995000D01*
X120150000Y-67995000D02*
X124010000Y-67995000D01*
X124010000Y-56225000D02*
X124010000Y-56470000D01*
X124010000Y-67995000D02*
X124010000Y-67750000D01*
X115437500Y-56470000D02*
X115097500Y-56000000D01*
X115777500Y-56000000D01*
X115437500Y-56470000D01*
G36*
X115437500Y-56470000D02*
G01*
X115097500Y-56000000D01*
X115777500Y-56000000D01*
X115437500Y-56470000D01*
G37*
%TO.C,C28*%
X37615835Y-84890000D02*
X37384165Y-84890000D01*
X37615835Y-85610000D02*
X37384165Y-85610000D01*
%TO.C,U9*%
X65725000Y-46875000D02*
X63775000Y-46875000D01*
X65725000Y-46875000D02*
X67675000Y-46875000D01*
X65725000Y-55745000D02*
X63775000Y-55745000D01*
X65725000Y-55745000D02*
X67675000Y-55745000D01*
X68665000Y-56010000D02*
X68185000Y-56010000D01*
X68425000Y-55680000D01*
X68665000Y-56010000D01*
G36*
X68665000Y-56010000D02*
G01*
X68185000Y-56010000D01*
X68425000Y-55680000D01*
X68665000Y-56010000D01*
G37*
%TO.C,U19*%
X65715000Y-91695000D02*
X63765000Y-91695000D01*
X65715000Y-91695000D02*
X67665000Y-91695000D01*
X65715000Y-100565000D02*
X63765000Y-100565000D01*
X65715000Y-100565000D02*
X67665000Y-100565000D01*
X68655000Y-100830000D02*
X68175000Y-100830000D01*
X68415000Y-100500000D01*
X68655000Y-100830000D01*
G36*
X68655000Y-100830000D02*
G01*
X68175000Y-100830000D01*
X68415000Y-100500000D01*
X68655000Y-100830000D01*
G37*
%TO.C,Q4*%
X87649900Y-93562500D02*
X87649900Y-92912500D01*
X87649900Y-93562500D02*
X87649900Y-94212500D01*
X90769900Y-93562500D02*
X90769900Y-92912500D01*
X90769900Y-93562500D02*
X90769900Y-94212500D01*
X87699900Y-94725000D02*
X87369900Y-94965000D01*
X87369900Y-94485000D01*
X87699900Y-94725000D01*
G36*
X87699900Y-94725000D02*
G01*
X87369900Y-94965000D01*
X87369900Y-94485000D01*
X87699900Y-94725000D01*
G37*
%TO.C,J3*%
X20294000Y-49690000D02*
X30215000Y-49690000D01*
X20294000Y-89810000D02*
X20294000Y-49690000D01*
X20294000Y-89810000D02*
X30215000Y-89810000D01*
X23254000Y-89810000D02*
X23254000Y-49690000D01*
X24280000Y-51180000D02*
X24316000Y-51215000D01*
X24280000Y-56180000D02*
X24316000Y-56215000D01*
X24280000Y-61180000D02*
X24316000Y-61215000D01*
X24280000Y-66180000D02*
X24316000Y-66215000D01*
X24280000Y-71180000D02*
X24316000Y-71215000D01*
X24280000Y-76180000D02*
X24316000Y-76215000D01*
X24280000Y-81180000D02*
X24316000Y-81215000D01*
X24486000Y-50975000D02*
X24532000Y-51022000D01*
X24486000Y-55975000D02*
X24532000Y-56022000D01*
X24486000Y-60975000D02*
X24532000Y-61022000D01*
X24486000Y-65975000D02*
X24532000Y-66022000D01*
X24486000Y-70975000D02*
X24532000Y-71022000D01*
X24486000Y-75975000D02*
X24532000Y-76022000D01*
X24486000Y-80975000D02*
X24532000Y-81022000D01*
X26578000Y-53477000D02*
X26624000Y-53524000D01*
X26578000Y-58477000D02*
X26624000Y-58524000D01*
X26578000Y-63477000D02*
X26624000Y-63524000D01*
X26578000Y-68477000D02*
X26624000Y-68524000D01*
X26578000Y-73477000D02*
X26624000Y-73524000D01*
X26578000Y-78477000D02*
X26624000Y-78524000D01*
X26578000Y-83477000D02*
X26624000Y-83524000D01*
X26794000Y-53284000D02*
X26829000Y-53319000D01*
X26794000Y-58284000D02*
X26829000Y-58319000D01*
X26794000Y-63284000D02*
X26829000Y-63319000D01*
X26794000Y-68284000D02*
X26829000Y-68319000D01*
X26794000Y-73284000D02*
X26829000Y-73319000D01*
X26794000Y-78284000D02*
X26829000Y-78319000D01*
X26794000Y-83284000D02*
X26829000Y-83319000D01*
X28155000Y-89810000D02*
X28155000Y-49690000D01*
X29655000Y-89810000D02*
X29655000Y-49690000D01*
X29715000Y-90050000D02*
X30455000Y-90050000D01*
X30215000Y-89810000D02*
X30215000Y-49690000D01*
X30455000Y-90050000D02*
X30455000Y-89550000D01*
X24019574Y-87933042D02*
G75*
G02*
X24020001Y-86566001I1535419J683041D01*
G01*
X24871958Y-85714574D02*
G75*
G02*
X26239000Y-85715000I683042J-1535426D01*
G01*
X26238042Y-88785426D02*
G75*
G02*
X24871001Y-88784999I-683041J1535419D01*
G01*
X27089755Y-86566682D02*
G75*
G02*
X27234999Y-87250000I-1534755J-683318D01*
G01*
X27235252Y-87221195D02*
G75*
G02*
X27089999Y-87934000I-1680253J-28806D01*
G01*
X27235000Y-52250000D02*
G75*
G02*
X23875000Y-52250000I-1680000J0D01*
G01*
X23875000Y-52250000D02*
G75*
G02*
X27235000Y-52250000I1680000J0D01*
G01*
X27235000Y-57250000D02*
G75*
G02*
X23875000Y-57250000I-1680000J0D01*
G01*
X23875000Y-57250000D02*
G75*
G02*
X27235000Y-57250000I1680000J0D01*
G01*
X27235000Y-62250000D02*
G75*
G02*
X23875000Y-62250000I-1680000J0D01*
G01*
X23875000Y-62250000D02*
G75*
G02*
X27235000Y-62250000I1680000J0D01*
G01*
X27235000Y-67250000D02*
G75*
G02*
X23875000Y-67250000I-1680000J0D01*
G01*
X23875000Y-67250000D02*
G75*
G02*
X27235000Y-67250000I1680000J0D01*
G01*
X27235000Y-72250000D02*
G75*
G02*
X23875000Y-72250000I-1680000J0D01*
G01*
X23875000Y-72250000D02*
G75*
G02*
X27235000Y-72250000I1680000J0D01*
G01*
X27235000Y-77250000D02*
G75*
G02*
X23875000Y-77250000I-1680000J0D01*
G01*
X23875000Y-77250000D02*
G75*
G02*
X27235000Y-77250000I1680000J0D01*
G01*
X27235000Y-82250000D02*
G75*
G02*
X23875000Y-82250000I-1680000J0D01*
G01*
X23875000Y-82250000D02*
G75*
G02*
X27235000Y-82250000I1680000J0D01*
G01*
%TO.C,C30*%
X42884165Y-70590000D02*
X43115835Y-70590000D01*
X42884165Y-71310000D02*
X43115835Y-71310000D01*
%TO.C,U10*%
X53725000Y-54375000D02*
X51775000Y-54375000D01*
X53725000Y-54375000D02*
X55675000Y-54375000D01*
X53725000Y-63245000D02*
X51775000Y-63245000D01*
X53725000Y-63245000D02*
X55675000Y-63245000D01*
X56665000Y-63510000D02*
X56185000Y-63510000D01*
X56425000Y-63180000D01*
X56665000Y-63510000D01*
G36*
X56665000Y-63510000D02*
G01*
X56185000Y-63510000D01*
X56425000Y-63180000D01*
X56665000Y-63510000D01*
G37*
%TO.C,C15*%
X49890000Y-64694165D02*
X49890000Y-64925835D01*
X50610000Y-64694165D02*
X50610000Y-64925835D01*
%TO.C,C24*%
X74185000Y-79514165D02*
X74185000Y-79745835D01*
X74905000Y-79514165D02*
X74905000Y-79745835D01*
%TO.C,C6*%
X38884165Y-49890000D02*
X39115835Y-49890000D01*
X38884165Y-50610000D02*
X39115835Y-50610000D01*
%TO.C,U8*%
X65600000Y-61375000D02*
X63650000Y-61375000D01*
X65600000Y-61375000D02*
X67550000Y-61375000D01*
X65600000Y-70245000D02*
X63650000Y-70245000D01*
X65600000Y-70245000D02*
X67550000Y-70245000D01*
X68540000Y-70510000D02*
X68060000Y-70510000D01*
X68300000Y-70180000D01*
X68540000Y-70510000D01*
G36*
X68540000Y-70510000D02*
G01*
X68060000Y-70510000D01*
X68300000Y-70180000D01*
X68540000Y-70510000D01*
G37*
%TO.C,U14*%
X77850000Y-69195000D02*
X75900000Y-69195000D01*
X77850000Y-69195000D02*
X79800000Y-69195000D01*
X77850000Y-78065000D02*
X75900000Y-78065000D01*
X77850000Y-78065000D02*
X79800000Y-78065000D01*
X80790000Y-78330000D02*
X80310000Y-78330000D01*
X80550000Y-78000000D01*
X80790000Y-78330000D01*
G36*
X80790000Y-78330000D02*
G01*
X80310000Y-78330000D01*
X80550000Y-78000000D01*
X80790000Y-78330000D01*
G37*
%TO.C,C37*%
X34590000Y-89538748D02*
X34590000Y-90961252D01*
X36410000Y-89538748D02*
X36410000Y-90961252D01*
D14*
%TO.C,J1*%
X113550000Y-83860000D02*
X113550000Y-114980000D01*
X113550000Y-114980000D02*
X134820000Y-114980000D01*
X134820000Y-83860000D02*
X113550000Y-83860000D01*
X134820000Y-114980000D02*
X134820000Y-83860000D01*
D17*
X113035000Y-110720000D02*
G75*
G02*
X112735000Y-110720000I-150000J0D01*
G01*
X112735000Y-110720000D02*
G75*
G02*
X113035000Y-110720000I150000J0D01*
G01*
D16*
%TO.C,U15*%
X65705000Y-76695000D02*
X63755000Y-76695000D01*
X65705000Y-76695000D02*
X67655000Y-76695000D01*
X65705000Y-85565000D02*
X63755000Y-85565000D01*
X65705000Y-85565000D02*
X67655000Y-85565000D01*
X68645000Y-85830000D02*
X68165000Y-85830000D01*
X68405000Y-85500000D01*
X68645000Y-85830000D01*
G36*
X68645000Y-85830000D02*
G01*
X68165000Y-85830000D01*
X68405000Y-85500000D01*
X68645000Y-85830000D01*
G37*
%TO.C,U1*%
X127200000Y-71610000D02*
X127415000Y-71610000D01*
X127200000Y-73920000D02*
X127200000Y-71610000D01*
X127200000Y-73920000D02*
X127200000Y-76230000D01*
X127200000Y-76230000D02*
X127415000Y-76230000D01*
X130020000Y-71610000D02*
X129805000Y-71610000D01*
X130020000Y-73920000D02*
X130020000Y-71610000D01*
X130020000Y-73920000D02*
X130020000Y-76230000D01*
X130020000Y-76230000D02*
X129805000Y-76230000D01*
X127415000Y-77020000D02*
X127085000Y-77260000D01*
X127085000Y-76780000D01*
X127415000Y-77020000D01*
G36*
X127415000Y-77020000D02*
G01*
X127085000Y-77260000D01*
X127085000Y-76780000D01*
X127415000Y-77020000D01*
G37*
%TO.C,C7*%
X34590000Y-53538748D02*
X34590000Y-54961252D01*
X36410000Y-53538748D02*
X36410000Y-54961252D01*
%TO.C,C29*%
X40884165Y-84890000D02*
X41115835Y-84890000D01*
X40884165Y-85610000D02*
X41115835Y-85610000D01*
%TO.C,C36*%
X38884165Y-103890000D02*
X39115835Y-103890000D01*
X38884165Y-104610000D02*
X39115835Y-104610000D01*
%TO.C,C2*%
X73540000Y-31844165D02*
X73540000Y-32075835D01*
X74260000Y-31844165D02*
X74260000Y-32075835D01*
%TO.C,C31*%
X38640000Y-91865835D02*
X38640000Y-91634165D01*
X39360000Y-91865835D02*
X39360000Y-91634165D01*
%TO.C,C11*%
X38640000Y-55865835D02*
X38640000Y-55634165D01*
X39360000Y-55865835D02*
X39360000Y-55634165D01*
%TO.C,C1*%
X38640000Y-37865835D02*
X38640000Y-37634165D01*
X39360000Y-37865835D02*
X39360000Y-37634165D01*
%TO.C,Q2*%
X75440000Y-39190000D02*
X74790000Y-39190000D01*
X75440000Y-39190000D02*
X76090000Y-39190000D01*
X75440000Y-42310000D02*
X74790000Y-42310000D01*
X75440000Y-42310000D02*
X76090000Y-42310000D01*
X76842500Y-42590000D02*
X76362500Y-42590000D01*
X76602500Y-42260000D01*
X76842500Y-42590000D01*
G36*
X76842500Y-42590000D02*
G01*
X76362500Y-42590000D01*
X76602500Y-42260000D01*
X76842500Y-42590000D01*
G37*
%TO.C,C23*%
X74235000Y-94014165D02*
X74235000Y-94245835D01*
X74955000Y-94014165D02*
X74955000Y-94245835D01*
%TO.C,U12*%
X89850000Y-75695000D02*
X87900000Y-75695000D01*
X89850000Y-75695000D02*
X91800000Y-75695000D01*
X89850000Y-84565000D02*
X87900000Y-84565000D01*
X89850000Y-84565000D02*
X91800000Y-84565000D01*
X92790000Y-84830000D02*
X92310000Y-84830000D01*
X92550000Y-84500000D01*
X92790000Y-84830000D01*
G36*
X92790000Y-84830000D02*
G01*
X92310000Y-84830000D01*
X92550000Y-84500000D01*
X92790000Y-84830000D01*
G37*
%TO.C,C39*%
X40884165Y-102890000D02*
X41115835Y-102890000D01*
X40884165Y-103610000D02*
X41115835Y-103610000D01*
%TO.C,C5*%
X49940000Y-48784165D02*
X49940000Y-49015835D01*
X50660000Y-48784165D02*
X50660000Y-49015835D01*
%TO.C,U13*%
X77850000Y-83695000D02*
X75900000Y-83695000D01*
X77850000Y-83695000D02*
X79800000Y-83695000D01*
X77850000Y-92565000D02*
X75900000Y-92565000D01*
X77850000Y-92565000D02*
X79800000Y-92565000D01*
X80790000Y-92830000D02*
X80310000Y-92830000D01*
X80550000Y-92500000D01*
X80790000Y-92830000D01*
G36*
X80790000Y-92830000D02*
G01*
X80310000Y-92830000D01*
X80550000Y-92500000D01*
X80790000Y-92830000D01*
G37*
%TO.C,U18*%
X63250000Y-106195000D02*
X61300000Y-106195000D01*
X63250000Y-106195000D02*
X65200000Y-106195000D01*
X63250000Y-115065000D02*
X61300000Y-115065000D01*
X63250000Y-115065000D02*
X65200000Y-115065000D01*
X66190000Y-115330000D02*
X65710000Y-115330000D01*
X65950000Y-115000000D01*
X66190000Y-115330000D01*
G36*
X66190000Y-115330000D02*
G01*
X65710000Y-115330000D01*
X65950000Y-115000000D01*
X66190000Y-115330000D01*
G37*
%TO.C,SW1*%
X103610000Y-75020000D02*
X103610000Y-79520000D01*
X106110000Y-80770000D02*
X107610000Y-80770000D01*
X107610000Y-73770000D02*
X106110000Y-73770000D01*
X110110000Y-79520000D02*
X110110000Y-75020000D01*
%TO.C,C34*%
X61930000Y-102014165D02*
X61930000Y-102245835D01*
X62650000Y-102014165D02*
X62650000Y-102245835D01*
%TO.C,C26*%
X38884165Y-85890000D02*
X39115835Y-85890000D01*
X38884165Y-86610000D02*
X39115835Y-86610000D01*
%TO.C,C33*%
X59515000Y-116514165D02*
X59515000Y-116745835D01*
X60235000Y-116514165D02*
X60235000Y-116745835D01*
%TO.C,C22*%
X86490000Y-86014165D02*
X86490000Y-86245835D01*
X87210000Y-86014165D02*
X87210000Y-86245835D01*
%TO.C,U20*%
X52250000Y-96565000D02*
X50300000Y-96565000D01*
X52250000Y-96565000D02*
X54200000Y-96565000D01*
X52250000Y-105435000D02*
X50300000Y-105435000D01*
X52250000Y-105435000D02*
X54200000Y-105435000D01*
X55190000Y-105700000D02*
X54710000Y-105700000D01*
X54950000Y-105370000D01*
X55190000Y-105700000D01*
G36*
X55190000Y-105700000D02*
G01*
X54710000Y-105700000D01*
X54950000Y-105370000D01*
X55190000Y-105700000D01*
G37*
%TO.C,C18*%
X37615835Y-66890000D02*
X37384165Y-66890000D01*
X37615835Y-67610000D02*
X37384165Y-67610000D01*
%TO.C,C3*%
X60390000Y-44884165D02*
X60390000Y-45115835D01*
X61110000Y-44884165D02*
X61110000Y-45115835D01*
%TO.C,C25*%
X61990000Y-87014165D02*
X61990000Y-87245835D01*
X62710000Y-87014165D02*
X62710000Y-87245835D01*
%TO.C,U17*%
X77425000Y-99195000D02*
X75475000Y-99195000D01*
X77425000Y-99195000D02*
X79375000Y-99195000D01*
X77425000Y-108065000D02*
X75475000Y-108065000D01*
X77425000Y-108065000D02*
X79375000Y-108065000D01*
X80365000Y-108330000D02*
X79885000Y-108330000D01*
X80125000Y-108000000D01*
X80365000Y-108330000D01*
G36*
X80365000Y-108330000D02*
G01*
X79885000Y-108330000D01*
X80125000Y-108000000D01*
X80365000Y-108330000D01*
G37*
%TO.C,C38*%
X37615835Y-102890000D02*
X37384165Y-102890000D01*
X37615835Y-103610000D02*
X37384165Y-103610000D01*
%TO.C,C8*%
X37615835Y-48890000D02*
X37384165Y-48890000D01*
X37615835Y-49610000D02*
X37384165Y-49610000D01*
%TO.C,Q3*%
X52777500Y-76425000D02*
X52777500Y-75775000D01*
X52777500Y-76425000D02*
X52777500Y-77075000D01*
X55897500Y-76425000D02*
X55897500Y-75775000D01*
X55897500Y-76425000D02*
X55897500Y-77075000D01*
X52827500Y-77587500D02*
X52497500Y-77827500D01*
X52497500Y-77347500D01*
X52827500Y-77587500D01*
G36*
X52827500Y-77587500D02*
G01*
X52497500Y-77827500D01*
X52497500Y-77347500D01*
X52827500Y-77587500D01*
G37*
%TO.C,Q1*%
X54885000Y-25777500D02*
X54235000Y-25777500D01*
X54885000Y-25777500D02*
X55535000Y-25777500D01*
X54885000Y-28897500D02*
X54235000Y-28897500D01*
X54885000Y-28897500D02*
X55535000Y-28897500D01*
X53722500Y-25827500D02*
X53482500Y-25497500D01*
X53962500Y-25497500D01*
X53722500Y-25827500D01*
G36*
X53722500Y-25827500D02*
G01*
X53482500Y-25497500D01*
X53962500Y-25497500D01*
X53722500Y-25827500D01*
G37*
%TO.C,U2*%
X77225000Y-21835000D02*
X75275000Y-21835000D01*
X77225000Y-21835000D02*
X79175000Y-21835000D01*
X77225000Y-30705000D02*
X75275000Y-30705000D01*
X77225000Y-30705000D02*
X79175000Y-30705000D01*
X80165000Y-30970000D02*
X79685000Y-30970000D01*
X79925000Y-30640000D01*
X80165000Y-30970000D01*
G36*
X80165000Y-30970000D02*
G01*
X79685000Y-30970000D01*
X79925000Y-30640000D01*
X80165000Y-30970000D01*
G37*
%TO.C,C35*%
X48415000Y-106884165D02*
X48415000Y-107115835D01*
X49135000Y-106884165D02*
X49135000Y-107115835D01*
%TO.C,C32*%
X73590000Y-109514165D02*
X73590000Y-109745835D01*
X74310000Y-109514165D02*
X74310000Y-109745835D01*
%TO.C,C14*%
X61865000Y-57194165D02*
X61865000Y-57425835D01*
X62585000Y-57194165D02*
X62585000Y-57425835D01*
%TO.C,C10*%
X42884165Y-34990000D02*
X43115835Y-34990000D01*
X42884165Y-35710000D02*
X43115835Y-35710000D01*
%TO.C,C19*%
X40884165Y-66890000D02*
X41115835Y-66890000D01*
X40884165Y-67610000D02*
X41115835Y-67610000D01*
%TO.C,C16*%
X38884165Y-67890000D02*
X39115835Y-67890000D01*
X38884165Y-68610000D02*
X39115835Y-68610000D01*
%TO.C,U5*%
X53775000Y-38775000D02*
X51825000Y-38775000D01*
X53775000Y-38775000D02*
X55725000Y-38775000D01*
X53775000Y-47645000D02*
X51825000Y-47645000D01*
X53775000Y-47645000D02*
X55725000Y-47645000D01*
X56715000Y-47910000D02*
X56235000Y-47910000D01*
X56475000Y-47580000D01*
X56715000Y-47910000D01*
G36*
X56715000Y-47910000D02*
G01*
X56235000Y-47910000D01*
X56475000Y-47580000D01*
X56715000Y-47910000D01*
G37*
%TO.C,Y1*%
X106630000Y-62340000D02*
X106630000Y-68590000D01*
X111680000Y-62340000D02*
X111680000Y-68590000D01*
X106630000Y-62340000D02*
G75*
G02*
X111680000Y-62340000I2525000J0D01*
G01*
X111680000Y-68590000D02*
G75*
G02*
X106630000Y-68590000I-2525000J0D01*
G01*
%TD*%
M02*
