M48
; DRILL file {KiCad 8.0.2} date 2024-05-02T21:50:00-0500
; FORMAT={-:-/ absolute / inch / decimal}
; #@! TF.CreationDate,2024-05-02T21:50:00-05:00
; #@! TF.GenerationSoftware,Kicad,Pcbnew,8.0.2
; #@! TF.FileFunction,Plated,1,2,PTH
FMAT,2
INCH
; #@! TA.AperFunction,Plated,PTH,ViaDrill
T1C0.0118
; #@! TA.AperFunction,Plated,PTH,ViaDrill
T2C0.0197
; #@! TA.AperFunction,Plated,PTH,ComponentDrill
T3C0.0236
; #@! TA.AperFunction,Plated,PTH,ComponentDrill
T4C0.0315
; #@! TA.AperFunction,Plated,PTH,ComponentDrill
T5C0.0354
; #@! TA.AperFunction,Plated,PTH,ComponentDrill
T6C0.0394
; #@! TA.AperFunction,Plated,PTH,ComponentDrill
T7C0.0433
; #@! TA.AperFunction,Plated,PTH,ComponentDrill
T8C0.0512
; #@! TA.AperFunction,Plated,PTH,ComponentDrill
T9C0.0669
; #@! TA.AperFunction,Plated,PTH,ComponentDrill
T10C0.1693
%
G90
G05
T1
X1.5551Y-2.0669
X1.5748Y-1.4862
X1.5748Y-2.9036
X1.5748Y-3.6122
X1.5749Y-2.1947
X1.6142Y-1.5256
X1.6142Y-2.943
X1.6142Y-3.6516
X1.6143Y-2.2341
X1.6929Y-1.7783
X1.6929Y-3.1957
X1.6929Y-3.9043
X1.693Y-2.4868
X1.7913Y-1.3976
X1.7913Y-3.9567
X1.7931Y-1.2211
X1.8011Y-2.8993
X1.8012Y-1.6929
X1.8504Y-2.2835
X1.8701Y-1.6142
X1.8808Y-3.2855
X1.8988Y-3.6119
X1.9488Y-2.9528
X1.9685Y-3.1102
X1.9783Y-1.3287
X2.0571Y-2.7264
X2.0571Y-3.9567
X2.1157Y-1.0763
X2.126Y-4.252
X2.1393Y-3.0525
X2.2331Y-4.3016
X2.2638Y-4.1929
X2.2715Y-1.6744
X2.2736Y-2.0276
X2.2736Y-3.7205
X2.2933Y-3.2382
X2.3031Y-1.8996
X2.3031Y-3.0118
X2.3251Y-1.5907
X2.3345Y-2.2504
X2.3751Y-1.9576
X2.3819Y-3.9862
X2.382Y-1.0521
X2.3917Y-2.1949
X2.4016Y-2.4508
X2.413Y-1.6815
X2.4307Y-1.1125
X2.4334Y-3.9638
X2.4409Y-2.3425
X2.4902Y-4.4882
X2.4961Y-4.0082
X2.5Y-4.1043
X2.5397Y-2.2182
X2.5407Y-1.4165
X2.5478Y-0.9766
X2.5485Y-2.0854
X2.5547Y-2.6174
X2.5591Y-1.6732
X2.5591Y-2.7067
X2.5591Y-2.9626
X2.5689Y-1.8799
X2.5689Y-3.3268
X2.5787Y-2.8445
X2.5787Y-3.8878
X2.5805Y-1.0934
X2.5811Y-3.7713
X2.5943Y-4.1007
X2.5971Y-1.9061
X2.5984Y-2.3622
X2.5984Y-3.7008
X2.6095Y-2.7255
X2.6181Y-1.3484
X2.6187Y-2.6884
X2.6476Y-3.4449
X2.6575Y-4.124
X2.6772Y-4.3898
X2.685Y-2.8251
X2.7165Y-3.6417
X2.7222Y-3.4127
X2.7362Y-4.1732
X2.7416Y-1.1111
X2.7486Y-2.0982
X2.7559Y-1.6008
X2.7854Y-1.3189
X2.7854Y-2.6378
X2.7854Y-3.9862
X2.7922Y-4.1893
X2.7927Y-3.8968
X2.7953Y-0.8858
X2.7953Y-2.2933
X2.7953Y-2.4016
X2.8021Y-3.6195
X2.8067Y-3.0459
X2.8248Y-3.4252
X2.8367Y-2.815
X2.8445Y-1.0236
X2.8543Y-2.4311
X2.8543Y-3.3268
X2.8548Y-1.2015
X2.8568Y-3.162
X2.8603Y-1.115
X2.8642Y-1.8701
X2.874Y-1.3484
X2.874Y-2.0472
X2.8937Y-3.0807
X2.9478Y-1.6553
X3.002Y-3.1988
X3.0155Y-3.9924
X3.0217Y-3.7106
X3.0242Y-2.3168
X3.0325Y-3.317
X3.0413Y-0.9744
X3.0413Y-1.1713
X3.0463Y-2.7999
X3.0487Y-1.0729
X3.061Y-2.5492
X3.0727Y-1.6209
X3.0757Y-2.2505
X3.0805Y-4.1061
X3.0807Y-2.874
X3.0897Y-2.3433
X3.1014Y-2.7572
X3.1102Y-2.0965
X3.1299Y-3.7697
X3.1656Y-3.0823
X3.1988Y-2.0276
X3.2049Y-4.0766
X3.2219Y-3.5211
X3.2258Y-3.4806
X3.2721Y-2.9299
X3.2751Y-3.0194
X3.2776Y-2.1555
X3.2776Y-3.248
X3.2874Y-4.1535
X3.2876Y-1.8371
X3.3268Y-3.3858
X3.3465Y-2.3425
X3.3561Y-3.2895
X3.3696Y-1.9834
X3.3702Y-2.7879
X3.3901Y-1.8422
X3.4449Y-3.6024
X3.4941Y-2.8839
X3.4983Y-2.7851
X3.5182Y-3.0994
X3.528Y-1.8079
X3.5335Y-3.4055
X3.534Y-3.2973
X3.5433Y-2.0374
X3.5505Y-3.2161
X3.5673Y-1.7685
X3.5925Y-1.939
X3.6516Y-2.1949
X3.6854Y-1.7291
X3.7008Y-3.5138
X3.7697Y-2.313
X3.7823Y-1.9275
X3.8035Y-1.7291
X3.8895Y-1.9124
X3.9113Y-2.2436
X3.9243Y-3.0606
X4.0748Y-1.9291
X4.0846Y-3.5827
X4.1999Y-3.8469
X4.252Y-1.5748
X4.252Y-4.3701
X4.2596Y-1.9415
X4.276Y-3.5008
X4.3209Y-3.9469
X4.3941Y-3.7764
X4.4193Y-1.6043
X4.439Y-3.9567
X4.5079Y-1.9291
X4.5669Y-1.7913
X4.5909Y-3.1071
X4.7244Y-2.161
X4.7441Y-2.4606
X4.7835Y-2.3228
X4.7878Y-3.5402
X4.7878Y-3.6976
X4.9059Y-2.9102
X4.9453Y-2.9781
X4.9803Y-2.2835
X5.0197Y-2.2047
X5.0787Y-2.2638
X5.0886Y-3.4252
X5.0984Y-4.4193
X5.128Y-2.5098
X5.1421Y-3.2252
X5.1575Y-2.3425
X5.1673Y-4.6654
X5.2209Y-2.3984
X5.2264Y-3.4252
T2
X1.2205Y-2.1949
X1.2205Y-2.9232
X1.2205Y-3.4154
X1.2205Y-4.0059
X1.3386Y-1.7815
X1.3386Y-1.9587
X1.3386Y-2.1949
X1.3386Y-2.4311
X1.3386Y-2.6496
X1.3386Y-2.9035
X1.3386Y-3.1398
X1.3386Y-3.3583
X1.3386Y-3.6122
X1.3386Y-3.8484
X1.3583Y-4.065
X1.4961Y-1.4862
X1.4961Y-2.1949
X1.4961Y-2.9035
X1.4961Y-3.6122
X1.5059Y-1.7224
X1.5059Y-2.4311
X1.5059Y-3.1398
X1.5059Y-3.8484
X1.5551Y-1.7224
X1.5551Y-2.4311
X1.5551Y-3.1398
X1.5551Y-3.8484
X1.5945Y-4.2047
X1.6043Y-1.7224
X1.6043Y-2.4311
X1.6043Y-3.1398
X1.6043Y-3.8484
X3.3169Y-1.2697
T3
X1.0541Y-1.1811
X1.0541Y-4.3307
X1.0913Y-1.0913
X1.0913Y-1.2709
X1.0913Y-4.2409
X1.0913Y-4.4205
X1.1811Y-1.0541
X1.1811Y-1.3081
X1.1811Y-4.2037
X1.1811Y-4.4577
X1.2709Y-1.0913
X1.2709Y-1.2709
X1.2709Y-4.2409
X1.2709Y-4.4205
X1.3081Y-1.1811
X1.3081Y-4.3307
X3.81Y-1.1811
X3.81Y-4.3307
X3.8472Y-1.0913
X3.8472Y-1.2709
X3.8472Y-4.2409
X3.8472Y-4.4205
X3.937Y-1.0541
X3.937Y-1.3081
X3.937Y-4.2037
X3.937Y-4.4577
X4.0268Y-1.0913
X4.0268Y-1.2709
X4.0268Y-4.2409
X4.0268Y-4.4205
X4.064Y-1.1811
X4.064Y-4.3307
T4
X4.2974Y-2.4813
X4.2974Y-2.5774
X4.2974Y-2.6734
T5
X3.5161Y-2.4772
X3.5161Y-2.5756
X3.5161Y-2.674
X3.6461Y-2.4772
X3.6461Y-2.5756
X3.6461Y-2.674
X4.5291Y-3.4642
X4.5291Y-3.5642
X4.5291Y-3.6642
X4.5291Y-3.7642
X4.5291Y-4.0142
X4.5291Y-4.1142
X4.5291Y-4.2142
X4.5291Y-4.3142
X4.6291Y-3.5142
X4.6291Y-3.6142
X4.6291Y-3.7142
X4.6291Y-3.8142
X4.6291Y-4.0642
X4.6291Y-4.1642
X4.6291Y-4.2642
X4.6291Y-4.3642
T6
X3.6516Y-1.4535
X3.6516Y-2.0535
X3.7516Y-1.4535
X3.7516Y-2.0535
X3.8516Y-1.4535
X3.8516Y-2.0535
X3.9516Y-1.4535
X3.9516Y-2.0535
X4.0516Y-1.4535
X4.0516Y-2.0535
X4.1516Y-1.4535
X4.1516Y-2.0535
X4.2516Y-1.4535
X4.2516Y-2.0535
X4.3516Y-1.4535
X4.3516Y-2.0535
X4.4516Y-1.4535
X4.4516Y-2.0535
X4.5516Y-1.4535
X4.5516Y-2.0535
X4.6516Y-1.4535
X4.6516Y-2.0535
X4.7516Y-1.4535
X4.7516Y-2.0535
X4.8516Y-1.4535
X4.8516Y-2.0535
X4.9516Y-1.4535
X4.9516Y-2.0535
X5.0516Y-1.4535
X5.0516Y-2.0535
T7
X4.1185Y-2.9142
X4.1185Y-3.1701
X4.2957Y-2.9142
X4.2957Y-3.1701
T8
X1.0061Y-1.5354
X1.0061Y-1.7323
X1.0061Y-2.0571
X1.0061Y-2.2539
X1.0061Y-2.4508
X1.0061Y-2.6476
X1.0061Y-2.8445
X1.0061Y-3.0413
X1.0061Y-3.2382
X1.0061Y-3.435
X1.0061Y-3.7598
X1.0061Y-3.9567
T9
X5.024Y-3.3039
X5.024Y-4.5244
T10
X1.1811Y-1.1811
X1.1811Y-4.3307
X3.937Y-1.1811
X3.937Y-4.3307
T4
G00X4.8622Y-1.1378
M15
G01X4.8622Y-1.0512
M16
G05
G00X4.937Y-0.9055
M15
G01X5.0236Y-0.9055
M16
G05
G00X5.1083Y-1.1378
M15
G01X5.1083Y-1.0512
M16
G05
M30
