%TF.GenerationSoftware,KiCad,Pcbnew,8.0.4*%
%TF.CreationDate,2024-09-06T01:32:15-04:00*%
%TF.ProjectId,LCC_Booster,4c43435f-426f-46f7-9374-65722e6b6963,3*%
%TF.SameCoordinates,Original*%
%TF.FileFunction,Drillmap*%
%TF.FilePolarity,Positive*%
%FSLAX45Y45*%
G04 Gerber Fmt 4.5, Leading zero omitted, Abs format (unit mm)*
G04 Created by KiCad (PCBNEW 8.0.4) date 2024-09-06 01:32:15*
%MOMM*%
%LPD*%
G01*
G04 APERTURE LIST*
%ADD10C,0.100000*%
%ADD11C,0.200000*%
%ADD12C,0.110000*%
%ADD13C,0.130000*%
%ADD14C,0.170000*%
%ADD15C,0.430000*%
G04 APERTURE END LIST*
D10*
X2000000Y-2000000D02*
X11000000Y-2000000D01*
X11000000Y-12000000D01*
X2000000Y-12000000D01*
X2000000Y-2000000D01*
D11*
D10*
X4265984Y-4190116D02*
X4295984Y-4220116D01*
X4295984Y-4190116D02*
X4265984Y-4220116D01*
X4265984Y-5690116D02*
X4295984Y-5720116D01*
X4295984Y-5690116D02*
X4265984Y-5720116D01*
X4265984Y-7190116D02*
X4295984Y-7220116D01*
X4295984Y-7190116D02*
X4265984Y-7220116D01*
X4265984Y-8690116D02*
X4295984Y-8720116D01*
X4295984Y-8690116D02*
X4265984Y-8720116D01*
X4585000Y-4935000D02*
X4615000Y-4965000D01*
X4615000Y-4935000D02*
X4585000Y-4965000D01*
X4585000Y-6435000D02*
X4615000Y-6465000D01*
X4615000Y-6435000D02*
X4585000Y-6465000D01*
X4585000Y-7935000D02*
X4615000Y-7965000D01*
X4615000Y-7935000D02*
X4585000Y-7965000D01*
X4585000Y-9435000D02*
X4615000Y-9465000D01*
X4615000Y-9435000D02*
X4585000Y-9465000D01*
X4780014Y-7210072D02*
X4810014Y-7240072D01*
X4810014Y-7210072D02*
X4780014Y-7240072D01*
X4781975Y-4202562D02*
X4811975Y-4232562D01*
X4811975Y-4202562D02*
X4781975Y-4232562D01*
X4789840Y-8716365D02*
X4819840Y-8746365D01*
X4819840Y-8716365D02*
X4789840Y-8746365D01*
X4793916Y-5707633D02*
X4823916Y-5737633D01*
X4823916Y-5707633D02*
X4793916Y-5737633D01*
X4885000Y-4985000D02*
X4915000Y-5015000D01*
X4915000Y-4985000D02*
X4885000Y-5015000D01*
X4885000Y-6485000D02*
X4915000Y-6515000D01*
X4915000Y-6485000D02*
X4885000Y-6515000D01*
X4885000Y-7985000D02*
X4915000Y-8015000D01*
X4915000Y-7985000D02*
X4885000Y-8015000D01*
X4885000Y-9485000D02*
X4915000Y-9515000D01*
X4915000Y-9485000D02*
X4885000Y-9515000D01*
X5012673Y-4346125D02*
X5042673Y-4376125D01*
X5042673Y-4346125D02*
X5012673Y-4376125D01*
X5045789Y-8779090D02*
X5075789Y-8809090D01*
X5075789Y-8779090D02*
X5045789Y-8809090D01*
X5088582Y-5772754D02*
X5118582Y-5802754D01*
X5118582Y-5772754D02*
X5088582Y-5802754D01*
X5102816Y-7275096D02*
X5132816Y-7305096D01*
X5132816Y-7275096D02*
X5102816Y-7305096D01*
X5135000Y-9435000D02*
X5165000Y-9465000D01*
X5165000Y-9435000D02*
X5135000Y-9465000D01*
X5185000Y-4985000D02*
X5215000Y-5015000D01*
X5215000Y-4985000D02*
X5185000Y-5015000D01*
X5185000Y-6485000D02*
X5215000Y-6515000D01*
X5215000Y-6485000D02*
X5185000Y-6515000D01*
X5185000Y-7985000D02*
X5215000Y-8015000D01*
X5215000Y-7985000D02*
X5185000Y-8015000D01*
X5235000Y-5385000D02*
X5265000Y-5415000D01*
X5265000Y-5385000D02*
X5235000Y-5415000D01*
X5235000Y-6885000D02*
X5265000Y-6915000D01*
X5265000Y-6885000D02*
X5235000Y-6915000D01*
X5235000Y-8385000D02*
X5265000Y-8415000D01*
X5265000Y-8385000D02*
X5235000Y-8415000D01*
X5235000Y-9885000D02*
X5265000Y-9915000D01*
X5265000Y-9885000D02*
X5235000Y-9915000D01*
X5349645Y-9870355D02*
X5379645Y-9900355D01*
X5379645Y-9870355D02*
X5349645Y-9900355D01*
X5385000Y-5385000D02*
X5415000Y-5415000D01*
X5415000Y-5385000D02*
X5385000Y-5415000D01*
X5385000Y-6885000D02*
X5415000Y-6915000D01*
X5415000Y-6885000D02*
X5385000Y-6915000D01*
X5385000Y-8385000D02*
X5415000Y-8415000D01*
X5415000Y-8385000D02*
X5385000Y-8415000D01*
X5408976Y-4986044D02*
X5438976Y-5016044D01*
X5438976Y-4986044D02*
X5408976Y-5016044D01*
X5408976Y-6486044D02*
X5438976Y-6516044D01*
X5438976Y-6486044D02*
X5408976Y-6516044D01*
X5408976Y-7986044D02*
X5438976Y-8016044D01*
X5438976Y-7986044D02*
X5408976Y-8016044D01*
X5485000Y-9435000D02*
X5515000Y-9465000D01*
X5515000Y-9435000D02*
X5485000Y-9465000D01*
X5685000Y-8385000D02*
X5715000Y-8415000D01*
X5715000Y-8385000D02*
X5685000Y-8415000D01*
X5735000Y-5335000D02*
X5765000Y-5365000D01*
X5765000Y-5335000D02*
X5735000Y-5365000D01*
X5735000Y-6885000D02*
X5765000Y-6915000D01*
X5765000Y-6885000D02*
X5735000Y-6915000D01*
X5735000Y-9885000D02*
X5765000Y-9915000D01*
X5765000Y-9885000D02*
X5735000Y-9915000D01*
X5835000Y-5585000D02*
X5865000Y-5615000D01*
X5865000Y-5585000D02*
X5835000Y-5615000D01*
X5935000Y-9185000D02*
X5965000Y-9215000D01*
X5965000Y-9185000D02*
X5935000Y-9215000D01*
X6053626Y-5558809D02*
X6083626Y-5588809D01*
X6083626Y-5558809D02*
X6053626Y-5588809D01*
X6185000Y-8735000D02*
X6215000Y-8765000D01*
X6215000Y-8735000D02*
X6185000Y-8765000D01*
X6235000Y-8885000D02*
X6265000Y-8915000D01*
X6265000Y-8885000D02*
X6235000Y-8915000D01*
X6285000Y-7535000D02*
X6315000Y-7565000D01*
X6315000Y-7535000D02*
X6285000Y-7565000D01*
X6385000Y-9535000D02*
X6415000Y-9565000D01*
X6415000Y-9535000D02*
X6385000Y-9565000D01*
X6835000Y-5785000D02*
X6865000Y-5815000D01*
X6865000Y-5785000D02*
X6835000Y-5815000D01*
X6935000Y-6835000D02*
X6965000Y-6865000D01*
X6965000Y-6835000D02*
X6935000Y-6865000D01*
X6972500Y-10622500D02*
X7002500Y-10652500D01*
X7002500Y-10622500D02*
X6972500Y-10652500D01*
X6985000Y-5335000D02*
X7015000Y-5365000D01*
X7015000Y-5335000D02*
X6985000Y-5365000D01*
X7285000Y-6310000D02*
X7315000Y-6340000D01*
X7315000Y-6310000D02*
X7285000Y-6340000D01*
X7310000Y-9160000D02*
X7340000Y-9190000D01*
X7340000Y-9160000D02*
X7310000Y-9190000D01*
X7310000Y-10060000D02*
X7340000Y-10090000D01*
X7340000Y-10060000D02*
X7310000Y-10090000D01*
X7735000Y-6585000D02*
X7765000Y-6615000D01*
X7765000Y-6585000D02*
X7735000Y-6615000D01*
X7785000Y-4685000D02*
X7815000Y-4715000D01*
X7815000Y-4685000D02*
X7785000Y-4715000D01*
X7885000Y-10185000D02*
X7915000Y-10215000D01*
X7915000Y-10185000D02*
X7885000Y-10215000D01*
X8010000Y-8535000D02*
X8040000Y-8565000D01*
X8040000Y-8535000D02*
X8010000Y-8565000D01*
X8016750Y-7753250D02*
X8046750Y-7783250D01*
X8046750Y-7753250D02*
X8016750Y-7783250D01*
X8035000Y-7335000D02*
X8065000Y-7365000D01*
X8065000Y-7335000D02*
X8035000Y-7365000D01*
X8085000Y-4585000D02*
X8115000Y-4615000D01*
X8115000Y-4585000D02*
X8085000Y-4615000D01*
X8135000Y-5985000D02*
X8165000Y-6015000D01*
X8165000Y-5985000D02*
X8135000Y-6015000D01*
X8135000Y-6485000D02*
X8165000Y-6515000D01*
X8165000Y-6485000D02*
X8135000Y-6515000D01*
X8135000Y-10335000D02*
X8165000Y-10365000D01*
X8165000Y-10335000D02*
X8135000Y-10365000D01*
X8151000Y-4785000D02*
X8181000Y-4815000D01*
X8181000Y-4785000D02*
X8151000Y-4815000D01*
X8160000Y-6310000D02*
X8190000Y-6340000D01*
X8190000Y-6310000D02*
X8160000Y-6340000D01*
X8344293Y-6116656D02*
X8374293Y-6146656D01*
X8374293Y-6116656D02*
X8344293Y-6146656D01*
X8410000Y-9260000D02*
X8440000Y-9290000D01*
X8440000Y-9260000D02*
X8410000Y-9290000D01*
X8435000Y-4685000D02*
X8465000Y-4715000D01*
X8465000Y-4685000D02*
X8435000Y-4715000D01*
X8585000Y-8835000D02*
X8615000Y-8865000D01*
X8615000Y-8835000D02*
X8585000Y-8865000D01*
X8610000Y-8560000D02*
X8640000Y-8590000D01*
X8640000Y-8560000D02*
X8610000Y-8590000D01*
X8685000Y-4285000D02*
X8715000Y-4315000D01*
X8715000Y-4285000D02*
X8685000Y-4315000D01*
X8685000Y-6685000D02*
X8715000Y-6715000D01*
X8715000Y-6685000D02*
X8685000Y-6715000D01*
X8735000Y-10385000D02*
X8765000Y-10415000D01*
X8765000Y-10385000D02*
X8735000Y-10415000D01*
X8785000Y-6035000D02*
X8815000Y-6065000D01*
X8815000Y-6035000D02*
X8785000Y-6065000D01*
X8785000Y-7585000D02*
X8815000Y-7615000D01*
X8815000Y-7585000D02*
X8785000Y-7615000D01*
X8805000Y-5185000D02*
X8835000Y-5215000D01*
X8835000Y-5185000D02*
X8805000Y-5215000D01*
X9085000Y-8835000D02*
X9115000Y-8865000D01*
X9115000Y-8835000D02*
X9085000Y-8865000D01*
X9335000Y-8835000D02*
X9365000Y-8865000D01*
X9365000Y-8835000D02*
X9335000Y-8865000D01*
X9385000Y-6055000D02*
X9415000Y-6085000D01*
X9415000Y-6055000D02*
X9385000Y-6085000D01*
X9485000Y-6235000D02*
X9515000Y-6265000D01*
X9515000Y-6235000D02*
X9485000Y-6265000D01*
X9585000Y-6685000D02*
X9615000Y-6715000D01*
X9615000Y-6685000D02*
X9585000Y-6715000D01*
X9835000Y-5935000D02*
X9865000Y-5965000D01*
X9865000Y-5935000D02*
X9835000Y-5965000D01*
X10435000Y-6185000D02*
X10465000Y-6215000D01*
X10465000Y-6185000D02*
X10435000Y-6215000D01*
X4067000Y-5218750D02*
G75*
G02*
X4017000Y-5218750I-25000J0D01*
G01*
X4017000Y-5218750D02*
G75*
G02*
X4067000Y-5218750I25000J0D01*
G01*
X4067000Y-6718750D02*
G75*
G02*
X4017000Y-6718750I-25000J0D01*
G01*
X4017000Y-6718750D02*
G75*
G02*
X4067000Y-6718750I25000J0D01*
G01*
X4067000Y-8218750D02*
G75*
G02*
X4017000Y-8218750I-25000J0D01*
G01*
X4017000Y-8218750D02*
G75*
G02*
X4067000Y-8218750I25000J0D01*
G01*
X4067000Y-9718750D02*
G75*
G02*
X4017000Y-9718750I-25000J0D01*
G01*
X4017000Y-9718750D02*
G75*
G02*
X4067000Y-9718750I25000J0D01*
G01*
X4205000Y-4668750D02*
G75*
G02*
X4155000Y-4668750I-25000J0D01*
G01*
X4155000Y-4668750D02*
G75*
G02*
X4205000Y-4668750I25000J0D01*
G01*
X4205000Y-6170000D02*
G75*
G02*
X4155000Y-6170000I-25000J0D01*
G01*
X4155000Y-6170000D02*
G75*
G02*
X4205000Y-6170000I25000J0D01*
G01*
X4205000Y-7670000D02*
G75*
G02*
X4155000Y-7670000I-25000J0D01*
G01*
X4155000Y-7670000D02*
G75*
G02*
X4205000Y-7670000I25000J0D01*
G01*
X4205000Y-9170000D02*
G75*
G02*
X4155000Y-9170000I-25000J0D01*
G01*
X4155000Y-9170000D02*
G75*
G02*
X4205000Y-9170000I25000J0D01*
G01*
X4255000Y-4580000D02*
G75*
G02*
X4205000Y-4580000I-25000J0D01*
G01*
X4205000Y-4580000D02*
G75*
G02*
X4255000Y-4580000I25000J0D01*
G01*
X4255000Y-4760000D02*
G75*
G02*
X4205000Y-4760000I-25000J0D01*
G01*
X4205000Y-4760000D02*
G75*
G02*
X4255000Y-4760000I25000J0D01*
G01*
X4255000Y-6081250D02*
G75*
G02*
X4205000Y-6081250I-25000J0D01*
G01*
X4205000Y-6081250D02*
G75*
G02*
X4255000Y-6081250I25000J0D01*
G01*
X4255000Y-6261250D02*
G75*
G02*
X4205000Y-6261250I-25000J0D01*
G01*
X4205000Y-6261250D02*
G75*
G02*
X4255000Y-6261250I25000J0D01*
G01*
X4255000Y-7581250D02*
G75*
G02*
X4205000Y-7581250I-25000J0D01*
G01*
X4205000Y-7581250D02*
G75*
G02*
X4255000Y-7581250I25000J0D01*
G01*
X4255000Y-7761250D02*
G75*
G02*
X4205000Y-7761250I-25000J0D01*
G01*
X4205000Y-7761250D02*
G75*
G02*
X4255000Y-7761250I25000J0D01*
G01*
X4255000Y-9081250D02*
G75*
G02*
X4205000Y-9081250I-25000J0D01*
G01*
X4205000Y-9081250D02*
G75*
G02*
X4255000Y-9081250I25000J0D01*
G01*
X4255000Y-9261250D02*
G75*
G02*
X4205000Y-9261250I-25000J0D01*
G01*
X4205000Y-9261250D02*
G75*
G02*
X4255000Y-9261250I25000J0D01*
G01*
X4305000Y-4668750D02*
G75*
G02*
X4255000Y-4668750I-25000J0D01*
G01*
X4255000Y-4668750D02*
G75*
G02*
X4305000Y-4668750I25000J0D01*
G01*
X4305000Y-6170000D02*
G75*
G02*
X4255000Y-6170000I-25000J0D01*
G01*
X4255000Y-6170000D02*
G75*
G02*
X4305000Y-6170000I25000J0D01*
G01*
X4305000Y-7670000D02*
G75*
G02*
X4255000Y-7670000I-25000J0D01*
G01*
X4255000Y-7670000D02*
G75*
G02*
X4305000Y-7670000I25000J0D01*
G01*
X4305000Y-9170000D02*
G75*
G02*
X4255000Y-9170000I-25000J0D01*
G01*
X4255000Y-9170000D02*
G75*
G02*
X4305000Y-9170000I25000J0D01*
G01*
X4355000Y-4580000D02*
G75*
G02*
X4305000Y-4580000I-25000J0D01*
G01*
X4305000Y-4580000D02*
G75*
G02*
X4355000Y-4580000I25000J0D01*
G01*
X4355000Y-4760000D02*
G75*
G02*
X4305000Y-4760000I-25000J0D01*
G01*
X4305000Y-4760000D02*
G75*
G02*
X4355000Y-4760000I25000J0D01*
G01*
X4355000Y-6081250D02*
G75*
G02*
X4305000Y-6081250I-25000J0D01*
G01*
X4305000Y-6081250D02*
G75*
G02*
X4355000Y-6081250I25000J0D01*
G01*
X4355000Y-6261250D02*
G75*
G02*
X4305000Y-6261250I-25000J0D01*
G01*
X4305000Y-6261250D02*
G75*
G02*
X4355000Y-6261250I25000J0D01*
G01*
X4355000Y-7581250D02*
G75*
G02*
X4305000Y-7581250I-25000J0D01*
G01*
X4305000Y-7581250D02*
G75*
G02*
X4355000Y-7581250I25000J0D01*
G01*
X4355000Y-7761250D02*
G75*
G02*
X4305000Y-7761250I-25000J0D01*
G01*
X4305000Y-7761250D02*
G75*
G02*
X4355000Y-7761250I25000J0D01*
G01*
X4355000Y-9081250D02*
G75*
G02*
X4305000Y-9081250I-25000J0D01*
G01*
X4305000Y-9081250D02*
G75*
G02*
X4355000Y-9081250I25000J0D01*
G01*
X4355000Y-9261250D02*
G75*
G02*
X4305000Y-9261250I-25000J0D01*
G01*
X4305000Y-9261250D02*
G75*
G02*
X4355000Y-9261250I25000J0D01*
G01*
X4405000Y-4670000D02*
G75*
G02*
X4355000Y-4670000I-25000J0D01*
G01*
X4355000Y-4670000D02*
G75*
G02*
X4405000Y-4670000I25000J0D01*
G01*
X4405000Y-6171250D02*
G75*
G02*
X4355000Y-6171250I-25000J0D01*
G01*
X4355000Y-6171250D02*
G75*
G02*
X4405000Y-6171250I25000J0D01*
G01*
X4405000Y-7671250D02*
G75*
G02*
X4355000Y-7671250I-25000J0D01*
G01*
X4355000Y-7671250D02*
G75*
G02*
X4405000Y-7671250I25000J0D01*
G01*
X4405000Y-9171250D02*
G75*
G02*
X4355000Y-9171250I-25000J0D01*
G01*
X4355000Y-9171250D02*
G75*
G02*
X4405000Y-9171250I25000J0D01*
G01*
X2677500Y-2970000D02*
X2677500Y-3030000D01*
X2647500Y-3000000D02*
X2707500Y-3000000D01*
X2677500Y-10970000D02*
X2677500Y-11030000D01*
X2647500Y-11000000D02*
X2707500Y-11000000D01*
X2771958Y-2741958D02*
X2771958Y-2801958D01*
X2741958Y-2771958D02*
X2801958Y-2771958D01*
X2771958Y-3198042D02*
X2771958Y-3258042D01*
X2741958Y-3228042D02*
X2801958Y-3228042D01*
X2771958Y-10741958D02*
X2771958Y-10801958D01*
X2741958Y-10771958D02*
X2801958Y-10771958D01*
X2771958Y-11198042D02*
X2771958Y-11258042D01*
X2741958Y-11228042D02*
X2801958Y-11228042D01*
X3000000Y-2647500D02*
X3000000Y-2707500D01*
X2970000Y-2677500D02*
X3030000Y-2677500D01*
X3000000Y-3292500D02*
X3000000Y-3352500D01*
X2970000Y-3322500D02*
X3030000Y-3322500D01*
X3000000Y-10647500D02*
X3000000Y-10707500D01*
X2970000Y-10677500D02*
X3030000Y-10677500D01*
X3000000Y-11292500D02*
X3000000Y-11352500D01*
X2970000Y-11322500D02*
X3030000Y-11322500D01*
X3228042Y-2741958D02*
X3228042Y-2801958D01*
X3198042Y-2771958D02*
X3258042Y-2771958D01*
X3228042Y-3198042D02*
X3228042Y-3258042D01*
X3198042Y-3228042D02*
X3258042Y-3228042D01*
X3228042Y-10741958D02*
X3228042Y-10801958D01*
X3198042Y-10771958D02*
X3258042Y-10771958D01*
X3228042Y-11198042D02*
X3228042Y-11258042D01*
X3198042Y-11228042D02*
X3258042Y-11228042D01*
X3322500Y-2970000D02*
X3322500Y-3030000D01*
X3292500Y-3000000D02*
X3352500Y-3000000D01*
X3322500Y-10970000D02*
X3322500Y-11030000D01*
X3292500Y-11000000D02*
X3352500Y-11000000D01*
X9677500Y-2970000D02*
X9677500Y-3030000D01*
X9647500Y-3000000D02*
X9707500Y-3000000D01*
X9677500Y-10970000D02*
X9677500Y-11030000D01*
X9647500Y-11000000D02*
X9707500Y-11000000D01*
X9771958Y-2741958D02*
X9771958Y-2801958D01*
X9741958Y-2771958D02*
X9801958Y-2771958D01*
X9771958Y-3198042D02*
X9771958Y-3258042D01*
X9741958Y-3228042D02*
X9801958Y-3228042D01*
X9771958Y-10741958D02*
X9771958Y-10801958D01*
X9741958Y-10771958D02*
X9801958Y-10771958D01*
X9771958Y-11198042D02*
X9771958Y-11258042D01*
X9741958Y-11228042D02*
X9801958Y-11228042D01*
X10000000Y-2647500D02*
X10000000Y-2707500D01*
X9970000Y-2677500D02*
X10030000Y-2677500D01*
X10000000Y-3292500D02*
X10000000Y-3352500D01*
X9970000Y-3322500D02*
X10030000Y-3322500D01*
X10000000Y-10647500D02*
X10000000Y-10707500D01*
X9970000Y-10677500D02*
X10030000Y-10677500D01*
X10000000Y-11292500D02*
X10000000Y-11352500D01*
X9970000Y-11322500D02*
X10030000Y-11322500D01*
X10228042Y-2741958D02*
X10228042Y-2801958D01*
X10198042Y-2771958D02*
X10258042Y-2771958D01*
X10228042Y-3198042D02*
X10228042Y-3258042D01*
X10198042Y-3228042D02*
X10258042Y-3228042D01*
X10228042Y-10741958D02*
X10228042Y-10801958D01*
X10198042Y-10771958D02*
X10258042Y-10771958D01*
X10228042Y-11198042D02*
X10228042Y-11258042D01*
X10198042Y-11228042D02*
X10258042Y-11228042D01*
X10322500Y-2970000D02*
X10322500Y-3030000D01*
X10292500Y-3000000D02*
X10352500Y-3000000D01*
X10322500Y-10970000D02*
X10322500Y-11030000D01*
X10292500Y-11000000D02*
X10352500Y-11000000D01*
X10390007Y-6824160D02*
X10390007Y-6779612D01*
X10345459Y-6779612D01*
X10345459Y-6824160D01*
X10390007Y-6824160D01*
X10640007Y-6824160D02*
X10640007Y-6779612D01*
X10595459Y-6779612D01*
X10595459Y-6824160D01*
X10640007Y-6824160D01*
X8320000Y-3065000D02*
X8360000Y-3025000D01*
X8320000Y-2985000D01*
X8280000Y-3025000D01*
X8320000Y-3065000D01*
X8360000Y-3135000D02*
X8360000Y-2915000D01*
X8280000Y-2915000D02*
G75*
G02*
X8360000Y-2915000I40000J0D01*
G01*
X8280000Y-2915000D02*
X8280000Y-3135000D01*
X8280000Y-3135000D02*
G75*
G03*
X8360000Y-3135000I40000J0D01*
G01*
X8800000Y-2740000D02*
X8840000Y-2700000D01*
X8800000Y-2660000D01*
X8760000Y-2700000D01*
X8800000Y-2740000D01*
X8910000Y-2660000D02*
X8690000Y-2660000D01*
X8690000Y-2740000D02*
G75*
G02*
X8690000Y-2660000I0J40000D01*
G01*
X8690000Y-2740000D02*
X8910000Y-2740000D01*
X8910000Y-2740000D02*
G75*
G03*
X8910000Y-2660000I0J40000D01*
G01*
X8800000Y-3365000D02*
X8840000Y-3325000D01*
X8800000Y-3285000D01*
X8760000Y-3325000D01*
X8800000Y-3365000D01*
X8910000Y-3285000D02*
X8690000Y-3285000D01*
X8690000Y-3365000D02*
G75*
G02*
X8690000Y-3285000I0J40000D01*
G01*
X8690000Y-3365000D02*
X8910000Y-3365000D01*
X8910000Y-3365000D02*
G75*
G03*
X8910000Y-3285000I0J40000D01*
G01*
X9040500Y-7662000D02*
X9130500Y-7752000D01*
X9130500Y-7662000D02*
X9040500Y-7752000D01*
X9130500Y-7707000D02*
G75*
G02*
X9040500Y-7707000I-45000J0D01*
G01*
X9040500Y-7707000D02*
G75*
G02*
X9130500Y-7707000I45000J0D01*
G01*
X9040500Y-7916000D02*
X9130500Y-8006000D01*
X9130500Y-7916000D02*
X9040500Y-8006000D01*
X9130500Y-7961000D02*
G75*
G02*
X9040500Y-7961000I-45000J0D01*
G01*
X9040500Y-7961000D02*
G75*
G02*
X9130500Y-7961000I45000J0D01*
G01*
X9040500Y-8170000D02*
X9130500Y-8260000D01*
X9130500Y-8170000D02*
X9040500Y-8260000D01*
X9130500Y-8215000D02*
G75*
G02*
X9040500Y-8215000I-45000J0D01*
G01*
X9040500Y-8215000D02*
G75*
G02*
X9130500Y-8215000I45000J0D01*
G01*
X9040500Y-8424000D02*
X9130500Y-8514000D01*
X9130500Y-8424000D02*
X9040500Y-8514000D01*
X9130500Y-8469000D02*
G75*
G02*
X9040500Y-8469000I-45000J0D01*
G01*
X9040500Y-8469000D02*
G75*
G02*
X9130500Y-8469000I45000J0D01*
G01*
X9040500Y-9059000D02*
X9130500Y-9149000D01*
X9130500Y-9059000D02*
X9040500Y-9149000D01*
X9130500Y-9104000D02*
G75*
G02*
X9040500Y-9104000I-45000J0D01*
G01*
X9040500Y-9104000D02*
G75*
G02*
X9130500Y-9104000I45000J0D01*
G01*
X9040500Y-9313000D02*
X9130500Y-9403000D01*
X9130500Y-9313000D02*
X9040500Y-9403000D01*
X9130500Y-9358000D02*
G75*
G02*
X9040500Y-9358000I-45000J0D01*
G01*
X9040500Y-9358000D02*
G75*
G02*
X9130500Y-9358000I45000J0D01*
G01*
X9040500Y-9567000D02*
X9130500Y-9657000D01*
X9130500Y-9567000D02*
X9040500Y-9657000D01*
X9130500Y-9612000D02*
G75*
G02*
X9040500Y-9612000I-45000J0D01*
G01*
X9040500Y-9612000D02*
G75*
G02*
X9130500Y-9612000I45000J0D01*
G01*
X9040500Y-9821000D02*
X9130500Y-9911000D01*
X9130500Y-9821000D02*
X9040500Y-9911000D01*
X9130500Y-9866000D02*
G75*
G02*
X9040500Y-9866000I-45000J0D01*
G01*
X9040500Y-9866000D02*
G75*
G02*
X9130500Y-9866000I45000J0D01*
G01*
X9294500Y-7789000D02*
X9384500Y-7879000D01*
X9384500Y-7789000D02*
X9294500Y-7879000D01*
X9384500Y-7834000D02*
G75*
G02*
X9294500Y-7834000I-45000J0D01*
G01*
X9294500Y-7834000D02*
G75*
G02*
X9384500Y-7834000I45000J0D01*
G01*
X9294500Y-8043000D02*
X9384500Y-8133000D01*
X9384500Y-8043000D02*
X9294500Y-8133000D01*
X9384500Y-8088000D02*
G75*
G02*
X9294500Y-8088000I-45000J0D01*
G01*
X9294500Y-8088000D02*
G75*
G02*
X9384500Y-8088000I45000J0D01*
G01*
X9294500Y-8297000D02*
X9384500Y-8387000D01*
X9384500Y-8297000D02*
X9294500Y-8387000D01*
X9384500Y-8342000D02*
G75*
G02*
X9294500Y-8342000I-45000J0D01*
G01*
X9294500Y-8342000D02*
G75*
G02*
X9384500Y-8342000I45000J0D01*
G01*
X9294500Y-8551000D02*
X9384500Y-8641000D01*
X9384500Y-8551000D02*
X9294500Y-8641000D01*
X9384500Y-8596000D02*
G75*
G02*
X9294500Y-8596000I-45000J0D01*
G01*
X9294500Y-8596000D02*
G75*
G02*
X9384500Y-8596000I45000J0D01*
G01*
X9294500Y-9186000D02*
X9384500Y-9276000D01*
X9384500Y-9186000D02*
X9294500Y-9276000D01*
X9384500Y-9231000D02*
G75*
G02*
X9294500Y-9231000I-45000J0D01*
G01*
X9294500Y-9231000D02*
G75*
G02*
X9384500Y-9231000I45000J0D01*
G01*
X9294500Y-9440000D02*
X9384500Y-9530000D01*
X9384500Y-9440000D02*
X9294500Y-9530000D01*
X9384500Y-9485000D02*
G75*
G02*
X9294500Y-9485000I-45000J0D01*
G01*
X9294500Y-9485000D02*
G75*
G02*
X9384500Y-9485000I45000J0D01*
G01*
X9294500Y-9694000D02*
X9384500Y-9784000D01*
X9384500Y-9694000D02*
X9294500Y-9784000D01*
X9384500Y-9739000D02*
G75*
G02*
X9294500Y-9739000I-45000J0D01*
G01*
X9294500Y-9739000D02*
G75*
G02*
X9384500Y-9739000I45000J0D01*
G01*
X9294500Y-9948000D02*
X9384500Y-10038000D01*
X9384500Y-9948000D02*
X9294500Y-10038000D01*
X9384500Y-9993000D02*
G75*
G02*
X9294500Y-9993000I-45000J0D01*
G01*
X9294500Y-9993000D02*
G75*
G02*
X9384500Y-9993000I45000J0D01*
G01*
X6845000Y-3987000D02*
X6945000Y-4087000D01*
X6945000Y-3987000D02*
X6845000Y-4087000D01*
X6895000Y-3987000D02*
X6895000Y-4087000D01*
X6845000Y-4037000D02*
X6945000Y-4037000D01*
X6845000Y-5511000D02*
X6945000Y-5611000D01*
X6945000Y-5511000D02*
X6845000Y-5611000D01*
X6895000Y-5511000D02*
X6895000Y-5611000D01*
X6845000Y-5561000D02*
X6945000Y-5561000D01*
X7099000Y-3987000D02*
X7199000Y-4087000D01*
X7199000Y-3987000D02*
X7099000Y-4087000D01*
X7149000Y-3987000D02*
X7149000Y-4087000D01*
X7099000Y-4037000D02*
X7199000Y-4037000D01*
X7099000Y-5511000D02*
X7199000Y-5611000D01*
X7199000Y-5511000D02*
X7099000Y-5611000D01*
X7149000Y-5511000D02*
X7149000Y-5611000D01*
X7099000Y-5561000D02*
X7199000Y-5561000D01*
X7353000Y-3987000D02*
X7453000Y-4087000D01*
X7453000Y-3987000D02*
X7353000Y-4087000D01*
X7403000Y-3987000D02*
X7403000Y-4087000D01*
X7353000Y-4037000D02*
X7453000Y-4037000D01*
X7353000Y-5511000D02*
X7453000Y-5611000D01*
X7453000Y-5511000D02*
X7353000Y-5611000D01*
X7403000Y-5511000D02*
X7403000Y-5611000D01*
X7353000Y-5561000D02*
X7453000Y-5561000D01*
X7607000Y-3987000D02*
X7707000Y-4087000D01*
X7707000Y-3987000D02*
X7607000Y-4087000D01*
X7657000Y-3987000D02*
X7657000Y-4087000D01*
X7607000Y-4037000D02*
X7707000Y-4037000D01*
X7607000Y-5511000D02*
X7707000Y-5611000D01*
X7707000Y-5511000D02*
X7607000Y-5611000D01*
X7657000Y-5511000D02*
X7657000Y-5611000D01*
X7607000Y-5561000D02*
X7707000Y-5561000D01*
X7861000Y-3987000D02*
X7961000Y-4087000D01*
X7961000Y-3987000D02*
X7861000Y-4087000D01*
X7911000Y-3987000D02*
X7911000Y-4087000D01*
X7861000Y-4037000D02*
X7961000Y-4037000D01*
X7861000Y-5511000D02*
X7961000Y-5611000D01*
X7961000Y-5511000D02*
X7861000Y-5611000D01*
X7911000Y-5511000D02*
X7911000Y-5611000D01*
X7861000Y-5561000D02*
X7961000Y-5561000D01*
X8115000Y-3987000D02*
X8215000Y-4087000D01*
X8215000Y-3987000D02*
X8115000Y-4087000D01*
X8165000Y-3987000D02*
X8165000Y-4087000D01*
X8115000Y-4037000D02*
X8215000Y-4037000D01*
X8115000Y-5511000D02*
X8215000Y-5611000D01*
X8215000Y-5511000D02*
X8115000Y-5611000D01*
X8165000Y-5511000D02*
X8165000Y-5611000D01*
X8115000Y-5561000D02*
X8215000Y-5561000D01*
X8369000Y-3987000D02*
X8469000Y-4087000D01*
X8469000Y-3987000D02*
X8369000Y-4087000D01*
X8419000Y-3987000D02*
X8419000Y-4087000D01*
X8369000Y-4037000D02*
X8469000Y-4037000D01*
X8369000Y-5511000D02*
X8469000Y-5611000D01*
X8469000Y-5511000D02*
X8369000Y-5611000D01*
X8419000Y-5511000D02*
X8419000Y-5611000D01*
X8369000Y-5561000D02*
X8469000Y-5561000D01*
X8623000Y-3987000D02*
X8723000Y-4087000D01*
X8723000Y-3987000D02*
X8623000Y-4087000D01*
X8673000Y-3987000D02*
X8673000Y-4087000D01*
X8623000Y-4037000D02*
X8723000Y-4037000D01*
X8623000Y-5511000D02*
X8723000Y-5611000D01*
X8723000Y-5511000D02*
X8623000Y-5611000D01*
X8673000Y-5511000D02*
X8673000Y-5611000D01*
X8623000Y-5561000D02*
X8723000Y-5561000D01*
X8877000Y-3987000D02*
X8977000Y-4087000D01*
X8977000Y-3987000D02*
X8877000Y-4087000D01*
X8927000Y-3987000D02*
X8927000Y-4087000D01*
X8877000Y-4037000D02*
X8977000Y-4037000D01*
X8877000Y-5511000D02*
X8977000Y-5611000D01*
X8977000Y-5511000D02*
X8877000Y-5611000D01*
X8927000Y-5511000D02*
X8927000Y-5611000D01*
X8877000Y-5561000D02*
X8977000Y-5561000D01*
X9131000Y-3987000D02*
X9231000Y-4087000D01*
X9231000Y-3987000D02*
X9131000Y-4087000D01*
X9181000Y-3987000D02*
X9181000Y-4087000D01*
X9131000Y-4037000D02*
X9231000Y-4037000D01*
X9131000Y-5511000D02*
X9231000Y-5611000D01*
X9231000Y-5511000D02*
X9131000Y-5611000D01*
X9181000Y-5511000D02*
X9181000Y-5611000D01*
X9131000Y-5561000D02*
X9231000Y-5561000D01*
X9385000Y-3987000D02*
X9485000Y-4087000D01*
X9485000Y-3987000D02*
X9385000Y-4087000D01*
X9435000Y-3987000D02*
X9435000Y-4087000D01*
X9385000Y-4037000D02*
X9485000Y-4037000D01*
X9385000Y-5511000D02*
X9485000Y-5611000D01*
X9485000Y-5511000D02*
X9385000Y-5611000D01*
X9435000Y-5511000D02*
X9435000Y-5611000D01*
X9385000Y-5561000D02*
X9485000Y-5561000D01*
X9639000Y-3987000D02*
X9739000Y-4087000D01*
X9739000Y-3987000D02*
X9639000Y-4087000D01*
X9689000Y-3987000D02*
X9689000Y-4087000D01*
X9639000Y-4037000D02*
X9739000Y-4037000D01*
X9639000Y-5511000D02*
X9739000Y-5611000D01*
X9739000Y-5511000D02*
X9639000Y-5611000D01*
X9689000Y-5511000D02*
X9689000Y-5611000D01*
X9639000Y-5561000D02*
X9739000Y-5561000D01*
X9893000Y-3987000D02*
X9993000Y-4087000D01*
X9993000Y-3987000D02*
X9893000Y-4087000D01*
X9943000Y-3987000D02*
X9943000Y-4087000D01*
X9893000Y-4037000D02*
X9993000Y-4037000D01*
X9893000Y-5511000D02*
X9993000Y-5611000D01*
X9993000Y-5511000D02*
X9893000Y-5611000D01*
X9943000Y-5511000D02*
X9943000Y-5611000D01*
X9893000Y-5561000D02*
X9993000Y-5561000D01*
X10147000Y-3987000D02*
X10247000Y-4087000D01*
X10247000Y-3987000D02*
X10147000Y-4087000D01*
X10197000Y-3987000D02*
X10197000Y-4087000D01*
X10147000Y-4037000D02*
X10247000Y-4037000D01*
X10147000Y-5511000D02*
X10247000Y-5611000D01*
X10247000Y-5511000D02*
X10147000Y-5611000D01*
X10197000Y-5511000D02*
X10197000Y-5611000D01*
X10147000Y-5561000D02*
X10247000Y-5561000D01*
X10401000Y-3987000D02*
X10501000Y-4087000D01*
X10501000Y-3987000D02*
X10401000Y-4087000D01*
X10451000Y-3987000D02*
X10451000Y-4087000D01*
X10401000Y-4037000D02*
X10501000Y-4037000D01*
X10401000Y-5511000D02*
X10501000Y-5611000D01*
X10501000Y-5511000D02*
X10401000Y-5611000D01*
X10451000Y-5511000D02*
X10451000Y-5611000D01*
X10401000Y-5561000D02*
X10501000Y-5561000D01*
D12*
X6595000Y-2895000D02*
X6705000Y-3005000D01*
X6705000Y-2895000D02*
X6595000Y-3005000D01*
X6688891Y-2988891D02*
X6688891Y-2911109D01*
X6611109Y-2911109D01*
X6611109Y-2988891D01*
X6688891Y-2988891D01*
X6595000Y-3545000D02*
X6705000Y-3655000D01*
X6705000Y-3545000D02*
X6595000Y-3655000D01*
X6688891Y-3638891D02*
X6688891Y-3561109D01*
X6611109Y-3561109D01*
X6611109Y-3638891D01*
X6688891Y-3638891D01*
X7045000Y-2895000D02*
X7155000Y-3005000D01*
X7155000Y-2895000D02*
X7045000Y-3005000D01*
X7138891Y-2988891D02*
X7138891Y-2911109D01*
X7061109Y-2911109D01*
X7061109Y-2988891D01*
X7138891Y-2988891D01*
X7045000Y-3545000D02*
X7155000Y-3655000D01*
X7155000Y-3545000D02*
X7045000Y-3655000D01*
X7138891Y-3638891D02*
X7138891Y-3561109D01*
X7061109Y-3561109D01*
X7061109Y-3638891D01*
X7138891Y-3638891D01*
D13*
X2365500Y-4185000D02*
X2495500Y-4315000D01*
X2495500Y-4185000D02*
X2365500Y-4315000D01*
X2430500Y-4315000D02*
X2495500Y-4250000D01*
X2430500Y-4185000D01*
X2365500Y-4250000D01*
X2430500Y-4315000D01*
X2365500Y-4685000D02*
X2495500Y-4815000D01*
X2495500Y-4685000D02*
X2365500Y-4815000D01*
X2430500Y-4815000D02*
X2495500Y-4750000D01*
X2430500Y-4685000D01*
X2365500Y-4750000D01*
X2430500Y-4815000D01*
X2365500Y-5185000D02*
X2495500Y-5315000D01*
X2495500Y-5185000D02*
X2365500Y-5315000D01*
X2430500Y-5315000D02*
X2495500Y-5250000D01*
X2430500Y-5185000D01*
X2365500Y-5250000D01*
X2430500Y-5315000D01*
X2365500Y-5685000D02*
X2495500Y-5815000D01*
X2495500Y-5685000D02*
X2365500Y-5815000D01*
X2430500Y-5815000D02*
X2495500Y-5750000D01*
X2430500Y-5685000D01*
X2365500Y-5750000D01*
X2430500Y-5815000D01*
X2365500Y-6185000D02*
X2495500Y-6315000D01*
X2495500Y-6185000D02*
X2365500Y-6315000D01*
X2430500Y-6315000D02*
X2495500Y-6250000D01*
X2430500Y-6185000D01*
X2365500Y-6250000D01*
X2430500Y-6315000D01*
X2365500Y-6685000D02*
X2495500Y-6815000D01*
X2495500Y-6685000D02*
X2365500Y-6815000D01*
X2430500Y-6815000D02*
X2495500Y-6750000D01*
X2430500Y-6685000D01*
X2365500Y-6750000D01*
X2430500Y-6815000D01*
X2365500Y-7185000D02*
X2495500Y-7315000D01*
X2495500Y-7185000D02*
X2365500Y-7315000D01*
X2430500Y-7315000D02*
X2495500Y-7250000D01*
X2430500Y-7185000D01*
X2365500Y-7250000D01*
X2430500Y-7315000D01*
X2365500Y-7685000D02*
X2495500Y-7815000D01*
X2495500Y-7685000D02*
X2365500Y-7815000D01*
X2430500Y-7815000D02*
X2495500Y-7750000D01*
X2430500Y-7685000D01*
X2365500Y-7750000D01*
X2430500Y-7815000D01*
X2365500Y-8185000D02*
X2495500Y-8315000D01*
X2495500Y-8185000D02*
X2365500Y-8315000D01*
X2430500Y-8315000D02*
X2495500Y-8250000D01*
X2430500Y-8185000D01*
X2365500Y-8250000D01*
X2430500Y-8315000D01*
X2365500Y-8685000D02*
X2495500Y-8815000D01*
X2495500Y-8685000D02*
X2365500Y-8815000D01*
X2430500Y-8815000D02*
X2495500Y-8750000D01*
X2430500Y-8685000D01*
X2365500Y-8750000D01*
X2430500Y-8815000D01*
X2365500Y-9185000D02*
X2495500Y-9315000D01*
X2495500Y-9185000D02*
X2365500Y-9315000D01*
X2430500Y-9315000D02*
X2495500Y-9250000D01*
X2430500Y-9185000D01*
X2365500Y-9250000D01*
X2430500Y-9315000D01*
X2365500Y-9685000D02*
X2495500Y-9815000D01*
X2495500Y-9685000D02*
X2365500Y-9815000D01*
X2430500Y-9815000D02*
X2495500Y-9750000D01*
X2430500Y-9685000D01*
X2365500Y-9750000D01*
X2430500Y-9815000D01*
D14*
X10342500Y-7215000D02*
X10342500Y-7385000D01*
X10257500Y-7300000D02*
X10427500Y-7300000D01*
X10427500Y-7300000D02*
G75*
G02*
X10257500Y-7300000I-85000J0D01*
G01*
X10257500Y-7300000D02*
G75*
G02*
X10427500Y-7300000I85000J0D01*
G01*
X10342500Y-10315000D02*
X10342500Y-10485000D01*
X10257500Y-10400000D02*
X10427500Y-10400000D01*
X10427500Y-10400000D02*
G75*
G02*
X10257500Y-10400000I-85000J0D01*
G01*
X10257500Y-10400000D02*
G75*
G02*
X10427500Y-10400000I85000J0D01*
G01*
D15*
X3152029Y-3152029D02*
X3152029Y-2847971D01*
X2847971Y-2847971D01*
X2847971Y-3152029D01*
X3152029Y-3152029D01*
X3215000Y-3000000D02*
G75*
G02*
X2785000Y-3000000I-215000J0D01*
G01*
X2785000Y-3000000D02*
G75*
G02*
X3215000Y-3000000I215000J0D01*
G01*
X3152029Y-11152029D02*
X3152029Y-10847971D01*
X2847971Y-10847971D01*
X2847971Y-11152029D01*
X3152029Y-11152029D01*
X3215000Y-11000000D02*
G75*
G02*
X2785000Y-11000000I-215000J0D01*
G01*
X2785000Y-11000000D02*
G75*
G02*
X3215000Y-11000000I215000J0D01*
G01*
X10152029Y-3152029D02*
X10152029Y-2847971D01*
X9847971Y-2847971D01*
X9847971Y-3152029D01*
X10152029Y-3152029D01*
X10215000Y-3000000D02*
G75*
G02*
X9785000Y-3000000I-215000J0D01*
G01*
X9785000Y-3000000D02*
G75*
G02*
X10215000Y-3000000I215000J0D01*
G01*
X10152029Y-11152029D02*
X10152029Y-10847971D01*
X9847971Y-10847971D01*
X9847971Y-11152029D01*
X10152029Y-11152029D01*
X10215000Y-11000000D02*
G75*
G02*
X9785000Y-11000000I-215000J0D01*
G01*
X9785000Y-11000000D02*
G75*
G02*
X10215000Y-11000000I215000J0D01*
G01*
D11*
X2255777Y-12316484D02*
X2255777Y-12116484D01*
X2255777Y-12116484D02*
X2303396Y-12116484D01*
X2303396Y-12116484D02*
X2331967Y-12126008D01*
X2331967Y-12126008D02*
X2351015Y-12145055D01*
X2351015Y-12145055D02*
X2360539Y-12164103D01*
X2360539Y-12164103D02*
X2370063Y-12202198D01*
X2370063Y-12202198D02*
X2370063Y-12230769D01*
X2370063Y-12230769D02*
X2360539Y-12268865D01*
X2360539Y-12268865D02*
X2351015Y-12287912D01*
X2351015Y-12287912D02*
X2331967Y-12306960D01*
X2331967Y-12306960D02*
X2303396Y-12316484D01*
X2303396Y-12316484D02*
X2255777Y-12316484D01*
X2455777Y-12316484D02*
X2455777Y-12183150D01*
X2455777Y-12221246D02*
X2465301Y-12202198D01*
X2465301Y-12202198D02*
X2474824Y-12192674D01*
X2474824Y-12192674D02*
X2493872Y-12183150D01*
X2493872Y-12183150D02*
X2512920Y-12183150D01*
X2579586Y-12316484D02*
X2579586Y-12183150D01*
X2579586Y-12116484D02*
X2570063Y-12126008D01*
X2570063Y-12126008D02*
X2579586Y-12135531D01*
X2579586Y-12135531D02*
X2589110Y-12126008D01*
X2589110Y-12126008D02*
X2579586Y-12116484D01*
X2579586Y-12116484D02*
X2579586Y-12135531D01*
X2703396Y-12316484D02*
X2684348Y-12306960D01*
X2684348Y-12306960D02*
X2674824Y-12287912D01*
X2674824Y-12287912D02*
X2674824Y-12116484D01*
X2808158Y-12316484D02*
X2789110Y-12306960D01*
X2789110Y-12306960D02*
X2779586Y-12287912D01*
X2779586Y-12287912D02*
X2779586Y-12116484D01*
X3036729Y-12316484D02*
X3036729Y-12116484D01*
X3036729Y-12116484D02*
X3103396Y-12259341D01*
X3103396Y-12259341D02*
X3170062Y-12116484D01*
X3170062Y-12116484D02*
X3170062Y-12316484D01*
X3351015Y-12316484D02*
X3351015Y-12211722D01*
X3351015Y-12211722D02*
X3341491Y-12192674D01*
X3341491Y-12192674D02*
X3322443Y-12183150D01*
X3322443Y-12183150D02*
X3284348Y-12183150D01*
X3284348Y-12183150D02*
X3265301Y-12192674D01*
X3351015Y-12306960D02*
X3331967Y-12316484D01*
X3331967Y-12316484D02*
X3284348Y-12316484D01*
X3284348Y-12316484D02*
X3265301Y-12306960D01*
X3265301Y-12306960D02*
X3255777Y-12287912D01*
X3255777Y-12287912D02*
X3255777Y-12268865D01*
X3255777Y-12268865D02*
X3265301Y-12249817D01*
X3265301Y-12249817D02*
X3284348Y-12240293D01*
X3284348Y-12240293D02*
X3331967Y-12240293D01*
X3331967Y-12240293D02*
X3351015Y-12230769D01*
X3446253Y-12183150D02*
X3446253Y-12383150D01*
X3446253Y-12192674D02*
X3465301Y-12183150D01*
X3465301Y-12183150D02*
X3503396Y-12183150D01*
X3503396Y-12183150D02*
X3522443Y-12192674D01*
X3522443Y-12192674D02*
X3531967Y-12202198D01*
X3531967Y-12202198D02*
X3541491Y-12221246D01*
X3541491Y-12221246D02*
X3541491Y-12278388D01*
X3541491Y-12278388D02*
X3531967Y-12297436D01*
X3531967Y-12297436D02*
X3522443Y-12306960D01*
X3522443Y-12306960D02*
X3503396Y-12316484D01*
X3503396Y-12316484D02*
X3465301Y-12316484D01*
X3465301Y-12316484D02*
X3446253Y-12306960D01*
X3627205Y-12297436D02*
X3636729Y-12306960D01*
X3636729Y-12306960D02*
X3627205Y-12316484D01*
X3627205Y-12316484D02*
X3617682Y-12306960D01*
X3617682Y-12306960D02*
X3627205Y-12297436D01*
X3627205Y-12297436D02*
X3627205Y-12316484D01*
X3627205Y-12192674D02*
X3636729Y-12202198D01*
X3636729Y-12202198D02*
X3627205Y-12211722D01*
X3627205Y-12211722D02*
X3617682Y-12202198D01*
X3617682Y-12202198D02*
X3627205Y-12192674D01*
X3627205Y-12192674D02*
X3627205Y-12211722D01*
D10*
X1965000Y-12630000D02*
X1995000Y-12660000D01*
X1995000Y-12630000D02*
X1965000Y-12660000D01*
D11*
X2293872Y-12536484D02*
X2312920Y-12536484D01*
X2312920Y-12536484D02*
X2331967Y-12546008D01*
X2331967Y-12546008D02*
X2341491Y-12555531D01*
X2341491Y-12555531D02*
X2351015Y-12574579D01*
X2351015Y-12574579D02*
X2360539Y-12612674D01*
X2360539Y-12612674D02*
X2360539Y-12660293D01*
X2360539Y-12660293D02*
X2351015Y-12698388D01*
X2351015Y-12698388D02*
X2341491Y-12717436D01*
X2341491Y-12717436D02*
X2331967Y-12726960D01*
X2331967Y-12726960D02*
X2312920Y-12736484D01*
X2312920Y-12736484D02*
X2293872Y-12736484D01*
X2293872Y-12736484D02*
X2274824Y-12726960D01*
X2274824Y-12726960D02*
X2265301Y-12717436D01*
X2265301Y-12717436D02*
X2255777Y-12698388D01*
X2255777Y-12698388D02*
X2246253Y-12660293D01*
X2246253Y-12660293D02*
X2246253Y-12612674D01*
X2246253Y-12612674D02*
X2255777Y-12574579D01*
X2255777Y-12574579D02*
X2265301Y-12555531D01*
X2265301Y-12555531D02*
X2274824Y-12546008D01*
X2274824Y-12546008D02*
X2293872Y-12536484D01*
X2446253Y-12717436D02*
X2455777Y-12726960D01*
X2455777Y-12726960D02*
X2446253Y-12736484D01*
X2446253Y-12736484D02*
X2436729Y-12726960D01*
X2436729Y-12726960D02*
X2446253Y-12717436D01*
X2446253Y-12717436D02*
X2446253Y-12736484D01*
X2522444Y-12536484D02*
X2646253Y-12536484D01*
X2646253Y-12536484D02*
X2579586Y-12612674D01*
X2579586Y-12612674D02*
X2608158Y-12612674D01*
X2608158Y-12612674D02*
X2627205Y-12622198D01*
X2627205Y-12622198D02*
X2636729Y-12631722D01*
X2636729Y-12631722D02*
X2646253Y-12650769D01*
X2646253Y-12650769D02*
X2646253Y-12698388D01*
X2646253Y-12698388D02*
X2636729Y-12717436D01*
X2636729Y-12717436D02*
X2627205Y-12726960D01*
X2627205Y-12726960D02*
X2608158Y-12736484D01*
X2608158Y-12736484D02*
X2551015Y-12736484D01*
X2551015Y-12736484D02*
X2531967Y-12726960D01*
X2531967Y-12726960D02*
X2522444Y-12717436D01*
X2770063Y-12536484D02*
X2789110Y-12536484D01*
X2789110Y-12536484D02*
X2808158Y-12546008D01*
X2808158Y-12546008D02*
X2817682Y-12555531D01*
X2817682Y-12555531D02*
X2827205Y-12574579D01*
X2827205Y-12574579D02*
X2836729Y-12612674D01*
X2836729Y-12612674D02*
X2836729Y-12660293D01*
X2836729Y-12660293D02*
X2827205Y-12698388D01*
X2827205Y-12698388D02*
X2817682Y-12717436D01*
X2817682Y-12717436D02*
X2808158Y-12726960D01*
X2808158Y-12726960D02*
X2789110Y-12736484D01*
X2789110Y-12736484D02*
X2770063Y-12736484D01*
X2770063Y-12736484D02*
X2751015Y-12726960D01*
X2751015Y-12726960D02*
X2741491Y-12717436D01*
X2741491Y-12717436D02*
X2731967Y-12698388D01*
X2731967Y-12698388D02*
X2722444Y-12660293D01*
X2722444Y-12660293D02*
X2722444Y-12612674D01*
X2722444Y-12612674D02*
X2731967Y-12574579D01*
X2731967Y-12574579D02*
X2741491Y-12555531D01*
X2741491Y-12555531D02*
X2751015Y-12546008D01*
X2751015Y-12546008D02*
X2770063Y-12536484D01*
X2960539Y-12536484D02*
X2979586Y-12536484D01*
X2979586Y-12536484D02*
X2998634Y-12546008D01*
X2998634Y-12546008D02*
X3008158Y-12555531D01*
X3008158Y-12555531D02*
X3017682Y-12574579D01*
X3017682Y-12574579D02*
X3027205Y-12612674D01*
X3027205Y-12612674D02*
X3027205Y-12660293D01*
X3027205Y-12660293D02*
X3017682Y-12698388D01*
X3017682Y-12698388D02*
X3008158Y-12717436D01*
X3008158Y-12717436D02*
X2998634Y-12726960D01*
X2998634Y-12726960D02*
X2979586Y-12736484D01*
X2979586Y-12736484D02*
X2960539Y-12736484D01*
X2960539Y-12736484D02*
X2941491Y-12726960D01*
X2941491Y-12726960D02*
X2931967Y-12717436D01*
X2931967Y-12717436D02*
X2922443Y-12698388D01*
X2922443Y-12698388D02*
X2912920Y-12660293D01*
X2912920Y-12660293D02*
X2912920Y-12612674D01*
X2912920Y-12612674D02*
X2922443Y-12574579D01*
X2922443Y-12574579D02*
X2931967Y-12555531D01*
X2931967Y-12555531D02*
X2941491Y-12546008D01*
X2941491Y-12546008D02*
X2960539Y-12536484D01*
X3112920Y-12736484D02*
X3112920Y-12603150D01*
X3112920Y-12622198D02*
X3122443Y-12612674D01*
X3122443Y-12612674D02*
X3141491Y-12603150D01*
X3141491Y-12603150D02*
X3170063Y-12603150D01*
X3170063Y-12603150D02*
X3189110Y-12612674D01*
X3189110Y-12612674D02*
X3198634Y-12631722D01*
X3198634Y-12631722D02*
X3198634Y-12736484D01*
X3198634Y-12631722D02*
X3208158Y-12612674D01*
X3208158Y-12612674D02*
X3227205Y-12603150D01*
X3227205Y-12603150D02*
X3255777Y-12603150D01*
X3255777Y-12603150D02*
X3274824Y-12612674D01*
X3274824Y-12612674D02*
X3284348Y-12631722D01*
X3284348Y-12631722D02*
X3284348Y-12736484D01*
X3379586Y-12736484D02*
X3379586Y-12603150D01*
X3379586Y-12622198D02*
X3389110Y-12612674D01*
X3389110Y-12612674D02*
X3408158Y-12603150D01*
X3408158Y-12603150D02*
X3436729Y-12603150D01*
X3436729Y-12603150D02*
X3455777Y-12612674D01*
X3455777Y-12612674D02*
X3465301Y-12631722D01*
X3465301Y-12631722D02*
X3465301Y-12736484D01*
X3465301Y-12631722D02*
X3474824Y-12612674D01*
X3474824Y-12612674D02*
X3493872Y-12603150D01*
X3493872Y-12603150D02*
X3522443Y-12603150D01*
X3522443Y-12603150D02*
X3541491Y-12612674D01*
X3541491Y-12612674D02*
X3551015Y-12631722D01*
X3551015Y-12631722D02*
X3551015Y-12736484D01*
X3941491Y-12526960D02*
X3770063Y-12784103D01*
X4198634Y-12536484D02*
X4217682Y-12536484D01*
X4217682Y-12536484D02*
X4236729Y-12546008D01*
X4236729Y-12546008D02*
X4246253Y-12555531D01*
X4246253Y-12555531D02*
X4255777Y-12574579D01*
X4255777Y-12574579D02*
X4265301Y-12612674D01*
X4265301Y-12612674D02*
X4265301Y-12660293D01*
X4265301Y-12660293D02*
X4255777Y-12698388D01*
X4255777Y-12698388D02*
X4246253Y-12717436D01*
X4246253Y-12717436D02*
X4236729Y-12726960D01*
X4236729Y-12726960D02*
X4217682Y-12736484D01*
X4217682Y-12736484D02*
X4198634Y-12736484D01*
X4198634Y-12736484D02*
X4179586Y-12726960D01*
X4179586Y-12726960D02*
X4170063Y-12717436D01*
X4170063Y-12717436D02*
X4160539Y-12698388D01*
X4160539Y-12698388D02*
X4151015Y-12660293D01*
X4151015Y-12660293D02*
X4151015Y-12612674D01*
X4151015Y-12612674D02*
X4160539Y-12574579D01*
X4160539Y-12574579D02*
X4170063Y-12555531D01*
X4170063Y-12555531D02*
X4179586Y-12546008D01*
X4179586Y-12546008D02*
X4198634Y-12536484D01*
X4351015Y-12717436D02*
X4360539Y-12726960D01*
X4360539Y-12726960D02*
X4351015Y-12736484D01*
X4351015Y-12736484D02*
X4341491Y-12726960D01*
X4341491Y-12726960D02*
X4351015Y-12717436D01*
X4351015Y-12717436D02*
X4351015Y-12736484D01*
X4484348Y-12536484D02*
X4503396Y-12536484D01*
X4503396Y-12536484D02*
X4522444Y-12546008D01*
X4522444Y-12546008D02*
X4531968Y-12555531D01*
X4531968Y-12555531D02*
X4541491Y-12574579D01*
X4541491Y-12574579D02*
X4551015Y-12612674D01*
X4551015Y-12612674D02*
X4551015Y-12660293D01*
X4551015Y-12660293D02*
X4541491Y-12698388D01*
X4541491Y-12698388D02*
X4531968Y-12717436D01*
X4531968Y-12717436D02*
X4522444Y-12726960D01*
X4522444Y-12726960D02*
X4503396Y-12736484D01*
X4503396Y-12736484D02*
X4484348Y-12736484D01*
X4484348Y-12736484D02*
X4465301Y-12726960D01*
X4465301Y-12726960D02*
X4455777Y-12717436D01*
X4455777Y-12717436D02*
X4446253Y-12698388D01*
X4446253Y-12698388D02*
X4436729Y-12660293D01*
X4436729Y-12660293D02*
X4436729Y-12612674D01*
X4436729Y-12612674D02*
X4446253Y-12574579D01*
X4446253Y-12574579D02*
X4455777Y-12555531D01*
X4455777Y-12555531D02*
X4465301Y-12546008D01*
X4465301Y-12546008D02*
X4484348Y-12536484D01*
X4741491Y-12736484D02*
X4627206Y-12736484D01*
X4684348Y-12736484D02*
X4684348Y-12536484D01*
X4684348Y-12536484D02*
X4665301Y-12565055D01*
X4665301Y-12565055D02*
X4646253Y-12584103D01*
X4646253Y-12584103D02*
X4627206Y-12593627D01*
X4931968Y-12736484D02*
X4817682Y-12736484D01*
X4874825Y-12736484D02*
X4874825Y-12536484D01*
X4874825Y-12536484D02*
X4855777Y-12565055D01*
X4855777Y-12565055D02*
X4836729Y-12584103D01*
X4836729Y-12584103D02*
X4817682Y-12593627D01*
X5046253Y-12622198D02*
X5027206Y-12612674D01*
X5027206Y-12612674D02*
X5017682Y-12603150D01*
X5017682Y-12603150D02*
X5008158Y-12584103D01*
X5008158Y-12584103D02*
X5008158Y-12574579D01*
X5008158Y-12574579D02*
X5017682Y-12555531D01*
X5017682Y-12555531D02*
X5027206Y-12546008D01*
X5027206Y-12546008D02*
X5046253Y-12536484D01*
X5046253Y-12536484D02*
X5084349Y-12536484D01*
X5084349Y-12536484D02*
X5103396Y-12546008D01*
X5103396Y-12546008D02*
X5112920Y-12555531D01*
X5112920Y-12555531D02*
X5122444Y-12574579D01*
X5122444Y-12574579D02*
X5122444Y-12584103D01*
X5122444Y-12584103D02*
X5112920Y-12603150D01*
X5112920Y-12603150D02*
X5103396Y-12612674D01*
X5103396Y-12612674D02*
X5084349Y-12622198D01*
X5084349Y-12622198D02*
X5046253Y-12622198D01*
X5046253Y-12622198D02*
X5027206Y-12631722D01*
X5027206Y-12631722D02*
X5017682Y-12641246D01*
X5017682Y-12641246D02*
X5008158Y-12660293D01*
X5008158Y-12660293D02*
X5008158Y-12698388D01*
X5008158Y-12698388D02*
X5017682Y-12717436D01*
X5017682Y-12717436D02*
X5027206Y-12726960D01*
X5027206Y-12726960D02*
X5046253Y-12736484D01*
X5046253Y-12736484D02*
X5084349Y-12736484D01*
X5084349Y-12736484D02*
X5103396Y-12726960D01*
X5103396Y-12726960D02*
X5112920Y-12717436D01*
X5112920Y-12717436D02*
X5122444Y-12698388D01*
X5122444Y-12698388D02*
X5122444Y-12660293D01*
X5122444Y-12660293D02*
X5112920Y-12641246D01*
X5112920Y-12641246D02*
X5103396Y-12631722D01*
X5103396Y-12631722D02*
X5084349Y-12622198D01*
X5198634Y-12536484D02*
X5198634Y-12574579D01*
X5274825Y-12536484D02*
X5274825Y-12574579D01*
X5570063Y-12812674D02*
X5560539Y-12803150D01*
X5560539Y-12803150D02*
X5541491Y-12774579D01*
X5541491Y-12774579D02*
X5531968Y-12755531D01*
X5531968Y-12755531D02*
X5522444Y-12726960D01*
X5522444Y-12726960D02*
X5512920Y-12679341D01*
X5512920Y-12679341D02*
X5512920Y-12641246D01*
X5512920Y-12641246D02*
X5522444Y-12593627D01*
X5522444Y-12593627D02*
X5531968Y-12565055D01*
X5531968Y-12565055D02*
X5541491Y-12546008D01*
X5541491Y-12546008D02*
X5560539Y-12517436D01*
X5560539Y-12517436D02*
X5570063Y-12507912D01*
X5674825Y-12622198D02*
X5655777Y-12612674D01*
X5655777Y-12612674D02*
X5646253Y-12603150D01*
X5646253Y-12603150D02*
X5636729Y-12584103D01*
X5636729Y-12584103D02*
X5636729Y-12574579D01*
X5636729Y-12574579D02*
X5646253Y-12555531D01*
X5646253Y-12555531D02*
X5655777Y-12546008D01*
X5655777Y-12546008D02*
X5674825Y-12536484D01*
X5674825Y-12536484D02*
X5712920Y-12536484D01*
X5712920Y-12536484D02*
X5731968Y-12546008D01*
X5731968Y-12546008D02*
X5741491Y-12555531D01*
X5741491Y-12555531D02*
X5751015Y-12574579D01*
X5751015Y-12574579D02*
X5751015Y-12584103D01*
X5751015Y-12584103D02*
X5741491Y-12603150D01*
X5741491Y-12603150D02*
X5731968Y-12612674D01*
X5731968Y-12612674D02*
X5712920Y-12622198D01*
X5712920Y-12622198D02*
X5674825Y-12622198D01*
X5674825Y-12622198D02*
X5655777Y-12631722D01*
X5655777Y-12631722D02*
X5646253Y-12641246D01*
X5646253Y-12641246D02*
X5636729Y-12660293D01*
X5636729Y-12660293D02*
X5636729Y-12698388D01*
X5636729Y-12698388D02*
X5646253Y-12717436D01*
X5646253Y-12717436D02*
X5655777Y-12726960D01*
X5655777Y-12726960D02*
X5674825Y-12736484D01*
X5674825Y-12736484D02*
X5712920Y-12736484D01*
X5712920Y-12736484D02*
X5731968Y-12726960D01*
X5731968Y-12726960D02*
X5741491Y-12717436D01*
X5741491Y-12717436D02*
X5751015Y-12698388D01*
X5751015Y-12698388D02*
X5751015Y-12660293D01*
X5751015Y-12660293D02*
X5741491Y-12641246D01*
X5741491Y-12641246D02*
X5731968Y-12631722D01*
X5731968Y-12631722D02*
X5712920Y-12622198D01*
X5922444Y-12603150D02*
X5922444Y-12736484D01*
X5874825Y-12526960D02*
X5827206Y-12669817D01*
X5827206Y-12669817D02*
X5951015Y-12669817D01*
X6179587Y-12736484D02*
X6179587Y-12536484D01*
X6265301Y-12736484D02*
X6265301Y-12631722D01*
X6265301Y-12631722D02*
X6255777Y-12612674D01*
X6255777Y-12612674D02*
X6236730Y-12603150D01*
X6236730Y-12603150D02*
X6208158Y-12603150D01*
X6208158Y-12603150D02*
X6189110Y-12612674D01*
X6189110Y-12612674D02*
X6179587Y-12622198D01*
X6389110Y-12736484D02*
X6370063Y-12726960D01*
X6370063Y-12726960D02*
X6360539Y-12717436D01*
X6360539Y-12717436D02*
X6351015Y-12698388D01*
X6351015Y-12698388D02*
X6351015Y-12641246D01*
X6351015Y-12641246D02*
X6360539Y-12622198D01*
X6360539Y-12622198D02*
X6370063Y-12612674D01*
X6370063Y-12612674D02*
X6389110Y-12603150D01*
X6389110Y-12603150D02*
X6417682Y-12603150D01*
X6417682Y-12603150D02*
X6436730Y-12612674D01*
X6436730Y-12612674D02*
X6446253Y-12622198D01*
X6446253Y-12622198D02*
X6455777Y-12641246D01*
X6455777Y-12641246D02*
X6455777Y-12698388D01*
X6455777Y-12698388D02*
X6446253Y-12717436D01*
X6446253Y-12717436D02*
X6436730Y-12726960D01*
X6436730Y-12726960D02*
X6417682Y-12736484D01*
X6417682Y-12736484D02*
X6389110Y-12736484D01*
X6570063Y-12736484D02*
X6551015Y-12726960D01*
X6551015Y-12726960D02*
X6541491Y-12707912D01*
X6541491Y-12707912D02*
X6541491Y-12536484D01*
X6722444Y-12726960D02*
X6703396Y-12736484D01*
X6703396Y-12736484D02*
X6665301Y-12736484D01*
X6665301Y-12736484D02*
X6646253Y-12726960D01*
X6646253Y-12726960D02*
X6636730Y-12707912D01*
X6636730Y-12707912D02*
X6636730Y-12631722D01*
X6636730Y-12631722D02*
X6646253Y-12612674D01*
X6646253Y-12612674D02*
X6665301Y-12603150D01*
X6665301Y-12603150D02*
X6703396Y-12603150D01*
X6703396Y-12603150D02*
X6722444Y-12612674D01*
X6722444Y-12612674D02*
X6731968Y-12631722D01*
X6731968Y-12631722D02*
X6731968Y-12650769D01*
X6731968Y-12650769D02*
X6636730Y-12669817D01*
X6808158Y-12726960D02*
X6827206Y-12736484D01*
X6827206Y-12736484D02*
X6865301Y-12736484D01*
X6865301Y-12736484D02*
X6884349Y-12726960D01*
X6884349Y-12726960D02*
X6893872Y-12707912D01*
X6893872Y-12707912D02*
X6893872Y-12698388D01*
X6893872Y-12698388D02*
X6884349Y-12679341D01*
X6884349Y-12679341D02*
X6865301Y-12669817D01*
X6865301Y-12669817D02*
X6836730Y-12669817D01*
X6836730Y-12669817D02*
X6817682Y-12660293D01*
X6817682Y-12660293D02*
X6808158Y-12641246D01*
X6808158Y-12641246D02*
X6808158Y-12631722D01*
X6808158Y-12631722D02*
X6817682Y-12612674D01*
X6817682Y-12612674D02*
X6836730Y-12603150D01*
X6836730Y-12603150D02*
X6865301Y-12603150D01*
X6865301Y-12603150D02*
X6884349Y-12612674D01*
X6960539Y-12812674D02*
X6970063Y-12803150D01*
X6970063Y-12803150D02*
X6989111Y-12774579D01*
X6989111Y-12774579D02*
X6998634Y-12755531D01*
X6998634Y-12755531D02*
X7008158Y-12726960D01*
X7008158Y-12726960D02*
X7017682Y-12679341D01*
X7017682Y-12679341D02*
X7017682Y-12641246D01*
X7017682Y-12641246D02*
X7008158Y-12593627D01*
X7008158Y-12593627D02*
X6998634Y-12565055D01*
X6998634Y-12565055D02*
X6989111Y-12546008D01*
X6989111Y-12546008D02*
X6970063Y-12517436D01*
X6970063Y-12517436D02*
X6960539Y-12507912D01*
D10*
X1995000Y-12909000D02*
G75*
G02*
X1945000Y-12909000I-25000J0D01*
G01*
X1945000Y-12909000D02*
G75*
G02*
X1995000Y-12909000I25000J0D01*
G01*
D11*
X2293872Y-12800484D02*
X2312920Y-12800484D01*
X2312920Y-12800484D02*
X2331967Y-12810008D01*
X2331967Y-12810008D02*
X2341491Y-12819531D01*
X2341491Y-12819531D02*
X2351015Y-12838579D01*
X2351015Y-12838579D02*
X2360539Y-12876674D01*
X2360539Y-12876674D02*
X2360539Y-12924293D01*
X2360539Y-12924293D02*
X2351015Y-12962388D01*
X2351015Y-12962388D02*
X2341491Y-12981436D01*
X2341491Y-12981436D02*
X2331967Y-12990960D01*
X2331967Y-12990960D02*
X2312920Y-13000484D01*
X2312920Y-13000484D02*
X2293872Y-13000484D01*
X2293872Y-13000484D02*
X2274824Y-12990960D01*
X2274824Y-12990960D02*
X2265301Y-12981436D01*
X2265301Y-12981436D02*
X2255777Y-12962388D01*
X2255777Y-12962388D02*
X2246253Y-12924293D01*
X2246253Y-12924293D02*
X2246253Y-12876674D01*
X2246253Y-12876674D02*
X2255777Y-12838579D01*
X2255777Y-12838579D02*
X2265301Y-12819531D01*
X2265301Y-12819531D02*
X2274824Y-12810008D01*
X2274824Y-12810008D02*
X2293872Y-12800484D01*
X2446253Y-12981436D02*
X2455777Y-12990960D01*
X2455777Y-12990960D02*
X2446253Y-13000484D01*
X2446253Y-13000484D02*
X2436729Y-12990960D01*
X2436729Y-12990960D02*
X2446253Y-12981436D01*
X2446253Y-12981436D02*
X2446253Y-13000484D01*
X2636729Y-12800484D02*
X2541491Y-12800484D01*
X2541491Y-12800484D02*
X2531967Y-12895722D01*
X2531967Y-12895722D02*
X2541491Y-12886198D01*
X2541491Y-12886198D02*
X2560539Y-12876674D01*
X2560539Y-12876674D02*
X2608158Y-12876674D01*
X2608158Y-12876674D02*
X2627205Y-12886198D01*
X2627205Y-12886198D02*
X2636729Y-12895722D01*
X2636729Y-12895722D02*
X2646253Y-12914769D01*
X2646253Y-12914769D02*
X2646253Y-12962388D01*
X2646253Y-12962388D02*
X2636729Y-12981436D01*
X2636729Y-12981436D02*
X2627205Y-12990960D01*
X2627205Y-12990960D02*
X2608158Y-13000484D01*
X2608158Y-13000484D02*
X2560539Y-13000484D01*
X2560539Y-13000484D02*
X2541491Y-12990960D01*
X2541491Y-12990960D02*
X2531967Y-12981436D01*
X2770063Y-12800484D02*
X2789110Y-12800484D01*
X2789110Y-12800484D02*
X2808158Y-12810008D01*
X2808158Y-12810008D02*
X2817682Y-12819531D01*
X2817682Y-12819531D02*
X2827205Y-12838579D01*
X2827205Y-12838579D02*
X2836729Y-12876674D01*
X2836729Y-12876674D02*
X2836729Y-12924293D01*
X2836729Y-12924293D02*
X2827205Y-12962388D01*
X2827205Y-12962388D02*
X2817682Y-12981436D01*
X2817682Y-12981436D02*
X2808158Y-12990960D01*
X2808158Y-12990960D02*
X2789110Y-13000484D01*
X2789110Y-13000484D02*
X2770063Y-13000484D01*
X2770063Y-13000484D02*
X2751015Y-12990960D01*
X2751015Y-12990960D02*
X2741491Y-12981436D01*
X2741491Y-12981436D02*
X2731967Y-12962388D01*
X2731967Y-12962388D02*
X2722444Y-12924293D01*
X2722444Y-12924293D02*
X2722444Y-12876674D01*
X2722444Y-12876674D02*
X2731967Y-12838579D01*
X2731967Y-12838579D02*
X2741491Y-12819531D01*
X2741491Y-12819531D02*
X2751015Y-12810008D01*
X2751015Y-12810008D02*
X2770063Y-12800484D01*
X2960539Y-12800484D02*
X2979586Y-12800484D01*
X2979586Y-12800484D02*
X2998634Y-12810008D01*
X2998634Y-12810008D02*
X3008158Y-12819531D01*
X3008158Y-12819531D02*
X3017682Y-12838579D01*
X3017682Y-12838579D02*
X3027205Y-12876674D01*
X3027205Y-12876674D02*
X3027205Y-12924293D01*
X3027205Y-12924293D02*
X3017682Y-12962388D01*
X3017682Y-12962388D02*
X3008158Y-12981436D01*
X3008158Y-12981436D02*
X2998634Y-12990960D01*
X2998634Y-12990960D02*
X2979586Y-13000484D01*
X2979586Y-13000484D02*
X2960539Y-13000484D01*
X2960539Y-13000484D02*
X2941491Y-12990960D01*
X2941491Y-12990960D02*
X2931967Y-12981436D01*
X2931967Y-12981436D02*
X2922443Y-12962388D01*
X2922443Y-12962388D02*
X2912920Y-12924293D01*
X2912920Y-12924293D02*
X2912920Y-12876674D01*
X2912920Y-12876674D02*
X2922443Y-12838579D01*
X2922443Y-12838579D02*
X2931967Y-12819531D01*
X2931967Y-12819531D02*
X2941491Y-12810008D01*
X2941491Y-12810008D02*
X2960539Y-12800484D01*
X3112920Y-13000484D02*
X3112920Y-12867150D01*
X3112920Y-12886198D02*
X3122443Y-12876674D01*
X3122443Y-12876674D02*
X3141491Y-12867150D01*
X3141491Y-12867150D02*
X3170063Y-12867150D01*
X3170063Y-12867150D02*
X3189110Y-12876674D01*
X3189110Y-12876674D02*
X3198634Y-12895722D01*
X3198634Y-12895722D02*
X3198634Y-13000484D01*
X3198634Y-12895722D02*
X3208158Y-12876674D01*
X3208158Y-12876674D02*
X3227205Y-12867150D01*
X3227205Y-12867150D02*
X3255777Y-12867150D01*
X3255777Y-12867150D02*
X3274824Y-12876674D01*
X3274824Y-12876674D02*
X3284348Y-12895722D01*
X3284348Y-12895722D02*
X3284348Y-13000484D01*
X3379586Y-13000484D02*
X3379586Y-12867150D01*
X3379586Y-12886198D02*
X3389110Y-12876674D01*
X3389110Y-12876674D02*
X3408158Y-12867150D01*
X3408158Y-12867150D02*
X3436729Y-12867150D01*
X3436729Y-12867150D02*
X3455777Y-12876674D01*
X3455777Y-12876674D02*
X3465301Y-12895722D01*
X3465301Y-12895722D02*
X3465301Y-13000484D01*
X3465301Y-12895722D02*
X3474824Y-12876674D01*
X3474824Y-12876674D02*
X3493872Y-12867150D01*
X3493872Y-12867150D02*
X3522443Y-12867150D01*
X3522443Y-12867150D02*
X3541491Y-12876674D01*
X3541491Y-12876674D02*
X3551015Y-12895722D01*
X3551015Y-12895722D02*
X3551015Y-13000484D01*
X3941491Y-12790960D02*
X3770063Y-13048103D01*
X4198634Y-12800484D02*
X4217682Y-12800484D01*
X4217682Y-12800484D02*
X4236729Y-12810008D01*
X4236729Y-12810008D02*
X4246253Y-12819531D01*
X4246253Y-12819531D02*
X4255777Y-12838579D01*
X4255777Y-12838579D02*
X4265301Y-12876674D01*
X4265301Y-12876674D02*
X4265301Y-12924293D01*
X4265301Y-12924293D02*
X4255777Y-12962388D01*
X4255777Y-12962388D02*
X4246253Y-12981436D01*
X4246253Y-12981436D02*
X4236729Y-12990960D01*
X4236729Y-12990960D02*
X4217682Y-13000484D01*
X4217682Y-13000484D02*
X4198634Y-13000484D01*
X4198634Y-13000484D02*
X4179586Y-12990960D01*
X4179586Y-12990960D02*
X4170063Y-12981436D01*
X4170063Y-12981436D02*
X4160539Y-12962388D01*
X4160539Y-12962388D02*
X4151015Y-12924293D01*
X4151015Y-12924293D02*
X4151015Y-12876674D01*
X4151015Y-12876674D02*
X4160539Y-12838579D01*
X4160539Y-12838579D02*
X4170063Y-12819531D01*
X4170063Y-12819531D02*
X4179586Y-12810008D01*
X4179586Y-12810008D02*
X4198634Y-12800484D01*
X4351015Y-12981436D02*
X4360539Y-12990960D01*
X4360539Y-12990960D02*
X4351015Y-13000484D01*
X4351015Y-13000484D02*
X4341491Y-12990960D01*
X4341491Y-12990960D02*
X4351015Y-12981436D01*
X4351015Y-12981436D02*
X4351015Y-13000484D01*
X4484348Y-12800484D02*
X4503396Y-12800484D01*
X4503396Y-12800484D02*
X4522444Y-12810008D01*
X4522444Y-12810008D02*
X4531968Y-12819531D01*
X4531968Y-12819531D02*
X4541491Y-12838579D01*
X4541491Y-12838579D02*
X4551015Y-12876674D01*
X4551015Y-12876674D02*
X4551015Y-12924293D01*
X4551015Y-12924293D02*
X4541491Y-12962388D01*
X4541491Y-12962388D02*
X4531968Y-12981436D01*
X4531968Y-12981436D02*
X4522444Y-12990960D01*
X4522444Y-12990960D02*
X4503396Y-13000484D01*
X4503396Y-13000484D02*
X4484348Y-13000484D01*
X4484348Y-13000484D02*
X4465301Y-12990960D01*
X4465301Y-12990960D02*
X4455777Y-12981436D01*
X4455777Y-12981436D02*
X4446253Y-12962388D01*
X4446253Y-12962388D02*
X4436729Y-12924293D01*
X4436729Y-12924293D02*
X4436729Y-12876674D01*
X4436729Y-12876674D02*
X4446253Y-12838579D01*
X4446253Y-12838579D02*
X4455777Y-12819531D01*
X4455777Y-12819531D02*
X4465301Y-12810008D01*
X4465301Y-12810008D02*
X4484348Y-12800484D01*
X4741491Y-13000484D02*
X4627206Y-13000484D01*
X4684348Y-13000484D02*
X4684348Y-12800484D01*
X4684348Y-12800484D02*
X4665301Y-12829055D01*
X4665301Y-12829055D02*
X4646253Y-12848103D01*
X4646253Y-12848103D02*
X4627206Y-12857627D01*
X4836729Y-13000484D02*
X4874825Y-13000484D01*
X4874825Y-13000484D02*
X4893872Y-12990960D01*
X4893872Y-12990960D02*
X4903396Y-12981436D01*
X4903396Y-12981436D02*
X4922444Y-12952865D01*
X4922444Y-12952865D02*
X4931968Y-12914769D01*
X4931968Y-12914769D02*
X4931968Y-12838579D01*
X4931968Y-12838579D02*
X4922444Y-12819531D01*
X4922444Y-12819531D02*
X4912920Y-12810008D01*
X4912920Y-12810008D02*
X4893872Y-12800484D01*
X4893872Y-12800484D02*
X4855777Y-12800484D01*
X4855777Y-12800484D02*
X4836729Y-12810008D01*
X4836729Y-12810008D02*
X4827206Y-12819531D01*
X4827206Y-12819531D02*
X4817682Y-12838579D01*
X4817682Y-12838579D02*
X4817682Y-12886198D01*
X4817682Y-12886198D02*
X4827206Y-12905246D01*
X4827206Y-12905246D02*
X4836729Y-12914769D01*
X4836729Y-12914769D02*
X4855777Y-12924293D01*
X4855777Y-12924293D02*
X4893872Y-12924293D01*
X4893872Y-12924293D02*
X4912920Y-12914769D01*
X4912920Y-12914769D02*
X4922444Y-12905246D01*
X4922444Y-12905246D02*
X4931968Y-12886198D01*
X4998634Y-12800484D02*
X5131968Y-12800484D01*
X5131968Y-12800484D02*
X5046253Y-13000484D01*
X5198634Y-12800484D02*
X5198634Y-12838579D01*
X5274825Y-12800484D02*
X5274825Y-12838579D01*
X5570063Y-13076674D02*
X5560539Y-13067150D01*
X5560539Y-13067150D02*
X5541491Y-13038579D01*
X5541491Y-13038579D02*
X5531968Y-13019531D01*
X5531968Y-13019531D02*
X5522444Y-12990960D01*
X5522444Y-12990960D02*
X5512920Y-12943341D01*
X5512920Y-12943341D02*
X5512920Y-12905246D01*
X5512920Y-12905246D02*
X5522444Y-12857627D01*
X5522444Y-12857627D02*
X5531968Y-12829055D01*
X5531968Y-12829055D02*
X5541491Y-12810008D01*
X5541491Y-12810008D02*
X5560539Y-12781436D01*
X5560539Y-12781436D02*
X5570063Y-12771912D01*
X5627206Y-12800484D02*
X5751015Y-12800484D01*
X5751015Y-12800484D02*
X5684348Y-12876674D01*
X5684348Y-12876674D02*
X5712920Y-12876674D01*
X5712920Y-12876674D02*
X5731968Y-12886198D01*
X5731968Y-12886198D02*
X5741491Y-12895722D01*
X5741491Y-12895722D02*
X5751015Y-12914769D01*
X5751015Y-12914769D02*
X5751015Y-12962388D01*
X5751015Y-12962388D02*
X5741491Y-12981436D01*
X5741491Y-12981436D02*
X5731968Y-12990960D01*
X5731968Y-12990960D02*
X5712920Y-13000484D01*
X5712920Y-13000484D02*
X5655777Y-13000484D01*
X5655777Y-13000484D02*
X5636729Y-12990960D01*
X5636729Y-12990960D02*
X5627206Y-12981436D01*
X5827206Y-12819531D02*
X5836729Y-12810008D01*
X5836729Y-12810008D02*
X5855777Y-12800484D01*
X5855777Y-12800484D02*
X5903396Y-12800484D01*
X5903396Y-12800484D02*
X5922444Y-12810008D01*
X5922444Y-12810008D02*
X5931968Y-12819531D01*
X5931968Y-12819531D02*
X5941491Y-12838579D01*
X5941491Y-12838579D02*
X5941491Y-12857627D01*
X5941491Y-12857627D02*
X5931968Y-12886198D01*
X5931968Y-12886198D02*
X5817682Y-13000484D01*
X5817682Y-13000484D02*
X5941491Y-13000484D01*
X6179587Y-13000484D02*
X6179587Y-12800484D01*
X6265301Y-13000484D02*
X6265301Y-12895722D01*
X6265301Y-12895722D02*
X6255777Y-12876674D01*
X6255777Y-12876674D02*
X6236730Y-12867150D01*
X6236730Y-12867150D02*
X6208158Y-12867150D01*
X6208158Y-12867150D02*
X6189110Y-12876674D01*
X6189110Y-12876674D02*
X6179587Y-12886198D01*
X6389110Y-13000484D02*
X6370063Y-12990960D01*
X6370063Y-12990960D02*
X6360539Y-12981436D01*
X6360539Y-12981436D02*
X6351015Y-12962388D01*
X6351015Y-12962388D02*
X6351015Y-12905246D01*
X6351015Y-12905246D02*
X6360539Y-12886198D01*
X6360539Y-12886198D02*
X6370063Y-12876674D01*
X6370063Y-12876674D02*
X6389110Y-12867150D01*
X6389110Y-12867150D02*
X6417682Y-12867150D01*
X6417682Y-12867150D02*
X6436730Y-12876674D01*
X6436730Y-12876674D02*
X6446253Y-12886198D01*
X6446253Y-12886198D02*
X6455777Y-12905246D01*
X6455777Y-12905246D02*
X6455777Y-12962388D01*
X6455777Y-12962388D02*
X6446253Y-12981436D01*
X6446253Y-12981436D02*
X6436730Y-12990960D01*
X6436730Y-12990960D02*
X6417682Y-13000484D01*
X6417682Y-13000484D02*
X6389110Y-13000484D01*
X6570063Y-13000484D02*
X6551015Y-12990960D01*
X6551015Y-12990960D02*
X6541491Y-12971912D01*
X6541491Y-12971912D02*
X6541491Y-12800484D01*
X6722444Y-12990960D02*
X6703396Y-13000484D01*
X6703396Y-13000484D02*
X6665301Y-13000484D01*
X6665301Y-13000484D02*
X6646253Y-12990960D01*
X6646253Y-12990960D02*
X6636730Y-12971912D01*
X6636730Y-12971912D02*
X6636730Y-12895722D01*
X6636730Y-12895722D02*
X6646253Y-12876674D01*
X6646253Y-12876674D02*
X6665301Y-12867150D01*
X6665301Y-12867150D02*
X6703396Y-12867150D01*
X6703396Y-12867150D02*
X6722444Y-12876674D01*
X6722444Y-12876674D02*
X6731968Y-12895722D01*
X6731968Y-12895722D02*
X6731968Y-12914769D01*
X6731968Y-12914769D02*
X6636730Y-12933817D01*
X6808158Y-12990960D02*
X6827206Y-13000484D01*
X6827206Y-13000484D02*
X6865301Y-13000484D01*
X6865301Y-13000484D02*
X6884349Y-12990960D01*
X6884349Y-12990960D02*
X6893872Y-12971912D01*
X6893872Y-12971912D02*
X6893872Y-12962388D01*
X6893872Y-12962388D02*
X6884349Y-12943341D01*
X6884349Y-12943341D02*
X6865301Y-12933817D01*
X6865301Y-12933817D02*
X6836730Y-12933817D01*
X6836730Y-12933817D02*
X6817682Y-12924293D01*
X6817682Y-12924293D02*
X6808158Y-12905246D01*
X6808158Y-12905246D02*
X6808158Y-12895722D01*
X6808158Y-12895722D02*
X6817682Y-12876674D01*
X6817682Y-12876674D02*
X6836730Y-12867150D01*
X6836730Y-12867150D02*
X6865301Y-12867150D01*
X6865301Y-12867150D02*
X6884349Y-12876674D01*
X6960539Y-13076674D02*
X6970063Y-13067150D01*
X6970063Y-13067150D02*
X6989111Y-13038579D01*
X6989111Y-13038579D02*
X6998634Y-13019531D01*
X6998634Y-13019531D02*
X7008158Y-12990960D01*
X7008158Y-12990960D02*
X7017682Y-12943341D01*
X7017682Y-12943341D02*
X7017682Y-12905246D01*
X7017682Y-12905246D02*
X7008158Y-12857627D01*
X7008158Y-12857627D02*
X6998634Y-12829055D01*
X6998634Y-12829055D02*
X6989111Y-12810008D01*
X6989111Y-12810008D02*
X6970063Y-12781436D01*
X6970063Y-12781436D02*
X6960539Y-12771912D01*
D10*
X1965000Y-13143000D02*
X1965000Y-13203000D01*
X1935000Y-13173000D02*
X1995000Y-13173000D01*
D11*
X2293872Y-13064484D02*
X2312920Y-13064484D01*
X2312920Y-13064484D02*
X2331967Y-13074008D01*
X2331967Y-13074008D02*
X2341491Y-13083531D01*
X2341491Y-13083531D02*
X2351015Y-13102579D01*
X2351015Y-13102579D02*
X2360539Y-13140674D01*
X2360539Y-13140674D02*
X2360539Y-13188293D01*
X2360539Y-13188293D02*
X2351015Y-13226388D01*
X2351015Y-13226388D02*
X2341491Y-13245436D01*
X2341491Y-13245436D02*
X2331967Y-13254960D01*
X2331967Y-13254960D02*
X2312920Y-13264484D01*
X2312920Y-13264484D02*
X2293872Y-13264484D01*
X2293872Y-13264484D02*
X2274824Y-13254960D01*
X2274824Y-13254960D02*
X2265301Y-13245436D01*
X2265301Y-13245436D02*
X2255777Y-13226388D01*
X2255777Y-13226388D02*
X2246253Y-13188293D01*
X2246253Y-13188293D02*
X2246253Y-13140674D01*
X2246253Y-13140674D02*
X2255777Y-13102579D01*
X2255777Y-13102579D02*
X2265301Y-13083531D01*
X2265301Y-13083531D02*
X2274824Y-13074008D01*
X2274824Y-13074008D02*
X2293872Y-13064484D01*
X2446253Y-13245436D02*
X2455777Y-13254960D01*
X2455777Y-13254960D02*
X2446253Y-13264484D01*
X2446253Y-13264484D02*
X2436729Y-13254960D01*
X2436729Y-13254960D02*
X2446253Y-13245436D01*
X2446253Y-13245436D02*
X2446253Y-13264484D01*
X2627205Y-13064484D02*
X2589110Y-13064484D01*
X2589110Y-13064484D02*
X2570063Y-13074008D01*
X2570063Y-13074008D02*
X2560539Y-13083531D01*
X2560539Y-13083531D02*
X2541491Y-13112103D01*
X2541491Y-13112103D02*
X2531967Y-13150198D01*
X2531967Y-13150198D02*
X2531967Y-13226388D01*
X2531967Y-13226388D02*
X2541491Y-13245436D01*
X2541491Y-13245436D02*
X2551015Y-13254960D01*
X2551015Y-13254960D02*
X2570063Y-13264484D01*
X2570063Y-13264484D02*
X2608158Y-13264484D01*
X2608158Y-13264484D02*
X2627205Y-13254960D01*
X2627205Y-13254960D02*
X2636729Y-13245436D01*
X2636729Y-13245436D02*
X2646253Y-13226388D01*
X2646253Y-13226388D02*
X2646253Y-13178769D01*
X2646253Y-13178769D02*
X2636729Y-13159722D01*
X2636729Y-13159722D02*
X2627205Y-13150198D01*
X2627205Y-13150198D02*
X2608158Y-13140674D01*
X2608158Y-13140674D02*
X2570063Y-13140674D01*
X2570063Y-13140674D02*
X2551015Y-13150198D01*
X2551015Y-13150198D02*
X2541491Y-13159722D01*
X2541491Y-13159722D02*
X2531967Y-13178769D01*
X2770063Y-13064484D02*
X2789110Y-13064484D01*
X2789110Y-13064484D02*
X2808158Y-13074008D01*
X2808158Y-13074008D02*
X2817682Y-13083531D01*
X2817682Y-13083531D02*
X2827205Y-13102579D01*
X2827205Y-13102579D02*
X2836729Y-13140674D01*
X2836729Y-13140674D02*
X2836729Y-13188293D01*
X2836729Y-13188293D02*
X2827205Y-13226388D01*
X2827205Y-13226388D02*
X2817682Y-13245436D01*
X2817682Y-13245436D02*
X2808158Y-13254960D01*
X2808158Y-13254960D02*
X2789110Y-13264484D01*
X2789110Y-13264484D02*
X2770063Y-13264484D01*
X2770063Y-13264484D02*
X2751015Y-13254960D01*
X2751015Y-13254960D02*
X2741491Y-13245436D01*
X2741491Y-13245436D02*
X2731967Y-13226388D01*
X2731967Y-13226388D02*
X2722444Y-13188293D01*
X2722444Y-13188293D02*
X2722444Y-13140674D01*
X2722444Y-13140674D02*
X2731967Y-13102579D01*
X2731967Y-13102579D02*
X2741491Y-13083531D01*
X2741491Y-13083531D02*
X2751015Y-13074008D01*
X2751015Y-13074008D02*
X2770063Y-13064484D01*
X2960539Y-13064484D02*
X2979586Y-13064484D01*
X2979586Y-13064484D02*
X2998634Y-13074008D01*
X2998634Y-13074008D02*
X3008158Y-13083531D01*
X3008158Y-13083531D02*
X3017682Y-13102579D01*
X3017682Y-13102579D02*
X3027205Y-13140674D01*
X3027205Y-13140674D02*
X3027205Y-13188293D01*
X3027205Y-13188293D02*
X3017682Y-13226388D01*
X3017682Y-13226388D02*
X3008158Y-13245436D01*
X3008158Y-13245436D02*
X2998634Y-13254960D01*
X2998634Y-13254960D02*
X2979586Y-13264484D01*
X2979586Y-13264484D02*
X2960539Y-13264484D01*
X2960539Y-13264484D02*
X2941491Y-13254960D01*
X2941491Y-13254960D02*
X2931967Y-13245436D01*
X2931967Y-13245436D02*
X2922443Y-13226388D01*
X2922443Y-13226388D02*
X2912920Y-13188293D01*
X2912920Y-13188293D02*
X2912920Y-13140674D01*
X2912920Y-13140674D02*
X2922443Y-13102579D01*
X2922443Y-13102579D02*
X2931967Y-13083531D01*
X2931967Y-13083531D02*
X2941491Y-13074008D01*
X2941491Y-13074008D02*
X2960539Y-13064484D01*
X3112920Y-13264484D02*
X3112920Y-13131150D01*
X3112920Y-13150198D02*
X3122443Y-13140674D01*
X3122443Y-13140674D02*
X3141491Y-13131150D01*
X3141491Y-13131150D02*
X3170063Y-13131150D01*
X3170063Y-13131150D02*
X3189110Y-13140674D01*
X3189110Y-13140674D02*
X3198634Y-13159722D01*
X3198634Y-13159722D02*
X3198634Y-13264484D01*
X3198634Y-13159722D02*
X3208158Y-13140674D01*
X3208158Y-13140674D02*
X3227205Y-13131150D01*
X3227205Y-13131150D02*
X3255777Y-13131150D01*
X3255777Y-13131150D02*
X3274824Y-13140674D01*
X3274824Y-13140674D02*
X3284348Y-13159722D01*
X3284348Y-13159722D02*
X3284348Y-13264484D01*
X3379586Y-13264484D02*
X3379586Y-13131150D01*
X3379586Y-13150198D02*
X3389110Y-13140674D01*
X3389110Y-13140674D02*
X3408158Y-13131150D01*
X3408158Y-13131150D02*
X3436729Y-13131150D01*
X3436729Y-13131150D02*
X3455777Y-13140674D01*
X3455777Y-13140674D02*
X3465301Y-13159722D01*
X3465301Y-13159722D02*
X3465301Y-13264484D01*
X3465301Y-13159722D02*
X3474824Y-13140674D01*
X3474824Y-13140674D02*
X3493872Y-13131150D01*
X3493872Y-13131150D02*
X3522443Y-13131150D01*
X3522443Y-13131150D02*
X3541491Y-13140674D01*
X3541491Y-13140674D02*
X3551015Y-13159722D01*
X3551015Y-13159722D02*
X3551015Y-13264484D01*
X3941491Y-13054960D02*
X3770063Y-13312103D01*
X4198634Y-13064484D02*
X4217682Y-13064484D01*
X4217682Y-13064484D02*
X4236729Y-13074008D01*
X4236729Y-13074008D02*
X4246253Y-13083531D01*
X4246253Y-13083531D02*
X4255777Y-13102579D01*
X4255777Y-13102579D02*
X4265301Y-13140674D01*
X4265301Y-13140674D02*
X4265301Y-13188293D01*
X4265301Y-13188293D02*
X4255777Y-13226388D01*
X4255777Y-13226388D02*
X4246253Y-13245436D01*
X4246253Y-13245436D02*
X4236729Y-13254960D01*
X4236729Y-13254960D02*
X4217682Y-13264484D01*
X4217682Y-13264484D02*
X4198634Y-13264484D01*
X4198634Y-13264484D02*
X4179586Y-13254960D01*
X4179586Y-13254960D02*
X4170063Y-13245436D01*
X4170063Y-13245436D02*
X4160539Y-13226388D01*
X4160539Y-13226388D02*
X4151015Y-13188293D01*
X4151015Y-13188293D02*
X4151015Y-13140674D01*
X4151015Y-13140674D02*
X4160539Y-13102579D01*
X4160539Y-13102579D02*
X4170063Y-13083531D01*
X4170063Y-13083531D02*
X4179586Y-13074008D01*
X4179586Y-13074008D02*
X4198634Y-13064484D01*
X4351015Y-13245436D02*
X4360539Y-13254960D01*
X4360539Y-13254960D02*
X4351015Y-13264484D01*
X4351015Y-13264484D02*
X4341491Y-13254960D01*
X4341491Y-13254960D02*
X4351015Y-13245436D01*
X4351015Y-13245436D02*
X4351015Y-13264484D01*
X4484348Y-13064484D02*
X4503396Y-13064484D01*
X4503396Y-13064484D02*
X4522444Y-13074008D01*
X4522444Y-13074008D02*
X4531968Y-13083531D01*
X4531968Y-13083531D02*
X4541491Y-13102579D01*
X4541491Y-13102579D02*
X4551015Y-13140674D01*
X4551015Y-13140674D02*
X4551015Y-13188293D01*
X4551015Y-13188293D02*
X4541491Y-13226388D01*
X4541491Y-13226388D02*
X4531968Y-13245436D01*
X4531968Y-13245436D02*
X4522444Y-13254960D01*
X4522444Y-13254960D02*
X4503396Y-13264484D01*
X4503396Y-13264484D02*
X4484348Y-13264484D01*
X4484348Y-13264484D02*
X4465301Y-13254960D01*
X4465301Y-13254960D02*
X4455777Y-13245436D01*
X4455777Y-13245436D02*
X4446253Y-13226388D01*
X4446253Y-13226388D02*
X4436729Y-13188293D01*
X4436729Y-13188293D02*
X4436729Y-13140674D01*
X4436729Y-13140674D02*
X4446253Y-13102579D01*
X4446253Y-13102579D02*
X4455777Y-13083531D01*
X4455777Y-13083531D02*
X4465301Y-13074008D01*
X4465301Y-13074008D02*
X4484348Y-13064484D01*
X4627206Y-13083531D02*
X4636729Y-13074008D01*
X4636729Y-13074008D02*
X4655777Y-13064484D01*
X4655777Y-13064484D02*
X4703396Y-13064484D01*
X4703396Y-13064484D02*
X4722444Y-13074008D01*
X4722444Y-13074008D02*
X4731968Y-13083531D01*
X4731968Y-13083531D02*
X4741491Y-13102579D01*
X4741491Y-13102579D02*
X4741491Y-13121627D01*
X4741491Y-13121627D02*
X4731968Y-13150198D01*
X4731968Y-13150198D02*
X4617682Y-13264484D01*
X4617682Y-13264484D02*
X4741491Y-13264484D01*
X4808158Y-13064484D02*
X4931968Y-13064484D01*
X4931968Y-13064484D02*
X4865301Y-13140674D01*
X4865301Y-13140674D02*
X4893872Y-13140674D01*
X4893872Y-13140674D02*
X4912920Y-13150198D01*
X4912920Y-13150198D02*
X4922444Y-13159722D01*
X4922444Y-13159722D02*
X4931968Y-13178769D01*
X4931968Y-13178769D02*
X4931968Y-13226388D01*
X4931968Y-13226388D02*
X4922444Y-13245436D01*
X4922444Y-13245436D02*
X4912920Y-13254960D01*
X4912920Y-13254960D02*
X4893872Y-13264484D01*
X4893872Y-13264484D02*
X4836729Y-13264484D01*
X4836729Y-13264484D02*
X4817682Y-13254960D01*
X4817682Y-13254960D02*
X4808158Y-13245436D01*
X5103396Y-13064484D02*
X5065301Y-13064484D01*
X5065301Y-13064484D02*
X5046253Y-13074008D01*
X5046253Y-13074008D02*
X5036729Y-13083531D01*
X5036729Y-13083531D02*
X5017682Y-13112103D01*
X5017682Y-13112103D02*
X5008158Y-13150198D01*
X5008158Y-13150198D02*
X5008158Y-13226388D01*
X5008158Y-13226388D02*
X5017682Y-13245436D01*
X5017682Y-13245436D02*
X5027206Y-13254960D01*
X5027206Y-13254960D02*
X5046253Y-13264484D01*
X5046253Y-13264484D02*
X5084349Y-13264484D01*
X5084349Y-13264484D02*
X5103396Y-13254960D01*
X5103396Y-13254960D02*
X5112920Y-13245436D01*
X5112920Y-13245436D02*
X5122444Y-13226388D01*
X5122444Y-13226388D02*
X5122444Y-13178769D01*
X5122444Y-13178769D02*
X5112920Y-13159722D01*
X5112920Y-13159722D02*
X5103396Y-13150198D01*
X5103396Y-13150198D02*
X5084349Y-13140674D01*
X5084349Y-13140674D02*
X5046253Y-13140674D01*
X5046253Y-13140674D02*
X5027206Y-13150198D01*
X5027206Y-13150198D02*
X5017682Y-13159722D01*
X5017682Y-13159722D02*
X5008158Y-13178769D01*
X5198634Y-13064484D02*
X5198634Y-13102579D01*
X5274825Y-13064484D02*
X5274825Y-13102579D01*
X5570063Y-13340674D02*
X5560539Y-13331150D01*
X5560539Y-13331150D02*
X5541491Y-13302579D01*
X5541491Y-13302579D02*
X5531968Y-13283531D01*
X5531968Y-13283531D02*
X5522444Y-13254960D01*
X5522444Y-13254960D02*
X5512920Y-13207341D01*
X5512920Y-13207341D02*
X5512920Y-13169246D01*
X5512920Y-13169246D02*
X5522444Y-13121627D01*
X5522444Y-13121627D02*
X5531968Y-13093055D01*
X5531968Y-13093055D02*
X5541491Y-13074008D01*
X5541491Y-13074008D02*
X5560539Y-13045436D01*
X5560539Y-13045436D02*
X5570063Y-13035912D01*
X5627206Y-13064484D02*
X5751015Y-13064484D01*
X5751015Y-13064484D02*
X5684348Y-13140674D01*
X5684348Y-13140674D02*
X5712920Y-13140674D01*
X5712920Y-13140674D02*
X5731968Y-13150198D01*
X5731968Y-13150198D02*
X5741491Y-13159722D01*
X5741491Y-13159722D02*
X5751015Y-13178769D01*
X5751015Y-13178769D02*
X5751015Y-13226388D01*
X5751015Y-13226388D02*
X5741491Y-13245436D01*
X5741491Y-13245436D02*
X5731968Y-13254960D01*
X5731968Y-13254960D02*
X5712920Y-13264484D01*
X5712920Y-13264484D02*
X5655777Y-13264484D01*
X5655777Y-13264484D02*
X5636729Y-13254960D01*
X5636729Y-13254960D02*
X5627206Y-13245436D01*
X5827206Y-13083531D02*
X5836729Y-13074008D01*
X5836729Y-13074008D02*
X5855777Y-13064484D01*
X5855777Y-13064484D02*
X5903396Y-13064484D01*
X5903396Y-13064484D02*
X5922444Y-13074008D01*
X5922444Y-13074008D02*
X5931968Y-13083531D01*
X5931968Y-13083531D02*
X5941491Y-13102579D01*
X5941491Y-13102579D02*
X5941491Y-13121627D01*
X5941491Y-13121627D02*
X5931968Y-13150198D01*
X5931968Y-13150198D02*
X5817682Y-13264484D01*
X5817682Y-13264484D02*
X5941491Y-13264484D01*
X6179587Y-13264484D02*
X6179587Y-13064484D01*
X6265301Y-13264484D02*
X6265301Y-13159722D01*
X6265301Y-13159722D02*
X6255777Y-13140674D01*
X6255777Y-13140674D02*
X6236730Y-13131150D01*
X6236730Y-13131150D02*
X6208158Y-13131150D01*
X6208158Y-13131150D02*
X6189110Y-13140674D01*
X6189110Y-13140674D02*
X6179587Y-13150198D01*
X6389110Y-13264484D02*
X6370063Y-13254960D01*
X6370063Y-13254960D02*
X6360539Y-13245436D01*
X6360539Y-13245436D02*
X6351015Y-13226388D01*
X6351015Y-13226388D02*
X6351015Y-13169246D01*
X6351015Y-13169246D02*
X6360539Y-13150198D01*
X6360539Y-13150198D02*
X6370063Y-13140674D01*
X6370063Y-13140674D02*
X6389110Y-13131150D01*
X6389110Y-13131150D02*
X6417682Y-13131150D01*
X6417682Y-13131150D02*
X6436730Y-13140674D01*
X6436730Y-13140674D02*
X6446253Y-13150198D01*
X6446253Y-13150198D02*
X6455777Y-13169246D01*
X6455777Y-13169246D02*
X6455777Y-13226388D01*
X6455777Y-13226388D02*
X6446253Y-13245436D01*
X6446253Y-13245436D02*
X6436730Y-13254960D01*
X6436730Y-13254960D02*
X6417682Y-13264484D01*
X6417682Y-13264484D02*
X6389110Y-13264484D01*
X6570063Y-13264484D02*
X6551015Y-13254960D01*
X6551015Y-13254960D02*
X6541491Y-13235912D01*
X6541491Y-13235912D02*
X6541491Y-13064484D01*
X6722444Y-13254960D02*
X6703396Y-13264484D01*
X6703396Y-13264484D02*
X6665301Y-13264484D01*
X6665301Y-13264484D02*
X6646253Y-13254960D01*
X6646253Y-13254960D02*
X6636730Y-13235912D01*
X6636730Y-13235912D02*
X6636730Y-13159722D01*
X6636730Y-13159722D02*
X6646253Y-13140674D01*
X6646253Y-13140674D02*
X6665301Y-13131150D01*
X6665301Y-13131150D02*
X6703396Y-13131150D01*
X6703396Y-13131150D02*
X6722444Y-13140674D01*
X6722444Y-13140674D02*
X6731968Y-13159722D01*
X6731968Y-13159722D02*
X6731968Y-13178769D01*
X6731968Y-13178769D02*
X6636730Y-13197817D01*
X6808158Y-13254960D02*
X6827206Y-13264484D01*
X6827206Y-13264484D02*
X6865301Y-13264484D01*
X6865301Y-13264484D02*
X6884349Y-13254960D01*
X6884349Y-13254960D02*
X6893872Y-13235912D01*
X6893872Y-13235912D02*
X6893872Y-13226388D01*
X6893872Y-13226388D02*
X6884349Y-13207341D01*
X6884349Y-13207341D02*
X6865301Y-13197817D01*
X6865301Y-13197817D02*
X6836730Y-13197817D01*
X6836730Y-13197817D02*
X6817682Y-13188293D01*
X6817682Y-13188293D02*
X6808158Y-13169246D01*
X6808158Y-13169246D02*
X6808158Y-13159722D01*
X6808158Y-13159722D02*
X6817682Y-13140674D01*
X6817682Y-13140674D02*
X6836730Y-13131150D01*
X6836730Y-13131150D02*
X6865301Y-13131150D01*
X6865301Y-13131150D02*
X6884349Y-13140674D01*
X6960539Y-13340674D02*
X6970063Y-13331150D01*
X6970063Y-13331150D02*
X6989111Y-13302579D01*
X6989111Y-13302579D02*
X6998634Y-13283531D01*
X6998634Y-13283531D02*
X7008158Y-13254960D01*
X7008158Y-13254960D02*
X7017682Y-13207341D01*
X7017682Y-13207341D02*
X7017682Y-13169246D01*
X7017682Y-13169246D02*
X7008158Y-13121627D01*
X7008158Y-13121627D02*
X6998634Y-13093055D01*
X6998634Y-13093055D02*
X6989111Y-13074008D01*
X6989111Y-13074008D02*
X6970063Y-13045436D01*
X6970063Y-13045436D02*
X6960539Y-13035912D01*
D10*
X1985774Y-13459274D02*
X1985774Y-13414726D01*
X1941226Y-13414726D01*
X1941226Y-13459274D01*
X1985774Y-13459274D01*
D11*
X2293872Y-13328484D02*
X2312920Y-13328484D01*
X2312920Y-13328484D02*
X2331967Y-13338008D01*
X2331967Y-13338008D02*
X2341491Y-13347531D01*
X2341491Y-13347531D02*
X2351015Y-13366579D01*
X2351015Y-13366579D02*
X2360539Y-13404674D01*
X2360539Y-13404674D02*
X2360539Y-13452293D01*
X2360539Y-13452293D02*
X2351015Y-13490388D01*
X2351015Y-13490388D02*
X2341491Y-13509436D01*
X2341491Y-13509436D02*
X2331967Y-13518960D01*
X2331967Y-13518960D02*
X2312920Y-13528484D01*
X2312920Y-13528484D02*
X2293872Y-13528484D01*
X2293872Y-13528484D02*
X2274824Y-13518960D01*
X2274824Y-13518960D02*
X2265301Y-13509436D01*
X2265301Y-13509436D02*
X2255777Y-13490388D01*
X2255777Y-13490388D02*
X2246253Y-13452293D01*
X2246253Y-13452293D02*
X2246253Y-13404674D01*
X2246253Y-13404674D02*
X2255777Y-13366579D01*
X2255777Y-13366579D02*
X2265301Y-13347531D01*
X2265301Y-13347531D02*
X2274824Y-13338008D01*
X2274824Y-13338008D02*
X2293872Y-13328484D01*
X2446253Y-13509436D02*
X2455777Y-13518960D01*
X2455777Y-13518960D02*
X2446253Y-13528484D01*
X2446253Y-13528484D02*
X2436729Y-13518960D01*
X2436729Y-13518960D02*
X2446253Y-13509436D01*
X2446253Y-13509436D02*
X2446253Y-13528484D01*
X2627205Y-13328484D02*
X2589110Y-13328484D01*
X2589110Y-13328484D02*
X2570063Y-13338008D01*
X2570063Y-13338008D02*
X2560539Y-13347531D01*
X2560539Y-13347531D02*
X2541491Y-13376103D01*
X2541491Y-13376103D02*
X2531967Y-13414198D01*
X2531967Y-13414198D02*
X2531967Y-13490388D01*
X2531967Y-13490388D02*
X2541491Y-13509436D01*
X2541491Y-13509436D02*
X2551015Y-13518960D01*
X2551015Y-13518960D02*
X2570063Y-13528484D01*
X2570063Y-13528484D02*
X2608158Y-13528484D01*
X2608158Y-13528484D02*
X2627205Y-13518960D01*
X2627205Y-13518960D02*
X2636729Y-13509436D01*
X2636729Y-13509436D02*
X2646253Y-13490388D01*
X2646253Y-13490388D02*
X2646253Y-13442769D01*
X2646253Y-13442769D02*
X2636729Y-13423722D01*
X2636729Y-13423722D02*
X2627205Y-13414198D01*
X2627205Y-13414198D02*
X2608158Y-13404674D01*
X2608158Y-13404674D02*
X2570063Y-13404674D01*
X2570063Y-13404674D02*
X2551015Y-13414198D01*
X2551015Y-13414198D02*
X2541491Y-13423722D01*
X2541491Y-13423722D02*
X2531967Y-13442769D01*
X2712920Y-13328484D02*
X2836729Y-13328484D01*
X2836729Y-13328484D02*
X2770063Y-13404674D01*
X2770063Y-13404674D02*
X2798634Y-13404674D01*
X2798634Y-13404674D02*
X2817682Y-13414198D01*
X2817682Y-13414198D02*
X2827205Y-13423722D01*
X2827205Y-13423722D02*
X2836729Y-13442769D01*
X2836729Y-13442769D02*
X2836729Y-13490388D01*
X2836729Y-13490388D02*
X2827205Y-13509436D01*
X2827205Y-13509436D02*
X2817682Y-13518960D01*
X2817682Y-13518960D02*
X2798634Y-13528484D01*
X2798634Y-13528484D02*
X2741491Y-13528484D01*
X2741491Y-13528484D02*
X2722444Y-13518960D01*
X2722444Y-13518960D02*
X2712920Y-13509436D01*
X2960539Y-13328484D02*
X2979586Y-13328484D01*
X2979586Y-13328484D02*
X2998634Y-13338008D01*
X2998634Y-13338008D02*
X3008158Y-13347531D01*
X3008158Y-13347531D02*
X3017682Y-13366579D01*
X3017682Y-13366579D02*
X3027205Y-13404674D01*
X3027205Y-13404674D02*
X3027205Y-13452293D01*
X3027205Y-13452293D02*
X3017682Y-13490388D01*
X3017682Y-13490388D02*
X3008158Y-13509436D01*
X3008158Y-13509436D02*
X2998634Y-13518960D01*
X2998634Y-13518960D02*
X2979586Y-13528484D01*
X2979586Y-13528484D02*
X2960539Y-13528484D01*
X2960539Y-13528484D02*
X2941491Y-13518960D01*
X2941491Y-13518960D02*
X2931967Y-13509436D01*
X2931967Y-13509436D02*
X2922443Y-13490388D01*
X2922443Y-13490388D02*
X2912920Y-13452293D01*
X2912920Y-13452293D02*
X2912920Y-13404674D01*
X2912920Y-13404674D02*
X2922443Y-13366579D01*
X2922443Y-13366579D02*
X2931967Y-13347531D01*
X2931967Y-13347531D02*
X2941491Y-13338008D01*
X2941491Y-13338008D02*
X2960539Y-13328484D01*
X3112920Y-13528484D02*
X3112920Y-13395150D01*
X3112920Y-13414198D02*
X3122443Y-13404674D01*
X3122443Y-13404674D02*
X3141491Y-13395150D01*
X3141491Y-13395150D02*
X3170063Y-13395150D01*
X3170063Y-13395150D02*
X3189110Y-13404674D01*
X3189110Y-13404674D02*
X3198634Y-13423722D01*
X3198634Y-13423722D02*
X3198634Y-13528484D01*
X3198634Y-13423722D02*
X3208158Y-13404674D01*
X3208158Y-13404674D02*
X3227205Y-13395150D01*
X3227205Y-13395150D02*
X3255777Y-13395150D01*
X3255777Y-13395150D02*
X3274824Y-13404674D01*
X3274824Y-13404674D02*
X3284348Y-13423722D01*
X3284348Y-13423722D02*
X3284348Y-13528484D01*
X3379586Y-13528484D02*
X3379586Y-13395150D01*
X3379586Y-13414198D02*
X3389110Y-13404674D01*
X3389110Y-13404674D02*
X3408158Y-13395150D01*
X3408158Y-13395150D02*
X3436729Y-13395150D01*
X3436729Y-13395150D02*
X3455777Y-13404674D01*
X3455777Y-13404674D02*
X3465301Y-13423722D01*
X3465301Y-13423722D02*
X3465301Y-13528484D01*
X3465301Y-13423722D02*
X3474824Y-13404674D01*
X3474824Y-13404674D02*
X3493872Y-13395150D01*
X3493872Y-13395150D02*
X3522443Y-13395150D01*
X3522443Y-13395150D02*
X3541491Y-13404674D01*
X3541491Y-13404674D02*
X3551015Y-13423722D01*
X3551015Y-13423722D02*
X3551015Y-13528484D01*
X3941491Y-13318960D02*
X3770063Y-13576103D01*
X4198634Y-13328484D02*
X4217682Y-13328484D01*
X4217682Y-13328484D02*
X4236729Y-13338008D01*
X4236729Y-13338008D02*
X4246253Y-13347531D01*
X4246253Y-13347531D02*
X4255777Y-13366579D01*
X4255777Y-13366579D02*
X4265301Y-13404674D01*
X4265301Y-13404674D02*
X4265301Y-13452293D01*
X4265301Y-13452293D02*
X4255777Y-13490388D01*
X4255777Y-13490388D02*
X4246253Y-13509436D01*
X4246253Y-13509436D02*
X4236729Y-13518960D01*
X4236729Y-13518960D02*
X4217682Y-13528484D01*
X4217682Y-13528484D02*
X4198634Y-13528484D01*
X4198634Y-13528484D02*
X4179586Y-13518960D01*
X4179586Y-13518960D02*
X4170063Y-13509436D01*
X4170063Y-13509436D02*
X4160539Y-13490388D01*
X4160539Y-13490388D02*
X4151015Y-13452293D01*
X4151015Y-13452293D02*
X4151015Y-13404674D01*
X4151015Y-13404674D02*
X4160539Y-13366579D01*
X4160539Y-13366579D02*
X4170063Y-13347531D01*
X4170063Y-13347531D02*
X4179586Y-13338008D01*
X4179586Y-13338008D02*
X4198634Y-13328484D01*
X4351015Y-13509436D02*
X4360539Y-13518960D01*
X4360539Y-13518960D02*
X4351015Y-13528484D01*
X4351015Y-13528484D02*
X4341491Y-13518960D01*
X4341491Y-13518960D02*
X4351015Y-13509436D01*
X4351015Y-13509436D02*
X4351015Y-13528484D01*
X4484348Y-13328484D02*
X4503396Y-13328484D01*
X4503396Y-13328484D02*
X4522444Y-13338008D01*
X4522444Y-13338008D02*
X4531968Y-13347531D01*
X4531968Y-13347531D02*
X4541491Y-13366579D01*
X4541491Y-13366579D02*
X4551015Y-13404674D01*
X4551015Y-13404674D02*
X4551015Y-13452293D01*
X4551015Y-13452293D02*
X4541491Y-13490388D01*
X4541491Y-13490388D02*
X4531968Y-13509436D01*
X4531968Y-13509436D02*
X4522444Y-13518960D01*
X4522444Y-13518960D02*
X4503396Y-13528484D01*
X4503396Y-13528484D02*
X4484348Y-13528484D01*
X4484348Y-13528484D02*
X4465301Y-13518960D01*
X4465301Y-13518960D02*
X4455777Y-13509436D01*
X4455777Y-13509436D02*
X4446253Y-13490388D01*
X4446253Y-13490388D02*
X4436729Y-13452293D01*
X4436729Y-13452293D02*
X4436729Y-13404674D01*
X4436729Y-13404674D02*
X4446253Y-13366579D01*
X4446253Y-13366579D02*
X4455777Y-13347531D01*
X4455777Y-13347531D02*
X4465301Y-13338008D01*
X4465301Y-13338008D02*
X4484348Y-13328484D01*
X4627206Y-13347531D02*
X4636729Y-13338008D01*
X4636729Y-13338008D02*
X4655777Y-13328484D01*
X4655777Y-13328484D02*
X4703396Y-13328484D01*
X4703396Y-13328484D02*
X4722444Y-13338008D01*
X4722444Y-13338008D02*
X4731968Y-13347531D01*
X4731968Y-13347531D02*
X4741491Y-13366579D01*
X4741491Y-13366579D02*
X4741491Y-13385627D01*
X4741491Y-13385627D02*
X4731968Y-13414198D01*
X4731968Y-13414198D02*
X4617682Y-13528484D01*
X4617682Y-13528484D02*
X4741491Y-13528484D01*
X4912920Y-13395150D02*
X4912920Y-13528484D01*
X4865301Y-13318960D02*
X4817682Y-13461817D01*
X4817682Y-13461817D02*
X4941491Y-13461817D01*
X5046253Y-13414198D02*
X5027206Y-13404674D01*
X5027206Y-13404674D02*
X5017682Y-13395150D01*
X5017682Y-13395150D02*
X5008158Y-13376103D01*
X5008158Y-13376103D02*
X5008158Y-13366579D01*
X5008158Y-13366579D02*
X5017682Y-13347531D01*
X5017682Y-13347531D02*
X5027206Y-13338008D01*
X5027206Y-13338008D02*
X5046253Y-13328484D01*
X5046253Y-13328484D02*
X5084349Y-13328484D01*
X5084349Y-13328484D02*
X5103396Y-13338008D01*
X5103396Y-13338008D02*
X5112920Y-13347531D01*
X5112920Y-13347531D02*
X5122444Y-13366579D01*
X5122444Y-13366579D02*
X5122444Y-13376103D01*
X5122444Y-13376103D02*
X5112920Y-13395150D01*
X5112920Y-13395150D02*
X5103396Y-13404674D01*
X5103396Y-13404674D02*
X5084349Y-13414198D01*
X5084349Y-13414198D02*
X5046253Y-13414198D01*
X5046253Y-13414198D02*
X5027206Y-13423722D01*
X5027206Y-13423722D02*
X5017682Y-13433246D01*
X5017682Y-13433246D02*
X5008158Y-13452293D01*
X5008158Y-13452293D02*
X5008158Y-13490388D01*
X5008158Y-13490388D02*
X5017682Y-13509436D01*
X5017682Y-13509436D02*
X5027206Y-13518960D01*
X5027206Y-13518960D02*
X5046253Y-13528484D01*
X5046253Y-13528484D02*
X5084349Y-13528484D01*
X5084349Y-13528484D02*
X5103396Y-13518960D01*
X5103396Y-13518960D02*
X5112920Y-13509436D01*
X5112920Y-13509436D02*
X5122444Y-13490388D01*
X5122444Y-13490388D02*
X5122444Y-13452293D01*
X5122444Y-13452293D02*
X5112920Y-13433246D01*
X5112920Y-13433246D02*
X5103396Y-13423722D01*
X5103396Y-13423722D02*
X5084349Y-13414198D01*
X5198634Y-13328484D02*
X5198634Y-13366579D01*
X5274825Y-13328484D02*
X5274825Y-13366579D01*
X5570063Y-13604674D02*
X5560539Y-13595150D01*
X5560539Y-13595150D02*
X5541491Y-13566579D01*
X5541491Y-13566579D02*
X5531968Y-13547531D01*
X5531968Y-13547531D02*
X5522444Y-13518960D01*
X5522444Y-13518960D02*
X5512920Y-13471341D01*
X5512920Y-13471341D02*
X5512920Y-13433246D01*
X5512920Y-13433246D02*
X5522444Y-13385627D01*
X5522444Y-13385627D02*
X5531968Y-13357055D01*
X5531968Y-13357055D02*
X5541491Y-13338008D01*
X5541491Y-13338008D02*
X5560539Y-13309436D01*
X5560539Y-13309436D02*
X5570063Y-13299912D01*
X5636729Y-13347531D02*
X5646253Y-13338008D01*
X5646253Y-13338008D02*
X5665301Y-13328484D01*
X5665301Y-13328484D02*
X5712920Y-13328484D01*
X5712920Y-13328484D02*
X5731968Y-13338008D01*
X5731968Y-13338008D02*
X5741491Y-13347531D01*
X5741491Y-13347531D02*
X5751015Y-13366579D01*
X5751015Y-13366579D02*
X5751015Y-13385627D01*
X5751015Y-13385627D02*
X5741491Y-13414198D01*
X5741491Y-13414198D02*
X5627206Y-13528484D01*
X5627206Y-13528484D02*
X5751015Y-13528484D01*
X5989110Y-13528484D02*
X5989110Y-13328484D01*
X6074825Y-13528484D02*
X6074825Y-13423722D01*
X6074825Y-13423722D02*
X6065301Y-13404674D01*
X6065301Y-13404674D02*
X6046253Y-13395150D01*
X6046253Y-13395150D02*
X6017682Y-13395150D01*
X6017682Y-13395150D02*
X5998634Y-13404674D01*
X5998634Y-13404674D02*
X5989110Y-13414198D01*
X6198634Y-13528484D02*
X6179587Y-13518960D01*
X6179587Y-13518960D02*
X6170063Y-13509436D01*
X6170063Y-13509436D02*
X6160539Y-13490388D01*
X6160539Y-13490388D02*
X6160539Y-13433246D01*
X6160539Y-13433246D02*
X6170063Y-13414198D01*
X6170063Y-13414198D02*
X6179587Y-13404674D01*
X6179587Y-13404674D02*
X6198634Y-13395150D01*
X6198634Y-13395150D02*
X6227206Y-13395150D01*
X6227206Y-13395150D02*
X6246253Y-13404674D01*
X6246253Y-13404674D02*
X6255777Y-13414198D01*
X6255777Y-13414198D02*
X6265301Y-13433246D01*
X6265301Y-13433246D02*
X6265301Y-13490388D01*
X6265301Y-13490388D02*
X6255777Y-13509436D01*
X6255777Y-13509436D02*
X6246253Y-13518960D01*
X6246253Y-13518960D02*
X6227206Y-13528484D01*
X6227206Y-13528484D02*
X6198634Y-13528484D01*
X6379587Y-13528484D02*
X6360539Y-13518960D01*
X6360539Y-13518960D02*
X6351015Y-13499912D01*
X6351015Y-13499912D02*
X6351015Y-13328484D01*
X6531968Y-13518960D02*
X6512920Y-13528484D01*
X6512920Y-13528484D02*
X6474825Y-13528484D01*
X6474825Y-13528484D02*
X6455777Y-13518960D01*
X6455777Y-13518960D02*
X6446253Y-13499912D01*
X6446253Y-13499912D02*
X6446253Y-13423722D01*
X6446253Y-13423722D02*
X6455777Y-13404674D01*
X6455777Y-13404674D02*
X6474825Y-13395150D01*
X6474825Y-13395150D02*
X6512920Y-13395150D01*
X6512920Y-13395150D02*
X6531968Y-13404674D01*
X6531968Y-13404674D02*
X6541491Y-13423722D01*
X6541491Y-13423722D02*
X6541491Y-13442769D01*
X6541491Y-13442769D02*
X6446253Y-13461817D01*
X6617682Y-13518960D02*
X6636730Y-13528484D01*
X6636730Y-13528484D02*
X6674825Y-13528484D01*
X6674825Y-13528484D02*
X6693872Y-13518960D01*
X6693872Y-13518960D02*
X6703396Y-13499912D01*
X6703396Y-13499912D02*
X6703396Y-13490388D01*
X6703396Y-13490388D02*
X6693872Y-13471341D01*
X6693872Y-13471341D02*
X6674825Y-13461817D01*
X6674825Y-13461817D02*
X6646253Y-13461817D01*
X6646253Y-13461817D02*
X6627206Y-13452293D01*
X6627206Y-13452293D02*
X6617682Y-13433246D01*
X6617682Y-13433246D02*
X6617682Y-13423722D01*
X6617682Y-13423722D02*
X6627206Y-13404674D01*
X6627206Y-13404674D02*
X6646253Y-13395150D01*
X6646253Y-13395150D02*
X6674825Y-13395150D01*
X6674825Y-13395150D02*
X6693872Y-13404674D01*
X6770063Y-13604674D02*
X6779587Y-13595150D01*
X6779587Y-13595150D02*
X6798634Y-13566579D01*
X6798634Y-13566579D02*
X6808158Y-13547531D01*
X6808158Y-13547531D02*
X6817682Y-13518960D01*
X6817682Y-13518960D02*
X6827206Y-13471341D01*
X6827206Y-13471341D02*
X6827206Y-13433246D01*
X6827206Y-13433246D02*
X6817682Y-13385627D01*
X6817682Y-13385627D02*
X6808158Y-13357055D01*
X6808158Y-13357055D02*
X6798634Y-13338008D01*
X6798634Y-13338008D02*
X6779587Y-13309436D01*
X6779587Y-13309436D02*
X6770063Y-13299912D01*
D10*
X1955000Y-13741000D02*
X1995000Y-13701000D01*
X1955000Y-13661000D01*
X1915000Y-13701000D01*
X1955000Y-13741000D01*
D11*
X2293872Y-13592484D02*
X2312920Y-13592484D01*
X2312920Y-13592484D02*
X2331967Y-13602008D01*
X2331967Y-13602008D02*
X2341491Y-13611531D01*
X2341491Y-13611531D02*
X2351015Y-13630579D01*
X2351015Y-13630579D02*
X2360539Y-13668674D01*
X2360539Y-13668674D02*
X2360539Y-13716293D01*
X2360539Y-13716293D02*
X2351015Y-13754388D01*
X2351015Y-13754388D02*
X2341491Y-13773436D01*
X2341491Y-13773436D02*
X2331967Y-13782960D01*
X2331967Y-13782960D02*
X2312920Y-13792484D01*
X2312920Y-13792484D02*
X2293872Y-13792484D01*
X2293872Y-13792484D02*
X2274824Y-13782960D01*
X2274824Y-13782960D02*
X2265301Y-13773436D01*
X2265301Y-13773436D02*
X2255777Y-13754388D01*
X2255777Y-13754388D02*
X2246253Y-13716293D01*
X2246253Y-13716293D02*
X2246253Y-13668674D01*
X2246253Y-13668674D02*
X2255777Y-13630579D01*
X2255777Y-13630579D02*
X2265301Y-13611531D01*
X2265301Y-13611531D02*
X2274824Y-13602008D01*
X2274824Y-13602008D02*
X2293872Y-13592484D01*
X2446253Y-13773436D02*
X2455777Y-13782960D01*
X2455777Y-13782960D02*
X2446253Y-13792484D01*
X2446253Y-13792484D02*
X2436729Y-13782960D01*
X2436729Y-13782960D02*
X2446253Y-13773436D01*
X2446253Y-13773436D02*
X2446253Y-13792484D01*
X2570063Y-13678198D02*
X2551015Y-13668674D01*
X2551015Y-13668674D02*
X2541491Y-13659150D01*
X2541491Y-13659150D02*
X2531967Y-13640103D01*
X2531967Y-13640103D02*
X2531967Y-13630579D01*
X2531967Y-13630579D02*
X2541491Y-13611531D01*
X2541491Y-13611531D02*
X2551015Y-13602008D01*
X2551015Y-13602008D02*
X2570063Y-13592484D01*
X2570063Y-13592484D02*
X2608158Y-13592484D01*
X2608158Y-13592484D02*
X2627205Y-13602008D01*
X2627205Y-13602008D02*
X2636729Y-13611531D01*
X2636729Y-13611531D02*
X2646253Y-13630579D01*
X2646253Y-13630579D02*
X2646253Y-13640103D01*
X2646253Y-13640103D02*
X2636729Y-13659150D01*
X2636729Y-13659150D02*
X2627205Y-13668674D01*
X2627205Y-13668674D02*
X2608158Y-13678198D01*
X2608158Y-13678198D02*
X2570063Y-13678198D01*
X2570063Y-13678198D02*
X2551015Y-13687722D01*
X2551015Y-13687722D02*
X2541491Y-13697246D01*
X2541491Y-13697246D02*
X2531967Y-13716293D01*
X2531967Y-13716293D02*
X2531967Y-13754388D01*
X2531967Y-13754388D02*
X2541491Y-13773436D01*
X2541491Y-13773436D02*
X2551015Y-13782960D01*
X2551015Y-13782960D02*
X2570063Y-13792484D01*
X2570063Y-13792484D02*
X2608158Y-13792484D01*
X2608158Y-13792484D02*
X2627205Y-13782960D01*
X2627205Y-13782960D02*
X2636729Y-13773436D01*
X2636729Y-13773436D02*
X2646253Y-13754388D01*
X2646253Y-13754388D02*
X2646253Y-13716293D01*
X2646253Y-13716293D02*
X2636729Y-13697246D01*
X2636729Y-13697246D02*
X2627205Y-13687722D01*
X2627205Y-13687722D02*
X2608158Y-13678198D01*
X2770063Y-13592484D02*
X2789110Y-13592484D01*
X2789110Y-13592484D02*
X2808158Y-13602008D01*
X2808158Y-13602008D02*
X2817682Y-13611531D01*
X2817682Y-13611531D02*
X2827205Y-13630579D01*
X2827205Y-13630579D02*
X2836729Y-13668674D01*
X2836729Y-13668674D02*
X2836729Y-13716293D01*
X2836729Y-13716293D02*
X2827205Y-13754388D01*
X2827205Y-13754388D02*
X2817682Y-13773436D01*
X2817682Y-13773436D02*
X2808158Y-13782960D01*
X2808158Y-13782960D02*
X2789110Y-13792484D01*
X2789110Y-13792484D02*
X2770063Y-13792484D01*
X2770063Y-13792484D02*
X2751015Y-13782960D01*
X2751015Y-13782960D02*
X2741491Y-13773436D01*
X2741491Y-13773436D02*
X2731967Y-13754388D01*
X2731967Y-13754388D02*
X2722444Y-13716293D01*
X2722444Y-13716293D02*
X2722444Y-13668674D01*
X2722444Y-13668674D02*
X2731967Y-13630579D01*
X2731967Y-13630579D02*
X2741491Y-13611531D01*
X2741491Y-13611531D02*
X2751015Y-13602008D01*
X2751015Y-13602008D02*
X2770063Y-13592484D01*
X2960539Y-13592484D02*
X2979586Y-13592484D01*
X2979586Y-13592484D02*
X2998634Y-13602008D01*
X2998634Y-13602008D02*
X3008158Y-13611531D01*
X3008158Y-13611531D02*
X3017682Y-13630579D01*
X3017682Y-13630579D02*
X3027205Y-13668674D01*
X3027205Y-13668674D02*
X3027205Y-13716293D01*
X3027205Y-13716293D02*
X3017682Y-13754388D01*
X3017682Y-13754388D02*
X3008158Y-13773436D01*
X3008158Y-13773436D02*
X2998634Y-13782960D01*
X2998634Y-13782960D02*
X2979586Y-13792484D01*
X2979586Y-13792484D02*
X2960539Y-13792484D01*
X2960539Y-13792484D02*
X2941491Y-13782960D01*
X2941491Y-13782960D02*
X2931967Y-13773436D01*
X2931967Y-13773436D02*
X2922443Y-13754388D01*
X2922443Y-13754388D02*
X2912920Y-13716293D01*
X2912920Y-13716293D02*
X2912920Y-13668674D01*
X2912920Y-13668674D02*
X2922443Y-13630579D01*
X2922443Y-13630579D02*
X2931967Y-13611531D01*
X2931967Y-13611531D02*
X2941491Y-13602008D01*
X2941491Y-13602008D02*
X2960539Y-13592484D01*
X3112920Y-13792484D02*
X3112920Y-13659150D01*
X3112920Y-13678198D02*
X3122443Y-13668674D01*
X3122443Y-13668674D02*
X3141491Y-13659150D01*
X3141491Y-13659150D02*
X3170063Y-13659150D01*
X3170063Y-13659150D02*
X3189110Y-13668674D01*
X3189110Y-13668674D02*
X3198634Y-13687722D01*
X3198634Y-13687722D02*
X3198634Y-13792484D01*
X3198634Y-13687722D02*
X3208158Y-13668674D01*
X3208158Y-13668674D02*
X3227205Y-13659150D01*
X3227205Y-13659150D02*
X3255777Y-13659150D01*
X3255777Y-13659150D02*
X3274824Y-13668674D01*
X3274824Y-13668674D02*
X3284348Y-13687722D01*
X3284348Y-13687722D02*
X3284348Y-13792484D01*
X3379586Y-13792484D02*
X3379586Y-13659150D01*
X3379586Y-13678198D02*
X3389110Y-13668674D01*
X3389110Y-13668674D02*
X3408158Y-13659150D01*
X3408158Y-13659150D02*
X3436729Y-13659150D01*
X3436729Y-13659150D02*
X3455777Y-13668674D01*
X3455777Y-13668674D02*
X3465301Y-13687722D01*
X3465301Y-13687722D02*
X3465301Y-13792484D01*
X3465301Y-13687722D02*
X3474824Y-13668674D01*
X3474824Y-13668674D02*
X3493872Y-13659150D01*
X3493872Y-13659150D02*
X3522443Y-13659150D01*
X3522443Y-13659150D02*
X3541491Y-13668674D01*
X3541491Y-13668674D02*
X3551015Y-13687722D01*
X3551015Y-13687722D02*
X3551015Y-13792484D01*
X3941491Y-13582960D02*
X3770063Y-13840103D01*
X4198634Y-13592484D02*
X4217682Y-13592484D01*
X4217682Y-13592484D02*
X4236729Y-13602008D01*
X4236729Y-13602008D02*
X4246253Y-13611531D01*
X4246253Y-13611531D02*
X4255777Y-13630579D01*
X4255777Y-13630579D02*
X4265301Y-13668674D01*
X4265301Y-13668674D02*
X4265301Y-13716293D01*
X4265301Y-13716293D02*
X4255777Y-13754388D01*
X4255777Y-13754388D02*
X4246253Y-13773436D01*
X4246253Y-13773436D02*
X4236729Y-13782960D01*
X4236729Y-13782960D02*
X4217682Y-13792484D01*
X4217682Y-13792484D02*
X4198634Y-13792484D01*
X4198634Y-13792484D02*
X4179586Y-13782960D01*
X4179586Y-13782960D02*
X4170063Y-13773436D01*
X4170063Y-13773436D02*
X4160539Y-13754388D01*
X4160539Y-13754388D02*
X4151015Y-13716293D01*
X4151015Y-13716293D02*
X4151015Y-13668674D01*
X4151015Y-13668674D02*
X4160539Y-13630579D01*
X4160539Y-13630579D02*
X4170063Y-13611531D01*
X4170063Y-13611531D02*
X4179586Y-13602008D01*
X4179586Y-13602008D02*
X4198634Y-13592484D01*
X4351015Y-13773436D02*
X4360539Y-13782960D01*
X4360539Y-13782960D02*
X4351015Y-13792484D01*
X4351015Y-13792484D02*
X4341491Y-13782960D01*
X4341491Y-13782960D02*
X4351015Y-13773436D01*
X4351015Y-13773436D02*
X4351015Y-13792484D01*
X4484348Y-13592484D02*
X4503396Y-13592484D01*
X4503396Y-13592484D02*
X4522444Y-13602008D01*
X4522444Y-13602008D02*
X4531968Y-13611531D01*
X4531968Y-13611531D02*
X4541491Y-13630579D01*
X4541491Y-13630579D02*
X4551015Y-13668674D01*
X4551015Y-13668674D02*
X4551015Y-13716293D01*
X4551015Y-13716293D02*
X4541491Y-13754388D01*
X4541491Y-13754388D02*
X4531968Y-13773436D01*
X4531968Y-13773436D02*
X4522444Y-13782960D01*
X4522444Y-13782960D02*
X4503396Y-13792484D01*
X4503396Y-13792484D02*
X4484348Y-13792484D01*
X4484348Y-13792484D02*
X4465301Y-13782960D01*
X4465301Y-13782960D02*
X4455777Y-13773436D01*
X4455777Y-13773436D02*
X4446253Y-13754388D01*
X4446253Y-13754388D02*
X4436729Y-13716293D01*
X4436729Y-13716293D02*
X4436729Y-13668674D01*
X4436729Y-13668674D02*
X4446253Y-13630579D01*
X4446253Y-13630579D02*
X4455777Y-13611531D01*
X4455777Y-13611531D02*
X4465301Y-13602008D01*
X4465301Y-13602008D02*
X4484348Y-13592484D01*
X4617682Y-13592484D02*
X4741491Y-13592484D01*
X4741491Y-13592484D02*
X4674825Y-13668674D01*
X4674825Y-13668674D02*
X4703396Y-13668674D01*
X4703396Y-13668674D02*
X4722444Y-13678198D01*
X4722444Y-13678198D02*
X4731968Y-13687722D01*
X4731968Y-13687722D02*
X4741491Y-13706769D01*
X4741491Y-13706769D02*
X4741491Y-13754388D01*
X4741491Y-13754388D02*
X4731968Y-13773436D01*
X4731968Y-13773436D02*
X4722444Y-13782960D01*
X4722444Y-13782960D02*
X4703396Y-13792484D01*
X4703396Y-13792484D02*
X4646253Y-13792484D01*
X4646253Y-13792484D02*
X4627206Y-13782960D01*
X4627206Y-13782960D02*
X4617682Y-13773436D01*
X4931968Y-13792484D02*
X4817682Y-13792484D01*
X4874825Y-13792484D02*
X4874825Y-13592484D01*
X4874825Y-13592484D02*
X4855777Y-13621055D01*
X4855777Y-13621055D02*
X4836729Y-13640103D01*
X4836729Y-13640103D02*
X4817682Y-13649627D01*
X5112920Y-13592484D02*
X5017682Y-13592484D01*
X5017682Y-13592484D02*
X5008158Y-13687722D01*
X5008158Y-13687722D02*
X5017682Y-13678198D01*
X5017682Y-13678198D02*
X5036729Y-13668674D01*
X5036729Y-13668674D02*
X5084349Y-13668674D01*
X5084349Y-13668674D02*
X5103396Y-13678198D01*
X5103396Y-13678198D02*
X5112920Y-13687722D01*
X5112920Y-13687722D02*
X5122444Y-13706769D01*
X5122444Y-13706769D02*
X5122444Y-13754388D01*
X5122444Y-13754388D02*
X5112920Y-13773436D01*
X5112920Y-13773436D02*
X5103396Y-13782960D01*
X5103396Y-13782960D02*
X5084349Y-13792484D01*
X5084349Y-13792484D02*
X5036729Y-13792484D01*
X5036729Y-13792484D02*
X5017682Y-13782960D01*
X5017682Y-13782960D02*
X5008158Y-13773436D01*
X5198634Y-13592484D02*
X5198634Y-13630579D01*
X5274825Y-13592484D02*
X5274825Y-13630579D01*
X5570063Y-13868674D02*
X5560539Y-13859150D01*
X5560539Y-13859150D02*
X5541491Y-13830579D01*
X5541491Y-13830579D02*
X5531968Y-13811531D01*
X5531968Y-13811531D02*
X5522444Y-13782960D01*
X5522444Y-13782960D02*
X5512920Y-13735341D01*
X5512920Y-13735341D02*
X5512920Y-13697246D01*
X5512920Y-13697246D02*
X5522444Y-13649627D01*
X5522444Y-13649627D02*
X5531968Y-13621055D01*
X5531968Y-13621055D02*
X5541491Y-13602008D01*
X5541491Y-13602008D02*
X5560539Y-13573436D01*
X5560539Y-13573436D02*
X5570063Y-13563912D01*
X5684348Y-13592484D02*
X5703396Y-13592484D01*
X5703396Y-13592484D02*
X5722444Y-13602008D01*
X5722444Y-13602008D02*
X5731968Y-13611531D01*
X5731968Y-13611531D02*
X5741491Y-13630579D01*
X5741491Y-13630579D02*
X5751015Y-13668674D01*
X5751015Y-13668674D02*
X5751015Y-13716293D01*
X5751015Y-13716293D02*
X5741491Y-13754388D01*
X5741491Y-13754388D02*
X5731968Y-13773436D01*
X5731968Y-13773436D02*
X5722444Y-13782960D01*
X5722444Y-13782960D02*
X5703396Y-13792484D01*
X5703396Y-13792484D02*
X5684348Y-13792484D01*
X5684348Y-13792484D02*
X5665301Y-13782960D01*
X5665301Y-13782960D02*
X5655777Y-13773436D01*
X5655777Y-13773436D02*
X5646253Y-13754388D01*
X5646253Y-13754388D02*
X5636729Y-13716293D01*
X5636729Y-13716293D02*
X5636729Y-13668674D01*
X5636729Y-13668674D02*
X5646253Y-13630579D01*
X5646253Y-13630579D02*
X5655777Y-13611531D01*
X5655777Y-13611531D02*
X5665301Y-13602008D01*
X5665301Y-13602008D02*
X5684348Y-13592484D01*
X5989110Y-13792484D02*
X5989110Y-13592484D01*
X6074825Y-13792484D02*
X6074825Y-13687722D01*
X6074825Y-13687722D02*
X6065301Y-13668674D01*
X6065301Y-13668674D02*
X6046253Y-13659150D01*
X6046253Y-13659150D02*
X6017682Y-13659150D01*
X6017682Y-13659150D02*
X5998634Y-13668674D01*
X5998634Y-13668674D02*
X5989110Y-13678198D01*
X6198634Y-13792484D02*
X6179587Y-13782960D01*
X6179587Y-13782960D02*
X6170063Y-13773436D01*
X6170063Y-13773436D02*
X6160539Y-13754388D01*
X6160539Y-13754388D02*
X6160539Y-13697246D01*
X6160539Y-13697246D02*
X6170063Y-13678198D01*
X6170063Y-13678198D02*
X6179587Y-13668674D01*
X6179587Y-13668674D02*
X6198634Y-13659150D01*
X6198634Y-13659150D02*
X6227206Y-13659150D01*
X6227206Y-13659150D02*
X6246253Y-13668674D01*
X6246253Y-13668674D02*
X6255777Y-13678198D01*
X6255777Y-13678198D02*
X6265301Y-13697246D01*
X6265301Y-13697246D02*
X6265301Y-13754388D01*
X6265301Y-13754388D02*
X6255777Y-13773436D01*
X6255777Y-13773436D02*
X6246253Y-13782960D01*
X6246253Y-13782960D02*
X6227206Y-13792484D01*
X6227206Y-13792484D02*
X6198634Y-13792484D01*
X6379587Y-13792484D02*
X6360539Y-13782960D01*
X6360539Y-13782960D02*
X6351015Y-13763912D01*
X6351015Y-13763912D02*
X6351015Y-13592484D01*
X6531968Y-13782960D02*
X6512920Y-13792484D01*
X6512920Y-13792484D02*
X6474825Y-13792484D01*
X6474825Y-13792484D02*
X6455777Y-13782960D01*
X6455777Y-13782960D02*
X6446253Y-13763912D01*
X6446253Y-13763912D02*
X6446253Y-13687722D01*
X6446253Y-13687722D02*
X6455777Y-13668674D01*
X6455777Y-13668674D02*
X6474825Y-13659150D01*
X6474825Y-13659150D02*
X6512920Y-13659150D01*
X6512920Y-13659150D02*
X6531968Y-13668674D01*
X6531968Y-13668674D02*
X6541491Y-13687722D01*
X6541491Y-13687722D02*
X6541491Y-13706769D01*
X6541491Y-13706769D02*
X6446253Y-13725817D01*
X6617682Y-13782960D02*
X6636730Y-13792484D01*
X6636730Y-13792484D02*
X6674825Y-13792484D01*
X6674825Y-13792484D02*
X6693872Y-13782960D01*
X6693872Y-13782960D02*
X6703396Y-13763912D01*
X6703396Y-13763912D02*
X6703396Y-13754388D01*
X6703396Y-13754388D02*
X6693872Y-13735341D01*
X6693872Y-13735341D02*
X6674825Y-13725817D01*
X6674825Y-13725817D02*
X6646253Y-13725817D01*
X6646253Y-13725817D02*
X6627206Y-13716293D01*
X6627206Y-13716293D02*
X6617682Y-13697246D01*
X6617682Y-13697246D02*
X6617682Y-13687722D01*
X6617682Y-13687722D02*
X6627206Y-13668674D01*
X6627206Y-13668674D02*
X6646253Y-13659150D01*
X6646253Y-13659150D02*
X6674825Y-13659150D01*
X6674825Y-13659150D02*
X6693872Y-13668674D01*
X6941492Y-13716293D02*
X7093873Y-13716293D01*
X7017682Y-13792484D02*
X7017682Y-13640103D01*
X7322444Y-13592484D02*
X7446253Y-13592484D01*
X7446253Y-13592484D02*
X7379587Y-13668674D01*
X7379587Y-13668674D02*
X7408158Y-13668674D01*
X7408158Y-13668674D02*
X7427206Y-13678198D01*
X7427206Y-13678198D02*
X7436730Y-13687722D01*
X7436730Y-13687722D02*
X7446253Y-13706769D01*
X7446253Y-13706769D02*
X7446253Y-13754388D01*
X7446253Y-13754388D02*
X7436730Y-13773436D01*
X7436730Y-13773436D02*
X7427206Y-13782960D01*
X7427206Y-13782960D02*
X7408158Y-13792484D01*
X7408158Y-13792484D02*
X7351015Y-13792484D01*
X7351015Y-13792484D02*
X7331968Y-13782960D01*
X7331968Y-13782960D02*
X7322444Y-13773436D01*
X7674825Y-13782960D02*
X7693873Y-13792484D01*
X7693873Y-13792484D02*
X7731968Y-13792484D01*
X7731968Y-13792484D02*
X7751015Y-13782960D01*
X7751015Y-13782960D02*
X7760539Y-13763912D01*
X7760539Y-13763912D02*
X7760539Y-13754388D01*
X7760539Y-13754388D02*
X7751015Y-13735341D01*
X7751015Y-13735341D02*
X7731968Y-13725817D01*
X7731968Y-13725817D02*
X7703396Y-13725817D01*
X7703396Y-13725817D02*
X7684349Y-13716293D01*
X7684349Y-13716293D02*
X7674825Y-13697246D01*
X7674825Y-13697246D02*
X7674825Y-13687722D01*
X7674825Y-13687722D02*
X7684349Y-13668674D01*
X7684349Y-13668674D02*
X7703396Y-13659150D01*
X7703396Y-13659150D02*
X7731968Y-13659150D01*
X7731968Y-13659150D02*
X7751015Y-13668674D01*
X7874825Y-13792484D02*
X7855777Y-13782960D01*
X7855777Y-13782960D02*
X7846254Y-13763912D01*
X7846254Y-13763912D02*
X7846254Y-13592484D01*
X7979587Y-13792484D02*
X7960539Y-13782960D01*
X7960539Y-13782960D02*
X7951015Y-13773436D01*
X7951015Y-13773436D02*
X7941492Y-13754388D01*
X7941492Y-13754388D02*
X7941492Y-13697246D01*
X7941492Y-13697246D02*
X7951015Y-13678198D01*
X7951015Y-13678198D02*
X7960539Y-13668674D01*
X7960539Y-13668674D02*
X7979587Y-13659150D01*
X7979587Y-13659150D02*
X8008158Y-13659150D01*
X8008158Y-13659150D02*
X8027206Y-13668674D01*
X8027206Y-13668674D02*
X8036730Y-13678198D01*
X8036730Y-13678198D02*
X8046254Y-13697246D01*
X8046254Y-13697246D02*
X8046254Y-13754388D01*
X8046254Y-13754388D02*
X8036730Y-13773436D01*
X8036730Y-13773436D02*
X8027206Y-13782960D01*
X8027206Y-13782960D02*
X8008158Y-13792484D01*
X8008158Y-13792484D02*
X7979587Y-13792484D01*
X8103396Y-13659150D02*
X8179587Y-13659150D01*
X8131968Y-13592484D02*
X8131968Y-13763912D01*
X8131968Y-13763912D02*
X8141492Y-13782960D01*
X8141492Y-13782960D02*
X8160539Y-13792484D01*
X8160539Y-13792484D02*
X8179587Y-13792484D01*
X8236730Y-13782960D02*
X8255777Y-13792484D01*
X8255777Y-13792484D02*
X8293873Y-13792484D01*
X8293873Y-13792484D02*
X8312920Y-13782960D01*
X8312920Y-13782960D02*
X8322444Y-13763912D01*
X8322444Y-13763912D02*
X8322444Y-13754388D01*
X8322444Y-13754388D02*
X8312920Y-13735341D01*
X8312920Y-13735341D02*
X8293873Y-13725817D01*
X8293873Y-13725817D02*
X8265301Y-13725817D01*
X8265301Y-13725817D02*
X8246254Y-13716293D01*
X8246254Y-13716293D02*
X8236730Y-13697246D01*
X8236730Y-13697246D02*
X8236730Y-13687722D01*
X8236730Y-13687722D02*
X8246254Y-13668674D01*
X8246254Y-13668674D02*
X8265301Y-13659150D01*
X8265301Y-13659150D02*
X8293873Y-13659150D01*
X8293873Y-13659150D02*
X8312920Y-13668674D01*
X8389111Y-13868674D02*
X8398635Y-13859150D01*
X8398635Y-13859150D02*
X8417682Y-13830579D01*
X8417682Y-13830579D02*
X8427206Y-13811531D01*
X8427206Y-13811531D02*
X8436730Y-13782960D01*
X8436730Y-13782960D02*
X8446254Y-13735341D01*
X8446254Y-13735341D02*
X8446254Y-13697246D01*
X8446254Y-13697246D02*
X8436730Y-13649627D01*
X8436730Y-13649627D02*
X8427206Y-13621055D01*
X8427206Y-13621055D02*
X8417682Y-13602008D01*
X8417682Y-13602008D02*
X8398635Y-13573436D01*
X8398635Y-13573436D02*
X8389111Y-13563912D01*
D10*
X1905000Y-13920000D02*
X1995000Y-14010000D01*
X1995000Y-13920000D02*
X1905000Y-14010000D01*
X1995000Y-13965000D02*
G75*
G02*
X1905000Y-13965000I-45000J0D01*
G01*
X1905000Y-13965000D02*
G75*
G02*
X1995000Y-13965000I45000J0D01*
G01*
D11*
X2293872Y-13856484D02*
X2312920Y-13856484D01*
X2312920Y-13856484D02*
X2331967Y-13866008D01*
X2331967Y-13866008D02*
X2341491Y-13875531D01*
X2341491Y-13875531D02*
X2351015Y-13894579D01*
X2351015Y-13894579D02*
X2360539Y-13932674D01*
X2360539Y-13932674D02*
X2360539Y-13980293D01*
X2360539Y-13980293D02*
X2351015Y-14018388D01*
X2351015Y-14018388D02*
X2341491Y-14037436D01*
X2341491Y-14037436D02*
X2331967Y-14046960D01*
X2331967Y-14046960D02*
X2312920Y-14056484D01*
X2312920Y-14056484D02*
X2293872Y-14056484D01*
X2293872Y-14056484D02*
X2274824Y-14046960D01*
X2274824Y-14046960D02*
X2265301Y-14037436D01*
X2265301Y-14037436D02*
X2255777Y-14018388D01*
X2255777Y-14018388D02*
X2246253Y-13980293D01*
X2246253Y-13980293D02*
X2246253Y-13932674D01*
X2246253Y-13932674D02*
X2255777Y-13894579D01*
X2255777Y-13894579D02*
X2265301Y-13875531D01*
X2265301Y-13875531D02*
X2274824Y-13866008D01*
X2274824Y-13866008D02*
X2293872Y-13856484D01*
X2446253Y-14037436D02*
X2455777Y-14046960D01*
X2455777Y-14046960D02*
X2446253Y-14056484D01*
X2446253Y-14056484D02*
X2436729Y-14046960D01*
X2436729Y-14046960D02*
X2446253Y-14037436D01*
X2446253Y-14037436D02*
X2446253Y-14056484D01*
X2551015Y-14056484D02*
X2589110Y-14056484D01*
X2589110Y-14056484D02*
X2608158Y-14046960D01*
X2608158Y-14046960D02*
X2617682Y-14037436D01*
X2617682Y-14037436D02*
X2636729Y-14008865D01*
X2636729Y-14008865D02*
X2646253Y-13970769D01*
X2646253Y-13970769D02*
X2646253Y-13894579D01*
X2646253Y-13894579D02*
X2636729Y-13875531D01*
X2636729Y-13875531D02*
X2627205Y-13866008D01*
X2627205Y-13866008D02*
X2608158Y-13856484D01*
X2608158Y-13856484D02*
X2570063Y-13856484D01*
X2570063Y-13856484D02*
X2551015Y-13866008D01*
X2551015Y-13866008D02*
X2541491Y-13875531D01*
X2541491Y-13875531D02*
X2531967Y-13894579D01*
X2531967Y-13894579D02*
X2531967Y-13942198D01*
X2531967Y-13942198D02*
X2541491Y-13961246D01*
X2541491Y-13961246D02*
X2551015Y-13970769D01*
X2551015Y-13970769D02*
X2570063Y-13980293D01*
X2570063Y-13980293D02*
X2608158Y-13980293D01*
X2608158Y-13980293D02*
X2627205Y-13970769D01*
X2627205Y-13970769D02*
X2636729Y-13961246D01*
X2636729Y-13961246D02*
X2646253Y-13942198D01*
X2770063Y-13856484D02*
X2789110Y-13856484D01*
X2789110Y-13856484D02*
X2808158Y-13866008D01*
X2808158Y-13866008D02*
X2817682Y-13875531D01*
X2817682Y-13875531D02*
X2827205Y-13894579D01*
X2827205Y-13894579D02*
X2836729Y-13932674D01*
X2836729Y-13932674D02*
X2836729Y-13980293D01*
X2836729Y-13980293D02*
X2827205Y-14018388D01*
X2827205Y-14018388D02*
X2817682Y-14037436D01*
X2817682Y-14037436D02*
X2808158Y-14046960D01*
X2808158Y-14046960D02*
X2789110Y-14056484D01*
X2789110Y-14056484D02*
X2770063Y-14056484D01*
X2770063Y-14056484D02*
X2751015Y-14046960D01*
X2751015Y-14046960D02*
X2741491Y-14037436D01*
X2741491Y-14037436D02*
X2731967Y-14018388D01*
X2731967Y-14018388D02*
X2722444Y-13980293D01*
X2722444Y-13980293D02*
X2722444Y-13932674D01*
X2722444Y-13932674D02*
X2731967Y-13894579D01*
X2731967Y-13894579D02*
X2741491Y-13875531D01*
X2741491Y-13875531D02*
X2751015Y-13866008D01*
X2751015Y-13866008D02*
X2770063Y-13856484D01*
X2960539Y-13856484D02*
X2979586Y-13856484D01*
X2979586Y-13856484D02*
X2998634Y-13866008D01*
X2998634Y-13866008D02*
X3008158Y-13875531D01*
X3008158Y-13875531D02*
X3017682Y-13894579D01*
X3017682Y-13894579D02*
X3027205Y-13932674D01*
X3027205Y-13932674D02*
X3027205Y-13980293D01*
X3027205Y-13980293D02*
X3017682Y-14018388D01*
X3017682Y-14018388D02*
X3008158Y-14037436D01*
X3008158Y-14037436D02*
X2998634Y-14046960D01*
X2998634Y-14046960D02*
X2979586Y-14056484D01*
X2979586Y-14056484D02*
X2960539Y-14056484D01*
X2960539Y-14056484D02*
X2941491Y-14046960D01*
X2941491Y-14046960D02*
X2931967Y-14037436D01*
X2931967Y-14037436D02*
X2922443Y-14018388D01*
X2922443Y-14018388D02*
X2912920Y-13980293D01*
X2912920Y-13980293D02*
X2912920Y-13932674D01*
X2912920Y-13932674D02*
X2922443Y-13894579D01*
X2922443Y-13894579D02*
X2931967Y-13875531D01*
X2931967Y-13875531D02*
X2941491Y-13866008D01*
X2941491Y-13866008D02*
X2960539Y-13856484D01*
X3112920Y-14056484D02*
X3112920Y-13923150D01*
X3112920Y-13942198D02*
X3122443Y-13932674D01*
X3122443Y-13932674D02*
X3141491Y-13923150D01*
X3141491Y-13923150D02*
X3170063Y-13923150D01*
X3170063Y-13923150D02*
X3189110Y-13932674D01*
X3189110Y-13932674D02*
X3198634Y-13951722D01*
X3198634Y-13951722D02*
X3198634Y-14056484D01*
X3198634Y-13951722D02*
X3208158Y-13932674D01*
X3208158Y-13932674D02*
X3227205Y-13923150D01*
X3227205Y-13923150D02*
X3255777Y-13923150D01*
X3255777Y-13923150D02*
X3274824Y-13932674D01*
X3274824Y-13932674D02*
X3284348Y-13951722D01*
X3284348Y-13951722D02*
X3284348Y-14056484D01*
X3379586Y-14056484D02*
X3379586Y-13923150D01*
X3379586Y-13942198D02*
X3389110Y-13932674D01*
X3389110Y-13932674D02*
X3408158Y-13923150D01*
X3408158Y-13923150D02*
X3436729Y-13923150D01*
X3436729Y-13923150D02*
X3455777Y-13932674D01*
X3455777Y-13932674D02*
X3465301Y-13951722D01*
X3465301Y-13951722D02*
X3465301Y-14056484D01*
X3465301Y-13951722D02*
X3474824Y-13932674D01*
X3474824Y-13932674D02*
X3493872Y-13923150D01*
X3493872Y-13923150D02*
X3522443Y-13923150D01*
X3522443Y-13923150D02*
X3541491Y-13932674D01*
X3541491Y-13932674D02*
X3551015Y-13951722D01*
X3551015Y-13951722D02*
X3551015Y-14056484D01*
X3941491Y-13846960D02*
X3770063Y-14104103D01*
X4198634Y-13856484D02*
X4217682Y-13856484D01*
X4217682Y-13856484D02*
X4236729Y-13866008D01*
X4236729Y-13866008D02*
X4246253Y-13875531D01*
X4246253Y-13875531D02*
X4255777Y-13894579D01*
X4255777Y-13894579D02*
X4265301Y-13932674D01*
X4265301Y-13932674D02*
X4265301Y-13980293D01*
X4265301Y-13980293D02*
X4255777Y-14018388D01*
X4255777Y-14018388D02*
X4246253Y-14037436D01*
X4246253Y-14037436D02*
X4236729Y-14046960D01*
X4236729Y-14046960D02*
X4217682Y-14056484D01*
X4217682Y-14056484D02*
X4198634Y-14056484D01*
X4198634Y-14056484D02*
X4179586Y-14046960D01*
X4179586Y-14046960D02*
X4170063Y-14037436D01*
X4170063Y-14037436D02*
X4160539Y-14018388D01*
X4160539Y-14018388D02*
X4151015Y-13980293D01*
X4151015Y-13980293D02*
X4151015Y-13932674D01*
X4151015Y-13932674D02*
X4160539Y-13894579D01*
X4160539Y-13894579D02*
X4170063Y-13875531D01*
X4170063Y-13875531D02*
X4179586Y-13866008D01*
X4179586Y-13866008D02*
X4198634Y-13856484D01*
X4351015Y-14037436D02*
X4360539Y-14046960D01*
X4360539Y-14046960D02*
X4351015Y-14056484D01*
X4351015Y-14056484D02*
X4341491Y-14046960D01*
X4341491Y-14046960D02*
X4351015Y-14037436D01*
X4351015Y-14037436D02*
X4351015Y-14056484D01*
X4484348Y-13856484D02*
X4503396Y-13856484D01*
X4503396Y-13856484D02*
X4522444Y-13866008D01*
X4522444Y-13866008D02*
X4531968Y-13875531D01*
X4531968Y-13875531D02*
X4541491Y-13894579D01*
X4541491Y-13894579D02*
X4551015Y-13932674D01*
X4551015Y-13932674D02*
X4551015Y-13980293D01*
X4551015Y-13980293D02*
X4541491Y-14018388D01*
X4541491Y-14018388D02*
X4531968Y-14037436D01*
X4531968Y-14037436D02*
X4522444Y-14046960D01*
X4522444Y-14046960D02*
X4503396Y-14056484D01*
X4503396Y-14056484D02*
X4484348Y-14056484D01*
X4484348Y-14056484D02*
X4465301Y-14046960D01*
X4465301Y-14046960D02*
X4455777Y-14037436D01*
X4455777Y-14037436D02*
X4446253Y-14018388D01*
X4446253Y-14018388D02*
X4436729Y-13980293D01*
X4436729Y-13980293D02*
X4436729Y-13932674D01*
X4436729Y-13932674D02*
X4446253Y-13894579D01*
X4446253Y-13894579D02*
X4455777Y-13875531D01*
X4455777Y-13875531D02*
X4465301Y-13866008D01*
X4465301Y-13866008D02*
X4484348Y-13856484D01*
X4617682Y-13856484D02*
X4741491Y-13856484D01*
X4741491Y-13856484D02*
X4674825Y-13932674D01*
X4674825Y-13932674D02*
X4703396Y-13932674D01*
X4703396Y-13932674D02*
X4722444Y-13942198D01*
X4722444Y-13942198D02*
X4731968Y-13951722D01*
X4731968Y-13951722D02*
X4741491Y-13970769D01*
X4741491Y-13970769D02*
X4741491Y-14018388D01*
X4741491Y-14018388D02*
X4731968Y-14037436D01*
X4731968Y-14037436D02*
X4722444Y-14046960D01*
X4722444Y-14046960D02*
X4703396Y-14056484D01*
X4703396Y-14056484D02*
X4646253Y-14056484D01*
X4646253Y-14056484D02*
X4627206Y-14046960D01*
X4627206Y-14046960D02*
X4617682Y-14037436D01*
X4922444Y-13856484D02*
X4827206Y-13856484D01*
X4827206Y-13856484D02*
X4817682Y-13951722D01*
X4817682Y-13951722D02*
X4827206Y-13942198D01*
X4827206Y-13942198D02*
X4846253Y-13932674D01*
X4846253Y-13932674D02*
X4893872Y-13932674D01*
X4893872Y-13932674D02*
X4912920Y-13942198D01*
X4912920Y-13942198D02*
X4922444Y-13951722D01*
X4922444Y-13951722D02*
X4931968Y-13970769D01*
X4931968Y-13970769D02*
X4931968Y-14018388D01*
X4931968Y-14018388D02*
X4922444Y-14037436D01*
X4922444Y-14037436D02*
X4912920Y-14046960D01*
X4912920Y-14046960D02*
X4893872Y-14056484D01*
X4893872Y-14056484D02*
X4846253Y-14056484D01*
X4846253Y-14056484D02*
X4827206Y-14046960D01*
X4827206Y-14046960D02*
X4817682Y-14037436D01*
X5103396Y-13923150D02*
X5103396Y-14056484D01*
X5055777Y-13846960D02*
X5008158Y-13989817D01*
X5008158Y-13989817D02*
X5131968Y-13989817D01*
X5198634Y-13856484D02*
X5198634Y-13894579D01*
X5274825Y-13856484D02*
X5274825Y-13894579D01*
X5570063Y-14132674D02*
X5560539Y-14123150D01*
X5560539Y-14123150D02*
X5541491Y-14094579D01*
X5541491Y-14094579D02*
X5531968Y-14075531D01*
X5531968Y-14075531D02*
X5522444Y-14046960D01*
X5522444Y-14046960D02*
X5512920Y-13999341D01*
X5512920Y-13999341D02*
X5512920Y-13961246D01*
X5512920Y-13961246D02*
X5522444Y-13913627D01*
X5522444Y-13913627D02*
X5531968Y-13885055D01*
X5531968Y-13885055D02*
X5541491Y-13866008D01*
X5541491Y-13866008D02*
X5560539Y-13837436D01*
X5560539Y-13837436D02*
X5570063Y-13827912D01*
X5751015Y-14056484D02*
X5636729Y-14056484D01*
X5693872Y-14056484D02*
X5693872Y-13856484D01*
X5693872Y-13856484D02*
X5674825Y-13885055D01*
X5674825Y-13885055D02*
X5655777Y-13904103D01*
X5655777Y-13904103D02*
X5636729Y-13913627D01*
X5922444Y-13856484D02*
X5884348Y-13856484D01*
X5884348Y-13856484D02*
X5865301Y-13866008D01*
X5865301Y-13866008D02*
X5855777Y-13875531D01*
X5855777Y-13875531D02*
X5836729Y-13904103D01*
X5836729Y-13904103D02*
X5827206Y-13942198D01*
X5827206Y-13942198D02*
X5827206Y-14018388D01*
X5827206Y-14018388D02*
X5836729Y-14037436D01*
X5836729Y-14037436D02*
X5846253Y-14046960D01*
X5846253Y-14046960D02*
X5865301Y-14056484D01*
X5865301Y-14056484D02*
X5903396Y-14056484D01*
X5903396Y-14056484D02*
X5922444Y-14046960D01*
X5922444Y-14046960D02*
X5931968Y-14037436D01*
X5931968Y-14037436D02*
X5941491Y-14018388D01*
X5941491Y-14018388D02*
X5941491Y-13970769D01*
X5941491Y-13970769D02*
X5931968Y-13951722D01*
X5931968Y-13951722D02*
X5922444Y-13942198D01*
X5922444Y-13942198D02*
X5903396Y-13932674D01*
X5903396Y-13932674D02*
X5865301Y-13932674D01*
X5865301Y-13932674D02*
X5846253Y-13942198D01*
X5846253Y-13942198D02*
X5836729Y-13951722D01*
X5836729Y-13951722D02*
X5827206Y-13970769D01*
X6179587Y-14056484D02*
X6179587Y-13856484D01*
X6265301Y-14056484D02*
X6265301Y-13951722D01*
X6265301Y-13951722D02*
X6255777Y-13932674D01*
X6255777Y-13932674D02*
X6236730Y-13923150D01*
X6236730Y-13923150D02*
X6208158Y-13923150D01*
X6208158Y-13923150D02*
X6189110Y-13932674D01*
X6189110Y-13932674D02*
X6179587Y-13942198D01*
X6389110Y-14056484D02*
X6370063Y-14046960D01*
X6370063Y-14046960D02*
X6360539Y-14037436D01*
X6360539Y-14037436D02*
X6351015Y-14018388D01*
X6351015Y-14018388D02*
X6351015Y-13961246D01*
X6351015Y-13961246D02*
X6360539Y-13942198D01*
X6360539Y-13942198D02*
X6370063Y-13932674D01*
X6370063Y-13932674D02*
X6389110Y-13923150D01*
X6389110Y-13923150D02*
X6417682Y-13923150D01*
X6417682Y-13923150D02*
X6436730Y-13932674D01*
X6436730Y-13932674D02*
X6446253Y-13942198D01*
X6446253Y-13942198D02*
X6455777Y-13961246D01*
X6455777Y-13961246D02*
X6455777Y-14018388D01*
X6455777Y-14018388D02*
X6446253Y-14037436D01*
X6446253Y-14037436D02*
X6436730Y-14046960D01*
X6436730Y-14046960D02*
X6417682Y-14056484D01*
X6417682Y-14056484D02*
X6389110Y-14056484D01*
X6570063Y-14056484D02*
X6551015Y-14046960D01*
X6551015Y-14046960D02*
X6541491Y-14027912D01*
X6541491Y-14027912D02*
X6541491Y-13856484D01*
X6722444Y-14046960D02*
X6703396Y-14056484D01*
X6703396Y-14056484D02*
X6665301Y-14056484D01*
X6665301Y-14056484D02*
X6646253Y-14046960D01*
X6646253Y-14046960D02*
X6636730Y-14027912D01*
X6636730Y-14027912D02*
X6636730Y-13951722D01*
X6636730Y-13951722D02*
X6646253Y-13932674D01*
X6646253Y-13932674D02*
X6665301Y-13923150D01*
X6665301Y-13923150D02*
X6703396Y-13923150D01*
X6703396Y-13923150D02*
X6722444Y-13932674D01*
X6722444Y-13932674D02*
X6731968Y-13951722D01*
X6731968Y-13951722D02*
X6731968Y-13970769D01*
X6731968Y-13970769D02*
X6636730Y-13989817D01*
X6808158Y-14046960D02*
X6827206Y-14056484D01*
X6827206Y-14056484D02*
X6865301Y-14056484D01*
X6865301Y-14056484D02*
X6884349Y-14046960D01*
X6884349Y-14046960D02*
X6893872Y-14027912D01*
X6893872Y-14027912D02*
X6893872Y-14018388D01*
X6893872Y-14018388D02*
X6884349Y-13999341D01*
X6884349Y-13999341D02*
X6865301Y-13989817D01*
X6865301Y-13989817D02*
X6836730Y-13989817D01*
X6836730Y-13989817D02*
X6817682Y-13980293D01*
X6817682Y-13980293D02*
X6808158Y-13961246D01*
X6808158Y-13961246D02*
X6808158Y-13951722D01*
X6808158Y-13951722D02*
X6817682Y-13932674D01*
X6817682Y-13932674D02*
X6836730Y-13923150D01*
X6836730Y-13923150D02*
X6865301Y-13923150D01*
X6865301Y-13923150D02*
X6884349Y-13932674D01*
X6960539Y-14132674D02*
X6970063Y-14123150D01*
X6970063Y-14123150D02*
X6989111Y-14094579D01*
X6989111Y-14094579D02*
X6998634Y-14075531D01*
X6998634Y-14075531D02*
X7008158Y-14046960D01*
X7008158Y-14046960D02*
X7017682Y-13999341D01*
X7017682Y-13999341D02*
X7017682Y-13961246D01*
X7017682Y-13961246D02*
X7008158Y-13913627D01*
X7008158Y-13913627D02*
X6998634Y-13885055D01*
X6998634Y-13885055D02*
X6989111Y-13866008D01*
X6989111Y-13866008D02*
X6970063Y-13837436D01*
X6970063Y-13837436D02*
X6960539Y-13827912D01*
D10*
X1895000Y-14179000D02*
X1995000Y-14279000D01*
X1995000Y-14179000D02*
X1895000Y-14279000D01*
X1945000Y-14179000D02*
X1945000Y-14279000D01*
X1895000Y-14229000D02*
X1995000Y-14229000D01*
D11*
X2360539Y-14320484D02*
X2246253Y-14320484D01*
X2303396Y-14320484D02*
X2303396Y-14120484D01*
X2303396Y-14120484D02*
X2284348Y-14149055D01*
X2284348Y-14149055D02*
X2265301Y-14168103D01*
X2265301Y-14168103D02*
X2246253Y-14177627D01*
X2446253Y-14301436D02*
X2455777Y-14310960D01*
X2455777Y-14310960D02*
X2446253Y-14320484D01*
X2446253Y-14320484D02*
X2436729Y-14310960D01*
X2436729Y-14310960D02*
X2446253Y-14301436D01*
X2446253Y-14301436D02*
X2446253Y-14320484D01*
X2579586Y-14120484D02*
X2598634Y-14120484D01*
X2598634Y-14120484D02*
X2617682Y-14130008D01*
X2617682Y-14130008D02*
X2627205Y-14139531D01*
X2627205Y-14139531D02*
X2636729Y-14158579D01*
X2636729Y-14158579D02*
X2646253Y-14196674D01*
X2646253Y-14196674D02*
X2646253Y-14244293D01*
X2646253Y-14244293D02*
X2636729Y-14282388D01*
X2636729Y-14282388D02*
X2627205Y-14301436D01*
X2627205Y-14301436D02*
X2617682Y-14310960D01*
X2617682Y-14310960D02*
X2598634Y-14320484D01*
X2598634Y-14320484D02*
X2579586Y-14320484D01*
X2579586Y-14320484D02*
X2560539Y-14310960D01*
X2560539Y-14310960D02*
X2551015Y-14301436D01*
X2551015Y-14301436D02*
X2541491Y-14282388D01*
X2541491Y-14282388D02*
X2531967Y-14244293D01*
X2531967Y-14244293D02*
X2531967Y-14196674D01*
X2531967Y-14196674D02*
X2541491Y-14158579D01*
X2541491Y-14158579D02*
X2551015Y-14139531D01*
X2551015Y-14139531D02*
X2560539Y-14130008D01*
X2560539Y-14130008D02*
X2579586Y-14120484D01*
X2770063Y-14120484D02*
X2789110Y-14120484D01*
X2789110Y-14120484D02*
X2808158Y-14130008D01*
X2808158Y-14130008D02*
X2817682Y-14139531D01*
X2817682Y-14139531D02*
X2827205Y-14158579D01*
X2827205Y-14158579D02*
X2836729Y-14196674D01*
X2836729Y-14196674D02*
X2836729Y-14244293D01*
X2836729Y-14244293D02*
X2827205Y-14282388D01*
X2827205Y-14282388D02*
X2817682Y-14301436D01*
X2817682Y-14301436D02*
X2808158Y-14310960D01*
X2808158Y-14310960D02*
X2789110Y-14320484D01*
X2789110Y-14320484D02*
X2770063Y-14320484D01*
X2770063Y-14320484D02*
X2751015Y-14310960D01*
X2751015Y-14310960D02*
X2741491Y-14301436D01*
X2741491Y-14301436D02*
X2731967Y-14282388D01*
X2731967Y-14282388D02*
X2722444Y-14244293D01*
X2722444Y-14244293D02*
X2722444Y-14196674D01*
X2722444Y-14196674D02*
X2731967Y-14158579D01*
X2731967Y-14158579D02*
X2741491Y-14139531D01*
X2741491Y-14139531D02*
X2751015Y-14130008D01*
X2751015Y-14130008D02*
X2770063Y-14120484D01*
X2960539Y-14120484D02*
X2979586Y-14120484D01*
X2979586Y-14120484D02*
X2998634Y-14130008D01*
X2998634Y-14130008D02*
X3008158Y-14139531D01*
X3008158Y-14139531D02*
X3017682Y-14158579D01*
X3017682Y-14158579D02*
X3027205Y-14196674D01*
X3027205Y-14196674D02*
X3027205Y-14244293D01*
X3027205Y-14244293D02*
X3017682Y-14282388D01*
X3017682Y-14282388D02*
X3008158Y-14301436D01*
X3008158Y-14301436D02*
X2998634Y-14310960D01*
X2998634Y-14310960D02*
X2979586Y-14320484D01*
X2979586Y-14320484D02*
X2960539Y-14320484D01*
X2960539Y-14320484D02*
X2941491Y-14310960D01*
X2941491Y-14310960D02*
X2931967Y-14301436D01*
X2931967Y-14301436D02*
X2922443Y-14282388D01*
X2922443Y-14282388D02*
X2912920Y-14244293D01*
X2912920Y-14244293D02*
X2912920Y-14196674D01*
X2912920Y-14196674D02*
X2922443Y-14158579D01*
X2922443Y-14158579D02*
X2931967Y-14139531D01*
X2931967Y-14139531D02*
X2941491Y-14130008D01*
X2941491Y-14130008D02*
X2960539Y-14120484D01*
X3112920Y-14320484D02*
X3112920Y-14187150D01*
X3112920Y-14206198D02*
X3122443Y-14196674D01*
X3122443Y-14196674D02*
X3141491Y-14187150D01*
X3141491Y-14187150D02*
X3170063Y-14187150D01*
X3170063Y-14187150D02*
X3189110Y-14196674D01*
X3189110Y-14196674D02*
X3198634Y-14215722D01*
X3198634Y-14215722D02*
X3198634Y-14320484D01*
X3198634Y-14215722D02*
X3208158Y-14196674D01*
X3208158Y-14196674D02*
X3227205Y-14187150D01*
X3227205Y-14187150D02*
X3255777Y-14187150D01*
X3255777Y-14187150D02*
X3274824Y-14196674D01*
X3274824Y-14196674D02*
X3284348Y-14215722D01*
X3284348Y-14215722D02*
X3284348Y-14320484D01*
X3379586Y-14320484D02*
X3379586Y-14187150D01*
X3379586Y-14206198D02*
X3389110Y-14196674D01*
X3389110Y-14196674D02*
X3408158Y-14187150D01*
X3408158Y-14187150D02*
X3436729Y-14187150D01*
X3436729Y-14187150D02*
X3455777Y-14196674D01*
X3455777Y-14196674D02*
X3465301Y-14215722D01*
X3465301Y-14215722D02*
X3465301Y-14320484D01*
X3465301Y-14215722D02*
X3474824Y-14196674D01*
X3474824Y-14196674D02*
X3493872Y-14187150D01*
X3493872Y-14187150D02*
X3522443Y-14187150D01*
X3522443Y-14187150D02*
X3541491Y-14196674D01*
X3541491Y-14196674D02*
X3551015Y-14215722D01*
X3551015Y-14215722D02*
X3551015Y-14320484D01*
X3941491Y-14110960D02*
X3770063Y-14368103D01*
X4198634Y-14120484D02*
X4217682Y-14120484D01*
X4217682Y-14120484D02*
X4236729Y-14130008D01*
X4236729Y-14130008D02*
X4246253Y-14139531D01*
X4246253Y-14139531D02*
X4255777Y-14158579D01*
X4255777Y-14158579D02*
X4265301Y-14196674D01*
X4265301Y-14196674D02*
X4265301Y-14244293D01*
X4265301Y-14244293D02*
X4255777Y-14282388D01*
X4255777Y-14282388D02*
X4246253Y-14301436D01*
X4246253Y-14301436D02*
X4236729Y-14310960D01*
X4236729Y-14310960D02*
X4217682Y-14320484D01*
X4217682Y-14320484D02*
X4198634Y-14320484D01*
X4198634Y-14320484D02*
X4179586Y-14310960D01*
X4179586Y-14310960D02*
X4170063Y-14301436D01*
X4170063Y-14301436D02*
X4160539Y-14282388D01*
X4160539Y-14282388D02*
X4151015Y-14244293D01*
X4151015Y-14244293D02*
X4151015Y-14196674D01*
X4151015Y-14196674D02*
X4160539Y-14158579D01*
X4160539Y-14158579D02*
X4170063Y-14139531D01*
X4170063Y-14139531D02*
X4179586Y-14130008D01*
X4179586Y-14130008D02*
X4198634Y-14120484D01*
X4351015Y-14301436D02*
X4360539Y-14310960D01*
X4360539Y-14310960D02*
X4351015Y-14320484D01*
X4351015Y-14320484D02*
X4341491Y-14310960D01*
X4341491Y-14310960D02*
X4351015Y-14301436D01*
X4351015Y-14301436D02*
X4351015Y-14320484D01*
X4484348Y-14120484D02*
X4503396Y-14120484D01*
X4503396Y-14120484D02*
X4522444Y-14130008D01*
X4522444Y-14130008D02*
X4531968Y-14139531D01*
X4531968Y-14139531D02*
X4541491Y-14158579D01*
X4541491Y-14158579D02*
X4551015Y-14196674D01*
X4551015Y-14196674D02*
X4551015Y-14244293D01*
X4551015Y-14244293D02*
X4541491Y-14282388D01*
X4541491Y-14282388D02*
X4531968Y-14301436D01*
X4531968Y-14301436D02*
X4522444Y-14310960D01*
X4522444Y-14310960D02*
X4503396Y-14320484D01*
X4503396Y-14320484D02*
X4484348Y-14320484D01*
X4484348Y-14320484D02*
X4465301Y-14310960D01*
X4465301Y-14310960D02*
X4455777Y-14301436D01*
X4455777Y-14301436D02*
X4446253Y-14282388D01*
X4446253Y-14282388D02*
X4436729Y-14244293D01*
X4436729Y-14244293D02*
X4436729Y-14196674D01*
X4436729Y-14196674D02*
X4446253Y-14158579D01*
X4446253Y-14158579D02*
X4455777Y-14139531D01*
X4455777Y-14139531D02*
X4465301Y-14130008D01*
X4465301Y-14130008D02*
X4484348Y-14120484D01*
X4617682Y-14120484D02*
X4741491Y-14120484D01*
X4741491Y-14120484D02*
X4674825Y-14196674D01*
X4674825Y-14196674D02*
X4703396Y-14196674D01*
X4703396Y-14196674D02*
X4722444Y-14206198D01*
X4722444Y-14206198D02*
X4731968Y-14215722D01*
X4731968Y-14215722D02*
X4741491Y-14234769D01*
X4741491Y-14234769D02*
X4741491Y-14282388D01*
X4741491Y-14282388D02*
X4731968Y-14301436D01*
X4731968Y-14301436D02*
X4722444Y-14310960D01*
X4722444Y-14310960D02*
X4703396Y-14320484D01*
X4703396Y-14320484D02*
X4646253Y-14320484D01*
X4646253Y-14320484D02*
X4627206Y-14310960D01*
X4627206Y-14310960D02*
X4617682Y-14301436D01*
X4836729Y-14320484D02*
X4874825Y-14320484D01*
X4874825Y-14320484D02*
X4893872Y-14310960D01*
X4893872Y-14310960D02*
X4903396Y-14301436D01*
X4903396Y-14301436D02*
X4922444Y-14272865D01*
X4922444Y-14272865D02*
X4931968Y-14234769D01*
X4931968Y-14234769D02*
X4931968Y-14158579D01*
X4931968Y-14158579D02*
X4922444Y-14139531D01*
X4922444Y-14139531D02*
X4912920Y-14130008D01*
X4912920Y-14130008D02*
X4893872Y-14120484D01*
X4893872Y-14120484D02*
X4855777Y-14120484D01*
X4855777Y-14120484D02*
X4836729Y-14130008D01*
X4836729Y-14130008D02*
X4827206Y-14139531D01*
X4827206Y-14139531D02*
X4817682Y-14158579D01*
X4817682Y-14158579D02*
X4817682Y-14206198D01*
X4817682Y-14206198D02*
X4827206Y-14225246D01*
X4827206Y-14225246D02*
X4836729Y-14234769D01*
X4836729Y-14234769D02*
X4855777Y-14244293D01*
X4855777Y-14244293D02*
X4893872Y-14244293D01*
X4893872Y-14244293D02*
X4912920Y-14234769D01*
X4912920Y-14234769D02*
X4922444Y-14225246D01*
X4922444Y-14225246D02*
X4931968Y-14206198D01*
X5103396Y-14187150D02*
X5103396Y-14320484D01*
X5055777Y-14110960D02*
X5008158Y-14253817D01*
X5008158Y-14253817D02*
X5131968Y-14253817D01*
X5198634Y-14120484D02*
X5198634Y-14158579D01*
X5274825Y-14120484D02*
X5274825Y-14158579D01*
X5570063Y-14396674D02*
X5560539Y-14387150D01*
X5560539Y-14387150D02*
X5541491Y-14358579D01*
X5541491Y-14358579D02*
X5531968Y-14339531D01*
X5531968Y-14339531D02*
X5522444Y-14310960D01*
X5522444Y-14310960D02*
X5512920Y-14263341D01*
X5512920Y-14263341D02*
X5512920Y-14225246D01*
X5512920Y-14225246D02*
X5522444Y-14177627D01*
X5522444Y-14177627D02*
X5531968Y-14149055D01*
X5531968Y-14149055D02*
X5541491Y-14130008D01*
X5541491Y-14130008D02*
X5560539Y-14101436D01*
X5560539Y-14101436D02*
X5570063Y-14091912D01*
X5627206Y-14120484D02*
X5751015Y-14120484D01*
X5751015Y-14120484D02*
X5684348Y-14196674D01*
X5684348Y-14196674D02*
X5712920Y-14196674D01*
X5712920Y-14196674D02*
X5731968Y-14206198D01*
X5731968Y-14206198D02*
X5741491Y-14215722D01*
X5741491Y-14215722D02*
X5751015Y-14234769D01*
X5751015Y-14234769D02*
X5751015Y-14282388D01*
X5751015Y-14282388D02*
X5741491Y-14301436D01*
X5741491Y-14301436D02*
X5731968Y-14310960D01*
X5731968Y-14310960D02*
X5712920Y-14320484D01*
X5712920Y-14320484D02*
X5655777Y-14320484D01*
X5655777Y-14320484D02*
X5636729Y-14310960D01*
X5636729Y-14310960D02*
X5627206Y-14301436D01*
X5874825Y-14120484D02*
X5893872Y-14120484D01*
X5893872Y-14120484D02*
X5912920Y-14130008D01*
X5912920Y-14130008D02*
X5922444Y-14139531D01*
X5922444Y-14139531D02*
X5931968Y-14158579D01*
X5931968Y-14158579D02*
X5941491Y-14196674D01*
X5941491Y-14196674D02*
X5941491Y-14244293D01*
X5941491Y-14244293D02*
X5931968Y-14282388D01*
X5931968Y-14282388D02*
X5922444Y-14301436D01*
X5922444Y-14301436D02*
X5912920Y-14310960D01*
X5912920Y-14310960D02*
X5893872Y-14320484D01*
X5893872Y-14320484D02*
X5874825Y-14320484D01*
X5874825Y-14320484D02*
X5855777Y-14310960D01*
X5855777Y-14310960D02*
X5846253Y-14301436D01*
X5846253Y-14301436D02*
X5836729Y-14282388D01*
X5836729Y-14282388D02*
X5827206Y-14244293D01*
X5827206Y-14244293D02*
X5827206Y-14196674D01*
X5827206Y-14196674D02*
X5836729Y-14158579D01*
X5836729Y-14158579D02*
X5846253Y-14139531D01*
X5846253Y-14139531D02*
X5855777Y-14130008D01*
X5855777Y-14130008D02*
X5874825Y-14120484D01*
X6179587Y-14320484D02*
X6179587Y-14120484D01*
X6265301Y-14320484D02*
X6265301Y-14215722D01*
X6265301Y-14215722D02*
X6255777Y-14196674D01*
X6255777Y-14196674D02*
X6236730Y-14187150D01*
X6236730Y-14187150D02*
X6208158Y-14187150D01*
X6208158Y-14187150D02*
X6189110Y-14196674D01*
X6189110Y-14196674D02*
X6179587Y-14206198D01*
X6389110Y-14320484D02*
X6370063Y-14310960D01*
X6370063Y-14310960D02*
X6360539Y-14301436D01*
X6360539Y-14301436D02*
X6351015Y-14282388D01*
X6351015Y-14282388D02*
X6351015Y-14225246D01*
X6351015Y-14225246D02*
X6360539Y-14206198D01*
X6360539Y-14206198D02*
X6370063Y-14196674D01*
X6370063Y-14196674D02*
X6389110Y-14187150D01*
X6389110Y-14187150D02*
X6417682Y-14187150D01*
X6417682Y-14187150D02*
X6436730Y-14196674D01*
X6436730Y-14196674D02*
X6446253Y-14206198D01*
X6446253Y-14206198D02*
X6455777Y-14225246D01*
X6455777Y-14225246D02*
X6455777Y-14282388D01*
X6455777Y-14282388D02*
X6446253Y-14301436D01*
X6446253Y-14301436D02*
X6436730Y-14310960D01*
X6436730Y-14310960D02*
X6417682Y-14320484D01*
X6417682Y-14320484D02*
X6389110Y-14320484D01*
X6570063Y-14320484D02*
X6551015Y-14310960D01*
X6551015Y-14310960D02*
X6541491Y-14291912D01*
X6541491Y-14291912D02*
X6541491Y-14120484D01*
X6722444Y-14310960D02*
X6703396Y-14320484D01*
X6703396Y-14320484D02*
X6665301Y-14320484D01*
X6665301Y-14320484D02*
X6646253Y-14310960D01*
X6646253Y-14310960D02*
X6636730Y-14291912D01*
X6636730Y-14291912D02*
X6636730Y-14215722D01*
X6636730Y-14215722D02*
X6646253Y-14196674D01*
X6646253Y-14196674D02*
X6665301Y-14187150D01*
X6665301Y-14187150D02*
X6703396Y-14187150D01*
X6703396Y-14187150D02*
X6722444Y-14196674D01*
X6722444Y-14196674D02*
X6731968Y-14215722D01*
X6731968Y-14215722D02*
X6731968Y-14234769D01*
X6731968Y-14234769D02*
X6636730Y-14253817D01*
X6808158Y-14310960D02*
X6827206Y-14320484D01*
X6827206Y-14320484D02*
X6865301Y-14320484D01*
X6865301Y-14320484D02*
X6884349Y-14310960D01*
X6884349Y-14310960D02*
X6893872Y-14291912D01*
X6893872Y-14291912D02*
X6893872Y-14282388D01*
X6893872Y-14282388D02*
X6884349Y-14263341D01*
X6884349Y-14263341D02*
X6865301Y-14253817D01*
X6865301Y-14253817D02*
X6836730Y-14253817D01*
X6836730Y-14253817D02*
X6817682Y-14244293D01*
X6817682Y-14244293D02*
X6808158Y-14225246D01*
X6808158Y-14225246D02*
X6808158Y-14215722D01*
X6808158Y-14215722D02*
X6817682Y-14196674D01*
X6817682Y-14196674D02*
X6836730Y-14187150D01*
X6836730Y-14187150D02*
X6865301Y-14187150D01*
X6865301Y-14187150D02*
X6884349Y-14196674D01*
X6960539Y-14396674D02*
X6970063Y-14387150D01*
X6970063Y-14387150D02*
X6989111Y-14358579D01*
X6989111Y-14358579D02*
X6998634Y-14339531D01*
X6998634Y-14339531D02*
X7008158Y-14310960D01*
X7008158Y-14310960D02*
X7017682Y-14263341D01*
X7017682Y-14263341D02*
X7017682Y-14225246D01*
X7017682Y-14225246D02*
X7008158Y-14177627D01*
X7008158Y-14177627D02*
X6998634Y-14149055D01*
X6998634Y-14149055D02*
X6989111Y-14130008D01*
X6989111Y-14130008D02*
X6970063Y-14101436D01*
X6970063Y-14101436D02*
X6960539Y-14091912D01*
D12*
X1885000Y-14438000D02*
X1995000Y-14548000D01*
X1995000Y-14438000D02*
X1885000Y-14548000D01*
X1978891Y-14531891D02*
X1978891Y-14454109D01*
X1901109Y-14454109D01*
X1901109Y-14531891D01*
X1978891Y-14531891D01*
D11*
X2360539Y-14584484D02*
X2246253Y-14584484D01*
X2303396Y-14584484D02*
X2303396Y-14384484D01*
X2303396Y-14384484D02*
X2284348Y-14413055D01*
X2284348Y-14413055D02*
X2265301Y-14432103D01*
X2265301Y-14432103D02*
X2246253Y-14441627D01*
X2446253Y-14565436D02*
X2455777Y-14574960D01*
X2455777Y-14574960D02*
X2446253Y-14584484D01*
X2446253Y-14584484D02*
X2436729Y-14574960D01*
X2436729Y-14574960D02*
X2446253Y-14565436D01*
X2446253Y-14565436D02*
X2446253Y-14584484D01*
X2646253Y-14584484D02*
X2531967Y-14584484D01*
X2589110Y-14584484D02*
X2589110Y-14384484D01*
X2589110Y-14384484D02*
X2570063Y-14413055D01*
X2570063Y-14413055D02*
X2551015Y-14432103D01*
X2551015Y-14432103D02*
X2531967Y-14441627D01*
X2770063Y-14384484D02*
X2789110Y-14384484D01*
X2789110Y-14384484D02*
X2808158Y-14394008D01*
X2808158Y-14394008D02*
X2817682Y-14403531D01*
X2817682Y-14403531D02*
X2827205Y-14422579D01*
X2827205Y-14422579D02*
X2836729Y-14460674D01*
X2836729Y-14460674D02*
X2836729Y-14508293D01*
X2836729Y-14508293D02*
X2827205Y-14546388D01*
X2827205Y-14546388D02*
X2817682Y-14565436D01*
X2817682Y-14565436D02*
X2808158Y-14574960D01*
X2808158Y-14574960D02*
X2789110Y-14584484D01*
X2789110Y-14584484D02*
X2770063Y-14584484D01*
X2770063Y-14584484D02*
X2751015Y-14574960D01*
X2751015Y-14574960D02*
X2741491Y-14565436D01*
X2741491Y-14565436D02*
X2731967Y-14546388D01*
X2731967Y-14546388D02*
X2722444Y-14508293D01*
X2722444Y-14508293D02*
X2722444Y-14460674D01*
X2722444Y-14460674D02*
X2731967Y-14422579D01*
X2731967Y-14422579D02*
X2741491Y-14403531D01*
X2741491Y-14403531D02*
X2751015Y-14394008D01*
X2751015Y-14394008D02*
X2770063Y-14384484D01*
X2960539Y-14384484D02*
X2979586Y-14384484D01*
X2979586Y-14384484D02*
X2998634Y-14394008D01*
X2998634Y-14394008D02*
X3008158Y-14403531D01*
X3008158Y-14403531D02*
X3017682Y-14422579D01*
X3017682Y-14422579D02*
X3027205Y-14460674D01*
X3027205Y-14460674D02*
X3027205Y-14508293D01*
X3027205Y-14508293D02*
X3017682Y-14546388D01*
X3017682Y-14546388D02*
X3008158Y-14565436D01*
X3008158Y-14565436D02*
X2998634Y-14574960D01*
X2998634Y-14574960D02*
X2979586Y-14584484D01*
X2979586Y-14584484D02*
X2960539Y-14584484D01*
X2960539Y-14584484D02*
X2941491Y-14574960D01*
X2941491Y-14574960D02*
X2931967Y-14565436D01*
X2931967Y-14565436D02*
X2922443Y-14546388D01*
X2922443Y-14546388D02*
X2912920Y-14508293D01*
X2912920Y-14508293D02*
X2912920Y-14460674D01*
X2912920Y-14460674D02*
X2922443Y-14422579D01*
X2922443Y-14422579D02*
X2931967Y-14403531D01*
X2931967Y-14403531D02*
X2941491Y-14394008D01*
X2941491Y-14394008D02*
X2960539Y-14384484D01*
X3112920Y-14584484D02*
X3112920Y-14451150D01*
X3112920Y-14470198D02*
X3122443Y-14460674D01*
X3122443Y-14460674D02*
X3141491Y-14451150D01*
X3141491Y-14451150D02*
X3170063Y-14451150D01*
X3170063Y-14451150D02*
X3189110Y-14460674D01*
X3189110Y-14460674D02*
X3198634Y-14479722D01*
X3198634Y-14479722D02*
X3198634Y-14584484D01*
X3198634Y-14479722D02*
X3208158Y-14460674D01*
X3208158Y-14460674D02*
X3227205Y-14451150D01*
X3227205Y-14451150D02*
X3255777Y-14451150D01*
X3255777Y-14451150D02*
X3274824Y-14460674D01*
X3274824Y-14460674D02*
X3284348Y-14479722D01*
X3284348Y-14479722D02*
X3284348Y-14584484D01*
X3379586Y-14584484D02*
X3379586Y-14451150D01*
X3379586Y-14470198D02*
X3389110Y-14460674D01*
X3389110Y-14460674D02*
X3408158Y-14451150D01*
X3408158Y-14451150D02*
X3436729Y-14451150D01*
X3436729Y-14451150D02*
X3455777Y-14460674D01*
X3455777Y-14460674D02*
X3465301Y-14479722D01*
X3465301Y-14479722D02*
X3465301Y-14584484D01*
X3465301Y-14479722D02*
X3474824Y-14460674D01*
X3474824Y-14460674D02*
X3493872Y-14451150D01*
X3493872Y-14451150D02*
X3522443Y-14451150D01*
X3522443Y-14451150D02*
X3541491Y-14460674D01*
X3541491Y-14460674D02*
X3551015Y-14479722D01*
X3551015Y-14479722D02*
X3551015Y-14584484D01*
X3941491Y-14374960D02*
X3770063Y-14632103D01*
X4198634Y-14384484D02*
X4217682Y-14384484D01*
X4217682Y-14384484D02*
X4236729Y-14394008D01*
X4236729Y-14394008D02*
X4246253Y-14403531D01*
X4246253Y-14403531D02*
X4255777Y-14422579D01*
X4255777Y-14422579D02*
X4265301Y-14460674D01*
X4265301Y-14460674D02*
X4265301Y-14508293D01*
X4265301Y-14508293D02*
X4255777Y-14546388D01*
X4255777Y-14546388D02*
X4246253Y-14565436D01*
X4246253Y-14565436D02*
X4236729Y-14574960D01*
X4236729Y-14574960D02*
X4217682Y-14584484D01*
X4217682Y-14584484D02*
X4198634Y-14584484D01*
X4198634Y-14584484D02*
X4179586Y-14574960D01*
X4179586Y-14574960D02*
X4170063Y-14565436D01*
X4170063Y-14565436D02*
X4160539Y-14546388D01*
X4160539Y-14546388D02*
X4151015Y-14508293D01*
X4151015Y-14508293D02*
X4151015Y-14460674D01*
X4151015Y-14460674D02*
X4160539Y-14422579D01*
X4160539Y-14422579D02*
X4170063Y-14403531D01*
X4170063Y-14403531D02*
X4179586Y-14394008D01*
X4179586Y-14394008D02*
X4198634Y-14384484D01*
X4351015Y-14565436D02*
X4360539Y-14574960D01*
X4360539Y-14574960D02*
X4351015Y-14584484D01*
X4351015Y-14584484D02*
X4341491Y-14574960D01*
X4341491Y-14574960D02*
X4351015Y-14565436D01*
X4351015Y-14565436D02*
X4351015Y-14584484D01*
X4484348Y-14384484D02*
X4503396Y-14384484D01*
X4503396Y-14384484D02*
X4522444Y-14394008D01*
X4522444Y-14394008D02*
X4531968Y-14403531D01*
X4531968Y-14403531D02*
X4541491Y-14422579D01*
X4541491Y-14422579D02*
X4551015Y-14460674D01*
X4551015Y-14460674D02*
X4551015Y-14508293D01*
X4551015Y-14508293D02*
X4541491Y-14546388D01*
X4541491Y-14546388D02*
X4531968Y-14565436D01*
X4531968Y-14565436D02*
X4522444Y-14574960D01*
X4522444Y-14574960D02*
X4503396Y-14584484D01*
X4503396Y-14584484D02*
X4484348Y-14584484D01*
X4484348Y-14584484D02*
X4465301Y-14574960D01*
X4465301Y-14574960D02*
X4455777Y-14565436D01*
X4455777Y-14565436D02*
X4446253Y-14546388D01*
X4446253Y-14546388D02*
X4436729Y-14508293D01*
X4436729Y-14508293D02*
X4436729Y-14460674D01*
X4436729Y-14460674D02*
X4446253Y-14422579D01*
X4446253Y-14422579D02*
X4455777Y-14403531D01*
X4455777Y-14403531D02*
X4465301Y-14394008D01*
X4465301Y-14394008D02*
X4484348Y-14384484D01*
X4722444Y-14451150D02*
X4722444Y-14584484D01*
X4674825Y-14374960D02*
X4627206Y-14517817D01*
X4627206Y-14517817D02*
X4751015Y-14517817D01*
X4808158Y-14384484D02*
X4931968Y-14384484D01*
X4931968Y-14384484D02*
X4865301Y-14460674D01*
X4865301Y-14460674D02*
X4893872Y-14460674D01*
X4893872Y-14460674D02*
X4912920Y-14470198D01*
X4912920Y-14470198D02*
X4922444Y-14479722D01*
X4922444Y-14479722D02*
X4931968Y-14498769D01*
X4931968Y-14498769D02*
X4931968Y-14546388D01*
X4931968Y-14546388D02*
X4922444Y-14565436D01*
X4922444Y-14565436D02*
X4912920Y-14574960D01*
X4912920Y-14574960D02*
X4893872Y-14584484D01*
X4893872Y-14584484D02*
X4836729Y-14584484D01*
X4836729Y-14584484D02*
X4817682Y-14574960D01*
X4817682Y-14574960D02*
X4808158Y-14565436D01*
X4998634Y-14384484D02*
X5122444Y-14384484D01*
X5122444Y-14384484D02*
X5055777Y-14460674D01*
X5055777Y-14460674D02*
X5084349Y-14460674D01*
X5084349Y-14460674D02*
X5103396Y-14470198D01*
X5103396Y-14470198D02*
X5112920Y-14479722D01*
X5112920Y-14479722D02*
X5122444Y-14498769D01*
X5122444Y-14498769D02*
X5122444Y-14546388D01*
X5122444Y-14546388D02*
X5112920Y-14565436D01*
X5112920Y-14565436D02*
X5103396Y-14574960D01*
X5103396Y-14574960D02*
X5084349Y-14584484D01*
X5084349Y-14584484D02*
X5027206Y-14584484D01*
X5027206Y-14584484D02*
X5008158Y-14574960D01*
X5008158Y-14574960D02*
X4998634Y-14565436D01*
X5198634Y-14384484D02*
X5198634Y-14422579D01*
X5274825Y-14384484D02*
X5274825Y-14422579D01*
X5570063Y-14660674D02*
X5560539Y-14651150D01*
X5560539Y-14651150D02*
X5541491Y-14622579D01*
X5541491Y-14622579D02*
X5531968Y-14603531D01*
X5531968Y-14603531D02*
X5522444Y-14574960D01*
X5522444Y-14574960D02*
X5512920Y-14527341D01*
X5512920Y-14527341D02*
X5512920Y-14489246D01*
X5512920Y-14489246D02*
X5522444Y-14441627D01*
X5522444Y-14441627D02*
X5531968Y-14413055D01*
X5531968Y-14413055D02*
X5541491Y-14394008D01*
X5541491Y-14394008D02*
X5560539Y-14365436D01*
X5560539Y-14365436D02*
X5570063Y-14355912D01*
X5731968Y-14451150D02*
X5731968Y-14584484D01*
X5684348Y-14374960D02*
X5636729Y-14517817D01*
X5636729Y-14517817D02*
X5760539Y-14517817D01*
X5989110Y-14584484D02*
X5989110Y-14384484D01*
X6074825Y-14584484D02*
X6074825Y-14479722D01*
X6074825Y-14479722D02*
X6065301Y-14460674D01*
X6065301Y-14460674D02*
X6046253Y-14451150D01*
X6046253Y-14451150D02*
X6017682Y-14451150D01*
X6017682Y-14451150D02*
X5998634Y-14460674D01*
X5998634Y-14460674D02*
X5989110Y-14470198D01*
X6198634Y-14584484D02*
X6179587Y-14574960D01*
X6179587Y-14574960D02*
X6170063Y-14565436D01*
X6170063Y-14565436D02*
X6160539Y-14546388D01*
X6160539Y-14546388D02*
X6160539Y-14489246D01*
X6160539Y-14489246D02*
X6170063Y-14470198D01*
X6170063Y-14470198D02*
X6179587Y-14460674D01*
X6179587Y-14460674D02*
X6198634Y-14451150D01*
X6198634Y-14451150D02*
X6227206Y-14451150D01*
X6227206Y-14451150D02*
X6246253Y-14460674D01*
X6246253Y-14460674D02*
X6255777Y-14470198D01*
X6255777Y-14470198D02*
X6265301Y-14489246D01*
X6265301Y-14489246D02*
X6265301Y-14546388D01*
X6265301Y-14546388D02*
X6255777Y-14565436D01*
X6255777Y-14565436D02*
X6246253Y-14574960D01*
X6246253Y-14574960D02*
X6227206Y-14584484D01*
X6227206Y-14584484D02*
X6198634Y-14584484D01*
X6379587Y-14584484D02*
X6360539Y-14574960D01*
X6360539Y-14574960D02*
X6351015Y-14555912D01*
X6351015Y-14555912D02*
X6351015Y-14384484D01*
X6531968Y-14574960D02*
X6512920Y-14584484D01*
X6512920Y-14584484D02*
X6474825Y-14584484D01*
X6474825Y-14584484D02*
X6455777Y-14574960D01*
X6455777Y-14574960D02*
X6446253Y-14555912D01*
X6446253Y-14555912D02*
X6446253Y-14479722D01*
X6446253Y-14479722D02*
X6455777Y-14460674D01*
X6455777Y-14460674D02*
X6474825Y-14451150D01*
X6474825Y-14451150D02*
X6512920Y-14451150D01*
X6512920Y-14451150D02*
X6531968Y-14460674D01*
X6531968Y-14460674D02*
X6541491Y-14479722D01*
X6541491Y-14479722D02*
X6541491Y-14498769D01*
X6541491Y-14498769D02*
X6446253Y-14517817D01*
X6617682Y-14574960D02*
X6636730Y-14584484D01*
X6636730Y-14584484D02*
X6674825Y-14584484D01*
X6674825Y-14584484D02*
X6693872Y-14574960D01*
X6693872Y-14574960D02*
X6703396Y-14555912D01*
X6703396Y-14555912D02*
X6703396Y-14546388D01*
X6703396Y-14546388D02*
X6693872Y-14527341D01*
X6693872Y-14527341D02*
X6674825Y-14517817D01*
X6674825Y-14517817D02*
X6646253Y-14517817D01*
X6646253Y-14517817D02*
X6627206Y-14508293D01*
X6627206Y-14508293D02*
X6617682Y-14489246D01*
X6617682Y-14489246D02*
X6617682Y-14479722D01*
X6617682Y-14479722D02*
X6627206Y-14460674D01*
X6627206Y-14460674D02*
X6646253Y-14451150D01*
X6646253Y-14451150D02*
X6674825Y-14451150D01*
X6674825Y-14451150D02*
X6693872Y-14460674D01*
X6770063Y-14660674D02*
X6779587Y-14651150D01*
X6779587Y-14651150D02*
X6798634Y-14622579D01*
X6798634Y-14622579D02*
X6808158Y-14603531D01*
X6808158Y-14603531D02*
X6817682Y-14574960D01*
X6817682Y-14574960D02*
X6827206Y-14527341D01*
X6827206Y-14527341D02*
X6827206Y-14489246D01*
X6827206Y-14489246D02*
X6817682Y-14441627D01*
X6817682Y-14441627D02*
X6808158Y-14413055D01*
X6808158Y-14413055D02*
X6798634Y-14394008D01*
X6798634Y-14394008D02*
X6779587Y-14365436D01*
X6779587Y-14365436D02*
X6770063Y-14355912D01*
D13*
X1865000Y-14692000D02*
X1995000Y-14822000D01*
X1995000Y-14692000D02*
X1865000Y-14822000D01*
X1930000Y-14822000D02*
X1995000Y-14757000D01*
X1930000Y-14692000D01*
X1865000Y-14757000D01*
X1930000Y-14822000D01*
D11*
X2360539Y-14848484D02*
X2246253Y-14848484D01*
X2303396Y-14848484D02*
X2303396Y-14648484D01*
X2303396Y-14648484D02*
X2284348Y-14677055D01*
X2284348Y-14677055D02*
X2265301Y-14696103D01*
X2265301Y-14696103D02*
X2246253Y-14705627D01*
X2446253Y-14829436D02*
X2455777Y-14838960D01*
X2455777Y-14838960D02*
X2446253Y-14848484D01*
X2446253Y-14848484D02*
X2436729Y-14838960D01*
X2436729Y-14838960D02*
X2446253Y-14829436D01*
X2446253Y-14829436D02*
X2446253Y-14848484D01*
X2522444Y-14648484D02*
X2646253Y-14648484D01*
X2646253Y-14648484D02*
X2579586Y-14724674D01*
X2579586Y-14724674D02*
X2608158Y-14724674D01*
X2608158Y-14724674D02*
X2627205Y-14734198D01*
X2627205Y-14734198D02*
X2636729Y-14743722D01*
X2636729Y-14743722D02*
X2646253Y-14762769D01*
X2646253Y-14762769D02*
X2646253Y-14810388D01*
X2646253Y-14810388D02*
X2636729Y-14829436D01*
X2636729Y-14829436D02*
X2627205Y-14838960D01*
X2627205Y-14838960D02*
X2608158Y-14848484D01*
X2608158Y-14848484D02*
X2551015Y-14848484D01*
X2551015Y-14848484D02*
X2531967Y-14838960D01*
X2531967Y-14838960D02*
X2522444Y-14829436D01*
X2770063Y-14648484D02*
X2789110Y-14648484D01*
X2789110Y-14648484D02*
X2808158Y-14658008D01*
X2808158Y-14658008D02*
X2817682Y-14667531D01*
X2817682Y-14667531D02*
X2827205Y-14686579D01*
X2827205Y-14686579D02*
X2836729Y-14724674D01*
X2836729Y-14724674D02*
X2836729Y-14772293D01*
X2836729Y-14772293D02*
X2827205Y-14810388D01*
X2827205Y-14810388D02*
X2817682Y-14829436D01*
X2817682Y-14829436D02*
X2808158Y-14838960D01*
X2808158Y-14838960D02*
X2789110Y-14848484D01*
X2789110Y-14848484D02*
X2770063Y-14848484D01*
X2770063Y-14848484D02*
X2751015Y-14838960D01*
X2751015Y-14838960D02*
X2741491Y-14829436D01*
X2741491Y-14829436D02*
X2731967Y-14810388D01*
X2731967Y-14810388D02*
X2722444Y-14772293D01*
X2722444Y-14772293D02*
X2722444Y-14724674D01*
X2722444Y-14724674D02*
X2731967Y-14686579D01*
X2731967Y-14686579D02*
X2741491Y-14667531D01*
X2741491Y-14667531D02*
X2751015Y-14658008D01*
X2751015Y-14658008D02*
X2770063Y-14648484D01*
X2960539Y-14648484D02*
X2979586Y-14648484D01*
X2979586Y-14648484D02*
X2998634Y-14658008D01*
X2998634Y-14658008D02*
X3008158Y-14667531D01*
X3008158Y-14667531D02*
X3017682Y-14686579D01*
X3017682Y-14686579D02*
X3027205Y-14724674D01*
X3027205Y-14724674D02*
X3027205Y-14772293D01*
X3027205Y-14772293D02*
X3017682Y-14810388D01*
X3017682Y-14810388D02*
X3008158Y-14829436D01*
X3008158Y-14829436D02*
X2998634Y-14838960D01*
X2998634Y-14838960D02*
X2979586Y-14848484D01*
X2979586Y-14848484D02*
X2960539Y-14848484D01*
X2960539Y-14848484D02*
X2941491Y-14838960D01*
X2941491Y-14838960D02*
X2931967Y-14829436D01*
X2931967Y-14829436D02*
X2922443Y-14810388D01*
X2922443Y-14810388D02*
X2912920Y-14772293D01*
X2912920Y-14772293D02*
X2912920Y-14724674D01*
X2912920Y-14724674D02*
X2922443Y-14686579D01*
X2922443Y-14686579D02*
X2931967Y-14667531D01*
X2931967Y-14667531D02*
X2941491Y-14658008D01*
X2941491Y-14658008D02*
X2960539Y-14648484D01*
X3112920Y-14848484D02*
X3112920Y-14715150D01*
X3112920Y-14734198D02*
X3122443Y-14724674D01*
X3122443Y-14724674D02*
X3141491Y-14715150D01*
X3141491Y-14715150D02*
X3170063Y-14715150D01*
X3170063Y-14715150D02*
X3189110Y-14724674D01*
X3189110Y-14724674D02*
X3198634Y-14743722D01*
X3198634Y-14743722D02*
X3198634Y-14848484D01*
X3198634Y-14743722D02*
X3208158Y-14724674D01*
X3208158Y-14724674D02*
X3227205Y-14715150D01*
X3227205Y-14715150D02*
X3255777Y-14715150D01*
X3255777Y-14715150D02*
X3274824Y-14724674D01*
X3274824Y-14724674D02*
X3284348Y-14743722D01*
X3284348Y-14743722D02*
X3284348Y-14848484D01*
X3379586Y-14848484D02*
X3379586Y-14715150D01*
X3379586Y-14734198D02*
X3389110Y-14724674D01*
X3389110Y-14724674D02*
X3408158Y-14715150D01*
X3408158Y-14715150D02*
X3436729Y-14715150D01*
X3436729Y-14715150D02*
X3455777Y-14724674D01*
X3455777Y-14724674D02*
X3465301Y-14743722D01*
X3465301Y-14743722D02*
X3465301Y-14848484D01*
X3465301Y-14743722D02*
X3474824Y-14724674D01*
X3474824Y-14724674D02*
X3493872Y-14715150D01*
X3493872Y-14715150D02*
X3522443Y-14715150D01*
X3522443Y-14715150D02*
X3541491Y-14724674D01*
X3541491Y-14724674D02*
X3551015Y-14743722D01*
X3551015Y-14743722D02*
X3551015Y-14848484D01*
X3941491Y-14638960D02*
X3770063Y-14896103D01*
X4198634Y-14648484D02*
X4217682Y-14648484D01*
X4217682Y-14648484D02*
X4236729Y-14658008D01*
X4236729Y-14658008D02*
X4246253Y-14667531D01*
X4246253Y-14667531D02*
X4255777Y-14686579D01*
X4255777Y-14686579D02*
X4265301Y-14724674D01*
X4265301Y-14724674D02*
X4265301Y-14772293D01*
X4265301Y-14772293D02*
X4255777Y-14810388D01*
X4255777Y-14810388D02*
X4246253Y-14829436D01*
X4246253Y-14829436D02*
X4236729Y-14838960D01*
X4236729Y-14838960D02*
X4217682Y-14848484D01*
X4217682Y-14848484D02*
X4198634Y-14848484D01*
X4198634Y-14848484D02*
X4179586Y-14838960D01*
X4179586Y-14838960D02*
X4170063Y-14829436D01*
X4170063Y-14829436D02*
X4160539Y-14810388D01*
X4160539Y-14810388D02*
X4151015Y-14772293D01*
X4151015Y-14772293D02*
X4151015Y-14724674D01*
X4151015Y-14724674D02*
X4160539Y-14686579D01*
X4160539Y-14686579D02*
X4170063Y-14667531D01*
X4170063Y-14667531D02*
X4179586Y-14658008D01*
X4179586Y-14658008D02*
X4198634Y-14648484D01*
X4351015Y-14829436D02*
X4360539Y-14838960D01*
X4360539Y-14838960D02*
X4351015Y-14848484D01*
X4351015Y-14848484D02*
X4341491Y-14838960D01*
X4341491Y-14838960D02*
X4351015Y-14829436D01*
X4351015Y-14829436D02*
X4351015Y-14848484D01*
X4484348Y-14648484D02*
X4503396Y-14648484D01*
X4503396Y-14648484D02*
X4522444Y-14658008D01*
X4522444Y-14658008D02*
X4531968Y-14667531D01*
X4531968Y-14667531D02*
X4541491Y-14686579D01*
X4541491Y-14686579D02*
X4551015Y-14724674D01*
X4551015Y-14724674D02*
X4551015Y-14772293D01*
X4551015Y-14772293D02*
X4541491Y-14810388D01*
X4541491Y-14810388D02*
X4531968Y-14829436D01*
X4531968Y-14829436D02*
X4522444Y-14838960D01*
X4522444Y-14838960D02*
X4503396Y-14848484D01*
X4503396Y-14848484D02*
X4484348Y-14848484D01*
X4484348Y-14848484D02*
X4465301Y-14838960D01*
X4465301Y-14838960D02*
X4455777Y-14829436D01*
X4455777Y-14829436D02*
X4446253Y-14810388D01*
X4446253Y-14810388D02*
X4436729Y-14772293D01*
X4436729Y-14772293D02*
X4436729Y-14724674D01*
X4436729Y-14724674D02*
X4446253Y-14686579D01*
X4446253Y-14686579D02*
X4455777Y-14667531D01*
X4455777Y-14667531D02*
X4465301Y-14658008D01*
X4465301Y-14658008D02*
X4484348Y-14648484D01*
X4731968Y-14648484D02*
X4636729Y-14648484D01*
X4636729Y-14648484D02*
X4627206Y-14743722D01*
X4627206Y-14743722D02*
X4636729Y-14734198D01*
X4636729Y-14734198D02*
X4655777Y-14724674D01*
X4655777Y-14724674D02*
X4703396Y-14724674D01*
X4703396Y-14724674D02*
X4722444Y-14734198D01*
X4722444Y-14734198D02*
X4731968Y-14743722D01*
X4731968Y-14743722D02*
X4741491Y-14762769D01*
X4741491Y-14762769D02*
X4741491Y-14810388D01*
X4741491Y-14810388D02*
X4731968Y-14829436D01*
X4731968Y-14829436D02*
X4722444Y-14838960D01*
X4722444Y-14838960D02*
X4703396Y-14848484D01*
X4703396Y-14848484D02*
X4655777Y-14848484D01*
X4655777Y-14848484D02*
X4636729Y-14838960D01*
X4636729Y-14838960D02*
X4627206Y-14829436D01*
X4931968Y-14848484D02*
X4817682Y-14848484D01*
X4874825Y-14848484D02*
X4874825Y-14648484D01*
X4874825Y-14648484D02*
X4855777Y-14677055D01*
X4855777Y-14677055D02*
X4836729Y-14696103D01*
X4836729Y-14696103D02*
X4817682Y-14705627D01*
X5008158Y-14667531D02*
X5017682Y-14658008D01*
X5017682Y-14658008D02*
X5036729Y-14648484D01*
X5036729Y-14648484D02*
X5084349Y-14648484D01*
X5084349Y-14648484D02*
X5103396Y-14658008D01*
X5103396Y-14658008D02*
X5112920Y-14667531D01*
X5112920Y-14667531D02*
X5122444Y-14686579D01*
X5122444Y-14686579D02*
X5122444Y-14705627D01*
X5122444Y-14705627D02*
X5112920Y-14734198D01*
X5112920Y-14734198D02*
X4998634Y-14848484D01*
X4998634Y-14848484D02*
X5122444Y-14848484D01*
X5198634Y-14648484D02*
X5198634Y-14686579D01*
X5274825Y-14648484D02*
X5274825Y-14686579D01*
X5570063Y-14924674D02*
X5560539Y-14915150D01*
X5560539Y-14915150D02*
X5541491Y-14886579D01*
X5541491Y-14886579D02*
X5531968Y-14867531D01*
X5531968Y-14867531D02*
X5522444Y-14838960D01*
X5522444Y-14838960D02*
X5512920Y-14791341D01*
X5512920Y-14791341D02*
X5512920Y-14753246D01*
X5512920Y-14753246D02*
X5522444Y-14705627D01*
X5522444Y-14705627D02*
X5531968Y-14677055D01*
X5531968Y-14677055D02*
X5541491Y-14658008D01*
X5541491Y-14658008D02*
X5560539Y-14629436D01*
X5560539Y-14629436D02*
X5570063Y-14619912D01*
X5751015Y-14848484D02*
X5636729Y-14848484D01*
X5693872Y-14848484D02*
X5693872Y-14648484D01*
X5693872Y-14648484D02*
X5674825Y-14677055D01*
X5674825Y-14677055D02*
X5655777Y-14696103D01*
X5655777Y-14696103D02*
X5636729Y-14705627D01*
X5827206Y-14667531D02*
X5836729Y-14658008D01*
X5836729Y-14658008D02*
X5855777Y-14648484D01*
X5855777Y-14648484D02*
X5903396Y-14648484D01*
X5903396Y-14648484D02*
X5922444Y-14658008D01*
X5922444Y-14658008D02*
X5931968Y-14667531D01*
X5931968Y-14667531D02*
X5941491Y-14686579D01*
X5941491Y-14686579D02*
X5941491Y-14705627D01*
X5941491Y-14705627D02*
X5931968Y-14734198D01*
X5931968Y-14734198D02*
X5817682Y-14848484D01*
X5817682Y-14848484D02*
X5941491Y-14848484D01*
X6179587Y-14848484D02*
X6179587Y-14648484D01*
X6265301Y-14848484D02*
X6265301Y-14743722D01*
X6265301Y-14743722D02*
X6255777Y-14724674D01*
X6255777Y-14724674D02*
X6236730Y-14715150D01*
X6236730Y-14715150D02*
X6208158Y-14715150D01*
X6208158Y-14715150D02*
X6189110Y-14724674D01*
X6189110Y-14724674D02*
X6179587Y-14734198D01*
X6389110Y-14848484D02*
X6370063Y-14838960D01*
X6370063Y-14838960D02*
X6360539Y-14829436D01*
X6360539Y-14829436D02*
X6351015Y-14810388D01*
X6351015Y-14810388D02*
X6351015Y-14753246D01*
X6351015Y-14753246D02*
X6360539Y-14734198D01*
X6360539Y-14734198D02*
X6370063Y-14724674D01*
X6370063Y-14724674D02*
X6389110Y-14715150D01*
X6389110Y-14715150D02*
X6417682Y-14715150D01*
X6417682Y-14715150D02*
X6436730Y-14724674D01*
X6436730Y-14724674D02*
X6446253Y-14734198D01*
X6446253Y-14734198D02*
X6455777Y-14753246D01*
X6455777Y-14753246D02*
X6455777Y-14810388D01*
X6455777Y-14810388D02*
X6446253Y-14829436D01*
X6446253Y-14829436D02*
X6436730Y-14838960D01*
X6436730Y-14838960D02*
X6417682Y-14848484D01*
X6417682Y-14848484D02*
X6389110Y-14848484D01*
X6570063Y-14848484D02*
X6551015Y-14838960D01*
X6551015Y-14838960D02*
X6541491Y-14819912D01*
X6541491Y-14819912D02*
X6541491Y-14648484D01*
X6722444Y-14838960D02*
X6703396Y-14848484D01*
X6703396Y-14848484D02*
X6665301Y-14848484D01*
X6665301Y-14848484D02*
X6646253Y-14838960D01*
X6646253Y-14838960D02*
X6636730Y-14819912D01*
X6636730Y-14819912D02*
X6636730Y-14743722D01*
X6636730Y-14743722D02*
X6646253Y-14724674D01*
X6646253Y-14724674D02*
X6665301Y-14715150D01*
X6665301Y-14715150D02*
X6703396Y-14715150D01*
X6703396Y-14715150D02*
X6722444Y-14724674D01*
X6722444Y-14724674D02*
X6731968Y-14743722D01*
X6731968Y-14743722D02*
X6731968Y-14762769D01*
X6731968Y-14762769D02*
X6636730Y-14781817D01*
X6808158Y-14838960D02*
X6827206Y-14848484D01*
X6827206Y-14848484D02*
X6865301Y-14848484D01*
X6865301Y-14848484D02*
X6884349Y-14838960D01*
X6884349Y-14838960D02*
X6893872Y-14819912D01*
X6893872Y-14819912D02*
X6893872Y-14810388D01*
X6893872Y-14810388D02*
X6884349Y-14791341D01*
X6884349Y-14791341D02*
X6865301Y-14781817D01*
X6865301Y-14781817D02*
X6836730Y-14781817D01*
X6836730Y-14781817D02*
X6817682Y-14772293D01*
X6817682Y-14772293D02*
X6808158Y-14753246D01*
X6808158Y-14753246D02*
X6808158Y-14743722D01*
X6808158Y-14743722D02*
X6817682Y-14724674D01*
X6817682Y-14724674D02*
X6836730Y-14715150D01*
X6836730Y-14715150D02*
X6865301Y-14715150D01*
X6865301Y-14715150D02*
X6884349Y-14724674D01*
X6960539Y-14924674D02*
X6970063Y-14915150D01*
X6970063Y-14915150D02*
X6989111Y-14886579D01*
X6989111Y-14886579D02*
X6998634Y-14867531D01*
X6998634Y-14867531D02*
X7008158Y-14838960D01*
X7008158Y-14838960D02*
X7017682Y-14791341D01*
X7017682Y-14791341D02*
X7017682Y-14753246D01*
X7017682Y-14753246D02*
X7008158Y-14705627D01*
X7008158Y-14705627D02*
X6998634Y-14677055D01*
X6998634Y-14677055D02*
X6989111Y-14658008D01*
X6989111Y-14658008D02*
X6970063Y-14629436D01*
X6970063Y-14629436D02*
X6960539Y-14619912D01*
D14*
X1910000Y-14936000D02*
X1910000Y-15106000D01*
X1825000Y-15021000D02*
X1995000Y-15021000D01*
X1995000Y-15021000D02*
G75*
G02*
X1825000Y-15021000I-85000J0D01*
G01*
X1825000Y-15021000D02*
G75*
G02*
X1995000Y-15021000I85000J0D01*
G01*
D11*
X2360539Y-15112484D02*
X2246253Y-15112484D01*
X2303396Y-15112484D02*
X2303396Y-14912484D01*
X2303396Y-14912484D02*
X2284348Y-14941055D01*
X2284348Y-14941055D02*
X2265301Y-14960103D01*
X2265301Y-14960103D02*
X2246253Y-14969627D01*
X2446253Y-15093436D02*
X2455777Y-15102960D01*
X2455777Y-15102960D02*
X2446253Y-15112484D01*
X2446253Y-15112484D02*
X2436729Y-15102960D01*
X2436729Y-15102960D02*
X2446253Y-15093436D01*
X2446253Y-15093436D02*
X2446253Y-15112484D01*
X2522444Y-14912484D02*
X2655777Y-14912484D01*
X2655777Y-14912484D02*
X2570063Y-15112484D01*
X2770063Y-14912484D02*
X2789110Y-14912484D01*
X2789110Y-14912484D02*
X2808158Y-14922008D01*
X2808158Y-14922008D02*
X2817682Y-14931531D01*
X2817682Y-14931531D02*
X2827205Y-14950579D01*
X2827205Y-14950579D02*
X2836729Y-14988674D01*
X2836729Y-14988674D02*
X2836729Y-15036293D01*
X2836729Y-15036293D02*
X2827205Y-15074388D01*
X2827205Y-15074388D02*
X2817682Y-15093436D01*
X2817682Y-15093436D02*
X2808158Y-15102960D01*
X2808158Y-15102960D02*
X2789110Y-15112484D01*
X2789110Y-15112484D02*
X2770063Y-15112484D01*
X2770063Y-15112484D02*
X2751015Y-15102960D01*
X2751015Y-15102960D02*
X2741491Y-15093436D01*
X2741491Y-15093436D02*
X2731967Y-15074388D01*
X2731967Y-15074388D02*
X2722444Y-15036293D01*
X2722444Y-15036293D02*
X2722444Y-14988674D01*
X2722444Y-14988674D02*
X2731967Y-14950579D01*
X2731967Y-14950579D02*
X2741491Y-14931531D01*
X2741491Y-14931531D02*
X2751015Y-14922008D01*
X2751015Y-14922008D02*
X2770063Y-14912484D01*
X2960539Y-14912484D02*
X2979586Y-14912484D01*
X2979586Y-14912484D02*
X2998634Y-14922008D01*
X2998634Y-14922008D02*
X3008158Y-14931531D01*
X3008158Y-14931531D02*
X3017682Y-14950579D01*
X3017682Y-14950579D02*
X3027205Y-14988674D01*
X3027205Y-14988674D02*
X3027205Y-15036293D01*
X3027205Y-15036293D02*
X3017682Y-15074388D01*
X3017682Y-15074388D02*
X3008158Y-15093436D01*
X3008158Y-15093436D02*
X2998634Y-15102960D01*
X2998634Y-15102960D02*
X2979586Y-15112484D01*
X2979586Y-15112484D02*
X2960539Y-15112484D01*
X2960539Y-15112484D02*
X2941491Y-15102960D01*
X2941491Y-15102960D02*
X2931967Y-15093436D01*
X2931967Y-15093436D02*
X2922443Y-15074388D01*
X2922443Y-15074388D02*
X2912920Y-15036293D01*
X2912920Y-15036293D02*
X2912920Y-14988674D01*
X2912920Y-14988674D02*
X2922443Y-14950579D01*
X2922443Y-14950579D02*
X2931967Y-14931531D01*
X2931967Y-14931531D02*
X2941491Y-14922008D01*
X2941491Y-14922008D02*
X2960539Y-14912484D01*
X3112920Y-15112484D02*
X3112920Y-14979150D01*
X3112920Y-14998198D02*
X3122443Y-14988674D01*
X3122443Y-14988674D02*
X3141491Y-14979150D01*
X3141491Y-14979150D02*
X3170063Y-14979150D01*
X3170063Y-14979150D02*
X3189110Y-14988674D01*
X3189110Y-14988674D02*
X3198634Y-15007722D01*
X3198634Y-15007722D02*
X3198634Y-15112484D01*
X3198634Y-15007722D02*
X3208158Y-14988674D01*
X3208158Y-14988674D02*
X3227205Y-14979150D01*
X3227205Y-14979150D02*
X3255777Y-14979150D01*
X3255777Y-14979150D02*
X3274824Y-14988674D01*
X3274824Y-14988674D02*
X3284348Y-15007722D01*
X3284348Y-15007722D02*
X3284348Y-15112484D01*
X3379586Y-15112484D02*
X3379586Y-14979150D01*
X3379586Y-14998198D02*
X3389110Y-14988674D01*
X3389110Y-14988674D02*
X3408158Y-14979150D01*
X3408158Y-14979150D02*
X3436729Y-14979150D01*
X3436729Y-14979150D02*
X3455777Y-14988674D01*
X3455777Y-14988674D02*
X3465301Y-15007722D01*
X3465301Y-15007722D02*
X3465301Y-15112484D01*
X3465301Y-15007722D02*
X3474824Y-14988674D01*
X3474824Y-14988674D02*
X3493872Y-14979150D01*
X3493872Y-14979150D02*
X3522443Y-14979150D01*
X3522443Y-14979150D02*
X3541491Y-14988674D01*
X3541491Y-14988674D02*
X3551015Y-15007722D01*
X3551015Y-15007722D02*
X3551015Y-15112484D01*
X3941491Y-14902960D02*
X3770063Y-15160103D01*
X4198634Y-14912484D02*
X4217682Y-14912484D01*
X4217682Y-14912484D02*
X4236729Y-14922008D01*
X4236729Y-14922008D02*
X4246253Y-14931531D01*
X4246253Y-14931531D02*
X4255777Y-14950579D01*
X4255777Y-14950579D02*
X4265301Y-14988674D01*
X4265301Y-14988674D02*
X4265301Y-15036293D01*
X4265301Y-15036293D02*
X4255777Y-15074388D01*
X4255777Y-15074388D02*
X4246253Y-15093436D01*
X4246253Y-15093436D02*
X4236729Y-15102960D01*
X4236729Y-15102960D02*
X4217682Y-15112484D01*
X4217682Y-15112484D02*
X4198634Y-15112484D01*
X4198634Y-15112484D02*
X4179586Y-15102960D01*
X4179586Y-15102960D02*
X4170063Y-15093436D01*
X4170063Y-15093436D02*
X4160539Y-15074388D01*
X4160539Y-15074388D02*
X4151015Y-15036293D01*
X4151015Y-15036293D02*
X4151015Y-14988674D01*
X4151015Y-14988674D02*
X4160539Y-14950579D01*
X4160539Y-14950579D02*
X4170063Y-14931531D01*
X4170063Y-14931531D02*
X4179586Y-14922008D01*
X4179586Y-14922008D02*
X4198634Y-14912484D01*
X4351015Y-15093436D02*
X4360539Y-15102960D01*
X4360539Y-15102960D02*
X4351015Y-15112484D01*
X4351015Y-15112484D02*
X4341491Y-15102960D01*
X4341491Y-15102960D02*
X4351015Y-15093436D01*
X4351015Y-15093436D02*
X4351015Y-15112484D01*
X4484348Y-14912484D02*
X4503396Y-14912484D01*
X4503396Y-14912484D02*
X4522444Y-14922008D01*
X4522444Y-14922008D02*
X4531968Y-14931531D01*
X4531968Y-14931531D02*
X4541491Y-14950579D01*
X4541491Y-14950579D02*
X4551015Y-14988674D01*
X4551015Y-14988674D02*
X4551015Y-15036293D01*
X4551015Y-15036293D02*
X4541491Y-15074388D01*
X4541491Y-15074388D02*
X4531968Y-15093436D01*
X4531968Y-15093436D02*
X4522444Y-15102960D01*
X4522444Y-15102960D02*
X4503396Y-15112484D01*
X4503396Y-15112484D02*
X4484348Y-15112484D01*
X4484348Y-15112484D02*
X4465301Y-15102960D01*
X4465301Y-15102960D02*
X4455777Y-15093436D01*
X4455777Y-15093436D02*
X4446253Y-15074388D01*
X4446253Y-15074388D02*
X4436729Y-15036293D01*
X4436729Y-15036293D02*
X4436729Y-14988674D01*
X4436729Y-14988674D02*
X4446253Y-14950579D01*
X4446253Y-14950579D02*
X4455777Y-14931531D01*
X4455777Y-14931531D02*
X4465301Y-14922008D01*
X4465301Y-14922008D02*
X4484348Y-14912484D01*
X4722444Y-14912484D02*
X4684348Y-14912484D01*
X4684348Y-14912484D02*
X4665301Y-14922008D01*
X4665301Y-14922008D02*
X4655777Y-14931531D01*
X4655777Y-14931531D02*
X4636729Y-14960103D01*
X4636729Y-14960103D02*
X4627206Y-14998198D01*
X4627206Y-14998198D02*
X4627206Y-15074388D01*
X4627206Y-15074388D02*
X4636729Y-15093436D01*
X4636729Y-15093436D02*
X4646253Y-15102960D01*
X4646253Y-15102960D02*
X4665301Y-15112484D01*
X4665301Y-15112484D02*
X4703396Y-15112484D01*
X4703396Y-15112484D02*
X4722444Y-15102960D01*
X4722444Y-15102960D02*
X4731968Y-15093436D01*
X4731968Y-15093436D02*
X4741491Y-15074388D01*
X4741491Y-15074388D02*
X4741491Y-15026769D01*
X4741491Y-15026769D02*
X4731968Y-15007722D01*
X4731968Y-15007722D02*
X4722444Y-14998198D01*
X4722444Y-14998198D02*
X4703396Y-14988674D01*
X4703396Y-14988674D02*
X4665301Y-14988674D01*
X4665301Y-14988674D02*
X4646253Y-14998198D01*
X4646253Y-14998198D02*
X4636729Y-15007722D01*
X4636729Y-15007722D02*
X4627206Y-15026769D01*
X4912920Y-14912484D02*
X4874825Y-14912484D01*
X4874825Y-14912484D02*
X4855777Y-14922008D01*
X4855777Y-14922008D02*
X4846253Y-14931531D01*
X4846253Y-14931531D02*
X4827206Y-14960103D01*
X4827206Y-14960103D02*
X4817682Y-14998198D01*
X4817682Y-14998198D02*
X4817682Y-15074388D01*
X4817682Y-15074388D02*
X4827206Y-15093436D01*
X4827206Y-15093436D02*
X4836729Y-15102960D01*
X4836729Y-15102960D02*
X4855777Y-15112484D01*
X4855777Y-15112484D02*
X4893872Y-15112484D01*
X4893872Y-15112484D02*
X4912920Y-15102960D01*
X4912920Y-15102960D02*
X4922444Y-15093436D01*
X4922444Y-15093436D02*
X4931968Y-15074388D01*
X4931968Y-15074388D02*
X4931968Y-15026769D01*
X4931968Y-15026769D02*
X4922444Y-15007722D01*
X4922444Y-15007722D02*
X4912920Y-14998198D01*
X4912920Y-14998198D02*
X4893872Y-14988674D01*
X4893872Y-14988674D02*
X4855777Y-14988674D01*
X4855777Y-14988674D02*
X4836729Y-14998198D01*
X4836729Y-14998198D02*
X4827206Y-15007722D01*
X4827206Y-15007722D02*
X4817682Y-15026769D01*
X5027206Y-15112484D02*
X5065301Y-15112484D01*
X5065301Y-15112484D02*
X5084349Y-15102960D01*
X5084349Y-15102960D02*
X5093872Y-15093436D01*
X5093872Y-15093436D02*
X5112920Y-15064865D01*
X5112920Y-15064865D02*
X5122444Y-15026769D01*
X5122444Y-15026769D02*
X5122444Y-14950579D01*
X5122444Y-14950579D02*
X5112920Y-14931531D01*
X5112920Y-14931531D02*
X5103396Y-14922008D01*
X5103396Y-14922008D02*
X5084349Y-14912484D01*
X5084349Y-14912484D02*
X5046253Y-14912484D01*
X5046253Y-14912484D02*
X5027206Y-14922008D01*
X5027206Y-14922008D02*
X5017682Y-14931531D01*
X5017682Y-14931531D02*
X5008158Y-14950579D01*
X5008158Y-14950579D02*
X5008158Y-14998198D01*
X5008158Y-14998198D02*
X5017682Y-15017246D01*
X5017682Y-15017246D02*
X5027206Y-15026769D01*
X5027206Y-15026769D02*
X5046253Y-15036293D01*
X5046253Y-15036293D02*
X5084349Y-15036293D01*
X5084349Y-15036293D02*
X5103396Y-15026769D01*
X5103396Y-15026769D02*
X5112920Y-15017246D01*
X5112920Y-15017246D02*
X5122444Y-14998198D01*
X5198634Y-14912484D02*
X5198634Y-14950579D01*
X5274825Y-14912484D02*
X5274825Y-14950579D01*
X5570063Y-15188674D02*
X5560539Y-15179150D01*
X5560539Y-15179150D02*
X5541491Y-15150579D01*
X5541491Y-15150579D02*
X5531968Y-15131531D01*
X5531968Y-15131531D02*
X5522444Y-15102960D01*
X5522444Y-15102960D02*
X5512920Y-15055341D01*
X5512920Y-15055341D02*
X5512920Y-15017246D01*
X5512920Y-15017246D02*
X5522444Y-14969627D01*
X5522444Y-14969627D02*
X5531968Y-14941055D01*
X5531968Y-14941055D02*
X5541491Y-14922008D01*
X5541491Y-14922008D02*
X5560539Y-14893436D01*
X5560539Y-14893436D02*
X5570063Y-14883912D01*
X5636729Y-14931531D02*
X5646253Y-14922008D01*
X5646253Y-14922008D02*
X5665301Y-14912484D01*
X5665301Y-14912484D02*
X5712920Y-14912484D01*
X5712920Y-14912484D02*
X5731968Y-14922008D01*
X5731968Y-14922008D02*
X5741491Y-14931531D01*
X5741491Y-14931531D02*
X5751015Y-14950579D01*
X5751015Y-14950579D02*
X5751015Y-14969627D01*
X5751015Y-14969627D02*
X5741491Y-14998198D01*
X5741491Y-14998198D02*
X5627206Y-15112484D01*
X5627206Y-15112484D02*
X5751015Y-15112484D01*
X5989110Y-15112484D02*
X5989110Y-14912484D01*
X6074825Y-15112484D02*
X6074825Y-15007722D01*
X6074825Y-15007722D02*
X6065301Y-14988674D01*
X6065301Y-14988674D02*
X6046253Y-14979150D01*
X6046253Y-14979150D02*
X6017682Y-14979150D01*
X6017682Y-14979150D02*
X5998634Y-14988674D01*
X5998634Y-14988674D02*
X5989110Y-14998198D01*
X6198634Y-15112484D02*
X6179587Y-15102960D01*
X6179587Y-15102960D02*
X6170063Y-15093436D01*
X6170063Y-15093436D02*
X6160539Y-15074388D01*
X6160539Y-15074388D02*
X6160539Y-15017246D01*
X6160539Y-15017246D02*
X6170063Y-14998198D01*
X6170063Y-14998198D02*
X6179587Y-14988674D01*
X6179587Y-14988674D02*
X6198634Y-14979150D01*
X6198634Y-14979150D02*
X6227206Y-14979150D01*
X6227206Y-14979150D02*
X6246253Y-14988674D01*
X6246253Y-14988674D02*
X6255777Y-14998198D01*
X6255777Y-14998198D02*
X6265301Y-15017246D01*
X6265301Y-15017246D02*
X6265301Y-15074388D01*
X6265301Y-15074388D02*
X6255777Y-15093436D01*
X6255777Y-15093436D02*
X6246253Y-15102960D01*
X6246253Y-15102960D02*
X6227206Y-15112484D01*
X6227206Y-15112484D02*
X6198634Y-15112484D01*
X6379587Y-15112484D02*
X6360539Y-15102960D01*
X6360539Y-15102960D02*
X6351015Y-15083912D01*
X6351015Y-15083912D02*
X6351015Y-14912484D01*
X6531968Y-15102960D02*
X6512920Y-15112484D01*
X6512920Y-15112484D02*
X6474825Y-15112484D01*
X6474825Y-15112484D02*
X6455777Y-15102960D01*
X6455777Y-15102960D02*
X6446253Y-15083912D01*
X6446253Y-15083912D02*
X6446253Y-15007722D01*
X6446253Y-15007722D02*
X6455777Y-14988674D01*
X6455777Y-14988674D02*
X6474825Y-14979150D01*
X6474825Y-14979150D02*
X6512920Y-14979150D01*
X6512920Y-14979150D02*
X6531968Y-14988674D01*
X6531968Y-14988674D02*
X6541491Y-15007722D01*
X6541491Y-15007722D02*
X6541491Y-15026769D01*
X6541491Y-15026769D02*
X6446253Y-15045817D01*
X6617682Y-15102960D02*
X6636730Y-15112484D01*
X6636730Y-15112484D02*
X6674825Y-15112484D01*
X6674825Y-15112484D02*
X6693872Y-15102960D01*
X6693872Y-15102960D02*
X6703396Y-15083912D01*
X6703396Y-15083912D02*
X6703396Y-15074388D01*
X6703396Y-15074388D02*
X6693872Y-15055341D01*
X6693872Y-15055341D02*
X6674825Y-15045817D01*
X6674825Y-15045817D02*
X6646253Y-15045817D01*
X6646253Y-15045817D02*
X6627206Y-15036293D01*
X6627206Y-15036293D02*
X6617682Y-15017246D01*
X6617682Y-15017246D02*
X6617682Y-15007722D01*
X6617682Y-15007722D02*
X6627206Y-14988674D01*
X6627206Y-14988674D02*
X6646253Y-14979150D01*
X6646253Y-14979150D02*
X6674825Y-14979150D01*
X6674825Y-14979150D02*
X6693872Y-14988674D01*
X6770063Y-15188674D02*
X6779587Y-15179150D01*
X6779587Y-15179150D02*
X6798634Y-15150579D01*
X6798634Y-15150579D02*
X6808158Y-15131531D01*
X6808158Y-15131531D02*
X6817682Y-15102960D01*
X6817682Y-15102960D02*
X6827206Y-15055341D01*
X6827206Y-15055341D02*
X6827206Y-15017246D01*
X6827206Y-15017246D02*
X6817682Y-14969627D01*
X6817682Y-14969627D02*
X6808158Y-14941055D01*
X6808158Y-14941055D02*
X6798634Y-14922008D01*
X6798634Y-14922008D02*
X6779587Y-14893436D01*
X6779587Y-14893436D02*
X6770063Y-14883912D01*
X1965711Y-15381711D02*
X1965711Y-15240289D01*
X1824289Y-15240289D01*
X1824289Y-15381711D01*
X1965711Y-15381711D01*
X1995000Y-15311000D02*
G75*
G02*
X1795000Y-15311000I-100000J0D01*
G01*
X1795000Y-15311000D02*
G75*
G02*
X1995000Y-15311000I100000J0D01*
G01*
X2341491Y-15269150D02*
X2341491Y-15402484D01*
X2293872Y-15192960D02*
X2246253Y-15335817D01*
X2246253Y-15335817D02*
X2370063Y-15335817D01*
X2446253Y-15383436D02*
X2455777Y-15392960D01*
X2455777Y-15392960D02*
X2446253Y-15402484D01*
X2446253Y-15402484D02*
X2436729Y-15392960D01*
X2436729Y-15392960D02*
X2446253Y-15383436D01*
X2446253Y-15383436D02*
X2446253Y-15402484D01*
X2522444Y-15202484D02*
X2646253Y-15202484D01*
X2646253Y-15202484D02*
X2579586Y-15278674D01*
X2579586Y-15278674D02*
X2608158Y-15278674D01*
X2608158Y-15278674D02*
X2627205Y-15288198D01*
X2627205Y-15288198D02*
X2636729Y-15297722D01*
X2636729Y-15297722D02*
X2646253Y-15316769D01*
X2646253Y-15316769D02*
X2646253Y-15364388D01*
X2646253Y-15364388D02*
X2636729Y-15383436D01*
X2636729Y-15383436D02*
X2627205Y-15392960D01*
X2627205Y-15392960D02*
X2608158Y-15402484D01*
X2608158Y-15402484D02*
X2551015Y-15402484D01*
X2551015Y-15402484D02*
X2531967Y-15392960D01*
X2531967Y-15392960D02*
X2522444Y-15383436D01*
X2770063Y-15202484D02*
X2789110Y-15202484D01*
X2789110Y-15202484D02*
X2808158Y-15212008D01*
X2808158Y-15212008D02*
X2817682Y-15221531D01*
X2817682Y-15221531D02*
X2827205Y-15240579D01*
X2827205Y-15240579D02*
X2836729Y-15278674D01*
X2836729Y-15278674D02*
X2836729Y-15326293D01*
X2836729Y-15326293D02*
X2827205Y-15364388D01*
X2827205Y-15364388D02*
X2817682Y-15383436D01*
X2817682Y-15383436D02*
X2808158Y-15392960D01*
X2808158Y-15392960D02*
X2789110Y-15402484D01*
X2789110Y-15402484D02*
X2770063Y-15402484D01*
X2770063Y-15402484D02*
X2751015Y-15392960D01*
X2751015Y-15392960D02*
X2741491Y-15383436D01*
X2741491Y-15383436D02*
X2731967Y-15364388D01*
X2731967Y-15364388D02*
X2722444Y-15326293D01*
X2722444Y-15326293D02*
X2722444Y-15278674D01*
X2722444Y-15278674D02*
X2731967Y-15240579D01*
X2731967Y-15240579D02*
X2741491Y-15221531D01*
X2741491Y-15221531D02*
X2751015Y-15212008D01*
X2751015Y-15212008D02*
X2770063Y-15202484D01*
X2960539Y-15202484D02*
X2979586Y-15202484D01*
X2979586Y-15202484D02*
X2998634Y-15212008D01*
X2998634Y-15212008D02*
X3008158Y-15221531D01*
X3008158Y-15221531D02*
X3017682Y-15240579D01*
X3017682Y-15240579D02*
X3027205Y-15278674D01*
X3027205Y-15278674D02*
X3027205Y-15326293D01*
X3027205Y-15326293D02*
X3017682Y-15364388D01*
X3017682Y-15364388D02*
X3008158Y-15383436D01*
X3008158Y-15383436D02*
X2998634Y-15392960D01*
X2998634Y-15392960D02*
X2979586Y-15402484D01*
X2979586Y-15402484D02*
X2960539Y-15402484D01*
X2960539Y-15402484D02*
X2941491Y-15392960D01*
X2941491Y-15392960D02*
X2931967Y-15383436D01*
X2931967Y-15383436D02*
X2922443Y-15364388D01*
X2922443Y-15364388D02*
X2912920Y-15326293D01*
X2912920Y-15326293D02*
X2912920Y-15278674D01*
X2912920Y-15278674D02*
X2922443Y-15240579D01*
X2922443Y-15240579D02*
X2931967Y-15221531D01*
X2931967Y-15221531D02*
X2941491Y-15212008D01*
X2941491Y-15212008D02*
X2960539Y-15202484D01*
X3112920Y-15402484D02*
X3112920Y-15269150D01*
X3112920Y-15288198D02*
X3122443Y-15278674D01*
X3122443Y-15278674D02*
X3141491Y-15269150D01*
X3141491Y-15269150D02*
X3170063Y-15269150D01*
X3170063Y-15269150D02*
X3189110Y-15278674D01*
X3189110Y-15278674D02*
X3198634Y-15297722D01*
X3198634Y-15297722D02*
X3198634Y-15402484D01*
X3198634Y-15297722D02*
X3208158Y-15278674D01*
X3208158Y-15278674D02*
X3227205Y-15269150D01*
X3227205Y-15269150D02*
X3255777Y-15269150D01*
X3255777Y-15269150D02*
X3274824Y-15278674D01*
X3274824Y-15278674D02*
X3284348Y-15297722D01*
X3284348Y-15297722D02*
X3284348Y-15402484D01*
X3379586Y-15402484D02*
X3379586Y-15269150D01*
X3379586Y-15288198D02*
X3389110Y-15278674D01*
X3389110Y-15278674D02*
X3408158Y-15269150D01*
X3408158Y-15269150D02*
X3436729Y-15269150D01*
X3436729Y-15269150D02*
X3455777Y-15278674D01*
X3455777Y-15278674D02*
X3465301Y-15297722D01*
X3465301Y-15297722D02*
X3465301Y-15402484D01*
X3465301Y-15297722D02*
X3474824Y-15278674D01*
X3474824Y-15278674D02*
X3493872Y-15269150D01*
X3493872Y-15269150D02*
X3522443Y-15269150D01*
X3522443Y-15269150D02*
X3541491Y-15278674D01*
X3541491Y-15278674D02*
X3551015Y-15297722D01*
X3551015Y-15297722D02*
X3551015Y-15402484D01*
X3941491Y-15192960D02*
X3770063Y-15450103D01*
X4198634Y-15202484D02*
X4217682Y-15202484D01*
X4217682Y-15202484D02*
X4236729Y-15212008D01*
X4236729Y-15212008D02*
X4246253Y-15221531D01*
X4246253Y-15221531D02*
X4255777Y-15240579D01*
X4255777Y-15240579D02*
X4265301Y-15278674D01*
X4265301Y-15278674D02*
X4265301Y-15326293D01*
X4265301Y-15326293D02*
X4255777Y-15364388D01*
X4255777Y-15364388D02*
X4246253Y-15383436D01*
X4246253Y-15383436D02*
X4236729Y-15392960D01*
X4236729Y-15392960D02*
X4217682Y-15402484D01*
X4217682Y-15402484D02*
X4198634Y-15402484D01*
X4198634Y-15402484D02*
X4179586Y-15392960D01*
X4179586Y-15392960D02*
X4170063Y-15383436D01*
X4170063Y-15383436D02*
X4160539Y-15364388D01*
X4160539Y-15364388D02*
X4151015Y-15326293D01*
X4151015Y-15326293D02*
X4151015Y-15278674D01*
X4151015Y-15278674D02*
X4160539Y-15240579D01*
X4160539Y-15240579D02*
X4170063Y-15221531D01*
X4170063Y-15221531D02*
X4179586Y-15212008D01*
X4179586Y-15212008D02*
X4198634Y-15202484D01*
X4351015Y-15383436D02*
X4360539Y-15392960D01*
X4360539Y-15392960D02*
X4351015Y-15402484D01*
X4351015Y-15402484D02*
X4341491Y-15392960D01*
X4341491Y-15392960D02*
X4351015Y-15383436D01*
X4351015Y-15383436D02*
X4351015Y-15402484D01*
X4551015Y-15402484D02*
X4436729Y-15402484D01*
X4493872Y-15402484D02*
X4493872Y-15202484D01*
X4493872Y-15202484D02*
X4474825Y-15231055D01*
X4474825Y-15231055D02*
X4455777Y-15250103D01*
X4455777Y-15250103D02*
X4436729Y-15259627D01*
X4722444Y-15202484D02*
X4684348Y-15202484D01*
X4684348Y-15202484D02*
X4665301Y-15212008D01*
X4665301Y-15212008D02*
X4655777Y-15221531D01*
X4655777Y-15221531D02*
X4636729Y-15250103D01*
X4636729Y-15250103D02*
X4627206Y-15288198D01*
X4627206Y-15288198D02*
X4627206Y-15364388D01*
X4627206Y-15364388D02*
X4636729Y-15383436D01*
X4636729Y-15383436D02*
X4646253Y-15392960D01*
X4646253Y-15392960D02*
X4665301Y-15402484D01*
X4665301Y-15402484D02*
X4703396Y-15402484D01*
X4703396Y-15402484D02*
X4722444Y-15392960D01*
X4722444Y-15392960D02*
X4731968Y-15383436D01*
X4731968Y-15383436D02*
X4741491Y-15364388D01*
X4741491Y-15364388D02*
X4741491Y-15316769D01*
X4741491Y-15316769D02*
X4731968Y-15297722D01*
X4731968Y-15297722D02*
X4722444Y-15288198D01*
X4722444Y-15288198D02*
X4703396Y-15278674D01*
X4703396Y-15278674D02*
X4665301Y-15278674D01*
X4665301Y-15278674D02*
X4646253Y-15288198D01*
X4646253Y-15288198D02*
X4636729Y-15297722D01*
X4636729Y-15297722D02*
X4627206Y-15316769D01*
X4836729Y-15402484D02*
X4874825Y-15402484D01*
X4874825Y-15402484D02*
X4893872Y-15392960D01*
X4893872Y-15392960D02*
X4903396Y-15383436D01*
X4903396Y-15383436D02*
X4922444Y-15354865D01*
X4922444Y-15354865D02*
X4931968Y-15316769D01*
X4931968Y-15316769D02*
X4931968Y-15240579D01*
X4931968Y-15240579D02*
X4922444Y-15221531D01*
X4922444Y-15221531D02*
X4912920Y-15212008D01*
X4912920Y-15212008D02*
X4893872Y-15202484D01*
X4893872Y-15202484D02*
X4855777Y-15202484D01*
X4855777Y-15202484D02*
X4836729Y-15212008D01*
X4836729Y-15212008D02*
X4827206Y-15221531D01*
X4827206Y-15221531D02*
X4817682Y-15240579D01*
X4817682Y-15240579D02*
X4817682Y-15288198D01*
X4817682Y-15288198D02*
X4827206Y-15307246D01*
X4827206Y-15307246D02*
X4836729Y-15316769D01*
X4836729Y-15316769D02*
X4855777Y-15326293D01*
X4855777Y-15326293D02*
X4893872Y-15326293D01*
X4893872Y-15326293D02*
X4912920Y-15316769D01*
X4912920Y-15316769D02*
X4922444Y-15307246D01*
X4922444Y-15307246D02*
X4931968Y-15288198D01*
X4998634Y-15202484D02*
X5122444Y-15202484D01*
X5122444Y-15202484D02*
X5055777Y-15278674D01*
X5055777Y-15278674D02*
X5084349Y-15278674D01*
X5084349Y-15278674D02*
X5103396Y-15288198D01*
X5103396Y-15288198D02*
X5112920Y-15297722D01*
X5112920Y-15297722D02*
X5122444Y-15316769D01*
X5122444Y-15316769D02*
X5122444Y-15364388D01*
X5122444Y-15364388D02*
X5112920Y-15383436D01*
X5112920Y-15383436D02*
X5103396Y-15392960D01*
X5103396Y-15392960D02*
X5084349Y-15402484D01*
X5084349Y-15402484D02*
X5027206Y-15402484D01*
X5027206Y-15402484D02*
X5008158Y-15392960D01*
X5008158Y-15392960D02*
X4998634Y-15383436D01*
X5198634Y-15202484D02*
X5198634Y-15240579D01*
X5274825Y-15202484D02*
X5274825Y-15240579D01*
X5570063Y-15478674D02*
X5560539Y-15469150D01*
X5560539Y-15469150D02*
X5541491Y-15440579D01*
X5541491Y-15440579D02*
X5531968Y-15421531D01*
X5531968Y-15421531D02*
X5522444Y-15392960D01*
X5522444Y-15392960D02*
X5512920Y-15345341D01*
X5512920Y-15345341D02*
X5512920Y-15307246D01*
X5512920Y-15307246D02*
X5522444Y-15259627D01*
X5522444Y-15259627D02*
X5531968Y-15231055D01*
X5531968Y-15231055D02*
X5541491Y-15212008D01*
X5541491Y-15212008D02*
X5560539Y-15183436D01*
X5560539Y-15183436D02*
X5570063Y-15173912D01*
X5731968Y-15269150D02*
X5731968Y-15402484D01*
X5684348Y-15192960D02*
X5636729Y-15335817D01*
X5636729Y-15335817D02*
X5760539Y-15335817D01*
X5989110Y-15402484D02*
X5989110Y-15202484D01*
X6074825Y-15402484D02*
X6074825Y-15297722D01*
X6074825Y-15297722D02*
X6065301Y-15278674D01*
X6065301Y-15278674D02*
X6046253Y-15269150D01*
X6046253Y-15269150D02*
X6017682Y-15269150D01*
X6017682Y-15269150D02*
X5998634Y-15278674D01*
X5998634Y-15278674D02*
X5989110Y-15288198D01*
X6198634Y-15402484D02*
X6179587Y-15392960D01*
X6179587Y-15392960D02*
X6170063Y-15383436D01*
X6170063Y-15383436D02*
X6160539Y-15364388D01*
X6160539Y-15364388D02*
X6160539Y-15307246D01*
X6160539Y-15307246D02*
X6170063Y-15288198D01*
X6170063Y-15288198D02*
X6179587Y-15278674D01*
X6179587Y-15278674D02*
X6198634Y-15269150D01*
X6198634Y-15269150D02*
X6227206Y-15269150D01*
X6227206Y-15269150D02*
X6246253Y-15278674D01*
X6246253Y-15278674D02*
X6255777Y-15288198D01*
X6255777Y-15288198D02*
X6265301Y-15307246D01*
X6265301Y-15307246D02*
X6265301Y-15364388D01*
X6265301Y-15364388D02*
X6255777Y-15383436D01*
X6255777Y-15383436D02*
X6246253Y-15392960D01*
X6246253Y-15392960D02*
X6227206Y-15402484D01*
X6227206Y-15402484D02*
X6198634Y-15402484D01*
X6379587Y-15402484D02*
X6360539Y-15392960D01*
X6360539Y-15392960D02*
X6351015Y-15373912D01*
X6351015Y-15373912D02*
X6351015Y-15202484D01*
X6531968Y-15392960D02*
X6512920Y-15402484D01*
X6512920Y-15402484D02*
X6474825Y-15402484D01*
X6474825Y-15402484D02*
X6455777Y-15392960D01*
X6455777Y-15392960D02*
X6446253Y-15373912D01*
X6446253Y-15373912D02*
X6446253Y-15297722D01*
X6446253Y-15297722D02*
X6455777Y-15278674D01*
X6455777Y-15278674D02*
X6474825Y-15269150D01*
X6474825Y-15269150D02*
X6512920Y-15269150D01*
X6512920Y-15269150D02*
X6531968Y-15278674D01*
X6531968Y-15278674D02*
X6541491Y-15297722D01*
X6541491Y-15297722D02*
X6541491Y-15316769D01*
X6541491Y-15316769D02*
X6446253Y-15335817D01*
X6617682Y-15392960D02*
X6636730Y-15402484D01*
X6636730Y-15402484D02*
X6674825Y-15402484D01*
X6674825Y-15402484D02*
X6693872Y-15392960D01*
X6693872Y-15392960D02*
X6703396Y-15373912D01*
X6703396Y-15373912D02*
X6703396Y-15364388D01*
X6703396Y-15364388D02*
X6693872Y-15345341D01*
X6693872Y-15345341D02*
X6674825Y-15335817D01*
X6674825Y-15335817D02*
X6646253Y-15335817D01*
X6646253Y-15335817D02*
X6627206Y-15326293D01*
X6627206Y-15326293D02*
X6617682Y-15307246D01*
X6617682Y-15307246D02*
X6617682Y-15297722D01*
X6617682Y-15297722D02*
X6627206Y-15278674D01*
X6627206Y-15278674D02*
X6646253Y-15269150D01*
X6646253Y-15269150D02*
X6674825Y-15269150D01*
X6674825Y-15269150D02*
X6693872Y-15278674D01*
X6770063Y-15478674D02*
X6779587Y-15469150D01*
X6779587Y-15469150D02*
X6798634Y-15440579D01*
X6798634Y-15440579D02*
X6808158Y-15421531D01*
X6808158Y-15421531D02*
X6817682Y-15392960D01*
X6817682Y-15392960D02*
X6827206Y-15345341D01*
X6827206Y-15345341D02*
X6827206Y-15307246D01*
X6827206Y-15307246D02*
X6817682Y-15259627D01*
X6817682Y-15259627D02*
X6808158Y-15231055D01*
X6808158Y-15231055D02*
X6798634Y-15212008D01*
X6798634Y-15212008D02*
X6779587Y-15183436D01*
X6779587Y-15183436D02*
X6770063Y-15173912D01*
M02*
