%TF.GenerationSoftware,KiCad,Pcbnew,8.0.1*%
%TF.CreationDate,2024-04-14T04:19:50-04:00*%
%TF.ProjectId,LCC_Booster,4c43435f-426f-46f7-9374-65722e6b6963,rev?*%
%TF.SameCoordinates,Original*%
%TF.FileFunction,Soldermask,Bot*%
%TF.FilePolarity,Negative*%
%FSLAX46Y46*%
G04 Gerber Fmt 4.6, Leading zero omitted, Abs format (unit mm)*
G04 Created by KiCad (PCBNEW 8.0.1) date 2024-04-14 04:19:50*
%MOMM*%
%LPD*%
G01*
G04 APERTURE LIST*
G04 Aperture macros list*
%AMRoundRect*
0 Rectangle with rounded corners*
0 $1 Rounding radius*
0 $2 $3 $4 $5 $6 $7 $8 $9 X,Y pos of 4 corners*
0 Add a 4 corners polygon primitive as box body*
4,1,4,$2,$3,$4,$5,$6,$7,$8,$9,$2,$3,0*
0 Add four circle primitives for the rounded corners*
1,1,$1+$1,$2,$3*
1,1,$1+$1,$4,$5*
1,1,$1+$1,$6,$7*
1,1,$1+$1,$8,$9*
0 Add four rect primitives between the rounded corners*
20,1,$1+$1,$2,$3,$4,$5,0*
20,1,$1+$1,$4,$5,$6,$7,0*
20,1,$1+$1,$6,$7,$8,$9,0*
20,1,$1+$1,$8,$9,$2,$3,0*%
G04 Aperture macros list end*
%ADD10R,2.600000X2.600000*%
%ADD11C,2.600000*%
%ADD12R,1.600000X1.600000*%
%ADD13O,1.600000X1.600000*%
%ADD14C,3.250000*%
%ADD15C,1.704000*%
%ADD16C,2.504000*%
%ADD17RoundRect,0.250000X0.450000X-0.450000X0.450000X0.450000X-0.450000X0.450000X-0.450000X-0.450000X0*%
%ADD18C,1.400000*%
%ADD19C,2.000000*%
%ADD20C,1.500000*%
%ADD21C,1.600000*%
%ADD22R,2.000000X4.000000*%
%ADD23O,2.000000X3.300000*%
%ADD24O,3.500000X2.000000*%
G04 APERTURE END LIST*
D10*
%TO.C,J5*%
X26000000Y-113000000D03*
D11*
X26000000Y-108000000D03*
%TD*%
D10*
%TO.C,J4*%
X26000000Y-32000000D03*
D11*
X26000000Y-27000000D03*
%TD*%
D12*
%TO.C,A1*%
X128140000Y-52390000D03*
D13*
X130680000Y-52390000D03*
X133220000Y-52390000D03*
X135760000Y-52390000D03*
X138300000Y-52390000D03*
X140840000Y-52390000D03*
X143380000Y-52390000D03*
X145920000Y-52390000D03*
X148460000Y-52390000D03*
X151000000Y-52390000D03*
X153540000Y-52390000D03*
X156080000Y-52390000D03*
X158620000Y-52390000D03*
X161160000Y-52390000D03*
X163700000Y-52390000D03*
X163700000Y-37150000D03*
X161160000Y-37150000D03*
X158620000Y-37150000D03*
X156080000Y-37150000D03*
X153540000Y-37150000D03*
X151000000Y-37150000D03*
X148460000Y-37150000D03*
X145920000Y-37150000D03*
X143380000Y-37150000D03*
X140840000Y-37150000D03*
X138300000Y-37150000D03*
X135760000Y-37150000D03*
X133220000Y-37150000D03*
X130680000Y-37150000D03*
X128140000Y-37150000D03*
%TD*%
D10*
%TO.C,J3*%
X26305000Y-87500000D03*
D11*
X26305000Y-82500000D03*
X26305000Y-77500000D03*
X26305000Y-72500000D03*
X26305000Y-67500000D03*
X26305000Y-62500000D03*
X26305000Y-57500000D03*
X26305000Y-52500000D03*
%TD*%
D14*
%TO.C,J1*%
X159320000Y-112350000D03*
X159320000Y-86950000D03*
D15*
X152970000Y-111080000D03*
X150430000Y-109810000D03*
X152970000Y-108540000D03*
X150430000Y-107270000D03*
X152970000Y-106000000D03*
X150430000Y-104730000D03*
X152970000Y-103460000D03*
X150430000Y-102190000D03*
X152970000Y-97110000D03*
X150430000Y-95840000D03*
X152970000Y-94570000D03*
X150430000Y-93300000D03*
X152970000Y-92030000D03*
X150430000Y-90760000D03*
X152970000Y-89490000D03*
X150430000Y-88220000D03*
D16*
X163000000Y-115150000D03*
X163000000Y-84150000D03*
%TD*%
D17*
%TO.C,SW2*%
X124700000Y-68150000D03*
D18*
X124700000Y-65650000D03*
X124700000Y-63150000D03*
X128000000Y-63150000D03*
X128000000Y-65650000D03*
X128000000Y-68150000D03*
%TD*%
D19*
%TO.C,SW1*%
X131750000Y-75400000D03*
X138250000Y-75400000D03*
X131750000Y-79900000D03*
X138250000Y-79900000D03*
%TD*%
D20*
%TO.C,Y1*%
X144545000Y-63255000D03*
X144545000Y-65695000D03*
X144545000Y-68135000D03*
%TD*%
D21*
%TO.C,J2*%
X167500000Y-27650000D03*
D22*
X158500000Y-27650000D03*
D23*
X164500000Y-27650000D03*
D24*
X165500000Y-23150000D03*
X165500000Y-32150000D03*
%TD*%
M02*
