%TF.GenerationSoftware,KiCad,Pcbnew,8.0.5*%
%TF.CreationDate,2024-09-14T01:32:45-04:00*%
%TF.ProjectId,LCC_Booster,4c43435f-426f-46f7-9374-65722e6b6963,4*%
%TF.SameCoordinates,Original*%
%TF.FileFunction,Soldermask,Bot*%
%TF.FilePolarity,Negative*%
%FSLAX46Y46*%
G04 Gerber Fmt 4.6, Leading zero omitted, Abs format (unit mm)*
G04 Created by KiCad (PCBNEW 8.0.5) date 2024-09-14 01:32:45*
%MOMM*%
%LPD*%
G01*
G04 APERTURE LIST*
G04 Aperture macros list*
%AMFreePoly0*
4,1,19,0.500000,-0.750000,0.000000,-0.750000,0.000000,-0.744911,-0.071157,-0.744911,-0.207708,-0.704816,-0.327430,-0.627875,-0.420627,-0.520320,-0.479746,-0.390866,-0.500000,-0.250000,-0.500000,0.250000,-0.479746,0.390866,-0.420627,0.520320,-0.327430,0.627875,-0.207708,0.704816,-0.071157,0.744911,0.000000,0.744911,0.000000,0.750000,0.500000,0.750000,0.500000,-0.750000,0.500000,-0.750000,
$1*%
%AMFreePoly1*
4,1,19,0.000000,0.744911,0.071157,0.744911,0.207708,0.704816,0.327430,0.627875,0.420627,0.520320,0.479746,0.390866,0.500000,0.250000,0.500000,-0.250000,0.479746,-0.390866,0.420627,-0.520320,0.327430,-0.627875,0.207708,-0.704816,0.071157,-0.744911,0.000000,-0.744911,0.000000,-0.750000,-0.500000,-0.750000,-0.500000,0.750000,0.000000,0.750000,0.000000,0.744911,0.000000,0.744911,
$1*%
G04 Aperture macros list end*
%ADD10C,2.000000*%
%ADD11C,0.900000*%
%ADD12C,8.600000*%
%ADD13C,1.234000*%
%ADD14R,1.600000X1.600000*%
%ADD15O,1.600000X1.600000*%
%ADD16O,3.804000X1.604000*%
%ADD17O,1.604000X3.804000*%
%ADD18R,2.600000X2.600000*%
%ADD19C,2.600000*%
%ADD20C,3.250000*%
%ADD21C,1.704000*%
%ADD22C,2.504000*%
%ADD23FreePoly0,0.000000*%
%ADD24FreePoly1,0.000000*%
G04 APERTURE END LIST*
D10*
%TO.C,SW1*%
X66500000Y-36000000D03*
X66500000Y-29500000D03*
X71000000Y-36000000D03*
X71000000Y-29500000D03*
%TD*%
D11*
%TO.C,H1*%
X26775000Y-30000000D03*
X27719581Y-27719581D03*
X27719581Y-32280419D03*
X30000000Y-26775000D03*
D12*
X30000000Y-30000000D03*
D11*
X30000000Y-33225000D03*
X32280419Y-27719581D03*
X32280419Y-32280419D03*
X33225000Y-30000000D03*
%TD*%
%TO.C,H4*%
X26775000Y-110000000D03*
X27719581Y-107719581D03*
X27719581Y-112280419D03*
X30000000Y-106775000D03*
D12*
X30000000Y-110000000D03*
D11*
X30000000Y-113225000D03*
X32280419Y-107719581D03*
X32280419Y-112280419D03*
X33225000Y-110000000D03*
%TD*%
D13*
%TO.C,Y1*%
X106177328Y-68018861D03*
X103677328Y-68018861D03*
%TD*%
D14*
%TO.C,A1*%
X68950000Y-55610000D03*
D15*
X71490000Y-55610000D03*
X74030000Y-55610000D03*
X76570000Y-55610000D03*
X79110000Y-55610000D03*
X81650000Y-55610000D03*
X84190000Y-55610000D03*
X86730000Y-55610000D03*
X89270000Y-55610000D03*
X91810000Y-55610000D03*
X94350000Y-55610000D03*
X96890000Y-55610000D03*
X99430000Y-55610000D03*
X101970000Y-55610000D03*
X104510000Y-55610000D03*
X104510000Y-40370000D03*
X101970000Y-40370000D03*
X99430000Y-40370000D03*
X96890000Y-40370000D03*
X94350000Y-40370000D03*
X91810000Y-40370000D03*
X89270000Y-40370000D03*
X86730000Y-40370000D03*
X84190000Y-40370000D03*
X81650000Y-40370000D03*
X79110000Y-40370000D03*
X76570000Y-40370000D03*
X74030000Y-40370000D03*
X71490000Y-40370000D03*
X68950000Y-40370000D03*
%TD*%
D16*
%TO.C,J2*%
X88000000Y-33250000D03*
X88000000Y-27000000D03*
D17*
X83200000Y-30250000D03*
%TD*%
D11*
%TO.C,H3*%
X96775000Y-110000000D03*
X97719581Y-107719581D03*
X97719581Y-112280419D03*
X100000000Y-106775000D03*
D12*
X100000000Y-110000000D03*
D11*
X100000000Y-113225000D03*
X102280419Y-107719581D03*
X102280419Y-112280419D03*
X103225000Y-110000000D03*
%TD*%
%TO.C,H2*%
X96775000Y-30000000D03*
X97719581Y-27719581D03*
X97719581Y-32280419D03*
X100000000Y-26775000D03*
D12*
X100000000Y-30000000D03*
D11*
X100000000Y-33225000D03*
X102280419Y-27719581D03*
X102280419Y-32280419D03*
X103225000Y-30000000D03*
%TD*%
D18*
%TO.C,J3*%
X24305000Y-97500000D03*
D19*
X24305000Y-92500000D03*
X24305000Y-87500000D03*
X24305000Y-82500000D03*
X24305000Y-77500000D03*
X24305000Y-72500000D03*
X24305000Y-67500000D03*
X24305000Y-62500000D03*
X24305000Y-57500000D03*
X24305000Y-52500000D03*
X24305000Y-47500000D03*
X24305000Y-42500000D03*
%TD*%
D20*
%TO.C,J1*%
X99745000Y-101200000D03*
X99745000Y-75800000D03*
D21*
X93395000Y-99930000D03*
X90855000Y-98660000D03*
X93395000Y-97390000D03*
X90855000Y-96120000D03*
X93395000Y-94850000D03*
X90855000Y-93580000D03*
X93395000Y-92310000D03*
X90855000Y-91040000D03*
X93395000Y-85960000D03*
X90855000Y-84690000D03*
X93395000Y-83420000D03*
X90855000Y-82150000D03*
X93395000Y-80880000D03*
X90855000Y-79610000D03*
X93395000Y-78340000D03*
X90855000Y-77070000D03*
D22*
X103425000Y-104000000D03*
X103425000Y-73000000D03*
%TD*%
D23*
%TO.C,JP10*%
X50791583Y-36831087D03*
D24*
X52091583Y-36831087D03*
%TD*%
D23*
%TO.C,JP11*%
X50791583Y-31831087D03*
D24*
X52091583Y-31831087D03*
%TD*%
D23*
%TO.C,JP12*%
X50791583Y-26831087D03*
D24*
X52091583Y-26831087D03*
%TD*%
M02*
