%TF.GenerationSoftware,KiCad,Pcbnew,8.0.2*%
%TF.CreationDate,2024-05-02T21:15:33-05:00*%
%TF.ProjectId,LCC_Booster,4c43435f-426f-46f7-9374-65722e6b6963,rev?*%
%TF.SameCoordinates,Original*%
%TF.FileFunction,Paste,Top*%
%TF.FilePolarity,Positive*%
%FSLAX46Y46*%
G04 Gerber Fmt 4.6, Leading zero omitted, Abs format (unit mm)*
G04 Created by KiCad (PCBNEW 8.0.2) date 2024-05-02 21:15:33*
%MOMM*%
%LPD*%
G01*
G04 APERTURE LIST*
G04 Aperture macros list*
%AMRoundRect*
0 Rectangle with rounded corners*
0 $1 Rounding radius*
0 $2 $3 $4 $5 $6 $7 $8 $9 X,Y pos of 4 corners*
0 Add a 4 corners polygon primitive as box body*
4,1,4,$2,$3,$4,$5,$6,$7,$8,$9,$2,$3,0*
0 Add four circle primitives for the rounded corners*
1,1,$1+$1,$2,$3*
1,1,$1+$1,$4,$5*
1,1,$1+$1,$6,$7*
1,1,$1+$1,$8,$9*
0 Add four rect primitives between the rounded corners*
20,1,$1+$1,$2,$3,$4,$5,0*
20,1,$1+$1,$4,$5,$6,$7,0*
20,1,$1+$1,$6,$7,$8,$9,0*
20,1,$1+$1,$8,$9,$2,$3,0*%
G04 Aperture macros list end*
%ADD10C,0.000000*%
%ADD11RoundRect,0.067500X-0.137500X-0.067500X0.137500X-0.067500X0.137500X0.067500X-0.137500X0.067500X0*%
%ADD12RoundRect,0.155000X-0.212500X-0.155000X0.212500X-0.155000X0.212500X0.155000X-0.212500X0.155000X0*%
%ADD13RoundRect,0.155000X0.155000X-0.212500X0.155000X0.212500X-0.155000X0.212500X-0.155000X-0.212500X0*%
%ADD14RoundRect,0.150000X0.825000X0.150000X-0.825000X0.150000X-0.825000X-0.150000X0.825000X-0.150000X0*%
%ADD15RoundRect,0.155000X-0.155000X0.212500X-0.155000X-0.212500X0.155000X-0.212500X0.155000X0.212500X0*%
%ADD16RoundRect,0.155000X0.212500X0.155000X-0.212500X0.155000X-0.212500X-0.155000X0.212500X-0.155000X0*%
%ADD17RoundRect,0.250000X-0.650000X0.412500X-0.650000X-0.412500X0.650000X-0.412500X0.650000X0.412500X0*%
%ADD18RoundRect,0.067500X0.137500X0.067500X-0.137500X0.067500X-0.137500X-0.067500X0.137500X-0.067500X0*%
%ADD19RoundRect,0.067500X0.067500X-0.137500X0.067500X0.137500X-0.067500X0.137500X-0.067500X-0.137500X0*%
%ADD20RoundRect,0.150000X-0.150000X0.825000X-0.150000X-0.825000X0.150000X-0.825000X0.150000X0.825000X0*%
%ADD21R,0.449999X1.500000*%
%ADD22R,5.000000X3.400001*%
%ADD23RoundRect,0.067500X-0.067500X0.137500X-0.067500X-0.137500X0.067500X-0.137500X0.067500X0.137500X0*%
%ADD24RoundRect,0.150000X0.150000X-0.587500X0.150000X0.587500X-0.150000X0.587500X-0.150000X-0.587500X0*%
%ADD25RoundRect,0.150000X0.150000X-0.662500X0.150000X0.662500X-0.150000X0.662500X-0.150000X-0.662500X0*%
%ADD26RoundRect,0.150000X0.587500X0.150000X-0.587500X0.150000X-0.587500X-0.150000X0.587500X-0.150000X0*%
%ADD27RoundRect,0.150000X-0.587500X-0.150000X0.587500X-0.150000X0.587500X0.150000X-0.587500X0.150000X0*%
%ADD28RoundRect,0.150000X-0.875000X-0.150000X0.875000X-0.150000X0.875000X0.150000X-0.875000X0.150000X0*%
G04 APERTURE END LIST*
D10*
%TO.C,U21*%
G36*
X41155399Y-96520945D02*
G01*
X41164629Y-96523744D01*
X41173133Y-96528290D01*
X41180591Y-96534409D01*
X41186710Y-96541867D01*
X41191256Y-96550371D01*
X41194055Y-96559601D01*
X41195000Y-96569200D01*
X41195000Y-98930800D01*
X41194055Y-98940399D01*
X41191256Y-98949629D01*
X41186710Y-98958133D01*
X41180591Y-98965591D01*
X41173133Y-98971710D01*
X41164629Y-98976256D01*
X41155399Y-98979055D01*
X41145800Y-98980000D01*
X37694200Y-98980000D01*
X37684601Y-98979055D01*
X37675371Y-98976256D01*
X37666867Y-98971710D01*
X37659409Y-98965591D01*
X37653290Y-98958133D01*
X37648744Y-98949629D01*
X37645945Y-98940399D01*
X37645000Y-98930800D01*
X37645000Y-96569200D01*
X37645945Y-96559601D01*
X37648744Y-96550371D01*
X37653290Y-96541867D01*
X37659409Y-96534409D01*
X37666867Y-96528290D01*
X37675371Y-96523744D01*
X37684601Y-96520945D01*
X37694200Y-96520000D01*
X41145800Y-96520000D01*
X41155399Y-96520945D01*
G37*
%TO.C,U6*%
G36*
X41155399Y-42520945D02*
G01*
X41164629Y-42523744D01*
X41173133Y-42528290D01*
X41180591Y-42534409D01*
X41186710Y-42541867D01*
X41191256Y-42550371D01*
X41194055Y-42559601D01*
X41195000Y-42569200D01*
X41195000Y-44930800D01*
X41194055Y-44940399D01*
X41191256Y-44949629D01*
X41186710Y-44958133D01*
X41180591Y-44965591D01*
X41173133Y-44971710D01*
X41164629Y-44976256D01*
X41155399Y-44979055D01*
X41145800Y-44980000D01*
X37694200Y-44980000D01*
X37684601Y-44979055D01*
X37675371Y-44976256D01*
X37666867Y-44971710D01*
X37659409Y-44965591D01*
X37653290Y-44958133D01*
X37648744Y-44949629D01*
X37645945Y-44940399D01*
X37645000Y-44930800D01*
X37645000Y-42569200D01*
X37645945Y-42559601D01*
X37648744Y-42550371D01*
X37653290Y-42541867D01*
X37659409Y-42534409D01*
X37666867Y-42528290D01*
X37675371Y-42523744D01*
X37684601Y-42520945D01*
X37694200Y-42520000D01*
X41145800Y-42520000D01*
X41155399Y-42520945D01*
G37*
%TO.C,U16*%
G36*
X41155399Y-78520945D02*
G01*
X41164629Y-78523744D01*
X41173133Y-78528290D01*
X41180591Y-78534409D01*
X41186710Y-78541867D01*
X41191256Y-78550371D01*
X41194055Y-78559601D01*
X41195000Y-78569200D01*
X41195000Y-80930800D01*
X41194055Y-80940399D01*
X41191256Y-80949629D01*
X41186710Y-80958133D01*
X41180591Y-80965591D01*
X41173133Y-80971710D01*
X41164629Y-80976256D01*
X41155399Y-80979055D01*
X41145800Y-80980000D01*
X37694200Y-80980000D01*
X37684601Y-80979055D01*
X37675371Y-80976256D01*
X37666867Y-80971710D01*
X37659409Y-80965591D01*
X37653290Y-80958133D01*
X37648744Y-80949629D01*
X37645945Y-80940399D01*
X37645000Y-80930800D01*
X37645000Y-78569200D01*
X37645945Y-78559601D01*
X37648744Y-78550371D01*
X37653290Y-78541867D01*
X37659409Y-78534409D01*
X37666867Y-78528290D01*
X37675371Y-78523744D01*
X37684601Y-78520945D01*
X37694200Y-78520000D01*
X41145800Y-78520000D01*
X41155399Y-78520945D01*
G37*
%TO.C,U11*%
G36*
X41155399Y-60520945D02*
G01*
X41164629Y-60523744D01*
X41173133Y-60528290D01*
X41180591Y-60534409D01*
X41186710Y-60541867D01*
X41191256Y-60550371D01*
X41194055Y-60559601D01*
X41195000Y-60569200D01*
X41195000Y-62930800D01*
X41194055Y-62940399D01*
X41191256Y-62949629D01*
X41186710Y-62958133D01*
X41180591Y-62965591D01*
X41173133Y-62971710D01*
X41164629Y-62976256D01*
X41155399Y-62979055D01*
X41145800Y-62980000D01*
X37694200Y-62980000D01*
X37684601Y-62979055D01*
X37675371Y-62976256D01*
X37666867Y-62971710D01*
X37659409Y-62965591D01*
X37653290Y-62958133D01*
X37648744Y-62949629D01*
X37645945Y-62940399D01*
X37645000Y-62930800D01*
X37645000Y-60569200D01*
X37645945Y-60559601D01*
X37648744Y-60550371D01*
X37653290Y-60541867D01*
X37659409Y-60534409D01*
X37666867Y-60528290D01*
X37675371Y-60523744D01*
X37684601Y-60520945D01*
X37694200Y-60520000D01*
X41145800Y-60520000D01*
X41155399Y-60520945D01*
G37*
%TD*%
D11*
%TO.C,R13*%
X124637500Y-55500000D03*
X125362500Y-55500000D03*
%TD*%
D12*
%TO.C,C40*%
X42432500Y-88950000D03*
X43567500Y-88950000D03*
%TD*%
D13*
%TO.C,C42*%
X116500000Y-77567500D03*
X116500000Y-76432500D03*
%TD*%
D14*
%TO.C,U4*%
X68150000Y-30310000D03*
X68150000Y-29040000D03*
X68150000Y-27770000D03*
X68150000Y-26500000D03*
X68150000Y-25230000D03*
X68150000Y-23960000D03*
X68150000Y-22690000D03*
X63200000Y-22690000D03*
X63200000Y-23960000D03*
X63200000Y-25230000D03*
X63200000Y-26500000D03*
X63200000Y-27770000D03*
X63200000Y-29040000D03*
X63200000Y-30310000D03*
%TD*%
D15*
%TO.C,C12*%
X74225000Y-64242500D03*
X74225000Y-65377500D03*
%TD*%
D16*
%TO.C,C20*%
X43567500Y-53350000D03*
X42432500Y-53350000D03*
%TD*%
D17*
%TO.C,C27*%
X36500000Y-106687500D03*
X36500000Y-109812500D03*
%TD*%
D13*
%TO.C,C21*%
X39000000Y-74317500D03*
X39000000Y-73182500D03*
%TD*%
D14*
%TO.C,U3*%
X67725000Y-44310000D03*
X67725000Y-43040000D03*
X67725000Y-41770000D03*
X67725000Y-40500000D03*
X67725000Y-39230000D03*
X67725000Y-37960000D03*
X67725000Y-36690000D03*
X62775000Y-36690000D03*
X62775000Y-37960000D03*
X62775000Y-39230000D03*
X62775000Y-40500000D03*
X62775000Y-41770000D03*
X62775000Y-43040000D03*
X62775000Y-44310000D03*
%TD*%
%TO.C,U7*%
X80200000Y-62620000D03*
X80200000Y-61350000D03*
X80200000Y-60080000D03*
X80200000Y-58810000D03*
X80200000Y-57540000D03*
X80200000Y-56270000D03*
X80200000Y-55000000D03*
X75250000Y-55000000D03*
X75250000Y-56270000D03*
X75250000Y-57540000D03*
X75250000Y-58810000D03*
X75250000Y-60080000D03*
X75250000Y-61350000D03*
X75250000Y-62620000D03*
%TD*%
D11*
%TO.C,R2*%
X45387500Y-27250000D03*
X46112500Y-27250000D03*
%TD*%
D17*
%TO.C,C17*%
X35500000Y-70687500D03*
X35500000Y-73812500D03*
%TD*%
D18*
%TO.C,R4*%
X81052500Y-41000000D03*
X80327500Y-41000000D03*
%TD*%
D12*
%TO.C,C43*%
X119500000Y-70500000D03*
X120635000Y-70500000D03*
%TD*%
D19*
%TO.C,R7*%
X54250000Y-91257500D03*
X54250000Y-90532500D03*
%TD*%
D20*
%TO.C,U23*%
X122060000Y-72385300D03*
X120790000Y-72385300D03*
X119520000Y-72385300D03*
X118250000Y-72385300D03*
X118250000Y-77335300D03*
X119520000Y-77335300D03*
X120790000Y-77335300D03*
X122060000Y-77335300D03*
%TD*%
D15*
%TO.C,C13*%
X62225000Y-71242500D03*
X62225000Y-72377500D03*
%TD*%
D21*
%TO.C,U21*%
X41694999Y-94850001D03*
X41044998Y-94850001D03*
X40394999Y-94850001D03*
X39744998Y-94850001D03*
X39094999Y-94850001D03*
X38444998Y-94850001D03*
X37794999Y-94850001D03*
X37144998Y-94850001D03*
X37144998Y-100649999D03*
X37794999Y-100649999D03*
X38444998Y-100649999D03*
X39094999Y-100649999D03*
X39744998Y-100649999D03*
X40394999Y-100649999D03*
X41044998Y-100649999D03*
X41694999Y-100649999D03*
D22*
X39420000Y-97750000D03*
%TD*%
D12*
%TO.C,C9*%
X40432500Y-49250000D03*
X41567500Y-49250000D03*
%TD*%
D15*
%TO.C,C4*%
X62250000Y-31622500D03*
X62250000Y-32757500D03*
%TD*%
D21*
%TO.C,U6*%
X41694999Y-40850001D03*
X41044998Y-40850001D03*
X40394999Y-40850001D03*
X39744998Y-40850001D03*
X39094999Y-40850001D03*
X38444998Y-40850001D03*
X37794999Y-40850001D03*
X37144998Y-40850001D03*
X37144998Y-46649999D03*
X37794999Y-46649999D03*
X38444998Y-46649999D03*
X39094999Y-46649999D03*
X39744998Y-46649999D03*
X40394999Y-46649999D03*
X41044998Y-46649999D03*
X41694999Y-46649999D03*
D22*
X39420000Y-43750000D03*
%TD*%
D16*
%TO.C,C28*%
X38067500Y-85250000D03*
X36932500Y-85250000D03*
%TD*%
D14*
%TO.C,U9*%
X68200000Y-55120000D03*
X68200000Y-53850000D03*
X68200000Y-52580000D03*
X68200000Y-51310000D03*
X68200000Y-50040000D03*
X68200000Y-48770000D03*
X68200000Y-47500000D03*
X63250000Y-47500000D03*
X63250000Y-48770000D03*
X63250000Y-50040000D03*
X63250000Y-51310000D03*
X63250000Y-52580000D03*
X63250000Y-53850000D03*
X63250000Y-55120000D03*
%TD*%
D18*
%TO.C,R6*%
X76052500Y-47000000D03*
X75327500Y-47000000D03*
%TD*%
D23*
%TO.C,R1*%
X47500000Y-32137500D03*
X47500000Y-32862500D03*
%TD*%
D14*
%TO.C,U19*%
X68190000Y-99940000D03*
X68190000Y-98670000D03*
X68190000Y-97400000D03*
X68190000Y-96130000D03*
X68190000Y-94860000D03*
X68190000Y-93590000D03*
X68190000Y-92320000D03*
X63240000Y-92320000D03*
X63240000Y-93590000D03*
X63240000Y-94860000D03*
X63240000Y-96130000D03*
X63240000Y-97400000D03*
X63240000Y-98670000D03*
X63240000Y-99940000D03*
%TD*%
D24*
%TO.C,Q4*%
X88259900Y-94500000D03*
X90159900Y-94500000D03*
X89209900Y-92625000D03*
%TD*%
D19*
%TO.C,R9*%
X54250000Y-81637500D03*
X54250000Y-80912500D03*
%TD*%
D12*
%TO.C,C30*%
X42432500Y-70950000D03*
X43567500Y-70950000D03*
%TD*%
D16*
%TO.C,C41*%
X123000000Y-55500000D03*
X121865000Y-55500000D03*
%TD*%
D14*
%TO.C,U10*%
X56200000Y-62620000D03*
X56200000Y-61350000D03*
X56200000Y-60080000D03*
X56200000Y-58810000D03*
X56200000Y-57540000D03*
X56200000Y-56270000D03*
X56200000Y-55000000D03*
X51250000Y-55000000D03*
X51250000Y-56270000D03*
X51250000Y-57540000D03*
X51250000Y-58810000D03*
X51250000Y-60080000D03*
X51250000Y-61350000D03*
X51250000Y-62620000D03*
%TD*%
D15*
%TO.C,C15*%
X50250000Y-64242500D03*
X50250000Y-65377500D03*
%TD*%
%TO.C,C24*%
X74545000Y-79062500D03*
X74545000Y-80197500D03*
%TD*%
D12*
%TO.C,C6*%
X38432500Y-50250000D03*
X39567500Y-50250000D03*
%TD*%
D19*
%TO.C,R10*%
X89122400Y-108395000D03*
X89122400Y-107670000D03*
%TD*%
%TO.C,R12*%
X89122400Y-98775000D03*
X89122400Y-98050000D03*
%TD*%
D14*
%TO.C,U8*%
X68075000Y-69620000D03*
X68075000Y-68350000D03*
X68075000Y-67080000D03*
X68075000Y-65810000D03*
X68075000Y-64540000D03*
X68075000Y-63270000D03*
X68075000Y-62000000D03*
X63125000Y-62000000D03*
X63125000Y-63270000D03*
X63125000Y-64540000D03*
X63125000Y-65810000D03*
X63125000Y-67080000D03*
X63125000Y-68350000D03*
X63125000Y-69620000D03*
%TD*%
D11*
%TO.C,R3*%
X49672500Y-27250000D03*
X50397500Y-27250000D03*
%TD*%
D18*
%TO.C,R5*%
X80862500Y-47000000D03*
X80137500Y-47000000D03*
%TD*%
D14*
%TO.C,U14*%
X80325000Y-77440000D03*
X80325000Y-76170000D03*
X80325000Y-74900000D03*
X80325000Y-73630000D03*
X80325000Y-72360000D03*
X80325000Y-71090000D03*
X80325000Y-69820000D03*
X75375000Y-69820000D03*
X75375000Y-71090000D03*
X75375000Y-72360000D03*
X75375000Y-73630000D03*
X75375000Y-74900000D03*
X75375000Y-76170000D03*
X75375000Y-77440000D03*
%TD*%
D17*
%TO.C,C37*%
X35500000Y-88687500D03*
X35500000Y-91812500D03*
%TD*%
D14*
%TO.C,U15*%
X68180000Y-84940000D03*
X68180000Y-83670000D03*
X68180000Y-82400000D03*
X68180000Y-81130000D03*
X68180000Y-79860000D03*
X68180000Y-78590000D03*
X68180000Y-77320000D03*
X63230000Y-77320000D03*
X63230000Y-78590000D03*
X63230000Y-79860000D03*
X63230000Y-81130000D03*
X63230000Y-82400000D03*
X63230000Y-83670000D03*
X63230000Y-84940000D03*
%TD*%
D25*
%TO.C,U1*%
X127975000Y-77107500D03*
X129245000Y-77107500D03*
X129245000Y-70732500D03*
X127975000Y-70732500D03*
%TD*%
D17*
%TO.C,C7*%
X35500000Y-52687500D03*
X35500000Y-55812500D03*
%TD*%
D12*
%TO.C,C29*%
X40432500Y-85250000D03*
X41567500Y-85250000D03*
%TD*%
%TO.C,C36*%
X38432500Y-104250000D03*
X39567500Y-104250000D03*
%TD*%
D15*
%TO.C,C2*%
X73900000Y-31392500D03*
X73900000Y-32527500D03*
%TD*%
D13*
%TO.C,C31*%
X39000000Y-92317500D03*
X39000000Y-91182500D03*
%TD*%
%TO.C,C11*%
X39000000Y-56317500D03*
X39000000Y-55182500D03*
%TD*%
%TO.C,C1*%
X39000000Y-38317500D03*
X39000000Y-37182500D03*
%TD*%
D26*
%TO.C,Q2*%
X76377500Y-41700000D03*
X76377500Y-39800000D03*
X74502500Y-40750000D03*
%TD*%
D15*
%TO.C,C23*%
X74595000Y-93562500D03*
X74595000Y-94697500D03*
%TD*%
D14*
%TO.C,U12*%
X92325000Y-83940000D03*
X92325000Y-82670000D03*
X92325000Y-81400000D03*
X92325000Y-80130000D03*
X92325000Y-78860000D03*
X92325000Y-77590000D03*
X92325000Y-76320000D03*
X87375000Y-76320000D03*
X87375000Y-77590000D03*
X87375000Y-78860000D03*
X87375000Y-80130000D03*
X87375000Y-81400000D03*
X87375000Y-82670000D03*
X87375000Y-83940000D03*
%TD*%
D12*
%TO.C,C39*%
X40432500Y-103250000D03*
X41567500Y-103250000D03*
%TD*%
D21*
%TO.C,U16*%
X41694999Y-76850001D03*
X41044998Y-76850001D03*
X40394999Y-76850001D03*
X39744998Y-76850001D03*
X39094999Y-76850001D03*
X38444998Y-76850001D03*
X37794999Y-76850001D03*
X37144998Y-76850001D03*
X37144998Y-82649999D03*
X37794999Y-82649999D03*
X38444998Y-82649999D03*
X39094999Y-82649999D03*
X39744998Y-82649999D03*
X40394999Y-82649999D03*
X41044998Y-82649999D03*
X41694999Y-82649999D03*
D22*
X39420000Y-79750000D03*
%TD*%
D15*
%TO.C,C5*%
X50300000Y-48332500D03*
X50300000Y-49467500D03*
%TD*%
D14*
%TO.C,U13*%
X80325000Y-91940000D03*
X80325000Y-90670000D03*
X80325000Y-89400000D03*
X80325000Y-88130000D03*
X80325000Y-86860000D03*
X80325000Y-85590000D03*
X80325000Y-84320000D03*
X75375000Y-84320000D03*
X75375000Y-85590000D03*
X75375000Y-86860000D03*
X75375000Y-88130000D03*
X75375000Y-89400000D03*
X75375000Y-90670000D03*
X75375000Y-91940000D03*
%TD*%
%TO.C,U18*%
X65725000Y-114440000D03*
X65725000Y-113170000D03*
X65725000Y-111900000D03*
X65725000Y-110630000D03*
X65725000Y-109360000D03*
X65725000Y-108090000D03*
X65725000Y-106820000D03*
X60775000Y-106820000D03*
X60775000Y-108090000D03*
X60775000Y-109360000D03*
X60775000Y-110630000D03*
X60775000Y-111900000D03*
X60775000Y-113170000D03*
X60775000Y-114440000D03*
%TD*%
D15*
%TO.C,C34*%
X62290000Y-101562500D03*
X62290000Y-102697500D03*
%TD*%
D12*
%TO.C,C26*%
X38432500Y-86250000D03*
X39567500Y-86250000D03*
%TD*%
D15*
%TO.C,C33*%
X59875000Y-116062500D03*
X59875000Y-117197500D03*
%TD*%
%TO.C,C22*%
X86850000Y-85562500D03*
X86850000Y-86697500D03*
%TD*%
D14*
%TO.C,U20*%
X54725000Y-104810000D03*
X54725000Y-103540000D03*
X54725000Y-102270000D03*
X54725000Y-101000000D03*
X54725000Y-99730000D03*
X54725000Y-98460000D03*
X54725000Y-97190000D03*
X49775000Y-97190000D03*
X49775000Y-98460000D03*
X49775000Y-99730000D03*
X49775000Y-101000000D03*
X49775000Y-102270000D03*
X49775000Y-103540000D03*
X49775000Y-104810000D03*
%TD*%
D19*
%TO.C,R8*%
X54250000Y-86447500D03*
X54250000Y-85722500D03*
%TD*%
D16*
%TO.C,C18*%
X38067500Y-67250000D03*
X36932500Y-67250000D03*
%TD*%
D15*
%TO.C,C3*%
X60750000Y-44432500D03*
X60750000Y-45567500D03*
%TD*%
%TO.C,C25*%
X62350000Y-86562500D03*
X62350000Y-87697500D03*
%TD*%
D14*
%TO.C,U17*%
X79900000Y-107440000D03*
X79900000Y-106170000D03*
X79900000Y-104900000D03*
X79900000Y-103630000D03*
X79900000Y-102360000D03*
X79900000Y-101090000D03*
X79900000Y-99820000D03*
X74950000Y-99820000D03*
X74950000Y-101090000D03*
X74950000Y-102360000D03*
X74950000Y-103630000D03*
X74950000Y-104900000D03*
X74950000Y-106170000D03*
X74950000Y-107440000D03*
%TD*%
D16*
%TO.C,C38*%
X38067500Y-103250000D03*
X36932500Y-103250000D03*
%TD*%
%TO.C,C8*%
X38067500Y-49250000D03*
X36932500Y-49250000D03*
%TD*%
D24*
%TO.C,Q3*%
X53387500Y-77362500D03*
X55287500Y-77362500D03*
X54337500Y-75487500D03*
%TD*%
D27*
%TO.C,Q1*%
X53947500Y-26387500D03*
X53947500Y-28287500D03*
X55822500Y-27337500D03*
%TD*%
D19*
%TO.C,R11*%
X89122400Y-103585000D03*
X89122400Y-102860000D03*
%TD*%
D14*
%TO.C,U2*%
X79700000Y-30080000D03*
X79700000Y-28810000D03*
X79700000Y-27540000D03*
X79700000Y-26270000D03*
X79700000Y-25000000D03*
X79700000Y-23730000D03*
X79700000Y-22460000D03*
X74750000Y-22460000D03*
X74750000Y-23730000D03*
X74750000Y-25000000D03*
X74750000Y-26270000D03*
X74750000Y-27540000D03*
X74750000Y-28810000D03*
X74750000Y-30080000D03*
%TD*%
D15*
%TO.C,C35*%
X48775000Y-106432500D03*
X48775000Y-107567500D03*
%TD*%
%TO.C,C32*%
X73950000Y-109062500D03*
X73950000Y-110197500D03*
%TD*%
%TO.C,C14*%
X62225000Y-56742500D03*
X62225000Y-57877500D03*
%TD*%
D12*
%TO.C,C10*%
X42432500Y-35350000D03*
X43567500Y-35350000D03*
%TD*%
D21*
%TO.C,U11*%
X41694999Y-58850001D03*
X41044998Y-58850001D03*
X40394999Y-58850001D03*
X39744998Y-58850001D03*
X39094999Y-58850001D03*
X38444998Y-58850001D03*
X37794999Y-58850001D03*
X37144998Y-58850001D03*
X37144998Y-64649999D03*
X37794999Y-64649999D03*
X38444998Y-64649999D03*
X39094999Y-64649999D03*
X39744998Y-64649999D03*
X40394999Y-64649999D03*
X41044998Y-64649999D03*
X41694999Y-64649999D03*
D22*
X39420000Y-61750000D03*
%TD*%
D12*
%TO.C,C19*%
X40432500Y-67250000D03*
X41567500Y-67250000D03*
%TD*%
%TO.C,C16*%
X38432500Y-68250000D03*
X39567500Y-68250000D03*
%TD*%
D14*
%TO.C,U5*%
X56250000Y-47020000D03*
X56250000Y-45750000D03*
X56250000Y-44480000D03*
X56250000Y-43210000D03*
X56250000Y-41940000D03*
X56250000Y-40670000D03*
X56250000Y-39400000D03*
X51300000Y-39400000D03*
X51300000Y-40670000D03*
X51300000Y-41940000D03*
X51300000Y-43210000D03*
X51300000Y-44480000D03*
X51300000Y-45750000D03*
X51300000Y-47020000D03*
%TD*%
D28*
%TO.C,U22*%
X115500000Y-57030000D03*
X115500000Y-58300000D03*
X115500000Y-59570000D03*
X115500000Y-60840000D03*
X115500000Y-62110000D03*
X115500000Y-63380000D03*
X115500000Y-64650000D03*
X115500000Y-65920000D03*
X115500000Y-67190000D03*
X124800000Y-67190000D03*
X124800000Y-65920000D03*
X124800000Y-64650000D03*
X124800000Y-63380000D03*
X124800000Y-62110000D03*
X124800000Y-60840000D03*
X124800000Y-59570000D03*
X124800000Y-58300000D03*
X124800000Y-57030000D03*
%TD*%
M02*
