%TF.GenerationSoftware,KiCad,Pcbnew,8.0.5*%
%TF.CreationDate,2024-09-14T01:32:45-04:00*%
%TF.ProjectId,LCC_Booster,4c43435f-426f-46f7-9374-65722e6b6963,4*%
%TF.SameCoordinates,Original*%
%TF.FileFunction,Soldermask,Top*%
%TF.FilePolarity,Negative*%
%FSLAX46Y46*%
G04 Gerber Fmt 4.6, Leading zero omitted, Abs format (unit mm)*
G04 Created by KiCad (PCBNEW 8.0.5) date 2024-09-14 01:32:45*
%MOMM*%
%LPD*%
G01*
G04 APERTURE LIST*
G04 Aperture macros list*
%AMRoundRect*
0 Rectangle with rounded corners*
0 $1 Rounding radius*
0 $2 $3 $4 $5 $6 $7 $8 $9 X,Y pos of 4 corners*
0 Add a 4 corners polygon primitive as box body*
4,1,4,$2,$3,$4,$5,$6,$7,$8,$9,$2,$3,0*
0 Add four circle primitives for the rounded corners*
1,1,$1+$1,$2,$3*
1,1,$1+$1,$4,$5*
1,1,$1+$1,$6,$7*
1,1,$1+$1,$8,$9*
0 Add four rect primitives between the rounded corners*
20,1,$1+$1,$2,$3,$4,$5,0*
20,1,$1+$1,$4,$5,$6,$7,0*
20,1,$1+$1,$6,$7,$8,$9,0*
20,1,$1+$1,$8,$9,$2,$3,0*%
%AMFreePoly0*
4,1,19,0.500000,-0.750000,0.000000,-0.750000,0.000000,-0.744911,-0.071157,-0.744911,-0.207708,-0.704816,-0.327430,-0.627875,-0.420627,-0.520320,-0.479746,-0.390866,-0.500000,-0.250000,-0.500000,0.250000,-0.479746,0.390866,-0.420627,0.520320,-0.327430,0.627875,-0.207708,0.704816,-0.071157,0.744911,0.000000,0.744911,0.000000,0.750000,0.500000,0.750000,0.500000,-0.750000,0.500000,-0.750000,
$1*%
%AMFreePoly1*
4,1,19,0.000000,0.744911,0.071157,0.744911,0.207708,0.704816,0.327430,0.627875,0.420627,0.520320,0.479746,0.390866,0.500000,0.250000,0.500000,-0.250000,0.479746,-0.390866,0.420627,-0.520320,0.327430,-0.627875,0.207708,-0.704816,0.071157,-0.744911,0.000000,-0.744911,0.000000,-0.750000,-0.500000,-0.750000,-0.500000,0.750000,0.000000,0.750000,0.000000,0.744911,0.000000,0.744911,
$1*%
%AMFreePoly2*
4,1,19,0.550000,-0.750000,0.000000,-0.750000,0.000000,-0.744911,-0.071157,-0.744911,-0.207708,-0.704816,-0.327430,-0.627875,-0.420627,-0.520320,-0.479746,-0.390866,-0.500000,-0.250000,-0.500000,0.250000,-0.479746,0.390866,-0.420627,0.520320,-0.327430,0.627875,-0.207708,0.704816,-0.071157,0.744911,0.000000,0.744911,0.000000,0.750000,0.550000,0.750000,0.550000,-0.750000,0.550000,-0.750000,
$1*%
%AMFreePoly3*
4,1,19,0.000000,0.744911,0.071157,0.744911,0.207708,0.704816,0.327430,0.627875,0.420627,0.520320,0.479746,0.390866,0.500000,0.250000,0.500000,-0.250000,0.479746,-0.390866,0.420627,-0.520320,0.327430,-0.627875,0.207708,-0.704816,0.071157,-0.744911,0.000000,-0.744911,0.000000,-0.750000,-0.550000,-0.750000,-0.550000,0.750000,0.000000,0.750000,0.000000,0.744911,0.000000,0.744911,
$1*%
G04 Aperture macros list end*
%ADD10C,0.000000*%
%ADD11FreePoly0,90.000000*%
%ADD12FreePoly1,90.000000*%
%ADD13RoundRect,0.155000X-0.155000X0.212500X-0.155000X-0.212500X0.155000X-0.212500X0.155000X0.212500X0*%
%ADD14RoundRect,0.250000X0.412500X0.650000X-0.412500X0.650000X-0.412500X-0.650000X0.412500X-0.650000X0*%
%ADD15RoundRect,0.075000X-0.212500X-0.075000X0.212500X-0.075000X0.212500X0.075000X-0.212500X0.075000X0*%
%ADD16R,1.600000X1.600000*%
%ADD17FreePoly0,0.000000*%
%ADD18FreePoly1,0.000000*%
%ADD19RoundRect,0.155000X-0.212500X-0.155000X0.212500X-0.155000X0.212500X0.155000X-0.212500X0.155000X0*%
%ADD20RoundRect,0.075000X0.212500X0.075000X-0.212500X0.075000X-0.212500X-0.075000X0.212500X-0.075000X0*%
%ADD21C,2.000000*%
%ADD22R,0.449999X1.500000*%
%ADD23R,5.000000X3.400001*%
%ADD24RoundRect,0.150000X-0.150000X0.725000X-0.150000X-0.725000X0.150000X-0.725000X0.150000X0.725000X0*%
%ADD25FreePoly2,270.000000*%
%ADD26R,1.500000X1.000000*%
%ADD27FreePoly3,270.000000*%
%ADD28RoundRect,0.150000X0.150000X-0.825000X0.150000X0.825000X-0.150000X0.825000X-0.150000X-0.825000X0*%
%ADD29RoundRect,0.075000X0.075000X-0.212500X0.075000X0.212500X-0.075000X0.212500X-0.075000X-0.212500X0*%
%ADD30RoundRect,0.155000X0.155000X-0.212500X0.155000X0.212500X-0.155000X0.212500X-0.155000X-0.212500X0*%
%ADD31C,0.900000*%
%ADD32C,8.600000*%
%ADD33C,1.234000*%
%ADD34O,1.600000X1.600000*%
%ADD35O,3.804000X1.604000*%
%ADD36O,1.604000X3.804000*%
%ADD37RoundRect,0.155000X0.212500X0.155000X-0.212500X0.155000X-0.212500X-0.155000X0.212500X-0.155000X0*%
%ADD38RoundRect,0.150000X-0.825000X-0.150000X0.825000X-0.150000X0.825000X0.150000X-0.825000X0.150000X0*%
%ADD39R,2.600000X2.600000*%
%ADD40C,2.600000*%
%ADD41C,3.250000*%
%ADD42C,1.704000*%
%ADD43C,2.504000*%
%ADD44FreePoly0,270.000000*%
%ADD45FreePoly1,270.000000*%
G04 APERTURE END LIST*
D10*
%TO.C,U10*%
G36*
X44405401Y-90458446D02*
G01*
X44414631Y-90461245D01*
X44423135Y-90465791D01*
X44430593Y-90471910D01*
X44436712Y-90479368D01*
X44441258Y-90487872D01*
X44444057Y-90497102D01*
X44445002Y-90506701D01*
X44445002Y-92868301D01*
X44444057Y-92877900D01*
X44441258Y-92887130D01*
X44436712Y-92895634D01*
X44430593Y-92903092D01*
X44423135Y-92909211D01*
X44414631Y-92913757D01*
X44405401Y-92916556D01*
X44395802Y-92917501D01*
X40944202Y-92917501D01*
X40934603Y-92916556D01*
X40925373Y-92913757D01*
X40916869Y-92909211D01*
X40909411Y-92903092D01*
X40903292Y-92895634D01*
X40898746Y-92887130D01*
X40895947Y-92877900D01*
X40895002Y-92868301D01*
X40895002Y-90506701D01*
X40895947Y-90497102D01*
X40898746Y-90487872D01*
X40903292Y-90479368D01*
X40909411Y-90471910D01*
X40916869Y-90465791D01*
X40925373Y-90461245D01*
X40934603Y-90458446D01*
X40944202Y-90457501D01*
X44395802Y-90457501D01*
X44405401Y-90458446D01*
G37*
%TO.C,U8*%
G36*
X44405401Y-75458446D02*
G01*
X44414631Y-75461245D01*
X44423135Y-75465791D01*
X44430593Y-75471910D01*
X44436712Y-75479368D01*
X44441258Y-75487872D01*
X44444057Y-75497102D01*
X44445002Y-75506701D01*
X44445002Y-77868301D01*
X44444057Y-77877900D01*
X44441258Y-77887130D01*
X44436712Y-77895634D01*
X44430593Y-77903092D01*
X44423135Y-77909211D01*
X44414631Y-77913757D01*
X44405401Y-77916556D01*
X44395802Y-77917501D01*
X40944202Y-77917501D01*
X40934603Y-77916556D01*
X40925373Y-77913757D01*
X40916869Y-77909211D01*
X40909411Y-77903092D01*
X40903292Y-77895634D01*
X40898746Y-77887130D01*
X40895947Y-77877900D01*
X40895002Y-77868301D01*
X40895002Y-75506701D01*
X40895947Y-75497102D01*
X40898746Y-75487872D01*
X40903292Y-75479368D01*
X40909411Y-75471910D01*
X40916869Y-75465791D01*
X40925373Y-75461245D01*
X40934603Y-75458446D01*
X40944202Y-75457501D01*
X44395802Y-75457501D01*
X44405401Y-75458446D01*
G37*
%TO.C,U6*%
G36*
X44405401Y-60458446D02*
G01*
X44414631Y-60461245D01*
X44423135Y-60465791D01*
X44430593Y-60471910D01*
X44436712Y-60479368D01*
X44441258Y-60487872D01*
X44444057Y-60497102D01*
X44445002Y-60506701D01*
X44445002Y-62868301D01*
X44444057Y-62877900D01*
X44441258Y-62887130D01*
X44436712Y-62895634D01*
X44430593Y-62903092D01*
X44423135Y-62909211D01*
X44414631Y-62913757D01*
X44405401Y-62916556D01*
X44395802Y-62917501D01*
X40944202Y-62917501D01*
X40934603Y-62916556D01*
X40925373Y-62913757D01*
X40916869Y-62909211D01*
X40909411Y-62903092D01*
X40903292Y-62895634D01*
X40898746Y-62887130D01*
X40895947Y-62877900D01*
X40895002Y-62868301D01*
X40895002Y-60506701D01*
X40895947Y-60497102D01*
X40898746Y-60487872D01*
X40903292Y-60479368D01*
X40909411Y-60471910D01*
X40916869Y-60465791D01*
X40925373Y-60461245D01*
X40934603Y-60458446D01*
X40944202Y-60457501D01*
X44395802Y-60457501D01*
X44405401Y-60458446D01*
G37*
%TO.C,U4*%
G36*
X44405401Y-45458446D02*
G01*
X44414631Y-45461245D01*
X44423135Y-45465791D01*
X44430593Y-45471910D01*
X44436712Y-45479368D01*
X44441258Y-45487872D01*
X44444057Y-45497102D01*
X44445002Y-45506701D01*
X44445002Y-47868301D01*
X44444057Y-47877900D01*
X44441258Y-47887130D01*
X44436712Y-47895634D01*
X44430593Y-47903092D01*
X44423135Y-47909211D01*
X44414631Y-47913757D01*
X44405401Y-47916556D01*
X44395802Y-47917501D01*
X40944202Y-47917501D01*
X40934603Y-47916556D01*
X40925373Y-47913757D01*
X40916869Y-47909211D01*
X40909411Y-47903092D01*
X40903292Y-47895634D01*
X40898746Y-47887130D01*
X40895947Y-47877900D01*
X40895002Y-47868301D01*
X40895002Y-45506701D01*
X40895947Y-45497102D01*
X40898746Y-45487872D01*
X40903292Y-45479368D01*
X40909411Y-45471910D01*
X40916869Y-45465791D01*
X40925373Y-45461245D01*
X40934603Y-45458446D01*
X40944202Y-45457501D01*
X44395802Y-45457501D01*
X44405401Y-45458446D01*
G37*
%TD*%
D11*
%TO.C,JP4*%
X52604999Y-44687501D03*
D12*
X52604999Y-43387501D03*
%TD*%
D13*
%TO.C,C21*%
X48354999Y-73720001D03*
X48354999Y-74855001D03*
%TD*%
D14*
%TO.C,C18*%
X38232502Y-82187501D03*
X35107502Y-82187501D03*
%TD*%
D13*
%TO.C,C7*%
X48354999Y-43720001D03*
X48354999Y-44855001D03*
%TD*%
%TO.C,C28*%
X48354999Y-88720001D03*
X48354999Y-89855001D03*
%TD*%
D15*
%TO.C,R12*%
X54517499Y-88437501D03*
X55192499Y-88437501D03*
%TD*%
%TO.C,R6*%
X54517499Y-58437501D03*
X55192499Y-58437501D03*
%TD*%
%TO.C,R14*%
X84662500Y-85750000D03*
X85337500Y-85750000D03*
%TD*%
D16*
%TO.C,U1*%
X68690000Y-95440000D03*
X68690000Y-97980000D03*
X68690000Y-100520000D03*
X68690000Y-103060000D03*
X76310000Y-103060000D03*
X76310000Y-100520000D03*
X76310000Y-97980000D03*
X76310000Y-95440000D03*
%TD*%
D17*
%TO.C,JP3*%
X79100000Y-63250000D03*
D18*
X80400000Y-63250000D03*
%TD*%
D19*
%TO.C,C34*%
X82932500Y-78250000D03*
X84067500Y-78250000D03*
%TD*%
%TO.C,C3*%
X42670002Y-52687501D03*
X43805002Y-52687501D03*
%TD*%
D14*
%TO.C,C11*%
X38232502Y-67187501D03*
X35107502Y-67187501D03*
%TD*%
D13*
%TO.C,C26*%
X41691351Y-96687501D03*
X41691351Y-97822501D03*
%TD*%
D20*
%TO.C,R4*%
X44007502Y-57487501D03*
X43332502Y-57487501D03*
%TD*%
D11*
%TO.C,JP5*%
X52604999Y-59687501D03*
D12*
X52604999Y-58387501D03*
%TD*%
D21*
%TO.C,SW1*%
X66500000Y-36000000D03*
X66500000Y-29500000D03*
X71000000Y-36000000D03*
X71000000Y-29500000D03*
%TD*%
D22*
%TO.C,U10*%
X44945001Y-88787502D03*
X44295000Y-88787502D03*
X43645001Y-88787502D03*
X42995000Y-88787502D03*
X42345001Y-88787502D03*
X41695000Y-88787502D03*
X41045001Y-88787502D03*
X40395000Y-88787502D03*
X40395000Y-94587500D03*
X41045001Y-94587500D03*
X41695000Y-94587500D03*
X42345001Y-94587500D03*
X42995000Y-94587500D03*
X43645001Y-94587500D03*
X44295000Y-94587500D03*
X44945001Y-94587500D03*
D23*
X42670002Y-91687501D03*
%TD*%
D24*
%TO.C,U5*%
X57164999Y-62057501D03*
X55894999Y-62057501D03*
X54624999Y-62057501D03*
X53354999Y-62057501D03*
X52084999Y-62057501D03*
X50814999Y-62057501D03*
X49544999Y-62057501D03*
X48274999Y-62057501D03*
X48274999Y-67207501D03*
X49544999Y-67207501D03*
X50814999Y-67207501D03*
X52084999Y-67207501D03*
X53354999Y-67207501D03*
X54624999Y-67207501D03*
X55894999Y-67207501D03*
X57164999Y-67207501D03*
%TD*%
D25*
%TO.C,JP9*%
X87000000Y-61700000D03*
D26*
X87000000Y-63000000D03*
D27*
X87000000Y-64300000D03*
%TD*%
D20*
%TO.C,R1*%
X44007502Y-42487501D03*
X43332502Y-42487501D03*
%TD*%
D19*
%TO.C,C13*%
X43602502Y-66187501D03*
X44737502Y-66187501D03*
%TD*%
D24*
%TO.C,U9*%
X57164999Y-92057501D03*
X55894999Y-92057501D03*
X54624999Y-92057501D03*
X53354999Y-92057501D03*
X52084999Y-92057501D03*
X50814999Y-92057501D03*
X49544999Y-92057501D03*
X48274999Y-92057501D03*
X48274999Y-97207501D03*
X49544999Y-97207501D03*
X50814999Y-97207501D03*
X52084999Y-97207501D03*
X53354999Y-97207501D03*
X54624999Y-97207501D03*
X55894999Y-97207501D03*
X57164999Y-97207501D03*
%TD*%
D28*
%TO.C,U11*%
X99190000Y-64475000D03*
X100460000Y-64475000D03*
X101730000Y-64475000D03*
X103000000Y-64475000D03*
X104270000Y-64475000D03*
X105540000Y-64475000D03*
X106810000Y-64475000D03*
X106810000Y-59525000D03*
X105540000Y-59525000D03*
X104270000Y-59525000D03*
X103000000Y-59525000D03*
X101730000Y-59525000D03*
X100460000Y-59525000D03*
X99190000Y-59525000D03*
%TD*%
D19*
%TO.C,C9*%
X45102502Y-57187501D03*
X46237502Y-57187501D03*
%TD*%
D29*
%TO.C,R15*%
X79500000Y-99587500D03*
X79500000Y-98912500D03*
%TD*%
D30*
%TO.C,C30*%
X108877570Y-70819299D03*
X108877570Y-69684299D03*
%TD*%
%TO.C,C29*%
X100976146Y-70817771D03*
X100976146Y-69682771D03*
%TD*%
D31*
%TO.C,H1*%
X26775000Y-30000000D03*
X27719581Y-27719581D03*
X27719581Y-32280419D03*
X30000000Y-26775000D03*
D32*
X30000000Y-30000000D03*
D31*
X30000000Y-33225000D03*
X32280419Y-27719581D03*
X32280419Y-32280419D03*
X33225000Y-30000000D03*
%TD*%
D25*
%TO.C,JP8*%
X91000000Y-61700000D03*
D26*
X91000000Y-63000000D03*
D27*
X91000000Y-64300000D03*
%TD*%
D31*
%TO.C,H4*%
X26775000Y-110000000D03*
X27719581Y-107719581D03*
X27719581Y-112280419D03*
X30000000Y-106775000D03*
D32*
X30000000Y-110000000D03*
D31*
X30000000Y-113225000D03*
X32280419Y-107719581D03*
X32280419Y-112280419D03*
X33225000Y-110000000D03*
%TD*%
D33*
%TO.C,Y1*%
X106177328Y-68018861D03*
X103677328Y-68018861D03*
%TD*%
D19*
%TO.C,C16*%
X45102502Y-72187501D03*
X46237502Y-72187501D03*
%TD*%
D30*
%TO.C,C15*%
X58719999Y-82450001D03*
X58719999Y-81315001D03*
%TD*%
D16*
%TO.C,A1*%
X68950000Y-55610000D03*
D34*
X71490000Y-55610000D03*
X74030000Y-55610000D03*
X76570000Y-55610000D03*
X79110000Y-55610000D03*
X81650000Y-55610000D03*
X84190000Y-55610000D03*
X86730000Y-55610000D03*
X89270000Y-55610000D03*
X91810000Y-55610000D03*
X94350000Y-55610000D03*
X96890000Y-55610000D03*
X99430000Y-55610000D03*
X101970000Y-55610000D03*
X104510000Y-55610000D03*
X104510000Y-40370000D03*
X101970000Y-40370000D03*
X99430000Y-40370000D03*
X96890000Y-40370000D03*
X94350000Y-40370000D03*
X91810000Y-40370000D03*
X89270000Y-40370000D03*
X86730000Y-40370000D03*
X84190000Y-40370000D03*
X81650000Y-40370000D03*
X79110000Y-40370000D03*
X76570000Y-40370000D03*
X74030000Y-40370000D03*
X71490000Y-40370000D03*
X68950000Y-40370000D03*
%TD*%
D19*
%TO.C,C20*%
X43602502Y-81187501D03*
X44737502Y-81187501D03*
%TD*%
D22*
%TO.C,U8*%
X44945001Y-73787502D03*
X44295000Y-73787502D03*
X43645001Y-73787502D03*
X42995000Y-73787502D03*
X42345001Y-73787502D03*
X41695000Y-73787502D03*
X41045001Y-73787502D03*
X40395000Y-73787502D03*
X40395000Y-79587500D03*
X41045001Y-79587500D03*
X41695000Y-79587500D03*
X42345001Y-79587500D03*
X42995000Y-79587500D03*
X43645001Y-79587500D03*
X44295000Y-79587500D03*
X44945001Y-79587500D03*
D23*
X42670002Y-76687501D03*
%TD*%
D22*
%TO.C,U6*%
X44945001Y-58787502D03*
X44295000Y-58787502D03*
X43645001Y-58787502D03*
X42995000Y-58787502D03*
X42345001Y-58787502D03*
X41695000Y-58787502D03*
X41045001Y-58787502D03*
X40395000Y-58787502D03*
X40395000Y-64587500D03*
X41045001Y-64587500D03*
X41695000Y-64587500D03*
X42345001Y-64587500D03*
X42995000Y-64587500D03*
X43645001Y-64587500D03*
X44295000Y-64587500D03*
X44945001Y-64587500D03*
D23*
X42670002Y-61687501D03*
%TD*%
D35*
%TO.C,J2*%
X88000000Y-33250000D03*
X88000000Y-27000000D03*
D36*
X83200000Y-30250000D03*
%TD*%
D19*
%TO.C,C24*%
X42670002Y-97687501D03*
X43805002Y-97687501D03*
%TD*%
D11*
%TO.C,JP6*%
X52604999Y-74687501D03*
D12*
X52604999Y-73387501D03*
%TD*%
D37*
%TO.C,C32*%
X97567500Y-59500000D03*
X96432500Y-59500000D03*
%TD*%
D20*
%TO.C,R7*%
X44007502Y-72487501D03*
X43332502Y-72487501D03*
%TD*%
%TO.C,R10*%
X44007502Y-87487501D03*
X43332502Y-87487501D03*
%TD*%
D17*
%TO.C,JP2*%
X74600000Y-63250000D03*
D18*
X75900000Y-63250000D03*
%TD*%
D22*
%TO.C,U4*%
X44945001Y-43787502D03*
X44295000Y-43787502D03*
X43645001Y-43787502D03*
X42995000Y-43787502D03*
X42345001Y-43787502D03*
X41695000Y-43787502D03*
X41045001Y-43787502D03*
X40395000Y-43787502D03*
X40395000Y-49587500D03*
X41045001Y-49587500D03*
X41695000Y-49587500D03*
X42345001Y-49587500D03*
X42995000Y-49587500D03*
X43645001Y-49587500D03*
X44295000Y-49587500D03*
X44945001Y-49587500D03*
D23*
X42670002Y-46687501D03*
%TD*%
D15*
%TO.C,R9*%
X54517499Y-73437501D03*
X55192499Y-73437501D03*
%TD*%
D11*
%TO.C,JP7*%
X52604999Y-89687501D03*
D12*
X52604999Y-88387501D03*
%TD*%
D37*
%TO.C,C31*%
X87067500Y-75500000D03*
X85932500Y-75500000D03*
%TD*%
D30*
%TO.C,C22*%
X58719999Y-97450001D03*
X58719999Y-96315001D03*
%TD*%
D14*
%TO.C,C4*%
X38232502Y-52187501D03*
X35107502Y-52187501D03*
%TD*%
D29*
%TO.C,R13*%
X64750000Y-98587500D03*
X64750000Y-97912500D03*
%TD*%
D19*
%TO.C,C6*%
X43602502Y-51187501D03*
X44737502Y-51187501D03*
%TD*%
D31*
%TO.C,H3*%
X96775000Y-110000000D03*
X97719581Y-107719581D03*
X97719581Y-112280419D03*
X100000000Y-106775000D03*
D32*
X100000000Y-110000000D03*
D31*
X100000000Y-113225000D03*
X102280419Y-107719581D03*
X102280419Y-112280419D03*
X103225000Y-110000000D03*
%TD*%
D30*
%TO.C,C33*%
X80500000Y-72567500D03*
X80500000Y-71432500D03*
%TD*%
D13*
%TO.C,C14*%
X48354999Y-58720001D03*
X48354999Y-59855001D03*
%TD*%
D19*
%TO.C,C10*%
X42670002Y-67687501D03*
X43805002Y-67687501D03*
%TD*%
D15*
%TO.C,R5*%
X49767499Y-59687501D03*
X50442499Y-59687501D03*
%TD*%
D19*
%TO.C,C23*%
X45102502Y-87187501D03*
X46237502Y-87187501D03*
%TD*%
D15*
%TO.C,R11*%
X49767499Y-89687501D03*
X50442499Y-89687501D03*
%TD*%
D14*
%TO.C,C25*%
X38232502Y-97187501D03*
X35107502Y-97187501D03*
%TD*%
D13*
%TO.C,C19*%
X41691351Y-81687501D03*
X41691351Y-82822501D03*
%TD*%
D24*
%TO.C,U3*%
X57164999Y-47057501D03*
X55894999Y-47057501D03*
X54624999Y-47057501D03*
X53354999Y-47057501D03*
X52084999Y-47057501D03*
X50814999Y-47057501D03*
X49544999Y-47057501D03*
X48274999Y-47057501D03*
X48274999Y-52207501D03*
X49544999Y-52207501D03*
X50814999Y-52207501D03*
X52084999Y-52207501D03*
X53354999Y-52207501D03*
X54624999Y-52207501D03*
X55894999Y-52207501D03*
X57164999Y-52207501D03*
%TD*%
%TO.C,U7*%
X57164999Y-77057501D03*
X55894999Y-77057501D03*
X54624999Y-77057501D03*
X53354999Y-77057501D03*
X52084999Y-77057501D03*
X50814999Y-77057501D03*
X49544999Y-77057501D03*
X48274999Y-77057501D03*
X48274999Y-82207501D03*
X49544999Y-82207501D03*
X50814999Y-82207501D03*
X52084999Y-82207501D03*
X53354999Y-82207501D03*
X54624999Y-82207501D03*
X55894999Y-82207501D03*
X57164999Y-82207501D03*
%TD*%
D31*
%TO.C,H2*%
X96775000Y-30000000D03*
X97719581Y-27719581D03*
X97719581Y-32280419D03*
X100000000Y-26775000D03*
D32*
X100000000Y-30000000D03*
D31*
X100000000Y-33225000D03*
X102280419Y-27719581D03*
X102280419Y-32280419D03*
X103225000Y-30000000D03*
%TD*%
D15*
%TO.C,R8*%
X49767499Y-74687501D03*
X50442499Y-74687501D03*
%TD*%
D19*
%TO.C,C27*%
X43602502Y-96187501D03*
X44737502Y-96187501D03*
%TD*%
D30*
%TO.C,C8*%
X58719999Y-67450001D03*
X58719999Y-66315001D03*
%TD*%
D38*
%TO.C,U12*%
X82525000Y-70095000D03*
X82525000Y-71365000D03*
X82525000Y-72635000D03*
X82525000Y-73905000D03*
X87475000Y-73905000D03*
X87475000Y-72635000D03*
X87475000Y-71365000D03*
X87475000Y-70095000D03*
%TD*%
D19*
%TO.C,C35*%
X77182500Y-93250000D03*
X78317500Y-93250000D03*
%TD*%
D16*
%TO.C,U2*%
X74440000Y-80440000D03*
X74440000Y-82980000D03*
X74440000Y-85520000D03*
X74440000Y-88060000D03*
X82060000Y-88060000D03*
X82060000Y-85520000D03*
X82060000Y-82980000D03*
X82060000Y-80440000D03*
%TD*%
D19*
%TO.C,C17*%
X42670002Y-82687501D03*
X43805002Y-82687501D03*
%TD*%
D15*
%TO.C,R2*%
X49767499Y-44687501D03*
X50442499Y-44687501D03*
%TD*%
%TO.C,R3*%
X54517499Y-43437501D03*
X55192499Y-43437501D03*
%TD*%
D13*
%TO.C,C12*%
X41691351Y-66687501D03*
X41691351Y-67822501D03*
%TD*%
%TO.C,C5*%
X41691351Y-51687501D03*
X41691351Y-52822501D03*
%TD*%
D19*
%TO.C,C2*%
X45102502Y-42187501D03*
X46237502Y-42187501D03*
%TD*%
D30*
%TO.C,C1*%
X58719999Y-52450001D03*
X58719999Y-51315001D03*
%TD*%
D39*
%TO.C,J3*%
X24305000Y-97500000D03*
D40*
X24305000Y-92500000D03*
X24305000Y-87500000D03*
X24305000Y-82500000D03*
X24305000Y-77500000D03*
X24305000Y-72500000D03*
X24305000Y-67500000D03*
X24305000Y-62500000D03*
X24305000Y-57500000D03*
X24305000Y-52500000D03*
X24305000Y-47500000D03*
X24305000Y-42500000D03*
%TD*%
D41*
%TO.C,J1*%
X99745000Y-101200000D03*
X99745000Y-75800000D03*
D42*
X93395000Y-99930000D03*
X90855000Y-98660000D03*
X93395000Y-97390000D03*
X90855000Y-96120000D03*
X93395000Y-94850000D03*
X90855000Y-93580000D03*
X93395000Y-92310000D03*
X90855000Y-91040000D03*
X93395000Y-85960000D03*
X90855000Y-84690000D03*
X93395000Y-83420000D03*
X90855000Y-82150000D03*
X93395000Y-80880000D03*
X90855000Y-79610000D03*
X93395000Y-78340000D03*
X90855000Y-77070000D03*
D43*
X103425000Y-104000000D03*
X103425000Y-73000000D03*
%TD*%
D44*
%TO.C,JP1*%
X91000000Y-109350000D03*
D45*
X91000000Y-110650000D03*
%TD*%
M02*
