M48
; DRILL file {KiCad 8.0.2} date 2024-05-14T20:51:58-0500
; FORMAT={-:-/ absolute / inch / decimal}
; #@! TF.CreationDate,2024-05-14T20:51:58-05:00
; #@! TF.GenerationSoftware,Kicad,Pcbnew,8.0.2
; #@! TF.FileFunction,Plated,1,2,PTH
FMAT,2
INCH
; #@! TA.AperFunction,Plated,PTH,ViaDrill
T1C0.0118
; #@! TA.AperFunction,Plated,PTH,ViaDrill
T2C0.0197
; #@! TA.AperFunction,Plated,PTH,ComponentDrill
T3C0.0236
; #@! TA.AperFunction,Plated,PTH,ComponentDrill
T4C0.0248
; #@! TA.AperFunction,Plated,PTH,ComponentDrill
T5C0.0315
; #@! TA.AperFunction,Plated,PTH,ComponentDrill
T6C0.0354
; #@! TA.AperFunction,Plated,PTH,ComponentDrill
T7C0.0394
; #@! TA.AperFunction,Plated,PTH,ComponentDrill
T8C0.0433
; #@! TA.AperFunction,Plated,PTH,ComponentDrill
T9C0.0512
; #@! TA.AperFunction,Plated,PTH,ComponentDrill
T10C0.0669
; #@! TA.AperFunction,Plated,PTH,ComponentDrill
T11C0.1693
%
G90
G05
T1
X1.6854Y-1.6556
X1.6854Y-2.2461
X1.6854Y-2.8367
X1.6854Y-3.4272
X1.811Y-1.9488
X1.811Y-2.5394
X1.811Y-3.1299
X1.811Y-3.7205
X1.8878Y-2.8445
X1.8886Y-1.6605
X1.8917Y-3.4375
X1.8933Y-2.253
X1.9291Y-1.9685
X1.9291Y-2.5591
X1.9291Y-3.1496
X1.9291Y-3.7402
X1.9794Y-1.717
X1.9924Y-3.4622
X2.0093Y-2.2786
X2.0149Y-2.8701
X2.0276Y-3.7205
X2.0472Y-1.9685
X2.0472Y-2.5591
X2.0472Y-3.1496
X2.0669Y-2.126
X2.0669Y-2.7165
X2.0669Y-3.3071
X2.0669Y-3.8976
X2.1121Y-3.8919
X2.126Y-2.126
X2.126Y-2.7165
X2.126Y-3.3071
X2.1354Y-1.9689
X2.1354Y-2.5595
X2.1354Y-3.15
X2.1654Y-3.7205
X2.2441Y-3.3071
X2.2638Y-2.1063
X2.2638Y-2.7165
X2.2638Y-3.8976
X2.3031Y-2.2047
X2.3425Y-3.622
X2.3892Y-2.1944
X2.4409Y-3.4449
X2.4606Y-3.5039
X2.4803Y-2.9724
X2.5197Y-3.7598
X2.6969Y-2.2835
X2.7362Y-2.6969
X2.7559Y-2.1063
X2.874Y-2.4902
X2.9921Y-3.5039
X3.0315Y-4.0354
X3.0512Y-2.5984
X3.0512Y-3.622
X3.0709Y-1.8504
X3.1621Y-3.0584
X3.1693Y-2.8937
X3.1693Y-3.1693
X3.1693Y-3.6811
X3.189Y-1.811
X3.2087Y-2.3622
X3.2087Y-2.5591
X3.2087Y-4.0748
X3.215Y-1.8898
X3.2185Y-2.4902
X3.2911Y-2.414
X3.3268Y-1.8504
X3.3858Y-3.4843
X3.3858Y-3.7598
X3.4252Y-1.6929
X3.4252Y-2.6378
X3.4449Y-4.0945
X3.4646Y-2.3819
X3.4646Y-2.9921
X3.4724Y-2.0472
X3.5827Y-3.4843
X3.6811Y-3.4843
X3.7008Y-2.3898
X3.7402Y-2.4606
X3.7795Y-2.6378
X3.878Y-2.3425
X4.1142Y-2.4409
T2
X1.5913Y-2.0546
X1.5913Y-2.6452
X1.5913Y-3.2357
X1.5913Y-3.8263
X1.6457Y-1.8381
X1.6457Y-2.4291
X1.6457Y-3.0197
X1.6457Y-3.6102
X1.6654Y-1.8031
X1.6654Y-1.874
X1.6654Y-2.3942
X1.6654Y-2.4651
X1.6654Y-2.9847
X1.6654Y-3.0556
X1.6654Y-3.5753
X1.6654Y-3.6462
X1.685Y-1.8381
X1.685Y-2.4291
X1.685Y-3.0197
X1.685Y-3.6102
X1.7047Y-1.8031
X1.7047Y-1.874
X1.7047Y-2.3942
X1.7047Y-2.4651
X1.7047Y-2.9847
X1.7047Y-3.0556
X1.7047Y-3.5753
X1.7047Y-3.6462
X1.7244Y-1.8386
X1.7244Y-2.4296
X1.7244Y-3.0202
X1.7244Y-3.6107
T3
X1.0541Y-1.1811
X1.0541Y-4.3307
X1.0913Y-1.0913
X1.0913Y-1.2709
X1.0913Y-4.2409
X1.0913Y-4.4205
X1.1811Y-1.0541
X1.1811Y-1.3081
X1.1811Y-4.2037
X1.1811Y-4.4577
X1.2709Y-1.0913
X1.2709Y-1.2709
X1.2709Y-4.2409
X1.2709Y-4.4205
X1.3081Y-1.1811
X1.3081Y-4.3307
X3.81Y-1.1811
X3.81Y-4.3307
X3.8472Y-1.0913
X3.8472Y-1.2709
X3.8472Y-4.2409
X3.8472Y-4.4205
X3.937Y-1.0541
X3.937Y-1.3081
X3.937Y-4.2037
X3.937Y-4.4577
X4.0268Y-1.0913
X4.0268Y-1.2709
X4.0268Y-4.2409
X4.0268Y-4.4205
X4.064Y-1.1811
X4.064Y-4.3307
T4
X4.0818Y-2.6779
X4.1802Y-2.6779
T6
X3.577Y-3.0343
X3.577Y-3.1343
X3.577Y-3.2343
X3.577Y-3.3343
X3.577Y-3.5843
X3.577Y-3.6843
X3.577Y-3.7843
X3.577Y-3.8843
X3.677Y-3.0843
X3.677Y-3.1843
X3.677Y-3.2843
X3.677Y-3.3843
X3.677Y-3.6343
X3.677Y-3.7343
X3.677Y-3.8343
X3.677Y-3.9343
T7
X2.7146Y-1.5894
X2.7146Y-2.1894
X2.8146Y-1.5894
X2.8146Y-2.1894
X2.9146Y-1.5894
X2.9146Y-2.1894
X3.0146Y-1.5894
X3.0146Y-2.1894
X3.1146Y-1.5894
X3.1146Y-2.1894
X3.2146Y-1.5894
X3.2146Y-2.1894
X3.3146Y-1.5894
X3.3146Y-2.1894
X3.4146Y-1.5894
X3.4146Y-2.1894
X3.5146Y-1.5894
X3.5146Y-2.1894
X3.6146Y-1.5894
X3.6146Y-2.1894
X3.7146Y-1.5894
X3.7146Y-2.1894
X3.8146Y-1.5894
X3.8146Y-2.1894
X3.9146Y-1.5894
X3.9146Y-2.1894
X4.0146Y-1.5894
X4.0146Y-2.1894
X4.1146Y-1.5894
X4.1146Y-2.1894
T8
X2.6181Y-1.1614
X2.6181Y-1.4173
X2.7953Y-1.1614
X2.7953Y-1.4173
T9
X0.9569Y-1.6732
X0.9569Y-1.8701
X0.9569Y-2.0669
X0.9569Y-2.2638
X0.9569Y-2.4606
X0.9569Y-2.6575
X0.9569Y-2.8543
X0.9569Y-3.0512
X0.9569Y-3.248
X0.9569Y-3.4449
X0.9569Y-3.6417
X0.9569Y-3.8386
T10
X4.0719Y-2.874
X4.0719Y-4.0945
T11
X1.1811Y-1.1811
X1.1811Y-4.3307
X3.937Y-1.1811
X3.937Y-4.3307
T5
G00X3.2756Y-1.2343
M15
G01X3.2756Y-1.1476
M16
G05
G00X3.5079Y-1.063
M15
G01X3.4213Y-1.063
M16
G05
G00X3.5079Y-1.3091
M15
G01X3.4213Y-1.3091
M16
G05
M30
