%TF.GenerationSoftware,KiCad,Pcbnew,8.0.1*%
%TF.CreationDate,2024-04-28T19:31:06-05:00*%
%TF.ProjectId,LCC_Booster,4c43435f-426f-46f7-9374-65722e6b6963,rev?*%
%TF.SameCoordinates,Original*%
%TF.FileFunction,Soldermask,Bot*%
%TF.FilePolarity,Negative*%
%FSLAX46Y46*%
G04 Gerber Fmt 4.6, Leading zero omitted, Abs format (unit mm)*
G04 Created by KiCad (PCBNEW 8.0.1) date 2024-04-28 19:31:06*
%MOMM*%
%LPD*%
G01*
G04 APERTURE LIST*
G04 Aperture macros list*
%AMRoundRect*
0 Rectangle with rounded corners*
0 $1 Rounding radius*
0 $2 $3 $4 $5 $6 $7 $8 $9 X,Y pos of 4 corners*
0 Add a 4 corners polygon primitive as box body*
4,1,4,$2,$3,$4,$5,$6,$7,$8,$9,$2,$3,0*
0 Add four circle primitives for the rounded corners*
1,1,$1+$1,$2,$3*
1,1,$1+$1,$4,$5*
1,1,$1+$1,$6,$7*
1,1,$1+$1,$8,$9*
0 Add four rect primitives between the rounded corners*
20,1,$1+$1,$2,$3,$4,$5,0*
20,1,$1+$1,$4,$5,$6,$7,0*
20,1,$1+$1,$6,$7,$8,$9,0*
20,1,$1+$1,$8,$9,$2,$3,0*%
G04 Aperture macros list end*
%ADD10R,2.600000X2.600000*%
%ADD11C,2.600000*%
%ADD12R,1.600000X1.600000*%
%ADD13O,1.600000X1.600000*%
%ADD14O,1.604000X3.804000*%
%ADD15O,3.804000X1.604000*%
%ADD16C,0.900000*%
%ADD17C,8.600000*%
%ADD18C,3.250000*%
%ADD19C,1.704000*%
%ADD20C,2.504000*%
%ADD21RoundRect,0.250000X0.450000X-0.450000X0.450000X0.450000X-0.450000X0.450000X-0.450000X-0.450000X0*%
%ADD22C,1.400000*%
%ADD23C,2.000000*%
%ADD24C,1.500000*%
G04 APERTURE END LIST*
D10*
%TO.C,J5*%
X25555000Y-100500000D03*
D11*
X25555000Y-95500000D03*
%TD*%
D10*
%TO.C,J4*%
X25555000Y-44000000D03*
D11*
X25555000Y-39000000D03*
%TD*%
D12*
%TO.C,A1*%
X92750000Y-52160000D03*
D13*
X95290000Y-52160000D03*
X97830000Y-52160000D03*
X100370000Y-52160000D03*
X102910000Y-52160000D03*
X105450000Y-52160000D03*
X107990000Y-52160000D03*
X110530000Y-52160000D03*
X113070000Y-52160000D03*
X115610000Y-52160000D03*
X118150000Y-52160000D03*
X120690000Y-52160000D03*
X123230000Y-52160000D03*
X125770000Y-52160000D03*
X128310000Y-52160000D03*
X128310000Y-36920000D03*
X125770000Y-36920000D03*
X123230000Y-36920000D03*
X120690000Y-36920000D03*
X118150000Y-36920000D03*
X115610000Y-36920000D03*
X113070000Y-36920000D03*
X110530000Y-36920000D03*
X107990000Y-36920000D03*
X105450000Y-36920000D03*
X102910000Y-36920000D03*
X100370000Y-36920000D03*
X97830000Y-36920000D03*
X95290000Y-36920000D03*
X92750000Y-36920000D03*
%TD*%
D14*
%TO.C,J2*%
X123500000Y-27800000D03*
X129750000Y-27800000D03*
D15*
X126500000Y-23000000D03*
%TD*%
D16*
%TO.C,H3*%
X96775000Y-110000000D03*
X97719581Y-107719581D03*
X97719581Y-112280419D03*
X100000000Y-106775000D03*
D17*
X100000000Y-110000000D03*
D16*
X100000000Y-113225000D03*
X102280419Y-107719581D03*
X102280419Y-112280419D03*
X103225000Y-110000000D03*
%TD*%
D10*
%TO.C,J3*%
X25555000Y-87250000D03*
D11*
X25555000Y-82250000D03*
X25555000Y-77250000D03*
X25555000Y-72250000D03*
X25555000Y-67250000D03*
X25555000Y-62250000D03*
X25555000Y-57250000D03*
X25555000Y-52250000D03*
%TD*%
D18*
%TO.C,J1*%
X123930000Y-112120000D03*
X123930000Y-86720000D03*
D19*
X117580000Y-110850000D03*
X115040000Y-109580000D03*
X117580000Y-108310000D03*
X115040000Y-107040000D03*
X117580000Y-105770000D03*
X115040000Y-104500000D03*
X117580000Y-103230000D03*
X115040000Y-101960000D03*
X117580000Y-96880000D03*
X115040000Y-95610000D03*
X117580000Y-94340000D03*
X115040000Y-93070000D03*
X117580000Y-91800000D03*
X115040000Y-90530000D03*
X117580000Y-89260000D03*
X115040000Y-87990000D03*
D20*
X127610000Y-114920000D03*
X127610000Y-83920000D03*
%TD*%
D21*
%TO.C,SW2*%
X89310000Y-67920000D03*
D22*
X89310000Y-65420000D03*
X89310000Y-62920000D03*
X92610000Y-62920000D03*
X92610000Y-65420000D03*
X92610000Y-67920000D03*
%TD*%
D16*
%TO.C,H2*%
X26775000Y-110000000D03*
X27719581Y-107719581D03*
X27719581Y-112280419D03*
X30000000Y-106775000D03*
D17*
X30000000Y-110000000D03*
D16*
X30000000Y-113225000D03*
X32280419Y-107719581D03*
X32280419Y-112280419D03*
X33225000Y-110000000D03*
%TD*%
D23*
%TO.C,SW1*%
X109110000Y-74020000D03*
X109110000Y-80520000D03*
X104610000Y-74020000D03*
X104610000Y-80520000D03*
%TD*%
D16*
%TO.C,H4*%
X96775000Y-30000000D03*
X97719581Y-27719581D03*
X97719581Y-32280419D03*
X100000000Y-26775000D03*
D17*
X100000000Y-30000000D03*
D16*
X100000000Y-33225000D03*
X102280419Y-27719581D03*
X102280419Y-32280419D03*
X103225000Y-30000000D03*
%TD*%
%TO.C,H1*%
X26775000Y-30000000D03*
X27719581Y-27719581D03*
X27719581Y-32280419D03*
X30000000Y-26775000D03*
D17*
X30000000Y-30000000D03*
D16*
X30000000Y-33225000D03*
X32280419Y-27719581D03*
X32280419Y-32280419D03*
X33225000Y-30000000D03*
%TD*%
D24*
%TO.C,Y1*%
X109155000Y-63025000D03*
X109155000Y-65465000D03*
X109155000Y-67905000D03*
%TD*%
M02*
