M48
; DRILL file {KiCad 8.0.1} date 2024-04-14T04:19:37-0400
; FORMAT={-:-/ absolute / inch / decimal}
; #@! TF.CreationDate,2024-04-14T04:19:37-04:00
; #@! TF.GenerationSoftware,Kicad,Pcbnew,8.0.1
; #@! TF.FileFunction,Plated,1,2,PTH
FMAT,2
INCH
; #@! TA.AperFunction,Plated,PTH,ViaDrill
T1C0.0118
; #@! TA.AperFunction,Plated,PTH,ViaDrill
T2C0.0197
; #@! TA.AperFunction,Plated,PTH,ComponentDrill
T3C0.0315
; #@! TA.AperFunction,Plated,PTH,ComponentDrill
T4C0.0354
; #@! TA.AperFunction,Plated,PTH,ComponentDrill
T5C0.0394
; #@! TA.AperFunction,Plated,PTH,ComponentDrill
T6C0.0433
; #@! TA.AperFunction,Plated,PTH,ComponentDrill
T7C0.0512
; #@! TA.AperFunction,Plated,PTH,ComponentDrill
T8C0.0669
%
G90
G05
T1
X1.5748Y-1.4961
X1.5748Y-2.9135
X1.5748Y-3.622
X1.5749Y-2.2045
X1.6142Y-1.5354
X1.6142Y-2.9528
X1.6142Y-3.6614
X1.6143Y-2.2439
X1.6929Y-1.7882
X1.6929Y-3.2056
X1.6929Y-3.9142
X1.693Y-2.4967
X1.7509Y-1.4098
X1.8363Y-2.9135
X1.8654Y-1.4961
X2.1304Y-3.7404
X2.1854Y-4.1203
X2.1938Y-3.8036
X2.1975Y-2.1559
X2.307Y-2.1868
X2.3228Y-3.8878
X2.369Y-4.0865
X2.4016Y-2.1457
X2.4213Y-2.4606
X2.5252Y-4.0083
X2.58Y-2.5157
X2.583Y-4.2218
X2.591Y-2.7063
X2.6378Y-2.0079
X2.6427Y-2.5563
X2.6615Y-3.7075
X2.6624Y-1.4214
X2.6636Y-2.5826
X2.6844Y-2.2182
X2.6969Y-2.3819
X2.7091Y-2.9117
X2.738Y-3.0245
X2.7768Y-2.7167
X2.7881Y-2.4934
X2.7957Y-2.1792
X2.8012Y-2.6563
X2.815Y-2.2835
X2.815Y-4.3898
X2.823Y-2.1184
X2.8346Y-2.0276
X2.8346Y-4.0189
X2.8435Y-2.4025
X2.8543Y-3.2283
X2.8543Y-3.3268
X2.8663Y-3.7379
X2.872Y-2.9117
X2.874Y-2.7559
X2.874Y-2.9724
X2.8937Y-2.2835
X2.8937Y-3.563
X2.9092Y-4.089
X2.9134Y-2.4803
X2.9228Y-1.1092
X2.9259Y-1.3023
X2.9259Y-1.7641
X2.932Y-2.1223
X3.0037Y-3.1727
X3.0446Y-4.0896
X3.0542Y-1.553
X3.0564Y-2.3307
X3.058Y-2.2839
X3.0614Y-4.2219
X3.0616Y-2.8142
X3.0619Y-3.0642
X3.0631Y-1.5967
X3.0657Y-3.3932
X3.0662Y-3.3285
X3.0709Y-3.9862
X3.0709Y-4.1535
X3.0906Y-2.4606
X3.1004Y-4.1043
X3.1056Y-4.0272
X3.1201Y-2.9232
X3.1226Y-4.2219
X3.1295Y-1.6223
X3.1309Y-3.0392
X3.1337Y-2.3182
X3.1341Y-3.542
X3.1438Y-1.057
X3.145Y-1.3293
X3.2283Y-1.9882
X3.2496Y-3.4121
X3.2562Y-2.8621
X3.2569Y-3.5912
X3.2602Y-1.8049
X3.2714Y-1.0777
X3.2762Y-3.0187
X3.2874Y-2.1654
X3.3005Y-1.3098
X3.3059Y-1.8159
X3.3073Y-3.4066
X3.3268Y-2.3622
X3.3465Y-1.437
X3.3465Y-2.2441
X3.3648Y-3.5227
X3.3661Y-1.2008
X3.3661Y-1.2992
X3.3661Y-2.7953
X3.3661Y-3.1496
X3.3782Y-2.0309
X3.3806Y-1.8983
X3.3858Y-2.9528
X3.3898Y-1.6115
X3.4136Y-1.4024
X3.4307Y-1.7549
X3.4313Y-3.7319
X3.4914Y-1.7791
X3.5955Y-3.2919
X3.6811Y-3.4449
X3.7457Y-1.5532
X3.7576Y-3.0769
X3.7976Y-3.5348
X3.9961Y-2.4409
X4.046Y-2.9686
X4.0548Y-2.0797
X4.0623Y-3.2809
X4.252Y-1.9488
X4.2913Y-1.8307
X4.2989Y-2.0557
X4.311Y-3.3071
X4.3496Y-2.091
X4.3688Y-3.1093
X4.3898Y-2.4409
X4.3937Y-3.0449
X4.4359Y-1.9105
X4.438Y-2.3965
X4.4406Y-2.5505
X4.4703Y-1.6476
X4.4703Y-1.6918
X4.4711Y-1.9286
X4.5341Y-2.3467
X4.5688Y-2.8112
X4.5867Y-2.146
X4.6941Y-1.9498
X4.7244Y-1.7717
X4.7293Y-2.1708
X4.7441Y-2.2835
X4.7599Y-2.1976
X4.7638Y-1.9291
X4.7758Y-2.4457
X4.9126Y-1.6991
X4.9213Y-1.8169
X4.9606Y-1.7776
X4.9658Y-3.0031
X5.0787Y-1.7382
X5.0921Y-2.6328
X5.1067Y-2.477
X5.1969Y-1.7382
X5.2231Y-2.2219
X5.393Y-1.2956
X5.4331Y-1.5945
X5.4772Y-1.8841
X5.6693Y-3.5098
X5.7874Y-3.7854
X5.9843Y-3.1161
X6.1811Y-3.5492
X6.1811Y-3.7067
X6.2205Y-2.1713
X6.2992Y-2.9193
X6.3386Y-2.9872
X6.5354Y-3.2343
X6.6142Y-2.4075
T2
X1.2205Y-2.2047
X1.2205Y-2.9331
X1.2205Y-3.5433
X1.2205Y-4.0748
X1.3386Y-1.7913
X1.3386Y-1.9685
X1.3386Y-2.2047
X1.3386Y-2.4409
X1.3386Y-2.6594
X1.3386Y-2.9134
X1.3386Y-3.1496
X1.3386Y-3.3681
X1.3386Y-3.622
X1.3386Y-3.8583
X1.3386Y-4.3504
X1.3583Y-4.0748
X1.4961Y-1.4961
X1.4961Y-1.6929
X1.4961Y-1.7323
X1.4961Y-1.7717
X1.4961Y-2.2047
X1.4961Y-2.4016
X1.4961Y-2.4409
X1.4961Y-2.4803
X1.4961Y-2.9134
X1.4961Y-3.1102
X1.4961Y-3.1496
X1.4961Y-3.189
X1.4961Y-3.622
X1.4961Y-3.8189
X1.4961Y-3.8583
X1.4961Y-3.8976
X1.5354Y-1.6929
X1.5354Y-1.7717
X1.5354Y-2.4016
X1.5354Y-2.4803
X1.5354Y-3.1102
X1.5354Y-3.189
X1.5354Y-3.8189
X1.5354Y-3.8976
X1.5551Y-1.7323
X1.5551Y-2.4409
X1.5551Y-3.1496
X1.5551Y-3.8583
X1.5748Y-1.6929
X1.5748Y-1.7717
X1.5748Y-2.4016
X1.5748Y-2.4803
X1.5748Y-3.1102
X1.5748Y-3.189
X1.5748Y-3.8189
X1.5748Y-3.8976
X1.5945Y-4.2146
X1.6142Y-1.6929
X1.6142Y-1.7323
X1.6142Y-1.7717
X1.6142Y-2.4016
X1.6142Y-2.4409
X1.6142Y-2.4803
X1.6142Y-3.1102
X1.6142Y-3.1496
X1.6142Y-3.189
X1.6142Y-3.8189
X1.6142Y-3.8583
X1.6142Y-3.8976
X1.7913Y-2.4213
X1.811Y-3.9961
X1.9094Y-3.8583
X1.9291Y-2.3228
X1.9488Y-3.2087
X1.9685Y-1.1417
X2.2441Y-4.3504
X2.2835Y-1.1417
X2.3031Y-3.0906
X2.4016Y-4.311
X2.4213Y-3.8583
X2.6181Y-1.4764
X2.6181Y-1.5945
X2.6181Y-3.3268
X2.8346Y-4.5079
X2.8543Y-3.9567
X2.8543Y-4.1929
X2.874Y-3.8583
X3.1102Y-1.2402
X4.4882Y-3.8189
X4.7638Y-1.2205
X4.9606Y-3.937
X5.315Y-0.9449
X5.4134Y-4.4488
X5.4331Y-4.0157
T3
X5.6907Y-2.4904
X5.6907Y-2.5864
X5.6907Y-2.6825
T4
X4.9094Y-2.4862
X4.9094Y-2.5846
X4.9094Y-2.6831
X5.0394Y-2.4862
X5.0394Y-2.5846
X5.0394Y-2.6831
X5.9224Y-3.4732
X5.9224Y-3.5732
X5.9224Y-3.6732
X5.9224Y-3.7732
X5.9224Y-4.0232
X5.9224Y-4.1232
X5.9224Y-4.2232
X5.9224Y-4.3232
X6.0224Y-3.5232
X6.0224Y-3.6232
X6.0224Y-3.7232
X6.0224Y-3.8232
X6.0224Y-4.0732
X6.0224Y-4.1732
X6.0224Y-4.2732
X6.0224Y-4.3732
T5
X5.0449Y-1.4626
X5.0449Y-2.0626
X5.1449Y-1.4626
X5.1449Y-2.0626
X5.2449Y-1.4626
X5.2449Y-2.0626
X5.3449Y-1.4626
X5.3449Y-2.0626
X5.4449Y-1.4626
X5.4449Y-2.0626
X5.5449Y-1.4626
X5.5449Y-2.0626
X5.6449Y-1.4626
X5.6449Y-2.0626
X5.7449Y-1.4626
X5.7449Y-2.0626
X5.8449Y-1.4626
X5.8449Y-2.0626
X5.9449Y-1.4626
X5.9449Y-2.0626
X6.0449Y-1.4626
X6.0449Y-2.0626
X6.1449Y-1.4626
X6.1449Y-2.0626
X6.2449Y-1.4626
X6.2449Y-2.0626
X6.3449Y-1.4626
X6.3449Y-2.0626
X6.4449Y-1.4626
X6.4449Y-2.0626
T6
X5.187Y-2.9685
X5.187Y-3.1457
X5.4429Y-2.9685
X5.4429Y-3.1457
T7
X1.0236Y-1.063
X1.0236Y-1.2598
X1.0236Y-4.252
X1.0236Y-4.4488
X1.0356Y-2.0669
X1.0356Y-2.2638
X1.0356Y-2.4606
X1.0356Y-2.6575
X1.0356Y-2.8543
X1.0356Y-3.0512
X1.0356Y-3.248
X1.0356Y-3.4449
T8
X6.4173Y-3.313
X6.4173Y-4.5335
T5
G00X6.2402Y-1.0492
M15
G01X6.2402Y-1.128
M16
G05
G00X6.4764Y-1.063
M15
G01X6.4764Y-1.1142
M16
G05
G00X6.5453Y-0.9114
M15
G01X6.4862Y-0.9114
M16
G05
G00X6.5453Y-1.2657
M15
G01X6.4862Y-1.2657
M16
G05
M30
