%TF.GenerationSoftware,KiCad,Pcbnew,8.0.4*%
%TF.CreationDate,2024-09-06T01:32:18-04:00*%
%TF.ProjectId,LCC_Booster,4c43435f-426f-46f7-9374-65722e6b6963,3*%
%TF.SameCoordinates,Original*%
%TF.FileFunction,Paste,Top*%
%TF.FilePolarity,Positive*%
%FSLAX46Y46*%
G04 Gerber Fmt 4.6, Leading zero omitted, Abs format (unit mm)*
G04 Created by KiCad (PCBNEW 8.0.4) date 2024-09-06 01:32:18*
%MOMM*%
%LPD*%
G01*
G04 APERTURE LIST*
G04 Aperture macros list*
%AMRoundRect*
0 Rectangle with rounded corners*
0 $1 Rounding radius*
0 $2 $3 $4 $5 $6 $7 $8 $9 X,Y pos of 4 corners*
0 Add a 4 corners polygon primitive as box body*
4,1,4,$2,$3,$4,$5,$6,$7,$8,$9,$2,$3,0*
0 Add four circle primitives for the rounded corners*
1,1,$1+$1,$2,$3*
1,1,$1+$1,$4,$5*
1,1,$1+$1,$6,$7*
1,1,$1+$1,$8,$9*
0 Add four rect primitives between the rounded corners*
20,1,$1+$1,$2,$3,$4,$5,0*
20,1,$1+$1,$4,$5,$6,$7,0*
20,1,$1+$1,$6,$7,$8,$9,0*
20,1,$1+$1,$8,$9,$2,$3,0*%
G04 Aperture macros list end*
%ADD10C,0.000000*%
%ADD11RoundRect,0.155000X-0.155000X0.212500X-0.155000X-0.212500X0.155000X-0.212500X0.155000X0.212500X0*%
%ADD12RoundRect,0.250000X0.412500X0.650000X-0.412500X0.650000X-0.412500X-0.650000X0.412500X-0.650000X0*%
%ADD13RoundRect,0.067500X-0.137500X-0.067500X0.137500X-0.067500X0.137500X0.067500X-0.137500X0.067500X0*%
%ADD14R,1.600000X1.600000*%
%ADD15RoundRect,0.155000X-0.212500X-0.155000X0.212500X-0.155000X0.212500X0.155000X-0.212500X0.155000X0*%
%ADD16RoundRect,0.067500X0.137500X0.067500X-0.137500X0.067500X-0.137500X-0.067500X0.137500X-0.067500X0*%
%ADD17R,0.449999X1.500000*%
%ADD18R,5.000000X3.400001*%
%ADD19RoundRect,0.150000X-0.150000X0.725000X-0.150000X-0.725000X0.150000X-0.725000X0.150000X0.725000X0*%
%ADD20RoundRect,0.150000X0.150000X-0.825000X0.150000X0.825000X-0.150000X0.825000X-0.150000X-0.825000X0*%
%ADD21RoundRect,0.067500X0.067500X-0.137500X0.067500X0.137500X-0.067500X0.137500X-0.067500X-0.137500X0*%
%ADD22RoundRect,0.155000X0.155000X-0.212500X0.155000X0.212500X-0.155000X0.212500X-0.155000X-0.212500X0*%
%ADD23RoundRect,0.155000X0.212500X0.155000X-0.212500X0.155000X-0.212500X-0.155000X0.212500X-0.155000X0*%
%ADD24RoundRect,0.150000X-0.825000X-0.150000X0.825000X-0.150000X0.825000X0.150000X-0.825000X0.150000X0*%
G04 APERTURE END LIST*
D10*
%TO.C,U10*%
G36*
X44405401Y-90458446D02*
G01*
X44414631Y-90461245D01*
X44423135Y-90465791D01*
X44430593Y-90471910D01*
X44436712Y-90479368D01*
X44441258Y-90487872D01*
X44444057Y-90497102D01*
X44445002Y-90506701D01*
X44445002Y-92868301D01*
X44444057Y-92877900D01*
X44441258Y-92887130D01*
X44436712Y-92895634D01*
X44430593Y-92903092D01*
X44423135Y-92909211D01*
X44414631Y-92913757D01*
X44405401Y-92916556D01*
X44395802Y-92917501D01*
X40944202Y-92917501D01*
X40934603Y-92916556D01*
X40925373Y-92913757D01*
X40916869Y-92909211D01*
X40909411Y-92903092D01*
X40903292Y-92895634D01*
X40898746Y-92887130D01*
X40895947Y-92877900D01*
X40895002Y-92868301D01*
X40895002Y-90506701D01*
X40895947Y-90497102D01*
X40898746Y-90487872D01*
X40903292Y-90479368D01*
X40909411Y-90471910D01*
X40916869Y-90465791D01*
X40925373Y-90461245D01*
X40934603Y-90458446D01*
X40944202Y-90457501D01*
X44395802Y-90457501D01*
X44405401Y-90458446D01*
G37*
%TO.C,U8*%
G36*
X44405401Y-75458446D02*
G01*
X44414631Y-75461245D01*
X44423135Y-75465791D01*
X44430593Y-75471910D01*
X44436712Y-75479368D01*
X44441258Y-75487872D01*
X44444057Y-75497102D01*
X44445002Y-75506701D01*
X44445002Y-77868301D01*
X44444057Y-77877900D01*
X44441258Y-77887130D01*
X44436712Y-77895634D01*
X44430593Y-77903092D01*
X44423135Y-77909211D01*
X44414631Y-77913757D01*
X44405401Y-77916556D01*
X44395802Y-77917501D01*
X40944202Y-77917501D01*
X40934603Y-77916556D01*
X40925373Y-77913757D01*
X40916869Y-77909211D01*
X40909411Y-77903092D01*
X40903292Y-77895634D01*
X40898746Y-77887130D01*
X40895947Y-77877900D01*
X40895002Y-77868301D01*
X40895002Y-75506701D01*
X40895947Y-75497102D01*
X40898746Y-75487872D01*
X40903292Y-75479368D01*
X40909411Y-75471910D01*
X40916869Y-75465791D01*
X40925373Y-75461245D01*
X40934603Y-75458446D01*
X40944202Y-75457501D01*
X44395802Y-75457501D01*
X44405401Y-75458446D01*
G37*
%TO.C,U6*%
G36*
X44405401Y-60458446D02*
G01*
X44414631Y-60461245D01*
X44423135Y-60465791D01*
X44430593Y-60471910D01*
X44436712Y-60479368D01*
X44441258Y-60487872D01*
X44444057Y-60497102D01*
X44445002Y-60506701D01*
X44445002Y-62868301D01*
X44444057Y-62877900D01*
X44441258Y-62887130D01*
X44436712Y-62895634D01*
X44430593Y-62903092D01*
X44423135Y-62909211D01*
X44414631Y-62913757D01*
X44405401Y-62916556D01*
X44395802Y-62917501D01*
X40944202Y-62917501D01*
X40934603Y-62916556D01*
X40925373Y-62913757D01*
X40916869Y-62909211D01*
X40909411Y-62903092D01*
X40903292Y-62895634D01*
X40898746Y-62887130D01*
X40895947Y-62877900D01*
X40895002Y-62868301D01*
X40895002Y-60506701D01*
X40895947Y-60497102D01*
X40898746Y-60487872D01*
X40903292Y-60479368D01*
X40909411Y-60471910D01*
X40916869Y-60465791D01*
X40925373Y-60461245D01*
X40934603Y-60458446D01*
X40944202Y-60457501D01*
X44395802Y-60457501D01*
X44405401Y-60458446D01*
G37*
%TO.C,U4*%
G36*
X44405401Y-45458446D02*
G01*
X44414631Y-45461245D01*
X44423135Y-45465791D01*
X44430593Y-45471910D01*
X44436712Y-45479368D01*
X44441258Y-45487872D01*
X44444057Y-45497102D01*
X44445002Y-45506701D01*
X44445002Y-47868301D01*
X44444057Y-47877900D01*
X44441258Y-47887130D01*
X44436712Y-47895634D01*
X44430593Y-47903092D01*
X44423135Y-47909211D01*
X44414631Y-47913757D01*
X44405401Y-47916556D01*
X44395802Y-47917501D01*
X40944202Y-47917501D01*
X40934603Y-47916556D01*
X40925373Y-47913757D01*
X40916869Y-47909211D01*
X40909411Y-47903092D01*
X40903292Y-47895634D01*
X40898746Y-47887130D01*
X40895947Y-47877900D01*
X40895002Y-47868301D01*
X40895002Y-45506701D01*
X40895947Y-45497102D01*
X40898746Y-45487872D01*
X40903292Y-45479368D01*
X40909411Y-45471910D01*
X40916869Y-45465791D01*
X40925373Y-45461245D01*
X40934603Y-45458446D01*
X40944202Y-45457501D01*
X44395802Y-45457501D01*
X44405401Y-45458446D01*
G37*
%TD*%
D11*
%TO.C,C21*%
X48354999Y-73720001D03*
X48354999Y-74855001D03*
%TD*%
D12*
%TO.C,C18*%
X38232502Y-82187501D03*
X35107502Y-82187501D03*
%TD*%
D11*
%TO.C,C7*%
X48354999Y-43720001D03*
X48354999Y-44855001D03*
%TD*%
%TO.C,C28*%
X48354999Y-88720001D03*
X48354999Y-89855001D03*
%TD*%
D13*
%TO.C,R12*%
X54492499Y-88437501D03*
X55217499Y-88437501D03*
%TD*%
%TO.C,R6*%
X54492499Y-58437501D03*
X55217499Y-58437501D03*
%TD*%
%TO.C,R14*%
X84637500Y-85750000D03*
X85362500Y-85750000D03*
%TD*%
D14*
%TO.C,U1*%
X68690000Y-95440000D03*
X68690000Y-97980000D03*
X68690000Y-100520000D03*
X68690000Y-103060000D03*
X76310000Y-103060000D03*
X76310000Y-100520000D03*
X76310000Y-97980000D03*
X76310000Y-95440000D03*
%TD*%
D15*
%TO.C,C34*%
X82932500Y-78250000D03*
X84067500Y-78250000D03*
%TD*%
%TO.C,C3*%
X42670002Y-52687501D03*
X43805002Y-52687501D03*
%TD*%
D12*
%TO.C,C11*%
X38232502Y-67187501D03*
X35107502Y-67187501D03*
%TD*%
D11*
%TO.C,C26*%
X41691351Y-96687501D03*
X41691351Y-97822501D03*
%TD*%
D16*
%TO.C,R4*%
X44032502Y-57487501D03*
X43307502Y-57487501D03*
%TD*%
D17*
%TO.C,U10*%
X44945001Y-88787502D03*
X44295000Y-88787502D03*
X43645001Y-88787502D03*
X42995000Y-88787502D03*
X42345001Y-88787502D03*
X41695000Y-88787502D03*
X41045001Y-88787502D03*
X40395000Y-88787502D03*
X40395000Y-94587500D03*
X41045001Y-94587500D03*
X41695000Y-94587500D03*
X42345001Y-94587500D03*
X42995000Y-94587500D03*
X43645001Y-94587500D03*
X44295000Y-94587500D03*
X44945001Y-94587500D03*
D18*
X42670002Y-91687501D03*
%TD*%
D19*
%TO.C,U5*%
X57164999Y-62057501D03*
X55894999Y-62057501D03*
X54624999Y-62057501D03*
X53354999Y-62057501D03*
X52084999Y-62057501D03*
X50814999Y-62057501D03*
X49544999Y-62057501D03*
X48274999Y-62057501D03*
X48274999Y-67207501D03*
X49544999Y-67207501D03*
X50814999Y-67207501D03*
X52084999Y-67207501D03*
X53354999Y-67207501D03*
X54624999Y-67207501D03*
X55894999Y-67207501D03*
X57164999Y-67207501D03*
%TD*%
D16*
%TO.C,R1*%
X44032502Y-42487501D03*
X43307502Y-42487501D03*
%TD*%
D15*
%TO.C,C13*%
X43602502Y-66187501D03*
X44737502Y-66187501D03*
%TD*%
D19*
%TO.C,U9*%
X57164999Y-92057501D03*
X55894999Y-92057501D03*
X54624999Y-92057501D03*
X53354999Y-92057501D03*
X52084999Y-92057501D03*
X50814999Y-92057501D03*
X49544999Y-92057501D03*
X48274999Y-92057501D03*
X48274999Y-97207501D03*
X49544999Y-97207501D03*
X50814999Y-97207501D03*
X52084999Y-97207501D03*
X53354999Y-97207501D03*
X54624999Y-97207501D03*
X55894999Y-97207501D03*
X57164999Y-97207501D03*
%TD*%
D20*
%TO.C,U11*%
X99190000Y-64475000D03*
X100460000Y-64475000D03*
X101730000Y-64475000D03*
X103000000Y-64475000D03*
X104270000Y-64475000D03*
X105540000Y-64475000D03*
X106810000Y-64475000D03*
X106810000Y-59525000D03*
X105540000Y-59525000D03*
X104270000Y-59525000D03*
X103000000Y-59525000D03*
X101730000Y-59525000D03*
X100460000Y-59525000D03*
X99190000Y-59525000D03*
%TD*%
D15*
%TO.C,C9*%
X45102502Y-57187501D03*
X46237502Y-57187501D03*
%TD*%
D21*
%TO.C,R15*%
X79500000Y-99612500D03*
X79500000Y-98887500D03*
%TD*%
D22*
%TO.C,C30*%
X108877570Y-70819299D03*
X108877570Y-69684299D03*
%TD*%
%TO.C,C29*%
X100976146Y-70817771D03*
X100976146Y-69682771D03*
%TD*%
D15*
%TO.C,C16*%
X45102502Y-72187501D03*
X46237502Y-72187501D03*
%TD*%
D22*
%TO.C,C15*%
X58719999Y-82450001D03*
X58719999Y-81315001D03*
%TD*%
D15*
%TO.C,C20*%
X43602502Y-81187501D03*
X44737502Y-81187501D03*
%TD*%
D17*
%TO.C,U8*%
X44945001Y-73787502D03*
X44295000Y-73787502D03*
X43645001Y-73787502D03*
X42995000Y-73787502D03*
X42345001Y-73787502D03*
X41695000Y-73787502D03*
X41045001Y-73787502D03*
X40395000Y-73787502D03*
X40395000Y-79587500D03*
X41045001Y-79587500D03*
X41695000Y-79587500D03*
X42345001Y-79587500D03*
X42995000Y-79587500D03*
X43645001Y-79587500D03*
X44295000Y-79587500D03*
X44945001Y-79587500D03*
D18*
X42670002Y-76687501D03*
%TD*%
D17*
%TO.C,U6*%
X44945001Y-58787502D03*
X44295000Y-58787502D03*
X43645001Y-58787502D03*
X42995000Y-58787502D03*
X42345001Y-58787502D03*
X41695000Y-58787502D03*
X41045001Y-58787502D03*
X40395000Y-58787502D03*
X40395000Y-64587500D03*
X41045001Y-64587500D03*
X41695000Y-64587500D03*
X42345001Y-64587500D03*
X42995000Y-64587500D03*
X43645001Y-64587500D03*
X44295000Y-64587500D03*
X44945001Y-64587500D03*
D18*
X42670002Y-61687501D03*
%TD*%
D15*
%TO.C,C24*%
X42670002Y-97687501D03*
X43805002Y-97687501D03*
%TD*%
D23*
%TO.C,C32*%
X97567500Y-59500000D03*
X96432500Y-59500000D03*
%TD*%
D16*
%TO.C,R7*%
X44032502Y-72487501D03*
X43307502Y-72487501D03*
%TD*%
%TO.C,R10*%
X44032502Y-87487501D03*
X43307502Y-87487501D03*
%TD*%
D17*
%TO.C,U4*%
X44945001Y-43787502D03*
X44295000Y-43787502D03*
X43645001Y-43787502D03*
X42995000Y-43787502D03*
X42345001Y-43787502D03*
X41695000Y-43787502D03*
X41045001Y-43787502D03*
X40395000Y-43787502D03*
X40395000Y-49587500D03*
X41045001Y-49587500D03*
X41695000Y-49587500D03*
X42345001Y-49587500D03*
X42995000Y-49587500D03*
X43645001Y-49587500D03*
X44295000Y-49587500D03*
X44945001Y-49587500D03*
D18*
X42670002Y-46687501D03*
%TD*%
D13*
%TO.C,R9*%
X54492499Y-73437501D03*
X55217499Y-73437501D03*
%TD*%
D23*
%TO.C,C31*%
X87067500Y-75500000D03*
X85932500Y-75500000D03*
%TD*%
D22*
%TO.C,C22*%
X58719999Y-97450001D03*
X58719999Y-96315001D03*
%TD*%
D12*
%TO.C,C4*%
X38232502Y-52187501D03*
X35107502Y-52187501D03*
%TD*%
D21*
%TO.C,R13*%
X64750000Y-98612500D03*
X64750000Y-97887500D03*
%TD*%
D15*
%TO.C,C6*%
X43602502Y-51187501D03*
X44737502Y-51187501D03*
%TD*%
D22*
%TO.C,C33*%
X80500000Y-72567500D03*
X80500000Y-71432500D03*
%TD*%
D11*
%TO.C,C14*%
X48354999Y-58720001D03*
X48354999Y-59855001D03*
%TD*%
D15*
%TO.C,C10*%
X42670002Y-67687501D03*
X43805002Y-67687501D03*
%TD*%
D13*
%TO.C,R5*%
X49742499Y-59687501D03*
X50467499Y-59687501D03*
%TD*%
D15*
%TO.C,C23*%
X45102502Y-87187501D03*
X46237502Y-87187501D03*
%TD*%
D13*
%TO.C,R11*%
X49742499Y-89687501D03*
X50467499Y-89687501D03*
%TD*%
D12*
%TO.C,C25*%
X38232502Y-97187501D03*
X35107502Y-97187501D03*
%TD*%
D11*
%TO.C,C19*%
X41691351Y-81687501D03*
X41691351Y-82822501D03*
%TD*%
D19*
%TO.C,U3*%
X57164999Y-47057501D03*
X55894999Y-47057501D03*
X54624999Y-47057501D03*
X53354999Y-47057501D03*
X52084999Y-47057501D03*
X50814999Y-47057501D03*
X49544999Y-47057501D03*
X48274999Y-47057501D03*
X48274999Y-52207501D03*
X49544999Y-52207501D03*
X50814999Y-52207501D03*
X52084999Y-52207501D03*
X53354999Y-52207501D03*
X54624999Y-52207501D03*
X55894999Y-52207501D03*
X57164999Y-52207501D03*
%TD*%
%TO.C,U7*%
X57164999Y-77057501D03*
X55894999Y-77057501D03*
X54624999Y-77057501D03*
X53354999Y-77057501D03*
X52084999Y-77057501D03*
X50814999Y-77057501D03*
X49544999Y-77057501D03*
X48274999Y-77057501D03*
X48274999Y-82207501D03*
X49544999Y-82207501D03*
X50814999Y-82207501D03*
X52084999Y-82207501D03*
X53354999Y-82207501D03*
X54624999Y-82207501D03*
X55894999Y-82207501D03*
X57164999Y-82207501D03*
%TD*%
D13*
%TO.C,R8*%
X49742499Y-74687501D03*
X50467499Y-74687501D03*
%TD*%
D15*
%TO.C,C27*%
X43602502Y-96187501D03*
X44737502Y-96187501D03*
%TD*%
D22*
%TO.C,C8*%
X58719999Y-67450001D03*
X58719999Y-66315001D03*
%TD*%
D24*
%TO.C,U12*%
X82525000Y-70095000D03*
X82525000Y-71365000D03*
X82525000Y-72635000D03*
X82525000Y-73905000D03*
X87475000Y-73905000D03*
X87475000Y-72635000D03*
X87475000Y-71365000D03*
X87475000Y-70095000D03*
%TD*%
D15*
%TO.C,C35*%
X77182500Y-93250000D03*
X78317500Y-93250000D03*
%TD*%
D14*
%TO.C,U2*%
X74440000Y-80440000D03*
X74440000Y-82980000D03*
X74440000Y-85520000D03*
X74440000Y-88060000D03*
X82060000Y-88060000D03*
X82060000Y-85520000D03*
X82060000Y-82980000D03*
X82060000Y-80440000D03*
%TD*%
D15*
%TO.C,C17*%
X42670002Y-82687501D03*
X43805002Y-82687501D03*
%TD*%
D13*
%TO.C,R2*%
X49742499Y-44687501D03*
X50467499Y-44687501D03*
%TD*%
%TO.C,R3*%
X54492499Y-43437501D03*
X55217499Y-43437501D03*
%TD*%
D11*
%TO.C,C12*%
X41691351Y-66687501D03*
X41691351Y-67822501D03*
%TD*%
%TO.C,C5*%
X41691351Y-51687501D03*
X41691351Y-52822501D03*
%TD*%
D15*
%TO.C,C2*%
X45102502Y-42187501D03*
X46237502Y-42187501D03*
%TD*%
D22*
%TO.C,C1*%
X58719999Y-52450001D03*
X58719999Y-51315001D03*
%TD*%
M02*
