%TF.GenerationSoftware,KiCad,Pcbnew,8.0.2*%
%TF.CreationDate,2024-05-14T20:45:50-05:00*%
%TF.ProjectId,Uno_R4_LCC_Shield,556e6f5f-5234-45f4-9c43-435f53686965,rev?*%
%TF.SameCoordinates,Original*%
%TF.FileFunction,Legend,Top*%
%TF.FilePolarity,Positive*%
%FSLAX46Y46*%
G04 Gerber Fmt 4.6, Leading zero omitted, Abs format (unit mm)*
G04 Created by KiCad (PCBNEW 8.0.2) date 2024-05-14 20:45:50*
%MOMM*%
%LPD*%
G01*
G04 APERTURE LIST*
%ADD10C,0.100000*%
%ADD11C,0.187500*%
%ADD12C,0.300000*%
%ADD13C,0.250000*%
%ADD14C,0.150000*%
%ADD15C,0.120000*%
%ADD16C,0.127000*%
%ADD17C,0.200000*%
%ADD18C,0.609600*%
G04 APERTURE END LIST*
D10*
X135300000Y-60750000D02*
X153300000Y-60750000D01*
X153300000Y-67250000D01*
X135300000Y-67250000D01*
X135300000Y-60750000D01*
G36*
X135300000Y-60750000D02*
G01*
X153300000Y-60750000D01*
X153300000Y-67250000D01*
X135300000Y-67250000D01*
X135300000Y-60750000D01*
G37*
X139490475Y-68557419D02*
X139014285Y-68557419D01*
X139014285Y-68557419D02*
X138966666Y-69033609D01*
X138966666Y-69033609D02*
X139014285Y-68985990D01*
X139014285Y-68985990D02*
X139109523Y-68938371D01*
X139109523Y-68938371D02*
X139347618Y-68938371D01*
X139347618Y-68938371D02*
X139442856Y-68985990D01*
X139442856Y-68985990D02*
X139490475Y-69033609D01*
X139490475Y-69033609D02*
X139538094Y-69128847D01*
X139538094Y-69128847D02*
X139538094Y-69366942D01*
X139538094Y-69366942D02*
X139490475Y-69462180D01*
X139490475Y-69462180D02*
X139442856Y-69509800D01*
X139442856Y-69509800D02*
X139347618Y-69557419D01*
X139347618Y-69557419D02*
X139109523Y-69557419D01*
X139109523Y-69557419D02*
X139014285Y-69509800D01*
X139014285Y-69509800D02*
X138966666Y-69462180D01*
X139823809Y-68557419D02*
X140157142Y-69557419D01*
X140157142Y-69557419D02*
X140490475Y-68557419D01*
X142061904Y-69557419D02*
X141585714Y-69557419D01*
X141585714Y-69557419D02*
X141585714Y-68557419D01*
X142538095Y-69557419D02*
X142442857Y-69509800D01*
X142442857Y-69509800D02*
X142395238Y-69462180D01*
X142395238Y-69462180D02*
X142347619Y-69366942D01*
X142347619Y-69366942D02*
X142347619Y-69081228D01*
X142347619Y-69081228D02*
X142395238Y-68985990D01*
X142395238Y-68985990D02*
X142442857Y-68938371D01*
X142442857Y-68938371D02*
X142538095Y-68890752D01*
X142538095Y-68890752D02*
X142680952Y-68890752D01*
X142680952Y-68890752D02*
X142776190Y-68938371D01*
X142776190Y-68938371D02*
X142823809Y-68985990D01*
X142823809Y-68985990D02*
X142871428Y-69081228D01*
X142871428Y-69081228D02*
X142871428Y-69366942D01*
X142871428Y-69366942D02*
X142823809Y-69462180D01*
X142823809Y-69462180D02*
X142776190Y-69509800D01*
X142776190Y-69509800D02*
X142680952Y-69557419D01*
X142680952Y-69557419D02*
X142538095Y-69557419D01*
X143728571Y-68890752D02*
X143728571Y-69700276D01*
X143728571Y-69700276D02*
X143680952Y-69795514D01*
X143680952Y-69795514D02*
X143633333Y-69843133D01*
X143633333Y-69843133D02*
X143538095Y-69890752D01*
X143538095Y-69890752D02*
X143395238Y-69890752D01*
X143395238Y-69890752D02*
X143300000Y-69843133D01*
X143728571Y-69509800D02*
X143633333Y-69557419D01*
X143633333Y-69557419D02*
X143442857Y-69557419D01*
X143442857Y-69557419D02*
X143347619Y-69509800D01*
X143347619Y-69509800D02*
X143300000Y-69462180D01*
X143300000Y-69462180D02*
X143252381Y-69366942D01*
X143252381Y-69366942D02*
X143252381Y-69081228D01*
X143252381Y-69081228D02*
X143300000Y-68985990D01*
X143300000Y-68985990D02*
X143347619Y-68938371D01*
X143347619Y-68938371D02*
X143442857Y-68890752D01*
X143442857Y-68890752D02*
X143633333Y-68890752D01*
X143633333Y-68890752D02*
X143728571Y-68938371D01*
X144204762Y-69557419D02*
X144204762Y-68890752D01*
X144204762Y-68557419D02*
X144157143Y-68605038D01*
X144157143Y-68605038D02*
X144204762Y-68652657D01*
X144204762Y-68652657D02*
X144252381Y-68605038D01*
X144252381Y-68605038D02*
X144204762Y-68557419D01*
X144204762Y-68557419D02*
X144204762Y-68652657D01*
X145109523Y-69509800D02*
X145014285Y-69557419D01*
X145014285Y-69557419D02*
X144823809Y-69557419D01*
X144823809Y-69557419D02*
X144728571Y-69509800D01*
X144728571Y-69509800D02*
X144680952Y-69462180D01*
X144680952Y-69462180D02*
X144633333Y-69366942D01*
X144633333Y-69366942D02*
X144633333Y-69081228D01*
X144633333Y-69081228D02*
X144680952Y-68985990D01*
X144680952Y-68985990D02*
X144728571Y-68938371D01*
X144728571Y-68938371D02*
X144823809Y-68890752D01*
X144823809Y-68890752D02*
X145014285Y-68890752D01*
X145014285Y-68890752D02*
X145109523Y-68938371D01*
X146490476Y-68557419D02*
X146680952Y-68557419D01*
X146680952Y-68557419D02*
X146776190Y-68605038D01*
X146776190Y-68605038D02*
X146871428Y-68700276D01*
X146871428Y-68700276D02*
X146919047Y-68890752D01*
X146919047Y-68890752D02*
X146919047Y-69224085D01*
X146919047Y-69224085D02*
X146871428Y-69414561D01*
X146871428Y-69414561D02*
X146776190Y-69509800D01*
X146776190Y-69509800D02*
X146680952Y-69557419D01*
X146680952Y-69557419D02*
X146490476Y-69557419D01*
X146490476Y-69557419D02*
X146395238Y-69509800D01*
X146395238Y-69509800D02*
X146300000Y-69414561D01*
X146300000Y-69414561D02*
X146252381Y-69224085D01*
X146252381Y-69224085D02*
X146252381Y-68890752D01*
X146252381Y-68890752D02*
X146300000Y-68700276D01*
X146300000Y-68700276D02*
X146395238Y-68605038D01*
X146395238Y-68605038D02*
X146490476Y-68557419D01*
X147347619Y-69557419D02*
X147347619Y-68557419D01*
X147347619Y-68557419D02*
X147919047Y-69557419D01*
X147919047Y-69557419D02*
X147919047Y-68557419D01*
X148871428Y-69557419D02*
X148395238Y-69557419D01*
X148395238Y-69557419D02*
X148395238Y-68557419D01*
X149395238Y-69081228D02*
X149395238Y-69557419D01*
X149061905Y-68557419D02*
X149395238Y-69081228D01*
X149395238Y-69081228D02*
X149728571Y-68557419D01*
D11*
X113251926Y-61863095D02*
X113466212Y-62763095D01*
X113466212Y-62763095D02*
X113637640Y-62120238D01*
X113637640Y-62120238D02*
X113809069Y-62763095D01*
X113809069Y-62763095D02*
X114023355Y-61863095D01*
X114366211Y-62763095D02*
X114366211Y-62163095D01*
X114366211Y-61863095D02*
X114323354Y-61905952D01*
X114323354Y-61905952D02*
X114366211Y-61948809D01*
X114366211Y-61948809D02*
X114409068Y-61905952D01*
X114409068Y-61905952D02*
X114366211Y-61863095D01*
X114366211Y-61863095D02*
X114366211Y-61948809D01*
X115094782Y-62291666D02*
X114794782Y-62291666D01*
X114794782Y-62763095D02*
X114794782Y-61863095D01*
X114794782Y-61863095D02*
X115223354Y-61863095D01*
X115566211Y-62763095D02*
X115566211Y-62163095D01*
X115566211Y-61863095D02*
X115523354Y-61905952D01*
X115523354Y-61905952D02*
X115566211Y-61948809D01*
X115566211Y-61948809D02*
X115609068Y-61905952D01*
X115609068Y-61905952D02*
X115566211Y-61863095D01*
X115566211Y-61863095D02*
X115566211Y-61948809D01*
D12*
X155340225Y-22300828D02*
X155840225Y-23800828D01*
X155840225Y-23800828D02*
X156340225Y-22300828D01*
X156483082Y-23943685D02*
X157625939Y-23943685D01*
X157768796Y-22300828D02*
X158625939Y-22300828D01*
X158197367Y-23800828D02*
X158197367Y-22300828D01*
X159983081Y-23800828D02*
X159483081Y-23086542D01*
X159125938Y-23800828D02*
X159125938Y-22300828D01*
X159125938Y-22300828D02*
X159697367Y-22300828D01*
X159697367Y-22300828D02*
X159840224Y-22372257D01*
X159840224Y-22372257D02*
X159911653Y-22443685D01*
X159911653Y-22443685D02*
X159983081Y-22586542D01*
X159983081Y-22586542D02*
X159983081Y-22800828D01*
X159983081Y-22800828D02*
X159911653Y-22943685D01*
X159911653Y-22943685D02*
X159840224Y-23015114D01*
X159840224Y-23015114D02*
X159697367Y-23086542D01*
X159697367Y-23086542D02*
X159125938Y-23086542D01*
X160554510Y-23372257D02*
X161268796Y-23372257D01*
X160411653Y-23800828D02*
X160911653Y-22300828D01*
X160911653Y-22300828D02*
X161411653Y-23800828D01*
X162768795Y-23657971D02*
X162697367Y-23729400D01*
X162697367Y-23729400D02*
X162483081Y-23800828D01*
X162483081Y-23800828D02*
X162340224Y-23800828D01*
X162340224Y-23800828D02*
X162125938Y-23729400D01*
X162125938Y-23729400D02*
X161983081Y-23586542D01*
X161983081Y-23586542D02*
X161911652Y-23443685D01*
X161911652Y-23443685D02*
X161840224Y-23157971D01*
X161840224Y-23157971D02*
X161840224Y-22943685D01*
X161840224Y-22943685D02*
X161911652Y-22657971D01*
X161911652Y-22657971D02*
X161983081Y-22515114D01*
X161983081Y-22515114D02*
X162125938Y-22372257D01*
X162125938Y-22372257D02*
X162340224Y-22300828D01*
X162340224Y-22300828D02*
X162483081Y-22300828D01*
X162483081Y-22300828D02*
X162697367Y-22372257D01*
X162697367Y-22372257D02*
X162768795Y-22443685D01*
X163411652Y-23800828D02*
X163411652Y-22300828D01*
X164268795Y-23800828D02*
X163625938Y-22943685D01*
X164268795Y-22300828D02*
X163411652Y-23157971D01*
D11*
X112610561Y-67880107D02*
X112610561Y-66980107D01*
X112610561Y-66980107D02*
X112910561Y-67622964D01*
X112910561Y-67622964D02*
X113210561Y-66980107D01*
X113210561Y-66980107D02*
X113210561Y-67880107D01*
X113639132Y-67880107D02*
X113639132Y-67280107D01*
X113639132Y-66980107D02*
X113596275Y-67022964D01*
X113596275Y-67022964D02*
X113639132Y-67065821D01*
X113639132Y-67065821D02*
X113681989Y-67022964D01*
X113681989Y-67022964D02*
X113639132Y-66980107D01*
X113639132Y-66980107D02*
X113639132Y-67065821D01*
X114067703Y-67280107D02*
X114067703Y-67880107D01*
X114067703Y-67365821D02*
X114110560Y-67322964D01*
X114110560Y-67322964D02*
X114196275Y-67280107D01*
X114196275Y-67280107D02*
X114324846Y-67280107D01*
X114324846Y-67280107D02*
X114410560Y-67322964D01*
X114410560Y-67322964D02*
X114453418Y-67408678D01*
X114453418Y-67408678D02*
X114453418Y-67880107D01*
X114881989Y-67880107D02*
X114881989Y-67280107D01*
X114881989Y-66980107D02*
X114839132Y-67022964D01*
X114839132Y-67022964D02*
X114881989Y-67065821D01*
X114881989Y-67065821D02*
X114924846Y-67022964D01*
X114924846Y-67022964D02*
X114881989Y-66980107D01*
X114881989Y-66980107D02*
X114881989Y-67065821D01*
X115310560Y-67880107D02*
X115310560Y-67280107D01*
X115310560Y-67365821D02*
X115353417Y-67322964D01*
X115353417Y-67322964D02*
X115439132Y-67280107D01*
X115439132Y-67280107D02*
X115567703Y-67280107D01*
X115567703Y-67280107D02*
X115653417Y-67322964D01*
X115653417Y-67322964D02*
X115696275Y-67408678D01*
X115696275Y-67408678D02*
X115696275Y-67880107D01*
X115696275Y-67408678D02*
X115739132Y-67322964D01*
X115739132Y-67322964D02*
X115824846Y-67280107D01*
X115824846Y-67280107D02*
X115953417Y-67280107D01*
X115953417Y-67280107D02*
X116039132Y-67322964D01*
X116039132Y-67322964D02*
X116081989Y-67408678D01*
X116081989Y-67408678D02*
X116081989Y-67880107D01*
X116896275Y-67880107D02*
X116896275Y-67408678D01*
X116896275Y-67408678D02*
X116853417Y-67322964D01*
X116853417Y-67322964D02*
X116767703Y-67280107D01*
X116767703Y-67280107D02*
X116596275Y-67280107D01*
X116596275Y-67280107D02*
X116510560Y-67322964D01*
X116896275Y-67837250D02*
X116810560Y-67880107D01*
X116810560Y-67880107D02*
X116596275Y-67880107D01*
X116596275Y-67880107D02*
X116510560Y-67837250D01*
X116510560Y-67837250D02*
X116467703Y-67751535D01*
X116467703Y-67751535D02*
X116467703Y-67665821D01*
X116467703Y-67665821D02*
X116510560Y-67580107D01*
X116510560Y-67580107D02*
X116596275Y-67537250D01*
X116596275Y-67537250D02*
X116810560Y-67537250D01*
X116810560Y-67537250D02*
X116896275Y-67494392D01*
D12*
X156750000Y-48678328D02*
X157607143Y-48678328D01*
X157178571Y-50178328D02*
X157178571Y-48678328D01*
X158107142Y-50178328D02*
X158107142Y-49178328D01*
X158107142Y-49464042D02*
X158178571Y-49321185D01*
X158178571Y-49321185D02*
X158250000Y-49249757D01*
X158250000Y-49249757D02*
X158392857Y-49178328D01*
X158392857Y-49178328D02*
X158535714Y-49178328D01*
X159678571Y-50178328D02*
X159678571Y-49392614D01*
X159678571Y-49392614D02*
X159607142Y-49249757D01*
X159607142Y-49249757D02*
X159464285Y-49178328D01*
X159464285Y-49178328D02*
X159178571Y-49178328D01*
X159178571Y-49178328D02*
X159035713Y-49249757D01*
X159678571Y-50106900D02*
X159535713Y-50178328D01*
X159535713Y-50178328D02*
X159178571Y-50178328D01*
X159178571Y-50178328D02*
X159035713Y-50106900D01*
X159035713Y-50106900D02*
X158964285Y-49964042D01*
X158964285Y-49964042D02*
X158964285Y-49821185D01*
X158964285Y-49821185D02*
X159035713Y-49678328D01*
X159035713Y-49678328D02*
X159178571Y-49606900D01*
X159178571Y-49606900D02*
X159535713Y-49606900D01*
X159535713Y-49606900D02*
X159678571Y-49535471D01*
X161035714Y-50106900D02*
X160892856Y-50178328D01*
X160892856Y-50178328D02*
X160607142Y-50178328D01*
X160607142Y-50178328D02*
X160464285Y-50106900D01*
X160464285Y-50106900D02*
X160392856Y-50035471D01*
X160392856Y-50035471D02*
X160321428Y-49892614D01*
X160321428Y-49892614D02*
X160321428Y-49464042D01*
X160321428Y-49464042D02*
X160392856Y-49321185D01*
X160392856Y-49321185D02*
X160464285Y-49249757D01*
X160464285Y-49249757D02*
X160607142Y-49178328D01*
X160607142Y-49178328D02*
X160892856Y-49178328D01*
X160892856Y-49178328D02*
X161035714Y-49249757D01*
X161678570Y-50178328D02*
X161678570Y-48678328D01*
X161821428Y-49606900D02*
X162249999Y-50178328D01*
X162249999Y-49178328D02*
X161678570Y-49749757D01*
X162892856Y-49606900D02*
X164035714Y-49606900D01*
X163464285Y-50178328D02*
X163464285Y-49035471D01*
X156750000Y-35678328D02*
X157607143Y-35678328D01*
X157178571Y-37178328D02*
X157178571Y-35678328D01*
X158107142Y-37178328D02*
X158107142Y-36178328D01*
X158107142Y-36464042D02*
X158178571Y-36321185D01*
X158178571Y-36321185D02*
X158250000Y-36249757D01*
X158250000Y-36249757D02*
X158392857Y-36178328D01*
X158392857Y-36178328D02*
X158535714Y-36178328D01*
X159678571Y-37178328D02*
X159678571Y-36392614D01*
X159678571Y-36392614D02*
X159607142Y-36249757D01*
X159607142Y-36249757D02*
X159464285Y-36178328D01*
X159464285Y-36178328D02*
X159178571Y-36178328D01*
X159178571Y-36178328D02*
X159035713Y-36249757D01*
X159678571Y-37106900D02*
X159535713Y-37178328D01*
X159535713Y-37178328D02*
X159178571Y-37178328D01*
X159178571Y-37178328D02*
X159035713Y-37106900D01*
X159035713Y-37106900D02*
X158964285Y-36964042D01*
X158964285Y-36964042D02*
X158964285Y-36821185D01*
X158964285Y-36821185D02*
X159035713Y-36678328D01*
X159035713Y-36678328D02*
X159178571Y-36606900D01*
X159178571Y-36606900D02*
X159535713Y-36606900D01*
X159535713Y-36606900D02*
X159678571Y-36535471D01*
X161035714Y-37106900D02*
X160892856Y-37178328D01*
X160892856Y-37178328D02*
X160607142Y-37178328D01*
X160607142Y-37178328D02*
X160464285Y-37106900D01*
X160464285Y-37106900D02*
X160392856Y-37035471D01*
X160392856Y-37035471D02*
X160321428Y-36892614D01*
X160321428Y-36892614D02*
X160321428Y-36464042D01*
X160321428Y-36464042D02*
X160392856Y-36321185D01*
X160392856Y-36321185D02*
X160464285Y-36249757D01*
X160464285Y-36249757D02*
X160607142Y-36178328D01*
X160607142Y-36178328D02*
X160892856Y-36178328D01*
X160892856Y-36178328D02*
X161035714Y-36249757D01*
X161678570Y-37178328D02*
X161678570Y-35678328D01*
X161821428Y-36606900D02*
X162249999Y-37178328D01*
X162249999Y-36178328D02*
X161678570Y-36749757D01*
X162892856Y-36606900D02*
X164035714Y-36606900D01*
D13*
X136764286Y-55973470D02*
X137621429Y-55973470D01*
X137192857Y-57473470D02*
X137192857Y-55973470D01*
X138121428Y-57473470D02*
X138121428Y-55973470D01*
X138121428Y-55973470D02*
X138621428Y-57044899D01*
X138621428Y-57044899D02*
X139121428Y-55973470D01*
X139121428Y-55973470D02*
X139121428Y-57473470D01*
X140692857Y-57473470D02*
X140192857Y-56759184D01*
X139835714Y-57473470D02*
X139835714Y-55973470D01*
X139835714Y-55973470D02*
X140407143Y-55973470D01*
X140407143Y-55973470D02*
X140550000Y-56044899D01*
X140550000Y-56044899D02*
X140621429Y-56116327D01*
X140621429Y-56116327D02*
X140692857Y-56259184D01*
X140692857Y-56259184D02*
X140692857Y-56473470D01*
X140692857Y-56473470D02*
X140621429Y-56616327D01*
X140621429Y-56616327D02*
X140550000Y-56687756D01*
X140550000Y-56687756D02*
X140407143Y-56759184D01*
X140407143Y-56759184D02*
X139835714Y-56759184D01*
X142192857Y-57330613D02*
X142121429Y-57402042D01*
X142121429Y-57402042D02*
X141907143Y-57473470D01*
X141907143Y-57473470D02*
X141764286Y-57473470D01*
X141764286Y-57473470D02*
X141550000Y-57402042D01*
X141550000Y-57402042D02*
X141407143Y-57259184D01*
X141407143Y-57259184D02*
X141335714Y-57116327D01*
X141335714Y-57116327D02*
X141264286Y-56830613D01*
X141264286Y-56830613D02*
X141264286Y-56616327D01*
X141264286Y-56616327D02*
X141335714Y-56330613D01*
X141335714Y-56330613D02*
X141407143Y-56187756D01*
X141407143Y-56187756D02*
X141550000Y-56044899D01*
X141550000Y-56044899D02*
X141764286Y-55973470D01*
X141764286Y-55973470D02*
X141907143Y-55973470D01*
X141907143Y-55973470D02*
X142121429Y-56044899D01*
X142121429Y-56044899D02*
X142192857Y-56116327D01*
X143978571Y-55973470D02*
X143978571Y-57187756D01*
X143978571Y-57187756D02*
X144050000Y-57330613D01*
X144050000Y-57330613D02*
X144121429Y-57402042D01*
X144121429Y-57402042D02*
X144264286Y-57473470D01*
X144264286Y-57473470D02*
X144550000Y-57473470D01*
X144550000Y-57473470D02*
X144692857Y-57402042D01*
X144692857Y-57402042D02*
X144764286Y-57330613D01*
X144764286Y-57330613D02*
X144835714Y-57187756D01*
X144835714Y-57187756D02*
X144835714Y-55973470D01*
X145550000Y-56473470D02*
X145550000Y-57473470D01*
X145550000Y-56616327D02*
X145621429Y-56544899D01*
X145621429Y-56544899D02*
X145764286Y-56473470D01*
X145764286Y-56473470D02*
X145978572Y-56473470D01*
X145978572Y-56473470D02*
X146121429Y-56544899D01*
X146121429Y-56544899D02*
X146192858Y-56687756D01*
X146192858Y-56687756D02*
X146192858Y-57473470D01*
X147121429Y-57473470D02*
X146978572Y-57402042D01*
X146978572Y-57402042D02*
X146907143Y-57330613D01*
X146907143Y-57330613D02*
X146835715Y-57187756D01*
X146835715Y-57187756D02*
X146835715Y-56759184D01*
X146835715Y-56759184D02*
X146907143Y-56616327D01*
X146907143Y-56616327D02*
X146978572Y-56544899D01*
X146978572Y-56544899D02*
X147121429Y-56473470D01*
X147121429Y-56473470D02*
X147335715Y-56473470D01*
X147335715Y-56473470D02*
X147478572Y-56544899D01*
X147478572Y-56544899D02*
X147550001Y-56616327D01*
X147550001Y-56616327D02*
X147621429Y-56759184D01*
X147621429Y-56759184D02*
X147621429Y-57187756D01*
X147621429Y-57187756D02*
X147550001Y-57330613D01*
X147550001Y-57330613D02*
X147478572Y-57402042D01*
X147478572Y-57402042D02*
X147335715Y-57473470D01*
X147335715Y-57473470D02*
X147121429Y-57473470D01*
X150264286Y-57473470D02*
X149764286Y-56759184D01*
X149407143Y-57473470D02*
X149407143Y-55973470D01*
X149407143Y-55973470D02*
X149978572Y-55973470D01*
X149978572Y-55973470D02*
X150121429Y-56044899D01*
X150121429Y-56044899D02*
X150192858Y-56116327D01*
X150192858Y-56116327D02*
X150264286Y-56259184D01*
X150264286Y-56259184D02*
X150264286Y-56473470D01*
X150264286Y-56473470D02*
X150192858Y-56616327D01*
X150192858Y-56616327D02*
X150121429Y-56687756D01*
X150121429Y-56687756D02*
X149978572Y-56759184D01*
X149978572Y-56759184D02*
X149407143Y-56759184D01*
X151550001Y-56473470D02*
X151550001Y-57473470D01*
X151192858Y-55902042D02*
X150835715Y-56973470D01*
X150835715Y-56973470D02*
X151764286Y-56973470D01*
X136050000Y-59888386D02*
X135335714Y-59888386D01*
X135335714Y-59888386D02*
X135335714Y-58388386D01*
X137407143Y-59745529D02*
X137335715Y-59816958D01*
X137335715Y-59816958D02*
X137121429Y-59888386D01*
X137121429Y-59888386D02*
X136978572Y-59888386D01*
X136978572Y-59888386D02*
X136764286Y-59816958D01*
X136764286Y-59816958D02*
X136621429Y-59674100D01*
X136621429Y-59674100D02*
X136550000Y-59531243D01*
X136550000Y-59531243D02*
X136478572Y-59245529D01*
X136478572Y-59245529D02*
X136478572Y-59031243D01*
X136478572Y-59031243D02*
X136550000Y-58745529D01*
X136550000Y-58745529D02*
X136621429Y-58602672D01*
X136621429Y-58602672D02*
X136764286Y-58459815D01*
X136764286Y-58459815D02*
X136978572Y-58388386D01*
X136978572Y-58388386D02*
X137121429Y-58388386D01*
X137121429Y-58388386D02*
X137335715Y-58459815D01*
X137335715Y-58459815D02*
X137407143Y-58531243D01*
X138907143Y-59745529D02*
X138835715Y-59816958D01*
X138835715Y-59816958D02*
X138621429Y-59888386D01*
X138621429Y-59888386D02*
X138478572Y-59888386D01*
X138478572Y-59888386D02*
X138264286Y-59816958D01*
X138264286Y-59816958D02*
X138121429Y-59674100D01*
X138121429Y-59674100D02*
X138050000Y-59531243D01*
X138050000Y-59531243D02*
X137978572Y-59245529D01*
X137978572Y-59245529D02*
X137978572Y-59031243D01*
X137978572Y-59031243D02*
X138050000Y-58745529D01*
X138050000Y-58745529D02*
X138121429Y-58602672D01*
X138121429Y-58602672D02*
X138264286Y-58459815D01*
X138264286Y-58459815D02*
X138478572Y-58388386D01*
X138478572Y-58388386D02*
X138621429Y-58388386D01*
X138621429Y-58388386D02*
X138835715Y-58459815D01*
X138835715Y-58459815D02*
X138907143Y-58531243D01*
X139550000Y-59316958D02*
X140692858Y-59316958D01*
X140121429Y-59888386D02*
X140121429Y-58745529D01*
X141407143Y-59888386D02*
X141407143Y-58388386D01*
X141407143Y-58388386D02*
X141764286Y-58388386D01*
X141764286Y-58388386D02*
X141978572Y-58459815D01*
X141978572Y-58459815D02*
X142121429Y-58602672D01*
X142121429Y-58602672D02*
X142192858Y-58745529D01*
X142192858Y-58745529D02*
X142264286Y-59031243D01*
X142264286Y-59031243D02*
X142264286Y-59245529D01*
X142264286Y-59245529D02*
X142192858Y-59531243D01*
X142192858Y-59531243D02*
X142121429Y-59674100D01*
X142121429Y-59674100D02*
X141978572Y-59816958D01*
X141978572Y-59816958D02*
X141764286Y-59888386D01*
X141764286Y-59888386D02*
X141407143Y-59888386D01*
X143764286Y-59745529D02*
X143692858Y-59816958D01*
X143692858Y-59816958D02*
X143478572Y-59888386D01*
X143478572Y-59888386D02*
X143335715Y-59888386D01*
X143335715Y-59888386D02*
X143121429Y-59816958D01*
X143121429Y-59816958D02*
X142978572Y-59674100D01*
X142978572Y-59674100D02*
X142907143Y-59531243D01*
X142907143Y-59531243D02*
X142835715Y-59245529D01*
X142835715Y-59245529D02*
X142835715Y-59031243D01*
X142835715Y-59031243D02*
X142907143Y-58745529D01*
X142907143Y-58745529D02*
X142978572Y-58602672D01*
X142978572Y-58602672D02*
X143121429Y-58459815D01*
X143121429Y-58459815D02*
X143335715Y-58388386D01*
X143335715Y-58388386D02*
X143478572Y-58388386D01*
X143478572Y-58388386D02*
X143692858Y-58459815D01*
X143692858Y-58459815D02*
X143764286Y-58531243D01*
X145264286Y-59745529D02*
X145192858Y-59816958D01*
X145192858Y-59816958D02*
X144978572Y-59888386D01*
X144978572Y-59888386D02*
X144835715Y-59888386D01*
X144835715Y-59888386D02*
X144621429Y-59816958D01*
X144621429Y-59816958D02*
X144478572Y-59674100D01*
X144478572Y-59674100D02*
X144407143Y-59531243D01*
X144407143Y-59531243D02*
X144335715Y-59245529D01*
X144335715Y-59245529D02*
X144335715Y-59031243D01*
X144335715Y-59031243D02*
X144407143Y-58745529D01*
X144407143Y-58745529D02*
X144478572Y-58602672D01*
X144478572Y-58602672D02*
X144621429Y-58459815D01*
X144621429Y-58459815D02*
X144835715Y-58388386D01*
X144835715Y-58388386D02*
X144978572Y-58388386D01*
X144978572Y-58388386D02*
X145192858Y-58459815D01*
X145192858Y-58459815D02*
X145264286Y-58531243D01*
X146978572Y-59816958D02*
X147192858Y-59888386D01*
X147192858Y-59888386D02*
X147550000Y-59888386D01*
X147550000Y-59888386D02*
X147692858Y-59816958D01*
X147692858Y-59816958D02*
X147764286Y-59745529D01*
X147764286Y-59745529D02*
X147835715Y-59602672D01*
X147835715Y-59602672D02*
X147835715Y-59459815D01*
X147835715Y-59459815D02*
X147764286Y-59316958D01*
X147764286Y-59316958D02*
X147692858Y-59245529D01*
X147692858Y-59245529D02*
X147550000Y-59174100D01*
X147550000Y-59174100D02*
X147264286Y-59102672D01*
X147264286Y-59102672D02*
X147121429Y-59031243D01*
X147121429Y-59031243D02*
X147050000Y-58959815D01*
X147050000Y-58959815D02*
X146978572Y-58816958D01*
X146978572Y-58816958D02*
X146978572Y-58674100D01*
X146978572Y-58674100D02*
X147050000Y-58531243D01*
X147050000Y-58531243D02*
X147121429Y-58459815D01*
X147121429Y-58459815D02*
X147264286Y-58388386D01*
X147264286Y-58388386D02*
X147621429Y-58388386D01*
X147621429Y-58388386D02*
X147835715Y-58459815D01*
X148478571Y-59888386D02*
X148478571Y-58388386D01*
X149121429Y-59888386D02*
X149121429Y-59102672D01*
X149121429Y-59102672D02*
X149050000Y-58959815D01*
X149050000Y-58959815D02*
X148907143Y-58888386D01*
X148907143Y-58888386D02*
X148692857Y-58888386D01*
X148692857Y-58888386D02*
X148550000Y-58959815D01*
X148550000Y-58959815D02*
X148478571Y-59031243D01*
X149835714Y-59888386D02*
X149835714Y-58888386D01*
X149835714Y-58388386D02*
X149764286Y-58459815D01*
X149764286Y-58459815D02*
X149835714Y-58531243D01*
X149835714Y-58531243D02*
X149907143Y-58459815D01*
X149907143Y-58459815D02*
X149835714Y-58388386D01*
X149835714Y-58388386D02*
X149835714Y-58531243D01*
X151121429Y-59816958D02*
X150978572Y-59888386D01*
X150978572Y-59888386D02*
X150692858Y-59888386D01*
X150692858Y-59888386D02*
X150550000Y-59816958D01*
X150550000Y-59816958D02*
X150478572Y-59674100D01*
X150478572Y-59674100D02*
X150478572Y-59102672D01*
X150478572Y-59102672D02*
X150550000Y-58959815D01*
X150550000Y-58959815D02*
X150692858Y-58888386D01*
X150692858Y-58888386D02*
X150978572Y-58888386D01*
X150978572Y-58888386D02*
X151121429Y-58959815D01*
X151121429Y-58959815D02*
X151192858Y-59102672D01*
X151192858Y-59102672D02*
X151192858Y-59245529D01*
X151192858Y-59245529D02*
X150478572Y-59388386D01*
X152050000Y-59888386D02*
X151907143Y-59816958D01*
X151907143Y-59816958D02*
X151835714Y-59674100D01*
X151835714Y-59674100D02*
X151835714Y-58388386D01*
X153264286Y-59888386D02*
X153264286Y-58388386D01*
X153264286Y-59816958D02*
X153121428Y-59888386D01*
X153121428Y-59888386D02*
X152835714Y-59888386D01*
X152835714Y-59888386D02*
X152692857Y-59816958D01*
X152692857Y-59816958D02*
X152621428Y-59745529D01*
X152621428Y-59745529D02*
X152550000Y-59602672D01*
X152550000Y-59602672D02*
X152550000Y-59174100D01*
X152550000Y-59174100D02*
X152621428Y-59031243D01*
X152621428Y-59031243D02*
X152692857Y-58959815D01*
X152692857Y-58959815D02*
X152835714Y-58888386D01*
X152835714Y-58888386D02*
X153121428Y-58888386D01*
X153121428Y-58888386D02*
X153264286Y-58959815D01*
D10*
X156375312Y-63372419D02*
X156041979Y-62896228D01*
X155803884Y-63372419D02*
X155803884Y-62372419D01*
X155803884Y-62372419D02*
X156184836Y-62372419D01*
X156184836Y-62372419D02*
X156280074Y-62420038D01*
X156280074Y-62420038D02*
X156327693Y-62467657D01*
X156327693Y-62467657D02*
X156375312Y-62562895D01*
X156375312Y-62562895D02*
X156375312Y-62705752D01*
X156375312Y-62705752D02*
X156327693Y-62800990D01*
X156327693Y-62800990D02*
X156280074Y-62848609D01*
X156280074Y-62848609D02*
X156184836Y-62896228D01*
X156184836Y-62896228D02*
X155803884Y-62896228D01*
X156803884Y-62848609D02*
X157137217Y-62848609D01*
X157280074Y-63372419D02*
X156803884Y-63372419D01*
X156803884Y-63372419D02*
X156803884Y-62372419D01*
X156803884Y-62372419D02*
X157280074Y-62372419D01*
X157661027Y-63324800D02*
X157803884Y-63372419D01*
X157803884Y-63372419D02*
X158041979Y-63372419D01*
X158041979Y-63372419D02*
X158137217Y-63324800D01*
X158137217Y-63324800D02*
X158184836Y-63277180D01*
X158184836Y-63277180D02*
X158232455Y-63181942D01*
X158232455Y-63181942D02*
X158232455Y-63086704D01*
X158232455Y-63086704D02*
X158184836Y-62991466D01*
X158184836Y-62991466D02*
X158137217Y-62943847D01*
X158137217Y-62943847D02*
X158041979Y-62896228D01*
X158041979Y-62896228D02*
X157851503Y-62848609D01*
X157851503Y-62848609D02*
X157756265Y-62800990D01*
X157756265Y-62800990D02*
X157708646Y-62753371D01*
X157708646Y-62753371D02*
X157661027Y-62658133D01*
X157661027Y-62658133D02*
X157661027Y-62562895D01*
X157661027Y-62562895D02*
X157708646Y-62467657D01*
X157708646Y-62467657D02*
X157756265Y-62420038D01*
X157756265Y-62420038D02*
X157851503Y-62372419D01*
X157851503Y-62372419D02*
X158089598Y-62372419D01*
X158089598Y-62372419D02*
X158232455Y-62420038D01*
X158661027Y-62848609D02*
X158994360Y-62848609D01*
X159137217Y-63372419D02*
X158661027Y-63372419D01*
X158661027Y-63372419D02*
X158661027Y-62372419D01*
X158661027Y-62372419D02*
X159137217Y-62372419D01*
X159422932Y-62372419D02*
X159994360Y-62372419D01*
X159708646Y-63372419D02*
X159708646Y-62372419D01*
D14*
X151059580Y-35466666D02*
X151107200Y-35514285D01*
X151107200Y-35514285D02*
X151154819Y-35657142D01*
X151154819Y-35657142D02*
X151154819Y-35752380D01*
X151154819Y-35752380D02*
X151107200Y-35895237D01*
X151107200Y-35895237D02*
X151011961Y-35990475D01*
X151011961Y-35990475D02*
X150916723Y-36038094D01*
X150916723Y-36038094D02*
X150726247Y-36085713D01*
X150726247Y-36085713D02*
X150583390Y-36085713D01*
X150583390Y-36085713D02*
X150392914Y-36038094D01*
X150392914Y-36038094D02*
X150297676Y-35990475D01*
X150297676Y-35990475D02*
X150202438Y-35895237D01*
X150202438Y-35895237D02*
X150154819Y-35752380D01*
X150154819Y-35752380D02*
X150154819Y-35657142D01*
X150154819Y-35657142D02*
X150202438Y-35514285D01*
X150202438Y-35514285D02*
X150250057Y-35466666D01*
X150154819Y-35133332D02*
X150154819Y-34514285D01*
X150154819Y-34514285D02*
X150535771Y-34847618D01*
X150535771Y-34847618D02*
X150535771Y-34704761D01*
X150535771Y-34704761D02*
X150583390Y-34609523D01*
X150583390Y-34609523D02*
X150631009Y-34561904D01*
X150631009Y-34561904D02*
X150726247Y-34514285D01*
X150726247Y-34514285D02*
X150964342Y-34514285D01*
X150964342Y-34514285D02*
X151059580Y-34561904D01*
X151059580Y-34561904D02*
X151107200Y-34609523D01*
X151107200Y-34609523D02*
X151154819Y-34704761D01*
X151154819Y-34704761D02*
X151154819Y-34990475D01*
X151154819Y-34990475D02*
X151107200Y-35085713D01*
X151107200Y-35085713D02*
X151059580Y-35133332D01*
X152059580Y-53566666D02*
X152107200Y-53614285D01*
X152107200Y-53614285D02*
X152154819Y-53757142D01*
X152154819Y-53757142D02*
X152154819Y-53852380D01*
X152154819Y-53852380D02*
X152107200Y-53995237D01*
X152107200Y-53995237D02*
X152011961Y-54090475D01*
X152011961Y-54090475D02*
X151916723Y-54138094D01*
X151916723Y-54138094D02*
X151726247Y-54185713D01*
X151726247Y-54185713D02*
X151583390Y-54185713D01*
X151583390Y-54185713D02*
X151392914Y-54138094D01*
X151392914Y-54138094D02*
X151297676Y-54090475D01*
X151297676Y-54090475D02*
X151202438Y-53995237D01*
X151202438Y-53995237D02*
X151154819Y-53852380D01*
X151154819Y-53852380D02*
X151154819Y-53757142D01*
X151154819Y-53757142D02*
X151202438Y-53614285D01*
X151202438Y-53614285D02*
X151250057Y-53566666D01*
X151154819Y-53233332D02*
X151154819Y-52566666D01*
X151154819Y-52566666D02*
X152154819Y-52995237D01*
X127104819Y-38961904D02*
X127914342Y-38961904D01*
X127914342Y-38961904D02*
X128009580Y-38914285D01*
X128009580Y-38914285D02*
X128057200Y-38866666D01*
X128057200Y-38866666D02*
X128104819Y-38771428D01*
X128104819Y-38771428D02*
X128104819Y-38580952D01*
X128104819Y-38580952D02*
X128057200Y-38485714D01*
X128057200Y-38485714D02*
X128009580Y-38438095D01*
X128009580Y-38438095D02*
X127914342Y-38390476D01*
X127914342Y-38390476D02*
X127104819Y-38390476D01*
X128104819Y-37390476D02*
X128104819Y-37961904D01*
X128104819Y-37676190D02*
X127104819Y-37676190D01*
X127104819Y-37676190D02*
X127247676Y-37771428D01*
X127247676Y-37771428D02*
X127342914Y-37866666D01*
X127342914Y-37866666D02*
X127390533Y-37961904D01*
X138166666Y-27154819D02*
X138166666Y-27869104D01*
X138166666Y-27869104D02*
X138119047Y-28011961D01*
X138119047Y-28011961D02*
X138023809Y-28107200D01*
X138023809Y-28107200D02*
X137880952Y-28154819D01*
X137880952Y-28154819D02*
X137785714Y-28154819D01*
X138642857Y-28154819D02*
X138642857Y-27154819D01*
X138642857Y-27154819D02*
X139023809Y-27154819D01*
X139023809Y-27154819D02*
X139119047Y-27202438D01*
X139119047Y-27202438D02*
X139166666Y-27250057D01*
X139166666Y-27250057D02*
X139214285Y-27345295D01*
X139214285Y-27345295D02*
X139214285Y-27488152D01*
X139214285Y-27488152D02*
X139166666Y-27583390D01*
X139166666Y-27583390D02*
X139119047Y-27631009D01*
X139119047Y-27631009D02*
X139023809Y-27678628D01*
X139023809Y-27678628D02*
X138642857Y-27678628D01*
X139595238Y-27250057D02*
X139642857Y-27202438D01*
X139642857Y-27202438D02*
X139738095Y-27154819D01*
X139738095Y-27154819D02*
X139976190Y-27154819D01*
X139976190Y-27154819D02*
X140071428Y-27202438D01*
X140071428Y-27202438D02*
X140119047Y-27250057D01*
X140119047Y-27250057D02*
X140166666Y-27345295D01*
X140166666Y-27345295D02*
X140166666Y-27440533D01*
X140166666Y-27440533D02*
X140119047Y-27583390D01*
X140119047Y-27583390D02*
X139547619Y-28154819D01*
X139547619Y-28154819D02*
X140166666Y-28154819D01*
X132504819Y-37861904D02*
X133314342Y-37861904D01*
X133314342Y-37861904D02*
X133409580Y-37814285D01*
X133409580Y-37814285D02*
X133457200Y-37766666D01*
X133457200Y-37766666D02*
X133504819Y-37671428D01*
X133504819Y-37671428D02*
X133504819Y-37480952D01*
X133504819Y-37480952D02*
X133457200Y-37385714D01*
X133457200Y-37385714D02*
X133409580Y-37338095D01*
X133409580Y-37338095D02*
X133314342Y-37290476D01*
X133314342Y-37290476D02*
X132504819Y-37290476D01*
X132838152Y-36385714D02*
X133504819Y-36385714D01*
X132457200Y-36623809D02*
X133171485Y-36861904D01*
X133171485Y-36861904D02*
X133171485Y-36242857D01*
X148733333Y-39519580D02*
X148685714Y-39567200D01*
X148685714Y-39567200D02*
X148542857Y-39614819D01*
X148542857Y-39614819D02*
X148447619Y-39614819D01*
X148447619Y-39614819D02*
X148304762Y-39567200D01*
X148304762Y-39567200D02*
X148209524Y-39471961D01*
X148209524Y-39471961D02*
X148161905Y-39376723D01*
X148161905Y-39376723D02*
X148114286Y-39186247D01*
X148114286Y-39186247D02*
X148114286Y-39043390D01*
X148114286Y-39043390D02*
X148161905Y-38852914D01*
X148161905Y-38852914D02*
X148209524Y-38757676D01*
X148209524Y-38757676D02*
X148304762Y-38662438D01*
X148304762Y-38662438D02*
X148447619Y-38614819D01*
X148447619Y-38614819D02*
X148542857Y-38614819D01*
X148542857Y-38614819D02*
X148685714Y-38662438D01*
X148685714Y-38662438D02*
X148733333Y-38710057D01*
X149590476Y-38614819D02*
X149400000Y-38614819D01*
X149400000Y-38614819D02*
X149304762Y-38662438D01*
X149304762Y-38662438D02*
X149257143Y-38710057D01*
X149257143Y-38710057D02*
X149161905Y-38852914D01*
X149161905Y-38852914D02*
X149114286Y-39043390D01*
X149114286Y-39043390D02*
X149114286Y-39424342D01*
X149114286Y-39424342D02*
X149161905Y-39519580D01*
X149161905Y-39519580D02*
X149209524Y-39567200D01*
X149209524Y-39567200D02*
X149304762Y-39614819D01*
X149304762Y-39614819D02*
X149495238Y-39614819D01*
X149495238Y-39614819D02*
X149590476Y-39567200D01*
X149590476Y-39567200D02*
X149638095Y-39519580D01*
X149638095Y-39519580D02*
X149685714Y-39424342D01*
X149685714Y-39424342D02*
X149685714Y-39186247D01*
X149685714Y-39186247D02*
X149638095Y-39091009D01*
X149638095Y-39091009D02*
X149590476Y-39043390D01*
X149590476Y-39043390D02*
X149495238Y-38995771D01*
X149495238Y-38995771D02*
X149304762Y-38995771D01*
X149304762Y-38995771D02*
X149209524Y-39043390D01*
X149209524Y-39043390D02*
X149161905Y-39091009D01*
X149161905Y-39091009D02*
X149114286Y-39186247D01*
X102166666Y-59154819D02*
X102166666Y-59869104D01*
X102166666Y-59869104D02*
X102119047Y-60011961D01*
X102119047Y-60011961D02*
X102023809Y-60107200D01*
X102023809Y-60107200D02*
X101880952Y-60154819D01*
X101880952Y-60154819D02*
X101785714Y-60154819D01*
X102642857Y-60154819D02*
X102642857Y-59154819D01*
X102642857Y-59154819D02*
X103023809Y-59154819D01*
X103023809Y-59154819D02*
X103119047Y-59202438D01*
X103119047Y-59202438D02*
X103166666Y-59250057D01*
X103166666Y-59250057D02*
X103214285Y-59345295D01*
X103214285Y-59345295D02*
X103214285Y-59488152D01*
X103214285Y-59488152D02*
X103166666Y-59583390D01*
X103166666Y-59583390D02*
X103119047Y-59631009D01*
X103119047Y-59631009D02*
X103023809Y-59678628D01*
X103023809Y-59678628D02*
X102642857Y-59678628D01*
X104071428Y-59488152D02*
X104071428Y-60154819D01*
X103833333Y-59107200D02*
X103595238Y-59821485D01*
X103595238Y-59821485D02*
X104214285Y-59821485D01*
X151454819Y-25833333D02*
X152169104Y-25833333D01*
X152169104Y-25833333D02*
X152311961Y-25880952D01*
X152311961Y-25880952D02*
X152407200Y-25976190D01*
X152407200Y-25976190D02*
X152454819Y-26119047D01*
X152454819Y-26119047D02*
X152454819Y-26214285D01*
X151550057Y-25404761D02*
X151502438Y-25357142D01*
X151502438Y-25357142D02*
X151454819Y-25261904D01*
X151454819Y-25261904D02*
X151454819Y-25023809D01*
X151454819Y-25023809D02*
X151502438Y-24928571D01*
X151502438Y-24928571D02*
X151550057Y-24880952D01*
X151550057Y-24880952D02*
X151645295Y-24833333D01*
X151645295Y-24833333D02*
X151740533Y-24833333D01*
X151740533Y-24833333D02*
X151883390Y-24880952D01*
X151883390Y-24880952D02*
X152454819Y-25452380D01*
X152454819Y-25452380D02*
X152454819Y-24833333D01*
X114973594Y-37304013D02*
X115688425Y-37304013D01*
X115688425Y-37304013D02*
X115831392Y-37351668D01*
X115831392Y-37351668D02*
X115926703Y-37446979D01*
X115926703Y-37446979D02*
X115974358Y-37589945D01*
X115974358Y-37589945D02*
X115974358Y-37685256D01*
X115974358Y-36303249D02*
X115974358Y-36875114D01*
X115974358Y-36589181D02*
X114973594Y-36589181D01*
X114973594Y-36589181D02*
X115116560Y-36684492D01*
X115116560Y-36684492D02*
X115211871Y-36779803D01*
X115211871Y-36779803D02*
X115259527Y-36875114D01*
X147454819Y-43761904D02*
X148264342Y-43761904D01*
X148264342Y-43761904D02*
X148359580Y-43714285D01*
X148359580Y-43714285D02*
X148407200Y-43666666D01*
X148407200Y-43666666D02*
X148454819Y-43571428D01*
X148454819Y-43571428D02*
X148454819Y-43380952D01*
X148454819Y-43380952D02*
X148407200Y-43285714D01*
X148407200Y-43285714D02*
X148359580Y-43238095D01*
X148359580Y-43238095D02*
X148264342Y-43190476D01*
X148264342Y-43190476D02*
X147454819Y-43190476D01*
X147454819Y-42809523D02*
X147454819Y-42190476D01*
X147454819Y-42190476D02*
X147835771Y-42523809D01*
X147835771Y-42523809D02*
X147835771Y-42380952D01*
X147835771Y-42380952D02*
X147883390Y-42285714D01*
X147883390Y-42285714D02*
X147931009Y-42238095D01*
X147931009Y-42238095D02*
X148026247Y-42190476D01*
X148026247Y-42190476D02*
X148264342Y-42190476D01*
X148264342Y-42190476D02*
X148359580Y-42238095D01*
X148359580Y-42238095D02*
X148407200Y-42285714D01*
X148407200Y-42285714D02*
X148454819Y-42380952D01*
X148454819Y-42380952D02*
X148454819Y-42666666D01*
X148454819Y-42666666D02*
X148407200Y-42761904D01*
X148407200Y-42761904D02*
X148359580Y-42809523D01*
X117444008Y-56019580D02*
X117396389Y-56067200D01*
X117396389Y-56067200D02*
X117253532Y-56114819D01*
X117253532Y-56114819D02*
X117158294Y-56114819D01*
X117158294Y-56114819D02*
X117015437Y-56067200D01*
X117015437Y-56067200D02*
X116920199Y-55971961D01*
X116920199Y-55971961D02*
X116872580Y-55876723D01*
X116872580Y-55876723D02*
X116824961Y-55686247D01*
X116824961Y-55686247D02*
X116824961Y-55543390D01*
X116824961Y-55543390D02*
X116872580Y-55352914D01*
X116872580Y-55352914D02*
X116920199Y-55257676D01*
X116920199Y-55257676D02*
X117015437Y-55162438D01*
X117015437Y-55162438D02*
X117158294Y-55114819D01*
X117158294Y-55114819D02*
X117253532Y-55114819D01*
X117253532Y-55114819D02*
X117396389Y-55162438D01*
X117396389Y-55162438D02*
X117444008Y-55210057D01*
X118396389Y-56114819D02*
X117824961Y-56114819D01*
X118110675Y-56114819D02*
X118110675Y-55114819D01*
X118110675Y-55114819D02*
X118015437Y-55257676D01*
X118015437Y-55257676D02*
X117920199Y-55352914D01*
X117920199Y-55352914D02*
X117824961Y-55400533D01*
X118777342Y-55210057D02*
X118824961Y-55162438D01*
X118824961Y-55162438D02*
X118920199Y-55114819D01*
X118920199Y-55114819D02*
X119158294Y-55114819D01*
X119158294Y-55114819D02*
X119253532Y-55162438D01*
X119253532Y-55162438D02*
X119301151Y-55210057D01*
X119301151Y-55210057D02*
X119348770Y-55305295D01*
X119348770Y-55305295D02*
X119348770Y-55400533D01*
X119348770Y-55400533D02*
X119301151Y-55543390D01*
X119301151Y-55543390D02*
X118729723Y-56114819D01*
X118729723Y-56114819D02*
X119348770Y-56114819D01*
X155954819Y-43333333D02*
X156669104Y-43333333D01*
X156669104Y-43333333D02*
X156811961Y-43380952D01*
X156811961Y-43380952D02*
X156907200Y-43476190D01*
X156907200Y-43476190D02*
X156954819Y-43619047D01*
X156954819Y-43619047D02*
X156954819Y-43714285D01*
X155954819Y-42952380D02*
X155954819Y-42333333D01*
X155954819Y-42333333D02*
X156335771Y-42666666D01*
X156335771Y-42666666D02*
X156335771Y-42523809D01*
X156335771Y-42523809D02*
X156383390Y-42428571D01*
X156383390Y-42428571D02*
X156431009Y-42380952D01*
X156431009Y-42380952D02*
X156526247Y-42333333D01*
X156526247Y-42333333D02*
X156764342Y-42333333D01*
X156764342Y-42333333D02*
X156859580Y-42380952D01*
X156859580Y-42380952D02*
X156907200Y-42428571D01*
X156907200Y-42428571D02*
X156954819Y-42523809D01*
X156954819Y-42523809D02*
X156954819Y-42809523D01*
X156954819Y-42809523D02*
X156907200Y-42904761D01*
X156907200Y-42904761D02*
X156859580Y-42952380D01*
X127433333Y-44559580D02*
X127385714Y-44607200D01*
X127385714Y-44607200D02*
X127242857Y-44654819D01*
X127242857Y-44654819D02*
X127147619Y-44654819D01*
X127147619Y-44654819D02*
X127004762Y-44607200D01*
X127004762Y-44607200D02*
X126909524Y-44511961D01*
X126909524Y-44511961D02*
X126861905Y-44416723D01*
X126861905Y-44416723D02*
X126814286Y-44226247D01*
X126814286Y-44226247D02*
X126814286Y-44083390D01*
X126814286Y-44083390D02*
X126861905Y-43892914D01*
X126861905Y-43892914D02*
X126909524Y-43797676D01*
X126909524Y-43797676D02*
X127004762Y-43702438D01*
X127004762Y-43702438D02*
X127147619Y-43654819D01*
X127147619Y-43654819D02*
X127242857Y-43654819D01*
X127242857Y-43654819D02*
X127385714Y-43702438D01*
X127385714Y-43702438D02*
X127433333Y-43750057D01*
X128385714Y-44654819D02*
X127814286Y-44654819D01*
X128100000Y-44654819D02*
X128100000Y-43654819D01*
X128100000Y-43654819D02*
X128004762Y-43797676D01*
X128004762Y-43797676D02*
X127909524Y-43892914D01*
X127909524Y-43892914D02*
X127814286Y-43940533D01*
X151154819Y-49766666D02*
X150678628Y-50099999D01*
X151154819Y-50338094D02*
X150154819Y-50338094D01*
X150154819Y-50338094D02*
X150154819Y-49957142D01*
X150154819Y-49957142D02*
X150202438Y-49861904D01*
X150202438Y-49861904D02*
X150250057Y-49814285D01*
X150250057Y-49814285D02*
X150345295Y-49766666D01*
X150345295Y-49766666D02*
X150488152Y-49766666D01*
X150488152Y-49766666D02*
X150583390Y-49814285D01*
X150583390Y-49814285D02*
X150631009Y-49861904D01*
X150631009Y-49861904D02*
X150678628Y-49957142D01*
X150678628Y-49957142D02*
X150678628Y-50338094D01*
X151154819Y-48814285D02*
X151154819Y-49385713D01*
X151154819Y-49099999D02*
X150154819Y-49099999D01*
X150154819Y-49099999D02*
X150297676Y-49195237D01*
X150297676Y-49195237D02*
X150392914Y-49290475D01*
X150392914Y-49290475D02*
X150440533Y-49385713D01*
X122765833Y-46499580D02*
X122718214Y-46547200D01*
X122718214Y-46547200D02*
X122575357Y-46594819D01*
X122575357Y-46594819D02*
X122480119Y-46594819D01*
X122480119Y-46594819D02*
X122337262Y-46547200D01*
X122337262Y-46547200D02*
X122242024Y-46451961D01*
X122242024Y-46451961D02*
X122194405Y-46356723D01*
X122194405Y-46356723D02*
X122146786Y-46166247D01*
X122146786Y-46166247D02*
X122146786Y-46023390D01*
X122146786Y-46023390D02*
X122194405Y-45832914D01*
X122194405Y-45832914D02*
X122242024Y-45737676D01*
X122242024Y-45737676D02*
X122337262Y-45642438D01*
X122337262Y-45642438D02*
X122480119Y-45594819D01*
X122480119Y-45594819D02*
X122575357Y-45594819D01*
X122575357Y-45594819D02*
X122718214Y-45642438D01*
X122718214Y-45642438D02*
X122765833Y-45690057D01*
X123337262Y-46023390D02*
X123242024Y-45975771D01*
X123242024Y-45975771D02*
X123194405Y-45928152D01*
X123194405Y-45928152D02*
X123146786Y-45832914D01*
X123146786Y-45832914D02*
X123146786Y-45785295D01*
X123146786Y-45785295D02*
X123194405Y-45690057D01*
X123194405Y-45690057D02*
X123242024Y-45642438D01*
X123242024Y-45642438D02*
X123337262Y-45594819D01*
X123337262Y-45594819D02*
X123527738Y-45594819D01*
X123527738Y-45594819D02*
X123622976Y-45642438D01*
X123622976Y-45642438D02*
X123670595Y-45690057D01*
X123670595Y-45690057D02*
X123718214Y-45785295D01*
X123718214Y-45785295D02*
X123718214Y-45832914D01*
X123718214Y-45832914D02*
X123670595Y-45928152D01*
X123670595Y-45928152D02*
X123622976Y-45975771D01*
X123622976Y-45975771D02*
X123527738Y-46023390D01*
X123527738Y-46023390D02*
X123337262Y-46023390D01*
X123337262Y-46023390D02*
X123242024Y-46071009D01*
X123242024Y-46071009D02*
X123194405Y-46118628D01*
X123194405Y-46118628D02*
X123146786Y-46213866D01*
X123146786Y-46213866D02*
X123146786Y-46404342D01*
X123146786Y-46404342D02*
X123194405Y-46499580D01*
X123194405Y-46499580D02*
X123242024Y-46547200D01*
X123242024Y-46547200D02*
X123337262Y-46594819D01*
X123337262Y-46594819D02*
X123527738Y-46594819D01*
X123527738Y-46594819D02*
X123622976Y-46547200D01*
X123622976Y-46547200D02*
X123670595Y-46499580D01*
X123670595Y-46499580D02*
X123718214Y-46404342D01*
X123718214Y-46404342D02*
X123718214Y-46213866D01*
X123718214Y-46213866D02*
X123670595Y-46118628D01*
X123670595Y-46118628D02*
X123622976Y-46071009D01*
X123622976Y-46071009D02*
X123527738Y-46023390D01*
X149233333Y-33209580D02*
X149185714Y-33257200D01*
X149185714Y-33257200D02*
X149042857Y-33304819D01*
X149042857Y-33304819D02*
X148947619Y-33304819D01*
X148947619Y-33304819D02*
X148804762Y-33257200D01*
X148804762Y-33257200D02*
X148709524Y-33161961D01*
X148709524Y-33161961D02*
X148661905Y-33066723D01*
X148661905Y-33066723D02*
X148614286Y-32876247D01*
X148614286Y-32876247D02*
X148614286Y-32733390D01*
X148614286Y-32733390D02*
X148661905Y-32542914D01*
X148661905Y-32542914D02*
X148709524Y-32447676D01*
X148709524Y-32447676D02*
X148804762Y-32352438D01*
X148804762Y-32352438D02*
X148947619Y-32304819D01*
X148947619Y-32304819D02*
X149042857Y-32304819D01*
X149042857Y-32304819D02*
X149185714Y-32352438D01*
X149185714Y-32352438D02*
X149233333Y-32400057D01*
X150090476Y-32638152D02*
X150090476Y-33304819D01*
X149852381Y-32257200D02*
X149614286Y-32971485D01*
X149614286Y-32971485D02*
X150233333Y-32971485D01*
X148054819Y-52504166D02*
X147578628Y-52837499D01*
X148054819Y-53075594D02*
X147054819Y-53075594D01*
X147054819Y-53075594D02*
X147054819Y-52694642D01*
X147054819Y-52694642D02*
X147102438Y-52599404D01*
X147102438Y-52599404D02*
X147150057Y-52551785D01*
X147150057Y-52551785D02*
X147245295Y-52504166D01*
X147245295Y-52504166D02*
X147388152Y-52504166D01*
X147388152Y-52504166D02*
X147483390Y-52551785D01*
X147483390Y-52551785D02*
X147531009Y-52599404D01*
X147531009Y-52599404D02*
X147578628Y-52694642D01*
X147578628Y-52694642D02*
X147578628Y-53075594D01*
X147150057Y-52123213D02*
X147102438Y-52075594D01*
X147102438Y-52075594D02*
X147054819Y-51980356D01*
X147054819Y-51980356D02*
X147054819Y-51742261D01*
X147054819Y-51742261D02*
X147102438Y-51647023D01*
X147102438Y-51647023D02*
X147150057Y-51599404D01*
X147150057Y-51599404D02*
X147245295Y-51551785D01*
X147245295Y-51551785D02*
X147340533Y-51551785D01*
X147340533Y-51551785D02*
X147483390Y-51599404D01*
X147483390Y-51599404D02*
X148054819Y-52170832D01*
X148054819Y-52170832D02*
X148054819Y-51551785D01*
X133359580Y-39366666D02*
X133407200Y-39414285D01*
X133407200Y-39414285D02*
X133454819Y-39557142D01*
X133454819Y-39557142D02*
X133454819Y-39652380D01*
X133454819Y-39652380D02*
X133407200Y-39795237D01*
X133407200Y-39795237D02*
X133311961Y-39890475D01*
X133311961Y-39890475D02*
X133216723Y-39938094D01*
X133216723Y-39938094D02*
X133026247Y-39985713D01*
X133026247Y-39985713D02*
X132883390Y-39985713D01*
X132883390Y-39985713D02*
X132692914Y-39938094D01*
X132692914Y-39938094D02*
X132597676Y-39890475D01*
X132597676Y-39890475D02*
X132502438Y-39795237D01*
X132502438Y-39795237D02*
X132454819Y-39652380D01*
X132454819Y-39652380D02*
X132454819Y-39557142D01*
X132454819Y-39557142D02*
X132502438Y-39414285D01*
X132502438Y-39414285D02*
X132550057Y-39366666D01*
X133454819Y-38890475D02*
X133454819Y-38699999D01*
X133454819Y-38699999D02*
X133407200Y-38604761D01*
X133407200Y-38604761D02*
X133359580Y-38557142D01*
X133359580Y-38557142D02*
X133216723Y-38461904D01*
X133216723Y-38461904D02*
X133026247Y-38414285D01*
X133026247Y-38414285D02*
X132645295Y-38414285D01*
X132645295Y-38414285D02*
X132550057Y-38461904D01*
X132550057Y-38461904D02*
X132502438Y-38509523D01*
X132502438Y-38509523D02*
X132454819Y-38604761D01*
X132454819Y-38604761D02*
X132454819Y-38795237D01*
X132454819Y-38795237D02*
X132502438Y-38890475D01*
X132502438Y-38890475D02*
X132550057Y-38938094D01*
X132550057Y-38938094D02*
X132645295Y-38985713D01*
X132645295Y-38985713D02*
X132883390Y-38985713D01*
X132883390Y-38985713D02*
X132978628Y-38938094D01*
X132978628Y-38938094D02*
X133026247Y-38890475D01*
X133026247Y-38890475D02*
X133073866Y-38795237D01*
X133073866Y-38795237D02*
X133073866Y-38604761D01*
X133073866Y-38604761D02*
X133026247Y-38509523D01*
X133026247Y-38509523D02*
X132978628Y-38461904D01*
X132978628Y-38461904D02*
X132883390Y-38414285D01*
X118454819Y-65592772D02*
X119169104Y-65592772D01*
X119169104Y-65592772D02*
X119311961Y-65640391D01*
X119311961Y-65640391D02*
X119407200Y-65735629D01*
X119407200Y-65735629D02*
X119454819Y-65878486D01*
X119454819Y-65878486D02*
X119454819Y-65973724D01*
X119454819Y-65116581D02*
X118454819Y-65116581D01*
X118454819Y-65116581D02*
X118454819Y-64735629D01*
X118454819Y-64735629D02*
X118502438Y-64640391D01*
X118502438Y-64640391D02*
X118550057Y-64592772D01*
X118550057Y-64592772D02*
X118645295Y-64545153D01*
X118645295Y-64545153D02*
X118788152Y-64545153D01*
X118788152Y-64545153D02*
X118883390Y-64592772D01*
X118883390Y-64592772D02*
X118931009Y-64640391D01*
X118931009Y-64640391D02*
X118978628Y-64735629D01*
X118978628Y-64735629D02*
X118978628Y-65116581D01*
X118454819Y-63640391D02*
X118454819Y-64116581D01*
X118454819Y-64116581D02*
X118931009Y-64164200D01*
X118931009Y-64164200D02*
X118883390Y-64116581D01*
X118883390Y-64116581D02*
X118835771Y-64021343D01*
X118835771Y-64021343D02*
X118835771Y-63783248D01*
X118835771Y-63783248D02*
X118883390Y-63688010D01*
X118883390Y-63688010D02*
X118931009Y-63640391D01*
X118931009Y-63640391D02*
X119026247Y-63592772D01*
X119026247Y-63592772D02*
X119264342Y-63592772D01*
X119264342Y-63592772D02*
X119359580Y-63640391D01*
X119359580Y-63640391D02*
X119407200Y-63688010D01*
X119407200Y-63688010D02*
X119454819Y-63783248D01*
X119454819Y-63783248D02*
X119454819Y-64021343D01*
X119454819Y-64021343D02*
X119407200Y-64116581D01*
X119407200Y-64116581D02*
X119359580Y-64164200D01*
X146516666Y-25254819D02*
X146516666Y-25969104D01*
X146516666Y-25969104D02*
X146469047Y-26111961D01*
X146469047Y-26111961D02*
X146373809Y-26207200D01*
X146373809Y-26207200D02*
X146230952Y-26254819D01*
X146230952Y-26254819D02*
X146135714Y-26254819D01*
X146992857Y-26254819D02*
X146992857Y-25254819D01*
X146992857Y-25254819D02*
X147373809Y-25254819D01*
X147373809Y-25254819D02*
X147469047Y-25302438D01*
X147469047Y-25302438D02*
X147516666Y-25350057D01*
X147516666Y-25350057D02*
X147564285Y-25445295D01*
X147564285Y-25445295D02*
X147564285Y-25588152D01*
X147564285Y-25588152D02*
X147516666Y-25683390D01*
X147516666Y-25683390D02*
X147469047Y-25731009D01*
X147469047Y-25731009D02*
X147373809Y-25778628D01*
X147373809Y-25778628D02*
X146992857Y-25778628D01*
X148516666Y-26254819D02*
X147945238Y-26254819D01*
X148230952Y-26254819D02*
X148230952Y-25254819D01*
X148230952Y-25254819D02*
X148135714Y-25397676D01*
X148135714Y-25397676D02*
X148040476Y-25492914D01*
X148040476Y-25492914D02*
X147945238Y-25540533D01*
X133209819Y-43836904D02*
X134019342Y-43836904D01*
X134019342Y-43836904D02*
X134114580Y-43789285D01*
X134114580Y-43789285D02*
X134162200Y-43741666D01*
X134162200Y-43741666D02*
X134209819Y-43646428D01*
X134209819Y-43646428D02*
X134209819Y-43455952D01*
X134209819Y-43455952D02*
X134162200Y-43360714D01*
X134162200Y-43360714D02*
X134114580Y-43313095D01*
X134114580Y-43313095D02*
X134019342Y-43265476D01*
X134019342Y-43265476D02*
X133209819Y-43265476D01*
X133305057Y-42836904D02*
X133257438Y-42789285D01*
X133257438Y-42789285D02*
X133209819Y-42694047D01*
X133209819Y-42694047D02*
X133209819Y-42455952D01*
X133209819Y-42455952D02*
X133257438Y-42360714D01*
X133257438Y-42360714D02*
X133305057Y-42313095D01*
X133305057Y-42313095D02*
X133400295Y-42265476D01*
X133400295Y-42265476D02*
X133495533Y-42265476D01*
X133495533Y-42265476D02*
X133638390Y-42313095D01*
X133638390Y-42313095D02*
X134209819Y-42884523D01*
X134209819Y-42884523D02*
X134209819Y-42265476D01*
X115054819Y-50761904D02*
X115864342Y-50761904D01*
X115864342Y-50761904D02*
X115959580Y-50714285D01*
X115959580Y-50714285D02*
X116007200Y-50666666D01*
X116007200Y-50666666D02*
X116054819Y-50571428D01*
X116054819Y-50571428D02*
X116054819Y-50380952D01*
X116054819Y-50380952D02*
X116007200Y-50285714D01*
X116007200Y-50285714D02*
X115959580Y-50238095D01*
X115959580Y-50238095D02*
X115864342Y-50190476D01*
X115864342Y-50190476D02*
X115054819Y-50190476D01*
X115054819Y-49809523D02*
X115054819Y-49142857D01*
X115054819Y-49142857D02*
X116054819Y-49571428D01*
X156416667Y-73407200D02*
X156559524Y-73454819D01*
X156559524Y-73454819D02*
X156797619Y-73454819D01*
X156797619Y-73454819D02*
X156892857Y-73407200D01*
X156892857Y-73407200D02*
X156940476Y-73359580D01*
X156940476Y-73359580D02*
X156988095Y-73264342D01*
X156988095Y-73264342D02*
X156988095Y-73169104D01*
X156988095Y-73169104D02*
X156940476Y-73073866D01*
X156940476Y-73073866D02*
X156892857Y-73026247D01*
X156892857Y-73026247D02*
X156797619Y-72978628D01*
X156797619Y-72978628D02*
X156607143Y-72931009D01*
X156607143Y-72931009D02*
X156511905Y-72883390D01*
X156511905Y-72883390D02*
X156464286Y-72835771D01*
X156464286Y-72835771D02*
X156416667Y-72740533D01*
X156416667Y-72740533D02*
X156416667Y-72645295D01*
X156416667Y-72645295D02*
X156464286Y-72550057D01*
X156464286Y-72550057D02*
X156511905Y-72502438D01*
X156511905Y-72502438D02*
X156607143Y-72454819D01*
X156607143Y-72454819D02*
X156845238Y-72454819D01*
X156845238Y-72454819D02*
X156988095Y-72502438D01*
X157321429Y-72454819D02*
X157559524Y-73454819D01*
X157559524Y-73454819D02*
X157750000Y-72740533D01*
X157750000Y-72740533D02*
X157940476Y-73454819D01*
X157940476Y-73454819D02*
X158178572Y-72454819D01*
X159083333Y-73454819D02*
X158511905Y-73454819D01*
X158797619Y-73454819D02*
X158797619Y-72454819D01*
X158797619Y-72454819D02*
X158702381Y-72597676D01*
X158702381Y-72597676D02*
X158607143Y-72692914D01*
X158607143Y-72692914D02*
X158511905Y-72740533D01*
X136059580Y-37666666D02*
X136107200Y-37714285D01*
X136107200Y-37714285D02*
X136154819Y-37857142D01*
X136154819Y-37857142D02*
X136154819Y-37952380D01*
X136154819Y-37952380D02*
X136107200Y-38095237D01*
X136107200Y-38095237D02*
X136011961Y-38190475D01*
X136011961Y-38190475D02*
X135916723Y-38238094D01*
X135916723Y-38238094D02*
X135726247Y-38285713D01*
X135726247Y-38285713D02*
X135583390Y-38285713D01*
X135583390Y-38285713D02*
X135392914Y-38238094D01*
X135392914Y-38238094D02*
X135297676Y-38190475D01*
X135297676Y-38190475D02*
X135202438Y-38095237D01*
X135202438Y-38095237D02*
X135154819Y-37952380D01*
X135154819Y-37952380D02*
X135154819Y-37857142D01*
X135154819Y-37857142D02*
X135202438Y-37714285D01*
X135202438Y-37714285D02*
X135250057Y-37666666D01*
X135250057Y-37285713D02*
X135202438Y-37238094D01*
X135202438Y-37238094D02*
X135154819Y-37142856D01*
X135154819Y-37142856D02*
X135154819Y-36904761D01*
X135154819Y-36904761D02*
X135202438Y-36809523D01*
X135202438Y-36809523D02*
X135250057Y-36761904D01*
X135250057Y-36761904D02*
X135345295Y-36714285D01*
X135345295Y-36714285D02*
X135440533Y-36714285D01*
X135440533Y-36714285D02*
X135583390Y-36761904D01*
X135583390Y-36761904D02*
X136154819Y-37333332D01*
X136154819Y-37333332D02*
X136154819Y-36714285D01*
X152459580Y-51442857D02*
X152507200Y-51490476D01*
X152507200Y-51490476D02*
X152554819Y-51633333D01*
X152554819Y-51633333D02*
X152554819Y-51728571D01*
X152554819Y-51728571D02*
X152507200Y-51871428D01*
X152507200Y-51871428D02*
X152411961Y-51966666D01*
X152411961Y-51966666D02*
X152316723Y-52014285D01*
X152316723Y-52014285D02*
X152126247Y-52061904D01*
X152126247Y-52061904D02*
X151983390Y-52061904D01*
X151983390Y-52061904D02*
X151792914Y-52014285D01*
X151792914Y-52014285D02*
X151697676Y-51966666D01*
X151697676Y-51966666D02*
X151602438Y-51871428D01*
X151602438Y-51871428D02*
X151554819Y-51728571D01*
X151554819Y-51728571D02*
X151554819Y-51633333D01*
X151554819Y-51633333D02*
X151602438Y-51490476D01*
X151602438Y-51490476D02*
X151650057Y-51442857D01*
X152554819Y-50490476D02*
X152554819Y-51061904D01*
X152554819Y-50776190D02*
X151554819Y-50776190D01*
X151554819Y-50776190D02*
X151697676Y-50871428D01*
X151697676Y-50871428D02*
X151792914Y-50966666D01*
X151792914Y-50966666D02*
X151840533Y-51061904D01*
X152554819Y-49538095D02*
X152554819Y-50109523D01*
X152554819Y-49823809D02*
X151554819Y-49823809D01*
X151554819Y-49823809D02*
X151697676Y-49919047D01*
X151697676Y-49919047D02*
X151792914Y-50014285D01*
X151792914Y-50014285D02*
X151840533Y-50109523D01*
X138166666Y-33454819D02*
X138166666Y-34169104D01*
X138166666Y-34169104D02*
X138119047Y-34311961D01*
X138119047Y-34311961D02*
X138023809Y-34407200D01*
X138023809Y-34407200D02*
X137880952Y-34454819D01*
X137880952Y-34454819D02*
X137785714Y-34454819D01*
X138642857Y-34454819D02*
X138642857Y-33454819D01*
X138642857Y-33454819D02*
X139023809Y-33454819D01*
X139023809Y-33454819D02*
X139119047Y-33502438D01*
X139119047Y-33502438D02*
X139166666Y-33550057D01*
X139166666Y-33550057D02*
X139214285Y-33645295D01*
X139214285Y-33645295D02*
X139214285Y-33788152D01*
X139214285Y-33788152D02*
X139166666Y-33883390D01*
X139166666Y-33883390D02*
X139119047Y-33931009D01*
X139119047Y-33931009D02*
X139023809Y-33978628D01*
X139023809Y-33978628D02*
X138642857Y-33978628D01*
X139547619Y-33454819D02*
X140166666Y-33454819D01*
X140166666Y-33454819D02*
X139833333Y-33835771D01*
X139833333Y-33835771D02*
X139976190Y-33835771D01*
X139976190Y-33835771D02*
X140071428Y-33883390D01*
X140071428Y-33883390D02*
X140119047Y-33931009D01*
X140119047Y-33931009D02*
X140166666Y-34026247D01*
X140166666Y-34026247D02*
X140166666Y-34264342D01*
X140166666Y-34264342D02*
X140119047Y-34359580D01*
X140119047Y-34359580D02*
X140071428Y-34407200D01*
X140071428Y-34407200D02*
X139976190Y-34454819D01*
X139976190Y-34454819D02*
X139690476Y-34454819D01*
X139690476Y-34454819D02*
X139595238Y-34407200D01*
X139595238Y-34407200D02*
X139547619Y-34359580D01*
X110154819Y-65592772D02*
X110869104Y-65592772D01*
X110869104Y-65592772D02*
X111011961Y-65640391D01*
X111011961Y-65640391D02*
X111107200Y-65735629D01*
X111107200Y-65735629D02*
X111154819Y-65878486D01*
X111154819Y-65878486D02*
X111154819Y-65973724D01*
X111154819Y-65116581D02*
X110154819Y-65116581D01*
X110154819Y-65116581D02*
X110154819Y-64735629D01*
X110154819Y-64735629D02*
X110202438Y-64640391D01*
X110202438Y-64640391D02*
X110250057Y-64592772D01*
X110250057Y-64592772D02*
X110345295Y-64545153D01*
X110345295Y-64545153D02*
X110488152Y-64545153D01*
X110488152Y-64545153D02*
X110583390Y-64592772D01*
X110583390Y-64592772D02*
X110631009Y-64640391D01*
X110631009Y-64640391D02*
X110678628Y-64735629D01*
X110678628Y-64735629D02*
X110678628Y-65116581D01*
X110154819Y-63688010D02*
X110154819Y-63878486D01*
X110154819Y-63878486D02*
X110202438Y-63973724D01*
X110202438Y-63973724D02*
X110250057Y-64021343D01*
X110250057Y-64021343D02*
X110392914Y-64116581D01*
X110392914Y-64116581D02*
X110583390Y-64164200D01*
X110583390Y-64164200D02*
X110964342Y-64164200D01*
X110964342Y-64164200D02*
X111059580Y-64116581D01*
X111059580Y-64116581D02*
X111107200Y-64068962D01*
X111107200Y-64068962D02*
X111154819Y-63973724D01*
X111154819Y-63973724D02*
X111154819Y-63783248D01*
X111154819Y-63783248D02*
X111107200Y-63688010D01*
X111107200Y-63688010D02*
X111059580Y-63640391D01*
X111059580Y-63640391D02*
X110964342Y-63592772D01*
X110964342Y-63592772D02*
X110726247Y-63592772D01*
X110726247Y-63592772D02*
X110631009Y-63640391D01*
X110631009Y-63640391D02*
X110583390Y-63688010D01*
X110583390Y-63688010D02*
X110535771Y-63783248D01*
X110535771Y-63783248D02*
X110535771Y-63973724D01*
X110535771Y-63973724D02*
X110583390Y-64068962D01*
X110583390Y-64068962D02*
X110631009Y-64116581D01*
X110631009Y-64116581D02*
X110726247Y-64164200D01*
X153159580Y-37666666D02*
X153207200Y-37714285D01*
X153207200Y-37714285D02*
X153254819Y-37857142D01*
X153254819Y-37857142D02*
X153254819Y-37952380D01*
X153254819Y-37952380D02*
X153207200Y-38095237D01*
X153207200Y-38095237D02*
X153111961Y-38190475D01*
X153111961Y-38190475D02*
X153016723Y-38238094D01*
X153016723Y-38238094D02*
X152826247Y-38285713D01*
X152826247Y-38285713D02*
X152683390Y-38285713D01*
X152683390Y-38285713D02*
X152492914Y-38238094D01*
X152492914Y-38238094D02*
X152397676Y-38190475D01*
X152397676Y-38190475D02*
X152302438Y-38095237D01*
X152302438Y-38095237D02*
X152254819Y-37952380D01*
X152254819Y-37952380D02*
X152254819Y-37857142D01*
X152254819Y-37857142D02*
X152302438Y-37714285D01*
X152302438Y-37714285D02*
X152350057Y-37666666D01*
X152254819Y-36761904D02*
X152254819Y-37238094D01*
X152254819Y-37238094D02*
X152731009Y-37285713D01*
X152731009Y-37285713D02*
X152683390Y-37238094D01*
X152683390Y-37238094D02*
X152635771Y-37142856D01*
X152635771Y-37142856D02*
X152635771Y-36904761D01*
X152635771Y-36904761D02*
X152683390Y-36809523D01*
X152683390Y-36809523D02*
X152731009Y-36761904D01*
X152731009Y-36761904D02*
X152826247Y-36714285D01*
X152826247Y-36714285D02*
X153064342Y-36714285D01*
X153064342Y-36714285D02*
X153159580Y-36761904D01*
X153159580Y-36761904D02*
X153207200Y-36809523D01*
X153207200Y-36809523D02*
X153254819Y-36904761D01*
X153254819Y-36904761D02*
X153254819Y-37142856D01*
X153254819Y-37142856D02*
X153207200Y-37238094D01*
X153207200Y-37238094D02*
X153159580Y-37285713D01*
D15*
%TO.C,C3*%
X150340000Y-37284165D02*
X150340000Y-37515835D01*
X151060000Y-37284165D02*
X151060000Y-37515835D01*
%TO.C,C7*%
X150140000Y-52484165D02*
X150140000Y-52715835D01*
X150860000Y-52484165D02*
X150860000Y-52715835D01*
%TO.C,U1*%
X123990000Y-35890000D02*
X124205000Y-35890000D01*
X123990000Y-38200000D02*
X123990000Y-35890000D01*
X123990000Y-38200000D02*
X123990000Y-40510000D01*
X123990000Y-40510000D02*
X124205000Y-40510000D01*
X126810000Y-35890000D02*
X126595000Y-35890000D01*
X126810000Y-38200000D02*
X126810000Y-35890000D01*
X126810000Y-38200000D02*
X126810000Y-40510000D01*
X126810000Y-40510000D02*
X126595000Y-40510000D01*
X126925000Y-35340000D02*
X126595000Y-35100000D01*
X126925000Y-34860000D01*
X126925000Y-35340000D01*
G36*
X126925000Y-35340000D02*
G01*
X126595000Y-35100000D01*
X126925000Y-34860000D01*
X126925000Y-35340000D01*
G37*
%TO.C,JP2*%
X137600000Y-29800000D02*
X137600000Y-29200000D01*
X138300000Y-28500000D02*
X139700000Y-28500000D01*
X139700000Y-30500000D02*
X138300000Y-30500000D01*
X140400000Y-29200000D02*
X140400000Y-29800000D01*
X137600000Y-29200000D02*
G75*
G02*
X138300000Y-28500000I699999J1D01*
G01*
X138300000Y-30500000D02*
G75*
G02*
X137600000Y-29800000I-1J699999D01*
G01*
X139700000Y-28500000D02*
G75*
G02*
X140400000Y-29200000I0J-700000D01*
G01*
X140400000Y-29800000D02*
G75*
G02*
X139700000Y-30500000I-700000J0D01*
G01*
%TO.C,U4*%
X129390000Y-35890000D02*
X129605000Y-35890000D01*
X129390000Y-38200000D02*
X129390000Y-35890000D01*
X129390000Y-38200000D02*
X129390000Y-40510000D01*
X129390000Y-40510000D02*
X129605000Y-40510000D01*
X132210000Y-35890000D02*
X131995000Y-35890000D01*
X132210000Y-38200000D02*
X132210000Y-35890000D01*
X132210000Y-38200000D02*
X132210000Y-40510000D01*
X132210000Y-40510000D02*
X131995000Y-40510000D01*
X132325000Y-35340000D02*
X131995000Y-35100000D01*
X132325000Y-34860000D01*
X132325000Y-35340000D01*
G36*
X132325000Y-35340000D02*
G01*
X131995000Y-35100000D01*
X132325000Y-34860000D01*
X132325000Y-35340000D01*
G37*
%TO.C,C6*%
X149015835Y-37640000D02*
X148784165Y-37640000D01*
X149015835Y-38360000D02*
X148784165Y-38360000D01*
%TO.C,JP4*%
X101600000Y-61800000D02*
X101600000Y-61200000D01*
X102300000Y-60500000D02*
X103700000Y-60500000D01*
X103700000Y-62500000D02*
X102300000Y-62500000D01*
X104400000Y-61200000D02*
X104400000Y-61800000D01*
X101600000Y-61200000D02*
G75*
G02*
X102300000Y-60500000I699999J1D01*
G01*
X102300000Y-62500000D02*
G75*
G02*
X101600000Y-61800000I-1J699999D01*
G01*
X103700000Y-60500000D02*
G75*
G02*
X104400000Y-61200000I0J-700000D01*
G01*
X104400000Y-61800000D02*
G75*
G02*
X103700000Y-62500000I-700000J0D01*
G01*
D16*
%TO.C,J2*%
X153200000Y-25500000D02*
X154630000Y-25500000D01*
X153200000Y-27880000D02*
X153200000Y-25500000D01*
X153200000Y-34500000D02*
X153200000Y-32120000D01*
X167500000Y-25500000D02*
X158870000Y-25500000D01*
X167500000Y-25500000D02*
X167500000Y-34500000D01*
X167500000Y-34500000D02*
X153200000Y-34500000D01*
D17*
X152650000Y-30000000D02*
G75*
G02*
X152450000Y-30000000I-100000J0D01*
G01*
X152450000Y-30000000D02*
G75*
G02*
X152650000Y-30000000I100000J0D01*
G01*
D16*
%TO.C,J1*%
X92790000Y-27440000D02*
X92790000Y-58560000D01*
X92790000Y-58560000D02*
X114060000Y-58560000D01*
X114060000Y-27440000D02*
X92790000Y-27440000D01*
X114060000Y-58560000D02*
X114060000Y-27440000D01*
D18*
X114875000Y-31700000D02*
G75*
G02*
X114575000Y-31700000I-150000J0D01*
G01*
X114575000Y-31700000D02*
G75*
G02*
X114875000Y-31700000I150000J0D01*
G01*
D15*
%TO.C,C12*%
X119115835Y-54140000D02*
X118884165Y-54140000D01*
X119115835Y-54860000D02*
X118884165Y-54860000D01*
%TO.C,J3*%
X157100000Y-37700000D02*
X157100000Y-38200000D01*
X157340000Y-37940000D02*
X157340000Y-48060000D01*
X157840000Y-37700000D02*
X157100000Y-37700000D01*
X157900000Y-37940000D02*
X157900000Y-48060000D01*
X159400000Y-37940000D02*
X159400000Y-48060000D01*
X160761000Y-44466000D02*
X160726000Y-44431000D01*
X160977000Y-44273000D02*
X160931000Y-44226000D01*
X163069000Y-46775000D02*
X163023000Y-46728000D01*
X163275000Y-46570000D02*
X163239000Y-46535000D01*
X164301000Y-37940000D02*
X164301000Y-48060000D01*
X167261000Y-37940000D02*
X157340000Y-37940000D01*
X167261000Y-37940000D02*
X167261000Y-48060000D01*
X167261000Y-48060000D02*
X157340000Y-48060000D01*
X160319747Y-40528805D02*
G75*
G02*
X160465000Y-39816000I1680254J28806D01*
G01*
X160465244Y-41183318D02*
G75*
G02*
X160320000Y-40500000I1534756J683318D01*
G01*
X161316958Y-38964573D02*
G75*
G02*
X162684000Y-38965000I683041J-1535420D01*
G01*
X162683042Y-42035427D02*
G75*
G02*
X161316000Y-42035000I-683042J1535427D01*
G01*
X163535427Y-39816958D02*
G75*
G02*
X163535000Y-41184000I-1535420J-683041D01*
G01*
X163680000Y-45500000D02*
G75*
G02*
X160320000Y-45500000I-1680000J0D01*
G01*
X160320000Y-45500000D02*
G75*
G02*
X163680000Y-45500000I1680000J0D01*
G01*
%TO.C,C1*%
X127284165Y-42640000D02*
X127515835Y-42640000D01*
X127284165Y-43360000D02*
X127515835Y-43360000D01*
%TO.C,C8*%
X122816665Y-46940000D02*
X123048335Y-46940000D01*
X122816665Y-47660000D02*
X123048335Y-47660000D01*
%TO.C,C4*%
X150111252Y-30090000D02*
X148688748Y-30090000D01*
X150111252Y-31910000D02*
X148688748Y-31910000D01*
%TO.C,C9*%
X133260000Y-41216665D02*
X133260000Y-41448335D01*
X132540000Y-41216665D02*
X132540000Y-41448335D01*
%TO.C,JP5*%
X115500000Y-66159439D02*
X115500000Y-63359439D01*
X116200000Y-62709439D02*
X116800000Y-62709439D01*
X116800000Y-66809439D02*
X116200000Y-66809439D01*
X117500000Y-63359439D02*
X117500000Y-66159439D01*
X117700000Y-65959439D02*
X118000000Y-65659439D01*
X117700000Y-65959439D02*
X118000000Y-66259439D01*
X118000000Y-66259439D02*
X118000000Y-65659439D01*
X115500000Y-63409439D02*
G75*
G02*
X116200000Y-62709439I700000J0D01*
G01*
X116200000Y-66809439D02*
G75*
G02*
X115500000Y-66109439I-1J699999D01*
G01*
X116800000Y-62709439D02*
G75*
G02*
X117500000Y-63409439I0J-700000D01*
G01*
X117500000Y-66109439D02*
G75*
G02*
X116800000Y-66809439I-699999J-1D01*
G01*
%TO.C,JP1*%
X145950000Y-24300000D02*
X145950000Y-23700000D01*
X146650000Y-23000000D02*
X148050000Y-23000000D01*
X148050000Y-25000000D02*
X146650000Y-25000000D01*
X148750000Y-23700000D02*
X148750000Y-24300000D01*
X145950000Y-23700000D02*
G75*
G02*
X146650000Y-23000000I700000J0D01*
G01*
X146650000Y-25000000D02*
G75*
G02*
X145950000Y-24300000I0J700000D01*
G01*
X148050000Y-23000000D02*
G75*
G02*
X148750000Y-23700000I1J-699999D01*
G01*
X148750000Y-24300000D02*
G75*
G02*
X148050000Y-25000000I-699999J-1D01*
G01*
%TO.C,U2*%
X134595000Y-43075000D02*
X134595000Y-41125000D01*
X134595000Y-43075000D02*
X134595000Y-45025000D01*
X144715000Y-43075000D02*
X144715000Y-41125000D01*
X144715000Y-43075000D02*
X144715000Y-45025000D01*
X134650000Y-45775000D02*
X134320000Y-46015000D01*
X134320000Y-45535000D01*
X134650000Y-45775000D01*
G36*
X134650000Y-45775000D02*
G01*
X134320000Y-46015000D01*
X134320000Y-45535000D01*
X134650000Y-45775000D01*
G37*
%TO.C,U7*%
X116440000Y-50000000D02*
X116440000Y-48050000D01*
X116440000Y-50000000D02*
X116440000Y-51950000D01*
X121560000Y-50000000D02*
X121560000Y-48050000D01*
X121560000Y-50000000D02*
X121560000Y-51950000D01*
X116535000Y-52700000D02*
X116205000Y-52940000D01*
X116205000Y-52460000D01*
X116535000Y-52700000D01*
G36*
X116535000Y-52700000D02*
G01*
X116205000Y-52940000D01*
X116205000Y-52460000D01*
X116535000Y-52700000D01*
G37*
%TO.C,SW1*%
X154250000Y-68000000D02*
X154250000Y-69500000D01*
X155500000Y-72000000D02*
X160000000Y-72000000D01*
X160000000Y-65500000D02*
X155500000Y-65500000D01*
X161250000Y-69500000D02*
X161250000Y-68000000D01*
%TO.C,C2*%
X134140000Y-38315835D02*
X134140000Y-38084165D01*
X134860000Y-38315835D02*
X134860000Y-38084165D01*
%TO.C,C11*%
X151640000Y-48384165D02*
X151640000Y-48615835D01*
X152360000Y-48384165D02*
X152360000Y-48615835D01*
%TO.C,JP3*%
X137600000Y-32300000D02*
X137600000Y-31700000D01*
X138300000Y-31000000D02*
X139700000Y-31000000D01*
X139700000Y-33000000D02*
X138300000Y-33000000D01*
X140400000Y-31700000D02*
X140400000Y-32300000D01*
X137600000Y-31700000D02*
G75*
G02*
X138300000Y-31000000I699999J1D01*
G01*
X138300000Y-33000000D02*
G75*
G02*
X137600000Y-32300000I-1J699999D01*
G01*
X139700000Y-31000000D02*
G75*
G02*
X140400000Y-31700000I0J-700000D01*
G01*
X140400000Y-32300000D02*
G75*
G02*
X139700000Y-33000000I-700000J0D01*
G01*
%TO.C,JP6*%
X111500000Y-66159439D02*
X111500000Y-63359439D01*
X112200000Y-62709439D02*
X112800000Y-62709439D01*
X112800000Y-66809439D02*
X112200000Y-66809439D01*
X113500000Y-63359439D02*
X113500000Y-66159439D01*
X113700000Y-65959439D02*
X114000000Y-65659439D01*
X113700000Y-65959439D02*
X114000000Y-66259439D01*
X114000000Y-66259439D02*
X114000000Y-65659439D01*
X111500000Y-63409439D02*
G75*
G02*
X112200000Y-62709439I700000J0D01*
G01*
X112200000Y-66809439D02*
G75*
G02*
X111500000Y-66109439I-1J699999D01*
G01*
X112800000Y-62709439D02*
G75*
G02*
X113500000Y-63409439I0J-700000D01*
G01*
X113500000Y-66109439D02*
G75*
G02*
X112800000Y-66809439I-699999J-1D01*
G01*
%TO.C,C5*%
X151340000Y-37515835D02*
X151340000Y-37284165D01*
X152060000Y-37515835D02*
X152060000Y-37284165D01*
%TD*%
M02*
