M48
; DRILL file {KiCad 8.0.2} date 2024-05-09T00:28:00-0500
; FORMAT={-:-/ absolute / inch / decimal}
; #@! TF.CreationDate,2024-05-09T00:28:00-05:00
; #@! TF.GenerationSoftware,Kicad,Pcbnew,8.0.2
; #@! TF.FileFunction,Plated,1,2,PTH
FMAT,2
INCH
; #@! TA.AperFunction,Plated,PTH,ViaDrill
T1C0.0118
; #@! TA.AperFunction,Plated,PTH,ComponentDrill
T2C0.0315
; #@! TA.AperFunction,Plated,PTH,ComponentDrill
T3C0.0354
; #@! TA.AperFunction,Plated,PTH,ComponentDrill
T4C0.0394
; #@! TA.AperFunction,Plated,PTH,ComponentDrill
T5C0.0433
; #@! TA.AperFunction,Plated,PTH,ComponentDrill
T6C0.0512
; #@! TA.AperFunction,Plated,PTH,ComponentDrill
T7C0.0669
%
G90
G05
T1
X4.0551Y-2.6969
X4.252Y-2.7559
X4.3151Y-2.6213
X4.3504Y-1.6732
X4.685Y-1.3976
X4.7047Y-2.185
X4.7047Y-2.5
X4.7244Y-1.4567
X4.7441Y-2.3228
X4.7638Y-2.5394
X4.7712Y-2.6941
X4.7918Y-2.8283
X4.7926Y-2.4711
X4.8031Y-2.5787
X4.8339Y-2.5546
X4.8425Y-1.6535
X4.8616Y-2.2829
X4.8683Y-2.5326
X4.9409Y-1.5748
X4.9409Y-2.126
X5.0272Y-2.5874
X5.0394Y-2.4213
X5.0448Y-1.4886
X5.0455Y-1.7676
X5.0497Y-1.8129
X5.084Y-2.6117
X5.0853Y-1.6155
X5.1181Y-2.1457
X5.1252Y-2.0542
X5.1772Y-2.0276
X5.2205Y-1.8016
X5.2335Y-1.6788
X5.2345Y-1.7481
X5.2545Y-1.7918
X5.2559Y-2.3031
X5.2754Y-1.1002
X5.315Y-1.8898
X5.3346Y-1.5551
X5.3346Y-1.7126
X5.3509Y-2.335
X5.3724Y-1.9537
X5.4731Y-1.5896
X5.475Y-1.6876
X5.475Y-1.9537
X5.4751Y-2.0113
X5.4818Y-2.341
X5.5448Y-0.9615
X5.5482Y-2.0786
X5.6299Y-1.9291
X5.6861Y-1.184
X5.7087Y-2.2638
X5.7186Y-1.2598
X5.7199Y-2.1767
X5.7283Y-1.7323
X5.748Y-1.8898
X5.7537Y-1.6036
X5.7863Y-2.0714
X5.813Y-1.7989
X5.8171Y-1.7184
X5.8171Y-1.6007
X5.8268Y-1.9094
X5.8858Y-1.3189
X5.9055Y-1.8898
X5.9449Y-1.7323
X6.0172Y-1.8922
X6.0236Y-1.6535
X6.0236Y-1.9882
T3
X4.3319Y-1.2429
X4.3319Y-1.3429
X4.3319Y-1.4429
X4.3319Y-1.5429
X4.3319Y-1.7929
X4.3319Y-1.8929
X4.3319Y-1.9929
X4.3319Y-2.0929
X4.4319Y-1.2929
X4.4319Y-1.3929
X4.4319Y-1.4929
X4.4319Y-1.5929
X4.4319Y-1.8429
X4.4319Y-1.9429
X4.4319Y-2.0429
X4.4319Y-2.1429
T4
X4.0134Y-0.9449
X4.0134Y-2.8449
X4.1134Y-0.9449
X4.1134Y-2.8449
X4.2134Y-0.9449
X4.2134Y-2.8449
X4.3134Y-0.9449
X4.3134Y-2.8449
X4.4134Y-0.9449
X4.4134Y-2.8449
X4.5134Y-0.9449
X4.5134Y-2.8449
X4.6134Y-2.8449
X4.7134Y-0.9449
X4.7134Y-2.8449
X4.8134Y-0.9449
X4.8732Y-2.8449
X4.9134Y-0.9449
X4.9732Y-2.8449
X5.0134Y-0.9449
X5.0732Y-2.8449
X5.1134Y-0.9449
X5.1732Y-2.8449
X5.2134Y-0.9449
X5.2732Y-2.8449
X5.3134Y-0.9449
X5.3732Y-2.8449
X5.4134Y-0.9449
X5.4732Y-2.8449
X5.5732Y-2.8449
X5.6732Y-2.8449
X5.7732Y-2.8449
T5
X6.0827Y-2.6181
X6.0827Y-2.7953
X6.3386Y-2.6181
X6.3386Y-2.7953
T6
X6.378Y-1.5945
X6.378Y-1.7913
T7
X3.937Y-1.0827
X3.937Y-2.3031
T2
G00X6.0531Y-1.2244
M15
G01X6.0531Y-1.1378
M16
G05
G00X6.128Y-0.9921
M15
G01X6.2146Y-0.9921
M16
G05
G00X6.2992Y-1.2244
M15
G01X6.2992Y-1.1378
M16
G05
M30
