%TF.GenerationSoftware,KiCad,Pcbnew,8.0.2*%
%TF.CreationDate,2024-05-09T00:29:02-05:00*%
%TF.ProjectId,Uno_R4_LCC_Shield,556e6f5f-5234-45f4-9c43-435f53686965,rev?*%
%TF.SameCoordinates,Original*%
%TF.FileFunction,Legend,Top*%
%TF.FilePolarity,Positive*%
%FSLAX46Y46*%
G04 Gerber Fmt 4.6, Leading zero omitted, Abs format (unit mm)*
G04 Created by KiCad (PCBNEW 8.0.2) date 2024-05-09 00:29:02*
%MOMM*%
%LPD*%
G01*
G04 APERTURE LIST*
%ADD10C,0.100000*%
%ADD11C,0.187500*%
%ADD12C,0.300000*%
%ADD13C,0.250000*%
%ADD14C,0.150000*%
%ADD15C,0.120000*%
%ADD16C,0.127000*%
%ADD17C,0.200000*%
%ADD18C,0.609600*%
G04 APERTURE END LIST*
D10*
X133000000Y-62500000D02*
X151000000Y-62500000D01*
X151000000Y-69000000D01*
X133000000Y-69000000D01*
X133000000Y-62500000D01*
G36*
X133000000Y-62500000D02*
G01*
X151000000Y-62500000D01*
X151000000Y-69000000D01*
X133000000Y-69000000D01*
X133000000Y-62500000D01*
G37*
X121190475Y-34957419D02*
X120714285Y-34957419D01*
X120714285Y-34957419D02*
X120666666Y-35433609D01*
X120666666Y-35433609D02*
X120714285Y-35385990D01*
X120714285Y-35385990D02*
X120809523Y-35338371D01*
X120809523Y-35338371D02*
X121047618Y-35338371D01*
X121047618Y-35338371D02*
X121142856Y-35385990D01*
X121142856Y-35385990D02*
X121190475Y-35433609D01*
X121190475Y-35433609D02*
X121238094Y-35528847D01*
X121238094Y-35528847D02*
X121238094Y-35766942D01*
X121238094Y-35766942D02*
X121190475Y-35862180D01*
X121190475Y-35862180D02*
X121142856Y-35909800D01*
X121142856Y-35909800D02*
X121047618Y-35957419D01*
X121047618Y-35957419D02*
X120809523Y-35957419D01*
X120809523Y-35957419D02*
X120714285Y-35909800D01*
X120714285Y-35909800D02*
X120666666Y-35862180D01*
X121523809Y-34957419D02*
X121857142Y-35957419D01*
X121857142Y-35957419D02*
X122190475Y-34957419D01*
X123761904Y-35957419D02*
X123285714Y-35957419D01*
X123285714Y-35957419D02*
X123285714Y-34957419D01*
X124238095Y-35957419D02*
X124142857Y-35909800D01*
X124142857Y-35909800D02*
X124095238Y-35862180D01*
X124095238Y-35862180D02*
X124047619Y-35766942D01*
X124047619Y-35766942D02*
X124047619Y-35481228D01*
X124047619Y-35481228D02*
X124095238Y-35385990D01*
X124095238Y-35385990D02*
X124142857Y-35338371D01*
X124142857Y-35338371D02*
X124238095Y-35290752D01*
X124238095Y-35290752D02*
X124380952Y-35290752D01*
X124380952Y-35290752D02*
X124476190Y-35338371D01*
X124476190Y-35338371D02*
X124523809Y-35385990D01*
X124523809Y-35385990D02*
X124571428Y-35481228D01*
X124571428Y-35481228D02*
X124571428Y-35766942D01*
X124571428Y-35766942D02*
X124523809Y-35862180D01*
X124523809Y-35862180D02*
X124476190Y-35909800D01*
X124476190Y-35909800D02*
X124380952Y-35957419D01*
X124380952Y-35957419D02*
X124238095Y-35957419D01*
X125428571Y-35290752D02*
X125428571Y-36100276D01*
X125428571Y-36100276D02*
X125380952Y-36195514D01*
X125380952Y-36195514D02*
X125333333Y-36243133D01*
X125333333Y-36243133D02*
X125238095Y-36290752D01*
X125238095Y-36290752D02*
X125095238Y-36290752D01*
X125095238Y-36290752D02*
X125000000Y-36243133D01*
X125428571Y-35909800D02*
X125333333Y-35957419D01*
X125333333Y-35957419D02*
X125142857Y-35957419D01*
X125142857Y-35957419D02*
X125047619Y-35909800D01*
X125047619Y-35909800D02*
X125000000Y-35862180D01*
X125000000Y-35862180D02*
X124952381Y-35766942D01*
X124952381Y-35766942D02*
X124952381Y-35481228D01*
X124952381Y-35481228D02*
X125000000Y-35385990D01*
X125000000Y-35385990D02*
X125047619Y-35338371D01*
X125047619Y-35338371D02*
X125142857Y-35290752D01*
X125142857Y-35290752D02*
X125333333Y-35290752D01*
X125333333Y-35290752D02*
X125428571Y-35338371D01*
X125904762Y-35957419D02*
X125904762Y-35290752D01*
X125904762Y-34957419D02*
X125857143Y-35005038D01*
X125857143Y-35005038D02*
X125904762Y-35052657D01*
X125904762Y-35052657D02*
X125952381Y-35005038D01*
X125952381Y-35005038D02*
X125904762Y-34957419D01*
X125904762Y-34957419D02*
X125904762Y-35052657D01*
X126809523Y-35909800D02*
X126714285Y-35957419D01*
X126714285Y-35957419D02*
X126523809Y-35957419D01*
X126523809Y-35957419D02*
X126428571Y-35909800D01*
X126428571Y-35909800D02*
X126380952Y-35862180D01*
X126380952Y-35862180D02*
X126333333Y-35766942D01*
X126333333Y-35766942D02*
X126333333Y-35481228D01*
X126333333Y-35481228D02*
X126380952Y-35385990D01*
X126380952Y-35385990D02*
X126428571Y-35338371D01*
X126428571Y-35338371D02*
X126523809Y-35290752D01*
X126523809Y-35290752D02*
X126714285Y-35290752D01*
X126714285Y-35290752D02*
X126809523Y-35338371D01*
X128190476Y-34957419D02*
X128380952Y-34957419D01*
X128380952Y-34957419D02*
X128476190Y-35005038D01*
X128476190Y-35005038D02*
X128571428Y-35100276D01*
X128571428Y-35100276D02*
X128619047Y-35290752D01*
X128619047Y-35290752D02*
X128619047Y-35624085D01*
X128619047Y-35624085D02*
X128571428Y-35814561D01*
X128571428Y-35814561D02*
X128476190Y-35909800D01*
X128476190Y-35909800D02*
X128380952Y-35957419D01*
X128380952Y-35957419D02*
X128190476Y-35957419D01*
X128190476Y-35957419D02*
X128095238Y-35909800D01*
X128095238Y-35909800D02*
X128000000Y-35814561D01*
X128000000Y-35814561D02*
X127952381Y-35624085D01*
X127952381Y-35624085D02*
X127952381Y-35290752D01*
X127952381Y-35290752D02*
X128000000Y-35100276D01*
X128000000Y-35100276D02*
X128095238Y-35005038D01*
X128095238Y-35005038D02*
X128190476Y-34957419D01*
X129047619Y-35957419D02*
X129047619Y-34957419D01*
X129047619Y-34957419D02*
X129619047Y-35957419D01*
X129619047Y-35957419D02*
X129619047Y-34957419D01*
X130571428Y-35957419D02*
X130095238Y-35957419D01*
X130095238Y-35957419D02*
X130095238Y-34957419D01*
X131095238Y-35481228D02*
X131095238Y-35957419D01*
X130761905Y-34957419D02*
X131095238Y-35481228D01*
X131095238Y-35481228D02*
X131428571Y-34957419D01*
D11*
X113251926Y-61863095D02*
X113466212Y-62763095D01*
X113466212Y-62763095D02*
X113637640Y-62120238D01*
X113637640Y-62120238D02*
X113809069Y-62763095D01*
X113809069Y-62763095D02*
X114023355Y-61863095D01*
X114366211Y-62763095D02*
X114366211Y-62163095D01*
X114366211Y-61863095D02*
X114323354Y-61905952D01*
X114323354Y-61905952D02*
X114366211Y-61948809D01*
X114366211Y-61948809D02*
X114409068Y-61905952D01*
X114409068Y-61905952D02*
X114366211Y-61863095D01*
X114366211Y-61863095D02*
X114366211Y-61948809D01*
X115094782Y-62291666D02*
X114794782Y-62291666D01*
X114794782Y-62763095D02*
X114794782Y-61863095D01*
X114794782Y-61863095D02*
X115223354Y-61863095D01*
X115566211Y-62763095D02*
X115566211Y-62163095D01*
X115566211Y-61863095D02*
X115523354Y-61905952D01*
X115523354Y-61905952D02*
X115566211Y-61948809D01*
X115566211Y-61948809D02*
X115609068Y-61905952D01*
X115609068Y-61905952D02*
X115566211Y-61863095D01*
X115566211Y-61863095D02*
X115566211Y-61948809D01*
D12*
X155340225Y-22300828D02*
X155840225Y-23800828D01*
X155840225Y-23800828D02*
X156340225Y-22300828D01*
X156483082Y-23943685D02*
X157625939Y-23943685D01*
X157768796Y-22300828D02*
X158625939Y-22300828D01*
X158197367Y-23800828D02*
X158197367Y-22300828D01*
X159983081Y-23800828D02*
X159483081Y-23086542D01*
X159125938Y-23800828D02*
X159125938Y-22300828D01*
X159125938Y-22300828D02*
X159697367Y-22300828D01*
X159697367Y-22300828D02*
X159840224Y-22372257D01*
X159840224Y-22372257D02*
X159911653Y-22443685D01*
X159911653Y-22443685D02*
X159983081Y-22586542D01*
X159983081Y-22586542D02*
X159983081Y-22800828D01*
X159983081Y-22800828D02*
X159911653Y-22943685D01*
X159911653Y-22943685D02*
X159840224Y-23015114D01*
X159840224Y-23015114D02*
X159697367Y-23086542D01*
X159697367Y-23086542D02*
X159125938Y-23086542D01*
X160554510Y-23372257D02*
X161268796Y-23372257D01*
X160411653Y-23800828D02*
X160911653Y-22300828D01*
X160911653Y-22300828D02*
X161411653Y-23800828D01*
X162768795Y-23657971D02*
X162697367Y-23729400D01*
X162697367Y-23729400D02*
X162483081Y-23800828D01*
X162483081Y-23800828D02*
X162340224Y-23800828D01*
X162340224Y-23800828D02*
X162125938Y-23729400D01*
X162125938Y-23729400D02*
X161983081Y-23586542D01*
X161983081Y-23586542D02*
X161911652Y-23443685D01*
X161911652Y-23443685D02*
X161840224Y-23157971D01*
X161840224Y-23157971D02*
X161840224Y-22943685D01*
X161840224Y-22943685D02*
X161911652Y-22657971D01*
X161911652Y-22657971D02*
X161983081Y-22515114D01*
X161983081Y-22515114D02*
X162125938Y-22372257D01*
X162125938Y-22372257D02*
X162340224Y-22300828D01*
X162340224Y-22300828D02*
X162483081Y-22300828D01*
X162483081Y-22300828D02*
X162697367Y-22372257D01*
X162697367Y-22372257D02*
X162768795Y-22443685D01*
X163411652Y-23800828D02*
X163411652Y-22300828D01*
X164268795Y-23800828D02*
X163625938Y-22943685D01*
X164268795Y-22300828D02*
X163411652Y-23157971D01*
D11*
X112610561Y-67880107D02*
X112610561Y-66980107D01*
X112610561Y-66980107D02*
X112910561Y-67622964D01*
X112910561Y-67622964D02*
X113210561Y-66980107D01*
X113210561Y-66980107D02*
X113210561Y-67880107D01*
X113639132Y-67880107D02*
X113639132Y-67280107D01*
X113639132Y-66980107D02*
X113596275Y-67022964D01*
X113596275Y-67022964D02*
X113639132Y-67065821D01*
X113639132Y-67065821D02*
X113681989Y-67022964D01*
X113681989Y-67022964D02*
X113639132Y-66980107D01*
X113639132Y-66980107D02*
X113639132Y-67065821D01*
X114067703Y-67280107D02*
X114067703Y-67880107D01*
X114067703Y-67365821D02*
X114110560Y-67322964D01*
X114110560Y-67322964D02*
X114196275Y-67280107D01*
X114196275Y-67280107D02*
X114324846Y-67280107D01*
X114324846Y-67280107D02*
X114410560Y-67322964D01*
X114410560Y-67322964D02*
X114453418Y-67408678D01*
X114453418Y-67408678D02*
X114453418Y-67880107D01*
X114881989Y-67880107D02*
X114881989Y-67280107D01*
X114881989Y-66980107D02*
X114839132Y-67022964D01*
X114839132Y-67022964D02*
X114881989Y-67065821D01*
X114881989Y-67065821D02*
X114924846Y-67022964D01*
X114924846Y-67022964D02*
X114881989Y-66980107D01*
X114881989Y-66980107D02*
X114881989Y-67065821D01*
X115310560Y-67880107D02*
X115310560Y-67280107D01*
X115310560Y-67365821D02*
X115353417Y-67322964D01*
X115353417Y-67322964D02*
X115439132Y-67280107D01*
X115439132Y-67280107D02*
X115567703Y-67280107D01*
X115567703Y-67280107D02*
X115653417Y-67322964D01*
X115653417Y-67322964D02*
X115696275Y-67408678D01*
X115696275Y-67408678D02*
X115696275Y-67880107D01*
X115696275Y-67408678D02*
X115739132Y-67322964D01*
X115739132Y-67322964D02*
X115824846Y-67280107D01*
X115824846Y-67280107D02*
X115953417Y-67280107D01*
X115953417Y-67280107D02*
X116039132Y-67322964D01*
X116039132Y-67322964D02*
X116081989Y-67408678D01*
X116081989Y-67408678D02*
X116081989Y-67880107D01*
X116896275Y-67880107D02*
X116896275Y-67408678D01*
X116896275Y-67408678D02*
X116853417Y-67322964D01*
X116853417Y-67322964D02*
X116767703Y-67280107D01*
X116767703Y-67280107D02*
X116596275Y-67280107D01*
X116596275Y-67280107D02*
X116510560Y-67322964D01*
X116896275Y-67837250D02*
X116810560Y-67880107D01*
X116810560Y-67880107D02*
X116596275Y-67880107D01*
X116596275Y-67880107D02*
X116510560Y-67837250D01*
X116510560Y-67837250D02*
X116467703Y-67751535D01*
X116467703Y-67751535D02*
X116467703Y-67665821D01*
X116467703Y-67665821D02*
X116510560Y-67580107D01*
X116510560Y-67580107D02*
X116596275Y-67537250D01*
X116596275Y-67537250D02*
X116810560Y-67537250D01*
X116810560Y-67537250D02*
X116896275Y-67494392D01*
D12*
X156750000Y-48678328D02*
X157607143Y-48678328D01*
X157178571Y-50178328D02*
X157178571Y-48678328D01*
X158107142Y-50178328D02*
X158107142Y-49178328D01*
X158107142Y-49464042D02*
X158178571Y-49321185D01*
X158178571Y-49321185D02*
X158250000Y-49249757D01*
X158250000Y-49249757D02*
X158392857Y-49178328D01*
X158392857Y-49178328D02*
X158535714Y-49178328D01*
X159678571Y-50178328D02*
X159678571Y-49392614D01*
X159678571Y-49392614D02*
X159607142Y-49249757D01*
X159607142Y-49249757D02*
X159464285Y-49178328D01*
X159464285Y-49178328D02*
X159178571Y-49178328D01*
X159178571Y-49178328D02*
X159035713Y-49249757D01*
X159678571Y-50106900D02*
X159535713Y-50178328D01*
X159535713Y-50178328D02*
X159178571Y-50178328D01*
X159178571Y-50178328D02*
X159035713Y-50106900D01*
X159035713Y-50106900D02*
X158964285Y-49964042D01*
X158964285Y-49964042D02*
X158964285Y-49821185D01*
X158964285Y-49821185D02*
X159035713Y-49678328D01*
X159035713Y-49678328D02*
X159178571Y-49606900D01*
X159178571Y-49606900D02*
X159535713Y-49606900D01*
X159535713Y-49606900D02*
X159678571Y-49535471D01*
X161035714Y-50106900D02*
X160892856Y-50178328D01*
X160892856Y-50178328D02*
X160607142Y-50178328D01*
X160607142Y-50178328D02*
X160464285Y-50106900D01*
X160464285Y-50106900D02*
X160392856Y-50035471D01*
X160392856Y-50035471D02*
X160321428Y-49892614D01*
X160321428Y-49892614D02*
X160321428Y-49464042D01*
X160321428Y-49464042D02*
X160392856Y-49321185D01*
X160392856Y-49321185D02*
X160464285Y-49249757D01*
X160464285Y-49249757D02*
X160607142Y-49178328D01*
X160607142Y-49178328D02*
X160892856Y-49178328D01*
X160892856Y-49178328D02*
X161035714Y-49249757D01*
X161678570Y-50178328D02*
X161678570Y-48678328D01*
X161821428Y-49606900D02*
X162249999Y-50178328D01*
X162249999Y-49178328D02*
X161678570Y-49749757D01*
X162892856Y-49606900D02*
X164035714Y-49606900D01*
X163464285Y-50178328D02*
X163464285Y-49035471D01*
X156750000Y-35678328D02*
X157607143Y-35678328D01*
X157178571Y-37178328D02*
X157178571Y-35678328D01*
X158107142Y-37178328D02*
X158107142Y-36178328D01*
X158107142Y-36464042D02*
X158178571Y-36321185D01*
X158178571Y-36321185D02*
X158250000Y-36249757D01*
X158250000Y-36249757D02*
X158392857Y-36178328D01*
X158392857Y-36178328D02*
X158535714Y-36178328D01*
X159678571Y-37178328D02*
X159678571Y-36392614D01*
X159678571Y-36392614D02*
X159607142Y-36249757D01*
X159607142Y-36249757D02*
X159464285Y-36178328D01*
X159464285Y-36178328D02*
X159178571Y-36178328D01*
X159178571Y-36178328D02*
X159035713Y-36249757D01*
X159678571Y-37106900D02*
X159535713Y-37178328D01*
X159535713Y-37178328D02*
X159178571Y-37178328D01*
X159178571Y-37178328D02*
X159035713Y-37106900D01*
X159035713Y-37106900D02*
X158964285Y-36964042D01*
X158964285Y-36964042D02*
X158964285Y-36821185D01*
X158964285Y-36821185D02*
X159035713Y-36678328D01*
X159035713Y-36678328D02*
X159178571Y-36606900D01*
X159178571Y-36606900D02*
X159535713Y-36606900D01*
X159535713Y-36606900D02*
X159678571Y-36535471D01*
X161035714Y-37106900D02*
X160892856Y-37178328D01*
X160892856Y-37178328D02*
X160607142Y-37178328D01*
X160607142Y-37178328D02*
X160464285Y-37106900D01*
X160464285Y-37106900D02*
X160392856Y-37035471D01*
X160392856Y-37035471D02*
X160321428Y-36892614D01*
X160321428Y-36892614D02*
X160321428Y-36464042D01*
X160321428Y-36464042D02*
X160392856Y-36321185D01*
X160392856Y-36321185D02*
X160464285Y-36249757D01*
X160464285Y-36249757D02*
X160607142Y-36178328D01*
X160607142Y-36178328D02*
X160892856Y-36178328D01*
X160892856Y-36178328D02*
X161035714Y-36249757D01*
X161678570Y-37178328D02*
X161678570Y-35678328D01*
X161821428Y-36606900D02*
X162249999Y-37178328D01*
X162249999Y-36178328D02*
X161678570Y-36749757D01*
X162892856Y-36606900D02*
X164035714Y-36606900D01*
D13*
X118464286Y-28973470D02*
X119321429Y-28973470D01*
X118892857Y-30473470D02*
X118892857Y-28973470D01*
X119821428Y-30473470D02*
X119821428Y-28973470D01*
X119821428Y-28973470D02*
X120321428Y-30044899D01*
X120321428Y-30044899D02*
X120821428Y-28973470D01*
X120821428Y-28973470D02*
X120821428Y-30473470D01*
X122392857Y-30473470D02*
X121892857Y-29759184D01*
X121535714Y-30473470D02*
X121535714Y-28973470D01*
X121535714Y-28973470D02*
X122107143Y-28973470D01*
X122107143Y-28973470D02*
X122250000Y-29044899D01*
X122250000Y-29044899D02*
X122321429Y-29116327D01*
X122321429Y-29116327D02*
X122392857Y-29259184D01*
X122392857Y-29259184D02*
X122392857Y-29473470D01*
X122392857Y-29473470D02*
X122321429Y-29616327D01*
X122321429Y-29616327D02*
X122250000Y-29687756D01*
X122250000Y-29687756D02*
X122107143Y-29759184D01*
X122107143Y-29759184D02*
X121535714Y-29759184D01*
X123892857Y-30330613D02*
X123821429Y-30402042D01*
X123821429Y-30402042D02*
X123607143Y-30473470D01*
X123607143Y-30473470D02*
X123464286Y-30473470D01*
X123464286Y-30473470D02*
X123250000Y-30402042D01*
X123250000Y-30402042D02*
X123107143Y-30259184D01*
X123107143Y-30259184D02*
X123035714Y-30116327D01*
X123035714Y-30116327D02*
X122964286Y-29830613D01*
X122964286Y-29830613D02*
X122964286Y-29616327D01*
X122964286Y-29616327D02*
X123035714Y-29330613D01*
X123035714Y-29330613D02*
X123107143Y-29187756D01*
X123107143Y-29187756D02*
X123250000Y-29044899D01*
X123250000Y-29044899D02*
X123464286Y-28973470D01*
X123464286Y-28973470D02*
X123607143Y-28973470D01*
X123607143Y-28973470D02*
X123821429Y-29044899D01*
X123821429Y-29044899D02*
X123892857Y-29116327D01*
X125678571Y-28973470D02*
X125678571Y-30187756D01*
X125678571Y-30187756D02*
X125750000Y-30330613D01*
X125750000Y-30330613D02*
X125821429Y-30402042D01*
X125821429Y-30402042D02*
X125964286Y-30473470D01*
X125964286Y-30473470D02*
X126250000Y-30473470D01*
X126250000Y-30473470D02*
X126392857Y-30402042D01*
X126392857Y-30402042D02*
X126464286Y-30330613D01*
X126464286Y-30330613D02*
X126535714Y-30187756D01*
X126535714Y-30187756D02*
X126535714Y-28973470D01*
X127250000Y-29473470D02*
X127250000Y-30473470D01*
X127250000Y-29616327D02*
X127321429Y-29544899D01*
X127321429Y-29544899D02*
X127464286Y-29473470D01*
X127464286Y-29473470D02*
X127678572Y-29473470D01*
X127678572Y-29473470D02*
X127821429Y-29544899D01*
X127821429Y-29544899D02*
X127892858Y-29687756D01*
X127892858Y-29687756D02*
X127892858Y-30473470D01*
X128821429Y-30473470D02*
X128678572Y-30402042D01*
X128678572Y-30402042D02*
X128607143Y-30330613D01*
X128607143Y-30330613D02*
X128535715Y-30187756D01*
X128535715Y-30187756D02*
X128535715Y-29759184D01*
X128535715Y-29759184D02*
X128607143Y-29616327D01*
X128607143Y-29616327D02*
X128678572Y-29544899D01*
X128678572Y-29544899D02*
X128821429Y-29473470D01*
X128821429Y-29473470D02*
X129035715Y-29473470D01*
X129035715Y-29473470D02*
X129178572Y-29544899D01*
X129178572Y-29544899D02*
X129250001Y-29616327D01*
X129250001Y-29616327D02*
X129321429Y-29759184D01*
X129321429Y-29759184D02*
X129321429Y-30187756D01*
X129321429Y-30187756D02*
X129250001Y-30330613D01*
X129250001Y-30330613D02*
X129178572Y-30402042D01*
X129178572Y-30402042D02*
X129035715Y-30473470D01*
X129035715Y-30473470D02*
X128821429Y-30473470D01*
X131964286Y-30473470D02*
X131464286Y-29759184D01*
X131107143Y-30473470D02*
X131107143Y-28973470D01*
X131107143Y-28973470D02*
X131678572Y-28973470D01*
X131678572Y-28973470D02*
X131821429Y-29044899D01*
X131821429Y-29044899D02*
X131892858Y-29116327D01*
X131892858Y-29116327D02*
X131964286Y-29259184D01*
X131964286Y-29259184D02*
X131964286Y-29473470D01*
X131964286Y-29473470D02*
X131892858Y-29616327D01*
X131892858Y-29616327D02*
X131821429Y-29687756D01*
X131821429Y-29687756D02*
X131678572Y-29759184D01*
X131678572Y-29759184D02*
X131107143Y-29759184D01*
X133250001Y-29473470D02*
X133250001Y-30473470D01*
X132892858Y-28902042D02*
X132535715Y-29973470D01*
X132535715Y-29973470D02*
X133464286Y-29973470D01*
X117750000Y-32888386D02*
X117035714Y-32888386D01*
X117035714Y-32888386D02*
X117035714Y-31388386D01*
X119107143Y-32745529D02*
X119035715Y-32816958D01*
X119035715Y-32816958D02*
X118821429Y-32888386D01*
X118821429Y-32888386D02*
X118678572Y-32888386D01*
X118678572Y-32888386D02*
X118464286Y-32816958D01*
X118464286Y-32816958D02*
X118321429Y-32674100D01*
X118321429Y-32674100D02*
X118250000Y-32531243D01*
X118250000Y-32531243D02*
X118178572Y-32245529D01*
X118178572Y-32245529D02*
X118178572Y-32031243D01*
X118178572Y-32031243D02*
X118250000Y-31745529D01*
X118250000Y-31745529D02*
X118321429Y-31602672D01*
X118321429Y-31602672D02*
X118464286Y-31459815D01*
X118464286Y-31459815D02*
X118678572Y-31388386D01*
X118678572Y-31388386D02*
X118821429Y-31388386D01*
X118821429Y-31388386D02*
X119035715Y-31459815D01*
X119035715Y-31459815D02*
X119107143Y-31531243D01*
X120607143Y-32745529D02*
X120535715Y-32816958D01*
X120535715Y-32816958D02*
X120321429Y-32888386D01*
X120321429Y-32888386D02*
X120178572Y-32888386D01*
X120178572Y-32888386D02*
X119964286Y-32816958D01*
X119964286Y-32816958D02*
X119821429Y-32674100D01*
X119821429Y-32674100D02*
X119750000Y-32531243D01*
X119750000Y-32531243D02*
X119678572Y-32245529D01*
X119678572Y-32245529D02*
X119678572Y-32031243D01*
X119678572Y-32031243D02*
X119750000Y-31745529D01*
X119750000Y-31745529D02*
X119821429Y-31602672D01*
X119821429Y-31602672D02*
X119964286Y-31459815D01*
X119964286Y-31459815D02*
X120178572Y-31388386D01*
X120178572Y-31388386D02*
X120321429Y-31388386D01*
X120321429Y-31388386D02*
X120535715Y-31459815D01*
X120535715Y-31459815D02*
X120607143Y-31531243D01*
X121250000Y-32316958D02*
X122392858Y-32316958D01*
X121821429Y-32888386D02*
X121821429Y-31745529D01*
X123107143Y-32888386D02*
X123107143Y-31388386D01*
X123107143Y-31388386D02*
X123464286Y-31388386D01*
X123464286Y-31388386D02*
X123678572Y-31459815D01*
X123678572Y-31459815D02*
X123821429Y-31602672D01*
X123821429Y-31602672D02*
X123892858Y-31745529D01*
X123892858Y-31745529D02*
X123964286Y-32031243D01*
X123964286Y-32031243D02*
X123964286Y-32245529D01*
X123964286Y-32245529D02*
X123892858Y-32531243D01*
X123892858Y-32531243D02*
X123821429Y-32674100D01*
X123821429Y-32674100D02*
X123678572Y-32816958D01*
X123678572Y-32816958D02*
X123464286Y-32888386D01*
X123464286Y-32888386D02*
X123107143Y-32888386D01*
X125464286Y-32745529D02*
X125392858Y-32816958D01*
X125392858Y-32816958D02*
X125178572Y-32888386D01*
X125178572Y-32888386D02*
X125035715Y-32888386D01*
X125035715Y-32888386D02*
X124821429Y-32816958D01*
X124821429Y-32816958D02*
X124678572Y-32674100D01*
X124678572Y-32674100D02*
X124607143Y-32531243D01*
X124607143Y-32531243D02*
X124535715Y-32245529D01*
X124535715Y-32245529D02*
X124535715Y-32031243D01*
X124535715Y-32031243D02*
X124607143Y-31745529D01*
X124607143Y-31745529D02*
X124678572Y-31602672D01*
X124678572Y-31602672D02*
X124821429Y-31459815D01*
X124821429Y-31459815D02*
X125035715Y-31388386D01*
X125035715Y-31388386D02*
X125178572Y-31388386D01*
X125178572Y-31388386D02*
X125392858Y-31459815D01*
X125392858Y-31459815D02*
X125464286Y-31531243D01*
X126964286Y-32745529D02*
X126892858Y-32816958D01*
X126892858Y-32816958D02*
X126678572Y-32888386D01*
X126678572Y-32888386D02*
X126535715Y-32888386D01*
X126535715Y-32888386D02*
X126321429Y-32816958D01*
X126321429Y-32816958D02*
X126178572Y-32674100D01*
X126178572Y-32674100D02*
X126107143Y-32531243D01*
X126107143Y-32531243D02*
X126035715Y-32245529D01*
X126035715Y-32245529D02*
X126035715Y-32031243D01*
X126035715Y-32031243D02*
X126107143Y-31745529D01*
X126107143Y-31745529D02*
X126178572Y-31602672D01*
X126178572Y-31602672D02*
X126321429Y-31459815D01*
X126321429Y-31459815D02*
X126535715Y-31388386D01*
X126535715Y-31388386D02*
X126678572Y-31388386D01*
X126678572Y-31388386D02*
X126892858Y-31459815D01*
X126892858Y-31459815D02*
X126964286Y-31531243D01*
X128678572Y-32816958D02*
X128892858Y-32888386D01*
X128892858Y-32888386D02*
X129250000Y-32888386D01*
X129250000Y-32888386D02*
X129392858Y-32816958D01*
X129392858Y-32816958D02*
X129464286Y-32745529D01*
X129464286Y-32745529D02*
X129535715Y-32602672D01*
X129535715Y-32602672D02*
X129535715Y-32459815D01*
X129535715Y-32459815D02*
X129464286Y-32316958D01*
X129464286Y-32316958D02*
X129392858Y-32245529D01*
X129392858Y-32245529D02*
X129250000Y-32174100D01*
X129250000Y-32174100D02*
X128964286Y-32102672D01*
X128964286Y-32102672D02*
X128821429Y-32031243D01*
X128821429Y-32031243D02*
X128750000Y-31959815D01*
X128750000Y-31959815D02*
X128678572Y-31816958D01*
X128678572Y-31816958D02*
X128678572Y-31674100D01*
X128678572Y-31674100D02*
X128750000Y-31531243D01*
X128750000Y-31531243D02*
X128821429Y-31459815D01*
X128821429Y-31459815D02*
X128964286Y-31388386D01*
X128964286Y-31388386D02*
X129321429Y-31388386D01*
X129321429Y-31388386D02*
X129535715Y-31459815D01*
X130178571Y-32888386D02*
X130178571Y-31388386D01*
X130821429Y-32888386D02*
X130821429Y-32102672D01*
X130821429Y-32102672D02*
X130750000Y-31959815D01*
X130750000Y-31959815D02*
X130607143Y-31888386D01*
X130607143Y-31888386D02*
X130392857Y-31888386D01*
X130392857Y-31888386D02*
X130250000Y-31959815D01*
X130250000Y-31959815D02*
X130178571Y-32031243D01*
X131535714Y-32888386D02*
X131535714Y-31888386D01*
X131535714Y-31388386D02*
X131464286Y-31459815D01*
X131464286Y-31459815D02*
X131535714Y-31531243D01*
X131535714Y-31531243D02*
X131607143Y-31459815D01*
X131607143Y-31459815D02*
X131535714Y-31388386D01*
X131535714Y-31388386D02*
X131535714Y-31531243D01*
X132821429Y-32816958D02*
X132678572Y-32888386D01*
X132678572Y-32888386D02*
X132392858Y-32888386D01*
X132392858Y-32888386D02*
X132250000Y-32816958D01*
X132250000Y-32816958D02*
X132178572Y-32674100D01*
X132178572Y-32674100D02*
X132178572Y-32102672D01*
X132178572Y-32102672D02*
X132250000Y-31959815D01*
X132250000Y-31959815D02*
X132392858Y-31888386D01*
X132392858Y-31888386D02*
X132678572Y-31888386D01*
X132678572Y-31888386D02*
X132821429Y-31959815D01*
X132821429Y-31959815D02*
X132892858Y-32102672D01*
X132892858Y-32102672D02*
X132892858Y-32245529D01*
X132892858Y-32245529D02*
X132178572Y-32388386D01*
X133750000Y-32888386D02*
X133607143Y-32816958D01*
X133607143Y-32816958D02*
X133535714Y-32674100D01*
X133535714Y-32674100D02*
X133535714Y-31388386D01*
X134964286Y-32888386D02*
X134964286Y-31388386D01*
X134964286Y-32816958D02*
X134821428Y-32888386D01*
X134821428Y-32888386D02*
X134535714Y-32888386D01*
X134535714Y-32888386D02*
X134392857Y-32816958D01*
X134392857Y-32816958D02*
X134321428Y-32745529D01*
X134321428Y-32745529D02*
X134250000Y-32602672D01*
X134250000Y-32602672D02*
X134250000Y-32174100D01*
X134250000Y-32174100D02*
X134321428Y-32031243D01*
X134321428Y-32031243D02*
X134392857Y-31959815D01*
X134392857Y-31959815D02*
X134535714Y-31888386D01*
X134535714Y-31888386D02*
X134821428Y-31888386D01*
X134821428Y-31888386D02*
X134964286Y-31959815D01*
D10*
X156375312Y-63372419D02*
X156041979Y-62896228D01*
X155803884Y-63372419D02*
X155803884Y-62372419D01*
X155803884Y-62372419D02*
X156184836Y-62372419D01*
X156184836Y-62372419D02*
X156280074Y-62420038D01*
X156280074Y-62420038D02*
X156327693Y-62467657D01*
X156327693Y-62467657D02*
X156375312Y-62562895D01*
X156375312Y-62562895D02*
X156375312Y-62705752D01*
X156375312Y-62705752D02*
X156327693Y-62800990D01*
X156327693Y-62800990D02*
X156280074Y-62848609D01*
X156280074Y-62848609D02*
X156184836Y-62896228D01*
X156184836Y-62896228D02*
X155803884Y-62896228D01*
X156803884Y-62848609D02*
X157137217Y-62848609D01*
X157280074Y-63372419D02*
X156803884Y-63372419D01*
X156803884Y-63372419D02*
X156803884Y-62372419D01*
X156803884Y-62372419D02*
X157280074Y-62372419D01*
X157661027Y-63324800D02*
X157803884Y-63372419D01*
X157803884Y-63372419D02*
X158041979Y-63372419D01*
X158041979Y-63372419D02*
X158137217Y-63324800D01*
X158137217Y-63324800D02*
X158184836Y-63277180D01*
X158184836Y-63277180D02*
X158232455Y-63181942D01*
X158232455Y-63181942D02*
X158232455Y-63086704D01*
X158232455Y-63086704D02*
X158184836Y-62991466D01*
X158184836Y-62991466D02*
X158137217Y-62943847D01*
X158137217Y-62943847D02*
X158041979Y-62896228D01*
X158041979Y-62896228D02*
X157851503Y-62848609D01*
X157851503Y-62848609D02*
X157756265Y-62800990D01*
X157756265Y-62800990D02*
X157708646Y-62753371D01*
X157708646Y-62753371D02*
X157661027Y-62658133D01*
X157661027Y-62658133D02*
X157661027Y-62562895D01*
X157661027Y-62562895D02*
X157708646Y-62467657D01*
X157708646Y-62467657D02*
X157756265Y-62420038D01*
X157756265Y-62420038D02*
X157851503Y-62372419D01*
X157851503Y-62372419D02*
X158089598Y-62372419D01*
X158089598Y-62372419D02*
X158232455Y-62420038D01*
X158661027Y-62848609D02*
X158994360Y-62848609D01*
X159137217Y-63372419D02*
X158661027Y-63372419D01*
X158661027Y-63372419D02*
X158661027Y-62372419D01*
X158661027Y-62372419D02*
X159137217Y-62372419D01*
X159422932Y-62372419D02*
X159994360Y-62372419D01*
X159708646Y-63372419D02*
X159708646Y-62372419D01*
D14*
X149381055Y-29864979D02*
X149333436Y-29912599D01*
X149333436Y-29912599D02*
X149190579Y-29960218D01*
X149190579Y-29960218D02*
X149095341Y-29960218D01*
X149095341Y-29960218D02*
X148952484Y-29912599D01*
X148952484Y-29912599D02*
X148857246Y-29817360D01*
X148857246Y-29817360D02*
X148809627Y-29722122D01*
X148809627Y-29722122D02*
X148762008Y-29531646D01*
X148762008Y-29531646D02*
X148762008Y-29388789D01*
X148762008Y-29388789D02*
X148809627Y-29198313D01*
X148809627Y-29198313D02*
X148857246Y-29103075D01*
X148857246Y-29103075D02*
X148952484Y-29007837D01*
X148952484Y-29007837D02*
X149095341Y-28960218D01*
X149095341Y-28960218D02*
X149190579Y-28960218D01*
X149190579Y-28960218D02*
X149333436Y-29007837D01*
X149333436Y-29007837D02*
X149381055Y-29055456D01*
X149714389Y-28960218D02*
X150381055Y-28960218D01*
X150381055Y-28960218D02*
X149952484Y-29960218D01*
X152954819Y-52504166D02*
X152478628Y-52837499D01*
X152954819Y-53075594D02*
X151954819Y-53075594D01*
X151954819Y-53075594D02*
X151954819Y-52694642D01*
X151954819Y-52694642D02*
X152002438Y-52599404D01*
X152002438Y-52599404D02*
X152050057Y-52551785D01*
X152050057Y-52551785D02*
X152145295Y-52504166D01*
X152145295Y-52504166D02*
X152288152Y-52504166D01*
X152288152Y-52504166D02*
X152383390Y-52551785D01*
X152383390Y-52551785D02*
X152431009Y-52599404D01*
X152431009Y-52599404D02*
X152478628Y-52694642D01*
X152478628Y-52694642D02*
X152478628Y-53075594D01*
X152050057Y-52123213D02*
X152002438Y-52075594D01*
X152002438Y-52075594D02*
X151954819Y-51980356D01*
X151954819Y-51980356D02*
X151954819Y-51742261D01*
X151954819Y-51742261D02*
X152002438Y-51647023D01*
X152002438Y-51647023D02*
X152050057Y-51599404D01*
X152050057Y-51599404D02*
X152145295Y-51551785D01*
X152145295Y-51551785D02*
X152240533Y-51551785D01*
X152240533Y-51551785D02*
X152383390Y-51599404D01*
X152383390Y-51599404D02*
X152954819Y-52170832D01*
X152954819Y-52170832D02*
X152954819Y-51551785D01*
X130400833Y-56537080D02*
X130353214Y-56584700D01*
X130353214Y-56584700D02*
X130210357Y-56632319D01*
X130210357Y-56632319D02*
X130115119Y-56632319D01*
X130115119Y-56632319D02*
X129972262Y-56584700D01*
X129972262Y-56584700D02*
X129877024Y-56489461D01*
X129877024Y-56489461D02*
X129829405Y-56394223D01*
X129829405Y-56394223D02*
X129781786Y-56203747D01*
X129781786Y-56203747D02*
X129781786Y-56060890D01*
X129781786Y-56060890D02*
X129829405Y-55870414D01*
X129829405Y-55870414D02*
X129877024Y-55775176D01*
X129877024Y-55775176D02*
X129972262Y-55679938D01*
X129972262Y-55679938D02*
X130115119Y-55632319D01*
X130115119Y-55632319D02*
X130210357Y-55632319D01*
X130210357Y-55632319D02*
X130353214Y-55679938D01*
X130353214Y-55679938D02*
X130400833Y-55727557D01*
X130781786Y-55727557D02*
X130829405Y-55679938D01*
X130829405Y-55679938D02*
X130924643Y-55632319D01*
X130924643Y-55632319D02*
X131162738Y-55632319D01*
X131162738Y-55632319D02*
X131257976Y-55679938D01*
X131257976Y-55679938D02*
X131305595Y-55727557D01*
X131305595Y-55727557D02*
X131353214Y-55822795D01*
X131353214Y-55822795D02*
X131353214Y-55918033D01*
X131353214Y-55918033D02*
X131305595Y-56060890D01*
X131305595Y-56060890D02*
X130734167Y-56632319D01*
X130734167Y-56632319D02*
X131353214Y-56632319D01*
X138166666Y-27154819D02*
X138166666Y-27869104D01*
X138166666Y-27869104D02*
X138119047Y-28011961D01*
X138119047Y-28011961D02*
X138023809Y-28107200D01*
X138023809Y-28107200D02*
X137880952Y-28154819D01*
X137880952Y-28154819D02*
X137785714Y-28154819D01*
X138642857Y-28154819D02*
X138642857Y-27154819D01*
X138642857Y-27154819D02*
X139023809Y-27154819D01*
X139023809Y-27154819D02*
X139119047Y-27202438D01*
X139119047Y-27202438D02*
X139166666Y-27250057D01*
X139166666Y-27250057D02*
X139214285Y-27345295D01*
X139214285Y-27345295D02*
X139214285Y-27488152D01*
X139214285Y-27488152D02*
X139166666Y-27583390D01*
X139166666Y-27583390D02*
X139119047Y-27631009D01*
X139119047Y-27631009D02*
X139023809Y-27678628D01*
X139023809Y-27678628D02*
X138642857Y-27678628D01*
X139595238Y-27250057D02*
X139642857Y-27202438D01*
X139642857Y-27202438D02*
X139738095Y-27154819D01*
X139738095Y-27154819D02*
X139976190Y-27154819D01*
X139976190Y-27154819D02*
X140071428Y-27202438D01*
X140071428Y-27202438D02*
X140119047Y-27250057D01*
X140119047Y-27250057D02*
X140166666Y-27345295D01*
X140166666Y-27345295D02*
X140166666Y-27440533D01*
X140166666Y-27440533D02*
X140119047Y-27583390D01*
X140119047Y-27583390D02*
X139547619Y-28154819D01*
X139547619Y-28154819D02*
X140166666Y-28154819D01*
X153359539Y-36166681D02*
X153407159Y-36214300D01*
X153407159Y-36214300D02*
X153454778Y-36357157D01*
X153454778Y-36357157D02*
X153454778Y-36452395D01*
X153454778Y-36452395D02*
X153407159Y-36595252D01*
X153407159Y-36595252D02*
X153311920Y-36690490D01*
X153311920Y-36690490D02*
X153216682Y-36738109D01*
X153216682Y-36738109D02*
X153026206Y-36785728D01*
X153026206Y-36785728D02*
X152883349Y-36785728D01*
X152883349Y-36785728D02*
X152692873Y-36738109D01*
X152692873Y-36738109D02*
X152597635Y-36690490D01*
X152597635Y-36690490D02*
X152502397Y-36595252D01*
X152502397Y-36595252D02*
X152454778Y-36452395D01*
X152454778Y-36452395D02*
X152454778Y-36357157D01*
X152454778Y-36357157D02*
X152502397Y-36214300D01*
X152502397Y-36214300D02*
X152550016Y-36166681D01*
X152883349Y-35595252D02*
X152835730Y-35690490D01*
X152835730Y-35690490D02*
X152788111Y-35738109D01*
X152788111Y-35738109D02*
X152692873Y-35785728D01*
X152692873Y-35785728D02*
X152645254Y-35785728D01*
X152645254Y-35785728D02*
X152550016Y-35738109D01*
X152550016Y-35738109D02*
X152502397Y-35690490D01*
X152502397Y-35690490D02*
X152454778Y-35595252D01*
X152454778Y-35595252D02*
X152454778Y-35404776D01*
X152454778Y-35404776D02*
X152502397Y-35309538D01*
X152502397Y-35309538D02*
X152550016Y-35261919D01*
X152550016Y-35261919D02*
X152645254Y-35214300D01*
X152645254Y-35214300D02*
X152692873Y-35214300D01*
X152692873Y-35214300D02*
X152788111Y-35261919D01*
X152788111Y-35261919D02*
X152835730Y-35309538D01*
X152835730Y-35309538D02*
X152883349Y-35404776D01*
X152883349Y-35404776D02*
X152883349Y-35595252D01*
X152883349Y-35595252D02*
X152930968Y-35690490D01*
X152930968Y-35690490D02*
X152978587Y-35738109D01*
X152978587Y-35738109D02*
X153073825Y-35785728D01*
X153073825Y-35785728D02*
X153264301Y-35785728D01*
X153264301Y-35785728D02*
X153359539Y-35738109D01*
X153359539Y-35738109D02*
X153407159Y-35690490D01*
X153407159Y-35690490D02*
X153454778Y-35595252D01*
X153454778Y-35595252D02*
X153454778Y-35404776D01*
X153454778Y-35404776D02*
X153407159Y-35309538D01*
X153407159Y-35309538D02*
X153359539Y-35261919D01*
X153359539Y-35261919D02*
X153264301Y-35214300D01*
X153264301Y-35214300D02*
X153073825Y-35214300D01*
X153073825Y-35214300D02*
X152978587Y-35261919D01*
X152978587Y-35261919D02*
X152930968Y-35309538D01*
X152930968Y-35309538D02*
X152883349Y-35404776D01*
X139330595Y-36458519D02*
X139330595Y-37268042D01*
X139330595Y-37268042D02*
X139378214Y-37363280D01*
X139378214Y-37363280D02*
X139425833Y-37410900D01*
X139425833Y-37410900D02*
X139521071Y-37458519D01*
X139521071Y-37458519D02*
X139711547Y-37458519D01*
X139711547Y-37458519D02*
X139806785Y-37410900D01*
X139806785Y-37410900D02*
X139854404Y-37363280D01*
X139854404Y-37363280D02*
X139902023Y-37268042D01*
X139902023Y-37268042D02*
X139902023Y-36458519D01*
X140854404Y-36458519D02*
X140378214Y-36458519D01*
X140378214Y-36458519D02*
X140330595Y-36934709D01*
X140330595Y-36934709D02*
X140378214Y-36887090D01*
X140378214Y-36887090D02*
X140473452Y-36839471D01*
X140473452Y-36839471D02*
X140711547Y-36839471D01*
X140711547Y-36839471D02*
X140806785Y-36887090D01*
X140806785Y-36887090D02*
X140854404Y-36934709D01*
X140854404Y-36934709D02*
X140902023Y-37029947D01*
X140902023Y-37029947D02*
X140902023Y-37268042D01*
X140902023Y-37268042D02*
X140854404Y-37363280D01*
X140854404Y-37363280D02*
X140806785Y-37410900D01*
X140806785Y-37410900D02*
X140711547Y-37458519D01*
X140711547Y-37458519D02*
X140473452Y-37458519D01*
X140473452Y-37458519D02*
X140378214Y-37410900D01*
X140378214Y-37410900D02*
X140330595Y-37363280D01*
X154454819Y-43761904D02*
X155264342Y-43761904D01*
X155264342Y-43761904D02*
X155359580Y-43714285D01*
X155359580Y-43714285D02*
X155407200Y-43666666D01*
X155407200Y-43666666D02*
X155454819Y-43571428D01*
X155454819Y-43571428D02*
X155454819Y-43380952D01*
X155454819Y-43380952D02*
X155407200Y-43285714D01*
X155407200Y-43285714D02*
X155359580Y-43238095D01*
X155359580Y-43238095D02*
X155264342Y-43190476D01*
X155264342Y-43190476D02*
X154454819Y-43190476D01*
X154454819Y-42285714D02*
X154454819Y-42476190D01*
X154454819Y-42476190D02*
X154502438Y-42571428D01*
X154502438Y-42571428D02*
X154550057Y-42619047D01*
X154550057Y-42619047D02*
X154692914Y-42714285D01*
X154692914Y-42714285D02*
X154883390Y-42761904D01*
X154883390Y-42761904D02*
X155264342Y-42761904D01*
X155264342Y-42761904D02*
X155359580Y-42714285D01*
X155359580Y-42714285D02*
X155407200Y-42666666D01*
X155407200Y-42666666D02*
X155454819Y-42571428D01*
X155454819Y-42571428D02*
X155454819Y-42380952D01*
X155454819Y-42380952D02*
X155407200Y-42285714D01*
X155407200Y-42285714D02*
X155359580Y-42238095D01*
X155359580Y-42238095D02*
X155264342Y-42190476D01*
X155264342Y-42190476D02*
X155026247Y-42190476D01*
X155026247Y-42190476D02*
X154931009Y-42238095D01*
X154931009Y-42238095D02*
X154883390Y-42285714D01*
X154883390Y-42285714D02*
X154835771Y-42380952D01*
X154835771Y-42380952D02*
X154835771Y-42571428D01*
X154835771Y-42571428D02*
X154883390Y-42666666D01*
X154883390Y-42666666D02*
X154931009Y-42714285D01*
X154931009Y-42714285D02*
X155026247Y-42761904D01*
X148454819Y-46095237D02*
X147454819Y-46095237D01*
X147454819Y-46095237D02*
X147454819Y-45857142D01*
X147454819Y-45857142D02*
X147502438Y-45714285D01*
X147502438Y-45714285D02*
X147597676Y-45619047D01*
X147597676Y-45619047D02*
X147692914Y-45571428D01*
X147692914Y-45571428D02*
X147883390Y-45523809D01*
X147883390Y-45523809D02*
X148026247Y-45523809D01*
X148026247Y-45523809D02*
X148216723Y-45571428D01*
X148216723Y-45571428D02*
X148311961Y-45619047D01*
X148311961Y-45619047D02*
X148407200Y-45714285D01*
X148407200Y-45714285D02*
X148454819Y-45857142D01*
X148454819Y-45857142D02*
X148454819Y-46095237D01*
X148454819Y-44523809D02*
X147978628Y-44857142D01*
X148454819Y-45095237D02*
X147454819Y-45095237D01*
X147454819Y-45095237D02*
X147454819Y-44714285D01*
X147454819Y-44714285D02*
X147502438Y-44619047D01*
X147502438Y-44619047D02*
X147550057Y-44571428D01*
X147550057Y-44571428D02*
X147645295Y-44523809D01*
X147645295Y-44523809D02*
X147788152Y-44523809D01*
X147788152Y-44523809D02*
X147883390Y-44571428D01*
X147883390Y-44571428D02*
X147931009Y-44619047D01*
X147931009Y-44619047D02*
X147978628Y-44714285D01*
X147978628Y-44714285D02*
X147978628Y-45095237D01*
X147454819Y-44238094D02*
X148454819Y-43904761D01*
X148454819Y-43904761D02*
X147454819Y-43571428D01*
X147883390Y-43095237D02*
X147835771Y-43190475D01*
X147835771Y-43190475D02*
X147788152Y-43238094D01*
X147788152Y-43238094D02*
X147692914Y-43285713D01*
X147692914Y-43285713D02*
X147645295Y-43285713D01*
X147645295Y-43285713D02*
X147550057Y-43238094D01*
X147550057Y-43238094D02*
X147502438Y-43190475D01*
X147502438Y-43190475D02*
X147454819Y-43095237D01*
X147454819Y-43095237D02*
X147454819Y-42904761D01*
X147454819Y-42904761D02*
X147502438Y-42809523D01*
X147502438Y-42809523D02*
X147550057Y-42761904D01*
X147550057Y-42761904D02*
X147645295Y-42714285D01*
X147645295Y-42714285D02*
X147692914Y-42714285D01*
X147692914Y-42714285D02*
X147788152Y-42761904D01*
X147788152Y-42761904D02*
X147835771Y-42809523D01*
X147835771Y-42809523D02*
X147883390Y-42904761D01*
X147883390Y-42904761D02*
X147883390Y-43095237D01*
X147883390Y-43095237D02*
X147931009Y-43190475D01*
X147931009Y-43190475D02*
X147978628Y-43238094D01*
X147978628Y-43238094D02*
X148073866Y-43285713D01*
X148073866Y-43285713D02*
X148264342Y-43285713D01*
X148264342Y-43285713D02*
X148359580Y-43238094D01*
X148359580Y-43238094D02*
X148407200Y-43190475D01*
X148407200Y-43190475D02*
X148454819Y-43095237D01*
X148454819Y-43095237D02*
X148454819Y-42904761D01*
X148454819Y-42904761D02*
X148407200Y-42809523D01*
X148407200Y-42809523D02*
X148359580Y-42761904D01*
X148359580Y-42761904D02*
X148264342Y-42714285D01*
X148264342Y-42714285D02*
X148073866Y-42714285D01*
X148073866Y-42714285D02*
X147978628Y-42761904D01*
X147978628Y-42761904D02*
X147931009Y-42809523D01*
X147931009Y-42809523D02*
X147883390Y-42904761D01*
X147883390Y-42142856D02*
X147835771Y-42238094D01*
X147835771Y-42238094D02*
X147788152Y-42285713D01*
X147788152Y-42285713D02*
X147692914Y-42333332D01*
X147692914Y-42333332D02*
X147645295Y-42333332D01*
X147645295Y-42333332D02*
X147550057Y-42285713D01*
X147550057Y-42285713D02*
X147502438Y-42238094D01*
X147502438Y-42238094D02*
X147454819Y-42142856D01*
X147454819Y-42142856D02*
X147454819Y-41952380D01*
X147454819Y-41952380D02*
X147502438Y-41857142D01*
X147502438Y-41857142D02*
X147550057Y-41809523D01*
X147550057Y-41809523D02*
X147645295Y-41761904D01*
X147645295Y-41761904D02*
X147692914Y-41761904D01*
X147692914Y-41761904D02*
X147788152Y-41809523D01*
X147788152Y-41809523D02*
X147835771Y-41857142D01*
X147835771Y-41857142D02*
X147883390Y-41952380D01*
X147883390Y-41952380D02*
X147883390Y-42142856D01*
X147883390Y-42142856D02*
X147931009Y-42238094D01*
X147931009Y-42238094D02*
X147978628Y-42285713D01*
X147978628Y-42285713D02*
X148073866Y-42333332D01*
X148073866Y-42333332D02*
X148264342Y-42333332D01*
X148264342Y-42333332D02*
X148359580Y-42285713D01*
X148359580Y-42285713D02*
X148407200Y-42238094D01*
X148407200Y-42238094D02*
X148454819Y-42142856D01*
X148454819Y-42142856D02*
X148454819Y-41952380D01*
X148454819Y-41952380D02*
X148407200Y-41857142D01*
X148407200Y-41857142D02*
X148359580Y-41809523D01*
X148359580Y-41809523D02*
X148264342Y-41761904D01*
X148264342Y-41761904D02*
X148073866Y-41761904D01*
X148073866Y-41761904D02*
X147978628Y-41809523D01*
X147978628Y-41809523D02*
X147931009Y-41857142D01*
X147931009Y-41857142D02*
X147883390Y-41952380D01*
X147454819Y-41428570D02*
X147454819Y-40761904D01*
X147454819Y-40761904D02*
X148454819Y-41190475D01*
X147788152Y-39952380D02*
X148454819Y-39952380D01*
X147407200Y-40190475D02*
X148121485Y-40428570D01*
X148121485Y-40428570D02*
X148121485Y-39809523D01*
X146833291Y-38359537D02*
X146785672Y-38407157D01*
X146785672Y-38407157D02*
X146642815Y-38454776D01*
X146642815Y-38454776D02*
X146547577Y-38454776D01*
X146547577Y-38454776D02*
X146404720Y-38407157D01*
X146404720Y-38407157D02*
X146309482Y-38311918D01*
X146309482Y-38311918D02*
X146261863Y-38216680D01*
X146261863Y-38216680D02*
X146214244Y-38026204D01*
X146214244Y-38026204D02*
X146214244Y-37883347D01*
X146214244Y-37883347D02*
X146261863Y-37692871D01*
X146261863Y-37692871D02*
X146309482Y-37597633D01*
X146309482Y-37597633D02*
X146404720Y-37502395D01*
X146404720Y-37502395D02*
X146547577Y-37454776D01*
X146547577Y-37454776D02*
X146642815Y-37454776D01*
X146642815Y-37454776D02*
X146785672Y-37502395D01*
X146785672Y-37502395D02*
X146833291Y-37550014D01*
X147309482Y-38454776D02*
X147499958Y-38454776D01*
X147499958Y-38454776D02*
X147595196Y-38407157D01*
X147595196Y-38407157D02*
X147642815Y-38359537D01*
X147642815Y-38359537D02*
X147738053Y-38216680D01*
X147738053Y-38216680D02*
X147785672Y-38026204D01*
X147785672Y-38026204D02*
X147785672Y-37645252D01*
X147785672Y-37645252D02*
X147738053Y-37550014D01*
X147738053Y-37550014D02*
X147690434Y-37502395D01*
X147690434Y-37502395D02*
X147595196Y-37454776D01*
X147595196Y-37454776D02*
X147404720Y-37454776D01*
X147404720Y-37454776D02*
X147309482Y-37502395D01*
X147309482Y-37502395D02*
X147261863Y-37550014D01*
X147261863Y-37550014D02*
X147214244Y-37645252D01*
X147214244Y-37645252D02*
X147214244Y-37883347D01*
X147214244Y-37883347D02*
X147261863Y-37978585D01*
X147261863Y-37978585D02*
X147309482Y-38026204D01*
X147309482Y-38026204D02*
X147404720Y-38073823D01*
X147404720Y-38073823D02*
X147595196Y-38073823D01*
X147595196Y-38073823D02*
X147690434Y-38026204D01*
X147690434Y-38026204D02*
X147738053Y-37978585D01*
X147738053Y-37978585D02*
X147785672Y-37883347D01*
X102166666Y-59154819D02*
X102166666Y-59869104D01*
X102166666Y-59869104D02*
X102119047Y-60011961D01*
X102119047Y-60011961D02*
X102023809Y-60107200D01*
X102023809Y-60107200D02*
X101880952Y-60154819D01*
X101880952Y-60154819D02*
X101785714Y-60154819D01*
X102642857Y-60154819D02*
X102642857Y-59154819D01*
X102642857Y-59154819D02*
X103023809Y-59154819D01*
X103023809Y-59154819D02*
X103119047Y-59202438D01*
X103119047Y-59202438D02*
X103166666Y-59250057D01*
X103166666Y-59250057D02*
X103214285Y-59345295D01*
X103214285Y-59345295D02*
X103214285Y-59488152D01*
X103214285Y-59488152D02*
X103166666Y-59583390D01*
X103166666Y-59583390D02*
X103119047Y-59631009D01*
X103119047Y-59631009D02*
X103023809Y-59678628D01*
X103023809Y-59678628D02*
X102642857Y-59678628D01*
X104071428Y-59488152D02*
X104071428Y-60154819D01*
X103833333Y-59107200D02*
X103595238Y-59821485D01*
X103595238Y-59821485D02*
X104214285Y-59821485D01*
X151454819Y-25833333D02*
X152169104Y-25833333D01*
X152169104Y-25833333D02*
X152311961Y-25880952D01*
X152311961Y-25880952D02*
X152407200Y-25976190D01*
X152407200Y-25976190D02*
X152454819Y-26119047D01*
X152454819Y-26119047D02*
X152454819Y-26214285D01*
X151550057Y-25404761D02*
X151502438Y-25357142D01*
X151502438Y-25357142D02*
X151454819Y-25261904D01*
X151454819Y-25261904D02*
X151454819Y-25023809D01*
X151454819Y-25023809D02*
X151502438Y-24928571D01*
X151502438Y-24928571D02*
X151550057Y-24880952D01*
X151550057Y-24880952D02*
X151645295Y-24833333D01*
X151645295Y-24833333D02*
X151740533Y-24833333D01*
X151740533Y-24833333D02*
X151883390Y-24880952D01*
X151883390Y-24880952D02*
X152454819Y-25452380D01*
X152454819Y-25452380D02*
X152454819Y-24833333D01*
X114973594Y-37304013D02*
X115688425Y-37304013D01*
X115688425Y-37304013D02*
X115831392Y-37351668D01*
X115831392Y-37351668D02*
X115926703Y-37446979D01*
X115926703Y-37446979D02*
X115974358Y-37589945D01*
X115974358Y-37589945D02*
X115974358Y-37685256D01*
X115974358Y-36303249D02*
X115974358Y-36875114D01*
X115974358Y-36589181D02*
X114973594Y-36589181D01*
X114973594Y-36589181D02*
X115116560Y-36684492D01*
X115116560Y-36684492D02*
X115211871Y-36779803D01*
X115211871Y-36779803D02*
X115259527Y-36875114D01*
X139430595Y-51008519D02*
X139430595Y-51818042D01*
X139430595Y-51818042D02*
X139478214Y-51913280D01*
X139478214Y-51913280D02*
X139525833Y-51960900D01*
X139525833Y-51960900D02*
X139621071Y-52008519D01*
X139621071Y-52008519D02*
X139811547Y-52008519D01*
X139811547Y-52008519D02*
X139906785Y-51960900D01*
X139906785Y-51960900D02*
X139954404Y-51913280D01*
X139954404Y-51913280D02*
X140002023Y-51818042D01*
X140002023Y-51818042D02*
X140002023Y-51008519D01*
X140382976Y-51008519D02*
X141002023Y-51008519D01*
X141002023Y-51008519D02*
X140668690Y-51389471D01*
X140668690Y-51389471D02*
X140811547Y-51389471D01*
X140811547Y-51389471D02*
X140906785Y-51437090D01*
X140906785Y-51437090D02*
X140954404Y-51484709D01*
X140954404Y-51484709D02*
X141002023Y-51579947D01*
X141002023Y-51579947D02*
X141002023Y-51818042D01*
X141002023Y-51818042D02*
X140954404Y-51913280D01*
X140954404Y-51913280D02*
X140906785Y-51960900D01*
X140906785Y-51960900D02*
X140811547Y-52008519D01*
X140811547Y-52008519D02*
X140525833Y-52008519D01*
X140525833Y-52008519D02*
X140430595Y-51960900D01*
X140430595Y-51960900D02*
X140382976Y-51913280D01*
X142400833Y-50843280D02*
X142353214Y-50890900D01*
X142353214Y-50890900D02*
X142210357Y-50938519D01*
X142210357Y-50938519D02*
X142115119Y-50938519D01*
X142115119Y-50938519D02*
X141972262Y-50890900D01*
X141972262Y-50890900D02*
X141877024Y-50795661D01*
X141877024Y-50795661D02*
X141829405Y-50700423D01*
X141829405Y-50700423D02*
X141781786Y-50509947D01*
X141781786Y-50509947D02*
X141781786Y-50367090D01*
X141781786Y-50367090D02*
X141829405Y-50176614D01*
X141829405Y-50176614D02*
X141877024Y-50081376D01*
X141877024Y-50081376D02*
X141972262Y-49986138D01*
X141972262Y-49986138D02*
X142115119Y-49938519D01*
X142115119Y-49938519D02*
X142210357Y-49938519D01*
X142210357Y-49938519D02*
X142353214Y-49986138D01*
X142353214Y-49986138D02*
X142400833Y-50033757D01*
X142734167Y-49938519D02*
X143353214Y-49938519D01*
X143353214Y-49938519D02*
X143019881Y-50319471D01*
X143019881Y-50319471D02*
X143162738Y-50319471D01*
X143162738Y-50319471D02*
X143257976Y-50367090D01*
X143257976Y-50367090D02*
X143305595Y-50414709D01*
X143305595Y-50414709D02*
X143353214Y-50509947D01*
X143353214Y-50509947D02*
X143353214Y-50748042D01*
X143353214Y-50748042D02*
X143305595Y-50843280D01*
X143305595Y-50843280D02*
X143257976Y-50890900D01*
X143257976Y-50890900D02*
X143162738Y-50938519D01*
X143162738Y-50938519D02*
X142877024Y-50938519D01*
X142877024Y-50938519D02*
X142781786Y-50890900D01*
X142781786Y-50890900D02*
X142734167Y-50843280D01*
X117444008Y-56019580D02*
X117396389Y-56067200D01*
X117396389Y-56067200D02*
X117253532Y-56114819D01*
X117253532Y-56114819D02*
X117158294Y-56114819D01*
X117158294Y-56114819D02*
X117015437Y-56067200D01*
X117015437Y-56067200D02*
X116920199Y-55971961D01*
X116920199Y-55971961D02*
X116872580Y-55876723D01*
X116872580Y-55876723D02*
X116824961Y-55686247D01*
X116824961Y-55686247D02*
X116824961Y-55543390D01*
X116824961Y-55543390D02*
X116872580Y-55352914D01*
X116872580Y-55352914D02*
X116920199Y-55257676D01*
X116920199Y-55257676D02*
X117015437Y-55162438D01*
X117015437Y-55162438D02*
X117158294Y-55114819D01*
X117158294Y-55114819D02*
X117253532Y-55114819D01*
X117253532Y-55114819D02*
X117396389Y-55162438D01*
X117396389Y-55162438D02*
X117444008Y-55210057D01*
X118396389Y-56114819D02*
X117824961Y-56114819D01*
X118110675Y-56114819D02*
X118110675Y-55114819D01*
X118110675Y-55114819D02*
X118015437Y-55257676D01*
X118015437Y-55257676D02*
X117920199Y-55352914D01*
X117920199Y-55352914D02*
X117824961Y-55400533D01*
X118777342Y-55210057D02*
X118824961Y-55162438D01*
X118824961Y-55162438D02*
X118920199Y-55114819D01*
X118920199Y-55114819D02*
X119158294Y-55114819D01*
X119158294Y-55114819D02*
X119253532Y-55162438D01*
X119253532Y-55162438D02*
X119301151Y-55210057D01*
X119301151Y-55210057D02*
X119348770Y-55305295D01*
X119348770Y-55305295D02*
X119348770Y-55400533D01*
X119348770Y-55400533D02*
X119301151Y-55543390D01*
X119301151Y-55543390D02*
X118729723Y-56114819D01*
X118729723Y-56114819D02*
X119348770Y-56114819D01*
X155954819Y-43333333D02*
X156669104Y-43333333D01*
X156669104Y-43333333D02*
X156811961Y-43380952D01*
X156811961Y-43380952D02*
X156907200Y-43476190D01*
X156907200Y-43476190D02*
X156954819Y-43619047D01*
X156954819Y-43619047D02*
X156954819Y-43714285D01*
X155954819Y-42952380D02*
X155954819Y-42333333D01*
X155954819Y-42333333D02*
X156335771Y-42666666D01*
X156335771Y-42666666D02*
X156335771Y-42523809D01*
X156335771Y-42523809D02*
X156383390Y-42428571D01*
X156383390Y-42428571D02*
X156431009Y-42380952D01*
X156431009Y-42380952D02*
X156526247Y-42333333D01*
X156526247Y-42333333D02*
X156764342Y-42333333D01*
X156764342Y-42333333D02*
X156859580Y-42380952D01*
X156859580Y-42380952D02*
X156907200Y-42428571D01*
X156907200Y-42428571D02*
X156954819Y-42523809D01*
X156954819Y-42523809D02*
X156954819Y-42809523D01*
X156954819Y-42809523D02*
X156907200Y-42904761D01*
X156907200Y-42904761D02*
X156859580Y-42952380D01*
X151158919Y-49765166D02*
X150682728Y-50098499D01*
X151158919Y-50336594D02*
X150158919Y-50336594D01*
X150158919Y-50336594D02*
X150158919Y-49955642D01*
X150158919Y-49955642D02*
X150206538Y-49860404D01*
X150206538Y-49860404D02*
X150254157Y-49812785D01*
X150254157Y-49812785D02*
X150349395Y-49765166D01*
X150349395Y-49765166D02*
X150492252Y-49765166D01*
X150492252Y-49765166D02*
X150587490Y-49812785D01*
X150587490Y-49812785D02*
X150635109Y-49860404D01*
X150635109Y-49860404D02*
X150682728Y-49955642D01*
X150682728Y-49955642D02*
X150682728Y-50336594D01*
X151158919Y-48812785D02*
X151158919Y-49384213D01*
X151158919Y-49098499D02*
X150158919Y-49098499D01*
X150158919Y-49098499D02*
X150301776Y-49193737D01*
X150301776Y-49193737D02*
X150397014Y-49288975D01*
X150397014Y-49288975D02*
X150444633Y-49384213D01*
X142400833Y-36293280D02*
X142353214Y-36340900D01*
X142353214Y-36340900D02*
X142210357Y-36388519D01*
X142210357Y-36388519D02*
X142115119Y-36388519D01*
X142115119Y-36388519D02*
X141972262Y-36340900D01*
X141972262Y-36340900D02*
X141877024Y-36245661D01*
X141877024Y-36245661D02*
X141829405Y-36150423D01*
X141829405Y-36150423D02*
X141781786Y-35959947D01*
X141781786Y-35959947D02*
X141781786Y-35817090D01*
X141781786Y-35817090D02*
X141829405Y-35626614D01*
X141829405Y-35626614D02*
X141877024Y-35531376D01*
X141877024Y-35531376D02*
X141972262Y-35436138D01*
X141972262Y-35436138D02*
X142115119Y-35388519D01*
X142115119Y-35388519D02*
X142210357Y-35388519D01*
X142210357Y-35388519D02*
X142353214Y-35436138D01*
X142353214Y-35436138D02*
X142400833Y-35483757D01*
X143305595Y-35388519D02*
X142829405Y-35388519D01*
X142829405Y-35388519D02*
X142781786Y-35864709D01*
X142781786Y-35864709D02*
X142829405Y-35817090D01*
X142829405Y-35817090D02*
X142924643Y-35769471D01*
X142924643Y-35769471D02*
X143162738Y-35769471D01*
X143162738Y-35769471D02*
X143257976Y-35817090D01*
X143257976Y-35817090D02*
X143305595Y-35864709D01*
X143305595Y-35864709D02*
X143353214Y-35959947D01*
X143353214Y-35959947D02*
X143353214Y-36198042D01*
X143353214Y-36198042D02*
X143305595Y-36293280D01*
X143305595Y-36293280D02*
X143257976Y-36340900D01*
X143257976Y-36340900D02*
X143162738Y-36388519D01*
X143162738Y-36388519D02*
X142924643Y-36388519D01*
X142924643Y-36388519D02*
X142829405Y-36340900D01*
X142829405Y-36340900D02*
X142781786Y-36293280D01*
X104454819Y-65261904D02*
X105264342Y-65261904D01*
X105264342Y-65261904D02*
X105359580Y-65214285D01*
X105359580Y-65214285D02*
X105407200Y-65166666D01*
X105407200Y-65166666D02*
X105454819Y-65071428D01*
X105454819Y-65071428D02*
X105454819Y-64880952D01*
X105454819Y-64880952D02*
X105407200Y-64785714D01*
X105407200Y-64785714D02*
X105359580Y-64738095D01*
X105359580Y-64738095D02*
X105264342Y-64690476D01*
X105264342Y-64690476D02*
X104454819Y-64690476D01*
X105454819Y-63690476D02*
X105454819Y-64261904D01*
X105454819Y-63976190D02*
X104454819Y-63976190D01*
X104454819Y-63976190D02*
X104597676Y-64071428D01*
X104597676Y-64071428D02*
X104692914Y-64166666D01*
X104692914Y-64166666D02*
X104740533Y-64261904D01*
X118454819Y-65592772D02*
X119169104Y-65592772D01*
X119169104Y-65592772D02*
X119311961Y-65640391D01*
X119311961Y-65640391D02*
X119407200Y-65735629D01*
X119407200Y-65735629D02*
X119454819Y-65878486D01*
X119454819Y-65878486D02*
X119454819Y-65973724D01*
X119454819Y-65116581D02*
X118454819Y-65116581D01*
X118454819Y-65116581D02*
X118454819Y-64735629D01*
X118454819Y-64735629D02*
X118502438Y-64640391D01*
X118502438Y-64640391D02*
X118550057Y-64592772D01*
X118550057Y-64592772D02*
X118645295Y-64545153D01*
X118645295Y-64545153D02*
X118788152Y-64545153D01*
X118788152Y-64545153D02*
X118883390Y-64592772D01*
X118883390Y-64592772D02*
X118931009Y-64640391D01*
X118931009Y-64640391D02*
X118978628Y-64735629D01*
X118978628Y-64735629D02*
X118978628Y-65116581D01*
X118454819Y-63640391D02*
X118454819Y-64116581D01*
X118454819Y-64116581D02*
X118931009Y-64164200D01*
X118931009Y-64164200D02*
X118883390Y-64116581D01*
X118883390Y-64116581D02*
X118835771Y-64021343D01*
X118835771Y-64021343D02*
X118835771Y-63783248D01*
X118835771Y-63783248D02*
X118883390Y-63688010D01*
X118883390Y-63688010D02*
X118931009Y-63640391D01*
X118931009Y-63640391D02*
X119026247Y-63592772D01*
X119026247Y-63592772D02*
X119264342Y-63592772D01*
X119264342Y-63592772D02*
X119359580Y-63640391D01*
X119359580Y-63640391D02*
X119407200Y-63688010D01*
X119407200Y-63688010D02*
X119454819Y-63783248D01*
X119454819Y-63783248D02*
X119454819Y-64021343D01*
X119454819Y-64021343D02*
X119407200Y-64116581D01*
X119407200Y-64116581D02*
X119359580Y-64164200D01*
X146516666Y-25254819D02*
X146516666Y-25969104D01*
X146516666Y-25969104D02*
X146469047Y-26111961D01*
X146469047Y-26111961D02*
X146373809Y-26207200D01*
X146373809Y-26207200D02*
X146230952Y-26254819D01*
X146230952Y-26254819D02*
X146135714Y-26254819D01*
X146992857Y-26254819D02*
X146992857Y-25254819D01*
X146992857Y-25254819D02*
X147373809Y-25254819D01*
X147373809Y-25254819D02*
X147469047Y-25302438D01*
X147469047Y-25302438D02*
X147516666Y-25350057D01*
X147516666Y-25350057D02*
X147564285Y-25445295D01*
X147564285Y-25445295D02*
X147564285Y-25588152D01*
X147564285Y-25588152D02*
X147516666Y-25683390D01*
X147516666Y-25683390D02*
X147469047Y-25731009D01*
X147469047Y-25731009D02*
X147373809Y-25778628D01*
X147373809Y-25778628D02*
X146992857Y-25778628D01*
X148516666Y-26254819D02*
X147945238Y-26254819D01*
X148230952Y-26254819D02*
X148230952Y-25254819D01*
X148230952Y-25254819D02*
X148135714Y-25397676D01*
X148135714Y-25397676D02*
X148040476Y-25492914D01*
X148040476Y-25492914D02*
X147945238Y-25540533D01*
X130758333Y-40509580D02*
X130710714Y-40557200D01*
X130710714Y-40557200D02*
X130567857Y-40604819D01*
X130567857Y-40604819D02*
X130472619Y-40604819D01*
X130472619Y-40604819D02*
X130329762Y-40557200D01*
X130329762Y-40557200D02*
X130234524Y-40461961D01*
X130234524Y-40461961D02*
X130186905Y-40366723D01*
X130186905Y-40366723D02*
X130139286Y-40176247D01*
X130139286Y-40176247D02*
X130139286Y-40033390D01*
X130139286Y-40033390D02*
X130186905Y-39842914D01*
X130186905Y-39842914D02*
X130234524Y-39747676D01*
X130234524Y-39747676D02*
X130329762Y-39652438D01*
X130329762Y-39652438D02*
X130472619Y-39604819D01*
X130472619Y-39604819D02*
X130567857Y-39604819D01*
X130567857Y-39604819D02*
X130710714Y-39652438D01*
X130710714Y-39652438D02*
X130758333Y-39700057D01*
X131615476Y-39938152D02*
X131615476Y-40604819D01*
X131377381Y-39557200D02*
X131139286Y-40271485D01*
X131139286Y-40271485D02*
X131758333Y-40271485D01*
X115054819Y-50761904D02*
X115864342Y-50761904D01*
X115864342Y-50761904D02*
X115959580Y-50714285D01*
X115959580Y-50714285D02*
X116007200Y-50666666D01*
X116007200Y-50666666D02*
X116054819Y-50571428D01*
X116054819Y-50571428D02*
X116054819Y-50380952D01*
X116054819Y-50380952D02*
X116007200Y-50285714D01*
X116007200Y-50285714D02*
X115959580Y-50238095D01*
X115959580Y-50238095D02*
X115864342Y-50190476D01*
X115864342Y-50190476D02*
X115054819Y-50190476D01*
X115054819Y-49809523D02*
X115054819Y-49142857D01*
X115054819Y-49142857D02*
X116054819Y-49571428D01*
X156416667Y-73407200D02*
X156559524Y-73454819D01*
X156559524Y-73454819D02*
X156797619Y-73454819D01*
X156797619Y-73454819D02*
X156892857Y-73407200D01*
X156892857Y-73407200D02*
X156940476Y-73359580D01*
X156940476Y-73359580D02*
X156988095Y-73264342D01*
X156988095Y-73264342D02*
X156988095Y-73169104D01*
X156988095Y-73169104D02*
X156940476Y-73073866D01*
X156940476Y-73073866D02*
X156892857Y-73026247D01*
X156892857Y-73026247D02*
X156797619Y-72978628D01*
X156797619Y-72978628D02*
X156607143Y-72931009D01*
X156607143Y-72931009D02*
X156511905Y-72883390D01*
X156511905Y-72883390D02*
X156464286Y-72835771D01*
X156464286Y-72835771D02*
X156416667Y-72740533D01*
X156416667Y-72740533D02*
X156416667Y-72645295D01*
X156416667Y-72645295D02*
X156464286Y-72550057D01*
X156464286Y-72550057D02*
X156511905Y-72502438D01*
X156511905Y-72502438D02*
X156607143Y-72454819D01*
X156607143Y-72454819D02*
X156845238Y-72454819D01*
X156845238Y-72454819D02*
X156988095Y-72502438D01*
X157321429Y-72454819D02*
X157559524Y-73454819D01*
X157559524Y-73454819D02*
X157750000Y-72740533D01*
X157750000Y-72740533D02*
X157940476Y-73454819D01*
X157940476Y-73454819D02*
X158178572Y-72454819D01*
X159083333Y-73454819D02*
X158511905Y-73454819D01*
X158797619Y-73454819D02*
X158797619Y-72454819D01*
X158797619Y-72454819D02*
X158702381Y-72597676D01*
X158702381Y-72597676D02*
X158607143Y-72692914D01*
X158607143Y-72692914D02*
X158511905Y-72740533D01*
X109404233Y-70859580D02*
X109356614Y-70907200D01*
X109356614Y-70907200D02*
X109213757Y-70954819D01*
X109213757Y-70954819D02*
X109118519Y-70954819D01*
X109118519Y-70954819D02*
X108975662Y-70907200D01*
X108975662Y-70907200D02*
X108880424Y-70811961D01*
X108880424Y-70811961D02*
X108832805Y-70716723D01*
X108832805Y-70716723D02*
X108785186Y-70526247D01*
X108785186Y-70526247D02*
X108785186Y-70383390D01*
X108785186Y-70383390D02*
X108832805Y-70192914D01*
X108832805Y-70192914D02*
X108880424Y-70097676D01*
X108880424Y-70097676D02*
X108975662Y-70002438D01*
X108975662Y-70002438D02*
X109118519Y-69954819D01*
X109118519Y-69954819D02*
X109213757Y-69954819D01*
X109213757Y-69954819D02*
X109356614Y-70002438D01*
X109356614Y-70002438D02*
X109404233Y-70050057D01*
X110356614Y-70954819D02*
X109785186Y-70954819D01*
X110070900Y-70954819D02*
X110070900Y-69954819D01*
X110070900Y-69954819D02*
X109975662Y-70097676D01*
X109975662Y-70097676D02*
X109880424Y-70192914D01*
X109880424Y-70192914D02*
X109785186Y-70240533D01*
X153519580Y-49142857D02*
X153567200Y-49190476D01*
X153567200Y-49190476D02*
X153614819Y-49333333D01*
X153614819Y-49333333D02*
X153614819Y-49428571D01*
X153614819Y-49428571D02*
X153567200Y-49571428D01*
X153567200Y-49571428D02*
X153471961Y-49666666D01*
X153471961Y-49666666D02*
X153376723Y-49714285D01*
X153376723Y-49714285D02*
X153186247Y-49761904D01*
X153186247Y-49761904D02*
X153043390Y-49761904D01*
X153043390Y-49761904D02*
X152852914Y-49714285D01*
X152852914Y-49714285D02*
X152757676Y-49666666D01*
X152757676Y-49666666D02*
X152662438Y-49571428D01*
X152662438Y-49571428D02*
X152614819Y-49428571D01*
X152614819Y-49428571D02*
X152614819Y-49333333D01*
X152614819Y-49333333D02*
X152662438Y-49190476D01*
X152662438Y-49190476D02*
X152710057Y-49142857D01*
X153614819Y-48190476D02*
X153614819Y-48761904D01*
X153614819Y-48476190D02*
X152614819Y-48476190D01*
X152614819Y-48476190D02*
X152757676Y-48571428D01*
X152757676Y-48571428D02*
X152852914Y-48666666D01*
X152852914Y-48666666D02*
X152900533Y-48761904D01*
X153614819Y-47238095D02*
X153614819Y-47809523D01*
X153614819Y-47523809D02*
X152614819Y-47523809D01*
X152614819Y-47523809D02*
X152757676Y-47619047D01*
X152757676Y-47619047D02*
X152852914Y-47714285D01*
X152852914Y-47714285D02*
X152900533Y-47809523D01*
X127738095Y-40674819D02*
X127738095Y-41484342D01*
X127738095Y-41484342D02*
X127785714Y-41579580D01*
X127785714Y-41579580D02*
X127833333Y-41627200D01*
X127833333Y-41627200D02*
X127928571Y-41674819D01*
X127928571Y-41674819D02*
X128119047Y-41674819D01*
X128119047Y-41674819D02*
X128214285Y-41627200D01*
X128214285Y-41627200D02*
X128261904Y-41579580D01*
X128261904Y-41579580D02*
X128309523Y-41484342D01*
X128309523Y-41484342D02*
X128309523Y-40674819D01*
X129214285Y-41008152D02*
X129214285Y-41674819D01*
X128976190Y-40627200D02*
X128738095Y-41341485D01*
X128738095Y-41341485D02*
X129357142Y-41341485D01*
X151019580Y-53980357D02*
X151067200Y-54027976D01*
X151067200Y-54027976D02*
X151114819Y-54170833D01*
X151114819Y-54170833D02*
X151114819Y-54266071D01*
X151114819Y-54266071D02*
X151067200Y-54408928D01*
X151067200Y-54408928D02*
X150971961Y-54504166D01*
X150971961Y-54504166D02*
X150876723Y-54551785D01*
X150876723Y-54551785D02*
X150686247Y-54599404D01*
X150686247Y-54599404D02*
X150543390Y-54599404D01*
X150543390Y-54599404D02*
X150352914Y-54551785D01*
X150352914Y-54551785D02*
X150257676Y-54504166D01*
X150257676Y-54504166D02*
X150162438Y-54408928D01*
X150162438Y-54408928D02*
X150114819Y-54266071D01*
X150114819Y-54266071D02*
X150114819Y-54170833D01*
X150114819Y-54170833D02*
X150162438Y-54027976D01*
X150162438Y-54027976D02*
X150210057Y-53980357D01*
X151114819Y-53027976D02*
X151114819Y-53599404D01*
X151114819Y-53313690D02*
X150114819Y-53313690D01*
X150114819Y-53313690D02*
X150257676Y-53408928D01*
X150257676Y-53408928D02*
X150352914Y-53504166D01*
X150352914Y-53504166D02*
X150400533Y-53599404D01*
X150114819Y-52408928D02*
X150114819Y-52313690D01*
X150114819Y-52313690D02*
X150162438Y-52218452D01*
X150162438Y-52218452D02*
X150210057Y-52170833D01*
X150210057Y-52170833D02*
X150305295Y-52123214D01*
X150305295Y-52123214D02*
X150495771Y-52075595D01*
X150495771Y-52075595D02*
X150733866Y-52075595D01*
X150733866Y-52075595D02*
X150924342Y-52123214D01*
X150924342Y-52123214D02*
X151019580Y-52170833D01*
X151019580Y-52170833D02*
X151067200Y-52218452D01*
X151067200Y-52218452D02*
X151114819Y-52313690D01*
X151114819Y-52313690D02*
X151114819Y-52408928D01*
X151114819Y-52408928D02*
X151067200Y-52504166D01*
X151067200Y-52504166D02*
X151019580Y-52551785D01*
X151019580Y-52551785D02*
X150924342Y-52599404D01*
X150924342Y-52599404D02*
X150733866Y-52647023D01*
X150733866Y-52647023D02*
X150495771Y-52647023D01*
X150495771Y-52647023D02*
X150305295Y-52599404D01*
X150305295Y-52599404D02*
X150210057Y-52551785D01*
X150210057Y-52551785D02*
X150162438Y-52504166D01*
X150162438Y-52504166D02*
X150114819Y-52408928D01*
X138166666Y-33454819D02*
X138166666Y-34169104D01*
X138166666Y-34169104D02*
X138119047Y-34311961D01*
X138119047Y-34311961D02*
X138023809Y-34407200D01*
X138023809Y-34407200D02*
X137880952Y-34454819D01*
X137880952Y-34454819D02*
X137785714Y-34454819D01*
X138642857Y-34454819D02*
X138642857Y-33454819D01*
X138642857Y-33454819D02*
X139023809Y-33454819D01*
X139023809Y-33454819D02*
X139119047Y-33502438D01*
X139119047Y-33502438D02*
X139166666Y-33550057D01*
X139166666Y-33550057D02*
X139214285Y-33645295D01*
X139214285Y-33645295D02*
X139214285Y-33788152D01*
X139214285Y-33788152D02*
X139166666Y-33883390D01*
X139166666Y-33883390D02*
X139119047Y-33931009D01*
X139119047Y-33931009D02*
X139023809Y-33978628D01*
X139023809Y-33978628D02*
X138642857Y-33978628D01*
X139547619Y-33454819D02*
X140166666Y-33454819D01*
X140166666Y-33454819D02*
X139833333Y-33835771D01*
X139833333Y-33835771D02*
X139976190Y-33835771D01*
X139976190Y-33835771D02*
X140071428Y-33883390D01*
X140071428Y-33883390D02*
X140119047Y-33931009D01*
X140119047Y-33931009D02*
X140166666Y-34026247D01*
X140166666Y-34026247D02*
X140166666Y-34264342D01*
X140166666Y-34264342D02*
X140119047Y-34359580D01*
X140119047Y-34359580D02*
X140071428Y-34407200D01*
X140071428Y-34407200D02*
X139976190Y-34454819D01*
X139976190Y-34454819D02*
X139690476Y-34454819D01*
X139690476Y-34454819D02*
X139595238Y-34407200D01*
X139595238Y-34407200D02*
X139547619Y-34359580D01*
X152954819Y-54504166D02*
X152478628Y-54837499D01*
X152954819Y-55075594D02*
X151954819Y-55075594D01*
X151954819Y-55075594D02*
X151954819Y-54694642D01*
X151954819Y-54694642D02*
X152002438Y-54599404D01*
X152002438Y-54599404D02*
X152050057Y-54551785D01*
X152050057Y-54551785D02*
X152145295Y-54504166D01*
X152145295Y-54504166D02*
X152288152Y-54504166D01*
X152288152Y-54504166D02*
X152383390Y-54551785D01*
X152383390Y-54551785D02*
X152431009Y-54599404D01*
X152431009Y-54599404D02*
X152478628Y-54694642D01*
X152478628Y-54694642D02*
X152478628Y-55075594D01*
X151954819Y-54170832D02*
X151954819Y-53551785D01*
X151954819Y-53551785D02*
X152335771Y-53885118D01*
X152335771Y-53885118D02*
X152335771Y-53742261D01*
X152335771Y-53742261D02*
X152383390Y-53647023D01*
X152383390Y-53647023D02*
X152431009Y-53599404D01*
X152431009Y-53599404D02*
X152526247Y-53551785D01*
X152526247Y-53551785D02*
X152764342Y-53551785D01*
X152764342Y-53551785D02*
X152859580Y-53599404D01*
X152859580Y-53599404D02*
X152907200Y-53647023D01*
X152907200Y-53647023D02*
X152954819Y-53742261D01*
X152954819Y-53742261D02*
X152954819Y-54027975D01*
X152954819Y-54027975D02*
X152907200Y-54123213D01*
X152907200Y-54123213D02*
X152859580Y-54170832D01*
X110154819Y-65592772D02*
X110869104Y-65592772D01*
X110869104Y-65592772D02*
X111011961Y-65640391D01*
X111011961Y-65640391D02*
X111107200Y-65735629D01*
X111107200Y-65735629D02*
X111154819Y-65878486D01*
X111154819Y-65878486D02*
X111154819Y-65973724D01*
X111154819Y-65116581D02*
X110154819Y-65116581D01*
X110154819Y-65116581D02*
X110154819Y-64735629D01*
X110154819Y-64735629D02*
X110202438Y-64640391D01*
X110202438Y-64640391D02*
X110250057Y-64592772D01*
X110250057Y-64592772D02*
X110345295Y-64545153D01*
X110345295Y-64545153D02*
X110488152Y-64545153D01*
X110488152Y-64545153D02*
X110583390Y-64592772D01*
X110583390Y-64592772D02*
X110631009Y-64640391D01*
X110631009Y-64640391D02*
X110678628Y-64735629D01*
X110678628Y-64735629D02*
X110678628Y-65116581D01*
X110154819Y-63688010D02*
X110154819Y-63878486D01*
X110154819Y-63878486D02*
X110202438Y-63973724D01*
X110202438Y-63973724D02*
X110250057Y-64021343D01*
X110250057Y-64021343D02*
X110392914Y-64116581D01*
X110392914Y-64116581D02*
X110583390Y-64164200D01*
X110583390Y-64164200D02*
X110964342Y-64164200D01*
X110964342Y-64164200D02*
X111059580Y-64116581D01*
X111059580Y-64116581D02*
X111107200Y-64068962D01*
X111107200Y-64068962D02*
X111154819Y-63973724D01*
X111154819Y-63973724D02*
X111154819Y-63783248D01*
X111154819Y-63783248D02*
X111107200Y-63688010D01*
X111107200Y-63688010D02*
X111059580Y-63640391D01*
X111059580Y-63640391D02*
X110964342Y-63592772D01*
X110964342Y-63592772D02*
X110726247Y-63592772D01*
X110726247Y-63592772D02*
X110631009Y-63640391D01*
X110631009Y-63640391D02*
X110583390Y-63688010D01*
X110583390Y-63688010D02*
X110535771Y-63783248D01*
X110535771Y-63783248D02*
X110535771Y-63973724D01*
X110535771Y-63973724D02*
X110583390Y-64068962D01*
X110583390Y-64068962D02*
X110631009Y-64116581D01*
X110631009Y-64116581D02*
X110726247Y-64164200D01*
X149859575Y-36166659D02*
X149907195Y-36214278D01*
X149907195Y-36214278D02*
X149954814Y-36357135D01*
X149954814Y-36357135D02*
X149954814Y-36452373D01*
X149954814Y-36452373D02*
X149907195Y-36595230D01*
X149907195Y-36595230D02*
X149811956Y-36690468D01*
X149811956Y-36690468D02*
X149716718Y-36738087D01*
X149716718Y-36738087D02*
X149526242Y-36785706D01*
X149526242Y-36785706D02*
X149383385Y-36785706D01*
X149383385Y-36785706D02*
X149192909Y-36738087D01*
X149192909Y-36738087D02*
X149097671Y-36690468D01*
X149097671Y-36690468D02*
X149002433Y-36595230D01*
X149002433Y-36595230D02*
X148954814Y-36452373D01*
X148954814Y-36452373D02*
X148954814Y-36357135D01*
X148954814Y-36357135D02*
X149002433Y-36214278D01*
X149002433Y-36214278D02*
X149050052Y-36166659D01*
X148954814Y-35309516D02*
X148954814Y-35499992D01*
X148954814Y-35499992D02*
X149002433Y-35595230D01*
X149002433Y-35595230D02*
X149050052Y-35642849D01*
X149050052Y-35642849D02*
X149192909Y-35738087D01*
X149192909Y-35738087D02*
X149383385Y-35785706D01*
X149383385Y-35785706D02*
X149764337Y-35785706D01*
X149764337Y-35785706D02*
X149859575Y-35738087D01*
X149859575Y-35738087D02*
X149907195Y-35690468D01*
X149907195Y-35690468D02*
X149954814Y-35595230D01*
X149954814Y-35595230D02*
X149954814Y-35404754D01*
X149954814Y-35404754D02*
X149907195Y-35309516D01*
X149907195Y-35309516D02*
X149859575Y-35261897D01*
X149859575Y-35261897D02*
X149764337Y-35214278D01*
X149764337Y-35214278D02*
X149526242Y-35214278D01*
X149526242Y-35214278D02*
X149431004Y-35261897D01*
X149431004Y-35261897D02*
X149383385Y-35309516D01*
X149383385Y-35309516D02*
X149335766Y-35404754D01*
X149335766Y-35404754D02*
X149335766Y-35595230D01*
X149335766Y-35595230D02*
X149383385Y-35690468D01*
X149383385Y-35690468D02*
X149431004Y-35738087D01*
X149431004Y-35738087D02*
X149526242Y-35785706D01*
D15*
%TO.C,C7*%
X150258974Y-30095399D02*
X148836470Y-30095399D01*
X150258974Y-31915399D02*
X148836470Y-31915399D01*
%TO.C,C2*%
X130451665Y-56977500D02*
X130683335Y-56977500D01*
X130451665Y-57697500D02*
X130683335Y-57697500D01*
%TO.C,JP2*%
X137600000Y-29800000D02*
X137600000Y-29200000D01*
X138300000Y-28500000D02*
X139700000Y-28500000D01*
X139700000Y-30500000D02*
X138300000Y-30500000D01*
X140400000Y-29200000D02*
X140400000Y-29800000D01*
X137600000Y-29200000D02*
G75*
G02*
X138300000Y-28500000I699999J1D01*
G01*
X138300000Y-30500000D02*
G75*
G02*
X137600000Y-29800000I-1J699999D01*
G01*
X139700000Y-28500000D02*
G75*
G02*
X140400000Y-29200000I0J-700000D01*
G01*
X140400000Y-29800000D02*
G75*
G02*
X139700000Y-30500000I-700000J0D01*
G01*
%TO.C,C8*%
X151363200Y-37414235D02*
X151363200Y-37182565D01*
X152083200Y-37414235D02*
X152083200Y-37182565D01*
%TO.C,U5*%
X140092500Y-37848700D02*
X138142500Y-37848700D01*
X140092500Y-37848700D02*
X142042500Y-37848700D01*
X140092500Y-46718700D02*
X138142500Y-46718700D01*
X140092500Y-46718700D02*
X142042500Y-46718700D01*
X137392500Y-37913700D02*
X137152500Y-37583700D01*
X137632500Y-37583700D01*
X137392500Y-37913700D01*
G36*
X137392500Y-37913700D02*
G01*
X137152500Y-37583700D01*
X137632500Y-37583700D01*
X137392500Y-37913700D01*
G37*
%TO.C,C9*%
X149018035Y-37643500D02*
X148786365Y-37643500D01*
X149018035Y-38363500D02*
X148786365Y-38363500D01*
%TO.C,JP4*%
X101600000Y-61800000D02*
X101600000Y-61200000D01*
X102300000Y-60500000D02*
X103700000Y-60500000D01*
X103700000Y-62500000D02*
X102300000Y-62500000D01*
X104400000Y-61200000D02*
X104400000Y-61800000D01*
X101600000Y-61200000D02*
G75*
G02*
X102300000Y-60500000I699999J1D01*
G01*
X102300000Y-62500000D02*
G75*
G02*
X101600000Y-61800000I-1J699999D01*
G01*
X103700000Y-60500000D02*
G75*
G02*
X104400000Y-61200000I0J-700000D01*
G01*
X104400000Y-61800000D02*
G75*
G02*
X103700000Y-62500000I-700000J0D01*
G01*
D16*
%TO.C,J2*%
X153200000Y-25500000D02*
X154630000Y-25500000D01*
X153200000Y-27880000D02*
X153200000Y-25500000D01*
X153200000Y-34500000D02*
X153200000Y-32120000D01*
X167500000Y-25500000D02*
X158870000Y-25500000D01*
X167500000Y-25500000D02*
X167500000Y-34500000D01*
X167500000Y-34500000D02*
X153200000Y-34500000D01*
D17*
X152650000Y-30000000D02*
G75*
G02*
X152450000Y-30000000I-100000J0D01*
G01*
X152450000Y-30000000D02*
G75*
G02*
X152650000Y-30000000I100000J0D01*
G01*
D16*
%TO.C,J1*%
X92790000Y-27440000D02*
X92790000Y-58560000D01*
X92790000Y-58560000D02*
X114060000Y-58560000D01*
X114060000Y-27440000D02*
X92790000Y-27440000D01*
X114060000Y-58560000D02*
X114060000Y-27440000D01*
D18*
X114875000Y-31700000D02*
G75*
G02*
X114575000Y-31700000I-150000J0D01*
G01*
X114575000Y-31700000D02*
G75*
G02*
X114875000Y-31700000I150000J0D01*
G01*
D15*
%TO.C,U3*%
X140192500Y-52398700D02*
X138242500Y-52398700D01*
X140192500Y-52398700D02*
X142142500Y-52398700D01*
X140192500Y-61268700D02*
X138242500Y-61268700D01*
X140192500Y-61268700D02*
X142142500Y-61268700D01*
X137492500Y-52463700D02*
X137252500Y-52133700D01*
X137732500Y-52133700D01*
X137492500Y-52463700D01*
G36*
X137492500Y-52463700D02*
G01*
X137252500Y-52133700D01*
X137732500Y-52133700D01*
X137492500Y-52463700D01*
G37*
%TO.C,C3*%
X142451665Y-51283700D02*
X142683335Y-51283700D01*
X142451665Y-52003700D02*
X142683335Y-52003700D01*
%TO.C,U2*%
X128242500Y-58092500D02*
X126292500Y-58092500D01*
X128242500Y-58092500D02*
X130192500Y-58092500D01*
X128242500Y-66962500D02*
X126292500Y-66962500D01*
X128242500Y-66962500D02*
X130192500Y-66962500D01*
X125542500Y-58157500D02*
X125302500Y-57827500D01*
X125782500Y-57827500D01*
X125542500Y-58157500D01*
G36*
X125542500Y-58157500D02*
G01*
X125302500Y-57827500D01*
X125782500Y-57827500D01*
X125542500Y-58157500D01*
G37*
%TO.C,C12*%
X119115835Y-54140000D02*
X118884165Y-54140000D01*
X119115835Y-54860000D02*
X118884165Y-54860000D01*
%TO.C,J3*%
X157100000Y-37700000D02*
X157100000Y-38200000D01*
X157340000Y-37940000D02*
X157340000Y-48060000D01*
X157840000Y-37700000D02*
X157100000Y-37700000D01*
X157900000Y-37940000D02*
X157900000Y-48060000D01*
X159400000Y-37940000D02*
X159400000Y-48060000D01*
X160761000Y-44466000D02*
X160726000Y-44431000D01*
X160977000Y-44273000D02*
X160931000Y-44226000D01*
X163069000Y-46775000D02*
X163023000Y-46728000D01*
X163275000Y-46570000D02*
X163239000Y-46535000D01*
X164301000Y-37940000D02*
X164301000Y-48060000D01*
X167261000Y-37940000D02*
X157340000Y-37940000D01*
X167261000Y-37940000D02*
X167261000Y-48060000D01*
X167261000Y-48060000D02*
X157340000Y-48060000D01*
X160319747Y-40528805D02*
G75*
G02*
X160465000Y-39816000I1680254J28806D01*
G01*
X160465244Y-41183318D02*
G75*
G02*
X160320000Y-40500000I1534756J683318D01*
G01*
X161316958Y-38964573D02*
G75*
G02*
X162684000Y-38965000I683041J-1535420D01*
G01*
X162683042Y-42035427D02*
G75*
G02*
X161316000Y-42035000I-683042J1535427D01*
G01*
X163535427Y-39816958D02*
G75*
G02*
X163535000Y-41184000I-1535420J-683041D01*
G01*
X163680000Y-45500000D02*
G75*
G02*
X160320000Y-45500000I-1680000J0D01*
G01*
X160320000Y-45500000D02*
G75*
G02*
X163680000Y-45500000I1680000J0D01*
G01*
%TO.C,C5*%
X142451665Y-36733700D02*
X142683335Y-36733700D01*
X142451665Y-37453700D02*
X142683335Y-37453700D01*
%TO.C,U1*%
X106090000Y-62190000D02*
X106305000Y-62190000D01*
X106090000Y-64500000D02*
X106090000Y-62190000D01*
X106090000Y-64500000D02*
X106090000Y-66810000D01*
X106090000Y-66810000D02*
X106305000Y-66810000D01*
X108910000Y-62190000D02*
X108695000Y-62190000D01*
X108910000Y-64500000D02*
X108910000Y-62190000D01*
X108910000Y-64500000D02*
X108910000Y-66810000D01*
X108910000Y-66810000D02*
X108695000Y-66810000D01*
X109025000Y-61640000D02*
X108695000Y-61400000D01*
X109025000Y-61160000D01*
X109025000Y-61640000D01*
G36*
X109025000Y-61640000D02*
G01*
X108695000Y-61400000D01*
X109025000Y-61160000D01*
X109025000Y-61640000D01*
G37*
%TO.C,JP5*%
X115500000Y-66159439D02*
X115500000Y-63359439D01*
X116200000Y-62709439D02*
X116800000Y-62709439D01*
X116800000Y-66809439D02*
X116200000Y-66809439D01*
X117500000Y-63359439D02*
X117500000Y-66159439D01*
X117700000Y-65959439D02*
X118000000Y-65659439D01*
X117700000Y-65959439D02*
X118000000Y-66259439D01*
X118000000Y-66259439D02*
X118000000Y-65659439D01*
X115500000Y-63409439D02*
G75*
G02*
X116200000Y-62709439I700000J0D01*
G01*
X116200000Y-66809439D02*
G75*
G02*
X115500000Y-66109439I-1J699999D01*
G01*
X116800000Y-62709439D02*
G75*
G02*
X117500000Y-63409439I0J-700000D01*
G01*
X117500000Y-66109439D02*
G75*
G02*
X116800000Y-66809439I-699999J-1D01*
G01*
%TO.C,JP1*%
X145950000Y-24300000D02*
X145950000Y-23700000D01*
X146650000Y-23000000D02*
X148050000Y-23000000D01*
X148050000Y-25000000D02*
X146650000Y-25000000D01*
X148750000Y-23700000D02*
X148750000Y-24300000D01*
X145950000Y-23700000D02*
G75*
G02*
X146650000Y-23000000I700000J0D01*
G01*
X146650000Y-25000000D02*
G75*
G02*
X145950000Y-24300000I0J700000D01*
G01*
X148050000Y-23000000D02*
G75*
G02*
X148750000Y-23700000I1J-699999D01*
G01*
X148750000Y-24300000D02*
G75*
G02*
X148050000Y-25000000I-699999J-1D01*
G01*
%TO.C,C4*%
X130809165Y-40950000D02*
X131040835Y-40950000D01*
X130809165Y-41670000D02*
X131040835Y-41670000D01*
%TO.C,U7*%
X116440000Y-50000000D02*
X116440000Y-48050000D01*
X116440000Y-50000000D02*
X116440000Y-51950000D01*
X121560000Y-50000000D02*
X121560000Y-48050000D01*
X121560000Y-50000000D02*
X121560000Y-51950000D01*
X116535000Y-52700000D02*
X116205000Y-52940000D01*
X116205000Y-52460000D01*
X116535000Y-52700000D01*
G36*
X116535000Y-52700000D02*
G01*
X116205000Y-52940000D01*
X116205000Y-52460000D01*
X116535000Y-52700000D01*
G37*
%TO.C,SW1*%
X154250000Y-68000000D02*
X154250000Y-69500000D01*
X155500000Y-72000000D02*
X160000000Y-72000000D01*
X160000000Y-65500000D02*
X155500000Y-65500000D01*
X161250000Y-69500000D02*
X161250000Y-68000000D01*
%TO.C,C1*%
X109210900Y-68384165D02*
X109210900Y-68615835D01*
X109930900Y-68384165D02*
X109930900Y-68615835D01*
%TO.C,C11*%
X151640000Y-48384165D02*
X151640000Y-48615835D01*
X152360000Y-48384165D02*
X152360000Y-48615835D01*
%TO.C,U4*%
X128500000Y-42065000D02*
X126550000Y-42065000D01*
X128500000Y-42065000D02*
X130450000Y-42065000D01*
X128500000Y-50935000D02*
X126550000Y-50935000D01*
X128500000Y-50935000D02*
X130450000Y-50935000D01*
X125800000Y-42130000D02*
X125560000Y-41800000D01*
X126040000Y-41800000D01*
X125800000Y-42130000D01*
G36*
X125800000Y-42130000D02*
G01*
X125560000Y-41800000D01*
X126040000Y-41800000D01*
X125800000Y-42130000D01*
G37*
%TO.C,C10*%
X149140000Y-53221665D02*
X149140000Y-53453335D01*
X149860000Y-53221665D02*
X149860000Y-53453335D01*
%TO.C,JP3*%
X137600000Y-32300000D02*
X137600000Y-31700000D01*
X138300000Y-31000000D02*
X139700000Y-31000000D01*
X139700000Y-33000000D02*
X138300000Y-33000000D01*
X140400000Y-31700000D02*
X140400000Y-32300000D01*
X137600000Y-31700000D02*
G75*
G02*
X138300000Y-31000000I699999J1D01*
G01*
X138300000Y-33000000D02*
G75*
G02*
X137600000Y-32300000I-1J699999D01*
G01*
X139700000Y-31000000D02*
G75*
G02*
X140400000Y-31700000I0J-700000D01*
G01*
X140400000Y-32300000D02*
G75*
G02*
X139700000Y-33000000I-700000J0D01*
G01*
%TO.C,JP6*%
X111500000Y-66159439D02*
X111500000Y-63359439D01*
X112200000Y-62709439D02*
X112800000Y-62709439D01*
X112800000Y-66809439D02*
X112200000Y-66809439D01*
X113500000Y-63359439D02*
X113500000Y-66159439D01*
X113700000Y-65959439D02*
X114000000Y-65659439D01*
X113700000Y-65959439D02*
X114000000Y-66259439D01*
X114000000Y-66259439D02*
X114000000Y-65659439D01*
X111500000Y-63409439D02*
G75*
G02*
X112200000Y-62709439I700000J0D01*
G01*
X112200000Y-66809439D02*
G75*
G02*
X111500000Y-66109439I-1J699999D01*
G01*
X112800000Y-62709439D02*
G75*
G02*
X113500000Y-63409439I0J-700000D01*
G01*
X113500000Y-66109439D02*
G75*
G02*
X112800000Y-66809439I-699999J-1D01*
G01*
%TO.C,C6*%
X150282100Y-37225065D02*
X150282100Y-37456735D01*
X151002100Y-37225065D02*
X151002100Y-37456735D01*
%TD*%
M02*
