M48
; DRILL file {KiCad 8.0.2} date 2024-05-14T20:45:38-0500
; FORMAT={-:-/ absolute / inch / decimal}
; #@! TF.CreationDate,2024-05-14T20:45:38-05:00
; #@! TF.GenerationSoftware,Kicad,Pcbnew,8.0.2
; #@! TF.FileFunction,Plated,1,2,PTH
FMAT,2
INCH
; #@! TA.AperFunction,Plated,PTH,ViaDrill
T1C0.0118
; #@! TA.AperFunction,Plated,PTH,ViaDrill
T2C0.0197
; #@! TA.AperFunction,Plated,PTH,ComponentDrill
T3C0.0315
; #@! TA.AperFunction,Plated,PTH,ComponentDrill
T4C0.0354
; #@! TA.AperFunction,Plated,PTH,ComponentDrill
T5C0.0394
; #@! TA.AperFunction,Plated,PTH,ComponentDrill
T6C0.0433
; #@! TA.AperFunction,Plated,PTH,ComponentDrill
T7C0.0512
; #@! TA.AperFunction,Plated,PTH,ComponentDrill
T8C0.0669
%
G90
G05
T1
X4.3504Y-1.6732
X4.6142Y-2.6732
X4.685Y-1.3976
X4.7047Y-2.185
X4.7244Y-1.4567
X4.9213Y-1.7087
X4.937Y-2.0
X5.0Y-1.6299
X5.2362Y-1.874
X5.2598Y-1.1614
X5.2598Y-1.3268
X5.2754Y-1.1002
X5.3228Y-1.5354
X5.3701Y-1.689
X5.378Y-1.8819
X5.5448Y-0.9615
X5.6861Y-1.184
X5.7186Y-1.2598
X5.8171Y-1.6007
X5.8858Y-1.3189
X5.9055Y-1.8898
X6.0172Y-1.8922
T2
X5.9213Y-1.6929
X5.9409Y-1.6575
X5.9409Y-1.7283
X5.9606Y-1.6929
X5.9803Y-1.6575
X5.9803Y-1.7283
X6.0Y-1.6929
T4
X4.3319Y-1.2429
X4.3319Y-1.3429
X4.3319Y-1.4429
X4.3319Y-1.5429
X4.3319Y-1.7929
X4.3319Y-1.8929
X4.3319Y-1.9929
X4.3319Y-2.0929
X4.4319Y-1.2929
X4.4319Y-1.3929
X4.4319Y-1.4929
X4.4319Y-1.5929
X4.4319Y-1.8429
X4.4319Y-1.9429
X4.4319Y-2.0429
X4.4319Y-2.1429
T5
X4.0134Y-0.9449
X4.0134Y-2.8449
X4.1134Y-0.9449
X4.1134Y-2.8449
X4.2134Y-0.9449
X4.2134Y-2.8449
X4.3134Y-0.9449
X4.3134Y-2.8449
X4.4134Y-0.9449
X4.4134Y-2.8449
X4.5134Y-0.9449
X4.5134Y-2.8449
X4.6134Y-2.8449
X4.7134Y-0.9449
X4.7134Y-2.8449
X4.8134Y-0.9449
X4.8732Y-2.8449
X4.9134Y-0.9449
X4.9732Y-2.8449
X5.0134Y-0.9449
X5.0732Y-2.8449
X5.1134Y-0.9449
X5.1732Y-2.8449
X5.2134Y-0.9449
X5.2732Y-2.8449
X5.3134Y-0.9449
X5.3732Y-2.8449
X5.4134Y-0.9449
X5.4732Y-2.8449
X5.5732Y-2.8449
X5.6732Y-2.8449
X5.7732Y-2.8449
T6
X6.0827Y-2.6181
X6.0827Y-2.7953
X6.3386Y-2.6181
X6.3386Y-2.7953
T7
X6.378Y-1.5945
X6.378Y-1.7913
T8
X3.937Y-1.0827
X3.937Y-2.3031
T3
G00X6.0531Y-1.2244
M15
G01X6.0531Y-1.1378
M16
G05
G00X6.128Y-0.9921
M15
G01X6.2146Y-0.9921
M16
G05
G00X6.2992Y-1.2244
M15
G01X6.2992Y-1.1378
M16
G05
M30
