%TF.GenerationSoftware,KiCad,Pcbnew,8.0.2*%
%TF.CreationDate,2024-05-09T00:28:53-05:00*%
%TF.ProjectId,Uno_R4_LCC_Shield,556e6f5f-5234-45f4-9c43-435f53686965,rev?*%
%TF.SameCoordinates,Original*%
%TF.FileFunction,Copper,L2,Bot*%
%TF.FilePolarity,Positive*%
%FSLAX46Y46*%
G04 Gerber Fmt 4.6, Leading zero omitted, Abs format (unit mm)*
G04 Created by KiCad (PCBNEW 8.0.2) date 2024-05-09 00:28:53*
%MOMM*%
%LPD*%
G01*
G04 APERTURE LIST*
%TA.AperFunction,ComponentPad*%
%ADD10O,1.400000X3.600000*%
%TD*%
%TA.AperFunction,ComponentPad*%
%ADD11O,3.600000X1.400000*%
%TD*%
%TA.AperFunction,ComponentPad*%
%ADD12C,1.500000*%
%TD*%
%TA.AperFunction,ComponentPad*%
%ADD13C,2.300000*%
%TD*%
%TA.AperFunction,ComponentPad*%
%ADD14R,2.600000X2.600000*%
%TD*%
%TA.AperFunction,ComponentPad*%
%ADD15C,2.600000*%
%TD*%
%TA.AperFunction,ComponentPad*%
%ADD16C,2.000000*%
%TD*%
%TA.AperFunction,ComponentPad*%
%ADD17R,1.600000X1.600000*%
%TD*%
%TA.AperFunction,ComponentPad*%
%ADD18O,1.600000X1.600000*%
%TD*%
%TA.AperFunction,ViaPad*%
%ADD19C,0.600000*%
%TD*%
%TA.AperFunction,Conductor*%
%ADD20C,0.450000*%
%TD*%
%TA.AperFunction,Conductor*%
%ADD21C,0.200000*%
%TD*%
%TA.AperFunction,Conductor*%
%ADD22C,0.400000*%
%TD*%
G04 APERTURE END LIST*
D10*
%TO.P,J2,A*%
%TO.N,VTRACK*%
X153750000Y-30000000D03*
%TO.P,J2,B*%
%TO.N,GND*%
X160000000Y-30000000D03*
D11*
%TO.P,J2,C*%
X156750000Y-25200000D03*
%TD*%
D12*
%TO.P,J1,1,1*%
%TO.N,/can_h*%
X110030000Y-31570000D03*
%TO.P,J1,2,2*%
%TO.N,/can_l*%
X112570000Y-32840000D03*
%TO.P,J1,3,3*%
%TO.N,GND*%
X110030000Y-34110000D03*
%TO.P,J1,4,4*%
%TO.N,/raw_dcc_n*%
X112570000Y-35380000D03*
%TO.P,J1,5,5*%
%TO.N,/raw_dcc_p*%
X110030000Y-36650000D03*
%TO.P,J1,6,6*%
%TO.N,/can_shield*%
X112570000Y-37920000D03*
%TO.P,J1,7,7*%
%TO.N,/pwr_n*%
X110030000Y-39190000D03*
%TO.P,J1,8,8*%
%TO.N,/pwr_p*%
X112570000Y-40460000D03*
%TO.P,J1,9,1*%
%TO.N,/can_h*%
X110030000Y-45540000D03*
%TO.P,J1,10,2*%
%TO.N,/can_l*%
X112570000Y-46810000D03*
%TO.P,J1,11,3*%
%TO.N,GND*%
X110030000Y-48080000D03*
%TO.P,J1,12,4*%
%TO.N,/raw_dcc_n*%
X112570000Y-49350000D03*
%TO.P,J1,13,5*%
%TO.N,/raw_dcc_p*%
X110030000Y-50620000D03*
%TO.P,J1,14,6*%
%TO.N,/can_shield*%
X112570000Y-51890000D03*
%TO.P,J1,15,7*%
%TO.N,/pwr_n*%
X110030000Y-53160000D03*
%TO.P,J1,16,8*%
%TO.N,/pwr_p*%
X112570000Y-54430000D03*
D13*
%TO.P,J1,M1,SHIELD*%
%TO.N,/can_shield*%
X100000000Y-27500000D03*
%TO.P,J1,M2,SHIELD*%
X100000000Y-58500000D03*
%TD*%
D14*
%TO.P,J3,1,Pin_1*%
%TO.N,/out2_A*%
X162000000Y-40500000D03*
D15*
%TO.P,J3,2,Pin_2*%
%TO.N,/out1_A*%
X162000000Y-45500000D03*
%TD*%
D16*
%TO.P,SW1,1,1*%
%TO.N,GND*%
X161000000Y-71000000D03*
X154500000Y-71000000D03*
%TO.P,SW1,2,2*%
%TO.N,/~{reset}*%
X161000000Y-66500000D03*
X154500000Y-66500000D03*
%TD*%
D17*
%TO.P,A1,1,NC*%
%TO.N,unconnected-(A1-NC-Pad1)*%
X137500000Y-24000000D03*
D18*
%TO.P,A1,2,IOREF*%
%TO.N,IOREF*%
X134960000Y-24000000D03*
%TO.P,A1,3,~{RESET}*%
%TO.N,/~{reset}*%
X132420000Y-24000000D03*
%TO.P,A1,4,3V3*%
%TO.N,+3.3V*%
X129880000Y-24000000D03*
%TO.P,A1,5,+5V*%
%TO.N,+5V*%
X127340000Y-24000000D03*
%TO.P,A1,6,GND*%
%TO.N,GND*%
X124800000Y-24000000D03*
%TO.P,A1,7,GND*%
X122260000Y-24000000D03*
%TO.P,A1,8,VIN*%
%TO.N,VIN*%
X119720000Y-24000000D03*
%TO.P,A1,9,A0*%
%TO.N,/sense_A*%
X114640000Y-24000000D03*
%TO.P,A1,10,A1*%
%TO.N,unconnected-(A1-A1-Pad10)*%
X112100000Y-24000000D03*
%TO.P,A1,11,A2*%
%TO.N,unconnected-(A1-A2-Pad11)*%
X109560000Y-24000000D03*
%TO.P,A1,12,A3*%
%TO.N,unconnected-(A1-A3-Pad12)*%
X107020000Y-24000000D03*
%TO.P,A1,13,SDA/A4*%
%TO.N,unconnected-(A1-SDA{slash}A4-Pad13)*%
X104480000Y-24000000D03*
%TO.P,A1,14,SCL/A5*%
%TO.N,unconnected-(A1-SCL{slash}A5-Pad14)*%
X101940000Y-24000000D03*
%TO.P,A1,15,D0/RX*%
%TO.N,unconnected-(A1-D0{slash}RX-Pad15)*%
X101940000Y-72260000D03*
%TO.P,A1,16,D1/TX*%
%TO.N,unconnected-(A1-D1{slash}TX-Pad16)*%
X104480000Y-72260000D03*
%TO.P,A1,17,D2*%
%TO.N,/dcc_p*%
X107020000Y-72260000D03*
%TO.P,A1,18,D3*%
%TO.N,/pwm_A*%
X109560000Y-72260000D03*
%TO.P,A1,19,D4*%
%TO.N,Net-(A1-D4)*%
X112100000Y-72260000D03*
%TO.P,A1,20,D5*%
%TO.N,Net-(A1-D5)*%
X114640000Y-72260000D03*
%TO.P,A1,21,D6*%
%TO.N,/dir_A*%
X117180000Y-72260000D03*
%TO.P,A1,22,D7*%
%TO.N,/dcc_en_A*%
X119720000Y-72260000D03*
%TO.P,A1,23,D8*%
%TO.N,unconnected-(A1-D8-Pad23)*%
X123780000Y-72260000D03*
%TO.P,A1,24,D9*%
%TO.N,unconnected-(A1-D9-Pad24)*%
X126320000Y-72260000D03*
%TO.P,A1,25,D10*%
%TO.N,Net-(A1-D10)*%
X128860000Y-72260000D03*
%TO.P,A1,26,D11*%
%TO.N,unconnected-(A1-D11-Pad26)*%
X131400000Y-72260000D03*
%TO.P,A1,27,D12*%
%TO.N,unconnected-(A1-D12-Pad27)*%
X133940000Y-72260000D03*
%TO.P,A1,28,D13*%
%TO.N,Net-(A1-D13)*%
X136480000Y-72260000D03*
%TO.P,A1,29,GND*%
%TO.N,GND*%
X139020000Y-72260000D03*
%TO.P,A1,30,AREF*%
%TO.N,unconnected-(A1-AREF-Pad30)*%
X141560000Y-72260000D03*
%TO.P,A1,31,SDA/A4*%
%TO.N,unconnected-(A1-SDA{slash}A4-Pad31)*%
X144100000Y-72260000D03*
%TO.P,A1,32,SCL/A5*%
%TO.N,unconnected-(A1-SCL{slash}A5-Pad32)*%
X146640000Y-72260000D03*
%TD*%
D19*
%TO.N,GND*%
X110500000Y-42500000D03*
X120500000Y-59000000D03*
X130000000Y-54500000D03*
X103000000Y-68500000D03*
X128137551Y-37809544D03*
X145285031Y-55288531D03*
X153000000Y-50500000D03*
X119500000Y-63500000D03*
X151000000Y-44000000D03*
X139066394Y-51086625D03*
X140838848Y-24422728D03*
X143000000Y-49000000D03*
X148000000Y-48500000D03*
X153000000Y-42000000D03*
X135500000Y-43500000D03*
X121188987Y-68429129D03*
X125500000Y-54000000D03*
X131500000Y-51500000D03*
X128155570Y-44897946D03*
X127691349Y-65720062D03*
X121000000Y-64500000D03*
X149500000Y-33500000D03*
X128000000Y-61500000D03*
X146000000Y-48000000D03*
X133500000Y-58500000D03*
X122000000Y-65500000D03*
X108000000Y-70000000D03*
X135000000Y-48000000D03*
X135500000Y-39500000D03*
X121710507Y-71839582D03*
X133994818Y-27944613D03*
X125500000Y-40000000D03*
X145500000Y-44000000D03*
%TO.N,/dir_A*%
X122782000Y-64887800D03*
X140925000Y-52796900D03*
X132600000Y-45760500D03*
%TO.N,IOREF*%
X147755300Y-40657600D03*
X146972000Y-52613200D03*
X150000000Y-48000000D03*
X123000000Y-42000000D03*
X129166000Y-41033600D03*
X109602278Y-66580791D03*
X123485000Y-57985000D03*
X152838000Y-48061800D03*
%TO.N,/dcc_p*%
X121733000Y-62767000D03*
%TO.N,/pwm_A*%
X128263000Y-46046900D03*
X145000000Y-57500000D03*
%TO.N,+5V*%
X119500000Y-55500000D03*
%TO.N,/dcc_en_A*%
X123656000Y-64328600D03*
%TO.N,/raw_dcc_n*%
X119000000Y-35500000D03*
%TO.N,/raw_dcc_p*%
X120000000Y-37000000D03*
%TO.N,/out1_A*%
X145253000Y-32000000D03*
%TO.N,/out2_A*%
X144427000Y-30073000D03*
%TO.N,Net-(U2-Pad12)*%
X133464000Y-45512300D03*
X135914000Y-59307900D03*
%TO.N,Net-(U2-Pad8)*%
X136459000Y-49624300D03*
X129134000Y-66337500D03*
X139065000Y-49624300D03*
X132932000Y-42640800D03*
%TO.N,Net-(U3-Pad6)*%
X139237000Y-59462100D03*
X139016000Y-40376700D03*
%TO.N,Net-(U4-Pad6)*%
X132956000Y-44403000D03*
X130179000Y-52176700D03*
%TO.N,Net-(U6-PH_IN2)*%
X139065000Y-42864100D03*
X147649000Y-45691100D03*
%TO.N,Net-(U6-EN_IN1)*%
X146143000Y-40731500D03*
X147755000Y-43646500D03*
%TD*%
D20*
%TO.N,/~{reset}*%
X164845000Y-22345000D02*
X164845000Y-62655000D01*
X164845000Y-62655000D02*
X161000000Y-66500000D01*
X164555000Y-22055000D02*
X164845000Y-22345000D01*
X132420000Y-24000000D02*
X134365000Y-22055000D01*
X134365000Y-22055000D02*
X164555000Y-22055000D01*
%TO.N,GND*%
X108855000Y-44145000D02*
X110500000Y-42500000D01*
X108855000Y-46905000D02*
X108855000Y-44145000D01*
X110030000Y-48080000D02*
X108855000Y-46905000D01*
D21*
%TO.N,/dir_A*%
X132601000Y-61672000D02*
X130773000Y-63500000D01*
X139512000Y-60070500D02*
X132601000Y-60070500D01*
X117180000Y-71158300D02*
X117180000Y-72260000D01*
X140925000Y-52796900D02*
X140925000Y-58657600D01*
X132601000Y-60070500D02*
X132601000Y-61672000D01*
X123436000Y-63684600D02*
X122782000Y-64338600D01*
X140925000Y-58657600D02*
X139512000Y-60070500D01*
X130773000Y-63500000D02*
X127489600Y-63500000D01*
X122782000Y-64338600D02*
X122782000Y-64887800D01*
X122782000Y-65556400D02*
X117180000Y-71158300D01*
X127489600Y-63500000D02*
X127305000Y-63684600D01*
X127305000Y-63684600D02*
X123436000Y-63684600D01*
X132601000Y-45760900D02*
X132600000Y-45760500D01*
X122782000Y-64887800D02*
X122782000Y-65556400D01*
X132601000Y-60070500D02*
X132601000Y-45760900D01*
D20*
%TO.N,IOREF*%
X129000000Y-40867600D02*
X129000000Y-29960000D01*
X123485000Y-57985000D02*
X123485000Y-46714600D01*
X118405000Y-63095000D02*
X118375000Y-63095000D01*
X118375000Y-63095000D02*
X114889209Y-66580791D01*
X118500000Y-62970000D02*
X118500000Y-63000000D01*
X125849800Y-44349800D02*
X129000000Y-41199600D01*
X129000000Y-41199600D02*
X129000000Y-30000000D01*
X114889209Y-66580791D02*
X109602278Y-66580791D01*
X133735000Y-25225000D02*
X134960000Y-24000000D01*
D22*
X123500000Y-42000000D02*
X125849800Y-44349800D01*
X146972000Y-52613200D02*
X150000000Y-49585200D01*
X150000000Y-48000000D02*
X150000000Y-42902300D01*
D20*
X118500000Y-63000000D02*
X118405000Y-63095000D01*
D22*
X150000000Y-42902300D02*
X147755300Y-40657600D01*
D20*
X123485000Y-57985000D02*
X118500000Y-62970000D01*
X129000000Y-29960000D02*
X133735000Y-25225000D01*
X123485000Y-46714600D02*
X125849800Y-44349800D01*
X152776000Y-48000000D02*
X152838000Y-48061800D01*
X129166000Y-41033600D02*
X129000000Y-40867600D01*
X150000000Y-48000000D02*
X152776000Y-48000000D01*
D22*
X150000000Y-49585200D02*
X150000000Y-48000000D01*
X123000000Y-42000000D02*
X123500000Y-42000000D01*
D21*
%TO.N,/dcc_p*%
X110707107Y-69000000D02*
X107447107Y-72260000D01*
X115500000Y-69000000D02*
X110707107Y-69000000D01*
X121733000Y-62767000D02*
X115500000Y-69000000D01*
X107447107Y-72260000D02*
X107020000Y-72260000D01*
D20*
X107020000Y-72260000D02*
X107623884Y-72260000D01*
D21*
%TO.N,/pwm_A*%
X128263000Y-57737000D02*
X128263000Y-46046900D01*
X111300000Y-74000000D02*
X109560000Y-72260000D01*
X124500000Y-61500000D02*
X128263000Y-57737000D01*
X145000000Y-57500000D02*
X134000000Y-68500000D01*
X120257196Y-74000000D02*
X111300000Y-74000000D01*
X134000000Y-68500000D02*
X125500000Y-68500000D01*
X109560000Y-72260000D02*
X111320000Y-70500000D01*
X122210507Y-71789493D02*
X122210507Y-72046689D01*
X124500000Y-61707107D02*
X124500000Y-61500000D01*
X111320000Y-70500000D02*
X115707107Y-70500000D01*
X115707107Y-70500000D02*
X124500000Y-61707107D01*
X125500000Y-68500000D02*
X122210507Y-71789493D01*
X122210507Y-72046689D02*
X120257196Y-74000000D01*
D22*
%TO.N,+5V*%
X127340000Y-24000000D02*
X121500000Y-29840000D01*
X121500000Y-53500000D02*
X119500000Y-55500000D01*
X121500000Y-29840000D02*
X121500000Y-53500000D01*
D21*
%TO.N,/dcc_en_A*%
X119720000Y-72260000D02*
X119720000Y-71158300D01*
X123656000Y-67222200D02*
X123656000Y-64328600D01*
X119720000Y-71158300D02*
X123656000Y-67222200D01*
D20*
%TO.N,/can_shield*%
X113500000Y-58500000D02*
X113745000Y-58255000D01*
X113745000Y-53065000D02*
X112570000Y-51890000D01*
X100000000Y-58500000D02*
X113500000Y-58500000D01*
X113745000Y-58255000D02*
X113745000Y-53065000D01*
%TO.N,/pwr_p*%
X109679000Y-40460000D02*
X112570000Y-40460000D01*
X108150000Y-41989200D02*
X109679000Y-40460000D01*
X112570000Y-54038300D02*
X110517000Y-51985000D01*
X110517000Y-51985000D02*
X108150000Y-51985000D01*
X112570000Y-54430000D02*
X112570000Y-54038300D01*
X108150000Y-51985000D02*
X108150000Y-41989200D01*
%TO.N,/pwr_n*%
X109505000Y-52635000D02*
X107881000Y-52635000D01*
X107500000Y-52254200D02*
X107500000Y-41720000D01*
X110030000Y-53160000D02*
X109505000Y-52635000D01*
X107881000Y-52635000D02*
X107500000Y-52254200D01*
X107500000Y-41720000D02*
X110030000Y-39190000D01*
%TO.N,/raw_dcc_n*%
X113895000Y-30395000D02*
X119000000Y-35500000D01*
X109543000Y-30395000D02*
X113895000Y-30395000D01*
X109638000Y-35380000D02*
X108855000Y-34596700D01*
X119000000Y-35500000D02*
X119000000Y-42920000D01*
X119000000Y-42920000D02*
X112570000Y-49350000D01*
X112570000Y-35380000D02*
X109638000Y-35380000D01*
X108855000Y-31083300D02*
X109543000Y-30395000D01*
X108855000Y-34596700D02*
X108855000Y-31083300D01*
%TO.N,/raw_dcc_p*%
X114500000Y-29500000D02*
X109010000Y-29500000D01*
X120000000Y-43581700D02*
X120000000Y-37000000D01*
X108000000Y-35680700D02*
X108969000Y-36650000D01*
X108000000Y-30509500D02*
X108000000Y-35680700D01*
X112962000Y-50620000D02*
X120000000Y-43581700D01*
X120000000Y-37000000D02*
X120000000Y-35161500D01*
X110030000Y-50620000D02*
X112962000Y-50620000D01*
X120000000Y-35161500D02*
X120000000Y-35000000D01*
X108969000Y-36650000D02*
X110030000Y-36650000D01*
X120000000Y-35000000D02*
X114500000Y-29500000D01*
X120000000Y-37000000D02*
X120000000Y-35161500D01*
X109010000Y-29500000D02*
X108000000Y-30509500D01*
%TO.N,/can_l*%
X115454000Y-34454100D02*
X115454000Y-43925900D01*
X112570000Y-32840000D02*
X113840000Y-32840000D01*
X115454000Y-43925900D02*
X112570000Y-46810000D01*
X113840000Y-32840000D02*
X115454000Y-34454100D01*
%TO.N,/can_h*%
X110030000Y-45540000D02*
X112921000Y-45540000D01*
X114096000Y-34015000D02*
X112083000Y-34015000D01*
X112083000Y-34015000D02*
X110030000Y-31961700D01*
X114804000Y-43656600D02*
X114804000Y-34723400D01*
X114804000Y-34723400D02*
X114096000Y-34015000D01*
X110030000Y-31961700D02*
X110030000Y-31570000D01*
X112921000Y-45540000D02*
X114804000Y-43656600D01*
%TO.N,/out1_A*%
X145253000Y-32000000D02*
X158753000Y-45500000D01*
X158753000Y-45500000D02*
X162000000Y-45500000D01*
%TO.N,/out2_A*%
X144427000Y-30073000D02*
X154854000Y-40500000D01*
X154854000Y-40500000D02*
X162000000Y-40500000D01*
D21*
%TO.N,Net-(U2-Pad12)*%
X133464000Y-56857600D02*
X135914000Y-59307900D01*
X133464000Y-45512300D02*
X133464000Y-56857600D01*
%TO.N,Net-(U2-Pad8)*%
X141600000Y-52158500D02*
X139065000Y-49624300D01*
X129134000Y-66337500D02*
X129260500Y-66464000D01*
X129260500Y-66464000D02*
X133720000Y-66464000D01*
X136459000Y-46167300D02*
X132932000Y-42640800D01*
X133720000Y-66464000D02*
X141600000Y-58584700D01*
X136459000Y-49624300D02*
X136459000Y-46167300D01*
X141600000Y-58584700D02*
X141600000Y-52158500D01*
%TO.N,Net-(U3-Pad6)*%
X138464000Y-40929000D02*
X139016000Y-40376700D01*
X139237000Y-59462100D02*
X138464000Y-58688900D01*
X138464000Y-58688900D02*
X138464000Y-40929000D01*
%TO.N,Net-(U4-Pad6)*%
X130179000Y-47180500D02*
X132956000Y-44403000D01*
X130179000Y-52176700D02*
X130179000Y-47180500D01*
%TO.N,Net-(U6-PH_IN2)*%
X141892000Y-45691100D02*
X139065000Y-42864100D01*
X147649000Y-45691100D02*
X141892000Y-45691100D01*
%TO.N,Net-(U6-EN_IN1)*%
X146143000Y-40731500D02*
X146143000Y-42034300D01*
X146143000Y-42034300D02*
X147755000Y-43646500D01*
%TD*%
%TA.AperFunction,Conductor*%
%TO.N,GND*%
G36*
X124334075Y-23807007D02*
G01*
X124300000Y-23934174D01*
X124300000Y-24065826D01*
X124334075Y-24192993D01*
X124366988Y-24250000D01*
X122693012Y-24250000D01*
X122725925Y-24192993D01*
X122760000Y-24065826D01*
X122760000Y-23934174D01*
X122725925Y-23807007D01*
X122693012Y-23750000D01*
X124366988Y-23750000D01*
X124334075Y-23807007D01*
G37*
%TD.AperFunction*%
%TA.AperFunction,Conductor*%
G36*
X133755430Y-21850185D02*
G01*
X133801185Y-21902989D01*
X133811129Y-21972147D01*
X133782104Y-22035703D01*
X133776072Y-22042181D01*
X132813040Y-23005210D01*
X132751717Y-23038695D01*
X132689365Y-23036190D01*
X132616132Y-23013976D01*
X132420000Y-22994659D01*
X132223870Y-23013975D01*
X132035266Y-23071188D01*
X131861467Y-23164086D01*
X131861460Y-23164090D01*
X131709116Y-23289116D01*
X131584090Y-23441460D01*
X131584086Y-23441467D01*
X131491188Y-23615266D01*
X131433975Y-23803870D01*
X131414659Y-24000000D01*
X131433975Y-24196129D01*
X131433976Y-24196132D01*
X131485613Y-24366357D01*
X131491188Y-24384733D01*
X131584086Y-24558532D01*
X131584090Y-24558539D01*
X131709116Y-24710883D01*
X131861460Y-24835909D01*
X131861467Y-24835913D01*
X132035266Y-24928811D01*
X132035269Y-24928811D01*
X132035273Y-24928814D01*
X132223868Y-24986024D01*
X132420000Y-25005341D01*
X132616132Y-24986024D01*
X132804727Y-24928814D01*
X132823094Y-24918997D01*
X132899365Y-24878229D01*
X132978538Y-24835910D01*
X133130883Y-24710883D01*
X133255910Y-24558538D01*
X133315893Y-24446317D01*
X133348811Y-24384733D01*
X133348811Y-24384732D01*
X133348814Y-24384727D01*
X133406024Y-24196132D01*
X133425341Y-24000000D01*
X133406024Y-23803868D01*
X133383809Y-23730635D01*
X133383185Y-23660768D01*
X133414786Y-23606960D01*
X134504928Y-22516819D01*
X134566251Y-22483334D01*
X134592609Y-22480500D01*
X164295500Y-22480500D01*
X164362539Y-22500185D01*
X164408294Y-22552989D01*
X164419500Y-22604500D01*
X164419500Y-62427389D01*
X164399815Y-62494428D01*
X164383181Y-62515070D01*
X161551358Y-65346892D01*
X161490035Y-65380377D01*
X161420343Y-65375393D01*
X161418884Y-65374838D01*
X161329944Y-65340383D01*
X161329941Y-65340382D01*
X161329940Y-65340382D01*
X161111243Y-65299500D01*
X160888757Y-65299500D01*
X160670060Y-65340382D01*
X160566821Y-65380377D01*
X160462601Y-65420752D01*
X160462595Y-65420754D01*
X160273439Y-65537874D01*
X160273437Y-65537876D01*
X160109020Y-65687761D01*
X159974943Y-65865308D01*
X159974938Y-65865316D01*
X159875775Y-66064461D01*
X159875769Y-66064476D01*
X159814885Y-66278462D01*
X159814884Y-66278464D01*
X159794357Y-66499999D01*
X159794357Y-66500000D01*
X159814884Y-66721535D01*
X159814885Y-66721537D01*
X159875769Y-66935523D01*
X159875775Y-66935538D01*
X159974938Y-67134683D01*
X159974943Y-67134691D01*
X160109020Y-67312238D01*
X160273437Y-67462123D01*
X160273439Y-67462125D01*
X160462595Y-67579245D01*
X160462596Y-67579245D01*
X160462599Y-67579247D01*
X160670060Y-67659618D01*
X160888757Y-67700500D01*
X160888759Y-67700500D01*
X161111241Y-67700500D01*
X161111243Y-67700500D01*
X161329940Y-67659618D01*
X161537401Y-67579247D01*
X161726562Y-67462124D01*
X161890981Y-67312236D01*
X162025058Y-67134689D01*
X162124229Y-66935528D01*
X162185115Y-66721536D01*
X162205643Y-66500000D01*
X162185115Y-66278464D01*
X162124910Y-66066865D01*
X162125496Y-65996999D01*
X162156493Y-65945253D01*
X164857821Y-63243926D01*
X164919142Y-63210443D01*
X164988834Y-63215427D01*
X165044767Y-63257299D01*
X165069184Y-63322763D01*
X165069500Y-63331609D01*
X165069500Y-74305500D01*
X165049815Y-74372539D01*
X164997011Y-74418294D01*
X164945500Y-74429500D01*
X120552029Y-74429500D01*
X120484990Y-74409815D01*
X120439235Y-74357011D01*
X120429291Y-74287853D01*
X120458316Y-74224297D01*
X120464348Y-74217819D01*
X121436143Y-73246024D01*
X122450967Y-72231200D01*
X122466681Y-72203982D01*
X122490528Y-72162678D01*
X122511007Y-72086251D01*
X122511007Y-71965326D01*
X122530692Y-71898287D01*
X122547320Y-71877650D01*
X122632424Y-71792546D01*
X122693743Y-71759064D01*
X122763435Y-71764048D01*
X122819369Y-71805919D01*
X122843786Y-71871383D01*
X122838763Y-71916225D01*
X122793975Y-72063869D01*
X122774659Y-72260000D01*
X122793975Y-72456129D01*
X122851188Y-72644733D01*
X122944086Y-72818532D01*
X122944090Y-72818539D01*
X123069116Y-72970883D01*
X123221460Y-73095909D01*
X123221467Y-73095913D01*
X123395266Y-73188811D01*
X123395269Y-73188811D01*
X123395273Y-73188814D01*
X123583868Y-73246024D01*
X123780000Y-73265341D01*
X123976132Y-73246024D01*
X124164727Y-73188814D01*
X124164735Y-73188810D01*
X124314039Y-73109005D01*
X124338538Y-73095910D01*
X124490883Y-72970883D01*
X124615910Y-72818538D01*
X124675893Y-72706317D01*
X124708811Y-72644733D01*
X124708812Y-72644731D01*
X124708814Y-72644727D01*
X124766024Y-72456132D01*
X124785341Y-72260000D01*
X125314659Y-72260000D01*
X125333975Y-72456129D01*
X125391188Y-72644733D01*
X125484086Y-72818532D01*
X125484090Y-72818539D01*
X125609116Y-72970883D01*
X125761460Y-73095909D01*
X125761467Y-73095913D01*
X125935266Y-73188811D01*
X125935269Y-73188811D01*
X125935273Y-73188814D01*
X126123868Y-73246024D01*
X126320000Y-73265341D01*
X126516132Y-73246024D01*
X126704727Y-73188814D01*
X126704735Y-73188810D01*
X126854039Y-73109005D01*
X126878538Y-73095910D01*
X127030883Y-72970883D01*
X127155910Y-72818538D01*
X127215893Y-72706317D01*
X127248811Y-72644733D01*
X127248812Y-72644731D01*
X127248814Y-72644727D01*
X127306024Y-72456132D01*
X127325341Y-72260000D01*
X127854659Y-72260000D01*
X127873975Y-72456129D01*
X127931188Y-72644733D01*
X128024086Y-72818532D01*
X128024090Y-72818539D01*
X128149116Y-72970883D01*
X128301460Y-73095909D01*
X128301467Y-73095913D01*
X128475266Y-73188811D01*
X128475269Y-73188811D01*
X128475273Y-73188814D01*
X128663868Y-73246024D01*
X128860000Y-73265341D01*
X129056132Y-73246024D01*
X129244727Y-73188814D01*
X129244735Y-73188810D01*
X129394039Y-73109005D01*
X129418538Y-73095910D01*
X129570883Y-72970883D01*
X129695910Y-72818538D01*
X129755893Y-72706317D01*
X129788811Y-72644733D01*
X129788812Y-72644731D01*
X129788814Y-72644727D01*
X129846024Y-72456132D01*
X129865341Y-72260000D01*
X130394659Y-72260000D01*
X130413975Y-72456129D01*
X130471188Y-72644733D01*
X130564086Y-72818532D01*
X130564090Y-72818539D01*
X130689116Y-72970883D01*
X130841460Y-73095909D01*
X130841467Y-73095913D01*
X131015266Y-73188811D01*
X131015269Y-73188811D01*
X131015273Y-73188814D01*
X131203868Y-73246024D01*
X131400000Y-73265341D01*
X131596132Y-73246024D01*
X131784727Y-73188814D01*
X131784735Y-73188810D01*
X131934039Y-73109005D01*
X131958538Y-73095910D01*
X132110883Y-72970883D01*
X132235910Y-72818538D01*
X132295893Y-72706317D01*
X132328811Y-72644733D01*
X132328812Y-72644731D01*
X132328814Y-72644727D01*
X132386024Y-72456132D01*
X132405341Y-72260000D01*
X132934659Y-72260000D01*
X132953975Y-72456129D01*
X133011188Y-72644733D01*
X133104086Y-72818532D01*
X133104090Y-72818539D01*
X133229116Y-72970883D01*
X133381460Y-73095909D01*
X133381467Y-73095913D01*
X133555266Y-73188811D01*
X133555269Y-73188811D01*
X133555273Y-73188814D01*
X133743868Y-73246024D01*
X133940000Y-73265341D01*
X134136132Y-73246024D01*
X134324727Y-73188814D01*
X134324735Y-73188810D01*
X134474039Y-73109005D01*
X134498538Y-73095910D01*
X134650883Y-72970883D01*
X134775910Y-72818538D01*
X134835893Y-72706317D01*
X134868811Y-72644733D01*
X134868812Y-72644731D01*
X134868814Y-72644727D01*
X134926024Y-72456132D01*
X134945341Y-72260000D01*
X135474659Y-72260000D01*
X135493975Y-72456129D01*
X135551188Y-72644733D01*
X135644086Y-72818532D01*
X135644090Y-72818539D01*
X135769116Y-72970883D01*
X135921460Y-73095909D01*
X135921467Y-73095913D01*
X136095266Y-73188811D01*
X136095269Y-73188811D01*
X136095273Y-73188814D01*
X136283868Y-73246024D01*
X136480000Y-73265341D01*
X136676132Y-73246024D01*
X136864727Y-73188814D01*
X136864735Y-73188810D01*
X137014039Y-73109005D01*
X137038538Y-73095910D01*
X137190883Y-72970883D01*
X137315910Y-72818538D01*
X137375893Y-72706317D01*
X137408811Y-72644733D01*
X137408812Y-72644731D01*
X137408814Y-72644727D01*
X137466024Y-72456132D01*
X137485341Y-72260000D01*
X137466024Y-72063868D01*
X137449683Y-72009999D01*
X137741127Y-72009999D01*
X137741128Y-72010000D01*
X138586988Y-72010000D01*
X138554075Y-72067007D01*
X138520000Y-72194174D01*
X138520000Y-72325826D01*
X138554075Y-72452993D01*
X138586988Y-72510000D01*
X137741128Y-72510000D01*
X137793730Y-72706317D01*
X137793734Y-72706326D01*
X137889865Y-72912482D01*
X138020342Y-73098820D01*
X138181179Y-73259657D01*
X138367517Y-73390134D01*
X138573673Y-73486265D01*
X138573682Y-73486269D01*
X138769999Y-73538872D01*
X138770000Y-73538871D01*
X138770000Y-72693012D01*
X138827007Y-72725925D01*
X138954174Y-72760000D01*
X139085826Y-72760000D01*
X139212993Y-72725925D01*
X139270000Y-72693012D01*
X139270000Y-73538872D01*
X139466317Y-73486269D01*
X139466326Y-73486265D01*
X139672482Y-73390134D01*
X139858820Y-73259657D01*
X140019657Y-73098820D01*
X140150134Y-72912482D01*
X140246265Y-72706326D01*
X140246269Y-72706317D01*
X140298872Y-72510000D01*
X139453012Y-72510000D01*
X139485925Y-72452993D01*
X139520000Y-72325826D01*
X139520000Y-72260000D01*
X140554659Y-72260000D01*
X140573975Y-72456129D01*
X140631188Y-72644733D01*
X140724086Y-72818532D01*
X140724090Y-72818539D01*
X140849116Y-72970883D01*
X141001460Y-73095909D01*
X141001467Y-73095913D01*
X141175266Y-73188811D01*
X141175269Y-73188811D01*
X141175273Y-73188814D01*
X141363868Y-73246024D01*
X141560000Y-73265341D01*
X141756132Y-73246024D01*
X141944727Y-73188814D01*
X141944735Y-73188810D01*
X142094039Y-73109005D01*
X142118538Y-73095910D01*
X142270883Y-72970883D01*
X142395910Y-72818538D01*
X142455893Y-72706317D01*
X142488811Y-72644733D01*
X142488812Y-72644731D01*
X142488814Y-72644727D01*
X142546024Y-72456132D01*
X142565341Y-72260000D01*
X143094659Y-72260000D01*
X143113975Y-72456129D01*
X143171188Y-72644733D01*
X143264086Y-72818532D01*
X143264090Y-72818539D01*
X143389116Y-72970883D01*
X143541460Y-73095909D01*
X143541467Y-73095913D01*
X143715266Y-73188811D01*
X143715269Y-73188811D01*
X143715273Y-73188814D01*
X143903868Y-73246024D01*
X144100000Y-73265341D01*
X144296132Y-73246024D01*
X144484727Y-73188814D01*
X144484735Y-73188810D01*
X144634039Y-73109005D01*
X144658538Y-73095910D01*
X144810883Y-72970883D01*
X144935910Y-72818538D01*
X144995893Y-72706317D01*
X145028811Y-72644733D01*
X145028812Y-72644731D01*
X145028814Y-72644727D01*
X145086024Y-72456132D01*
X145105341Y-72260000D01*
X145634659Y-72260000D01*
X145653975Y-72456129D01*
X145711188Y-72644733D01*
X145804086Y-72818532D01*
X145804090Y-72818539D01*
X145929116Y-72970883D01*
X146081460Y-73095909D01*
X146081467Y-73095913D01*
X146255266Y-73188811D01*
X146255269Y-73188811D01*
X146255273Y-73188814D01*
X146443868Y-73246024D01*
X146640000Y-73265341D01*
X146836132Y-73246024D01*
X147024727Y-73188814D01*
X147024735Y-73188810D01*
X147174039Y-73109005D01*
X147198538Y-73095910D01*
X147350883Y-72970883D01*
X147475910Y-72818538D01*
X147535893Y-72706317D01*
X147568811Y-72644733D01*
X147568812Y-72644731D01*
X147568814Y-72644727D01*
X147626024Y-72456132D01*
X147645341Y-72260000D01*
X147626024Y-72063868D01*
X147568814Y-71875273D01*
X147568811Y-71875269D01*
X147568811Y-71875266D01*
X147475913Y-71701467D01*
X147475909Y-71701460D01*
X147350883Y-71549116D01*
X147198539Y-71424090D01*
X147198532Y-71424086D01*
X147024733Y-71331188D01*
X147024727Y-71331186D01*
X146865132Y-71282773D01*
X146836129Y-71273975D01*
X146640000Y-71254659D01*
X146443870Y-71273975D01*
X146255266Y-71331188D01*
X146081467Y-71424086D01*
X146081460Y-71424090D01*
X145929116Y-71549116D01*
X145804090Y-71701460D01*
X145804086Y-71701467D01*
X145711188Y-71875266D01*
X145653975Y-72063870D01*
X145634659Y-72260000D01*
X145105341Y-72260000D01*
X145086024Y-72063868D01*
X145028814Y-71875273D01*
X145028811Y-71875269D01*
X145028811Y-71875266D01*
X144935913Y-71701467D01*
X144935909Y-71701460D01*
X144810883Y-71549116D01*
X144658539Y-71424090D01*
X144658532Y-71424086D01*
X144484733Y-71331188D01*
X144484727Y-71331186D01*
X144325132Y-71282773D01*
X144296129Y-71273975D01*
X144100000Y-71254659D01*
X143903870Y-71273975D01*
X143715266Y-71331188D01*
X143541467Y-71424086D01*
X143541460Y-71424090D01*
X143389116Y-71549116D01*
X143264090Y-71701460D01*
X143264086Y-71701467D01*
X143171188Y-71875266D01*
X143113975Y-72063870D01*
X143094659Y-72260000D01*
X142565341Y-72260000D01*
X142546024Y-72063868D01*
X142488814Y-71875273D01*
X142488811Y-71875269D01*
X142488811Y-71875266D01*
X142395913Y-71701467D01*
X142395909Y-71701460D01*
X142270883Y-71549116D01*
X142118539Y-71424090D01*
X142118532Y-71424086D01*
X141944733Y-71331188D01*
X141944727Y-71331186D01*
X141785132Y-71282773D01*
X141756129Y-71273975D01*
X141560000Y-71254659D01*
X141363870Y-71273975D01*
X141175266Y-71331188D01*
X141001467Y-71424086D01*
X141001460Y-71424090D01*
X140849116Y-71549116D01*
X140724090Y-71701460D01*
X140724086Y-71701467D01*
X140631188Y-71875266D01*
X140573975Y-72063870D01*
X140554659Y-72260000D01*
X139520000Y-72260000D01*
X139520000Y-72194174D01*
X139485925Y-72067007D01*
X139453012Y-72010000D01*
X140298872Y-72010000D01*
X140298872Y-72009999D01*
X140246269Y-71813682D01*
X140246265Y-71813673D01*
X140150134Y-71607517D01*
X140019657Y-71421179D01*
X139858820Y-71260342D01*
X139672482Y-71129865D01*
X139466328Y-71033734D01*
X139340411Y-70999994D01*
X152994859Y-70999994D01*
X152994859Y-71000005D01*
X153015385Y-71247729D01*
X153015387Y-71247738D01*
X153076412Y-71488717D01*
X153176266Y-71716364D01*
X153276564Y-71869882D01*
X153976212Y-71170234D01*
X153987482Y-71212292D01*
X154059890Y-71337708D01*
X154162292Y-71440110D01*
X154287708Y-71512518D01*
X154329765Y-71523787D01*
X153629942Y-72223609D01*
X153676768Y-72260055D01*
X153676770Y-72260056D01*
X153895385Y-72378364D01*
X153895396Y-72378369D01*
X154130506Y-72459083D01*
X154375707Y-72500000D01*
X154624293Y-72500000D01*
X154869493Y-72459083D01*
X155104603Y-72378369D01*
X155104614Y-72378364D01*
X155323228Y-72260057D01*
X155323231Y-72260055D01*
X155370056Y-72223609D01*
X154670234Y-71523787D01*
X154712292Y-71512518D01*
X154837708Y-71440110D01*
X154940110Y-71337708D01*
X155012518Y-71212292D01*
X155023787Y-71170235D01*
X155723434Y-71869882D01*
X155823731Y-71716369D01*
X155923587Y-71488717D01*
X155984612Y-71247738D01*
X155984614Y-71247729D01*
X156005141Y-71000005D01*
X156005141Y-70999994D01*
X159494859Y-70999994D01*
X159494859Y-71000005D01*
X159515385Y-71247729D01*
X159515387Y-71247738D01*
X159576412Y-71488717D01*
X159676266Y-71716364D01*
X159776564Y-71869882D01*
X160476212Y-71170234D01*
X160487482Y-71212292D01*
X160559890Y-71337708D01*
X160662292Y-71440110D01*
X160787708Y-71512518D01*
X160829765Y-71523787D01*
X160129942Y-72223609D01*
X160176768Y-72260055D01*
X160176770Y-72260056D01*
X160395385Y-72378364D01*
X160395396Y-72378369D01*
X160630506Y-72459083D01*
X160875707Y-72500000D01*
X161124293Y-72500000D01*
X161369493Y-72459083D01*
X161604603Y-72378369D01*
X161604614Y-72378364D01*
X161823228Y-72260057D01*
X161823231Y-72260055D01*
X161870056Y-72223609D01*
X161170234Y-71523787D01*
X161212292Y-71512518D01*
X161337708Y-71440110D01*
X161440110Y-71337708D01*
X161512518Y-71212292D01*
X161523787Y-71170235D01*
X162223434Y-71869882D01*
X162323731Y-71716369D01*
X162423587Y-71488717D01*
X162484612Y-71247738D01*
X162484614Y-71247729D01*
X162505141Y-71000005D01*
X162505141Y-70999994D01*
X162484614Y-70752270D01*
X162484612Y-70752261D01*
X162423587Y-70511282D01*
X162323731Y-70283630D01*
X162223434Y-70130116D01*
X161523787Y-70829764D01*
X161512518Y-70787708D01*
X161440110Y-70662292D01*
X161337708Y-70559890D01*
X161212292Y-70487482D01*
X161170235Y-70476212D01*
X161870057Y-69776390D01*
X161870056Y-69776389D01*
X161823229Y-69739943D01*
X161604614Y-69621635D01*
X161604603Y-69621630D01*
X161369493Y-69540916D01*
X161124293Y-69500000D01*
X160875707Y-69500000D01*
X160630506Y-69540916D01*
X160395396Y-69621630D01*
X160395390Y-69621632D01*
X160176761Y-69739949D01*
X160129942Y-69776388D01*
X160129942Y-69776390D01*
X160829765Y-70476212D01*
X160787708Y-70487482D01*
X160662292Y-70559890D01*
X160559890Y-70662292D01*
X160487482Y-70787708D01*
X160476212Y-70829764D01*
X159776564Y-70130116D01*
X159676267Y-70283632D01*
X159576412Y-70511282D01*
X159515387Y-70752261D01*
X159515385Y-70752270D01*
X159494859Y-70999994D01*
X156005141Y-70999994D01*
X155984614Y-70752270D01*
X155984612Y-70752261D01*
X155923587Y-70511282D01*
X155823731Y-70283630D01*
X155723434Y-70130116D01*
X155023787Y-70829764D01*
X155012518Y-70787708D01*
X154940110Y-70662292D01*
X154837708Y-70559890D01*
X154712292Y-70487482D01*
X154670235Y-70476212D01*
X155370057Y-69776390D01*
X155370056Y-69776389D01*
X155323229Y-69739943D01*
X155104614Y-69621635D01*
X155104603Y-69621630D01*
X154869493Y-69540916D01*
X154624293Y-69500000D01*
X154375707Y-69500000D01*
X154130506Y-69540916D01*
X153895396Y-69621630D01*
X153895390Y-69621632D01*
X153676761Y-69739949D01*
X153629942Y-69776388D01*
X153629942Y-69776390D01*
X154329765Y-70476212D01*
X154287708Y-70487482D01*
X154162292Y-70559890D01*
X154059890Y-70662292D01*
X153987482Y-70787708D01*
X153976212Y-70829764D01*
X153276564Y-70130116D01*
X153176267Y-70283632D01*
X153076412Y-70511282D01*
X153015387Y-70752261D01*
X153015385Y-70752270D01*
X152994859Y-70999994D01*
X139340411Y-70999994D01*
X139270000Y-70981127D01*
X139270000Y-71826988D01*
X139212993Y-71794075D01*
X139085826Y-71760000D01*
X138954174Y-71760000D01*
X138827007Y-71794075D01*
X138770000Y-71826988D01*
X138770000Y-70981127D01*
X138573671Y-71033734D01*
X138367517Y-71129865D01*
X138181179Y-71260342D01*
X138020342Y-71421179D01*
X137889865Y-71607517D01*
X137793734Y-71813673D01*
X137793730Y-71813682D01*
X137741127Y-72009999D01*
X137449683Y-72009999D01*
X137408814Y-71875273D01*
X137408811Y-71875269D01*
X137408811Y-71875266D01*
X137315913Y-71701467D01*
X137315909Y-71701460D01*
X137190883Y-71549116D01*
X137038539Y-71424090D01*
X137038532Y-71424086D01*
X136864733Y-71331188D01*
X136864727Y-71331186D01*
X136705132Y-71282773D01*
X136676129Y-71273975D01*
X136480000Y-71254659D01*
X136283870Y-71273975D01*
X136095266Y-71331188D01*
X135921467Y-71424086D01*
X135921460Y-71424090D01*
X135769116Y-71549116D01*
X135644090Y-71701460D01*
X135644086Y-71701467D01*
X135551188Y-71875266D01*
X135493975Y-72063870D01*
X135474659Y-72260000D01*
X134945341Y-72260000D01*
X134926024Y-72063868D01*
X134868814Y-71875273D01*
X134868811Y-71875269D01*
X134868811Y-71875266D01*
X134775913Y-71701467D01*
X134775909Y-71701460D01*
X134650883Y-71549116D01*
X134498539Y-71424090D01*
X134498532Y-71424086D01*
X134324733Y-71331188D01*
X134324727Y-71331186D01*
X134165132Y-71282773D01*
X134136129Y-71273975D01*
X133940000Y-71254659D01*
X133743870Y-71273975D01*
X133555266Y-71331188D01*
X133381467Y-71424086D01*
X133381460Y-71424090D01*
X133229116Y-71549116D01*
X133104090Y-71701460D01*
X133104086Y-71701467D01*
X133011188Y-71875266D01*
X132953975Y-72063870D01*
X132934659Y-72260000D01*
X132405341Y-72260000D01*
X132386024Y-72063868D01*
X132328814Y-71875273D01*
X132328811Y-71875269D01*
X132328811Y-71875266D01*
X132235913Y-71701467D01*
X132235909Y-71701460D01*
X132110883Y-71549116D01*
X131958539Y-71424090D01*
X131958532Y-71424086D01*
X131784733Y-71331188D01*
X131784727Y-71331186D01*
X131625132Y-71282773D01*
X131596129Y-71273975D01*
X131400000Y-71254659D01*
X131203870Y-71273975D01*
X131015266Y-71331188D01*
X130841467Y-71424086D01*
X130841460Y-71424090D01*
X130689116Y-71549116D01*
X130564090Y-71701460D01*
X130564086Y-71701467D01*
X130471188Y-71875266D01*
X130413975Y-72063870D01*
X130394659Y-72260000D01*
X129865341Y-72260000D01*
X129846024Y-72063868D01*
X129788814Y-71875273D01*
X129788811Y-71875269D01*
X129788811Y-71875266D01*
X129695913Y-71701467D01*
X129695909Y-71701460D01*
X129570883Y-71549116D01*
X129418539Y-71424090D01*
X129418532Y-71424086D01*
X129244733Y-71331188D01*
X129244727Y-71331186D01*
X129085132Y-71282773D01*
X129056129Y-71273975D01*
X128860000Y-71254659D01*
X128663870Y-71273975D01*
X128475266Y-71331188D01*
X128301467Y-71424086D01*
X128301460Y-71424090D01*
X128149116Y-71549116D01*
X128024090Y-71701460D01*
X128024086Y-71701467D01*
X127931188Y-71875266D01*
X127873975Y-72063870D01*
X127854659Y-72260000D01*
X127325341Y-72260000D01*
X127306024Y-72063868D01*
X127248814Y-71875273D01*
X127248811Y-71875269D01*
X127248811Y-71875266D01*
X127155913Y-71701467D01*
X127155909Y-71701460D01*
X127030883Y-71549116D01*
X126878539Y-71424090D01*
X126878532Y-71424086D01*
X126704733Y-71331188D01*
X126704727Y-71331186D01*
X126545132Y-71282773D01*
X126516129Y-71273975D01*
X126320000Y-71254659D01*
X126123870Y-71273975D01*
X125935266Y-71331188D01*
X125761467Y-71424086D01*
X125761460Y-71424090D01*
X125609116Y-71549116D01*
X125484090Y-71701460D01*
X125484086Y-71701467D01*
X125391188Y-71875266D01*
X125333975Y-72063870D01*
X125314659Y-72260000D01*
X124785341Y-72260000D01*
X124766024Y-72063868D01*
X124708814Y-71875273D01*
X124708811Y-71875269D01*
X124708811Y-71875266D01*
X124615913Y-71701467D01*
X124615909Y-71701460D01*
X124490883Y-71549116D01*
X124338539Y-71424090D01*
X124338532Y-71424086D01*
X124164733Y-71331188D01*
X124164727Y-71331186D01*
X124005132Y-71282773D01*
X123976129Y-71273975D01*
X123780000Y-71254659D01*
X123583869Y-71273975D01*
X123436225Y-71318763D01*
X123366358Y-71319386D01*
X123307245Y-71282138D01*
X123277655Y-71218844D01*
X123286980Y-71149599D01*
X123312546Y-71112424D01*
X125588152Y-68836819D01*
X125649475Y-68803334D01*
X125675833Y-68800500D01*
X134039560Y-68800500D01*
X134039562Y-68800500D01*
X134115989Y-68780021D01*
X134184511Y-68740460D01*
X134240460Y-68684511D01*
X136424972Y-66499999D01*
X153294357Y-66499999D01*
X153294357Y-66500000D01*
X153314884Y-66721535D01*
X153314885Y-66721537D01*
X153375769Y-66935523D01*
X153375775Y-66935538D01*
X153474938Y-67134683D01*
X153474943Y-67134691D01*
X153609020Y-67312238D01*
X153773437Y-67462123D01*
X153773439Y-67462125D01*
X153962595Y-67579245D01*
X153962596Y-67579245D01*
X153962599Y-67579247D01*
X154170060Y-67659618D01*
X154388757Y-67700500D01*
X154388759Y-67700500D01*
X154611241Y-67700500D01*
X154611243Y-67700500D01*
X154829940Y-67659618D01*
X155037401Y-67579247D01*
X155226562Y-67462124D01*
X155390981Y-67312236D01*
X155525058Y-67134689D01*
X155624229Y-66935528D01*
X155685115Y-66721536D01*
X155705643Y-66500000D01*
X155685115Y-66278464D01*
X155624229Y-66064472D01*
X155624058Y-66064128D01*
X155525061Y-65865316D01*
X155525056Y-65865308D01*
X155390979Y-65687761D01*
X155226562Y-65537876D01*
X155226560Y-65537874D01*
X155037404Y-65420754D01*
X155037398Y-65420752D01*
X154829940Y-65340382D01*
X154611243Y-65299500D01*
X154388757Y-65299500D01*
X154170060Y-65340382D01*
X154066821Y-65380377D01*
X153962601Y-65420752D01*
X153962595Y-65420754D01*
X153773439Y-65537874D01*
X153773437Y-65537876D01*
X153609020Y-65687761D01*
X153474943Y-65865308D01*
X153474938Y-65865316D01*
X153375775Y-66064461D01*
X153375769Y-66064476D01*
X153314885Y-66278462D01*
X153314884Y-66278464D01*
X153294357Y-66499999D01*
X136424972Y-66499999D01*
X144888151Y-58036818D01*
X144949474Y-58003334D01*
X144975832Y-58000500D01*
X145071962Y-58000500D01*
X145071962Y-58000499D01*
X145210053Y-57959953D01*
X145331128Y-57882143D01*
X145425377Y-57773373D01*
X145485165Y-57642457D01*
X145505647Y-57500000D01*
X145485165Y-57357543D01*
X145425377Y-57226627D01*
X145331128Y-57117857D01*
X145210053Y-57040047D01*
X145210051Y-57040046D01*
X145210049Y-57040045D01*
X145210050Y-57040045D01*
X145071963Y-56999500D01*
X145071961Y-56999500D01*
X144928039Y-56999500D01*
X144928036Y-56999500D01*
X144789949Y-57040045D01*
X144668873Y-57117856D01*
X144574623Y-57226626D01*
X144574622Y-57226628D01*
X144514834Y-57357543D01*
X144494353Y-57500000D01*
X144494353Y-57500001D01*
X144495661Y-57509103D01*
X144485713Y-57578261D01*
X144460603Y-57614424D01*
X133911848Y-68163181D01*
X133850525Y-68196666D01*
X133824167Y-68199500D01*
X125460438Y-68199500D01*
X125384010Y-68219978D01*
X125315489Y-68259540D01*
X125315486Y-68259542D01*
X121970048Y-71604980D01*
X121970042Y-71604988D01*
X121930489Y-71673497D01*
X121930486Y-71673502D01*
X121910007Y-71749932D01*
X121910007Y-71870856D01*
X121890322Y-71937895D01*
X121873688Y-71958537D01*
X120169044Y-73663181D01*
X120107721Y-73696666D01*
X120081363Y-73699500D01*
X111475833Y-73699500D01*
X111408794Y-73679815D01*
X111388152Y-73663181D01*
X110512351Y-72787380D01*
X110478866Y-72726057D01*
X110483850Y-72656365D01*
X110486550Y-72650383D01*
X110486483Y-72650355D01*
X110488810Y-72644736D01*
X110488812Y-72644731D01*
X110488814Y-72644727D01*
X110546024Y-72456132D01*
X110565341Y-72260000D01*
X111094659Y-72260000D01*
X111113975Y-72456129D01*
X111171188Y-72644733D01*
X111264086Y-72818532D01*
X111264090Y-72818539D01*
X111389116Y-72970883D01*
X111541460Y-73095909D01*
X111541467Y-73095913D01*
X111715266Y-73188811D01*
X111715269Y-73188811D01*
X111715273Y-73188814D01*
X111903868Y-73246024D01*
X112100000Y-73265341D01*
X112296132Y-73246024D01*
X112484727Y-73188814D01*
X112484735Y-73188810D01*
X112634039Y-73109005D01*
X112658538Y-73095910D01*
X112810883Y-72970883D01*
X112935910Y-72818538D01*
X112995893Y-72706317D01*
X113028811Y-72644733D01*
X113028812Y-72644731D01*
X113028814Y-72644727D01*
X113086024Y-72456132D01*
X113105341Y-72260000D01*
X113634659Y-72260000D01*
X113653975Y-72456129D01*
X113711188Y-72644733D01*
X113804086Y-72818532D01*
X113804090Y-72818539D01*
X113929116Y-72970883D01*
X114081460Y-73095909D01*
X114081467Y-73095913D01*
X114255266Y-73188811D01*
X114255269Y-73188811D01*
X114255273Y-73188814D01*
X114443868Y-73246024D01*
X114640000Y-73265341D01*
X114836132Y-73246024D01*
X115024727Y-73188814D01*
X115024735Y-73188810D01*
X115174039Y-73109005D01*
X115198538Y-73095910D01*
X115350883Y-72970883D01*
X115475910Y-72818538D01*
X115535893Y-72706317D01*
X115568811Y-72644733D01*
X115568812Y-72644731D01*
X115568814Y-72644727D01*
X115626024Y-72456132D01*
X115645341Y-72260000D01*
X115626024Y-72063868D01*
X115568814Y-71875273D01*
X115568811Y-71875269D01*
X115568811Y-71875266D01*
X115475913Y-71701467D01*
X115475909Y-71701460D01*
X115350883Y-71549116D01*
X115198539Y-71424090D01*
X115198532Y-71424086D01*
X115024733Y-71331188D01*
X115024727Y-71331186D01*
X114865132Y-71282773D01*
X114836129Y-71273975D01*
X114640000Y-71254659D01*
X114443870Y-71273975D01*
X114255266Y-71331188D01*
X114081467Y-71424086D01*
X114081460Y-71424090D01*
X113929116Y-71549116D01*
X113804090Y-71701460D01*
X113804086Y-71701467D01*
X113711188Y-71875266D01*
X113653975Y-72063870D01*
X113634659Y-72260000D01*
X113105341Y-72260000D01*
X113086024Y-72063868D01*
X113028814Y-71875273D01*
X113028811Y-71875269D01*
X113028811Y-71875266D01*
X112935913Y-71701467D01*
X112935909Y-71701460D01*
X112810883Y-71549116D01*
X112658539Y-71424090D01*
X112658532Y-71424086D01*
X112484733Y-71331188D01*
X112484727Y-71331186D01*
X112325132Y-71282773D01*
X112296129Y-71273975D01*
X112100000Y-71254659D01*
X111903870Y-71273975D01*
X111715266Y-71331188D01*
X111541467Y-71424086D01*
X111541460Y-71424090D01*
X111389116Y-71549116D01*
X111264090Y-71701460D01*
X111264086Y-71701467D01*
X111171188Y-71875266D01*
X111113975Y-72063870D01*
X111094659Y-72260000D01*
X110565341Y-72260000D01*
X110546024Y-72063868D01*
X110488814Y-71875273D01*
X110488811Y-71875268D01*
X110488809Y-71875260D01*
X110486482Y-71869641D01*
X110488596Y-71868765D01*
X110476431Y-71810358D01*
X110501427Y-71745112D01*
X110512343Y-71732626D01*
X111408152Y-70836819D01*
X111469475Y-70803334D01*
X111495833Y-70800500D01*
X115746667Y-70800500D01*
X115746669Y-70800500D01*
X115823096Y-70780021D01*
X115891618Y-70740460D01*
X115947567Y-70684511D01*
X122155564Y-64476513D01*
X122216885Y-64443030D01*
X122286577Y-64448014D01*
X122342510Y-64489886D01*
X122366927Y-64555350D01*
X122356037Y-64615707D01*
X122296835Y-64745341D01*
X122296834Y-64745342D01*
X122276353Y-64887800D01*
X122296834Y-65030256D01*
X122356622Y-65161171D01*
X122356623Y-65161173D01*
X122450872Y-65269943D01*
X122450875Y-65269944D01*
X122451213Y-65270335D01*
X122480238Y-65333891D01*
X122481500Y-65351538D01*
X122481500Y-65380563D01*
X122461815Y-65447602D01*
X122445180Y-65468245D01*
X116995493Y-70917834D01*
X116995489Y-70917840D01*
X116939541Y-70973787D01*
X116939537Y-70973792D01*
X116906100Y-71031706D01*
X116906101Y-71031707D01*
X116899979Y-71042310D01*
X116899978Y-71042312D01*
X116879500Y-71118734D01*
X116879500Y-71213671D01*
X116859815Y-71280710D01*
X116807011Y-71326465D01*
X116800871Y-71328786D01*
X116800900Y-71328855D01*
X116795269Y-71331187D01*
X116621467Y-71424086D01*
X116621460Y-71424090D01*
X116469116Y-71549116D01*
X116344090Y-71701460D01*
X116344086Y-71701467D01*
X116251188Y-71875266D01*
X116193975Y-72063870D01*
X116174659Y-72260000D01*
X116193975Y-72456129D01*
X116251188Y-72644733D01*
X116344086Y-72818532D01*
X116344090Y-72818539D01*
X116469116Y-72970883D01*
X116621460Y-73095909D01*
X116621467Y-73095913D01*
X116795266Y-73188811D01*
X116795269Y-73188811D01*
X116795273Y-73188814D01*
X116983868Y-73246024D01*
X117180000Y-73265341D01*
X117376132Y-73246024D01*
X117564727Y-73188814D01*
X117564735Y-73188810D01*
X117714039Y-73109005D01*
X117738538Y-73095910D01*
X117890883Y-72970883D01*
X118015910Y-72818538D01*
X118075893Y-72706317D01*
X118108811Y-72644733D01*
X118108812Y-72644731D01*
X118108814Y-72644727D01*
X118166024Y-72456132D01*
X118185341Y-72260000D01*
X118166024Y-72063868D01*
X118108814Y-71875273D01*
X118108811Y-71875269D01*
X118108811Y-71875266D01*
X118015913Y-71701467D01*
X118015909Y-71701460D01*
X117890883Y-71549116D01*
X117738539Y-71424090D01*
X117738532Y-71424086D01*
X117625743Y-71363799D01*
X117575899Y-71314837D01*
X117560438Y-71246699D01*
X117584270Y-71181020D01*
X117596516Y-71166759D01*
X117789487Y-70973792D01*
X123022459Y-65740913D01*
X123062021Y-65672390D01*
X123082500Y-65595964D01*
X123082500Y-65516841D01*
X123082500Y-65351538D01*
X123102185Y-65284499D01*
X123112788Y-65270334D01*
X123113125Y-65269944D01*
X123113128Y-65269943D01*
X123137789Y-65241482D01*
X123196566Y-65203710D01*
X123266436Y-65203710D01*
X123325214Y-65241485D01*
X123354238Y-65305041D01*
X123355500Y-65322687D01*
X123355500Y-67046368D01*
X123335815Y-67113407D01*
X123319182Y-67134048D01*
X119535490Y-70917839D01*
X119535489Y-70917840D01*
X119478368Y-70974960D01*
X119475475Y-70980827D01*
X119439978Y-71042312D01*
X119439975Y-71042319D01*
X119430472Y-71077783D01*
X119430473Y-71077784D01*
X119419500Y-71118734D01*
X119419500Y-71213671D01*
X119399815Y-71280710D01*
X119347011Y-71326465D01*
X119340871Y-71328786D01*
X119340900Y-71328855D01*
X119335269Y-71331187D01*
X119161467Y-71424086D01*
X119161460Y-71424090D01*
X119009116Y-71549116D01*
X118884090Y-71701460D01*
X118884086Y-71701467D01*
X118791188Y-71875266D01*
X118733975Y-72063870D01*
X118714659Y-72260000D01*
X118733975Y-72456129D01*
X118791188Y-72644733D01*
X118884086Y-72818532D01*
X118884090Y-72818539D01*
X119009116Y-72970883D01*
X119161460Y-73095909D01*
X119161467Y-73095913D01*
X119335266Y-73188811D01*
X119335269Y-73188811D01*
X119335273Y-73188814D01*
X119523868Y-73246024D01*
X119720000Y-73265341D01*
X119916132Y-73246024D01*
X120104727Y-73188814D01*
X120104735Y-73188810D01*
X120254039Y-73109005D01*
X120278538Y-73095910D01*
X120430883Y-72970883D01*
X120555910Y-72818538D01*
X120615893Y-72706317D01*
X120648811Y-72644733D01*
X120648812Y-72644731D01*
X120648814Y-72644727D01*
X120706024Y-72456132D01*
X120725341Y-72260000D01*
X120706024Y-72063868D01*
X120648814Y-71875273D01*
X120648811Y-71875269D01*
X120648811Y-71875266D01*
X120555913Y-71701467D01*
X120555909Y-71701460D01*
X120430883Y-71549116D01*
X120278539Y-71424090D01*
X120278536Y-71424088D01*
X120165736Y-71363795D01*
X120115892Y-71314832D01*
X120100432Y-71246695D01*
X120124264Y-71181015D01*
X120136501Y-71166764D01*
X123857325Y-67445845D01*
X123896460Y-67406711D01*
X123934047Y-67341607D01*
X123935907Y-67338613D01*
X123936021Y-67338188D01*
X123936023Y-67338185D01*
X123946120Y-67300500D01*
X123956500Y-67261762D01*
X123956500Y-64792338D01*
X123976185Y-64725299D01*
X123986787Y-64711135D01*
X123987124Y-64710744D01*
X123987128Y-64710743D01*
X124081377Y-64601973D01*
X124141165Y-64471057D01*
X124161647Y-64328600D01*
X124141165Y-64186143D01*
X124129504Y-64160611D01*
X124119561Y-64091454D01*
X124148585Y-64027898D01*
X124207363Y-63990123D01*
X124242299Y-63985100D01*
X127344560Y-63985100D01*
X127344562Y-63985100D01*
X127420989Y-63964621D01*
X127489511Y-63925060D01*
X127545460Y-63869111D01*
X127577752Y-63836819D01*
X127639075Y-63803334D01*
X127665433Y-63800500D01*
X130812560Y-63800500D01*
X130812562Y-63800500D01*
X130888989Y-63780021D01*
X130957511Y-63740460D01*
X131013460Y-63684511D01*
X132841460Y-61856511D01*
X132860752Y-61823096D01*
X132881021Y-61787989D01*
X132901500Y-61711562D01*
X132901500Y-60495000D01*
X132921185Y-60427961D01*
X132973989Y-60382206D01*
X133025500Y-60371000D01*
X139089171Y-60371000D01*
X139156210Y-60390685D01*
X139201965Y-60443489D01*
X139211909Y-60512647D01*
X139182884Y-60576203D01*
X139176848Y-60582685D01*
X133631854Y-66127185D01*
X133570530Y-66160667D01*
X133544177Y-66163500D01*
X129684449Y-66163500D01*
X129617410Y-66143815D01*
X129571655Y-66091011D01*
X129559379Y-66064130D01*
X129559376Y-66064126D01*
X129465128Y-65955357D01*
X129344053Y-65877547D01*
X129344051Y-65877546D01*
X129344049Y-65877545D01*
X129344050Y-65877545D01*
X129205963Y-65837000D01*
X129205961Y-65837000D01*
X129062039Y-65837000D01*
X129062036Y-65837000D01*
X128923949Y-65877545D01*
X128802873Y-65955356D01*
X128708623Y-66064126D01*
X128708622Y-66064128D01*
X128648834Y-66195043D01*
X128628353Y-66337500D01*
X128648834Y-66479956D01*
X128657988Y-66499999D01*
X128708623Y-66610873D01*
X128802872Y-66719643D01*
X128923947Y-66797453D01*
X128923950Y-66797454D01*
X128923949Y-66797454D01*
X129062036Y-66837999D01*
X129062038Y-66838000D01*
X129062039Y-66838000D01*
X129205962Y-66838000D01*
X129205962Y-66837999D01*
X129266298Y-66820283D01*
X129344048Y-66797455D01*
X129344049Y-66797454D01*
X129344053Y-66797453D01*
X129364700Y-66784183D01*
X129431738Y-66764500D01*
X133719986Y-66764500D01*
X133719987Y-66764500D01*
X133759549Y-66764502D01*
X133759552Y-66764500D01*
X133759559Y-66764501D01*
X133759602Y-66764495D01*
X133760335Y-66764292D01*
X133787892Y-66756908D01*
X133832218Y-66745033D01*
X133835698Y-66744220D01*
X133835784Y-66744185D01*
X133837764Y-66742996D01*
X133872146Y-66723146D01*
X133901319Y-66706304D01*
X133904571Y-66704554D01*
X133907310Y-66701975D01*
X133908087Y-66701285D01*
X133910711Y-66698259D01*
X133943421Y-66665550D01*
X141775602Y-58834064D01*
X141775623Y-58834048D01*
X141806721Y-58802949D01*
X141806729Y-58802941D01*
X141834240Y-58775433D01*
X141837275Y-58772801D01*
X141837964Y-58772024D01*
X141840546Y-58769282D01*
X141842286Y-58766047D01*
X141859976Y-58735408D01*
X141875336Y-58708805D01*
X141877569Y-58705536D01*
X141878455Y-58703785D01*
X141880253Y-58700461D01*
X141881059Y-58697827D01*
X141881937Y-58693536D01*
X141893201Y-58651503D01*
X141900293Y-58625039D01*
X141900496Y-58624306D01*
X141900500Y-58624279D01*
X141900500Y-58584714D01*
X141900500Y-58584712D01*
X141900502Y-58545151D01*
X141900500Y-58545146D01*
X141900501Y-58537569D01*
X141900500Y-58537535D01*
X141900500Y-52613200D01*
X146466353Y-52613200D01*
X146486834Y-52755656D01*
X146527682Y-52845098D01*
X146546623Y-52886573D01*
X146640872Y-52995343D01*
X146761947Y-53073153D01*
X146761950Y-53073154D01*
X146761949Y-53073154D01*
X146900036Y-53113699D01*
X146900038Y-53113700D01*
X146900039Y-53113700D01*
X147043962Y-53113700D01*
X147043962Y-53113699D01*
X147182053Y-53073153D01*
X147303128Y-52995343D01*
X147397377Y-52886573D01*
X147457165Y-52755657D01*
X147461573Y-52724997D01*
X147490597Y-52661441D01*
X147496616Y-52654975D01*
X150235703Y-49915887D01*
X150235708Y-49915884D01*
X150245911Y-49905680D01*
X150245913Y-49905680D01*
X150320480Y-49831113D01*
X150373207Y-49739787D01*
X150373792Y-49737604D01*
X150400501Y-49637927D01*
X150400501Y-49532473D01*
X150400501Y-49524878D01*
X150400500Y-49524860D01*
X150400500Y-48549500D01*
X150420185Y-48482461D01*
X150472989Y-48436706D01*
X150524500Y-48425500D01*
X152441764Y-48425500D01*
X152508803Y-48445184D01*
X152627947Y-48521753D01*
X152627950Y-48521754D01*
X152627949Y-48521754D01*
X152766036Y-48562299D01*
X152766038Y-48562300D01*
X152766039Y-48562300D01*
X152909962Y-48562300D01*
X152909962Y-48562299D01*
X153048053Y-48521753D01*
X153169128Y-48443943D01*
X153263377Y-48335173D01*
X153323165Y-48204257D01*
X153343647Y-48061800D01*
X153323165Y-47919343D01*
X153263377Y-47788427D01*
X153169128Y-47679657D01*
X153048053Y-47601847D01*
X153048051Y-47601846D01*
X153048049Y-47601845D01*
X153048050Y-47601845D01*
X152909963Y-47561300D01*
X152909961Y-47561300D01*
X152766039Y-47561300D01*
X152766038Y-47561300D01*
X152738190Y-47569477D01*
X152703255Y-47574500D01*
X150524500Y-47574500D01*
X150457461Y-47554815D01*
X150411706Y-47502011D01*
X150400500Y-47450500D01*
X150400500Y-42849575D01*
X150400500Y-42849573D01*
X150373207Y-42747713D01*
X150373207Y-42747712D01*
X150320480Y-42656387D01*
X148279929Y-40615836D01*
X148246444Y-40554513D01*
X148244872Y-40545798D01*
X148240465Y-40515146D01*
X148240464Y-40515140D01*
X148180677Y-40384228D01*
X148180676Y-40384226D01*
X148150461Y-40349356D01*
X148086428Y-40275457D01*
X147965353Y-40197647D01*
X147965351Y-40197646D01*
X147965349Y-40197645D01*
X147965350Y-40197645D01*
X147827263Y-40157100D01*
X147827261Y-40157100D01*
X147683339Y-40157100D01*
X147683336Y-40157100D01*
X147545249Y-40197645D01*
X147424173Y-40275456D01*
X147329923Y-40384226D01*
X147329922Y-40384228D01*
X147270134Y-40515143D01*
X147249653Y-40657600D01*
X147270134Y-40800056D01*
X147327568Y-40925816D01*
X147329923Y-40930973D01*
X147424172Y-41039743D01*
X147545247Y-41117553D01*
X147545250Y-41117554D01*
X147545249Y-41117554D01*
X147661562Y-41151706D01*
X147714309Y-41183002D01*
X149563181Y-43031874D01*
X149596666Y-43093197D01*
X149599500Y-43119555D01*
X149599500Y-47651667D01*
X149579815Y-47718706D01*
X149579094Y-47719669D01*
X149574622Y-47726628D01*
X149514834Y-47857543D01*
X149494353Y-48000000D01*
X149514834Y-48142456D01*
X149543058Y-48204256D01*
X149574623Y-48273373D01*
X149574627Y-48273378D01*
X149579418Y-48280833D01*
X149576364Y-48282795D01*
X149598235Y-48330663D01*
X149599500Y-48348332D01*
X149599500Y-49367945D01*
X149579815Y-49434984D01*
X149563181Y-49455626D01*
X146931009Y-52087797D01*
X146878263Y-52119093D01*
X146761949Y-52153245D01*
X146640873Y-52231056D01*
X146546623Y-52339826D01*
X146546622Y-52339828D01*
X146486834Y-52470743D01*
X146466353Y-52613200D01*
X141900500Y-52613200D01*
X141900500Y-52206319D01*
X141900506Y-52206214D01*
X141900504Y-52198018D01*
X141900506Y-52198015D01*
X141900500Y-52158453D01*
X141900500Y-52118938D01*
X141900500Y-52118933D01*
X141900496Y-52118903D01*
X141900494Y-52118894D01*
X141900494Y-52118891D01*
X141889083Y-52076331D01*
X141889082Y-52076327D01*
X141889079Y-52076314D01*
X141880579Y-52044593D01*
X141880069Y-52042536D01*
X141880062Y-52042517D01*
X141879172Y-52041029D01*
X141860551Y-52008787D01*
X141860542Y-52008772D01*
X141840461Y-51973990D01*
X141840430Y-51973950D01*
X141840421Y-51973941D01*
X141811924Y-51945453D01*
X141784511Y-51918040D01*
X141778721Y-51912250D01*
X141778634Y-51912173D01*
X140299659Y-50433666D01*
X139604420Y-49738647D01*
X139570927Y-49677331D01*
X139569352Y-49633304D01*
X139570647Y-49624300D01*
X139550165Y-49481843D01*
X139490377Y-49350927D01*
X139396128Y-49242157D01*
X139275053Y-49164347D01*
X139275051Y-49164346D01*
X139275049Y-49164345D01*
X139275050Y-49164345D01*
X139136963Y-49123800D01*
X139136961Y-49123800D01*
X138993039Y-49123800D01*
X138923433Y-49144237D01*
X138853563Y-49144236D01*
X138794786Y-49106460D01*
X138765762Y-49042904D01*
X138764500Y-49025259D01*
X138764500Y-43463140D01*
X138784185Y-43396101D01*
X138836989Y-43350346D01*
X138906147Y-43340402D01*
X138923434Y-43344163D01*
X138982045Y-43361372D01*
X138990280Y-43363790D01*
X138993036Y-43364599D01*
X138993038Y-43364600D01*
X139089167Y-43364600D01*
X139156206Y-43384285D01*
X139176848Y-43400919D01*
X141707489Y-45931560D01*
X141776012Y-45971122D01*
X141852438Y-45991600D01*
X147190499Y-45991600D01*
X147257538Y-46011285D01*
X147284211Y-46034396D01*
X147317872Y-46073243D01*
X147438947Y-46151053D01*
X147438950Y-46151054D01*
X147438949Y-46151054D01*
X147546107Y-46182517D01*
X147569134Y-46189279D01*
X147577036Y-46191599D01*
X147577038Y-46191600D01*
X147577039Y-46191600D01*
X147720962Y-46191600D01*
X147720962Y-46191599D01*
X147859053Y-46151053D01*
X147980128Y-46073243D01*
X148074377Y-45964473D01*
X148134165Y-45833557D01*
X148154647Y-45691100D01*
X148134165Y-45548643D01*
X148074377Y-45417727D01*
X147980128Y-45308957D01*
X147859053Y-45231147D01*
X147859051Y-45231146D01*
X147859049Y-45231145D01*
X147859050Y-45231145D01*
X147720963Y-45190600D01*
X147720961Y-45190600D01*
X147577039Y-45190600D01*
X147577036Y-45190600D01*
X147438949Y-45231145D01*
X147317873Y-45308956D01*
X147284212Y-45347803D01*
X147225433Y-45385577D01*
X147190499Y-45390600D01*
X142067833Y-45390600D01*
X142000794Y-45370915D01*
X141980152Y-45354281D01*
X139604395Y-42978524D01*
X139570910Y-42917201D01*
X139569339Y-42873194D01*
X139570647Y-42864100D01*
X139550165Y-42721643D01*
X139490377Y-42590727D01*
X139396128Y-42481957D01*
X139275053Y-42404147D01*
X139275051Y-42404146D01*
X139275049Y-42404145D01*
X139275050Y-42404145D01*
X139136963Y-42363600D01*
X139136961Y-42363600D01*
X138993039Y-42363600D01*
X138923433Y-42384037D01*
X138853563Y-42384036D01*
X138794786Y-42346260D01*
X138765762Y-42282704D01*
X138764500Y-42265059D01*
X138764500Y-41104765D01*
X138784185Y-41037726D01*
X138800795Y-41017108D01*
X138813025Y-41004871D01*
X138904303Y-40913542D01*
X138965617Y-40880041D01*
X138992008Y-40877200D01*
X139087962Y-40877200D01*
X139087962Y-40877199D01*
X139226053Y-40836653D01*
X139347128Y-40758843D01*
X139370821Y-40731500D01*
X145637353Y-40731500D01*
X145657834Y-40873956D01*
X145711117Y-40990628D01*
X145717623Y-41004873D01*
X145811872Y-41113643D01*
X145811875Y-41113644D01*
X145812213Y-41114035D01*
X145841238Y-41177591D01*
X145842500Y-41195238D01*
X145842500Y-42042202D01*
X145842497Y-42073858D01*
X145842503Y-42073898D01*
X145842715Y-42074664D01*
X145852592Y-42111526D01*
X145852593Y-42111534D01*
X145852594Y-42111534D01*
X145862971Y-42150274D01*
X145862974Y-42150281D01*
X145879480Y-42178870D01*
X145879484Y-42178877D01*
X145902532Y-42218803D01*
X145926695Y-42242966D01*
X145926699Y-42242973D01*
X145926701Y-42242972D01*
X147215614Y-43532046D01*
X147249095Y-43593371D01*
X147250666Y-43637362D01*
X147249353Y-43646497D01*
X147249353Y-43646499D01*
X147269834Y-43788956D01*
X147321689Y-43902500D01*
X147329623Y-43919873D01*
X147423872Y-44028643D01*
X147544947Y-44106453D01*
X147544950Y-44106454D01*
X147544949Y-44106454D01*
X147683036Y-44146999D01*
X147683038Y-44147000D01*
X147683039Y-44147000D01*
X147826962Y-44147000D01*
X147826962Y-44146999D01*
X147965053Y-44106453D01*
X148086128Y-44028643D01*
X148180377Y-43919873D01*
X148240165Y-43788957D01*
X148260647Y-43646500D01*
X148240165Y-43504043D01*
X148180377Y-43373127D01*
X148086128Y-43264357D01*
X147965053Y-43186547D01*
X147965051Y-43186546D01*
X147965049Y-43186545D01*
X147965050Y-43186545D01*
X147826963Y-43146000D01*
X147826961Y-43146000D01*
X147730875Y-43146000D01*
X147663836Y-43126315D01*
X147643188Y-43109676D01*
X146479813Y-41946156D01*
X146446332Y-41884831D01*
X146443500Y-41858480D01*
X146443500Y-41195238D01*
X146463185Y-41128199D01*
X146473787Y-41114035D01*
X146474124Y-41113644D01*
X146474128Y-41113643D01*
X146568377Y-41004873D01*
X146628165Y-40873957D01*
X146648647Y-40731500D01*
X146628165Y-40589043D01*
X146568377Y-40458127D01*
X146474128Y-40349357D01*
X146353053Y-40271547D01*
X146353051Y-40271546D01*
X146353049Y-40271545D01*
X146353050Y-40271545D01*
X146214963Y-40231000D01*
X146214961Y-40231000D01*
X146071039Y-40231000D01*
X146071036Y-40231000D01*
X145932949Y-40271545D01*
X145811873Y-40349356D01*
X145717623Y-40458126D01*
X145717622Y-40458128D01*
X145657834Y-40589043D01*
X145637353Y-40731500D01*
X139370821Y-40731500D01*
X139441377Y-40650073D01*
X139501165Y-40519157D01*
X139521647Y-40376700D01*
X139501165Y-40234243D01*
X139441377Y-40103327D01*
X139347128Y-39994557D01*
X139226053Y-39916747D01*
X139226051Y-39916746D01*
X139226049Y-39916745D01*
X139226050Y-39916745D01*
X139087963Y-39876200D01*
X139087961Y-39876200D01*
X138944039Y-39876200D01*
X138944036Y-39876200D01*
X138805949Y-39916745D01*
X138684873Y-39994556D01*
X138590623Y-40103326D01*
X138590622Y-40103328D01*
X138530834Y-40234243D01*
X138510353Y-40376700D01*
X138510353Y-40376701D01*
X138511683Y-40385953D01*
X138501738Y-40455111D01*
X138476650Y-40491255D01*
X138321659Y-40646331D01*
X138251145Y-40716883D01*
X138251124Y-40716904D01*
X138223509Y-40744520D01*
X138203721Y-40778816D01*
X138203705Y-40778843D01*
X138183969Y-40813027D01*
X138183950Y-40813074D01*
X138173545Y-40851948D01*
X138173537Y-40851978D01*
X138163499Y-40889439D01*
X138163499Y-40889445D01*
X138163489Y-40889520D01*
X138163500Y-40929082D01*
X138163500Y-58688877D01*
X138163495Y-58728430D01*
X138163498Y-58728455D01*
X138174083Y-58767960D01*
X138174086Y-58767971D01*
X138183969Y-58804872D01*
X138204151Y-58839829D01*
X138204149Y-58839830D01*
X138204158Y-58839841D01*
X138223516Y-58873381D01*
X138223537Y-58873408D01*
X138250492Y-58900363D01*
X138250500Y-58900378D01*
X138250504Y-58900375D01*
X138697626Y-59347613D01*
X138731103Y-59408941D01*
X138732672Y-59452926D01*
X138731353Y-59462100D01*
X138751835Y-59604559D01*
X138753745Y-59611063D01*
X138753747Y-59680933D01*
X138715974Y-59739711D01*
X138652418Y-59768738D01*
X138634769Y-59770000D01*
X136445179Y-59770000D01*
X136378140Y-59750315D01*
X136332385Y-59697511D01*
X136322441Y-59628353D01*
X136336802Y-59589846D01*
X136335693Y-59589340D01*
X136358914Y-59538493D01*
X136399165Y-59450357D01*
X136419647Y-59307900D01*
X136399165Y-59165443D01*
X136339377Y-59034527D01*
X136245128Y-58925757D01*
X136124053Y-58847947D01*
X136124051Y-58847946D01*
X136124049Y-58847945D01*
X136124050Y-58847945D01*
X135985963Y-58807400D01*
X135985961Y-58807400D01*
X135889875Y-58807400D01*
X135822836Y-58787715D01*
X135802188Y-58771076D01*
X133800813Y-56769456D01*
X133767332Y-56708131D01*
X133764500Y-56681780D01*
X133764500Y-45976038D01*
X133784185Y-45908999D01*
X133794787Y-45894835D01*
X133795124Y-45894444D01*
X133795128Y-45894443D01*
X133889377Y-45785673D01*
X133949165Y-45654757D01*
X133969647Y-45512300D01*
X133949165Y-45369843D01*
X133889377Y-45238927D01*
X133795128Y-45130157D01*
X133674053Y-45052347D01*
X133674051Y-45052346D01*
X133674049Y-45052345D01*
X133674050Y-45052345D01*
X133535963Y-45011800D01*
X133535961Y-45011800D01*
X133392039Y-45011800D01*
X133392038Y-45011800D01*
X133376990Y-45016218D01*
X133307120Y-45016216D01*
X133248343Y-44978440D01*
X133219320Y-44914884D01*
X133229265Y-44845726D01*
X133275019Y-44792924D01*
X133287128Y-44785143D01*
X133381377Y-44676373D01*
X133441165Y-44545457D01*
X133461647Y-44403000D01*
X133441165Y-44260543D01*
X133381377Y-44129627D01*
X133287128Y-44020857D01*
X133166053Y-43943047D01*
X133166051Y-43943046D01*
X133166049Y-43943045D01*
X133166050Y-43943045D01*
X133027963Y-43902500D01*
X133027961Y-43902500D01*
X132884039Y-43902500D01*
X132884036Y-43902500D01*
X132745949Y-43943045D01*
X132624873Y-44020856D01*
X132624872Y-44020856D01*
X132624872Y-44020857D01*
X132612290Y-44035377D01*
X132530623Y-44129626D01*
X132530622Y-44129628D01*
X132470834Y-44260543D01*
X132450353Y-44403000D01*
X132450353Y-44403001D01*
X132451668Y-44412149D01*
X132441723Y-44481308D01*
X132416619Y-44517467D01*
X129966302Y-46968225D01*
X129966297Y-46968231D01*
X129938529Y-46996000D01*
X129918063Y-47031454D01*
X129918061Y-47031458D01*
X129906049Y-47052263D01*
X129898970Y-47064526D01*
X129888985Y-47101807D01*
X129888982Y-47101817D01*
X129878496Y-47140950D01*
X129878500Y-47174874D01*
X129878500Y-51712960D01*
X129858815Y-51779999D01*
X129848213Y-51794162D01*
X129753625Y-51903322D01*
X129753622Y-51903328D01*
X129693834Y-52034243D01*
X129673353Y-52176700D01*
X129693834Y-52319156D01*
X129740174Y-52420625D01*
X129753623Y-52450073D01*
X129847872Y-52558843D01*
X129968947Y-52636653D01*
X129968950Y-52636654D01*
X129968949Y-52636654D01*
X130107036Y-52677199D01*
X130107038Y-52677200D01*
X130107039Y-52677200D01*
X130250962Y-52677200D01*
X130250962Y-52677199D01*
X130389053Y-52636653D01*
X130510128Y-52558843D01*
X130604377Y-52450073D01*
X130664165Y-52319157D01*
X130684647Y-52176700D01*
X130664165Y-52034243D01*
X130604377Y-51903327D01*
X130604375Y-51903325D01*
X130604374Y-51903322D01*
X130509787Y-51794162D01*
X130480762Y-51730606D01*
X130479500Y-51712960D01*
X130479500Y-47356311D01*
X130499185Y-47289272D01*
X130515811Y-47268638D01*
X131915310Y-45868886D01*
X131976627Y-45835397D01*
X132046319Y-45840375D01*
X132102256Y-45882242D01*
X132115790Y-45905049D01*
X132166398Y-46015864D01*
X132174623Y-46033873D01*
X132268872Y-46142643D01*
X132268875Y-46142645D01*
X132270213Y-46144189D01*
X132299238Y-46207745D01*
X132300500Y-46225392D01*
X132300500Y-61496167D01*
X132280815Y-61563206D01*
X132264181Y-61583848D01*
X130684848Y-63163181D01*
X130623525Y-63196666D01*
X130597167Y-63199500D01*
X127450038Y-63199500D01*
X127390599Y-63215427D01*
X127373607Y-63219980D01*
X127305631Y-63259227D01*
X127305610Y-63259239D01*
X127305090Y-63259538D01*
X127305089Y-63259539D01*
X127260969Y-63303660D01*
X127216846Y-63347782D01*
X127155526Y-63381266D01*
X127129167Y-63384100D01*
X123547340Y-63384100D01*
X123480301Y-63364415D01*
X123434546Y-63311611D01*
X123424602Y-63242453D01*
X123453627Y-63178897D01*
X123459659Y-63172419D01*
X124007535Y-62624543D01*
X124740460Y-61891618D01*
X124780022Y-61823095D01*
X124800500Y-61746669D01*
X124800500Y-61675833D01*
X124820185Y-61608794D01*
X124836819Y-61588152D01*
X126666174Y-59758797D01*
X128503460Y-57921511D01*
X128543022Y-57852988D01*
X128563500Y-57776562D01*
X128563500Y-57697438D01*
X128563500Y-46510638D01*
X128583185Y-46443599D01*
X128593787Y-46429435D01*
X128594124Y-46429044D01*
X128594128Y-46429043D01*
X128688377Y-46320273D01*
X128748165Y-46189357D01*
X128768647Y-46046900D01*
X128748165Y-45904443D01*
X128688377Y-45773527D01*
X128594128Y-45664757D01*
X128473053Y-45586947D01*
X128473051Y-45586946D01*
X128473049Y-45586945D01*
X128473050Y-45586945D01*
X128334963Y-45546400D01*
X128334961Y-45546400D01*
X128191039Y-45546400D01*
X128191036Y-45546400D01*
X128052949Y-45586945D01*
X127931873Y-45664756D01*
X127837623Y-45773526D01*
X127837622Y-45773528D01*
X127777834Y-45904443D01*
X127757353Y-46046900D01*
X127777834Y-46189356D01*
X127808025Y-46255463D01*
X127837623Y-46320273D01*
X127931872Y-46429043D01*
X127931875Y-46429044D01*
X127932213Y-46429435D01*
X127961238Y-46492991D01*
X127962500Y-46510638D01*
X127962500Y-57561167D01*
X127942815Y-57628206D01*
X127926181Y-57648848D01*
X124259541Y-61315487D01*
X124259535Y-61315495D01*
X124219982Y-61384004D01*
X124219979Y-61384009D01*
X124199500Y-61460439D01*
X124199500Y-61531274D01*
X124179815Y-61598313D01*
X124163181Y-61618955D01*
X115618955Y-70163181D01*
X115557632Y-70196666D01*
X115531274Y-70199500D01*
X111280438Y-70199500D01*
X111242224Y-70209739D01*
X111204009Y-70219979D01*
X111204004Y-70219982D01*
X111135495Y-70259535D01*
X111135487Y-70259541D01*
X110087380Y-71307647D01*
X110026057Y-71341132D01*
X109956365Y-71336148D01*
X109950386Y-71333451D01*
X109950359Y-71333518D01*
X109944739Y-71331190D01*
X109944728Y-71331186D01*
X109944727Y-71331186D01*
X109785132Y-71282773D01*
X109756129Y-71273975D01*
X109560000Y-71254659D01*
X109363870Y-71273975D01*
X109279246Y-71299645D01*
X109175273Y-71331186D01*
X109175270Y-71331187D01*
X109175268Y-71331188D01*
X109108228Y-71367021D01*
X109039825Y-71381262D01*
X108974581Y-71356261D01*
X108933212Y-71299955D01*
X108928850Y-71230222D01*
X108962093Y-71169983D01*
X110795259Y-69336819D01*
X110856582Y-69303334D01*
X110882940Y-69300500D01*
X115539560Y-69300500D01*
X115539562Y-69300500D01*
X115615989Y-69280021D01*
X115684511Y-69240460D01*
X115740460Y-69184511D01*
X121621151Y-63303818D01*
X121682474Y-63270334D01*
X121708832Y-63267500D01*
X121804962Y-63267500D01*
X121804962Y-63267499D01*
X121943053Y-63226953D01*
X122064128Y-63149143D01*
X122158377Y-63040373D01*
X122218165Y-62909457D01*
X122238647Y-62767000D01*
X122218165Y-62624543D01*
X122158377Y-62493627D01*
X122064128Y-62384857D01*
X121943053Y-62307047D01*
X121943051Y-62307046D01*
X121943049Y-62307045D01*
X121943050Y-62307045D01*
X121804963Y-62266500D01*
X121804961Y-62266500D01*
X121661039Y-62266500D01*
X121661036Y-62266500D01*
X121522949Y-62307045D01*
X121401873Y-62384856D01*
X121307623Y-62493626D01*
X121307622Y-62493628D01*
X121247834Y-62624543D01*
X121227353Y-62767000D01*
X121227353Y-62767001D01*
X121228661Y-62776103D01*
X121218713Y-62845261D01*
X121193603Y-62881424D01*
X115411848Y-68663181D01*
X115350525Y-68696666D01*
X115324167Y-68699500D01*
X110667545Y-68699500D01*
X110636974Y-68707691D01*
X110591115Y-68719979D01*
X110591114Y-68719980D01*
X110555645Y-68740459D01*
X110522599Y-68759537D01*
X110522594Y-68759541D01*
X107811525Y-71470609D01*
X107750202Y-71504094D01*
X107680510Y-71499110D01*
X107645179Y-71478781D01*
X107578539Y-71424090D01*
X107578532Y-71424086D01*
X107404733Y-71331188D01*
X107404727Y-71331186D01*
X107245132Y-71282773D01*
X107216129Y-71273975D01*
X107020000Y-71254659D01*
X106823870Y-71273975D01*
X106635266Y-71331188D01*
X106461467Y-71424086D01*
X106461460Y-71424090D01*
X106309116Y-71549116D01*
X106184090Y-71701460D01*
X106184086Y-71701467D01*
X106091188Y-71875266D01*
X106033975Y-72063870D01*
X106014659Y-72260000D01*
X106033975Y-72456129D01*
X106091188Y-72644733D01*
X106184086Y-72818532D01*
X106184090Y-72818539D01*
X106309116Y-72970883D01*
X106461460Y-73095909D01*
X106461467Y-73095913D01*
X106635266Y-73188811D01*
X106635269Y-73188811D01*
X106635273Y-73188814D01*
X106823868Y-73246024D01*
X107020000Y-73265341D01*
X107216132Y-73246024D01*
X107404727Y-73188814D01*
X107404735Y-73188810D01*
X107554039Y-73109005D01*
X107578538Y-73095910D01*
X107730883Y-72970883D01*
X107855910Y-72818538D01*
X107915893Y-72706317D01*
X107948812Y-72644731D01*
X107948812Y-72644730D01*
X107948814Y-72644727D01*
X108006024Y-72456132D01*
X108006024Y-72456126D01*
X108006368Y-72454994D01*
X108017641Y-72428991D01*
X108020387Y-72424237D01*
X108049384Y-72316018D01*
X108049384Y-72203982D01*
X108042281Y-72177474D01*
X108043944Y-72107627D01*
X108074373Y-72057703D01*
X108469983Y-71662093D01*
X108531304Y-71628610D01*
X108600996Y-71633594D01*
X108656929Y-71675466D01*
X108681346Y-71740930D01*
X108667021Y-71808228D01*
X108631188Y-71875268D01*
X108631187Y-71875270D01*
X108631186Y-71875273D01*
X108612190Y-71937895D01*
X108573975Y-72063870D01*
X108554659Y-72260000D01*
X108573975Y-72456129D01*
X108631188Y-72644733D01*
X108724086Y-72818532D01*
X108724090Y-72818539D01*
X108849116Y-72970883D01*
X109001460Y-73095909D01*
X109001467Y-73095913D01*
X109175266Y-73188811D01*
X109175269Y-73188811D01*
X109175273Y-73188814D01*
X109363868Y-73246024D01*
X109560000Y-73265341D01*
X109756132Y-73246024D01*
X109944727Y-73188814D01*
X109944732Y-73188811D01*
X109944736Y-73188810D01*
X109950355Y-73186483D01*
X109951232Y-73188602D01*
X110009609Y-73176429D01*
X110074861Y-73201408D01*
X110087380Y-73212351D01*
X111092848Y-74217819D01*
X111126333Y-74279142D01*
X111121349Y-74348834D01*
X111079477Y-74404767D01*
X111014013Y-74429184D01*
X111005167Y-74429500D01*
X101178676Y-74429500D01*
X101111637Y-74409815D01*
X101090995Y-74393181D01*
X99806819Y-73109005D01*
X99773334Y-73047682D01*
X99770500Y-73021324D01*
X99770500Y-72260000D01*
X100934659Y-72260000D01*
X100953975Y-72456129D01*
X101011188Y-72644733D01*
X101104086Y-72818532D01*
X101104090Y-72818539D01*
X101229116Y-72970883D01*
X101381460Y-73095909D01*
X101381467Y-73095913D01*
X101555266Y-73188811D01*
X101555269Y-73188811D01*
X101555273Y-73188814D01*
X101743868Y-73246024D01*
X101940000Y-73265341D01*
X102136132Y-73246024D01*
X102324727Y-73188814D01*
X102324735Y-73188810D01*
X102474039Y-73109005D01*
X102498538Y-73095910D01*
X102650883Y-72970883D01*
X102775910Y-72818538D01*
X102835893Y-72706317D01*
X102868811Y-72644733D01*
X102868812Y-72644731D01*
X102868814Y-72644727D01*
X102926024Y-72456132D01*
X102945341Y-72260000D01*
X103474659Y-72260000D01*
X103493975Y-72456129D01*
X103551188Y-72644733D01*
X103644086Y-72818532D01*
X103644090Y-72818539D01*
X103769116Y-72970883D01*
X103921460Y-73095909D01*
X103921467Y-73095913D01*
X104095266Y-73188811D01*
X104095269Y-73188811D01*
X104095273Y-73188814D01*
X104283868Y-73246024D01*
X104480000Y-73265341D01*
X104676132Y-73246024D01*
X104864727Y-73188814D01*
X104864735Y-73188810D01*
X105014039Y-73109005D01*
X105038538Y-73095910D01*
X105190883Y-72970883D01*
X105315910Y-72818538D01*
X105375893Y-72706317D01*
X105408811Y-72644733D01*
X105408812Y-72644731D01*
X105408814Y-72644727D01*
X105466024Y-72456132D01*
X105485341Y-72260000D01*
X105466024Y-72063868D01*
X105408814Y-71875273D01*
X105408811Y-71875269D01*
X105408811Y-71875266D01*
X105315913Y-71701467D01*
X105315909Y-71701460D01*
X105190883Y-71549116D01*
X105038539Y-71424090D01*
X105038532Y-71424086D01*
X104864733Y-71331188D01*
X104864727Y-71331186D01*
X104705132Y-71282773D01*
X104676129Y-71273975D01*
X104480000Y-71254659D01*
X104283870Y-71273975D01*
X104095266Y-71331188D01*
X103921467Y-71424086D01*
X103921460Y-71424090D01*
X103769116Y-71549116D01*
X103644090Y-71701460D01*
X103644086Y-71701467D01*
X103551188Y-71875266D01*
X103493975Y-72063870D01*
X103474659Y-72260000D01*
X102945341Y-72260000D01*
X102926024Y-72063868D01*
X102868814Y-71875273D01*
X102868811Y-71875269D01*
X102868811Y-71875266D01*
X102775913Y-71701467D01*
X102775909Y-71701460D01*
X102650883Y-71549116D01*
X102498539Y-71424090D01*
X102498532Y-71424086D01*
X102324733Y-71331188D01*
X102324727Y-71331186D01*
X102165132Y-71282773D01*
X102136129Y-71273975D01*
X101940000Y-71254659D01*
X101743870Y-71273975D01*
X101555266Y-71331188D01*
X101381467Y-71424086D01*
X101381460Y-71424090D01*
X101229116Y-71549116D01*
X101104090Y-71701460D01*
X101104086Y-71701467D01*
X101011188Y-71875266D01*
X100953975Y-72063870D01*
X100934659Y-72260000D01*
X99770500Y-72260000D01*
X99770500Y-66580791D01*
X109096631Y-66580791D01*
X109117112Y-66723247D01*
X109169519Y-66838000D01*
X109176901Y-66854164D01*
X109271150Y-66962934D01*
X109392225Y-67040744D01*
X109392228Y-67040745D01*
X109392227Y-67040745D01*
X109530314Y-67081290D01*
X109530316Y-67081291D01*
X109530317Y-67081291D01*
X109674240Y-67081291D01*
X109674240Y-67081290D01*
X109812328Y-67040745D01*
X109812329Y-67040745D01*
X109835310Y-67025976D01*
X109902349Y-67006291D01*
X114945225Y-67006291D01*
X114945227Y-67006291D01*
X115053446Y-66977294D01*
X115150472Y-66921276D01*
X118583740Y-63488006D01*
X118609419Y-63468303D01*
X118651272Y-63444140D01*
X118666263Y-63435485D01*
X118743821Y-63357924D01*
X118743824Y-63357923D01*
X118761262Y-63340485D01*
X118761263Y-63340485D01*
X118840485Y-63261263D01*
X118873303Y-63204418D01*
X118893006Y-63178740D01*
X123576043Y-58495703D01*
X123628786Y-58464410D01*
X123695053Y-58444953D01*
X123816128Y-58367143D01*
X123910377Y-58258373D01*
X123970165Y-58127457D01*
X123990647Y-57985000D01*
X123970165Y-57842543D01*
X123960411Y-57821186D01*
X123921706Y-57736432D01*
X123910500Y-57684921D01*
X123910500Y-46942208D01*
X123930185Y-46875169D01*
X123946814Y-46854532D01*
X126100853Y-44700492D01*
X126100858Y-44700489D01*
X126111061Y-44690285D01*
X126111063Y-44690285D01*
X128160547Y-42640800D01*
X132426353Y-42640800D01*
X132446834Y-42783256D01*
X132506622Y-42914171D01*
X132506623Y-42914173D01*
X132600872Y-43022943D01*
X132721947Y-43100753D01*
X132721950Y-43100754D01*
X132721949Y-43100754D01*
X132785981Y-43119555D01*
X132857246Y-43140480D01*
X132860036Y-43141299D01*
X132860038Y-43141300D01*
X132956213Y-43141300D01*
X133023252Y-43160985D01*
X133043888Y-43177613D01*
X134451376Y-44584901D01*
X136056059Y-46189357D01*
X136122175Y-46255463D01*
X136155664Y-46316783D01*
X136158500Y-46343150D01*
X136158500Y-49160560D01*
X136138815Y-49227599D01*
X136128213Y-49241762D01*
X136033625Y-49350922D01*
X136033622Y-49350928D01*
X135973834Y-49481843D01*
X135953353Y-49624300D01*
X135973834Y-49766756D01*
X136003226Y-49831114D01*
X136033623Y-49897673D01*
X136127872Y-50006443D01*
X136248947Y-50084253D01*
X136248950Y-50084254D01*
X136248949Y-50084254D01*
X136387036Y-50124799D01*
X136387038Y-50124800D01*
X136387039Y-50124800D01*
X136530962Y-50124800D01*
X136530962Y-50124799D01*
X136638121Y-50093335D01*
X136669050Y-50084254D01*
X136669050Y-50084253D01*
X136669053Y-50084253D01*
X136790128Y-50006443D01*
X136884377Y-49897673D01*
X136944165Y-49766757D01*
X136964647Y-49624300D01*
X136944165Y-49481843D01*
X136884377Y-49350927D01*
X136884375Y-49350925D01*
X136884374Y-49350922D01*
X136789787Y-49241762D01*
X136760762Y-49178206D01*
X136759500Y-49160560D01*
X136759500Y-46215130D01*
X136759503Y-46215071D01*
X136759500Y-46160776D01*
X136759500Y-46127727D01*
X136748999Y-46088550D01*
X136748996Y-46088540D01*
X136744897Y-46073243D01*
X136739686Y-46053793D01*
X136739119Y-46051478D01*
X136739093Y-46051414D01*
X136738623Y-46050616D01*
X136718556Y-46015864D01*
X136699871Y-45983501D01*
X136699486Y-45982821D01*
X136699456Y-45982782D01*
X136699448Y-45982774D01*
X136699447Y-45982772D01*
X136671234Y-45954563D01*
X136643511Y-45926840D01*
X136643510Y-45926839D01*
X136638156Y-45921485D01*
X136638114Y-45921448D01*
X136619620Y-45902957D01*
X133471406Y-42755189D01*
X133437918Y-42693870D01*
X133436345Y-42649853D01*
X133437647Y-42640800D01*
X133417165Y-42498343D01*
X133357377Y-42367427D01*
X133263128Y-42258657D01*
X133142053Y-42180847D01*
X133142051Y-42180846D01*
X133142049Y-42180845D01*
X133142050Y-42180845D01*
X133003963Y-42140300D01*
X133003961Y-42140300D01*
X132860039Y-42140300D01*
X132860036Y-42140300D01*
X132721949Y-42180845D01*
X132600873Y-42258656D01*
X132506623Y-42367426D01*
X132506622Y-42367428D01*
X132446834Y-42498343D01*
X132426353Y-42640800D01*
X128160547Y-42640800D01*
X129257043Y-41544303D01*
X129309786Y-41513010D01*
X129376053Y-41493553D01*
X129497128Y-41415743D01*
X129591377Y-41306973D01*
X129651165Y-41176057D01*
X129671647Y-41033600D01*
X129651165Y-40891143D01*
X129591377Y-40760227D01*
X129591375Y-40760225D01*
X129591374Y-40760222D01*
X129497133Y-40651462D01*
X129497130Y-40651459D01*
X129497128Y-40651457D01*
X129497125Y-40651455D01*
X129497124Y-40651454D01*
X129482459Y-40642029D01*
X129436705Y-40589224D01*
X129425500Y-40537715D01*
X129425500Y-30187608D01*
X129445185Y-30120569D01*
X129461814Y-30099932D01*
X129488746Y-30073000D01*
X143921353Y-30073000D01*
X143941834Y-30215456D01*
X143979161Y-30297189D01*
X144001623Y-30346373D01*
X144095872Y-30455143D01*
X144216947Y-30532953D01*
X144283212Y-30552409D01*
X144335957Y-30583705D01*
X145087922Y-31335670D01*
X145121407Y-31396993D01*
X145116423Y-31466685D01*
X145074551Y-31522618D01*
X145050289Y-31534768D01*
X145051017Y-31536361D01*
X145042950Y-31540045D01*
X144921873Y-31617856D01*
X144827623Y-31726626D01*
X144827622Y-31726628D01*
X144767834Y-31857543D01*
X144747353Y-32000000D01*
X144767834Y-32142456D01*
X144827622Y-32273371D01*
X144827623Y-32273373D01*
X144921872Y-32382143D01*
X145042947Y-32459953D01*
X145109212Y-32479409D01*
X145161957Y-32510705D01*
X158412515Y-45761263D01*
X158491737Y-45840485D01*
X158588763Y-45896503D01*
X158696982Y-45925500D01*
X160467123Y-45925500D01*
X160534162Y-45945185D01*
X160579917Y-45997989D01*
X160580644Y-45999612D01*
X160611794Y-46070626D01*
X160675826Y-46216606D01*
X160811833Y-46424782D01*
X160844245Y-46459991D01*
X160980256Y-46607738D01*
X161176491Y-46760474D01*
X161176493Y-46760475D01*
X161331367Y-46844289D01*
X161395190Y-46878828D01*
X161630386Y-46959571D01*
X161875665Y-47000500D01*
X162124335Y-47000500D01*
X162369614Y-46959571D01*
X162604810Y-46878828D01*
X162823509Y-46760474D01*
X163019744Y-46607738D01*
X163188164Y-46424785D01*
X163324173Y-46216607D01*
X163424063Y-45988881D01*
X163485108Y-45747821D01*
X163491991Y-45664756D01*
X163505643Y-45500005D01*
X163505643Y-45499994D01*
X163485109Y-45252187D01*
X163485107Y-45252175D01*
X163424063Y-45011118D01*
X163324173Y-44783393D01*
X163188166Y-44575217D01*
X163135003Y-44517467D01*
X163019744Y-44392262D01*
X162823509Y-44239526D01*
X162823507Y-44239525D01*
X162823506Y-44239524D01*
X162604811Y-44121172D01*
X162604802Y-44121169D01*
X162369616Y-44040429D01*
X162124335Y-43999500D01*
X161875665Y-43999500D01*
X161630383Y-44040429D01*
X161395197Y-44121169D01*
X161395188Y-44121172D01*
X161176493Y-44239524D01*
X160980257Y-44392261D01*
X160811833Y-44575217D01*
X160675826Y-44783393D01*
X160640187Y-44864643D01*
X160580677Y-45000311D01*
X160535723Y-45053796D01*
X160468987Y-45074486D01*
X160467123Y-45074500D01*
X158980610Y-45074500D01*
X158913571Y-45054815D01*
X158892929Y-45038181D01*
X154991929Y-41137181D01*
X154958444Y-41075858D01*
X154963428Y-41006166D01*
X155005300Y-40950233D01*
X155070764Y-40925816D01*
X155079610Y-40925500D01*
X160375500Y-40925500D01*
X160442539Y-40945185D01*
X160488294Y-40997989D01*
X160499500Y-41049500D01*
X160499500Y-41819752D01*
X160511131Y-41878229D01*
X160511132Y-41878230D01*
X160555447Y-41944552D01*
X160621769Y-41988867D01*
X160621770Y-41988868D01*
X160680247Y-42000499D01*
X160680250Y-42000500D01*
X160680252Y-42000500D01*
X163319750Y-42000500D01*
X163319751Y-42000499D01*
X163334568Y-41997552D01*
X163378229Y-41988868D01*
X163378229Y-41988867D01*
X163378231Y-41988867D01*
X163444552Y-41944552D01*
X163488867Y-41878231D01*
X163488867Y-41878229D01*
X163488868Y-41878229D01*
X163500499Y-41819752D01*
X163500500Y-41819750D01*
X163500500Y-39180249D01*
X163500499Y-39180247D01*
X163488868Y-39121770D01*
X163488867Y-39121769D01*
X163444552Y-39055447D01*
X163378230Y-39011132D01*
X163378229Y-39011131D01*
X163319752Y-38999500D01*
X163319748Y-38999500D01*
X160680252Y-38999500D01*
X160680247Y-38999500D01*
X160621770Y-39011131D01*
X160621769Y-39011132D01*
X160555447Y-39055447D01*
X160511132Y-39121769D01*
X160511131Y-39121770D01*
X160499500Y-39180247D01*
X160499500Y-39950500D01*
X160479815Y-40017539D01*
X160427011Y-40063294D01*
X160375500Y-40074500D01*
X155081610Y-40074500D01*
X155014571Y-40054815D01*
X154993929Y-40038181D01*
X144945299Y-29989551D01*
X144914000Y-29936796D01*
X144912166Y-29930551D01*
X144912165Y-29930543D01*
X144852377Y-29799627D01*
X144758128Y-29690857D01*
X144637053Y-29613047D01*
X144637051Y-29613046D01*
X144637049Y-29613045D01*
X144637050Y-29613045D01*
X144498963Y-29572500D01*
X144498961Y-29572500D01*
X144355039Y-29572500D01*
X144355036Y-29572500D01*
X144216949Y-29613045D01*
X144095873Y-29690856D01*
X144001623Y-29799626D01*
X144001622Y-29799628D01*
X143941834Y-29930543D01*
X143921353Y-30073000D01*
X129488746Y-30073000D01*
X130750442Y-28811304D01*
X152849500Y-28811304D01*
X152849500Y-31188695D01*
X152884103Y-31362658D01*
X152884106Y-31362667D01*
X152951983Y-31526540D01*
X152951990Y-31526553D01*
X153050535Y-31674034D01*
X153050538Y-31674038D01*
X153175961Y-31799461D01*
X153175965Y-31799464D01*
X153323446Y-31898009D01*
X153323459Y-31898016D01*
X153413958Y-31935501D01*
X153487334Y-31965894D01*
X153487336Y-31965894D01*
X153487341Y-31965896D01*
X153661304Y-32000499D01*
X153661307Y-32000500D01*
X153661309Y-32000500D01*
X153838693Y-32000500D01*
X153838694Y-32000499D01*
X153896682Y-31988964D01*
X154012658Y-31965896D01*
X154012661Y-31965894D01*
X154012666Y-31965894D01*
X154176547Y-31898013D01*
X154324035Y-31799464D01*
X154449464Y-31674035D01*
X154548013Y-31526547D01*
X154549641Y-31522618D01*
X154572808Y-31466685D01*
X154615894Y-31362666D01*
X154619288Y-31345606D01*
X154638964Y-31246682D01*
X154650500Y-31188691D01*
X154650500Y-28811309D01*
X154650500Y-28811306D01*
X154650499Y-28811304D01*
X154649355Y-28805552D01*
X158800000Y-28805552D01*
X158800000Y-29750000D01*
X159600000Y-29750000D01*
X159600000Y-30250000D01*
X158800000Y-30250000D01*
X158800000Y-31194447D01*
X158829548Y-31381002D01*
X158887914Y-31560637D01*
X158973670Y-31728940D01*
X159084685Y-31881741D01*
X159084689Y-31881746D01*
X159218253Y-32015310D01*
X159218258Y-32015314D01*
X159371059Y-32126329D01*
X159539362Y-32212085D01*
X159718997Y-32270451D01*
X159750000Y-32275362D01*
X159750000Y-31415686D01*
X159754394Y-31420080D01*
X159845606Y-31472741D01*
X159947339Y-31500000D01*
X160052661Y-31500000D01*
X160154394Y-31472741D01*
X160245606Y-31420080D01*
X160250000Y-31415686D01*
X160250000Y-32275361D01*
X160281002Y-32270451D01*
X160460637Y-32212085D01*
X160628940Y-32126329D01*
X160781741Y-32015314D01*
X160781746Y-32015310D01*
X160915310Y-31881746D01*
X160915314Y-31881741D01*
X161026329Y-31728940D01*
X161112085Y-31560637D01*
X161170451Y-31381002D01*
X161200000Y-31194447D01*
X161200000Y-30250000D01*
X160400000Y-30250000D01*
X160400000Y-29750000D01*
X161200000Y-29750000D01*
X161200000Y-28805552D01*
X161170451Y-28618997D01*
X161112085Y-28439362D01*
X161026329Y-28271059D01*
X160915314Y-28118258D01*
X160915310Y-28118253D01*
X160781746Y-27984689D01*
X160781741Y-27984685D01*
X160628940Y-27873670D01*
X160460635Y-27787913D01*
X160281004Y-27729549D01*
X160280995Y-27729547D01*
X160250000Y-27724637D01*
X160250000Y-28584314D01*
X160245606Y-28579920D01*
X160154394Y-28527259D01*
X160052661Y-28500000D01*
X159947339Y-28500000D01*
X159845606Y-28527259D01*
X159754394Y-28579920D01*
X159750000Y-28584314D01*
X159750000Y-27724637D01*
X159749999Y-27724637D01*
X159719004Y-27729547D01*
X159718995Y-27729549D01*
X159539364Y-27787913D01*
X159371059Y-27873670D01*
X159218258Y-27984685D01*
X159218253Y-27984689D01*
X159084689Y-28118253D01*
X159084685Y-28118258D01*
X158973670Y-28271059D01*
X158887914Y-28439362D01*
X158829548Y-28618997D01*
X158800000Y-28805552D01*
X154649355Y-28805552D01*
X154615896Y-28637341D01*
X154615893Y-28637332D01*
X154548016Y-28473459D01*
X154548009Y-28473446D01*
X154449464Y-28325965D01*
X154449461Y-28325961D01*
X154324038Y-28200538D01*
X154324034Y-28200535D01*
X154176553Y-28101990D01*
X154176540Y-28101983D01*
X154012667Y-28034106D01*
X154012658Y-28034103D01*
X153838694Y-27999500D01*
X153838691Y-27999500D01*
X153661309Y-27999500D01*
X153661306Y-27999500D01*
X153487341Y-28034103D01*
X153487332Y-28034106D01*
X153323459Y-28101983D01*
X153323446Y-28101990D01*
X153175965Y-28200535D01*
X153175961Y-28200538D01*
X153050538Y-28325961D01*
X153050535Y-28325965D01*
X152951990Y-28473446D01*
X152951983Y-28473459D01*
X152884106Y-28637332D01*
X152884103Y-28637341D01*
X152849500Y-28811304D01*
X130750442Y-28811304D01*
X133986053Y-25575692D01*
X133986058Y-25575689D01*
X133996261Y-25565485D01*
X133996263Y-25565485D01*
X134566960Y-24994786D01*
X134628281Y-24961303D01*
X134690635Y-24963809D01*
X134714085Y-24970922D01*
X134763868Y-24986024D01*
X134960000Y-25005341D01*
X135156132Y-24986024D01*
X135344727Y-24928814D01*
X135363094Y-24918997D01*
X135439365Y-24878229D01*
X135518538Y-24835910D01*
X135670883Y-24710883D01*
X135795910Y-24558538D01*
X135855893Y-24446317D01*
X135888811Y-24384733D01*
X135888811Y-24384732D01*
X135888814Y-24384727D01*
X135946024Y-24196132D01*
X135965341Y-24000000D01*
X135946024Y-23803868D01*
X135888814Y-23615273D01*
X135888811Y-23615269D01*
X135888811Y-23615266D01*
X135795913Y-23441467D01*
X135795909Y-23441460D01*
X135670883Y-23289116D01*
X135538226Y-23180247D01*
X136499500Y-23180247D01*
X136499500Y-24819752D01*
X136511131Y-24878229D01*
X136511132Y-24878230D01*
X136555447Y-24944552D01*
X136621769Y-24988867D01*
X136621770Y-24988868D01*
X136680247Y-25000499D01*
X136680250Y-25000500D01*
X136680252Y-25000500D01*
X138319750Y-25000500D01*
X138319751Y-25000499D01*
X138334568Y-24997552D01*
X138378229Y-24988868D01*
X138378229Y-24988867D01*
X138378231Y-24988867D01*
X138436399Y-24950000D01*
X154474638Y-24950000D01*
X155334314Y-24950000D01*
X155329920Y-24954394D01*
X155277259Y-25045606D01*
X155250000Y-25147339D01*
X155250000Y-25252661D01*
X155277259Y-25354394D01*
X155329920Y-25445606D01*
X155334314Y-25450000D01*
X154474638Y-25450000D01*
X154479548Y-25481002D01*
X154537914Y-25660637D01*
X154623670Y-25828940D01*
X154734685Y-25981741D01*
X154734689Y-25981746D01*
X154868253Y-26115310D01*
X154868258Y-26115314D01*
X155021059Y-26226329D01*
X155189362Y-26312085D01*
X155368997Y-26370451D01*
X155555553Y-26400000D01*
X156500000Y-26400000D01*
X156500000Y-25600000D01*
X157000000Y-25600000D01*
X157000000Y-26400000D01*
X157944447Y-26400000D01*
X158131002Y-26370451D01*
X158310637Y-26312085D01*
X158478940Y-26226329D01*
X158631741Y-26115314D01*
X158631746Y-26115310D01*
X158765310Y-25981746D01*
X158765314Y-25981741D01*
X158876329Y-25828940D01*
X158962085Y-25660637D01*
X159020451Y-25481002D01*
X159025362Y-25450000D01*
X158165686Y-25450000D01*
X158170080Y-25445606D01*
X158222741Y-25354394D01*
X158250000Y-25252661D01*
X158250000Y-25147339D01*
X158222741Y-25045606D01*
X158170080Y-24954394D01*
X158165686Y-24950000D01*
X159025362Y-24950000D01*
X159020451Y-24918997D01*
X158962085Y-24739362D01*
X158876329Y-24571059D01*
X158765314Y-24418258D01*
X158765310Y-24418253D01*
X158631746Y-24284689D01*
X158631741Y-24284685D01*
X158478940Y-24173670D01*
X158310637Y-24087914D01*
X158131002Y-24029548D01*
X157944447Y-24000000D01*
X157000000Y-24000000D01*
X157000000Y-24800000D01*
X156500000Y-24800000D01*
X156500000Y-24000000D01*
X155555553Y-24000000D01*
X155368997Y-24029548D01*
X155189362Y-24087914D01*
X155021059Y-24173670D01*
X154868258Y-24284685D01*
X154868253Y-24284689D01*
X154734689Y-24418253D01*
X154734685Y-24418258D01*
X154623670Y-24571059D01*
X154537914Y-24739362D01*
X154479548Y-24918997D01*
X154474638Y-24950000D01*
X138436399Y-24950000D01*
X138444552Y-24944552D01*
X138488867Y-24878231D01*
X138488867Y-24878229D01*
X138488868Y-24878229D01*
X138500499Y-24819752D01*
X138500500Y-24819750D01*
X138500500Y-23180249D01*
X138500499Y-23180247D01*
X138488868Y-23121770D01*
X138488867Y-23121769D01*
X138444552Y-23055447D01*
X138378230Y-23011132D01*
X138378229Y-23011131D01*
X138319752Y-22999500D01*
X138319748Y-22999500D01*
X136680252Y-22999500D01*
X136680247Y-22999500D01*
X136621770Y-23011131D01*
X136621769Y-23011132D01*
X136555447Y-23055447D01*
X136511132Y-23121769D01*
X136511131Y-23121770D01*
X136499500Y-23180247D01*
X135538226Y-23180247D01*
X135518539Y-23164090D01*
X135518532Y-23164086D01*
X135344733Y-23071188D01*
X135344727Y-23071186D01*
X135156132Y-23013976D01*
X135156129Y-23013975D01*
X134960000Y-22994659D01*
X134763870Y-23013975D01*
X134575266Y-23071188D01*
X134401467Y-23164086D01*
X134401460Y-23164090D01*
X134249116Y-23289116D01*
X134124090Y-23441460D01*
X134124086Y-23441467D01*
X134031188Y-23615266D01*
X133973975Y-23803870D01*
X133954659Y-24000000D01*
X133973976Y-24196132D01*
X133996190Y-24269365D01*
X133996813Y-24339232D01*
X133965210Y-24393040D01*
X133394515Y-24963737D01*
X133394513Y-24963739D01*
X128721296Y-29636955D01*
X128721295Y-29636955D01*
X128721296Y-29636956D01*
X128659514Y-29698738D01*
X128659513Y-29698740D01*
X128603498Y-29795760D01*
X128603497Y-29795763D01*
X128574500Y-29903982D01*
X128574500Y-40971989D01*
X128554815Y-41039028D01*
X128538181Y-41059670D01*
X125919803Y-43678048D01*
X125858480Y-43711533D01*
X125788788Y-43706549D01*
X125744441Y-43678048D01*
X123745915Y-41679522D01*
X123745913Y-41679520D01*
X123700250Y-41653156D01*
X123654589Y-41626793D01*
X123603657Y-41613146D01*
X123552727Y-41599500D01*
X123552726Y-41599500D01*
X123338974Y-41599500D01*
X123271936Y-41579816D01*
X123210050Y-41540045D01*
X123071963Y-41499500D01*
X123071961Y-41499500D01*
X122928039Y-41499500D01*
X122928036Y-41499500D01*
X122789949Y-41540045D01*
X122668873Y-41617856D01*
X122574623Y-41726626D01*
X122574622Y-41726628D01*
X122514834Y-41857543D01*
X122494353Y-42000000D01*
X122514834Y-42142456D01*
X122567902Y-42258656D01*
X122574623Y-42273373D01*
X122668872Y-42382143D01*
X122789947Y-42459953D01*
X122789950Y-42459954D01*
X122789949Y-42459954D01*
X122928036Y-42500499D01*
X122928038Y-42500500D01*
X122928039Y-42500500D01*
X123071962Y-42500500D01*
X123071962Y-42500499D01*
X123135117Y-42481956D01*
X123210048Y-42459955D01*
X123210049Y-42459954D01*
X123210053Y-42459953D01*
X123237706Y-42442181D01*
X123304743Y-42422498D01*
X123371783Y-42442183D01*
X123392424Y-42458817D01*
X125178048Y-44244441D01*
X125211533Y-44305764D01*
X125206549Y-44375456D01*
X125178048Y-44419803D01*
X123206295Y-46391555D01*
X123206296Y-46391556D01*
X123144514Y-46453338D01*
X123144513Y-46453340D01*
X123088498Y-46550360D01*
X123088497Y-46550363D01*
X123059500Y-46658582D01*
X123059500Y-57684921D01*
X123048294Y-57736433D01*
X122999836Y-57842540D01*
X122997997Y-57848804D01*
X122966701Y-57901549D01*
X118238737Y-62629515D01*
X118159517Y-62708734D01*
X118159508Y-62708746D01*
X118159362Y-62709000D01*
X118159154Y-62709207D01*
X118154567Y-62715186D01*
X118153779Y-62714582D01*
X118119582Y-62748779D01*
X118120186Y-62749567D01*
X118114207Y-62754154D01*
X118114000Y-62754362D01*
X118113746Y-62754508D01*
X118113734Y-62754517D01*
X114749280Y-66118972D01*
X114687957Y-66152457D01*
X114661599Y-66155291D01*
X109902350Y-66155291D01*
X109835311Y-66135606D01*
X109835310Y-66135606D01*
X109812328Y-66120836D01*
X109674241Y-66080291D01*
X109674239Y-66080291D01*
X109530317Y-66080291D01*
X109530314Y-66080291D01*
X109392227Y-66120836D01*
X109271151Y-66198647D01*
X109176901Y-66307417D01*
X109176900Y-66307419D01*
X109117112Y-66438334D01*
X109096631Y-66580791D01*
X99770500Y-66580791D01*
X99770500Y-61784109D01*
X99770500Y-61784108D01*
X99760468Y-61746669D01*
X99736392Y-61656814D01*
X99698463Y-61591119D01*
X99670500Y-61542686D01*
X99577314Y-61449500D01*
X97266819Y-59139005D01*
X97233334Y-59077682D01*
X97230500Y-59051324D01*
X97230500Y-58499999D01*
X98644341Y-58499999D01*
X98644341Y-58500000D01*
X98664936Y-58735403D01*
X98664936Y-58735405D01*
X98664937Y-58735408D01*
X98683032Y-58802941D01*
X98726094Y-58963655D01*
X98726096Y-58963659D01*
X98726097Y-58963663D01*
X98780326Y-59079957D01*
X98825965Y-59177830D01*
X98825967Y-59177834D01*
X98912437Y-59301325D01*
X98961505Y-59371401D01*
X99128599Y-59538495D01*
X99201213Y-59589340D01*
X99322165Y-59674032D01*
X99322167Y-59674033D01*
X99322170Y-59674035D01*
X99536337Y-59773903D01*
X99764592Y-59835063D01*
X99952918Y-59851539D01*
X99999999Y-59855659D01*
X100000000Y-59855659D01*
X100000001Y-59855659D01*
X100039234Y-59852226D01*
X100235408Y-59835063D01*
X100463663Y-59773903D01*
X100677830Y-59674035D01*
X100871401Y-59538495D01*
X101038495Y-59371401D01*
X101174035Y-59177830D01*
X101258313Y-58997094D01*
X101304485Y-58944656D01*
X101370695Y-58925500D01*
X113556016Y-58925500D01*
X113556018Y-58925500D01*
X113664237Y-58896503D01*
X113761263Y-58840485D01*
X114006261Y-58595486D01*
X114006263Y-58595485D01*
X114085485Y-58516263D01*
X114141503Y-58419237D01*
X114147006Y-58398698D01*
X114154524Y-58370645D01*
X114162511Y-58340832D01*
X114170500Y-58311019D01*
X114170500Y-58198982D01*
X114170500Y-55500000D01*
X118994353Y-55500000D01*
X119014834Y-55642456D01*
X119014836Y-55642460D01*
X119074623Y-55773373D01*
X119168872Y-55882143D01*
X119289947Y-55959953D01*
X119289950Y-55959954D01*
X119289949Y-55959954D01*
X119428036Y-56000499D01*
X119428038Y-56000500D01*
X119428039Y-56000500D01*
X119571962Y-56000500D01*
X119571962Y-56000499D01*
X119710053Y-55959953D01*
X119831128Y-55882143D01*
X119925377Y-55773373D01*
X119985165Y-55642457D01*
X119989573Y-55611795D01*
X120018594Y-55548244D01*
X120024615Y-55541776D01*
X121820480Y-53745913D01*
X121873207Y-53654588D01*
X121900500Y-53552727D01*
X121900500Y-53447273D01*
X121900500Y-30057254D01*
X121920185Y-29990215D01*
X121936814Y-29969578D01*
X126919834Y-24986557D01*
X126981155Y-24953074D01*
X127043509Y-24955580D01*
X127143865Y-24986023D01*
X127143867Y-24986024D01*
X127163184Y-24987926D01*
X127340000Y-25005341D01*
X127536132Y-24986024D01*
X127724727Y-24928814D01*
X127743094Y-24918997D01*
X127819365Y-24878229D01*
X127898538Y-24835910D01*
X128050883Y-24710883D01*
X128175910Y-24558538D01*
X128235893Y-24446317D01*
X128268811Y-24384733D01*
X128268811Y-24384732D01*
X128268814Y-24384727D01*
X128326024Y-24196132D01*
X128345341Y-24000000D01*
X128874659Y-24000000D01*
X128893975Y-24196129D01*
X128893976Y-24196132D01*
X128945613Y-24366357D01*
X128951188Y-24384733D01*
X129044086Y-24558532D01*
X129044090Y-24558539D01*
X129169116Y-24710883D01*
X129321460Y-24835909D01*
X129321467Y-24835913D01*
X129495266Y-24928811D01*
X129495269Y-24928811D01*
X129495273Y-24928814D01*
X129683868Y-24986024D01*
X129880000Y-25005341D01*
X130076132Y-24986024D01*
X130264727Y-24928814D01*
X130283094Y-24918997D01*
X130359365Y-24878229D01*
X130438538Y-24835910D01*
X130590883Y-24710883D01*
X130715910Y-24558538D01*
X130775893Y-24446317D01*
X130808811Y-24384733D01*
X130808811Y-24384732D01*
X130808814Y-24384727D01*
X130866024Y-24196132D01*
X130885341Y-24000000D01*
X130866024Y-23803868D01*
X130808814Y-23615273D01*
X130808811Y-23615269D01*
X130808811Y-23615266D01*
X130715913Y-23441467D01*
X130715909Y-23441460D01*
X130590883Y-23289116D01*
X130438539Y-23164090D01*
X130438532Y-23164086D01*
X130264733Y-23071188D01*
X130264727Y-23071186D01*
X130076132Y-23013976D01*
X130076129Y-23013975D01*
X129880000Y-22994659D01*
X129683870Y-23013975D01*
X129495266Y-23071188D01*
X129321467Y-23164086D01*
X129321460Y-23164090D01*
X129169116Y-23289116D01*
X129044090Y-23441460D01*
X129044086Y-23441467D01*
X128951188Y-23615266D01*
X128893975Y-23803870D01*
X128874659Y-24000000D01*
X128345341Y-24000000D01*
X128326024Y-23803868D01*
X128268814Y-23615273D01*
X128268811Y-23615269D01*
X128268811Y-23615266D01*
X128175913Y-23441467D01*
X128175909Y-23441460D01*
X128050883Y-23289116D01*
X127898539Y-23164090D01*
X127898532Y-23164086D01*
X127724733Y-23071188D01*
X127724727Y-23071186D01*
X127536132Y-23013976D01*
X127536129Y-23013975D01*
X127340000Y-22994659D01*
X127143870Y-23013975D01*
X126955266Y-23071188D01*
X126781467Y-23164086D01*
X126781460Y-23164090D01*
X126629116Y-23289116D01*
X126504090Y-23441460D01*
X126504086Y-23441467D01*
X126411188Y-23615266D01*
X126353975Y-23803870D01*
X126334659Y-24000000D01*
X126353975Y-24196130D01*
X126384419Y-24296490D01*
X126385042Y-24366357D01*
X126353439Y-24420166D01*
X126243319Y-24530286D01*
X126181996Y-24563771D01*
X126112304Y-24558787D01*
X126056371Y-24516915D01*
X126031954Y-24451451D01*
X126035863Y-24410511D01*
X126078872Y-24250000D01*
X125233012Y-24250000D01*
X125265925Y-24192993D01*
X125300000Y-24065826D01*
X125300000Y-23934174D01*
X125265925Y-23807007D01*
X125233012Y-23750000D01*
X126078872Y-23750000D01*
X126078872Y-23749999D01*
X126026269Y-23553682D01*
X126026265Y-23553673D01*
X125930134Y-23347517D01*
X125799657Y-23161179D01*
X125638820Y-23000342D01*
X125452482Y-22869865D01*
X125246328Y-22773734D01*
X125050000Y-22721127D01*
X125050000Y-23566988D01*
X124992993Y-23534075D01*
X124865826Y-23500000D01*
X124734174Y-23500000D01*
X124607007Y-23534075D01*
X124550000Y-23566988D01*
X124550000Y-22721127D01*
X124353671Y-22773734D01*
X124147517Y-22869865D01*
X123961179Y-23000342D01*
X123800342Y-23161179D01*
X123669865Y-23347517D01*
X123642382Y-23406457D01*
X123596210Y-23458896D01*
X123529016Y-23478048D01*
X123462135Y-23457832D01*
X123417618Y-23406457D01*
X123390134Y-23347517D01*
X123259657Y-23161179D01*
X123098820Y-23000342D01*
X122912482Y-22869865D01*
X122706328Y-22773734D01*
X122510000Y-22721127D01*
X122510000Y-23566988D01*
X122452993Y-23534075D01*
X122325826Y-23500000D01*
X122194174Y-23500000D01*
X122067007Y-23534075D01*
X122010000Y-23566988D01*
X122010000Y-22721127D01*
X121813671Y-22773734D01*
X121607517Y-22869865D01*
X121421179Y-23000342D01*
X121260342Y-23161179D01*
X121129865Y-23347517D01*
X121033734Y-23553673D01*
X121033730Y-23553682D01*
X120981127Y-23749999D01*
X120981128Y-23750000D01*
X121826988Y-23750000D01*
X121794075Y-23807007D01*
X121760000Y-23934174D01*
X121760000Y-24065826D01*
X121794075Y-24192993D01*
X121826988Y-24250000D01*
X120981128Y-24250000D01*
X121033730Y-24446317D01*
X121033734Y-24446326D01*
X121129865Y-24652482D01*
X121260342Y-24838820D01*
X121421179Y-24999657D01*
X121607517Y-25130134D01*
X121813673Y-25226265D01*
X121813682Y-25226269D01*
X122009999Y-25278872D01*
X122010000Y-25278871D01*
X122010000Y-24433012D01*
X122067007Y-24465925D01*
X122194174Y-24500000D01*
X122325826Y-24500000D01*
X122452993Y-24465925D01*
X122510000Y-24433012D01*
X122510000Y-25278872D01*
X122706317Y-25226269D01*
X122706326Y-25226265D01*
X122912482Y-25130134D01*
X123098820Y-24999657D01*
X123259657Y-24838820D01*
X123390134Y-24652481D01*
X123390135Y-24652479D01*
X123417618Y-24593543D01*
X123463790Y-24541103D01*
X123530983Y-24521951D01*
X123597864Y-24542166D01*
X123642382Y-24593543D01*
X123669864Y-24652479D01*
X123669865Y-24652481D01*
X123800342Y-24838820D01*
X123961179Y-24999657D01*
X124147517Y-25130134D01*
X124353673Y-25226265D01*
X124353682Y-25226269D01*
X124549999Y-25278872D01*
X124550000Y-25278871D01*
X124550000Y-24433012D01*
X124607007Y-24465925D01*
X124734174Y-24500000D01*
X124865826Y-24500000D01*
X124992993Y-24465925D01*
X125050000Y-24433012D01*
X125050000Y-25278871D01*
X125210512Y-25235863D01*
X125280362Y-25237526D01*
X125338225Y-25276688D01*
X125365729Y-25340917D01*
X125354143Y-25409819D01*
X125330287Y-25443319D01*
X121179522Y-29594084D01*
X121179520Y-29594087D01*
X121126793Y-29685410D01*
X121099500Y-29787273D01*
X121099500Y-53282745D01*
X121079815Y-53349784D01*
X121063181Y-53370426D01*
X119459009Y-54974597D01*
X119406263Y-55005893D01*
X119289949Y-55040045D01*
X119168873Y-55117856D01*
X119074623Y-55226626D01*
X119074622Y-55226628D01*
X119014834Y-55357543D01*
X118994353Y-55500000D01*
X114170500Y-55500000D01*
X114170500Y-53008982D01*
X114141503Y-52900763D01*
X114085485Y-52803737D01*
X114006263Y-52724515D01*
X113524699Y-52242951D01*
X113491214Y-52181628D01*
X113493719Y-52119274D01*
X113506747Y-52076331D01*
X113525099Y-51890000D01*
X113506747Y-51703669D01*
X113452396Y-51524499D01*
X113440582Y-51502396D01*
X113364137Y-51359376D01*
X113364135Y-51359373D01*
X113245357Y-51214642D01*
X113192929Y-51171616D01*
X113153595Y-51113871D01*
X113151724Y-51044026D01*
X113187911Y-50984258D01*
X113209576Y-50968386D01*
X113212400Y-50966756D01*
X113215016Y-50965580D01*
X113221640Y-50961486D01*
X113223902Y-50960133D01*
X113224987Y-50959128D01*
X113228111Y-50955637D01*
X113248847Y-50934901D01*
X113302485Y-50881263D01*
X113302487Y-50881259D01*
X113309545Y-50874201D01*
X113309554Y-50874190D01*
X120298606Y-43884842D01*
X120331821Y-43851626D01*
X120334148Y-43849719D01*
X120339096Y-43844442D01*
X120340762Y-43842721D01*
X120342521Y-43839874D01*
X120343164Y-43838897D01*
X120344915Y-43835289D01*
X120371665Y-43788957D01*
X120396503Y-43745937D01*
X120396503Y-43745935D01*
X120396977Y-43745115D01*
X120398048Y-43740172D01*
X120412541Y-43686081D01*
X120424555Y-43641244D01*
X120425443Y-43638286D01*
X120425500Y-43637898D01*
X120425500Y-43637712D01*
X120425501Y-43637709D01*
X120425500Y-43581691D01*
X120425500Y-37300077D01*
X120436706Y-37248565D01*
X120438498Y-37244642D01*
X120485165Y-37142457D01*
X120505647Y-37000000D01*
X120485165Y-36857543D01*
X120475411Y-36836186D01*
X120436706Y-36751432D01*
X120425500Y-36699921D01*
X120425500Y-34943984D01*
X120425500Y-34943982D01*
X120396503Y-34835763D01*
X120340485Y-34738737D01*
X120261263Y-34659515D01*
X114761263Y-29159515D01*
X114664237Y-29103497D01*
X114556018Y-29074500D01*
X114556017Y-29074500D01*
X109010106Y-29074500D01*
X108954087Y-29074486D01*
X108954086Y-29074486D01*
X108954083Y-29074486D01*
X108953985Y-29074498D01*
X108916760Y-29084472D01*
X108901110Y-29088666D01*
X108845861Y-29103456D01*
X108845860Y-29103456D01*
X108845821Y-29103467D01*
X108845796Y-29103477D01*
X108797241Y-29131510D01*
X108797218Y-29131523D01*
X108748777Y-29159474D01*
X108748769Y-29159481D01*
X108708500Y-29199751D01*
X108708478Y-29199773D01*
X107744190Y-30163581D01*
X107744003Y-30163747D01*
X107699922Y-30207828D01*
X107659543Y-30248187D01*
X107659539Y-30248193D01*
X107631266Y-30297164D01*
X107631252Y-30297188D01*
X107603518Y-30345199D01*
X107603506Y-30345226D01*
X107588864Y-30399871D01*
X107588857Y-30399898D01*
X107574500Y-30453428D01*
X107574500Y-30509425D01*
X107574484Y-30573432D01*
X107574500Y-30573675D01*
X107574500Y-35680653D01*
X107574491Y-35736656D01*
X107574499Y-35736715D01*
X107577674Y-35748565D01*
X107589006Y-35790858D01*
X107592924Y-35805489D01*
X107603482Y-35844911D01*
X107603496Y-35844936D01*
X107603497Y-35844937D01*
X107632576Y-35895303D01*
X107641421Y-35910628D01*
X107659479Y-35941918D01*
X107659512Y-35941961D01*
X107698282Y-35980730D01*
X107698292Y-35980749D01*
X107698297Y-35980745D01*
X108468745Y-36751432D01*
X108623103Y-36905837D01*
X108623215Y-36905964D01*
X108668846Y-36951594D01*
X108668856Y-36951612D01*
X108668860Y-36951609D01*
X108707686Y-36990446D01*
X108707713Y-36990467D01*
X108707734Y-36990483D01*
X108756621Y-37018708D01*
X108756638Y-37018718D01*
X108803940Y-37046038D01*
X108804732Y-37046507D01*
X108804737Y-37046509D01*
X108805758Y-37046769D01*
X108858697Y-37060953D01*
X108858715Y-37060964D01*
X108858717Y-37060959D01*
X108912916Y-37075491D01*
X108912921Y-37075491D01*
X108912966Y-37075497D01*
X108912975Y-37075498D01*
X108912982Y-37075500D01*
X108968933Y-37075500D01*
X108968941Y-37075500D01*
X109024952Y-37075509D01*
X109024956Y-37075507D01*
X109032892Y-37075509D01*
X109033047Y-37075500D01*
X109105351Y-37075500D01*
X109172390Y-37095185D01*
X109214708Y-37141045D01*
X109235863Y-37180623D01*
X109235866Y-37180628D01*
X109354642Y-37325357D01*
X109499373Y-37444135D01*
X109499376Y-37444137D01*
X109664497Y-37532395D01*
X109664499Y-37532396D01*
X109843666Y-37586746D01*
X109843668Y-37586747D01*
X109860374Y-37588392D01*
X110030000Y-37605099D01*
X110216331Y-37586747D01*
X110395501Y-37532396D01*
X110560625Y-37444136D01*
X110705357Y-37325357D01*
X110824136Y-37180625D01*
X110912396Y-37015501D01*
X110966747Y-36836331D01*
X110985099Y-36650000D01*
X110966747Y-36463669D01*
X110912396Y-36284499D01*
X110847077Y-36162294D01*
X110824137Y-36119376D01*
X110824135Y-36119373D01*
X110732868Y-36008165D01*
X110705555Y-35943855D01*
X110717346Y-35874988D01*
X110764498Y-35823427D01*
X110828721Y-35805500D01*
X111645351Y-35805500D01*
X111712390Y-35825185D01*
X111754708Y-35871045D01*
X111775863Y-35910623D01*
X111775866Y-35910628D01*
X111894642Y-36055357D01*
X112039373Y-36174135D01*
X112039376Y-36174137D01*
X112133600Y-36224500D01*
X112204499Y-36262396D01*
X112383666Y-36316746D01*
X112383668Y-36316747D01*
X112400374Y-36318392D01*
X112570000Y-36335099D01*
X112756331Y-36316747D01*
X112935501Y-36262396D01*
X113100625Y-36174136D01*
X113245357Y-36055357D01*
X113364136Y-35910625D01*
X113452396Y-35745501D01*
X113506747Y-35566331D01*
X113525099Y-35380000D01*
X113506747Y-35193669D01*
X113452396Y-35014499D01*
X113452395Y-35014497D01*
X113364137Y-34849376D01*
X113364135Y-34849373D01*
X113245357Y-34704642D01*
X113191390Y-34660353D01*
X113152056Y-34602608D01*
X113150185Y-34532763D01*
X113186372Y-34472995D01*
X113249128Y-34442279D01*
X113270055Y-34440500D01*
X113868299Y-34440500D01*
X113935338Y-34460185D01*
X113956002Y-34476840D01*
X114342207Y-34863264D01*
X114375674Y-34924594D01*
X114378500Y-34950918D01*
X114378500Y-43429022D01*
X114358815Y-43496061D01*
X114342191Y-43516694D01*
X112781046Y-45078172D01*
X112719726Y-45111663D01*
X112693355Y-45114500D01*
X110954649Y-45114500D01*
X110887610Y-45094815D01*
X110845291Y-45048954D01*
X110824136Y-45009375D01*
X110816697Y-45000310D01*
X110705357Y-44864642D01*
X110560626Y-44745864D01*
X110560623Y-44745862D01*
X110395502Y-44657604D01*
X110216333Y-44603253D01*
X110216331Y-44603252D01*
X110030000Y-44584901D01*
X109843668Y-44603252D01*
X109843666Y-44603253D01*
X109664497Y-44657604D01*
X109499376Y-44745862D01*
X109499373Y-44745864D01*
X109354642Y-44864642D01*
X109235864Y-45009373D01*
X109235862Y-45009376D01*
X109147604Y-45174497D01*
X109093253Y-45353666D01*
X109093252Y-45353668D01*
X109074901Y-45540000D01*
X109093252Y-45726331D01*
X109093253Y-45726333D01*
X109147604Y-45905502D01*
X109235862Y-46070623D01*
X109235864Y-46070626D01*
X109354642Y-46215357D01*
X109499373Y-46334135D01*
X109499376Y-46334137D01*
X109606799Y-46391555D01*
X109664499Y-46422396D01*
X109778675Y-46457031D01*
X109843666Y-46476746D01*
X109843668Y-46476747D01*
X109860374Y-46478392D01*
X110030000Y-46495099D01*
X110216331Y-46476747D01*
X110395501Y-46422396D01*
X110560625Y-46334136D01*
X110705357Y-46215357D01*
X110824136Y-46070625D01*
X110845291Y-46031045D01*
X110894253Y-45981203D01*
X110954649Y-45965500D01*
X111771279Y-45965500D01*
X111838318Y-45985185D01*
X111884073Y-46037989D01*
X111894017Y-46107147D01*
X111867132Y-46168165D01*
X111775864Y-46279373D01*
X111775862Y-46279376D01*
X111687604Y-46444497D01*
X111633253Y-46623666D01*
X111633252Y-46623668D01*
X111614901Y-46810000D01*
X111633252Y-46996331D01*
X111633253Y-46996333D01*
X111687604Y-47175502D01*
X111775862Y-47340623D01*
X111775864Y-47340626D01*
X111894642Y-47485357D01*
X112039373Y-47604135D01*
X112039376Y-47604137D01*
X112180664Y-47679656D01*
X112204499Y-47692396D01*
X112350760Y-47736764D01*
X112383666Y-47746746D01*
X112383668Y-47746747D01*
X112400374Y-47748392D01*
X112570000Y-47765099D01*
X112756331Y-47746747D01*
X112935501Y-47692396D01*
X113100625Y-47604136D01*
X113245357Y-47485357D01*
X113364136Y-47340625D01*
X113452396Y-47175501D01*
X113506747Y-46996331D01*
X113525099Y-46810000D01*
X113506747Y-46623669D01*
X113493713Y-46580705D01*
X113493091Y-46510840D01*
X113524690Y-46457033D01*
X115742122Y-44239526D01*
X115793231Y-44188416D01*
X115794747Y-44186944D01*
X115796522Y-44184072D01*
X115797168Y-44183091D01*
X115798924Y-44179474D01*
X115817674Y-44146999D01*
X115827704Y-44129627D01*
X115850505Y-44090133D01*
X115870005Y-44017355D01*
X115871551Y-44011582D01*
X115878550Y-43985462D01*
X115879443Y-43982488D01*
X115879500Y-43982098D01*
X115879500Y-43981914D01*
X115879501Y-43981911D01*
X115879500Y-43902500D01*
X115879500Y-34440496D01*
X115879502Y-34398094D01*
X115879500Y-34398089D01*
X115879501Y-34398087D01*
X115867755Y-34354252D01*
X115867753Y-34354245D01*
X115852050Y-34295632D01*
X115850968Y-34290639D01*
X115850799Y-34290097D01*
X115848521Y-34286430D01*
X115816270Y-34230569D01*
X115816269Y-34230568D01*
X115794521Y-34192898D01*
X115794492Y-34192847D01*
X115794490Y-34192845D01*
X115794489Y-34192843D01*
X115794483Y-34192835D01*
X115746567Y-34144919D01*
X114187556Y-32585810D01*
X114187542Y-32585794D01*
X114149195Y-32547447D01*
X114101274Y-32499523D01*
X114101273Y-32499522D01*
X114101269Y-32499518D01*
X114056545Y-32473697D01*
X114032741Y-32459953D01*
X114005026Y-32443950D01*
X114004303Y-32443524D01*
X114004238Y-32443497D01*
X113949629Y-32428865D01*
X113949626Y-32428864D01*
X113896033Y-32414502D01*
X113896022Y-32414500D01*
X113896018Y-32414500D01*
X113840014Y-32414500D01*
X113783995Y-32414498D01*
X113783994Y-32414498D01*
X113775371Y-32414498D01*
X113775343Y-32414500D01*
X113494649Y-32414500D01*
X113427610Y-32394815D01*
X113385291Y-32348954D01*
X113364136Y-32309375D01*
X113364133Y-32309371D01*
X113245357Y-32164642D01*
X113100626Y-32045864D01*
X113100623Y-32045862D01*
X112935502Y-31957604D01*
X112756333Y-31903253D01*
X112756331Y-31903252D01*
X112570000Y-31884901D01*
X112383668Y-31903252D01*
X112383666Y-31903253D01*
X112204497Y-31957604D01*
X112039376Y-32045862D01*
X112039373Y-32045864D01*
X111894642Y-32164642D01*
X111775864Y-32309373D01*
X111775862Y-32309376D01*
X111687604Y-32474497D01*
X111633253Y-32653666D01*
X111633252Y-32653668D01*
X111631183Y-32674683D01*
X111605021Y-32739470D01*
X111547987Y-32779829D01*
X111478186Y-32782945D01*
X111420092Y-32750203D01*
X110870508Y-32200538D01*
X110837028Y-32139212D01*
X110842017Y-32069521D01*
X110848838Y-32054410D01*
X110869737Y-32015310D01*
X110912396Y-31935501D01*
X110966747Y-31756331D01*
X110985099Y-31570000D01*
X110966747Y-31383669D01*
X110912396Y-31204499D01*
X110884688Y-31152661D01*
X110824137Y-31039376D01*
X110824135Y-31039373D01*
X110810833Y-31023165D01*
X110783520Y-30958856D01*
X110795311Y-30889988D01*
X110842463Y-30838428D01*
X110906686Y-30820500D01*
X113667390Y-30820500D01*
X113734429Y-30840185D01*
X113755071Y-30856819D01*
X118481699Y-35583446D01*
X118512994Y-35636187D01*
X118514835Y-35642457D01*
X118561894Y-35745501D01*
X118563294Y-35748565D01*
X118574500Y-35800077D01*
X118574500Y-42692389D01*
X118554815Y-42759428D01*
X118538181Y-42780070D01*
X112922951Y-48395300D01*
X112861628Y-48428785D01*
X112799276Y-48426280D01*
X112756329Y-48413252D01*
X112756330Y-48413252D01*
X112588351Y-48396708D01*
X112570000Y-48394901D01*
X112569999Y-48394901D01*
X112383668Y-48413252D01*
X112383666Y-48413253D01*
X112204497Y-48467604D01*
X112039376Y-48555862D01*
X112039373Y-48555864D01*
X111894642Y-48674642D01*
X111775864Y-48819373D01*
X111775862Y-48819376D01*
X111687604Y-48984497D01*
X111633253Y-49163666D01*
X111633252Y-49163668D01*
X111614901Y-49350000D01*
X111633252Y-49536331D01*
X111633253Y-49536333D01*
X111687604Y-49715502D01*
X111775862Y-49880623D01*
X111775864Y-49880626D01*
X111867132Y-49991835D01*
X111894445Y-50056145D01*
X111882654Y-50125012D01*
X111835502Y-50176573D01*
X111771279Y-50194500D01*
X110954649Y-50194500D01*
X110887610Y-50174815D01*
X110845291Y-50128954D01*
X110824136Y-50089375D01*
X110824133Y-50089371D01*
X110705357Y-49944642D01*
X110560626Y-49825864D01*
X110560623Y-49825862D01*
X110395502Y-49737604D01*
X110216333Y-49683253D01*
X110216331Y-49683252D01*
X110030000Y-49664901D01*
X109843668Y-49683252D01*
X109843666Y-49683253D01*
X109664497Y-49737604D01*
X109499376Y-49825862D01*
X109499373Y-49825864D01*
X109354642Y-49944642D01*
X109235864Y-50089373D01*
X109235862Y-50089376D01*
X109147604Y-50254497D01*
X109093253Y-50433666D01*
X109093252Y-50433668D01*
X109074901Y-50620000D01*
X109093252Y-50806331D01*
X109093253Y-50806333D01*
X109147604Y-50985502D01*
X109235862Y-51150623D01*
X109235864Y-51150626D01*
X109354642Y-51295357D01*
X109408610Y-51339647D01*
X109447944Y-51397392D01*
X109449815Y-51467237D01*
X109413628Y-51527005D01*
X109350872Y-51557721D01*
X109329945Y-51559500D01*
X108699500Y-51559500D01*
X108632461Y-51539815D01*
X108586706Y-51487011D01*
X108575500Y-51435500D01*
X108575500Y-48423235D01*
X108595185Y-48356196D01*
X108647989Y-48310441D01*
X108717147Y-48300497D01*
X108780703Y-48329522D01*
X108818477Y-48388300D01*
X108819275Y-48391142D01*
X108850894Y-48509150D01*
X108850898Y-48509159D01*
X108943333Y-48707387D01*
X108986874Y-48769571D01*
X109587861Y-48168584D01*
X109610667Y-48253694D01*
X109669910Y-48356306D01*
X109753694Y-48440090D01*
X109856306Y-48499333D01*
X109941414Y-48522137D01*
X109340427Y-49123124D01*
X109402612Y-49166666D01*
X109600840Y-49259101D01*
X109600849Y-49259105D01*
X109812105Y-49315710D01*
X109812115Y-49315712D01*
X110029999Y-49334775D01*
X110030001Y-49334775D01*
X110247884Y-49315712D01*
X110247894Y-49315710D01*
X110459150Y-49259105D01*
X110459164Y-49259100D01*
X110657383Y-49166669D01*
X110657385Y-49166668D01*
X110719571Y-49123124D01*
X110118585Y-48522137D01*
X110203694Y-48499333D01*
X110306306Y-48440090D01*
X110390090Y-48356306D01*
X110449333Y-48253694D01*
X110472138Y-48168584D01*
X111073124Y-48769570D01*
X111116668Y-48707385D01*
X111116669Y-48707383D01*
X111209100Y-48509164D01*
X111209105Y-48509150D01*
X111265710Y-48297894D01*
X111265712Y-48297884D01*
X111284775Y-48080000D01*
X111284775Y-48079999D01*
X111265712Y-47862115D01*
X111265710Y-47862105D01*
X111209105Y-47650849D01*
X111209101Y-47650840D01*
X111116667Y-47452614D01*
X111116666Y-47452612D01*
X111073124Y-47390428D01*
X111073124Y-47390427D01*
X110472137Y-47991414D01*
X110449333Y-47906306D01*
X110390090Y-47803694D01*
X110306306Y-47719910D01*
X110203694Y-47660667D01*
X110118584Y-47637861D01*
X110719571Y-47036874D01*
X110657387Y-46993333D01*
X110459159Y-46900898D01*
X110459150Y-46900894D01*
X110247894Y-46844289D01*
X110247884Y-46844287D01*
X110030001Y-46825225D01*
X110029999Y-46825225D01*
X109812115Y-46844287D01*
X109812105Y-46844289D01*
X109600849Y-46900894D01*
X109600840Y-46900898D01*
X109402613Y-46993333D01*
X109340428Y-47036874D01*
X109941415Y-47637861D01*
X109856306Y-47660667D01*
X109753694Y-47719910D01*
X109669910Y-47803694D01*
X109610667Y-47906306D01*
X109587861Y-47991415D01*
X108986874Y-47390428D01*
X108943333Y-47452613D01*
X108850898Y-47650840D01*
X108850894Y-47650849D01*
X108819275Y-47768857D01*
X108782910Y-47828518D01*
X108720063Y-47859047D01*
X108650688Y-47850752D01*
X108596810Y-47806267D01*
X108575535Y-47739715D01*
X108575500Y-47736764D01*
X108575500Y-42216789D01*
X108595185Y-42149750D01*
X108611813Y-42129113D01*
X108831059Y-41909839D01*
X109344085Y-41396746D01*
X109818945Y-40921824D01*
X109880266Y-40888336D01*
X109906632Y-40885500D01*
X111645351Y-40885500D01*
X111712390Y-40905185D01*
X111754708Y-40951045D01*
X111765903Y-40971989D01*
X111775866Y-40990628D01*
X111894642Y-41135357D01*
X112039373Y-41254135D01*
X112039376Y-41254137D01*
X112204497Y-41342395D01*
X112204499Y-41342396D01*
X112383666Y-41396746D01*
X112383668Y-41396747D01*
X112400374Y-41398392D01*
X112570000Y-41415099D01*
X112756331Y-41396747D01*
X112935501Y-41342396D01*
X113100625Y-41254136D01*
X113245357Y-41135357D01*
X113364136Y-40990625D01*
X113452396Y-40825501D01*
X113506747Y-40646331D01*
X113525099Y-40460000D01*
X113506747Y-40273669D01*
X113452396Y-40094499D01*
X113452395Y-40094497D01*
X113364137Y-39929376D01*
X113364135Y-39929373D01*
X113245357Y-39784642D01*
X113100626Y-39665864D01*
X113100623Y-39665862D01*
X112935502Y-39577604D01*
X112756333Y-39523253D01*
X112756331Y-39523252D01*
X112570000Y-39504901D01*
X112383668Y-39523252D01*
X112383666Y-39523253D01*
X112204497Y-39577604D01*
X112039376Y-39665862D01*
X112039373Y-39665864D01*
X111894642Y-39784642D01*
X111775866Y-39929371D01*
X111775864Y-39929375D01*
X111754708Y-39968954D01*
X111705747Y-40018797D01*
X111645351Y-40034500D01*
X110828721Y-40034500D01*
X110761682Y-40014815D01*
X110715927Y-39962011D01*
X110705983Y-39892853D01*
X110732868Y-39831835D01*
X110824135Y-39720626D01*
X110824137Y-39720623D01*
X110853407Y-39665862D01*
X110912396Y-39555501D01*
X110966747Y-39376331D01*
X110985099Y-39190000D01*
X110966747Y-39003669D01*
X110912396Y-38824499D01*
X110824136Y-38659375D01*
X110824135Y-38659373D01*
X110705357Y-38514642D01*
X110560626Y-38395864D01*
X110560623Y-38395862D01*
X110395502Y-38307604D01*
X110216333Y-38253253D01*
X110216331Y-38253252D01*
X110030000Y-38234901D01*
X109843668Y-38253252D01*
X109843666Y-38253253D01*
X109664497Y-38307604D01*
X109499376Y-38395862D01*
X109499373Y-38395864D01*
X109354642Y-38514642D01*
X109235864Y-38659373D01*
X109235862Y-38659376D01*
X109147604Y-38824497D01*
X109093253Y-39003666D01*
X109093252Y-39003668D01*
X109074901Y-39190000D01*
X109093252Y-39376329D01*
X109106280Y-39419275D01*
X109106903Y-39489142D01*
X109075300Y-39542951D01*
X107221295Y-41396955D01*
X107221296Y-41396956D01*
X107159514Y-41458738D01*
X107159513Y-41458740D01*
X107103498Y-41555760D01*
X107103497Y-41555763D01*
X107074500Y-41663982D01*
X107074500Y-52190198D01*
X107074483Y-52190462D01*
X107074500Y-52254311D01*
X107074500Y-52310276D01*
X107088154Y-52361178D01*
X107088158Y-52361210D01*
X107088162Y-52361210D01*
X107103496Y-52418435D01*
X107103539Y-52418539D01*
X107131550Y-52467027D01*
X107131558Y-52467057D01*
X107131565Y-52467054D01*
X107159520Y-52515471D01*
X107159571Y-52515538D01*
X107159580Y-52515550D01*
X107199521Y-52555469D01*
X107199546Y-52555494D01*
X107244269Y-52600218D01*
X107244466Y-52600391D01*
X107579887Y-52935635D01*
X107619738Y-52975486D01*
X107619824Y-52975552D01*
X107667697Y-53003174D01*
X107667722Y-53003201D01*
X107667728Y-53003192D01*
X107716763Y-53031503D01*
X107716766Y-53031503D01*
X107716791Y-53031518D01*
X107716833Y-53031536D01*
X107716864Y-53031544D01*
X107716867Y-53031546D01*
X107771660Y-53046212D01*
X107771685Y-53046228D01*
X107771688Y-53046220D01*
X107824982Y-53060500D01*
X107824983Y-53060500D01*
X107825084Y-53060512D01*
X107825093Y-53060515D01*
X107881111Y-53060500D01*
X108952714Y-53060500D01*
X109019753Y-53080185D01*
X109065508Y-53132989D01*
X109076117Y-53172346D01*
X109093252Y-53346331D01*
X109093253Y-53346333D01*
X109147604Y-53525502D01*
X109235862Y-53690623D01*
X109235864Y-53690626D01*
X109354642Y-53835357D01*
X109499373Y-53954135D01*
X109499376Y-53954137D01*
X109664497Y-54042395D01*
X109664499Y-54042396D01*
X109843666Y-54096746D01*
X109843668Y-54096747D01*
X109860374Y-54098392D01*
X110030000Y-54115099D01*
X110216331Y-54096747D01*
X110395501Y-54042396D01*
X110560625Y-53954136D01*
X110705357Y-53835357D01*
X110824136Y-53690625D01*
X110912396Y-53525501D01*
X110966747Y-53346331D01*
X110968816Y-53325320D01*
X110994974Y-53260533D01*
X111052008Y-53220172D01*
X111121808Y-53217053D01*
X111179906Y-53249795D01*
X111276426Y-53346329D01*
X111729491Y-53799461D01*
X111762971Y-53860787D01*
X111757982Y-53930478D01*
X111751162Y-53945588D01*
X111687603Y-54064499D01*
X111633253Y-54243666D01*
X111633252Y-54243668D01*
X111614901Y-54430000D01*
X111633252Y-54616331D01*
X111633253Y-54616333D01*
X111687604Y-54795502D01*
X111775862Y-54960623D01*
X111775864Y-54960626D01*
X111894642Y-55105357D01*
X112039373Y-55224135D01*
X112039376Y-55224137D01*
X112193816Y-55306686D01*
X112204499Y-55312396D01*
X112353328Y-55357543D01*
X112383666Y-55366746D01*
X112383668Y-55366747D01*
X112400374Y-55368392D01*
X112570000Y-55385099D01*
X112756331Y-55366747D01*
X112935501Y-55312396D01*
X113100625Y-55224136D01*
X113116835Y-55210833D01*
X113181144Y-55183520D01*
X113250012Y-55195311D01*
X113301572Y-55242463D01*
X113319500Y-55306686D01*
X113319500Y-57950500D01*
X113299815Y-58017539D01*
X113247011Y-58063294D01*
X113195500Y-58074500D01*
X101370695Y-58074500D01*
X101303656Y-58054815D01*
X101258313Y-58002905D01*
X101174035Y-57822171D01*
X101174034Y-57822169D01*
X101038494Y-57628597D01*
X100871402Y-57461506D01*
X100871395Y-57461501D01*
X100677834Y-57325967D01*
X100677830Y-57325965D01*
X100677828Y-57325964D01*
X100463663Y-57226097D01*
X100463659Y-57226096D01*
X100463655Y-57226094D01*
X100235413Y-57164938D01*
X100235403Y-57164936D01*
X100000001Y-57144341D01*
X99999999Y-57144341D01*
X99764596Y-57164936D01*
X99764586Y-57164938D01*
X99536344Y-57226094D01*
X99536337Y-57226096D01*
X99536337Y-57226097D01*
X99535198Y-57226628D01*
X99322171Y-57325964D01*
X99322169Y-57325965D01*
X99128597Y-57461505D01*
X98961505Y-57628597D01*
X98825965Y-57822169D01*
X98825964Y-57822171D01*
X98726098Y-58036335D01*
X98726094Y-58036344D01*
X98664938Y-58264586D01*
X98664936Y-58264596D01*
X98644341Y-58499999D01*
X97230500Y-58499999D01*
X97230500Y-55577065D01*
X101804500Y-55577065D01*
X101804500Y-55822934D01*
X101822540Y-55959953D01*
X101836591Y-56066677D01*
X101836592Y-56066679D01*
X101900222Y-56304152D01*
X101900225Y-56304162D01*
X101994303Y-56531285D01*
X101994306Y-56531292D01*
X102117233Y-56744208D01*
X102117235Y-56744211D01*
X102117236Y-56744212D01*
X102266897Y-56939254D01*
X102266903Y-56939261D01*
X102440738Y-57113096D01*
X102440745Y-57113102D01*
X102508298Y-57164937D01*
X102635792Y-57262767D01*
X102848708Y-57385694D01*
X103075847Y-57479778D01*
X103313323Y-57543409D01*
X103557073Y-57575500D01*
X103557080Y-57575500D01*
X103802920Y-57575500D01*
X103802927Y-57575500D01*
X104046677Y-57543409D01*
X104284153Y-57479778D01*
X104511292Y-57385694D01*
X104724208Y-57262767D01*
X104919256Y-57113101D01*
X105093101Y-56939256D01*
X105242767Y-56744208D01*
X105365694Y-56531292D01*
X105459778Y-56304153D01*
X105523409Y-56066677D01*
X105555500Y-55822927D01*
X105555500Y-55577073D01*
X105523409Y-55333323D01*
X105459778Y-55095847D01*
X105365694Y-54868708D01*
X105242767Y-54655792D01*
X105093101Y-54460744D01*
X105093096Y-54460738D01*
X104919261Y-54286903D01*
X104919254Y-54286897D01*
X104724212Y-54137236D01*
X104724211Y-54137235D01*
X104724208Y-54137233D01*
X104511292Y-54014306D01*
X104511285Y-54014303D01*
X104284162Y-53920225D01*
X104284155Y-53920223D01*
X104284153Y-53920222D01*
X104046677Y-53856591D01*
X104005939Y-53851227D01*
X103802934Y-53824500D01*
X103802927Y-53824500D01*
X103557073Y-53824500D01*
X103557065Y-53824500D01*
X103325059Y-53855045D01*
X103313323Y-53856591D01*
X103153650Y-53899375D01*
X103075847Y-53920222D01*
X103075837Y-53920225D01*
X102848714Y-54014303D01*
X102848705Y-54014307D01*
X102635787Y-54137236D01*
X102440745Y-54286897D01*
X102440738Y-54286903D01*
X102266903Y-54460738D01*
X102266897Y-54460745D01*
X102117236Y-54655787D01*
X101994307Y-54868705D01*
X101994303Y-54868714D01*
X101900225Y-55095837D01*
X101900222Y-55095847D01*
X101842199Y-55312396D01*
X101836592Y-55333320D01*
X101836590Y-55333331D01*
X101804500Y-55577065D01*
X97230500Y-55577065D01*
X97230500Y-37920000D01*
X111614901Y-37920000D01*
X111633252Y-38106331D01*
X111633253Y-38106333D01*
X111687604Y-38285502D01*
X111775862Y-38450623D01*
X111775864Y-38450626D01*
X111894642Y-38595357D01*
X112039373Y-38714135D01*
X112039376Y-38714137D01*
X112204497Y-38802395D01*
X112204499Y-38802396D01*
X112383666Y-38856746D01*
X112383668Y-38856747D01*
X112400374Y-38858392D01*
X112570000Y-38875099D01*
X112756331Y-38856747D01*
X112935501Y-38802396D01*
X113100625Y-38714136D01*
X113245357Y-38595357D01*
X113364136Y-38450625D01*
X113452396Y-38285501D01*
X113506747Y-38106331D01*
X113525099Y-37920000D01*
X113506747Y-37733669D01*
X113452396Y-37554499D01*
X113364136Y-37389375D01*
X113364135Y-37389373D01*
X113245357Y-37244642D01*
X113100626Y-37125864D01*
X113100623Y-37125862D01*
X112935502Y-37037604D01*
X112756333Y-36983253D01*
X112756331Y-36983252D01*
X112570000Y-36964901D01*
X112383668Y-36983252D01*
X112383666Y-36983253D01*
X112204497Y-37037604D01*
X112039376Y-37125862D01*
X112039373Y-37125864D01*
X111894642Y-37244642D01*
X111775864Y-37389373D01*
X111775862Y-37389376D01*
X111687604Y-37554497D01*
X111633253Y-37733666D01*
X111633252Y-37733668D01*
X111614901Y-37920000D01*
X97230500Y-37920000D01*
X97230500Y-30177065D01*
X101804500Y-30177065D01*
X101804500Y-30422934D01*
X101821547Y-30552408D01*
X101836591Y-30666677D01*
X101883082Y-30840185D01*
X101900222Y-30904152D01*
X101900225Y-30904162D01*
X101956233Y-31039376D01*
X101994306Y-31131292D01*
X102117233Y-31344208D01*
X102117235Y-31344211D01*
X102117236Y-31344212D01*
X102266897Y-31539254D01*
X102266903Y-31539261D01*
X102440738Y-31713096D01*
X102440745Y-31713102D01*
X102497082Y-31756331D01*
X102635792Y-31862767D01*
X102848708Y-31985694D01*
X103075847Y-32079778D01*
X103313323Y-32143409D01*
X103557073Y-32175500D01*
X103557080Y-32175500D01*
X103802920Y-32175500D01*
X103802927Y-32175500D01*
X104046677Y-32143409D01*
X104284153Y-32079778D01*
X104511292Y-31985694D01*
X104724208Y-31862767D01*
X104919256Y-31713101D01*
X105093101Y-31539256D01*
X105242767Y-31344208D01*
X105365694Y-31131292D01*
X105459778Y-30904153D01*
X105523409Y-30666677D01*
X105555500Y-30422927D01*
X105555500Y-30177073D01*
X105523409Y-29933323D01*
X105459778Y-29695847D01*
X105365694Y-29468708D01*
X105242767Y-29255792D01*
X105147402Y-29131510D01*
X105093102Y-29060745D01*
X105093096Y-29060738D01*
X104919261Y-28886903D01*
X104919254Y-28886897D01*
X104724212Y-28737236D01*
X104724211Y-28737235D01*
X104724208Y-28737233D01*
X104511292Y-28614306D01*
X104511285Y-28614303D01*
X104284162Y-28520225D01*
X104284155Y-28520223D01*
X104284153Y-28520222D01*
X104046677Y-28456591D01*
X104005939Y-28451227D01*
X103802934Y-28424500D01*
X103802927Y-28424500D01*
X103557073Y-28424500D01*
X103557065Y-28424500D01*
X103325059Y-28455045D01*
X103313323Y-28456591D01*
X103151317Y-28500000D01*
X103075847Y-28520222D01*
X103075837Y-28520225D01*
X102848714Y-28614303D01*
X102848705Y-28614307D01*
X102635787Y-28737236D01*
X102440745Y-28886897D01*
X102440738Y-28886903D01*
X102266903Y-29060738D01*
X102266897Y-29060745D01*
X102117236Y-29255787D01*
X101994307Y-29468705D01*
X101994303Y-29468714D01*
X101900225Y-29695837D01*
X101900222Y-29695847D01*
X101872415Y-29799627D01*
X101836592Y-29933320D01*
X101836590Y-29933331D01*
X101804500Y-30177065D01*
X97230500Y-30177065D01*
X97230500Y-27499999D01*
X98644341Y-27499999D01*
X98644341Y-27500000D01*
X98664936Y-27735403D01*
X98664938Y-27735413D01*
X98726094Y-27963655D01*
X98726096Y-27963659D01*
X98726097Y-27963663D01*
X98790597Y-28101983D01*
X98825965Y-28177830D01*
X98825967Y-28177834D01*
X98929688Y-28325961D01*
X98961505Y-28371401D01*
X99128599Y-28538495D01*
X99187760Y-28579920D01*
X99322165Y-28674032D01*
X99322167Y-28674033D01*
X99322170Y-28674035D01*
X99536337Y-28773903D01*
X99764592Y-28835063D01*
X99952918Y-28851539D01*
X99999999Y-28855659D01*
X100000000Y-28855659D01*
X100000001Y-28855659D01*
X100039234Y-28852226D01*
X100235408Y-28835063D01*
X100463663Y-28773903D01*
X100677830Y-28674035D01*
X100871401Y-28538495D01*
X101038495Y-28371401D01*
X101174035Y-28177830D01*
X101273903Y-27963663D01*
X101335063Y-27735408D01*
X101355659Y-27500000D01*
X101335063Y-27264592D01*
X101273903Y-27036337D01*
X101174035Y-26822171D01*
X101038495Y-26628599D01*
X101038494Y-26628597D01*
X100871402Y-26461506D01*
X100871395Y-26461501D01*
X100677834Y-26325967D01*
X100677830Y-26325965D01*
X100648064Y-26312085D01*
X100463663Y-26226097D01*
X100463659Y-26226096D01*
X100463655Y-26226094D01*
X100235413Y-26164938D01*
X100235403Y-26164936D01*
X100000001Y-26144341D01*
X99999999Y-26144341D01*
X99764596Y-26164936D01*
X99764586Y-26164938D01*
X99536344Y-26226094D01*
X99536337Y-26226096D01*
X99536337Y-26226097D01*
X99522816Y-26232401D01*
X99322171Y-26325964D01*
X99322169Y-26325965D01*
X99128597Y-26461505D01*
X98961505Y-26628597D01*
X98825965Y-26822169D01*
X98825964Y-26822171D01*
X98726098Y-27036335D01*
X98726094Y-27036344D01*
X98664938Y-27264586D01*
X98664936Y-27264596D01*
X98644341Y-27499999D01*
X97230500Y-27499999D01*
X97230500Y-26798676D01*
X97250185Y-26731637D01*
X97266819Y-26710995D01*
X99670496Y-24307318D01*
X99670499Y-24307315D01*
X99670500Y-24307311D01*
X99670503Y-24307309D01*
X99697087Y-24261265D01*
X99700309Y-24255682D01*
X99736392Y-24193186D01*
X99746734Y-24154588D01*
X99770500Y-24065893D01*
X99770500Y-24000000D01*
X100934659Y-24000000D01*
X100953975Y-24196129D01*
X100953976Y-24196132D01*
X101005613Y-24366357D01*
X101011188Y-24384733D01*
X101104086Y-24558532D01*
X101104090Y-24558539D01*
X101229116Y-24710883D01*
X101381460Y-24835909D01*
X101381467Y-24835913D01*
X101555266Y-24928811D01*
X101555269Y-24928811D01*
X101555273Y-24928814D01*
X101743868Y-24986024D01*
X101940000Y-25005341D01*
X102136132Y-24986024D01*
X102324727Y-24928814D01*
X102343094Y-24918997D01*
X102419365Y-24878229D01*
X102498538Y-24835910D01*
X102650883Y-24710883D01*
X102775910Y-24558538D01*
X102835893Y-24446317D01*
X102868811Y-24384733D01*
X102868811Y-24384732D01*
X102868814Y-24384727D01*
X102926024Y-24196132D01*
X102945341Y-24000000D01*
X103474659Y-24000000D01*
X103493975Y-24196129D01*
X103493976Y-24196132D01*
X103545613Y-24366357D01*
X103551188Y-24384733D01*
X103644086Y-24558532D01*
X103644090Y-24558539D01*
X103769116Y-24710883D01*
X103921460Y-24835909D01*
X103921467Y-24835913D01*
X104095266Y-24928811D01*
X104095269Y-24928811D01*
X104095273Y-24928814D01*
X104283868Y-24986024D01*
X104480000Y-25005341D01*
X104676132Y-24986024D01*
X104864727Y-24928814D01*
X104883094Y-24918997D01*
X104959365Y-24878229D01*
X105038538Y-24835910D01*
X105190883Y-24710883D01*
X105315910Y-24558538D01*
X105375893Y-24446317D01*
X105408811Y-24384733D01*
X105408811Y-24384732D01*
X105408814Y-24384727D01*
X105466024Y-24196132D01*
X105485341Y-24000000D01*
X106014659Y-24000000D01*
X106033975Y-24196129D01*
X106033976Y-24196132D01*
X106085613Y-24366357D01*
X106091188Y-24384733D01*
X106184086Y-24558532D01*
X106184090Y-24558539D01*
X106309116Y-24710883D01*
X106461460Y-24835909D01*
X106461467Y-24835913D01*
X106635266Y-24928811D01*
X106635269Y-24928811D01*
X106635273Y-24928814D01*
X106823868Y-24986024D01*
X107020000Y-25005341D01*
X107216132Y-24986024D01*
X107404727Y-24928814D01*
X107423094Y-24918997D01*
X107499365Y-24878229D01*
X107578538Y-24835910D01*
X107730883Y-24710883D01*
X107855910Y-24558538D01*
X107915893Y-24446317D01*
X107948811Y-24384733D01*
X107948811Y-24384732D01*
X107948814Y-24384727D01*
X108006024Y-24196132D01*
X108025341Y-24000000D01*
X108554659Y-24000000D01*
X108573975Y-24196129D01*
X108573976Y-24196132D01*
X108625613Y-24366357D01*
X108631188Y-24384733D01*
X108724086Y-24558532D01*
X108724090Y-24558539D01*
X108849116Y-24710883D01*
X109001460Y-24835909D01*
X109001467Y-24835913D01*
X109175266Y-24928811D01*
X109175269Y-24928811D01*
X109175273Y-24928814D01*
X109363868Y-24986024D01*
X109560000Y-25005341D01*
X109756132Y-24986024D01*
X109944727Y-24928814D01*
X109963094Y-24918997D01*
X110039365Y-24878229D01*
X110118538Y-24835910D01*
X110270883Y-24710883D01*
X110395910Y-24558538D01*
X110455893Y-24446317D01*
X110488811Y-24384733D01*
X110488811Y-24384732D01*
X110488814Y-24384727D01*
X110546024Y-24196132D01*
X110565341Y-24000000D01*
X111094659Y-24000000D01*
X111113975Y-24196129D01*
X111113976Y-24196132D01*
X111165613Y-24366357D01*
X111171188Y-24384733D01*
X111264086Y-24558532D01*
X111264090Y-24558539D01*
X111389116Y-24710883D01*
X111541460Y-24835909D01*
X111541467Y-24835913D01*
X111715266Y-24928811D01*
X111715269Y-24928811D01*
X111715273Y-24928814D01*
X111903868Y-24986024D01*
X112100000Y-25005341D01*
X112296132Y-24986024D01*
X112484727Y-24928814D01*
X112503094Y-24918997D01*
X112579365Y-24878229D01*
X112658538Y-24835910D01*
X112810883Y-24710883D01*
X112935910Y-24558538D01*
X112995893Y-24446317D01*
X113028811Y-24384733D01*
X113028811Y-24384732D01*
X113028814Y-24384727D01*
X113086024Y-24196132D01*
X113105341Y-24000000D01*
X113634659Y-24000000D01*
X113653975Y-24196129D01*
X113653976Y-24196132D01*
X113705613Y-24366357D01*
X113711188Y-24384733D01*
X113804086Y-24558532D01*
X113804090Y-24558539D01*
X113929116Y-24710883D01*
X114081460Y-24835909D01*
X114081467Y-24835913D01*
X114255266Y-24928811D01*
X114255269Y-24928811D01*
X114255273Y-24928814D01*
X114443868Y-24986024D01*
X114640000Y-25005341D01*
X114836132Y-24986024D01*
X115024727Y-24928814D01*
X115043094Y-24918997D01*
X115119365Y-24878229D01*
X115198538Y-24835910D01*
X115350883Y-24710883D01*
X115475910Y-24558538D01*
X115535893Y-24446317D01*
X115568811Y-24384733D01*
X115568811Y-24384732D01*
X115568814Y-24384727D01*
X115626024Y-24196132D01*
X115645341Y-24000000D01*
X118714659Y-24000000D01*
X118733975Y-24196129D01*
X118733976Y-24196132D01*
X118785613Y-24366357D01*
X118791188Y-24384733D01*
X118884086Y-24558532D01*
X118884090Y-24558539D01*
X119009116Y-24710883D01*
X119161460Y-24835909D01*
X119161467Y-24835913D01*
X119335266Y-24928811D01*
X119335269Y-24928811D01*
X119335273Y-24928814D01*
X119523868Y-24986024D01*
X119720000Y-25005341D01*
X119916132Y-24986024D01*
X120104727Y-24928814D01*
X120123094Y-24918997D01*
X120199365Y-24878229D01*
X120278538Y-24835910D01*
X120430883Y-24710883D01*
X120555910Y-24558538D01*
X120615893Y-24446317D01*
X120648811Y-24384733D01*
X120648811Y-24384732D01*
X120648814Y-24384727D01*
X120706024Y-24196132D01*
X120725341Y-24000000D01*
X120706024Y-23803868D01*
X120648814Y-23615273D01*
X120648811Y-23615269D01*
X120648811Y-23615266D01*
X120555913Y-23441467D01*
X120555909Y-23441460D01*
X120430883Y-23289116D01*
X120278539Y-23164090D01*
X120278532Y-23164086D01*
X120104733Y-23071188D01*
X120104727Y-23071186D01*
X119916132Y-23013976D01*
X119916129Y-23013975D01*
X119720000Y-22994659D01*
X119523870Y-23013975D01*
X119335266Y-23071188D01*
X119161467Y-23164086D01*
X119161460Y-23164090D01*
X119009116Y-23289116D01*
X118884090Y-23441460D01*
X118884086Y-23441467D01*
X118791188Y-23615266D01*
X118733975Y-23803870D01*
X118714659Y-24000000D01*
X115645341Y-24000000D01*
X115626024Y-23803868D01*
X115568814Y-23615273D01*
X115568811Y-23615269D01*
X115568811Y-23615266D01*
X115475913Y-23441467D01*
X115475909Y-23441460D01*
X115350883Y-23289116D01*
X115198539Y-23164090D01*
X115198532Y-23164086D01*
X115024733Y-23071188D01*
X115024727Y-23071186D01*
X114836132Y-23013976D01*
X114836129Y-23013975D01*
X114640000Y-22994659D01*
X114443870Y-23013975D01*
X114255266Y-23071188D01*
X114081467Y-23164086D01*
X114081460Y-23164090D01*
X113929116Y-23289116D01*
X113804090Y-23441460D01*
X113804086Y-23441467D01*
X113711188Y-23615266D01*
X113653975Y-23803870D01*
X113634659Y-24000000D01*
X113105341Y-24000000D01*
X113086024Y-23803868D01*
X113028814Y-23615273D01*
X113028811Y-23615269D01*
X113028811Y-23615266D01*
X112935913Y-23441467D01*
X112935909Y-23441460D01*
X112810883Y-23289116D01*
X112658539Y-23164090D01*
X112658532Y-23164086D01*
X112484733Y-23071188D01*
X112484727Y-23071186D01*
X112296132Y-23013976D01*
X112296129Y-23013975D01*
X112100000Y-22994659D01*
X111903870Y-23013975D01*
X111715266Y-23071188D01*
X111541467Y-23164086D01*
X111541460Y-23164090D01*
X111389116Y-23289116D01*
X111264090Y-23441460D01*
X111264086Y-23441467D01*
X111171188Y-23615266D01*
X111113975Y-23803870D01*
X111094659Y-24000000D01*
X110565341Y-24000000D01*
X110546024Y-23803868D01*
X110488814Y-23615273D01*
X110488811Y-23615269D01*
X110488811Y-23615266D01*
X110395913Y-23441467D01*
X110395909Y-23441460D01*
X110270883Y-23289116D01*
X110118539Y-23164090D01*
X110118532Y-23164086D01*
X109944733Y-23071188D01*
X109944727Y-23071186D01*
X109756132Y-23013976D01*
X109756129Y-23013975D01*
X109560000Y-22994659D01*
X109363870Y-23013975D01*
X109175266Y-23071188D01*
X109001467Y-23164086D01*
X109001460Y-23164090D01*
X108849116Y-23289116D01*
X108724090Y-23441460D01*
X108724086Y-23441467D01*
X108631188Y-23615266D01*
X108573975Y-23803870D01*
X108554659Y-24000000D01*
X108025341Y-24000000D01*
X108006024Y-23803868D01*
X107948814Y-23615273D01*
X107948811Y-23615269D01*
X107948811Y-23615266D01*
X107855913Y-23441467D01*
X107855909Y-23441460D01*
X107730883Y-23289116D01*
X107578539Y-23164090D01*
X107578532Y-23164086D01*
X107404733Y-23071188D01*
X107404727Y-23071186D01*
X107216132Y-23013976D01*
X107216129Y-23013975D01*
X107020000Y-22994659D01*
X106823870Y-23013975D01*
X106635266Y-23071188D01*
X106461467Y-23164086D01*
X106461460Y-23164090D01*
X106309116Y-23289116D01*
X106184090Y-23441460D01*
X106184086Y-23441467D01*
X106091188Y-23615266D01*
X106033975Y-23803870D01*
X106014659Y-24000000D01*
X105485341Y-24000000D01*
X105466024Y-23803868D01*
X105408814Y-23615273D01*
X105408811Y-23615269D01*
X105408811Y-23615266D01*
X105315913Y-23441467D01*
X105315909Y-23441460D01*
X105190883Y-23289116D01*
X105038539Y-23164090D01*
X105038532Y-23164086D01*
X104864733Y-23071188D01*
X104864727Y-23071186D01*
X104676132Y-23013976D01*
X104676129Y-23013975D01*
X104480000Y-22994659D01*
X104283870Y-23013975D01*
X104095266Y-23071188D01*
X103921467Y-23164086D01*
X103921460Y-23164090D01*
X103769116Y-23289116D01*
X103644090Y-23441460D01*
X103644086Y-23441467D01*
X103551188Y-23615266D01*
X103493975Y-23803870D01*
X103474659Y-24000000D01*
X102945341Y-24000000D01*
X102926024Y-23803868D01*
X102868814Y-23615273D01*
X102868811Y-23615269D01*
X102868811Y-23615266D01*
X102775913Y-23441467D01*
X102775909Y-23441460D01*
X102650883Y-23289116D01*
X102498539Y-23164090D01*
X102498532Y-23164086D01*
X102324733Y-23071188D01*
X102324727Y-23071186D01*
X102136132Y-23013976D01*
X102136129Y-23013975D01*
X101940000Y-22994659D01*
X101743870Y-23013975D01*
X101555266Y-23071188D01*
X101381467Y-23164086D01*
X101381460Y-23164090D01*
X101229116Y-23289116D01*
X101104090Y-23441460D01*
X101104086Y-23441467D01*
X101011188Y-23615266D01*
X100953975Y-23803870D01*
X100934659Y-24000000D01*
X99770500Y-24000000D01*
X99770500Y-23934108D01*
X99770500Y-21954500D01*
X99790185Y-21887461D01*
X99842989Y-21841706D01*
X99894500Y-21830500D01*
X133688391Y-21830500D01*
X133755430Y-21850185D01*
G37*
%TD.AperFunction*%
%TA.AperFunction,Conductor*%
G36*
X133133213Y-46125724D02*
G01*
X133162238Y-46189279D01*
X133163500Y-46206927D01*
X133163500Y-56865503D01*
X133163497Y-56897163D01*
X133163501Y-56897194D01*
X133163720Y-56897982D01*
X133174779Y-56939256D01*
X133174780Y-56939262D01*
X133183972Y-56973576D01*
X133183974Y-56973580D01*
X133207377Y-57014115D01*
X133207379Y-57014123D01*
X133207381Y-57014122D01*
X133207382Y-57014124D01*
X133223529Y-57042096D01*
X133223531Y-57042098D01*
X133223537Y-57042108D01*
X133256066Y-57074637D01*
X133256070Y-57074646D01*
X133256073Y-57074644D01*
X135374614Y-59193446D01*
X135408095Y-59254771D01*
X135409666Y-59298762D01*
X135408353Y-59307897D01*
X135408353Y-59307899D01*
X135428834Y-59450356D01*
X135492307Y-59589340D01*
X135490436Y-59590194D01*
X135506821Y-59646007D01*
X135487133Y-59713045D01*
X135434326Y-59758797D01*
X135382821Y-59770000D01*
X133025500Y-59770000D01*
X132958461Y-59750315D01*
X132912706Y-59697511D01*
X132901500Y-59646000D01*
X132901500Y-46223084D01*
X132921185Y-46156045D01*
X132931787Y-46141882D01*
X132944043Y-46127738D01*
X132945787Y-46125724D01*
X133004565Y-46087950D01*
X133074434Y-46087950D01*
X133133213Y-46125724D01*
G37*
%TD.AperFunction*%
%TA.AperFunction,Conductor*%
G36*
X138923434Y-50104363D02*
G01*
X138993036Y-50124799D01*
X138993038Y-50124800D01*
X139089270Y-50124800D01*
X139156309Y-50144485D01*
X139176935Y-50161103D01*
X139270358Y-50254497D01*
X141102428Y-52085989D01*
X141135923Y-52147307D01*
X141130950Y-52216999D01*
X141089087Y-52272939D01*
X141023627Y-52297367D01*
X140997115Y-52296422D01*
X140996962Y-52296400D01*
X140996961Y-52296400D01*
X140853039Y-52296400D01*
X140853036Y-52296400D01*
X140714949Y-52336945D01*
X140593873Y-52414756D01*
X140499623Y-52523526D01*
X140499622Y-52523528D01*
X140439834Y-52654443D01*
X140419353Y-52796900D01*
X140439834Y-52939356D01*
X140481924Y-53031518D01*
X140499623Y-53070273D01*
X140593872Y-53179043D01*
X140593875Y-53179044D01*
X140594213Y-53179435D01*
X140623238Y-53242991D01*
X140624500Y-53260638D01*
X140624500Y-58481756D01*
X140604815Y-58548795D01*
X140588178Y-58569440D01*
X139884738Y-59272829D01*
X139823414Y-59306312D01*
X139753722Y-59301325D01*
X139697790Y-59259452D01*
X139684266Y-59236657D01*
X139662377Y-59188728D01*
X139662376Y-59188726D01*
X139642201Y-59165443D01*
X139568128Y-59079957D01*
X139447053Y-59002147D01*
X139447051Y-59002146D01*
X139447049Y-59002145D01*
X139447050Y-59002145D01*
X139308963Y-58961600D01*
X139308961Y-58961600D01*
X139212919Y-58961600D01*
X139145880Y-58941915D01*
X139125226Y-58925270D01*
X138800807Y-58600767D01*
X138767330Y-58539439D01*
X138764500Y-58513097D01*
X138764500Y-50223340D01*
X138784185Y-50156301D01*
X138836989Y-50110546D01*
X138906147Y-50100602D01*
X138923434Y-50104363D01*
G37*
%TD.AperFunction*%
%TD*%
M02*
