%TF.GenerationSoftware,KiCad,Pcbnew,8.0.2*%
%TF.CreationDate,2024-05-15T23:09:57-05:00*%
%TF.ProjectId,Uno_R4_LCC_Shield,556e6f5f-5234-45f4-9c43-435f53686965,rev?*%
%TF.SameCoordinates,Original*%
%TF.FileFunction,Drillmap*%
%TF.FilePolarity,Positive*%
%FSLAX45Y45*%
G04 Gerber Fmt 4.5, Leading zero omitted, Abs format (unit mm)*
G04 Created by KiCad (PCBNEW 8.0.2) date 2024-05-15 23:09:57*
%MOMM*%
%LPD*%
G01*
G04 APERTURE LIST*
%ADD10C,0.120000*%
%ADD11C,0.200000*%
%ADD12C,0.100000*%
%ADD13C,0.110000*%
%ADD14C,0.130000*%
%ADD15C,0.170000*%
G04 APERTURE END LIST*
D10*
X9673000Y-2654000D02*
X9673000Y-5931000D01*
X9673000Y-5931000D02*
X9927000Y-6185000D01*
X9927000Y-2133000D02*
X9927000Y-2400000D01*
X9927000Y-2400000D02*
X9673000Y-2654000D01*
X9927000Y-6185000D02*
X9927000Y-7328000D01*
X9927000Y-7328000D02*
X10092000Y-7493000D01*
X10092000Y-7493000D02*
X16557000Y-7493000D01*
X16557000Y-2133000D02*
X9927000Y-2133000D01*
X16557000Y-7493000D02*
X16557000Y-2133000D01*
D11*
D12*
X11035000Y-4235000D02*
X11065000Y-4265000D01*
X11065000Y-4235000D02*
X11035000Y-4265000D01*
X11705000Y-6775000D02*
X11735000Y-6805000D01*
X11735000Y-6775000D02*
X11705000Y-6805000D01*
X11885000Y-3535000D02*
X11915000Y-3565000D01*
X11915000Y-3535000D02*
X11885000Y-3565000D01*
X11935000Y-5535000D02*
X11965000Y-5565000D01*
X11965000Y-5535000D02*
X11935000Y-5565000D01*
X11985000Y-3685000D02*
X12015000Y-3715000D01*
X12015000Y-3685000D02*
X11985000Y-3715000D01*
X12325000Y-5925000D02*
X12355000Y-5955000D01*
X12355000Y-5925000D02*
X12325000Y-5955000D01*
X12325000Y-6785000D02*
X12355000Y-6815000D01*
X12355000Y-6785000D02*
X12325000Y-6815000D01*
X12485000Y-4325000D02*
X12515000Y-4355000D01*
X12515000Y-4325000D02*
X12485000Y-4355000D01*
X12525000Y-5065000D02*
X12555000Y-5095000D01*
X12555000Y-5065000D02*
X12525000Y-5095000D01*
X12685000Y-4125000D02*
X12715000Y-4155000D01*
X12715000Y-4125000D02*
X12685000Y-4155000D01*
X13285000Y-4745000D02*
X13315000Y-4775000D01*
X13315000Y-4745000D02*
X13285000Y-4775000D01*
X13345000Y-2935000D02*
X13375000Y-2965000D01*
X13375000Y-2935000D02*
X13345000Y-2965000D01*
X13345000Y-3355000D02*
X13375000Y-3385000D01*
X13375000Y-3355000D02*
X13345000Y-3385000D01*
X13384482Y-2779461D02*
X13414482Y-2809461D01*
X13414482Y-2779461D02*
X13384482Y-2809461D01*
X13505000Y-3885000D02*
X13535000Y-3915000D01*
X13535000Y-3885000D02*
X13505000Y-3915000D01*
X13625000Y-4275000D02*
X13655000Y-4305000D01*
X13655000Y-4275000D02*
X13625000Y-4305000D01*
X13645000Y-4765000D02*
X13675000Y-4795000D01*
X13675000Y-4765000D02*
X13645000Y-4795000D01*
X14068885Y-2427273D02*
X14098885Y-2457273D01*
X14098885Y-2427273D02*
X14068885Y-2457273D01*
X14427700Y-2992300D02*
X14457700Y-3022300D01*
X14457700Y-2992300D02*
X14427700Y-3022300D01*
X14510300Y-3185000D02*
X14540300Y-3215000D01*
X14540300Y-3185000D02*
X14510300Y-3215000D01*
X14760530Y-4050760D02*
X14790530Y-4080760D01*
X14790530Y-4050760D02*
X14760530Y-4080760D01*
X14875000Y-4925000D02*
X14905000Y-4955000D01*
X14905000Y-4925000D02*
X14875000Y-4955000D01*
X14935000Y-3335000D02*
X14965000Y-3365000D01*
X14965000Y-3335000D02*
X14935000Y-3365000D01*
X14985000Y-4785000D02*
X15015000Y-4815000D01*
X15015000Y-4785000D02*
X14985000Y-4815000D01*
X15268800Y-4791180D02*
X15298800Y-4821180D01*
X15298800Y-4791180D02*
X15268800Y-4821180D01*
X15065000Y-4300000D02*
G75*
G02*
X15015000Y-4300000I-25000J0D01*
G01*
X15015000Y-4300000D02*
G75*
G02*
X15065000Y-4300000I25000J0D01*
G01*
X15115000Y-4210000D02*
G75*
G02*
X15065000Y-4210000I-25000J0D01*
G01*
X15065000Y-4210000D02*
G75*
G02*
X15115000Y-4210000I25000J0D01*
G01*
X15115000Y-4390000D02*
G75*
G02*
X15065000Y-4390000I-25000J0D01*
G01*
X15065000Y-4390000D02*
G75*
G02*
X15115000Y-4390000I25000J0D01*
G01*
X15165000Y-4300000D02*
G75*
G02*
X15115000Y-4300000I-25000J0D01*
G01*
X15115000Y-4300000D02*
G75*
G02*
X15165000Y-4300000I25000J0D01*
G01*
X15215000Y-4210000D02*
G75*
G02*
X15165000Y-4210000I-25000J0D01*
G01*
X15165000Y-4210000D02*
G75*
G02*
X15215000Y-4210000I25000J0D01*
G01*
X15215000Y-4390000D02*
G75*
G02*
X15165000Y-4390000I-25000J0D01*
G01*
X15165000Y-4390000D02*
G75*
G02*
X15215000Y-4390000I25000J0D01*
G01*
X15265000Y-4300000D02*
G75*
G02*
X15215000Y-4300000I-25000J0D01*
G01*
X15215000Y-4300000D02*
G75*
G02*
X15265000Y-4300000I25000J0D01*
G01*
X15375000Y-2960000D02*
X15375000Y-3040000D01*
X15335000Y-3000000D02*
X15415000Y-3000000D01*
X15415000Y-3110000D02*
X15415000Y-2890000D01*
X15335000Y-2890000D02*
G75*
G02*
X15415000Y-2890000I40000J0D01*
G01*
X15335000Y-2890000D02*
X15335000Y-3110000D01*
X15335000Y-3110000D02*
G75*
G03*
X15415000Y-3110000I40000J0D01*
G01*
X15675000Y-2480000D02*
X15675000Y-2560000D01*
X15635000Y-2520000D02*
X15715000Y-2520000D01*
X15565000Y-2560000D02*
X15785000Y-2560000D01*
X15785000Y-2480000D02*
G75*
G02*
X15785000Y-2560000I0J-40000D01*
G01*
X15785000Y-2480000D02*
X15565000Y-2480000D01*
X15565000Y-2480000D02*
G75*
G03*
X15565000Y-2560000I0J-40000D01*
G01*
X16000000Y-2960000D02*
X16000000Y-3040000D01*
X15960000Y-3000000D02*
X16040000Y-3000000D01*
X16040000Y-3110000D02*
X16040000Y-2890000D01*
X15960000Y-2890000D02*
G75*
G02*
X16040000Y-2890000I40000J0D01*
G01*
X15960000Y-2890000D02*
X15960000Y-3110000D01*
X15960000Y-3110000D02*
G75*
G03*
X16040000Y-3110000I40000J0D01*
G01*
X11034820Y-3188820D02*
X11034820Y-3125180D01*
X10971180Y-3125180D01*
X10971180Y-3188820D01*
X11034820Y-3188820D01*
X11034820Y-3442820D02*
X11034820Y-3379180D01*
X10971180Y-3379180D01*
X10971180Y-3442820D01*
X11034820Y-3442820D01*
X11034820Y-3696820D02*
X11034820Y-3633180D01*
X10971180Y-3633180D01*
X10971180Y-3696820D01*
X11034820Y-3696820D01*
X11034820Y-3950820D02*
X11034820Y-3887180D01*
X10971180Y-3887180D01*
X10971180Y-3950820D01*
X11034820Y-3950820D01*
X11034820Y-4585820D02*
X11034820Y-4522180D01*
X10971180Y-4522180D01*
X10971180Y-4585820D01*
X11034820Y-4585820D01*
X11034820Y-4839820D02*
X11034820Y-4776180D01*
X10971180Y-4776180D01*
X10971180Y-4839820D01*
X11034820Y-4839820D01*
X11034820Y-5093820D02*
X11034820Y-5030180D01*
X10971180Y-5030180D01*
X10971180Y-5093820D01*
X11034820Y-5093820D01*
X11034820Y-5347820D02*
X11034820Y-5284180D01*
X10971180Y-5284180D01*
X10971180Y-5347820D01*
X11034820Y-5347820D01*
X11288820Y-3315820D02*
X11288820Y-3252180D01*
X11225180Y-3252180D01*
X11225180Y-3315820D01*
X11288820Y-3315820D01*
X11288820Y-3569820D02*
X11288820Y-3506180D01*
X11225180Y-3506180D01*
X11225180Y-3569820D01*
X11288820Y-3569820D01*
X11288820Y-3823820D02*
X11288820Y-3760180D01*
X11225180Y-3760180D01*
X11225180Y-3823820D01*
X11288820Y-3823820D01*
X11288820Y-4077820D02*
X11288820Y-4014180D01*
X11225180Y-4014180D01*
X11225180Y-4077820D01*
X11288820Y-4077820D01*
X11288820Y-4712820D02*
X11288820Y-4649180D01*
X11225180Y-4649180D01*
X11225180Y-4712820D01*
X11288820Y-4712820D01*
X11288820Y-4966820D02*
X11288820Y-4903180D01*
X11225180Y-4903180D01*
X11225180Y-4966820D01*
X11288820Y-4966820D01*
X11288820Y-5220820D02*
X11288820Y-5157180D01*
X11225180Y-5157180D01*
X11225180Y-5220820D01*
X11288820Y-5220820D01*
X11288820Y-5474820D02*
X11288820Y-5411180D01*
X11225180Y-5411180D01*
X11225180Y-5474820D01*
X11288820Y-5474820D01*
X10194000Y-2450000D02*
X10244000Y-2400000D01*
X10194000Y-2350000D01*
X10144000Y-2400000D01*
X10194000Y-2450000D01*
X10194000Y-7276000D02*
X10244000Y-7226000D01*
X10194000Y-7176000D01*
X10144000Y-7226000D01*
X10194000Y-7276000D01*
X10448000Y-2450000D02*
X10498000Y-2400000D01*
X10448000Y-2350000D01*
X10398000Y-2400000D01*
X10448000Y-2450000D01*
X10448000Y-7276000D02*
X10498000Y-7226000D01*
X10448000Y-7176000D01*
X10398000Y-7226000D01*
X10448000Y-7276000D01*
X10702000Y-2450000D02*
X10752000Y-2400000D01*
X10702000Y-2350000D01*
X10652000Y-2400000D01*
X10702000Y-2450000D01*
X10702000Y-7276000D02*
X10752000Y-7226000D01*
X10702000Y-7176000D01*
X10652000Y-7226000D01*
X10702000Y-7276000D01*
X10956000Y-2450000D02*
X11006000Y-2400000D01*
X10956000Y-2350000D01*
X10906000Y-2400000D01*
X10956000Y-2450000D01*
X10956000Y-7276000D02*
X11006000Y-7226000D01*
X10956000Y-7176000D01*
X10906000Y-7226000D01*
X10956000Y-7276000D01*
X11210000Y-2450000D02*
X11260000Y-2400000D01*
X11210000Y-2350000D01*
X11160000Y-2400000D01*
X11210000Y-2450000D01*
X11210000Y-7276000D02*
X11260000Y-7226000D01*
X11210000Y-7176000D01*
X11160000Y-7226000D01*
X11210000Y-7276000D01*
X11464000Y-2450000D02*
X11514000Y-2400000D01*
X11464000Y-2350000D01*
X11414000Y-2400000D01*
X11464000Y-2450000D01*
X11464000Y-7276000D02*
X11514000Y-7226000D01*
X11464000Y-7176000D01*
X11414000Y-7226000D01*
X11464000Y-7276000D01*
X11718000Y-7276000D02*
X11768000Y-7226000D01*
X11718000Y-7176000D01*
X11668000Y-7226000D01*
X11718000Y-7276000D01*
X11972000Y-2450000D02*
X12022000Y-2400000D01*
X11972000Y-2350000D01*
X11922000Y-2400000D01*
X11972000Y-2450000D01*
X11972000Y-7276000D02*
X12022000Y-7226000D01*
X11972000Y-7176000D01*
X11922000Y-7226000D01*
X11972000Y-7276000D01*
X12226000Y-2450000D02*
X12276000Y-2400000D01*
X12226000Y-2350000D01*
X12176000Y-2400000D01*
X12226000Y-2450000D01*
X12378000Y-7276000D02*
X12428000Y-7226000D01*
X12378000Y-7176000D01*
X12328000Y-7226000D01*
X12378000Y-7276000D01*
X12480000Y-2450000D02*
X12530000Y-2400000D01*
X12480000Y-2350000D01*
X12430000Y-2400000D01*
X12480000Y-2450000D01*
X12632000Y-7276000D02*
X12682000Y-7226000D01*
X12632000Y-7176000D01*
X12582000Y-7226000D01*
X12632000Y-7276000D01*
X12734000Y-2450000D02*
X12784000Y-2400000D01*
X12734000Y-2350000D01*
X12684000Y-2400000D01*
X12734000Y-2450000D01*
X12886000Y-7276000D02*
X12936000Y-7226000D01*
X12886000Y-7176000D01*
X12836000Y-7226000D01*
X12886000Y-7276000D01*
X12988000Y-2450000D02*
X13038000Y-2400000D01*
X12988000Y-2350000D01*
X12938000Y-2400000D01*
X12988000Y-2450000D01*
X13140000Y-7276000D02*
X13190000Y-7226000D01*
X13140000Y-7176000D01*
X13090000Y-7226000D01*
X13140000Y-7276000D01*
X13242000Y-2450000D02*
X13292000Y-2400000D01*
X13242000Y-2350000D01*
X13192000Y-2400000D01*
X13242000Y-2450000D01*
X13394000Y-7276000D02*
X13444000Y-7226000D01*
X13394000Y-7176000D01*
X13344000Y-7226000D01*
X13394000Y-7276000D01*
X13496000Y-2450000D02*
X13546000Y-2400000D01*
X13496000Y-2350000D01*
X13446000Y-2400000D01*
X13496000Y-2450000D01*
X13648000Y-7276000D02*
X13698000Y-7226000D01*
X13648000Y-7176000D01*
X13598000Y-7226000D01*
X13648000Y-7276000D01*
X13750000Y-2450000D02*
X13800000Y-2400000D01*
X13750000Y-2350000D01*
X13700000Y-2400000D01*
X13750000Y-2450000D01*
X13902000Y-7276000D02*
X13952000Y-7226000D01*
X13902000Y-7176000D01*
X13852000Y-7226000D01*
X13902000Y-7276000D01*
X14156000Y-7276000D02*
X14206000Y-7226000D01*
X14156000Y-7176000D01*
X14106000Y-7226000D01*
X14156000Y-7276000D01*
X14410000Y-7276000D02*
X14460000Y-7226000D01*
X14410000Y-7176000D01*
X14360000Y-7226000D01*
X14410000Y-7276000D01*
X14664000Y-7276000D02*
X14714000Y-7226000D01*
X14664000Y-7176000D01*
X14614000Y-7226000D01*
X14664000Y-7276000D01*
D13*
X15395000Y-6595000D02*
X15505000Y-6705000D01*
X15505000Y-6595000D02*
X15395000Y-6705000D01*
X15505000Y-6650000D02*
G75*
G02*
X15395000Y-6650000I-55000J0D01*
G01*
X15395000Y-6650000D02*
G75*
G02*
X15505000Y-6650000I55000J0D01*
G01*
X15395000Y-7045000D02*
X15505000Y-7155000D01*
X15505000Y-7045000D02*
X15395000Y-7155000D01*
X15505000Y-7100000D02*
G75*
G02*
X15395000Y-7100000I-55000J0D01*
G01*
X15395000Y-7100000D02*
G75*
G02*
X15505000Y-7100000I55000J0D01*
G01*
X16045000Y-6595000D02*
X16155000Y-6705000D01*
X16155000Y-6595000D02*
X16045000Y-6705000D01*
X16155000Y-6650000D02*
G75*
G02*
X16045000Y-6650000I-55000J0D01*
G01*
X16045000Y-6650000D02*
G75*
G02*
X16155000Y-6650000I55000J0D01*
G01*
X16045000Y-7045000D02*
X16155000Y-7155000D01*
X16155000Y-7045000D02*
X16045000Y-7155000D01*
X16155000Y-7100000D02*
G75*
G02*
X16045000Y-7100000I-55000J0D01*
G01*
X16045000Y-7100000D02*
G75*
G02*
X16155000Y-7100000I55000J0D01*
G01*
D14*
X16135000Y-3985000D02*
X16265000Y-4115000D01*
X16265000Y-3985000D02*
X16135000Y-4115000D01*
X16200000Y-3985000D02*
X16200000Y-4115000D01*
X16135000Y-4050000D02*
X16265000Y-4050000D01*
X16135000Y-4485000D02*
X16265000Y-4615000D01*
X16265000Y-4485000D02*
X16135000Y-4615000D01*
X16200000Y-4485000D02*
X16200000Y-4615000D01*
X16135000Y-4550000D02*
X16265000Y-4550000D01*
D15*
X9915000Y-2665000D02*
X10085000Y-2835000D01*
X10085000Y-2665000D02*
X9915000Y-2835000D01*
X10060105Y-2810105D02*
X10060105Y-2689895D01*
X9939895Y-2689895D01*
X9939895Y-2810105D01*
X10060105Y-2810105D01*
X9915000Y-5765000D02*
X10085000Y-5935000D01*
X10085000Y-5765000D02*
X9915000Y-5935000D01*
X10060105Y-5910105D02*
X10060105Y-5789895D01*
X9939895Y-5789895D01*
X9939895Y-5910105D01*
X10060105Y-5910105D01*
D11*
X9927777Y-7810484D02*
X9927777Y-7610484D01*
X9927777Y-7610484D02*
X9975396Y-7610484D01*
X9975396Y-7610484D02*
X10003967Y-7620008D01*
X10003967Y-7620008D02*
X10023015Y-7639055D01*
X10023015Y-7639055D02*
X10032539Y-7658103D01*
X10032539Y-7658103D02*
X10042063Y-7696198D01*
X10042063Y-7696198D02*
X10042063Y-7724769D01*
X10042063Y-7724769D02*
X10032539Y-7762865D01*
X10032539Y-7762865D02*
X10023015Y-7781912D01*
X10023015Y-7781912D02*
X10003967Y-7800960D01*
X10003967Y-7800960D02*
X9975396Y-7810484D01*
X9975396Y-7810484D02*
X9927777Y-7810484D01*
X10127777Y-7810484D02*
X10127777Y-7677150D01*
X10127777Y-7715246D02*
X10137301Y-7696198D01*
X10137301Y-7696198D02*
X10146824Y-7686674D01*
X10146824Y-7686674D02*
X10165872Y-7677150D01*
X10165872Y-7677150D02*
X10184920Y-7677150D01*
X10251586Y-7810484D02*
X10251586Y-7677150D01*
X10251586Y-7610484D02*
X10242063Y-7620008D01*
X10242063Y-7620008D02*
X10251586Y-7629531D01*
X10251586Y-7629531D02*
X10261110Y-7620008D01*
X10261110Y-7620008D02*
X10251586Y-7610484D01*
X10251586Y-7610484D02*
X10251586Y-7629531D01*
X10375396Y-7810484D02*
X10356348Y-7800960D01*
X10356348Y-7800960D02*
X10346824Y-7781912D01*
X10346824Y-7781912D02*
X10346824Y-7610484D01*
X10480158Y-7810484D02*
X10461110Y-7800960D01*
X10461110Y-7800960D02*
X10451586Y-7781912D01*
X10451586Y-7781912D02*
X10451586Y-7610484D01*
X10708729Y-7810484D02*
X10708729Y-7610484D01*
X10708729Y-7610484D02*
X10775396Y-7753341D01*
X10775396Y-7753341D02*
X10842063Y-7610484D01*
X10842063Y-7610484D02*
X10842063Y-7810484D01*
X11023015Y-7810484D02*
X11023015Y-7705722D01*
X11023015Y-7705722D02*
X11013491Y-7686674D01*
X11013491Y-7686674D02*
X10994444Y-7677150D01*
X10994444Y-7677150D02*
X10956348Y-7677150D01*
X10956348Y-7677150D02*
X10937301Y-7686674D01*
X11023015Y-7800960D02*
X11003967Y-7810484D01*
X11003967Y-7810484D02*
X10956348Y-7810484D01*
X10956348Y-7810484D02*
X10937301Y-7800960D01*
X10937301Y-7800960D02*
X10927777Y-7781912D01*
X10927777Y-7781912D02*
X10927777Y-7762865D01*
X10927777Y-7762865D02*
X10937301Y-7743817D01*
X10937301Y-7743817D02*
X10956348Y-7734293D01*
X10956348Y-7734293D02*
X11003967Y-7734293D01*
X11003967Y-7734293D02*
X11023015Y-7724769D01*
X11118253Y-7677150D02*
X11118253Y-7877150D01*
X11118253Y-7686674D02*
X11137301Y-7677150D01*
X11137301Y-7677150D02*
X11175396Y-7677150D01*
X11175396Y-7677150D02*
X11194443Y-7686674D01*
X11194443Y-7686674D02*
X11203967Y-7696198D01*
X11203967Y-7696198D02*
X11213491Y-7715246D01*
X11213491Y-7715246D02*
X11213491Y-7772388D01*
X11213491Y-7772388D02*
X11203967Y-7791436D01*
X11203967Y-7791436D02*
X11194443Y-7800960D01*
X11194443Y-7800960D02*
X11175396Y-7810484D01*
X11175396Y-7810484D02*
X11137301Y-7810484D01*
X11137301Y-7810484D02*
X11118253Y-7800960D01*
X11299205Y-7791436D02*
X11308729Y-7800960D01*
X11308729Y-7800960D02*
X11299205Y-7810484D01*
X11299205Y-7810484D02*
X11289682Y-7800960D01*
X11289682Y-7800960D02*
X11299205Y-7791436D01*
X11299205Y-7791436D02*
X11299205Y-7810484D01*
X11299205Y-7686674D02*
X11308729Y-7696198D01*
X11308729Y-7696198D02*
X11299205Y-7705722D01*
X11299205Y-7705722D02*
X11289682Y-7696198D01*
X11289682Y-7696198D02*
X11299205Y-7686674D01*
X11299205Y-7686674D02*
X11299205Y-7705722D01*
D12*
X9637000Y-8124000D02*
X9667000Y-8154000D01*
X9667000Y-8124000D02*
X9637000Y-8154000D01*
D11*
X9965872Y-8030484D02*
X9984920Y-8030484D01*
X9984920Y-8030484D02*
X10003967Y-8040008D01*
X10003967Y-8040008D02*
X10013491Y-8049531D01*
X10013491Y-8049531D02*
X10023015Y-8068579D01*
X10023015Y-8068579D02*
X10032539Y-8106674D01*
X10032539Y-8106674D02*
X10032539Y-8154293D01*
X10032539Y-8154293D02*
X10023015Y-8192388D01*
X10023015Y-8192388D02*
X10013491Y-8211436D01*
X10013491Y-8211436D02*
X10003967Y-8220960D01*
X10003967Y-8220960D02*
X9984920Y-8230484D01*
X9984920Y-8230484D02*
X9965872Y-8230484D01*
X9965872Y-8230484D02*
X9946824Y-8220960D01*
X9946824Y-8220960D02*
X9937301Y-8211436D01*
X9937301Y-8211436D02*
X9927777Y-8192388D01*
X9927777Y-8192388D02*
X9918253Y-8154293D01*
X9918253Y-8154293D02*
X9918253Y-8106674D01*
X9918253Y-8106674D02*
X9927777Y-8068579D01*
X9927777Y-8068579D02*
X9937301Y-8049531D01*
X9937301Y-8049531D02*
X9946824Y-8040008D01*
X9946824Y-8040008D02*
X9965872Y-8030484D01*
X10118253Y-8211436D02*
X10127777Y-8220960D01*
X10127777Y-8220960D02*
X10118253Y-8230484D01*
X10118253Y-8230484D02*
X10108729Y-8220960D01*
X10108729Y-8220960D02*
X10118253Y-8211436D01*
X10118253Y-8211436D02*
X10118253Y-8230484D01*
X10194444Y-8030484D02*
X10318253Y-8030484D01*
X10318253Y-8030484D02*
X10251586Y-8106674D01*
X10251586Y-8106674D02*
X10280158Y-8106674D01*
X10280158Y-8106674D02*
X10299205Y-8116198D01*
X10299205Y-8116198D02*
X10308729Y-8125722D01*
X10308729Y-8125722D02*
X10318253Y-8144769D01*
X10318253Y-8144769D02*
X10318253Y-8192388D01*
X10318253Y-8192388D02*
X10308729Y-8211436D01*
X10308729Y-8211436D02*
X10299205Y-8220960D01*
X10299205Y-8220960D02*
X10280158Y-8230484D01*
X10280158Y-8230484D02*
X10223015Y-8230484D01*
X10223015Y-8230484D02*
X10203967Y-8220960D01*
X10203967Y-8220960D02*
X10194444Y-8211436D01*
X10442063Y-8030484D02*
X10461110Y-8030484D01*
X10461110Y-8030484D02*
X10480158Y-8040008D01*
X10480158Y-8040008D02*
X10489682Y-8049531D01*
X10489682Y-8049531D02*
X10499205Y-8068579D01*
X10499205Y-8068579D02*
X10508729Y-8106674D01*
X10508729Y-8106674D02*
X10508729Y-8154293D01*
X10508729Y-8154293D02*
X10499205Y-8192388D01*
X10499205Y-8192388D02*
X10489682Y-8211436D01*
X10489682Y-8211436D02*
X10480158Y-8220960D01*
X10480158Y-8220960D02*
X10461110Y-8230484D01*
X10461110Y-8230484D02*
X10442063Y-8230484D01*
X10442063Y-8230484D02*
X10423015Y-8220960D01*
X10423015Y-8220960D02*
X10413491Y-8211436D01*
X10413491Y-8211436D02*
X10403967Y-8192388D01*
X10403967Y-8192388D02*
X10394444Y-8154293D01*
X10394444Y-8154293D02*
X10394444Y-8106674D01*
X10394444Y-8106674D02*
X10403967Y-8068579D01*
X10403967Y-8068579D02*
X10413491Y-8049531D01*
X10413491Y-8049531D02*
X10423015Y-8040008D01*
X10423015Y-8040008D02*
X10442063Y-8030484D01*
X10632539Y-8030484D02*
X10651586Y-8030484D01*
X10651586Y-8030484D02*
X10670634Y-8040008D01*
X10670634Y-8040008D02*
X10680158Y-8049531D01*
X10680158Y-8049531D02*
X10689682Y-8068579D01*
X10689682Y-8068579D02*
X10699205Y-8106674D01*
X10699205Y-8106674D02*
X10699205Y-8154293D01*
X10699205Y-8154293D02*
X10689682Y-8192388D01*
X10689682Y-8192388D02*
X10680158Y-8211436D01*
X10680158Y-8211436D02*
X10670634Y-8220960D01*
X10670634Y-8220960D02*
X10651586Y-8230484D01*
X10651586Y-8230484D02*
X10632539Y-8230484D01*
X10632539Y-8230484D02*
X10613491Y-8220960D01*
X10613491Y-8220960D02*
X10603967Y-8211436D01*
X10603967Y-8211436D02*
X10594444Y-8192388D01*
X10594444Y-8192388D02*
X10584920Y-8154293D01*
X10584920Y-8154293D02*
X10584920Y-8106674D01*
X10584920Y-8106674D02*
X10594444Y-8068579D01*
X10594444Y-8068579D02*
X10603967Y-8049531D01*
X10603967Y-8049531D02*
X10613491Y-8040008D01*
X10613491Y-8040008D02*
X10632539Y-8030484D01*
X10784920Y-8230484D02*
X10784920Y-8097150D01*
X10784920Y-8116198D02*
X10794444Y-8106674D01*
X10794444Y-8106674D02*
X10813491Y-8097150D01*
X10813491Y-8097150D02*
X10842063Y-8097150D01*
X10842063Y-8097150D02*
X10861110Y-8106674D01*
X10861110Y-8106674D02*
X10870634Y-8125722D01*
X10870634Y-8125722D02*
X10870634Y-8230484D01*
X10870634Y-8125722D02*
X10880158Y-8106674D01*
X10880158Y-8106674D02*
X10899205Y-8097150D01*
X10899205Y-8097150D02*
X10927777Y-8097150D01*
X10927777Y-8097150D02*
X10946825Y-8106674D01*
X10946825Y-8106674D02*
X10956348Y-8125722D01*
X10956348Y-8125722D02*
X10956348Y-8230484D01*
X11051586Y-8230484D02*
X11051586Y-8097150D01*
X11051586Y-8116198D02*
X11061110Y-8106674D01*
X11061110Y-8106674D02*
X11080158Y-8097150D01*
X11080158Y-8097150D02*
X11108729Y-8097150D01*
X11108729Y-8097150D02*
X11127777Y-8106674D01*
X11127777Y-8106674D02*
X11137301Y-8125722D01*
X11137301Y-8125722D02*
X11137301Y-8230484D01*
X11137301Y-8125722D02*
X11146825Y-8106674D01*
X11146825Y-8106674D02*
X11165872Y-8097150D01*
X11165872Y-8097150D02*
X11194443Y-8097150D01*
X11194443Y-8097150D02*
X11213491Y-8106674D01*
X11213491Y-8106674D02*
X11223015Y-8125722D01*
X11223015Y-8125722D02*
X11223015Y-8230484D01*
X11613491Y-8020960D02*
X11442063Y-8278103D01*
X11870634Y-8030484D02*
X11889682Y-8030484D01*
X11889682Y-8030484D02*
X11908729Y-8040008D01*
X11908729Y-8040008D02*
X11918253Y-8049531D01*
X11918253Y-8049531D02*
X11927777Y-8068579D01*
X11927777Y-8068579D02*
X11937301Y-8106674D01*
X11937301Y-8106674D02*
X11937301Y-8154293D01*
X11937301Y-8154293D02*
X11927777Y-8192388D01*
X11927777Y-8192388D02*
X11918253Y-8211436D01*
X11918253Y-8211436D02*
X11908729Y-8220960D01*
X11908729Y-8220960D02*
X11889682Y-8230484D01*
X11889682Y-8230484D02*
X11870634Y-8230484D01*
X11870634Y-8230484D02*
X11851586Y-8220960D01*
X11851586Y-8220960D02*
X11842063Y-8211436D01*
X11842063Y-8211436D02*
X11832539Y-8192388D01*
X11832539Y-8192388D02*
X11823015Y-8154293D01*
X11823015Y-8154293D02*
X11823015Y-8106674D01*
X11823015Y-8106674D02*
X11832539Y-8068579D01*
X11832539Y-8068579D02*
X11842063Y-8049531D01*
X11842063Y-8049531D02*
X11851586Y-8040008D01*
X11851586Y-8040008D02*
X11870634Y-8030484D01*
X12023015Y-8211436D02*
X12032539Y-8220960D01*
X12032539Y-8220960D02*
X12023015Y-8230484D01*
X12023015Y-8230484D02*
X12013491Y-8220960D01*
X12013491Y-8220960D02*
X12023015Y-8211436D01*
X12023015Y-8211436D02*
X12023015Y-8230484D01*
X12156348Y-8030484D02*
X12175396Y-8030484D01*
X12175396Y-8030484D02*
X12194444Y-8040008D01*
X12194444Y-8040008D02*
X12203967Y-8049531D01*
X12203967Y-8049531D02*
X12213491Y-8068579D01*
X12213491Y-8068579D02*
X12223015Y-8106674D01*
X12223015Y-8106674D02*
X12223015Y-8154293D01*
X12223015Y-8154293D02*
X12213491Y-8192388D01*
X12213491Y-8192388D02*
X12203967Y-8211436D01*
X12203967Y-8211436D02*
X12194444Y-8220960D01*
X12194444Y-8220960D02*
X12175396Y-8230484D01*
X12175396Y-8230484D02*
X12156348Y-8230484D01*
X12156348Y-8230484D02*
X12137301Y-8220960D01*
X12137301Y-8220960D02*
X12127777Y-8211436D01*
X12127777Y-8211436D02*
X12118253Y-8192388D01*
X12118253Y-8192388D02*
X12108729Y-8154293D01*
X12108729Y-8154293D02*
X12108729Y-8106674D01*
X12108729Y-8106674D02*
X12118253Y-8068579D01*
X12118253Y-8068579D02*
X12127777Y-8049531D01*
X12127777Y-8049531D02*
X12137301Y-8040008D01*
X12137301Y-8040008D02*
X12156348Y-8030484D01*
X12413491Y-8230484D02*
X12299206Y-8230484D01*
X12356348Y-8230484D02*
X12356348Y-8030484D01*
X12356348Y-8030484D02*
X12337301Y-8059055D01*
X12337301Y-8059055D02*
X12318253Y-8078103D01*
X12318253Y-8078103D02*
X12299206Y-8087627D01*
X12603967Y-8230484D02*
X12489682Y-8230484D01*
X12546825Y-8230484D02*
X12546825Y-8030484D01*
X12546825Y-8030484D02*
X12527777Y-8059055D01*
X12527777Y-8059055D02*
X12508729Y-8078103D01*
X12508729Y-8078103D02*
X12489682Y-8087627D01*
X12718253Y-8116198D02*
X12699206Y-8106674D01*
X12699206Y-8106674D02*
X12689682Y-8097150D01*
X12689682Y-8097150D02*
X12680158Y-8078103D01*
X12680158Y-8078103D02*
X12680158Y-8068579D01*
X12680158Y-8068579D02*
X12689682Y-8049531D01*
X12689682Y-8049531D02*
X12699206Y-8040008D01*
X12699206Y-8040008D02*
X12718253Y-8030484D01*
X12718253Y-8030484D02*
X12756348Y-8030484D01*
X12756348Y-8030484D02*
X12775396Y-8040008D01*
X12775396Y-8040008D02*
X12784920Y-8049531D01*
X12784920Y-8049531D02*
X12794444Y-8068579D01*
X12794444Y-8068579D02*
X12794444Y-8078103D01*
X12794444Y-8078103D02*
X12784920Y-8097150D01*
X12784920Y-8097150D02*
X12775396Y-8106674D01*
X12775396Y-8106674D02*
X12756348Y-8116198D01*
X12756348Y-8116198D02*
X12718253Y-8116198D01*
X12718253Y-8116198D02*
X12699206Y-8125722D01*
X12699206Y-8125722D02*
X12689682Y-8135246D01*
X12689682Y-8135246D02*
X12680158Y-8154293D01*
X12680158Y-8154293D02*
X12680158Y-8192388D01*
X12680158Y-8192388D02*
X12689682Y-8211436D01*
X12689682Y-8211436D02*
X12699206Y-8220960D01*
X12699206Y-8220960D02*
X12718253Y-8230484D01*
X12718253Y-8230484D02*
X12756348Y-8230484D01*
X12756348Y-8230484D02*
X12775396Y-8220960D01*
X12775396Y-8220960D02*
X12784920Y-8211436D01*
X12784920Y-8211436D02*
X12794444Y-8192388D01*
X12794444Y-8192388D02*
X12794444Y-8154293D01*
X12794444Y-8154293D02*
X12784920Y-8135246D01*
X12784920Y-8135246D02*
X12775396Y-8125722D01*
X12775396Y-8125722D02*
X12756348Y-8116198D01*
X12870634Y-8030484D02*
X12870634Y-8068579D01*
X12946825Y-8030484D02*
X12946825Y-8068579D01*
X13242063Y-8306674D02*
X13232539Y-8297150D01*
X13232539Y-8297150D02*
X13213491Y-8268579D01*
X13213491Y-8268579D02*
X13203968Y-8249531D01*
X13203968Y-8249531D02*
X13194444Y-8220960D01*
X13194444Y-8220960D02*
X13184920Y-8173341D01*
X13184920Y-8173341D02*
X13184920Y-8135246D01*
X13184920Y-8135246D02*
X13194444Y-8087627D01*
X13194444Y-8087627D02*
X13203968Y-8059055D01*
X13203968Y-8059055D02*
X13213491Y-8040008D01*
X13213491Y-8040008D02*
X13232539Y-8011436D01*
X13232539Y-8011436D02*
X13242063Y-8001912D01*
X13308729Y-8049531D02*
X13318253Y-8040008D01*
X13318253Y-8040008D02*
X13337301Y-8030484D01*
X13337301Y-8030484D02*
X13384920Y-8030484D01*
X13384920Y-8030484D02*
X13403968Y-8040008D01*
X13403968Y-8040008D02*
X13413491Y-8049531D01*
X13413491Y-8049531D02*
X13423015Y-8068579D01*
X13423015Y-8068579D02*
X13423015Y-8087627D01*
X13423015Y-8087627D02*
X13413491Y-8116198D01*
X13413491Y-8116198D02*
X13299206Y-8230484D01*
X13299206Y-8230484D02*
X13423015Y-8230484D01*
X13603968Y-8030484D02*
X13508729Y-8030484D01*
X13508729Y-8030484D02*
X13499206Y-8125722D01*
X13499206Y-8125722D02*
X13508729Y-8116198D01*
X13508729Y-8116198D02*
X13527777Y-8106674D01*
X13527777Y-8106674D02*
X13575396Y-8106674D01*
X13575396Y-8106674D02*
X13594444Y-8116198D01*
X13594444Y-8116198D02*
X13603968Y-8125722D01*
X13603968Y-8125722D02*
X13613491Y-8144769D01*
X13613491Y-8144769D02*
X13613491Y-8192388D01*
X13613491Y-8192388D02*
X13603968Y-8211436D01*
X13603968Y-8211436D02*
X13594444Y-8220960D01*
X13594444Y-8220960D02*
X13575396Y-8230484D01*
X13575396Y-8230484D02*
X13527777Y-8230484D01*
X13527777Y-8230484D02*
X13508729Y-8220960D01*
X13508729Y-8220960D02*
X13499206Y-8211436D01*
X13851587Y-8230484D02*
X13851587Y-8030484D01*
X13937301Y-8230484D02*
X13937301Y-8125722D01*
X13937301Y-8125722D02*
X13927777Y-8106674D01*
X13927777Y-8106674D02*
X13908730Y-8097150D01*
X13908730Y-8097150D02*
X13880158Y-8097150D01*
X13880158Y-8097150D02*
X13861110Y-8106674D01*
X13861110Y-8106674D02*
X13851587Y-8116198D01*
X14061110Y-8230484D02*
X14042063Y-8220960D01*
X14042063Y-8220960D02*
X14032539Y-8211436D01*
X14032539Y-8211436D02*
X14023015Y-8192388D01*
X14023015Y-8192388D02*
X14023015Y-8135246D01*
X14023015Y-8135246D02*
X14032539Y-8116198D01*
X14032539Y-8116198D02*
X14042063Y-8106674D01*
X14042063Y-8106674D02*
X14061110Y-8097150D01*
X14061110Y-8097150D02*
X14089682Y-8097150D01*
X14089682Y-8097150D02*
X14108730Y-8106674D01*
X14108730Y-8106674D02*
X14118253Y-8116198D01*
X14118253Y-8116198D02*
X14127777Y-8135246D01*
X14127777Y-8135246D02*
X14127777Y-8192388D01*
X14127777Y-8192388D02*
X14118253Y-8211436D01*
X14118253Y-8211436D02*
X14108730Y-8220960D01*
X14108730Y-8220960D02*
X14089682Y-8230484D01*
X14089682Y-8230484D02*
X14061110Y-8230484D01*
X14242063Y-8230484D02*
X14223015Y-8220960D01*
X14223015Y-8220960D02*
X14213491Y-8201912D01*
X14213491Y-8201912D02*
X14213491Y-8030484D01*
X14394444Y-8220960D02*
X14375396Y-8230484D01*
X14375396Y-8230484D02*
X14337301Y-8230484D01*
X14337301Y-8230484D02*
X14318253Y-8220960D01*
X14318253Y-8220960D02*
X14308730Y-8201912D01*
X14308730Y-8201912D02*
X14308730Y-8125722D01*
X14308730Y-8125722D02*
X14318253Y-8106674D01*
X14318253Y-8106674D02*
X14337301Y-8097150D01*
X14337301Y-8097150D02*
X14375396Y-8097150D01*
X14375396Y-8097150D02*
X14394444Y-8106674D01*
X14394444Y-8106674D02*
X14403968Y-8125722D01*
X14403968Y-8125722D02*
X14403968Y-8144769D01*
X14403968Y-8144769D02*
X14308730Y-8163817D01*
X14480158Y-8220960D02*
X14499206Y-8230484D01*
X14499206Y-8230484D02*
X14537301Y-8230484D01*
X14537301Y-8230484D02*
X14556349Y-8220960D01*
X14556349Y-8220960D02*
X14565872Y-8201912D01*
X14565872Y-8201912D02*
X14565872Y-8192388D01*
X14565872Y-8192388D02*
X14556349Y-8173341D01*
X14556349Y-8173341D02*
X14537301Y-8163817D01*
X14537301Y-8163817D02*
X14508730Y-8163817D01*
X14508730Y-8163817D02*
X14489682Y-8154293D01*
X14489682Y-8154293D02*
X14480158Y-8135246D01*
X14480158Y-8135246D02*
X14480158Y-8125722D01*
X14480158Y-8125722D02*
X14489682Y-8106674D01*
X14489682Y-8106674D02*
X14508730Y-8097150D01*
X14508730Y-8097150D02*
X14537301Y-8097150D01*
X14537301Y-8097150D02*
X14556349Y-8106674D01*
X14632539Y-8306674D02*
X14642063Y-8297150D01*
X14642063Y-8297150D02*
X14661111Y-8268579D01*
X14661111Y-8268579D02*
X14670634Y-8249531D01*
X14670634Y-8249531D02*
X14680158Y-8220960D01*
X14680158Y-8220960D02*
X14689682Y-8173341D01*
X14689682Y-8173341D02*
X14689682Y-8135246D01*
X14689682Y-8135246D02*
X14680158Y-8087627D01*
X14680158Y-8087627D02*
X14670634Y-8059055D01*
X14670634Y-8059055D02*
X14661111Y-8040008D01*
X14661111Y-8040008D02*
X14642063Y-8011436D01*
X14642063Y-8011436D02*
X14632539Y-8001912D01*
D12*
X9667000Y-8403000D02*
G75*
G02*
X9617000Y-8403000I-25000J0D01*
G01*
X9617000Y-8403000D02*
G75*
G02*
X9667000Y-8403000I25000J0D01*
G01*
D11*
X9965872Y-8294484D02*
X9984920Y-8294484D01*
X9984920Y-8294484D02*
X10003967Y-8304008D01*
X10003967Y-8304008D02*
X10013491Y-8313531D01*
X10013491Y-8313531D02*
X10023015Y-8332579D01*
X10023015Y-8332579D02*
X10032539Y-8370674D01*
X10032539Y-8370674D02*
X10032539Y-8418293D01*
X10032539Y-8418293D02*
X10023015Y-8456389D01*
X10023015Y-8456389D02*
X10013491Y-8475436D01*
X10013491Y-8475436D02*
X10003967Y-8484960D01*
X10003967Y-8484960D02*
X9984920Y-8494484D01*
X9984920Y-8494484D02*
X9965872Y-8494484D01*
X9965872Y-8494484D02*
X9946824Y-8484960D01*
X9946824Y-8484960D02*
X9937301Y-8475436D01*
X9937301Y-8475436D02*
X9927777Y-8456389D01*
X9927777Y-8456389D02*
X9918253Y-8418293D01*
X9918253Y-8418293D02*
X9918253Y-8370674D01*
X9918253Y-8370674D02*
X9927777Y-8332579D01*
X9927777Y-8332579D02*
X9937301Y-8313531D01*
X9937301Y-8313531D02*
X9946824Y-8304008D01*
X9946824Y-8304008D02*
X9965872Y-8294484D01*
X10118253Y-8475436D02*
X10127777Y-8484960D01*
X10127777Y-8484960D02*
X10118253Y-8494484D01*
X10118253Y-8494484D02*
X10108729Y-8484960D01*
X10108729Y-8484960D02*
X10118253Y-8475436D01*
X10118253Y-8475436D02*
X10118253Y-8494484D01*
X10308729Y-8294484D02*
X10213491Y-8294484D01*
X10213491Y-8294484D02*
X10203967Y-8389722D01*
X10203967Y-8389722D02*
X10213491Y-8380198D01*
X10213491Y-8380198D02*
X10232539Y-8370674D01*
X10232539Y-8370674D02*
X10280158Y-8370674D01*
X10280158Y-8370674D02*
X10299205Y-8380198D01*
X10299205Y-8380198D02*
X10308729Y-8389722D01*
X10308729Y-8389722D02*
X10318253Y-8408770D01*
X10318253Y-8408770D02*
X10318253Y-8456389D01*
X10318253Y-8456389D02*
X10308729Y-8475436D01*
X10308729Y-8475436D02*
X10299205Y-8484960D01*
X10299205Y-8484960D02*
X10280158Y-8494484D01*
X10280158Y-8494484D02*
X10232539Y-8494484D01*
X10232539Y-8494484D02*
X10213491Y-8484960D01*
X10213491Y-8484960D02*
X10203967Y-8475436D01*
X10442063Y-8294484D02*
X10461110Y-8294484D01*
X10461110Y-8294484D02*
X10480158Y-8304008D01*
X10480158Y-8304008D02*
X10489682Y-8313531D01*
X10489682Y-8313531D02*
X10499205Y-8332579D01*
X10499205Y-8332579D02*
X10508729Y-8370674D01*
X10508729Y-8370674D02*
X10508729Y-8418293D01*
X10508729Y-8418293D02*
X10499205Y-8456389D01*
X10499205Y-8456389D02*
X10489682Y-8475436D01*
X10489682Y-8475436D02*
X10480158Y-8484960D01*
X10480158Y-8484960D02*
X10461110Y-8494484D01*
X10461110Y-8494484D02*
X10442063Y-8494484D01*
X10442063Y-8494484D02*
X10423015Y-8484960D01*
X10423015Y-8484960D02*
X10413491Y-8475436D01*
X10413491Y-8475436D02*
X10403967Y-8456389D01*
X10403967Y-8456389D02*
X10394444Y-8418293D01*
X10394444Y-8418293D02*
X10394444Y-8370674D01*
X10394444Y-8370674D02*
X10403967Y-8332579D01*
X10403967Y-8332579D02*
X10413491Y-8313531D01*
X10413491Y-8313531D02*
X10423015Y-8304008D01*
X10423015Y-8304008D02*
X10442063Y-8294484D01*
X10632539Y-8294484D02*
X10651586Y-8294484D01*
X10651586Y-8294484D02*
X10670634Y-8304008D01*
X10670634Y-8304008D02*
X10680158Y-8313531D01*
X10680158Y-8313531D02*
X10689682Y-8332579D01*
X10689682Y-8332579D02*
X10699205Y-8370674D01*
X10699205Y-8370674D02*
X10699205Y-8418293D01*
X10699205Y-8418293D02*
X10689682Y-8456389D01*
X10689682Y-8456389D02*
X10680158Y-8475436D01*
X10680158Y-8475436D02*
X10670634Y-8484960D01*
X10670634Y-8484960D02*
X10651586Y-8494484D01*
X10651586Y-8494484D02*
X10632539Y-8494484D01*
X10632539Y-8494484D02*
X10613491Y-8484960D01*
X10613491Y-8484960D02*
X10603967Y-8475436D01*
X10603967Y-8475436D02*
X10594444Y-8456389D01*
X10594444Y-8456389D02*
X10584920Y-8418293D01*
X10584920Y-8418293D02*
X10584920Y-8370674D01*
X10584920Y-8370674D02*
X10594444Y-8332579D01*
X10594444Y-8332579D02*
X10603967Y-8313531D01*
X10603967Y-8313531D02*
X10613491Y-8304008D01*
X10613491Y-8304008D02*
X10632539Y-8294484D01*
X10784920Y-8494484D02*
X10784920Y-8361150D01*
X10784920Y-8380198D02*
X10794444Y-8370674D01*
X10794444Y-8370674D02*
X10813491Y-8361150D01*
X10813491Y-8361150D02*
X10842063Y-8361150D01*
X10842063Y-8361150D02*
X10861110Y-8370674D01*
X10861110Y-8370674D02*
X10870634Y-8389722D01*
X10870634Y-8389722D02*
X10870634Y-8494484D01*
X10870634Y-8389722D02*
X10880158Y-8370674D01*
X10880158Y-8370674D02*
X10899205Y-8361150D01*
X10899205Y-8361150D02*
X10927777Y-8361150D01*
X10927777Y-8361150D02*
X10946825Y-8370674D01*
X10946825Y-8370674D02*
X10956348Y-8389722D01*
X10956348Y-8389722D02*
X10956348Y-8494484D01*
X11051586Y-8494484D02*
X11051586Y-8361150D01*
X11051586Y-8380198D02*
X11061110Y-8370674D01*
X11061110Y-8370674D02*
X11080158Y-8361150D01*
X11080158Y-8361150D02*
X11108729Y-8361150D01*
X11108729Y-8361150D02*
X11127777Y-8370674D01*
X11127777Y-8370674D02*
X11137301Y-8389722D01*
X11137301Y-8389722D02*
X11137301Y-8494484D01*
X11137301Y-8389722D02*
X11146825Y-8370674D01*
X11146825Y-8370674D02*
X11165872Y-8361150D01*
X11165872Y-8361150D02*
X11194443Y-8361150D01*
X11194443Y-8361150D02*
X11213491Y-8370674D01*
X11213491Y-8370674D02*
X11223015Y-8389722D01*
X11223015Y-8389722D02*
X11223015Y-8494484D01*
X11613491Y-8284960D02*
X11442063Y-8542103D01*
X11870634Y-8294484D02*
X11889682Y-8294484D01*
X11889682Y-8294484D02*
X11908729Y-8304008D01*
X11908729Y-8304008D02*
X11918253Y-8313531D01*
X11918253Y-8313531D02*
X11927777Y-8332579D01*
X11927777Y-8332579D02*
X11937301Y-8370674D01*
X11937301Y-8370674D02*
X11937301Y-8418293D01*
X11937301Y-8418293D02*
X11927777Y-8456389D01*
X11927777Y-8456389D02*
X11918253Y-8475436D01*
X11918253Y-8475436D02*
X11908729Y-8484960D01*
X11908729Y-8484960D02*
X11889682Y-8494484D01*
X11889682Y-8494484D02*
X11870634Y-8494484D01*
X11870634Y-8494484D02*
X11851586Y-8484960D01*
X11851586Y-8484960D02*
X11842063Y-8475436D01*
X11842063Y-8475436D02*
X11832539Y-8456389D01*
X11832539Y-8456389D02*
X11823015Y-8418293D01*
X11823015Y-8418293D02*
X11823015Y-8370674D01*
X11823015Y-8370674D02*
X11832539Y-8332579D01*
X11832539Y-8332579D02*
X11842063Y-8313531D01*
X11842063Y-8313531D02*
X11851586Y-8304008D01*
X11851586Y-8304008D02*
X11870634Y-8294484D01*
X12023015Y-8475436D02*
X12032539Y-8484960D01*
X12032539Y-8484960D02*
X12023015Y-8494484D01*
X12023015Y-8494484D02*
X12013491Y-8484960D01*
X12013491Y-8484960D02*
X12023015Y-8475436D01*
X12023015Y-8475436D02*
X12023015Y-8494484D01*
X12156348Y-8294484D02*
X12175396Y-8294484D01*
X12175396Y-8294484D02*
X12194444Y-8304008D01*
X12194444Y-8304008D02*
X12203967Y-8313531D01*
X12203967Y-8313531D02*
X12213491Y-8332579D01*
X12213491Y-8332579D02*
X12223015Y-8370674D01*
X12223015Y-8370674D02*
X12223015Y-8418293D01*
X12223015Y-8418293D02*
X12213491Y-8456389D01*
X12213491Y-8456389D02*
X12203967Y-8475436D01*
X12203967Y-8475436D02*
X12194444Y-8484960D01*
X12194444Y-8484960D02*
X12175396Y-8494484D01*
X12175396Y-8494484D02*
X12156348Y-8494484D01*
X12156348Y-8494484D02*
X12137301Y-8484960D01*
X12137301Y-8484960D02*
X12127777Y-8475436D01*
X12127777Y-8475436D02*
X12118253Y-8456389D01*
X12118253Y-8456389D02*
X12108729Y-8418293D01*
X12108729Y-8418293D02*
X12108729Y-8370674D01*
X12108729Y-8370674D02*
X12118253Y-8332579D01*
X12118253Y-8332579D02*
X12127777Y-8313531D01*
X12127777Y-8313531D02*
X12137301Y-8304008D01*
X12137301Y-8304008D02*
X12156348Y-8294484D01*
X12413491Y-8494484D02*
X12299206Y-8494484D01*
X12356348Y-8494484D02*
X12356348Y-8294484D01*
X12356348Y-8294484D02*
X12337301Y-8323055D01*
X12337301Y-8323055D02*
X12318253Y-8342103D01*
X12318253Y-8342103D02*
X12299206Y-8351627D01*
X12508729Y-8494484D02*
X12546825Y-8494484D01*
X12546825Y-8494484D02*
X12565872Y-8484960D01*
X12565872Y-8484960D02*
X12575396Y-8475436D01*
X12575396Y-8475436D02*
X12594444Y-8446865D01*
X12594444Y-8446865D02*
X12603967Y-8408770D01*
X12603967Y-8408770D02*
X12603967Y-8332579D01*
X12603967Y-8332579D02*
X12594444Y-8313531D01*
X12594444Y-8313531D02*
X12584920Y-8304008D01*
X12584920Y-8304008D02*
X12565872Y-8294484D01*
X12565872Y-8294484D02*
X12527777Y-8294484D01*
X12527777Y-8294484D02*
X12508729Y-8304008D01*
X12508729Y-8304008D02*
X12499206Y-8313531D01*
X12499206Y-8313531D02*
X12489682Y-8332579D01*
X12489682Y-8332579D02*
X12489682Y-8380198D01*
X12489682Y-8380198D02*
X12499206Y-8399246D01*
X12499206Y-8399246D02*
X12508729Y-8408770D01*
X12508729Y-8408770D02*
X12527777Y-8418293D01*
X12527777Y-8418293D02*
X12565872Y-8418293D01*
X12565872Y-8418293D02*
X12584920Y-8408770D01*
X12584920Y-8408770D02*
X12594444Y-8399246D01*
X12594444Y-8399246D02*
X12603967Y-8380198D01*
X12670634Y-8294484D02*
X12803967Y-8294484D01*
X12803967Y-8294484D02*
X12718253Y-8494484D01*
X12870634Y-8294484D02*
X12870634Y-8332579D01*
X12946825Y-8294484D02*
X12946825Y-8332579D01*
X13242063Y-8570674D02*
X13232539Y-8561150D01*
X13232539Y-8561150D02*
X13213491Y-8532579D01*
X13213491Y-8532579D02*
X13203968Y-8513531D01*
X13203968Y-8513531D02*
X13194444Y-8484960D01*
X13194444Y-8484960D02*
X13184920Y-8437341D01*
X13184920Y-8437341D02*
X13184920Y-8399246D01*
X13184920Y-8399246D02*
X13194444Y-8351627D01*
X13194444Y-8351627D02*
X13203968Y-8323055D01*
X13203968Y-8323055D02*
X13213491Y-8304008D01*
X13213491Y-8304008D02*
X13232539Y-8275436D01*
X13232539Y-8275436D02*
X13242063Y-8265912D01*
X13299206Y-8294484D02*
X13432539Y-8294484D01*
X13432539Y-8294484D02*
X13346825Y-8494484D01*
X13661110Y-8494484D02*
X13661110Y-8294484D01*
X13746825Y-8494484D02*
X13746825Y-8389722D01*
X13746825Y-8389722D02*
X13737301Y-8370674D01*
X13737301Y-8370674D02*
X13718253Y-8361150D01*
X13718253Y-8361150D02*
X13689682Y-8361150D01*
X13689682Y-8361150D02*
X13670634Y-8370674D01*
X13670634Y-8370674D02*
X13661110Y-8380198D01*
X13870634Y-8494484D02*
X13851587Y-8484960D01*
X13851587Y-8484960D02*
X13842063Y-8475436D01*
X13842063Y-8475436D02*
X13832539Y-8456389D01*
X13832539Y-8456389D02*
X13832539Y-8399246D01*
X13832539Y-8399246D02*
X13842063Y-8380198D01*
X13842063Y-8380198D02*
X13851587Y-8370674D01*
X13851587Y-8370674D02*
X13870634Y-8361150D01*
X13870634Y-8361150D02*
X13899206Y-8361150D01*
X13899206Y-8361150D02*
X13918253Y-8370674D01*
X13918253Y-8370674D02*
X13927777Y-8380198D01*
X13927777Y-8380198D02*
X13937301Y-8399246D01*
X13937301Y-8399246D02*
X13937301Y-8456389D01*
X13937301Y-8456389D02*
X13927777Y-8475436D01*
X13927777Y-8475436D02*
X13918253Y-8484960D01*
X13918253Y-8484960D02*
X13899206Y-8494484D01*
X13899206Y-8494484D02*
X13870634Y-8494484D01*
X14051587Y-8494484D02*
X14032539Y-8484960D01*
X14032539Y-8484960D02*
X14023015Y-8465912D01*
X14023015Y-8465912D02*
X14023015Y-8294484D01*
X14203968Y-8484960D02*
X14184920Y-8494484D01*
X14184920Y-8494484D02*
X14146825Y-8494484D01*
X14146825Y-8494484D02*
X14127777Y-8484960D01*
X14127777Y-8484960D02*
X14118253Y-8465912D01*
X14118253Y-8465912D02*
X14118253Y-8389722D01*
X14118253Y-8389722D02*
X14127777Y-8370674D01*
X14127777Y-8370674D02*
X14146825Y-8361150D01*
X14146825Y-8361150D02*
X14184920Y-8361150D01*
X14184920Y-8361150D02*
X14203968Y-8370674D01*
X14203968Y-8370674D02*
X14213491Y-8389722D01*
X14213491Y-8389722D02*
X14213491Y-8408770D01*
X14213491Y-8408770D02*
X14118253Y-8427817D01*
X14289682Y-8484960D02*
X14308730Y-8494484D01*
X14308730Y-8494484D02*
X14346825Y-8494484D01*
X14346825Y-8494484D02*
X14365872Y-8484960D01*
X14365872Y-8484960D02*
X14375396Y-8465912D01*
X14375396Y-8465912D02*
X14375396Y-8456389D01*
X14375396Y-8456389D02*
X14365872Y-8437341D01*
X14365872Y-8437341D02*
X14346825Y-8427817D01*
X14346825Y-8427817D02*
X14318253Y-8427817D01*
X14318253Y-8427817D02*
X14299206Y-8418293D01*
X14299206Y-8418293D02*
X14289682Y-8399246D01*
X14289682Y-8399246D02*
X14289682Y-8389722D01*
X14289682Y-8389722D02*
X14299206Y-8370674D01*
X14299206Y-8370674D02*
X14318253Y-8361150D01*
X14318253Y-8361150D02*
X14346825Y-8361150D01*
X14346825Y-8361150D02*
X14365872Y-8370674D01*
X14442063Y-8570674D02*
X14451587Y-8561150D01*
X14451587Y-8561150D02*
X14470634Y-8532579D01*
X14470634Y-8532579D02*
X14480158Y-8513531D01*
X14480158Y-8513531D02*
X14489682Y-8484960D01*
X14489682Y-8484960D02*
X14499206Y-8437341D01*
X14499206Y-8437341D02*
X14499206Y-8399246D01*
X14499206Y-8399246D02*
X14489682Y-8351627D01*
X14489682Y-8351627D02*
X14480158Y-8323055D01*
X14480158Y-8323055D02*
X14470634Y-8304008D01*
X14470634Y-8304008D02*
X14451587Y-8275436D01*
X14451587Y-8275436D02*
X14442063Y-8265912D01*
D12*
X9627000Y-8627000D02*
X9627000Y-8707000D01*
X9587000Y-8667000D02*
X9667000Y-8667000D01*
D11*
X9965872Y-8558484D02*
X9984920Y-8558484D01*
X9984920Y-8558484D02*
X10003967Y-8568008D01*
X10003967Y-8568008D02*
X10013491Y-8577531D01*
X10013491Y-8577531D02*
X10023015Y-8596579D01*
X10023015Y-8596579D02*
X10032539Y-8634674D01*
X10032539Y-8634674D02*
X10032539Y-8682293D01*
X10032539Y-8682293D02*
X10023015Y-8720389D01*
X10023015Y-8720389D02*
X10013491Y-8739436D01*
X10013491Y-8739436D02*
X10003967Y-8748960D01*
X10003967Y-8748960D02*
X9984920Y-8758484D01*
X9984920Y-8758484D02*
X9965872Y-8758484D01*
X9965872Y-8758484D02*
X9946824Y-8748960D01*
X9946824Y-8748960D02*
X9937301Y-8739436D01*
X9937301Y-8739436D02*
X9927777Y-8720389D01*
X9927777Y-8720389D02*
X9918253Y-8682293D01*
X9918253Y-8682293D02*
X9918253Y-8634674D01*
X9918253Y-8634674D02*
X9927777Y-8596579D01*
X9927777Y-8596579D02*
X9937301Y-8577531D01*
X9937301Y-8577531D02*
X9946824Y-8568008D01*
X9946824Y-8568008D02*
X9965872Y-8558484D01*
X10118253Y-8739436D02*
X10127777Y-8748960D01*
X10127777Y-8748960D02*
X10118253Y-8758484D01*
X10118253Y-8758484D02*
X10108729Y-8748960D01*
X10108729Y-8748960D02*
X10118253Y-8739436D01*
X10118253Y-8739436D02*
X10118253Y-8758484D01*
X10242063Y-8644198D02*
X10223015Y-8634674D01*
X10223015Y-8634674D02*
X10213491Y-8625150D01*
X10213491Y-8625150D02*
X10203967Y-8606103D01*
X10203967Y-8606103D02*
X10203967Y-8596579D01*
X10203967Y-8596579D02*
X10213491Y-8577531D01*
X10213491Y-8577531D02*
X10223015Y-8568008D01*
X10223015Y-8568008D02*
X10242063Y-8558484D01*
X10242063Y-8558484D02*
X10280158Y-8558484D01*
X10280158Y-8558484D02*
X10299205Y-8568008D01*
X10299205Y-8568008D02*
X10308729Y-8577531D01*
X10308729Y-8577531D02*
X10318253Y-8596579D01*
X10318253Y-8596579D02*
X10318253Y-8606103D01*
X10318253Y-8606103D02*
X10308729Y-8625150D01*
X10308729Y-8625150D02*
X10299205Y-8634674D01*
X10299205Y-8634674D02*
X10280158Y-8644198D01*
X10280158Y-8644198D02*
X10242063Y-8644198D01*
X10242063Y-8644198D02*
X10223015Y-8653722D01*
X10223015Y-8653722D02*
X10213491Y-8663246D01*
X10213491Y-8663246D02*
X10203967Y-8682293D01*
X10203967Y-8682293D02*
X10203967Y-8720389D01*
X10203967Y-8720389D02*
X10213491Y-8739436D01*
X10213491Y-8739436D02*
X10223015Y-8748960D01*
X10223015Y-8748960D02*
X10242063Y-8758484D01*
X10242063Y-8758484D02*
X10280158Y-8758484D01*
X10280158Y-8758484D02*
X10299205Y-8748960D01*
X10299205Y-8748960D02*
X10308729Y-8739436D01*
X10308729Y-8739436D02*
X10318253Y-8720389D01*
X10318253Y-8720389D02*
X10318253Y-8682293D01*
X10318253Y-8682293D02*
X10308729Y-8663246D01*
X10308729Y-8663246D02*
X10299205Y-8653722D01*
X10299205Y-8653722D02*
X10280158Y-8644198D01*
X10442063Y-8558484D02*
X10461110Y-8558484D01*
X10461110Y-8558484D02*
X10480158Y-8568008D01*
X10480158Y-8568008D02*
X10489682Y-8577531D01*
X10489682Y-8577531D02*
X10499205Y-8596579D01*
X10499205Y-8596579D02*
X10508729Y-8634674D01*
X10508729Y-8634674D02*
X10508729Y-8682293D01*
X10508729Y-8682293D02*
X10499205Y-8720389D01*
X10499205Y-8720389D02*
X10489682Y-8739436D01*
X10489682Y-8739436D02*
X10480158Y-8748960D01*
X10480158Y-8748960D02*
X10461110Y-8758484D01*
X10461110Y-8758484D02*
X10442063Y-8758484D01*
X10442063Y-8758484D02*
X10423015Y-8748960D01*
X10423015Y-8748960D02*
X10413491Y-8739436D01*
X10413491Y-8739436D02*
X10403967Y-8720389D01*
X10403967Y-8720389D02*
X10394444Y-8682293D01*
X10394444Y-8682293D02*
X10394444Y-8634674D01*
X10394444Y-8634674D02*
X10403967Y-8596579D01*
X10403967Y-8596579D02*
X10413491Y-8577531D01*
X10413491Y-8577531D02*
X10423015Y-8568008D01*
X10423015Y-8568008D02*
X10442063Y-8558484D01*
X10632539Y-8558484D02*
X10651586Y-8558484D01*
X10651586Y-8558484D02*
X10670634Y-8568008D01*
X10670634Y-8568008D02*
X10680158Y-8577531D01*
X10680158Y-8577531D02*
X10689682Y-8596579D01*
X10689682Y-8596579D02*
X10699205Y-8634674D01*
X10699205Y-8634674D02*
X10699205Y-8682293D01*
X10699205Y-8682293D02*
X10689682Y-8720389D01*
X10689682Y-8720389D02*
X10680158Y-8739436D01*
X10680158Y-8739436D02*
X10670634Y-8748960D01*
X10670634Y-8748960D02*
X10651586Y-8758484D01*
X10651586Y-8758484D02*
X10632539Y-8758484D01*
X10632539Y-8758484D02*
X10613491Y-8748960D01*
X10613491Y-8748960D02*
X10603967Y-8739436D01*
X10603967Y-8739436D02*
X10594444Y-8720389D01*
X10594444Y-8720389D02*
X10584920Y-8682293D01*
X10584920Y-8682293D02*
X10584920Y-8634674D01*
X10584920Y-8634674D02*
X10594444Y-8596579D01*
X10594444Y-8596579D02*
X10603967Y-8577531D01*
X10603967Y-8577531D02*
X10613491Y-8568008D01*
X10613491Y-8568008D02*
X10632539Y-8558484D01*
X10784920Y-8758484D02*
X10784920Y-8625150D01*
X10784920Y-8644198D02*
X10794444Y-8634674D01*
X10794444Y-8634674D02*
X10813491Y-8625150D01*
X10813491Y-8625150D02*
X10842063Y-8625150D01*
X10842063Y-8625150D02*
X10861110Y-8634674D01*
X10861110Y-8634674D02*
X10870634Y-8653722D01*
X10870634Y-8653722D02*
X10870634Y-8758484D01*
X10870634Y-8653722D02*
X10880158Y-8634674D01*
X10880158Y-8634674D02*
X10899205Y-8625150D01*
X10899205Y-8625150D02*
X10927777Y-8625150D01*
X10927777Y-8625150D02*
X10946825Y-8634674D01*
X10946825Y-8634674D02*
X10956348Y-8653722D01*
X10956348Y-8653722D02*
X10956348Y-8758484D01*
X11051586Y-8758484D02*
X11051586Y-8625150D01*
X11051586Y-8644198D02*
X11061110Y-8634674D01*
X11061110Y-8634674D02*
X11080158Y-8625150D01*
X11080158Y-8625150D02*
X11108729Y-8625150D01*
X11108729Y-8625150D02*
X11127777Y-8634674D01*
X11127777Y-8634674D02*
X11137301Y-8653722D01*
X11137301Y-8653722D02*
X11137301Y-8758484D01*
X11137301Y-8653722D02*
X11146825Y-8634674D01*
X11146825Y-8634674D02*
X11165872Y-8625150D01*
X11165872Y-8625150D02*
X11194443Y-8625150D01*
X11194443Y-8625150D02*
X11213491Y-8634674D01*
X11213491Y-8634674D02*
X11223015Y-8653722D01*
X11223015Y-8653722D02*
X11223015Y-8758484D01*
X11613491Y-8548960D02*
X11442063Y-8806103D01*
X11870634Y-8558484D02*
X11889682Y-8558484D01*
X11889682Y-8558484D02*
X11908729Y-8568008D01*
X11908729Y-8568008D02*
X11918253Y-8577531D01*
X11918253Y-8577531D02*
X11927777Y-8596579D01*
X11927777Y-8596579D02*
X11937301Y-8634674D01*
X11937301Y-8634674D02*
X11937301Y-8682293D01*
X11937301Y-8682293D02*
X11927777Y-8720389D01*
X11927777Y-8720389D02*
X11918253Y-8739436D01*
X11918253Y-8739436D02*
X11908729Y-8748960D01*
X11908729Y-8748960D02*
X11889682Y-8758484D01*
X11889682Y-8758484D02*
X11870634Y-8758484D01*
X11870634Y-8758484D02*
X11851586Y-8748960D01*
X11851586Y-8748960D02*
X11842063Y-8739436D01*
X11842063Y-8739436D02*
X11832539Y-8720389D01*
X11832539Y-8720389D02*
X11823015Y-8682293D01*
X11823015Y-8682293D02*
X11823015Y-8634674D01*
X11823015Y-8634674D02*
X11832539Y-8596579D01*
X11832539Y-8596579D02*
X11842063Y-8577531D01*
X11842063Y-8577531D02*
X11851586Y-8568008D01*
X11851586Y-8568008D02*
X11870634Y-8558484D01*
X12023015Y-8739436D02*
X12032539Y-8748960D01*
X12032539Y-8748960D02*
X12023015Y-8758484D01*
X12023015Y-8758484D02*
X12013491Y-8748960D01*
X12013491Y-8748960D02*
X12023015Y-8739436D01*
X12023015Y-8739436D02*
X12023015Y-8758484D01*
X12156348Y-8558484D02*
X12175396Y-8558484D01*
X12175396Y-8558484D02*
X12194444Y-8568008D01*
X12194444Y-8568008D02*
X12203967Y-8577531D01*
X12203967Y-8577531D02*
X12213491Y-8596579D01*
X12213491Y-8596579D02*
X12223015Y-8634674D01*
X12223015Y-8634674D02*
X12223015Y-8682293D01*
X12223015Y-8682293D02*
X12213491Y-8720389D01*
X12213491Y-8720389D02*
X12203967Y-8739436D01*
X12203967Y-8739436D02*
X12194444Y-8748960D01*
X12194444Y-8748960D02*
X12175396Y-8758484D01*
X12175396Y-8758484D02*
X12156348Y-8758484D01*
X12156348Y-8758484D02*
X12137301Y-8748960D01*
X12137301Y-8748960D02*
X12127777Y-8739436D01*
X12127777Y-8739436D02*
X12118253Y-8720389D01*
X12118253Y-8720389D02*
X12108729Y-8682293D01*
X12108729Y-8682293D02*
X12108729Y-8634674D01*
X12108729Y-8634674D02*
X12118253Y-8596579D01*
X12118253Y-8596579D02*
X12127777Y-8577531D01*
X12127777Y-8577531D02*
X12137301Y-8568008D01*
X12137301Y-8568008D02*
X12156348Y-8558484D01*
X12289682Y-8558484D02*
X12413491Y-8558484D01*
X12413491Y-8558484D02*
X12346825Y-8634674D01*
X12346825Y-8634674D02*
X12375396Y-8634674D01*
X12375396Y-8634674D02*
X12394444Y-8644198D01*
X12394444Y-8644198D02*
X12403967Y-8653722D01*
X12403967Y-8653722D02*
X12413491Y-8672770D01*
X12413491Y-8672770D02*
X12413491Y-8720389D01*
X12413491Y-8720389D02*
X12403967Y-8739436D01*
X12403967Y-8739436D02*
X12394444Y-8748960D01*
X12394444Y-8748960D02*
X12375396Y-8758484D01*
X12375396Y-8758484D02*
X12318253Y-8758484D01*
X12318253Y-8758484D02*
X12299206Y-8748960D01*
X12299206Y-8748960D02*
X12289682Y-8739436D01*
X12603967Y-8758484D02*
X12489682Y-8758484D01*
X12546825Y-8758484D02*
X12546825Y-8558484D01*
X12546825Y-8558484D02*
X12527777Y-8587055D01*
X12527777Y-8587055D02*
X12508729Y-8606103D01*
X12508729Y-8606103D02*
X12489682Y-8615627D01*
X12784920Y-8558484D02*
X12689682Y-8558484D01*
X12689682Y-8558484D02*
X12680158Y-8653722D01*
X12680158Y-8653722D02*
X12689682Y-8644198D01*
X12689682Y-8644198D02*
X12708729Y-8634674D01*
X12708729Y-8634674D02*
X12756348Y-8634674D01*
X12756348Y-8634674D02*
X12775396Y-8644198D01*
X12775396Y-8644198D02*
X12784920Y-8653722D01*
X12784920Y-8653722D02*
X12794444Y-8672770D01*
X12794444Y-8672770D02*
X12794444Y-8720389D01*
X12794444Y-8720389D02*
X12784920Y-8739436D01*
X12784920Y-8739436D02*
X12775396Y-8748960D01*
X12775396Y-8748960D02*
X12756348Y-8758484D01*
X12756348Y-8758484D02*
X12708729Y-8758484D01*
X12708729Y-8758484D02*
X12689682Y-8748960D01*
X12689682Y-8748960D02*
X12680158Y-8739436D01*
X12870634Y-8558484D02*
X12870634Y-8596579D01*
X12946825Y-8558484D02*
X12946825Y-8596579D01*
X13242063Y-8834674D02*
X13232539Y-8825150D01*
X13232539Y-8825150D02*
X13213491Y-8796579D01*
X13213491Y-8796579D02*
X13203968Y-8777531D01*
X13203968Y-8777531D02*
X13194444Y-8748960D01*
X13194444Y-8748960D02*
X13184920Y-8701341D01*
X13184920Y-8701341D02*
X13184920Y-8663246D01*
X13184920Y-8663246D02*
X13194444Y-8615627D01*
X13194444Y-8615627D02*
X13203968Y-8587055D01*
X13203968Y-8587055D02*
X13213491Y-8568008D01*
X13213491Y-8568008D02*
X13232539Y-8539436D01*
X13232539Y-8539436D02*
X13242063Y-8529912D01*
X13356348Y-8558484D02*
X13375396Y-8558484D01*
X13375396Y-8558484D02*
X13394444Y-8568008D01*
X13394444Y-8568008D02*
X13403968Y-8577531D01*
X13403968Y-8577531D02*
X13413491Y-8596579D01*
X13413491Y-8596579D02*
X13423015Y-8634674D01*
X13423015Y-8634674D02*
X13423015Y-8682293D01*
X13423015Y-8682293D02*
X13413491Y-8720389D01*
X13413491Y-8720389D02*
X13403968Y-8739436D01*
X13403968Y-8739436D02*
X13394444Y-8748960D01*
X13394444Y-8748960D02*
X13375396Y-8758484D01*
X13375396Y-8758484D02*
X13356348Y-8758484D01*
X13356348Y-8758484D02*
X13337301Y-8748960D01*
X13337301Y-8748960D02*
X13327777Y-8739436D01*
X13327777Y-8739436D02*
X13318253Y-8720389D01*
X13318253Y-8720389D02*
X13308729Y-8682293D01*
X13308729Y-8682293D02*
X13308729Y-8634674D01*
X13308729Y-8634674D02*
X13318253Y-8596579D01*
X13318253Y-8596579D02*
X13327777Y-8577531D01*
X13327777Y-8577531D02*
X13337301Y-8568008D01*
X13337301Y-8568008D02*
X13356348Y-8558484D01*
X13661110Y-8758484D02*
X13661110Y-8558484D01*
X13746825Y-8758484D02*
X13746825Y-8653722D01*
X13746825Y-8653722D02*
X13737301Y-8634674D01*
X13737301Y-8634674D02*
X13718253Y-8625150D01*
X13718253Y-8625150D02*
X13689682Y-8625150D01*
X13689682Y-8625150D02*
X13670634Y-8634674D01*
X13670634Y-8634674D02*
X13661110Y-8644198D01*
X13870634Y-8758484D02*
X13851587Y-8748960D01*
X13851587Y-8748960D02*
X13842063Y-8739436D01*
X13842063Y-8739436D02*
X13832539Y-8720389D01*
X13832539Y-8720389D02*
X13832539Y-8663246D01*
X13832539Y-8663246D02*
X13842063Y-8644198D01*
X13842063Y-8644198D02*
X13851587Y-8634674D01*
X13851587Y-8634674D02*
X13870634Y-8625150D01*
X13870634Y-8625150D02*
X13899206Y-8625150D01*
X13899206Y-8625150D02*
X13918253Y-8634674D01*
X13918253Y-8634674D02*
X13927777Y-8644198D01*
X13927777Y-8644198D02*
X13937301Y-8663246D01*
X13937301Y-8663246D02*
X13937301Y-8720389D01*
X13937301Y-8720389D02*
X13927777Y-8739436D01*
X13927777Y-8739436D02*
X13918253Y-8748960D01*
X13918253Y-8748960D02*
X13899206Y-8758484D01*
X13899206Y-8758484D02*
X13870634Y-8758484D01*
X14051587Y-8758484D02*
X14032539Y-8748960D01*
X14032539Y-8748960D02*
X14023015Y-8729912D01*
X14023015Y-8729912D02*
X14023015Y-8558484D01*
X14203968Y-8748960D02*
X14184920Y-8758484D01*
X14184920Y-8758484D02*
X14146825Y-8758484D01*
X14146825Y-8758484D02*
X14127777Y-8748960D01*
X14127777Y-8748960D02*
X14118253Y-8729912D01*
X14118253Y-8729912D02*
X14118253Y-8653722D01*
X14118253Y-8653722D02*
X14127777Y-8634674D01*
X14127777Y-8634674D02*
X14146825Y-8625150D01*
X14146825Y-8625150D02*
X14184920Y-8625150D01*
X14184920Y-8625150D02*
X14203968Y-8634674D01*
X14203968Y-8634674D02*
X14213491Y-8653722D01*
X14213491Y-8653722D02*
X14213491Y-8672770D01*
X14213491Y-8672770D02*
X14118253Y-8691817D01*
X14289682Y-8748960D02*
X14308730Y-8758484D01*
X14308730Y-8758484D02*
X14346825Y-8758484D01*
X14346825Y-8758484D02*
X14365872Y-8748960D01*
X14365872Y-8748960D02*
X14375396Y-8729912D01*
X14375396Y-8729912D02*
X14375396Y-8720389D01*
X14375396Y-8720389D02*
X14365872Y-8701341D01*
X14365872Y-8701341D02*
X14346825Y-8691817D01*
X14346825Y-8691817D02*
X14318253Y-8691817D01*
X14318253Y-8691817D02*
X14299206Y-8682293D01*
X14299206Y-8682293D02*
X14289682Y-8663246D01*
X14289682Y-8663246D02*
X14289682Y-8653722D01*
X14289682Y-8653722D02*
X14299206Y-8634674D01*
X14299206Y-8634674D02*
X14318253Y-8625150D01*
X14318253Y-8625150D02*
X14346825Y-8625150D01*
X14346825Y-8625150D02*
X14365872Y-8634674D01*
X14613492Y-8682293D02*
X14765873Y-8682293D01*
X14689682Y-8758484D02*
X14689682Y-8606103D01*
X14994444Y-8558484D02*
X15118253Y-8558484D01*
X15118253Y-8558484D02*
X15051587Y-8634674D01*
X15051587Y-8634674D02*
X15080158Y-8634674D01*
X15080158Y-8634674D02*
X15099206Y-8644198D01*
X15099206Y-8644198D02*
X15108730Y-8653722D01*
X15108730Y-8653722D02*
X15118253Y-8672770D01*
X15118253Y-8672770D02*
X15118253Y-8720389D01*
X15118253Y-8720389D02*
X15108730Y-8739436D01*
X15108730Y-8739436D02*
X15099206Y-8748960D01*
X15099206Y-8748960D02*
X15080158Y-8758484D01*
X15080158Y-8758484D02*
X15023015Y-8758484D01*
X15023015Y-8758484D02*
X15003968Y-8748960D01*
X15003968Y-8748960D02*
X14994444Y-8739436D01*
X15346825Y-8748960D02*
X15365873Y-8758484D01*
X15365873Y-8758484D02*
X15403968Y-8758484D01*
X15403968Y-8758484D02*
X15423015Y-8748960D01*
X15423015Y-8748960D02*
X15432539Y-8729912D01*
X15432539Y-8729912D02*
X15432539Y-8720389D01*
X15432539Y-8720389D02*
X15423015Y-8701341D01*
X15423015Y-8701341D02*
X15403968Y-8691817D01*
X15403968Y-8691817D02*
X15375396Y-8691817D01*
X15375396Y-8691817D02*
X15356349Y-8682293D01*
X15356349Y-8682293D02*
X15346825Y-8663246D01*
X15346825Y-8663246D02*
X15346825Y-8653722D01*
X15346825Y-8653722D02*
X15356349Y-8634674D01*
X15356349Y-8634674D02*
X15375396Y-8625150D01*
X15375396Y-8625150D02*
X15403968Y-8625150D01*
X15403968Y-8625150D02*
X15423015Y-8634674D01*
X15546825Y-8758484D02*
X15527777Y-8748960D01*
X15527777Y-8748960D02*
X15518254Y-8729912D01*
X15518254Y-8729912D02*
X15518254Y-8558484D01*
X15651587Y-8758484D02*
X15632539Y-8748960D01*
X15632539Y-8748960D02*
X15623015Y-8739436D01*
X15623015Y-8739436D02*
X15613492Y-8720389D01*
X15613492Y-8720389D02*
X15613492Y-8663246D01*
X15613492Y-8663246D02*
X15623015Y-8644198D01*
X15623015Y-8644198D02*
X15632539Y-8634674D01*
X15632539Y-8634674D02*
X15651587Y-8625150D01*
X15651587Y-8625150D02*
X15680158Y-8625150D01*
X15680158Y-8625150D02*
X15699206Y-8634674D01*
X15699206Y-8634674D02*
X15708730Y-8644198D01*
X15708730Y-8644198D02*
X15718254Y-8663246D01*
X15718254Y-8663246D02*
X15718254Y-8720389D01*
X15718254Y-8720389D02*
X15708730Y-8739436D01*
X15708730Y-8739436D02*
X15699206Y-8748960D01*
X15699206Y-8748960D02*
X15680158Y-8758484D01*
X15680158Y-8758484D02*
X15651587Y-8758484D01*
X15775396Y-8625150D02*
X15851587Y-8625150D01*
X15803968Y-8558484D02*
X15803968Y-8729912D01*
X15803968Y-8729912D02*
X15813492Y-8748960D01*
X15813492Y-8748960D02*
X15832539Y-8758484D01*
X15832539Y-8758484D02*
X15851587Y-8758484D01*
X15908730Y-8748960D02*
X15927777Y-8758484D01*
X15927777Y-8758484D02*
X15965873Y-8758484D01*
X15965873Y-8758484D02*
X15984920Y-8748960D01*
X15984920Y-8748960D02*
X15994444Y-8729912D01*
X15994444Y-8729912D02*
X15994444Y-8720389D01*
X15994444Y-8720389D02*
X15984920Y-8701341D01*
X15984920Y-8701341D02*
X15965873Y-8691817D01*
X15965873Y-8691817D02*
X15937301Y-8691817D01*
X15937301Y-8691817D02*
X15918254Y-8682293D01*
X15918254Y-8682293D02*
X15908730Y-8663246D01*
X15908730Y-8663246D02*
X15908730Y-8653722D01*
X15908730Y-8653722D02*
X15918254Y-8634674D01*
X15918254Y-8634674D02*
X15937301Y-8625150D01*
X15937301Y-8625150D02*
X15965873Y-8625150D01*
X15965873Y-8625150D02*
X15984920Y-8634674D01*
X16061111Y-8834674D02*
X16070635Y-8825150D01*
X16070635Y-8825150D02*
X16089682Y-8796579D01*
X16089682Y-8796579D02*
X16099206Y-8777531D01*
X16099206Y-8777531D02*
X16108730Y-8748960D01*
X16108730Y-8748960D02*
X16118254Y-8701341D01*
X16118254Y-8701341D02*
X16118254Y-8663246D01*
X16118254Y-8663246D02*
X16108730Y-8615627D01*
X16108730Y-8615627D02*
X16099206Y-8587055D01*
X16099206Y-8587055D02*
X16089682Y-8568008D01*
X16089682Y-8568008D02*
X16070635Y-8539436D01*
X16070635Y-8539436D02*
X16061111Y-8529912D01*
D12*
X9653820Y-8962820D02*
X9653820Y-8899180D01*
X9590180Y-8899180D01*
X9590180Y-8962820D01*
X9653820Y-8962820D01*
D11*
X9965872Y-8822484D02*
X9984920Y-8822484D01*
X9984920Y-8822484D02*
X10003967Y-8832008D01*
X10003967Y-8832008D02*
X10013491Y-8841531D01*
X10013491Y-8841531D02*
X10023015Y-8860579D01*
X10023015Y-8860579D02*
X10032539Y-8898674D01*
X10032539Y-8898674D02*
X10032539Y-8946293D01*
X10032539Y-8946293D02*
X10023015Y-8984389D01*
X10023015Y-8984389D02*
X10013491Y-9003436D01*
X10013491Y-9003436D02*
X10003967Y-9012960D01*
X10003967Y-9012960D02*
X9984920Y-9022484D01*
X9984920Y-9022484D02*
X9965872Y-9022484D01*
X9965872Y-9022484D02*
X9946824Y-9012960D01*
X9946824Y-9012960D02*
X9937301Y-9003436D01*
X9937301Y-9003436D02*
X9927777Y-8984389D01*
X9927777Y-8984389D02*
X9918253Y-8946293D01*
X9918253Y-8946293D02*
X9918253Y-8898674D01*
X9918253Y-8898674D02*
X9927777Y-8860579D01*
X9927777Y-8860579D02*
X9937301Y-8841531D01*
X9937301Y-8841531D02*
X9946824Y-8832008D01*
X9946824Y-8832008D02*
X9965872Y-8822484D01*
X10118253Y-9003436D02*
X10127777Y-9012960D01*
X10127777Y-9012960D02*
X10118253Y-9022484D01*
X10118253Y-9022484D02*
X10108729Y-9012960D01*
X10108729Y-9012960D02*
X10118253Y-9003436D01*
X10118253Y-9003436D02*
X10118253Y-9022484D01*
X10223015Y-9022484D02*
X10261110Y-9022484D01*
X10261110Y-9022484D02*
X10280158Y-9012960D01*
X10280158Y-9012960D02*
X10289682Y-9003436D01*
X10289682Y-9003436D02*
X10308729Y-8974865D01*
X10308729Y-8974865D02*
X10318253Y-8936770D01*
X10318253Y-8936770D02*
X10318253Y-8860579D01*
X10318253Y-8860579D02*
X10308729Y-8841531D01*
X10308729Y-8841531D02*
X10299205Y-8832008D01*
X10299205Y-8832008D02*
X10280158Y-8822484D01*
X10280158Y-8822484D02*
X10242063Y-8822484D01*
X10242063Y-8822484D02*
X10223015Y-8832008D01*
X10223015Y-8832008D02*
X10213491Y-8841531D01*
X10213491Y-8841531D02*
X10203967Y-8860579D01*
X10203967Y-8860579D02*
X10203967Y-8908198D01*
X10203967Y-8908198D02*
X10213491Y-8927246D01*
X10213491Y-8927246D02*
X10223015Y-8936770D01*
X10223015Y-8936770D02*
X10242063Y-8946293D01*
X10242063Y-8946293D02*
X10280158Y-8946293D01*
X10280158Y-8946293D02*
X10299205Y-8936770D01*
X10299205Y-8936770D02*
X10308729Y-8927246D01*
X10308729Y-8927246D02*
X10318253Y-8908198D01*
X10442063Y-8822484D02*
X10461110Y-8822484D01*
X10461110Y-8822484D02*
X10480158Y-8832008D01*
X10480158Y-8832008D02*
X10489682Y-8841531D01*
X10489682Y-8841531D02*
X10499205Y-8860579D01*
X10499205Y-8860579D02*
X10508729Y-8898674D01*
X10508729Y-8898674D02*
X10508729Y-8946293D01*
X10508729Y-8946293D02*
X10499205Y-8984389D01*
X10499205Y-8984389D02*
X10489682Y-9003436D01*
X10489682Y-9003436D02*
X10480158Y-9012960D01*
X10480158Y-9012960D02*
X10461110Y-9022484D01*
X10461110Y-9022484D02*
X10442063Y-9022484D01*
X10442063Y-9022484D02*
X10423015Y-9012960D01*
X10423015Y-9012960D02*
X10413491Y-9003436D01*
X10413491Y-9003436D02*
X10403967Y-8984389D01*
X10403967Y-8984389D02*
X10394444Y-8946293D01*
X10394444Y-8946293D02*
X10394444Y-8898674D01*
X10394444Y-8898674D02*
X10403967Y-8860579D01*
X10403967Y-8860579D02*
X10413491Y-8841531D01*
X10413491Y-8841531D02*
X10423015Y-8832008D01*
X10423015Y-8832008D02*
X10442063Y-8822484D01*
X10632539Y-8822484D02*
X10651586Y-8822484D01*
X10651586Y-8822484D02*
X10670634Y-8832008D01*
X10670634Y-8832008D02*
X10680158Y-8841531D01*
X10680158Y-8841531D02*
X10689682Y-8860579D01*
X10689682Y-8860579D02*
X10699205Y-8898674D01*
X10699205Y-8898674D02*
X10699205Y-8946293D01*
X10699205Y-8946293D02*
X10689682Y-8984389D01*
X10689682Y-8984389D02*
X10680158Y-9003436D01*
X10680158Y-9003436D02*
X10670634Y-9012960D01*
X10670634Y-9012960D02*
X10651586Y-9022484D01*
X10651586Y-9022484D02*
X10632539Y-9022484D01*
X10632539Y-9022484D02*
X10613491Y-9012960D01*
X10613491Y-9012960D02*
X10603967Y-9003436D01*
X10603967Y-9003436D02*
X10594444Y-8984389D01*
X10594444Y-8984389D02*
X10584920Y-8946293D01*
X10584920Y-8946293D02*
X10584920Y-8898674D01*
X10584920Y-8898674D02*
X10594444Y-8860579D01*
X10594444Y-8860579D02*
X10603967Y-8841531D01*
X10603967Y-8841531D02*
X10613491Y-8832008D01*
X10613491Y-8832008D02*
X10632539Y-8822484D01*
X10784920Y-9022484D02*
X10784920Y-8889150D01*
X10784920Y-8908198D02*
X10794444Y-8898674D01*
X10794444Y-8898674D02*
X10813491Y-8889150D01*
X10813491Y-8889150D02*
X10842063Y-8889150D01*
X10842063Y-8889150D02*
X10861110Y-8898674D01*
X10861110Y-8898674D02*
X10870634Y-8917722D01*
X10870634Y-8917722D02*
X10870634Y-9022484D01*
X10870634Y-8917722D02*
X10880158Y-8898674D01*
X10880158Y-8898674D02*
X10899205Y-8889150D01*
X10899205Y-8889150D02*
X10927777Y-8889150D01*
X10927777Y-8889150D02*
X10946825Y-8898674D01*
X10946825Y-8898674D02*
X10956348Y-8917722D01*
X10956348Y-8917722D02*
X10956348Y-9022484D01*
X11051586Y-9022484D02*
X11051586Y-8889150D01*
X11051586Y-8908198D02*
X11061110Y-8898674D01*
X11061110Y-8898674D02*
X11080158Y-8889150D01*
X11080158Y-8889150D02*
X11108729Y-8889150D01*
X11108729Y-8889150D02*
X11127777Y-8898674D01*
X11127777Y-8898674D02*
X11137301Y-8917722D01*
X11137301Y-8917722D02*
X11137301Y-9022484D01*
X11137301Y-8917722D02*
X11146825Y-8898674D01*
X11146825Y-8898674D02*
X11165872Y-8889150D01*
X11165872Y-8889150D02*
X11194443Y-8889150D01*
X11194443Y-8889150D02*
X11213491Y-8898674D01*
X11213491Y-8898674D02*
X11223015Y-8917722D01*
X11223015Y-8917722D02*
X11223015Y-9022484D01*
X11613491Y-8812960D02*
X11442063Y-9070103D01*
X11870634Y-8822484D02*
X11889682Y-8822484D01*
X11889682Y-8822484D02*
X11908729Y-8832008D01*
X11908729Y-8832008D02*
X11918253Y-8841531D01*
X11918253Y-8841531D02*
X11927777Y-8860579D01*
X11927777Y-8860579D02*
X11937301Y-8898674D01*
X11937301Y-8898674D02*
X11937301Y-8946293D01*
X11937301Y-8946293D02*
X11927777Y-8984389D01*
X11927777Y-8984389D02*
X11918253Y-9003436D01*
X11918253Y-9003436D02*
X11908729Y-9012960D01*
X11908729Y-9012960D02*
X11889682Y-9022484D01*
X11889682Y-9022484D02*
X11870634Y-9022484D01*
X11870634Y-9022484D02*
X11851586Y-9012960D01*
X11851586Y-9012960D02*
X11842063Y-9003436D01*
X11842063Y-9003436D02*
X11832539Y-8984389D01*
X11832539Y-8984389D02*
X11823015Y-8946293D01*
X11823015Y-8946293D02*
X11823015Y-8898674D01*
X11823015Y-8898674D02*
X11832539Y-8860579D01*
X11832539Y-8860579D02*
X11842063Y-8841531D01*
X11842063Y-8841531D02*
X11851586Y-8832008D01*
X11851586Y-8832008D02*
X11870634Y-8822484D01*
X12023015Y-9003436D02*
X12032539Y-9012960D01*
X12032539Y-9012960D02*
X12023015Y-9022484D01*
X12023015Y-9022484D02*
X12013491Y-9012960D01*
X12013491Y-9012960D02*
X12023015Y-9003436D01*
X12023015Y-9003436D02*
X12023015Y-9022484D01*
X12156348Y-8822484D02*
X12175396Y-8822484D01*
X12175396Y-8822484D02*
X12194444Y-8832008D01*
X12194444Y-8832008D02*
X12203967Y-8841531D01*
X12203967Y-8841531D02*
X12213491Y-8860579D01*
X12213491Y-8860579D02*
X12223015Y-8898674D01*
X12223015Y-8898674D02*
X12223015Y-8946293D01*
X12223015Y-8946293D02*
X12213491Y-8984389D01*
X12213491Y-8984389D02*
X12203967Y-9003436D01*
X12203967Y-9003436D02*
X12194444Y-9012960D01*
X12194444Y-9012960D02*
X12175396Y-9022484D01*
X12175396Y-9022484D02*
X12156348Y-9022484D01*
X12156348Y-9022484D02*
X12137301Y-9012960D01*
X12137301Y-9012960D02*
X12127777Y-9003436D01*
X12127777Y-9003436D02*
X12118253Y-8984389D01*
X12118253Y-8984389D02*
X12108729Y-8946293D01*
X12108729Y-8946293D02*
X12108729Y-8898674D01*
X12108729Y-8898674D02*
X12118253Y-8860579D01*
X12118253Y-8860579D02*
X12127777Y-8841531D01*
X12127777Y-8841531D02*
X12137301Y-8832008D01*
X12137301Y-8832008D02*
X12156348Y-8822484D01*
X12289682Y-8822484D02*
X12413491Y-8822484D01*
X12413491Y-8822484D02*
X12346825Y-8898674D01*
X12346825Y-8898674D02*
X12375396Y-8898674D01*
X12375396Y-8898674D02*
X12394444Y-8908198D01*
X12394444Y-8908198D02*
X12403967Y-8917722D01*
X12403967Y-8917722D02*
X12413491Y-8936770D01*
X12413491Y-8936770D02*
X12413491Y-8984389D01*
X12413491Y-8984389D02*
X12403967Y-9003436D01*
X12403967Y-9003436D02*
X12394444Y-9012960D01*
X12394444Y-9012960D02*
X12375396Y-9022484D01*
X12375396Y-9022484D02*
X12318253Y-9022484D01*
X12318253Y-9022484D02*
X12299206Y-9012960D01*
X12299206Y-9012960D02*
X12289682Y-9003436D01*
X12594444Y-8822484D02*
X12499206Y-8822484D01*
X12499206Y-8822484D02*
X12489682Y-8917722D01*
X12489682Y-8917722D02*
X12499206Y-8908198D01*
X12499206Y-8908198D02*
X12518253Y-8898674D01*
X12518253Y-8898674D02*
X12565872Y-8898674D01*
X12565872Y-8898674D02*
X12584920Y-8908198D01*
X12584920Y-8908198D02*
X12594444Y-8917722D01*
X12594444Y-8917722D02*
X12603967Y-8936770D01*
X12603967Y-8936770D02*
X12603967Y-8984389D01*
X12603967Y-8984389D02*
X12594444Y-9003436D01*
X12594444Y-9003436D02*
X12584920Y-9012960D01*
X12584920Y-9012960D02*
X12565872Y-9022484D01*
X12565872Y-9022484D02*
X12518253Y-9022484D01*
X12518253Y-9022484D02*
X12499206Y-9012960D01*
X12499206Y-9012960D02*
X12489682Y-9003436D01*
X12775396Y-8889150D02*
X12775396Y-9022484D01*
X12727777Y-8812960D02*
X12680158Y-8955817D01*
X12680158Y-8955817D02*
X12803967Y-8955817D01*
X12870634Y-8822484D02*
X12870634Y-8860579D01*
X12946825Y-8822484D02*
X12946825Y-8860579D01*
X13242063Y-9098674D02*
X13232539Y-9089150D01*
X13232539Y-9089150D02*
X13213491Y-9060579D01*
X13213491Y-9060579D02*
X13203968Y-9041531D01*
X13203968Y-9041531D02*
X13194444Y-9012960D01*
X13194444Y-9012960D02*
X13184920Y-8965341D01*
X13184920Y-8965341D02*
X13184920Y-8927246D01*
X13184920Y-8927246D02*
X13194444Y-8879627D01*
X13194444Y-8879627D02*
X13203968Y-8851055D01*
X13203968Y-8851055D02*
X13213491Y-8832008D01*
X13213491Y-8832008D02*
X13232539Y-8803436D01*
X13232539Y-8803436D02*
X13242063Y-8793912D01*
X13423015Y-9022484D02*
X13308729Y-9022484D01*
X13365872Y-9022484D02*
X13365872Y-8822484D01*
X13365872Y-8822484D02*
X13346825Y-8851055D01*
X13346825Y-8851055D02*
X13327777Y-8870103D01*
X13327777Y-8870103D02*
X13308729Y-8879627D01*
X13594444Y-8822484D02*
X13556348Y-8822484D01*
X13556348Y-8822484D02*
X13537301Y-8832008D01*
X13537301Y-8832008D02*
X13527777Y-8841531D01*
X13527777Y-8841531D02*
X13508729Y-8870103D01*
X13508729Y-8870103D02*
X13499206Y-8908198D01*
X13499206Y-8908198D02*
X13499206Y-8984389D01*
X13499206Y-8984389D02*
X13508729Y-9003436D01*
X13508729Y-9003436D02*
X13518253Y-9012960D01*
X13518253Y-9012960D02*
X13537301Y-9022484D01*
X13537301Y-9022484D02*
X13575396Y-9022484D01*
X13575396Y-9022484D02*
X13594444Y-9012960D01*
X13594444Y-9012960D02*
X13603968Y-9003436D01*
X13603968Y-9003436D02*
X13613491Y-8984389D01*
X13613491Y-8984389D02*
X13613491Y-8936770D01*
X13613491Y-8936770D02*
X13603968Y-8917722D01*
X13603968Y-8917722D02*
X13594444Y-8908198D01*
X13594444Y-8908198D02*
X13575396Y-8898674D01*
X13575396Y-8898674D02*
X13537301Y-8898674D01*
X13537301Y-8898674D02*
X13518253Y-8908198D01*
X13518253Y-8908198D02*
X13508729Y-8917722D01*
X13508729Y-8917722D02*
X13499206Y-8936770D01*
X13851587Y-9022484D02*
X13851587Y-8822484D01*
X13937301Y-9022484D02*
X13937301Y-8917722D01*
X13937301Y-8917722D02*
X13927777Y-8898674D01*
X13927777Y-8898674D02*
X13908730Y-8889150D01*
X13908730Y-8889150D02*
X13880158Y-8889150D01*
X13880158Y-8889150D02*
X13861110Y-8898674D01*
X13861110Y-8898674D02*
X13851587Y-8908198D01*
X14061110Y-9022484D02*
X14042063Y-9012960D01*
X14042063Y-9012960D02*
X14032539Y-9003436D01*
X14032539Y-9003436D02*
X14023015Y-8984389D01*
X14023015Y-8984389D02*
X14023015Y-8927246D01*
X14023015Y-8927246D02*
X14032539Y-8908198D01*
X14032539Y-8908198D02*
X14042063Y-8898674D01*
X14042063Y-8898674D02*
X14061110Y-8889150D01*
X14061110Y-8889150D02*
X14089682Y-8889150D01*
X14089682Y-8889150D02*
X14108730Y-8898674D01*
X14108730Y-8898674D02*
X14118253Y-8908198D01*
X14118253Y-8908198D02*
X14127777Y-8927246D01*
X14127777Y-8927246D02*
X14127777Y-8984389D01*
X14127777Y-8984389D02*
X14118253Y-9003436D01*
X14118253Y-9003436D02*
X14108730Y-9012960D01*
X14108730Y-9012960D02*
X14089682Y-9022484D01*
X14089682Y-9022484D02*
X14061110Y-9022484D01*
X14242063Y-9022484D02*
X14223015Y-9012960D01*
X14223015Y-9012960D02*
X14213491Y-8993912D01*
X14213491Y-8993912D02*
X14213491Y-8822484D01*
X14394444Y-9012960D02*
X14375396Y-9022484D01*
X14375396Y-9022484D02*
X14337301Y-9022484D01*
X14337301Y-9022484D02*
X14318253Y-9012960D01*
X14318253Y-9012960D02*
X14308730Y-8993912D01*
X14308730Y-8993912D02*
X14308730Y-8917722D01*
X14308730Y-8917722D02*
X14318253Y-8898674D01*
X14318253Y-8898674D02*
X14337301Y-8889150D01*
X14337301Y-8889150D02*
X14375396Y-8889150D01*
X14375396Y-8889150D02*
X14394444Y-8898674D01*
X14394444Y-8898674D02*
X14403968Y-8917722D01*
X14403968Y-8917722D02*
X14403968Y-8936770D01*
X14403968Y-8936770D02*
X14308730Y-8955817D01*
X14480158Y-9012960D02*
X14499206Y-9022484D01*
X14499206Y-9022484D02*
X14537301Y-9022484D01*
X14537301Y-9022484D02*
X14556349Y-9012960D01*
X14556349Y-9012960D02*
X14565872Y-8993912D01*
X14565872Y-8993912D02*
X14565872Y-8984389D01*
X14565872Y-8984389D02*
X14556349Y-8965341D01*
X14556349Y-8965341D02*
X14537301Y-8955817D01*
X14537301Y-8955817D02*
X14508730Y-8955817D01*
X14508730Y-8955817D02*
X14489682Y-8946293D01*
X14489682Y-8946293D02*
X14480158Y-8927246D01*
X14480158Y-8927246D02*
X14480158Y-8917722D01*
X14480158Y-8917722D02*
X14489682Y-8898674D01*
X14489682Y-8898674D02*
X14508730Y-8889150D01*
X14508730Y-8889150D02*
X14537301Y-8889150D01*
X14537301Y-8889150D02*
X14556349Y-8898674D01*
X14632539Y-9098674D02*
X14642063Y-9089150D01*
X14642063Y-9089150D02*
X14661111Y-9060579D01*
X14661111Y-9060579D02*
X14670634Y-9041531D01*
X14670634Y-9041531D02*
X14680158Y-9012960D01*
X14680158Y-9012960D02*
X14689682Y-8965341D01*
X14689682Y-8965341D02*
X14689682Y-8927246D01*
X14689682Y-8927246D02*
X14680158Y-8879627D01*
X14680158Y-8879627D02*
X14670634Y-8851055D01*
X14670634Y-8851055D02*
X14661111Y-8832008D01*
X14661111Y-8832008D02*
X14642063Y-8803436D01*
X14642063Y-8803436D02*
X14632539Y-8793912D01*
D12*
X9617000Y-9245000D02*
X9667000Y-9195000D01*
X9617000Y-9145000D01*
X9567000Y-9195000D01*
X9617000Y-9245000D01*
D11*
X10032539Y-9286484D02*
X9918253Y-9286484D01*
X9975396Y-9286484D02*
X9975396Y-9086484D01*
X9975396Y-9086484D02*
X9956348Y-9115055D01*
X9956348Y-9115055D02*
X9937301Y-9134103D01*
X9937301Y-9134103D02*
X9918253Y-9143627D01*
X10118253Y-9267436D02*
X10127777Y-9276960D01*
X10127777Y-9276960D02*
X10118253Y-9286484D01*
X10118253Y-9286484D02*
X10108729Y-9276960D01*
X10108729Y-9276960D02*
X10118253Y-9267436D01*
X10118253Y-9267436D02*
X10118253Y-9286484D01*
X10251586Y-9086484D02*
X10270634Y-9086484D01*
X10270634Y-9086484D02*
X10289682Y-9096008D01*
X10289682Y-9096008D02*
X10299205Y-9105531D01*
X10299205Y-9105531D02*
X10308729Y-9124579D01*
X10308729Y-9124579D02*
X10318253Y-9162674D01*
X10318253Y-9162674D02*
X10318253Y-9210293D01*
X10318253Y-9210293D02*
X10308729Y-9248389D01*
X10308729Y-9248389D02*
X10299205Y-9267436D01*
X10299205Y-9267436D02*
X10289682Y-9276960D01*
X10289682Y-9276960D02*
X10270634Y-9286484D01*
X10270634Y-9286484D02*
X10251586Y-9286484D01*
X10251586Y-9286484D02*
X10232539Y-9276960D01*
X10232539Y-9276960D02*
X10223015Y-9267436D01*
X10223015Y-9267436D02*
X10213491Y-9248389D01*
X10213491Y-9248389D02*
X10203967Y-9210293D01*
X10203967Y-9210293D02*
X10203967Y-9162674D01*
X10203967Y-9162674D02*
X10213491Y-9124579D01*
X10213491Y-9124579D02*
X10223015Y-9105531D01*
X10223015Y-9105531D02*
X10232539Y-9096008D01*
X10232539Y-9096008D02*
X10251586Y-9086484D01*
X10442063Y-9086484D02*
X10461110Y-9086484D01*
X10461110Y-9086484D02*
X10480158Y-9096008D01*
X10480158Y-9096008D02*
X10489682Y-9105531D01*
X10489682Y-9105531D02*
X10499205Y-9124579D01*
X10499205Y-9124579D02*
X10508729Y-9162674D01*
X10508729Y-9162674D02*
X10508729Y-9210293D01*
X10508729Y-9210293D02*
X10499205Y-9248389D01*
X10499205Y-9248389D02*
X10489682Y-9267436D01*
X10489682Y-9267436D02*
X10480158Y-9276960D01*
X10480158Y-9276960D02*
X10461110Y-9286484D01*
X10461110Y-9286484D02*
X10442063Y-9286484D01*
X10442063Y-9286484D02*
X10423015Y-9276960D01*
X10423015Y-9276960D02*
X10413491Y-9267436D01*
X10413491Y-9267436D02*
X10403967Y-9248389D01*
X10403967Y-9248389D02*
X10394444Y-9210293D01*
X10394444Y-9210293D02*
X10394444Y-9162674D01*
X10394444Y-9162674D02*
X10403967Y-9124579D01*
X10403967Y-9124579D02*
X10413491Y-9105531D01*
X10413491Y-9105531D02*
X10423015Y-9096008D01*
X10423015Y-9096008D02*
X10442063Y-9086484D01*
X10632539Y-9086484D02*
X10651586Y-9086484D01*
X10651586Y-9086484D02*
X10670634Y-9096008D01*
X10670634Y-9096008D02*
X10680158Y-9105531D01*
X10680158Y-9105531D02*
X10689682Y-9124579D01*
X10689682Y-9124579D02*
X10699205Y-9162674D01*
X10699205Y-9162674D02*
X10699205Y-9210293D01*
X10699205Y-9210293D02*
X10689682Y-9248389D01*
X10689682Y-9248389D02*
X10680158Y-9267436D01*
X10680158Y-9267436D02*
X10670634Y-9276960D01*
X10670634Y-9276960D02*
X10651586Y-9286484D01*
X10651586Y-9286484D02*
X10632539Y-9286484D01*
X10632539Y-9286484D02*
X10613491Y-9276960D01*
X10613491Y-9276960D02*
X10603967Y-9267436D01*
X10603967Y-9267436D02*
X10594444Y-9248389D01*
X10594444Y-9248389D02*
X10584920Y-9210293D01*
X10584920Y-9210293D02*
X10584920Y-9162674D01*
X10584920Y-9162674D02*
X10594444Y-9124579D01*
X10594444Y-9124579D02*
X10603967Y-9105531D01*
X10603967Y-9105531D02*
X10613491Y-9096008D01*
X10613491Y-9096008D02*
X10632539Y-9086484D01*
X10784920Y-9286484D02*
X10784920Y-9153150D01*
X10784920Y-9172198D02*
X10794444Y-9162674D01*
X10794444Y-9162674D02*
X10813491Y-9153150D01*
X10813491Y-9153150D02*
X10842063Y-9153150D01*
X10842063Y-9153150D02*
X10861110Y-9162674D01*
X10861110Y-9162674D02*
X10870634Y-9181722D01*
X10870634Y-9181722D02*
X10870634Y-9286484D01*
X10870634Y-9181722D02*
X10880158Y-9162674D01*
X10880158Y-9162674D02*
X10899205Y-9153150D01*
X10899205Y-9153150D02*
X10927777Y-9153150D01*
X10927777Y-9153150D02*
X10946825Y-9162674D01*
X10946825Y-9162674D02*
X10956348Y-9181722D01*
X10956348Y-9181722D02*
X10956348Y-9286484D01*
X11051586Y-9286484D02*
X11051586Y-9153150D01*
X11051586Y-9172198D02*
X11061110Y-9162674D01*
X11061110Y-9162674D02*
X11080158Y-9153150D01*
X11080158Y-9153150D02*
X11108729Y-9153150D01*
X11108729Y-9153150D02*
X11127777Y-9162674D01*
X11127777Y-9162674D02*
X11137301Y-9181722D01*
X11137301Y-9181722D02*
X11137301Y-9286484D01*
X11137301Y-9181722D02*
X11146825Y-9162674D01*
X11146825Y-9162674D02*
X11165872Y-9153150D01*
X11165872Y-9153150D02*
X11194443Y-9153150D01*
X11194443Y-9153150D02*
X11213491Y-9162674D01*
X11213491Y-9162674D02*
X11223015Y-9181722D01*
X11223015Y-9181722D02*
X11223015Y-9286484D01*
X11613491Y-9076960D02*
X11442063Y-9334103D01*
X11870634Y-9086484D02*
X11889682Y-9086484D01*
X11889682Y-9086484D02*
X11908729Y-9096008D01*
X11908729Y-9096008D02*
X11918253Y-9105531D01*
X11918253Y-9105531D02*
X11927777Y-9124579D01*
X11927777Y-9124579D02*
X11937301Y-9162674D01*
X11937301Y-9162674D02*
X11937301Y-9210293D01*
X11937301Y-9210293D02*
X11927777Y-9248389D01*
X11927777Y-9248389D02*
X11918253Y-9267436D01*
X11918253Y-9267436D02*
X11908729Y-9276960D01*
X11908729Y-9276960D02*
X11889682Y-9286484D01*
X11889682Y-9286484D02*
X11870634Y-9286484D01*
X11870634Y-9286484D02*
X11851586Y-9276960D01*
X11851586Y-9276960D02*
X11842063Y-9267436D01*
X11842063Y-9267436D02*
X11832539Y-9248389D01*
X11832539Y-9248389D02*
X11823015Y-9210293D01*
X11823015Y-9210293D02*
X11823015Y-9162674D01*
X11823015Y-9162674D02*
X11832539Y-9124579D01*
X11832539Y-9124579D02*
X11842063Y-9105531D01*
X11842063Y-9105531D02*
X11851586Y-9096008D01*
X11851586Y-9096008D02*
X11870634Y-9086484D01*
X12023015Y-9267436D02*
X12032539Y-9276960D01*
X12032539Y-9276960D02*
X12023015Y-9286484D01*
X12023015Y-9286484D02*
X12013491Y-9276960D01*
X12013491Y-9276960D02*
X12023015Y-9267436D01*
X12023015Y-9267436D02*
X12023015Y-9286484D01*
X12156348Y-9086484D02*
X12175396Y-9086484D01*
X12175396Y-9086484D02*
X12194444Y-9096008D01*
X12194444Y-9096008D02*
X12203967Y-9105531D01*
X12203967Y-9105531D02*
X12213491Y-9124579D01*
X12213491Y-9124579D02*
X12223015Y-9162674D01*
X12223015Y-9162674D02*
X12223015Y-9210293D01*
X12223015Y-9210293D02*
X12213491Y-9248389D01*
X12213491Y-9248389D02*
X12203967Y-9267436D01*
X12203967Y-9267436D02*
X12194444Y-9276960D01*
X12194444Y-9276960D02*
X12175396Y-9286484D01*
X12175396Y-9286484D02*
X12156348Y-9286484D01*
X12156348Y-9286484D02*
X12137301Y-9276960D01*
X12137301Y-9276960D02*
X12127777Y-9267436D01*
X12127777Y-9267436D02*
X12118253Y-9248389D01*
X12118253Y-9248389D02*
X12108729Y-9210293D01*
X12108729Y-9210293D02*
X12108729Y-9162674D01*
X12108729Y-9162674D02*
X12118253Y-9124579D01*
X12118253Y-9124579D02*
X12127777Y-9105531D01*
X12127777Y-9105531D02*
X12137301Y-9096008D01*
X12137301Y-9096008D02*
X12156348Y-9086484D01*
X12289682Y-9086484D02*
X12413491Y-9086484D01*
X12413491Y-9086484D02*
X12346825Y-9162674D01*
X12346825Y-9162674D02*
X12375396Y-9162674D01*
X12375396Y-9162674D02*
X12394444Y-9172198D01*
X12394444Y-9172198D02*
X12403967Y-9181722D01*
X12403967Y-9181722D02*
X12413491Y-9200770D01*
X12413491Y-9200770D02*
X12413491Y-9248389D01*
X12413491Y-9248389D02*
X12403967Y-9267436D01*
X12403967Y-9267436D02*
X12394444Y-9276960D01*
X12394444Y-9276960D02*
X12375396Y-9286484D01*
X12375396Y-9286484D02*
X12318253Y-9286484D01*
X12318253Y-9286484D02*
X12299206Y-9276960D01*
X12299206Y-9276960D02*
X12289682Y-9267436D01*
X12508729Y-9286484D02*
X12546825Y-9286484D01*
X12546825Y-9286484D02*
X12565872Y-9276960D01*
X12565872Y-9276960D02*
X12575396Y-9267436D01*
X12575396Y-9267436D02*
X12594444Y-9238865D01*
X12594444Y-9238865D02*
X12603967Y-9200770D01*
X12603967Y-9200770D02*
X12603967Y-9124579D01*
X12603967Y-9124579D02*
X12594444Y-9105531D01*
X12594444Y-9105531D02*
X12584920Y-9096008D01*
X12584920Y-9096008D02*
X12565872Y-9086484D01*
X12565872Y-9086484D02*
X12527777Y-9086484D01*
X12527777Y-9086484D02*
X12508729Y-9096008D01*
X12508729Y-9096008D02*
X12499206Y-9105531D01*
X12499206Y-9105531D02*
X12489682Y-9124579D01*
X12489682Y-9124579D02*
X12489682Y-9172198D01*
X12489682Y-9172198D02*
X12499206Y-9191246D01*
X12499206Y-9191246D02*
X12508729Y-9200770D01*
X12508729Y-9200770D02*
X12527777Y-9210293D01*
X12527777Y-9210293D02*
X12565872Y-9210293D01*
X12565872Y-9210293D02*
X12584920Y-9200770D01*
X12584920Y-9200770D02*
X12594444Y-9191246D01*
X12594444Y-9191246D02*
X12603967Y-9172198D01*
X12775396Y-9153150D02*
X12775396Y-9286484D01*
X12727777Y-9076960D02*
X12680158Y-9219817D01*
X12680158Y-9219817D02*
X12803967Y-9219817D01*
X12870634Y-9086484D02*
X12870634Y-9124579D01*
X12946825Y-9086484D02*
X12946825Y-9124579D01*
X13242063Y-9362674D02*
X13232539Y-9353150D01*
X13232539Y-9353150D02*
X13213491Y-9324579D01*
X13213491Y-9324579D02*
X13203968Y-9305531D01*
X13203968Y-9305531D02*
X13194444Y-9276960D01*
X13194444Y-9276960D02*
X13184920Y-9229341D01*
X13184920Y-9229341D02*
X13184920Y-9191246D01*
X13184920Y-9191246D02*
X13194444Y-9143627D01*
X13194444Y-9143627D02*
X13203968Y-9115055D01*
X13203968Y-9115055D02*
X13213491Y-9096008D01*
X13213491Y-9096008D02*
X13232539Y-9067436D01*
X13232539Y-9067436D02*
X13242063Y-9057912D01*
X13299206Y-9086484D02*
X13423015Y-9086484D01*
X13423015Y-9086484D02*
X13356348Y-9162674D01*
X13356348Y-9162674D02*
X13384920Y-9162674D01*
X13384920Y-9162674D02*
X13403968Y-9172198D01*
X13403968Y-9172198D02*
X13413491Y-9181722D01*
X13413491Y-9181722D02*
X13423015Y-9200770D01*
X13423015Y-9200770D02*
X13423015Y-9248389D01*
X13423015Y-9248389D02*
X13413491Y-9267436D01*
X13413491Y-9267436D02*
X13403968Y-9276960D01*
X13403968Y-9276960D02*
X13384920Y-9286484D01*
X13384920Y-9286484D02*
X13327777Y-9286484D01*
X13327777Y-9286484D02*
X13308729Y-9276960D01*
X13308729Y-9276960D02*
X13299206Y-9267436D01*
X13499206Y-9105531D02*
X13508729Y-9096008D01*
X13508729Y-9096008D02*
X13527777Y-9086484D01*
X13527777Y-9086484D02*
X13575396Y-9086484D01*
X13575396Y-9086484D02*
X13594444Y-9096008D01*
X13594444Y-9096008D02*
X13603968Y-9105531D01*
X13603968Y-9105531D02*
X13613491Y-9124579D01*
X13613491Y-9124579D02*
X13613491Y-9143627D01*
X13613491Y-9143627D02*
X13603968Y-9172198D01*
X13603968Y-9172198D02*
X13489682Y-9286484D01*
X13489682Y-9286484D02*
X13613491Y-9286484D01*
X13851587Y-9286484D02*
X13851587Y-9086484D01*
X13937301Y-9286484D02*
X13937301Y-9181722D01*
X13937301Y-9181722D02*
X13927777Y-9162674D01*
X13927777Y-9162674D02*
X13908730Y-9153150D01*
X13908730Y-9153150D02*
X13880158Y-9153150D01*
X13880158Y-9153150D02*
X13861110Y-9162674D01*
X13861110Y-9162674D02*
X13851587Y-9172198D01*
X14061110Y-9286484D02*
X14042063Y-9276960D01*
X14042063Y-9276960D02*
X14032539Y-9267436D01*
X14032539Y-9267436D02*
X14023015Y-9248389D01*
X14023015Y-9248389D02*
X14023015Y-9191246D01*
X14023015Y-9191246D02*
X14032539Y-9172198D01*
X14032539Y-9172198D02*
X14042063Y-9162674D01*
X14042063Y-9162674D02*
X14061110Y-9153150D01*
X14061110Y-9153150D02*
X14089682Y-9153150D01*
X14089682Y-9153150D02*
X14108730Y-9162674D01*
X14108730Y-9162674D02*
X14118253Y-9172198D01*
X14118253Y-9172198D02*
X14127777Y-9191246D01*
X14127777Y-9191246D02*
X14127777Y-9248389D01*
X14127777Y-9248389D02*
X14118253Y-9267436D01*
X14118253Y-9267436D02*
X14108730Y-9276960D01*
X14108730Y-9276960D02*
X14089682Y-9286484D01*
X14089682Y-9286484D02*
X14061110Y-9286484D01*
X14242063Y-9286484D02*
X14223015Y-9276960D01*
X14223015Y-9276960D02*
X14213491Y-9257912D01*
X14213491Y-9257912D02*
X14213491Y-9086484D01*
X14394444Y-9276960D02*
X14375396Y-9286484D01*
X14375396Y-9286484D02*
X14337301Y-9286484D01*
X14337301Y-9286484D02*
X14318253Y-9276960D01*
X14318253Y-9276960D02*
X14308730Y-9257912D01*
X14308730Y-9257912D02*
X14308730Y-9181722D01*
X14308730Y-9181722D02*
X14318253Y-9162674D01*
X14318253Y-9162674D02*
X14337301Y-9153150D01*
X14337301Y-9153150D02*
X14375396Y-9153150D01*
X14375396Y-9153150D02*
X14394444Y-9162674D01*
X14394444Y-9162674D02*
X14403968Y-9181722D01*
X14403968Y-9181722D02*
X14403968Y-9200770D01*
X14403968Y-9200770D02*
X14308730Y-9219817D01*
X14480158Y-9276960D02*
X14499206Y-9286484D01*
X14499206Y-9286484D02*
X14537301Y-9286484D01*
X14537301Y-9286484D02*
X14556349Y-9276960D01*
X14556349Y-9276960D02*
X14565872Y-9257912D01*
X14565872Y-9257912D02*
X14565872Y-9248389D01*
X14565872Y-9248389D02*
X14556349Y-9229341D01*
X14556349Y-9229341D02*
X14537301Y-9219817D01*
X14537301Y-9219817D02*
X14508730Y-9219817D01*
X14508730Y-9219817D02*
X14489682Y-9210293D01*
X14489682Y-9210293D02*
X14480158Y-9191246D01*
X14480158Y-9191246D02*
X14480158Y-9181722D01*
X14480158Y-9181722D02*
X14489682Y-9162674D01*
X14489682Y-9162674D02*
X14508730Y-9153150D01*
X14508730Y-9153150D02*
X14537301Y-9153150D01*
X14537301Y-9153150D02*
X14556349Y-9162674D01*
X14632539Y-9362674D02*
X14642063Y-9353150D01*
X14642063Y-9353150D02*
X14661111Y-9324579D01*
X14661111Y-9324579D02*
X14670634Y-9305531D01*
X14670634Y-9305531D02*
X14680158Y-9276960D01*
X14680158Y-9276960D02*
X14689682Y-9229341D01*
X14689682Y-9229341D02*
X14689682Y-9191246D01*
X14689682Y-9191246D02*
X14680158Y-9143627D01*
X14680158Y-9143627D02*
X14670634Y-9115055D01*
X14670634Y-9115055D02*
X14661111Y-9096008D01*
X14661111Y-9096008D02*
X14642063Y-9067436D01*
X14642063Y-9067436D02*
X14632539Y-9057912D01*
D13*
X9557000Y-9404000D02*
X9667000Y-9514000D01*
X9667000Y-9404000D02*
X9557000Y-9514000D01*
X9667000Y-9459000D02*
G75*
G02*
X9557000Y-9459000I-55000J0D01*
G01*
X9557000Y-9459000D02*
G75*
G02*
X9667000Y-9459000I55000J0D01*
G01*
D11*
X10032539Y-9550484D02*
X9918253Y-9550484D01*
X9975396Y-9550484D02*
X9975396Y-9350484D01*
X9975396Y-9350484D02*
X9956348Y-9379055D01*
X9956348Y-9379055D02*
X9937301Y-9398103D01*
X9937301Y-9398103D02*
X9918253Y-9407627D01*
X10118253Y-9531436D02*
X10127777Y-9540960D01*
X10127777Y-9540960D02*
X10118253Y-9550484D01*
X10118253Y-9550484D02*
X10108729Y-9540960D01*
X10108729Y-9540960D02*
X10118253Y-9531436D01*
X10118253Y-9531436D02*
X10118253Y-9550484D01*
X10318253Y-9550484D02*
X10203967Y-9550484D01*
X10261110Y-9550484D02*
X10261110Y-9350484D01*
X10261110Y-9350484D02*
X10242063Y-9379055D01*
X10242063Y-9379055D02*
X10223015Y-9398103D01*
X10223015Y-9398103D02*
X10203967Y-9407627D01*
X10442063Y-9350484D02*
X10461110Y-9350484D01*
X10461110Y-9350484D02*
X10480158Y-9360008D01*
X10480158Y-9360008D02*
X10489682Y-9369531D01*
X10489682Y-9369531D02*
X10499205Y-9388579D01*
X10499205Y-9388579D02*
X10508729Y-9426674D01*
X10508729Y-9426674D02*
X10508729Y-9474293D01*
X10508729Y-9474293D02*
X10499205Y-9512389D01*
X10499205Y-9512389D02*
X10489682Y-9531436D01*
X10489682Y-9531436D02*
X10480158Y-9540960D01*
X10480158Y-9540960D02*
X10461110Y-9550484D01*
X10461110Y-9550484D02*
X10442063Y-9550484D01*
X10442063Y-9550484D02*
X10423015Y-9540960D01*
X10423015Y-9540960D02*
X10413491Y-9531436D01*
X10413491Y-9531436D02*
X10403967Y-9512389D01*
X10403967Y-9512389D02*
X10394444Y-9474293D01*
X10394444Y-9474293D02*
X10394444Y-9426674D01*
X10394444Y-9426674D02*
X10403967Y-9388579D01*
X10403967Y-9388579D02*
X10413491Y-9369531D01*
X10413491Y-9369531D02*
X10423015Y-9360008D01*
X10423015Y-9360008D02*
X10442063Y-9350484D01*
X10632539Y-9350484D02*
X10651586Y-9350484D01*
X10651586Y-9350484D02*
X10670634Y-9360008D01*
X10670634Y-9360008D02*
X10680158Y-9369531D01*
X10680158Y-9369531D02*
X10689682Y-9388579D01*
X10689682Y-9388579D02*
X10699205Y-9426674D01*
X10699205Y-9426674D02*
X10699205Y-9474293D01*
X10699205Y-9474293D02*
X10689682Y-9512389D01*
X10689682Y-9512389D02*
X10680158Y-9531436D01*
X10680158Y-9531436D02*
X10670634Y-9540960D01*
X10670634Y-9540960D02*
X10651586Y-9550484D01*
X10651586Y-9550484D02*
X10632539Y-9550484D01*
X10632539Y-9550484D02*
X10613491Y-9540960D01*
X10613491Y-9540960D02*
X10603967Y-9531436D01*
X10603967Y-9531436D02*
X10594444Y-9512389D01*
X10594444Y-9512389D02*
X10584920Y-9474293D01*
X10584920Y-9474293D02*
X10584920Y-9426674D01*
X10584920Y-9426674D02*
X10594444Y-9388579D01*
X10594444Y-9388579D02*
X10603967Y-9369531D01*
X10603967Y-9369531D02*
X10613491Y-9360008D01*
X10613491Y-9360008D02*
X10632539Y-9350484D01*
X10784920Y-9550484D02*
X10784920Y-9417150D01*
X10784920Y-9436198D02*
X10794444Y-9426674D01*
X10794444Y-9426674D02*
X10813491Y-9417150D01*
X10813491Y-9417150D02*
X10842063Y-9417150D01*
X10842063Y-9417150D02*
X10861110Y-9426674D01*
X10861110Y-9426674D02*
X10870634Y-9445722D01*
X10870634Y-9445722D02*
X10870634Y-9550484D01*
X10870634Y-9445722D02*
X10880158Y-9426674D01*
X10880158Y-9426674D02*
X10899205Y-9417150D01*
X10899205Y-9417150D02*
X10927777Y-9417150D01*
X10927777Y-9417150D02*
X10946825Y-9426674D01*
X10946825Y-9426674D02*
X10956348Y-9445722D01*
X10956348Y-9445722D02*
X10956348Y-9550484D01*
X11051586Y-9550484D02*
X11051586Y-9417150D01*
X11051586Y-9436198D02*
X11061110Y-9426674D01*
X11061110Y-9426674D02*
X11080158Y-9417150D01*
X11080158Y-9417150D02*
X11108729Y-9417150D01*
X11108729Y-9417150D02*
X11127777Y-9426674D01*
X11127777Y-9426674D02*
X11137301Y-9445722D01*
X11137301Y-9445722D02*
X11137301Y-9550484D01*
X11137301Y-9445722D02*
X11146825Y-9426674D01*
X11146825Y-9426674D02*
X11165872Y-9417150D01*
X11165872Y-9417150D02*
X11194443Y-9417150D01*
X11194443Y-9417150D02*
X11213491Y-9426674D01*
X11213491Y-9426674D02*
X11223015Y-9445722D01*
X11223015Y-9445722D02*
X11223015Y-9550484D01*
X11613491Y-9340960D02*
X11442063Y-9598103D01*
X11870634Y-9350484D02*
X11889682Y-9350484D01*
X11889682Y-9350484D02*
X11908729Y-9360008D01*
X11908729Y-9360008D02*
X11918253Y-9369531D01*
X11918253Y-9369531D02*
X11927777Y-9388579D01*
X11927777Y-9388579D02*
X11937301Y-9426674D01*
X11937301Y-9426674D02*
X11937301Y-9474293D01*
X11937301Y-9474293D02*
X11927777Y-9512389D01*
X11927777Y-9512389D02*
X11918253Y-9531436D01*
X11918253Y-9531436D02*
X11908729Y-9540960D01*
X11908729Y-9540960D02*
X11889682Y-9550484D01*
X11889682Y-9550484D02*
X11870634Y-9550484D01*
X11870634Y-9550484D02*
X11851586Y-9540960D01*
X11851586Y-9540960D02*
X11842063Y-9531436D01*
X11842063Y-9531436D02*
X11832539Y-9512389D01*
X11832539Y-9512389D02*
X11823015Y-9474293D01*
X11823015Y-9474293D02*
X11823015Y-9426674D01*
X11823015Y-9426674D02*
X11832539Y-9388579D01*
X11832539Y-9388579D02*
X11842063Y-9369531D01*
X11842063Y-9369531D02*
X11851586Y-9360008D01*
X11851586Y-9360008D02*
X11870634Y-9350484D01*
X12023015Y-9531436D02*
X12032539Y-9540960D01*
X12032539Y-9540960D02*
X12023015Y-9550484D01*
X12023015Y-9550484D02*
X12013491Y-9540960D01*
X12013491Y-9540960D02*
X12023015Y-9531436D01*
X12023015Y-9531436D02*
X12023015Y-9550484D01*
X12156348Y-9350484D02*
X12175396Y-9350484D01*
X12175396Y-9350484D02*
X12194444Y-9360008D01*
X12194444Y-9360008D02*
X12203967Y-9369531D01*
X12203967Y-9369531D02*
X12213491Y-9388579D01*
X12213491Y-9388579D02*
X12223015Y-9426674D01*
X12223015Y-9426674D02*
X12223015Y-9474293D01*
X12223015Y-9474293D02*
X12213491Y-9512389D01*
X12213491Y-9512389D02*
X12203967Y-9531436D01*
X12203967Y-9531436D02*
X12194444Y-9540960D01*
X12194444Y-9540960D02*
X12175396Y-9550484D01*
X12175396Y-9550484D02*
X12156348Y-9550484D01*
X12156348Y-9550484D02*
X12137301Y-9540960D01*
X12137301Y-9540960D02*
X12127777Y-9531436D01*
X12127777Y-9531436D02*
X12118253Y-9512389D01*
X12118253Y-9512389D02*
X12108729Y-9474293D01*
X12108729Y-9474293D02*
X12108729Y-9426674D01*
X12108729Y-9426674D02*
X12118253Y-9388579D01*
X12118253Y-9388579D02*
X12127777Y-9369531D01*
X12127777Y-9369531D02*
X12137301Y-9360008D01*
X12137301Y-9360008D02*
X12156348Y-9350484D01*
X12394444Y-9417150D02*
X12394444Y-9550484D01*
X12346825Y-9340960D02*
X12299206Y-9483817D01*
X12299206Y-9483817D02*
X12423015Y-9483817D01*
X12480158Y-9350484D02*
X12603967Y-9350484D01*
X12603967Y-9350484D02*
X12537301Y-9426674D01*
X12537301Y-9426674D02*
X12565872Y-9426674D01*
X12565872Y-9426674D02*
X12584920Y-9436198D01*
X12584920Y-9436198D02*
X12594444Y-9445722D01*
X12594444Y-9445722D02*
X12603967Y-9464770D01*
X12603967Y-9464770D02*
X12603967Y-9512389D01*
X12603967Y-9512389D02*
X12594444Y-9531436D01*
X12594444Y-9531436D02*
X12584920Y-9540960D01*
X12584920Y-9540960D02*
X12565872Y-9550484D01*
X12565872Y-9550484D02*
X12508729Y-9550484D01*
X12508729Y-9550484D02*
X12489682Y-9540960D01*
X12489682Y-9540960D02*
X12480158Y-9531436D01*
X12670634Y-9350484D02*
X12794444Y-9350484D01*
X12794444Y-9350484D02*
X12727777Y-9426674D01*
X12727777Y-9426674D02*
X12756348Y-9426674D01*
X12756348Y-9426674D02*
X12775396Y-9436198D01*
X12775396Y-9436198D02*
X12784920Y-9445722D01*
X12784920Y-9445722D02*
X12794444Y-9464770D01*
X12794444Y-9464770D02*
X12794444Y-9512389D01*
X12794444Y-9512389D02*
X12784920Y-9531436D01*
X12784920Y-9531436D02*
X12775396Y-9540960D01*
X12775396Y-9540960D02*
X12756348Y-9550484D01*
X12756348Y-9550484D02*
X12699206Y-9550484D01*
X12699206Y-9550484D02*
X12680158Y-9540960D01*
X12680158Y-9540960D02*
X12670634Y-9531436D01*
X12870634Y-9350484D02*
X12870634Y-9388579D01*
X12946825Y-9350484D02*
X12946825Y-9388579D01*
X13242063Y-9626674D02*
X13232539Y-9617150D01*
X13232539Y-9617150D02*
X13213491Y-9588579D01*
X13213491Y-9588579D02*
X13203968Y-9569531D01*
X13203968Y-9569531D02*
X13194444Y-9540960D01*
X13194444Y-9540960D02*
X13184920Y-9493341D01*
X13184920Y-9493341D02*
X13184920Y-9455246D01*
X13184920Y-9455246D02*
X13194444Y-9407627D01*
X13194444Y-9407627D02*
X13203968Y-9379055D01*
X13203968Y-9379055D02*
X13213491Y-9360008D01*
X13213491Y-9360008D02*
X13232539Y-9331436D01*
X13232539Y-9331436D02*
X13242063Y-9321912D01*
X13403968Y-9417150D02*
X13403968Y-9550484D01*
X13356348Y-9340960D02*
X13308729Y-9483817D01*
X13308729Y-9483817D02*
X13432539Y-9483817D01*
X13661110Y-9550484D02*
X13661110Y-9350484D01*
X13746825Y-9550484D02*
X13746825Y-9445722D01*
X13746825Y-9445722D02*
X13737301Y-9426674D01*
X13737301Y-9426674D02*
X13718253Y-9417150D01*
X13718253Y-9417150D02*
X13689682Y-9417150D01*
X13689682Y-9417150D02*
X13670634Y-9426674D01*
X13670634Y-9426674D02*
X13661110Y-9436198D01*
X13870634Y-9550484D02*
X13851587Y-9540960D01*
X13851587Y-9540960D02*
X13842063Y-9531436D01*
X13842063Y-9531436D02*
X13832539Y-9512389D01*
X13832539Y-9512389D02*
X13832539Y-9455246D01*
X13832539Y-9455246D02*
X13842063Y-9436198D01*
X13842063Y-9436198D02*
X13851587Y-9426674D01*
X13851587Y-9426674D02*
X13870634Y-9417150D01*
X13870634Y-9417150D02*
X13899206Y-9417150D01*
X13899206Y-9417150D02*
X13918253Y-9426674D01*
X13918253Y-9426674D02*
X13927777Y-9436198D01*
X13927777Y-9436198D02*
X13937301Y-9455246D01*
X13937301Y-9455246D02*
X13937301Y-9512389D01*
X13937301Y-9512389D02*
X13927777Y-9531436D01*
X13927777Y-9531436D02*
X13918253Y-9540960D01*
X13918253Y-9540960D02*
X13899206Y-9550484D01*
X13899206Y-9550484D02*
X13870634Y-9550484D01*
X14051587Y-9550484D02*
X14032539Y-9540960D01*
X14032539Y-9540960D02*
X14023015Y-9521912D01*
X14023015Y-9521912D02*
X14023015Y-9350484D01*
X14203968Y-9540960D02*
X14184920Y-9550484D01*
X14184920Y-9550484D02*
X14146825Y-9550484D01*
X14146825Y-9550484D02*
X14127777Y-9540960D01*
X14127777Y-9540960D02*
X14118253Y-9521912D01*
X14118253Y-9521912D02*
X14118253Y-9445722D01*
X14118253Y-9445722D02*
X14127777Y-9426674D01*
X14127777Y-9426674D02*
X14146825Y-9417150D01*
X14146825Y-9417150D02*
X14184920Y-9417150D01*
X14184920Y-9417150D02*
X14203968Y-9426674D01*
X14203968Y-9426674D02*
X14213491Y-9445722D01*
X14213491Y-9445722D02*
X14213491Y-9464770D01*
X14213491Y-9464770D02*
X14118253Y-9483817D01*
X14289682Y-9540960D02*
X14308730Y-9550484D01*
X14308730Y-9550484D02*
X14346825Y-9550484D01*
X14346825Y-9550484D02*
X14365872Y-9540960D01*
X14365872Y-9540960D02*
X14375396Y-9521912D01*
X14375396Y-9521912D02*
X14375396Y-9512389D01*
X14375396Y-9512389D02*
X14365872Y-9493341D01*
X14365872Y-9493341D02*
X14346825Y-9483817D01*
X14346825Y-9483817D02*
X14318253Y-9483817D01*
X14318253Y-9483817D02*
X14299206Y-9474293D01*
X14299206Y-9474293D02*
X14289682Y-9455246D01*
X14289682Y-9455246D02*
X14289682Y-9445722D01*
X14289682Y-9445722D02*
X14299206Y-9426674D01*
X14299206Y-9426674D02*
X14318253Y-9417150D01*
X14318253Y-9417150D02*
X14346825Y-9417150D01*
X14346825Y-9417150D02*
X14365872Y-9426674D01*
X14442063Y-9626674D02*
X14451587Y-9617150D01*
X14451587Y-9617150D02*
X14470634Y-9588579D01*
X14470634Y-9588579D02*
X14480158Y-9569531D01*
X14480158Y-9569531D02*
X14489682Y-9540960D01*
X14489682Y-9540960D02*
X14499206Y-9493341D01*
X14499206Y-9493341D02*
X14499206Y-9455246D01*
X14499206Y-9455246D02*
X14489682Y-9407627D01*
X14489682Y-9407627D02*
X14480158Y-9379055D01*
X14480158Y-9379055D02*
X14470634Y-9360008D01*
X14470634Y-9360008D02*
X14451587Y-9331436D01*
X14451587Y-9331436D02*
X14442063Y-9321912D01*
D14*
X9537000Y-9658000D02*
X9667000Y-9788000D01*
X9667000Y-9658000D02*
X9537000Y-9788000D01*
X9602000Y-9658000D02*
X9602000Y-9788000D01*
X9537000Y-9723000D02*
X9667000Y-9723000D01*
D11*
X10032539Y-9814484D02*
X9918253Y-9814484D01*
X9975396Y-9814484D02*
X9975396Y-9614484D01*
X9975396Y-9614484D02*
X9956348Y-9643055D01*
X9956348Y-9643055D02*
X9937301Y-9662103D01*
X9937301Y-9662103D02*
X9918253Y-9671627D01*
X10118253Y-9795436D02*
X10127777Y-9804960D01*
X10127777Y-9804960D02*
X10118253Y-9814484D01*
X10118253Y-9814484D02*
X10108729Y-9804960D01*
X10108729Y-9804960D02*
X10118253Y-9795436D01*
X10118253Y-9795436D02*
X10118253Y-9814484D01*
X10194444Y-9614484D02*
X10318253Y-9614484D01*
X10318253Y-9614484D02*
X10251586Y-9690674D01*
X10251586Y-9690674D02*
X10280158Y-9690674D01*
X10280158Y-9690674D02*
X10299205Y-9700198D01*
X10299205Y-9700198D02*
X10308729Y-9709722D01*
X10308729Y-9709722D02*
X10318253Y-9728770D01*
X10318253Y-9728770D02*
X10318253Y-9776389D01*
X10318253Y-9776389D02*
X10308729Y-9795436D01*
X10308729Y-9795436D02*
X10299205Y-9804960D01*
X10299205Y-9804960D02*
X10280158Y-9814484D01*
X10280158Y-9814484D02*
X10223015Y-9814484D01*
X10223015Y-9814484D02*
X10203967Y-9804960D01*
X10203967Y-9804960D02*
X10194444Y-9795436D01*
X10442063Y-9614484D02*
X10461110Y-9614484D01*
X10461110Y-9614484D02*
X10480158Y-9624008D01*
X10480158Y-9624008D02*
X10489682Y-9633531D01*
X10489682Y-9633531D02*
X10499205Y-9652579D01*
X10499205Y-9652579D02*
X10508729Y-9690674D01*
X10508729Y-9690674D02*
X10508729Y-9738293D01*
X10508729Y-9738293D02*
X10499205Y-9776389D01*
X10499205Y-9776389D02*
X10489682Y-9795436D01*
X10489682Y-9795436D02*
X10480158Y-9804960D01*
X10480158Y-9804960D02*
X10461110Y-9814484D01*
X10461110Y-9814484D02*
X10442063Y-9814484D01*
X10442063Y-9814484D02*
X10423015Y-9804960D01*
X10423015Y-9804960D02*
X10413491Y-9795436D01*
X10413491Y-9795436D02*
X10403967Y-9776389D01*
X10403967Y-9776389D02*
X10394444Y-9738293D01*
X10394444Y-9738293D02*
X10394444Y-9690674D01*
X10394444Y-9690674D02*
X10403967Y-9652579D01*
X10403967Y-9652579D02*
X10413491Y-9633531D01*
X10413491Y-9633531D02*
X10423015Y-9624008D01*
X10423015Y-9624008D02*
X10442063Y-9614484D01*
X10632539Y-9614484D02*
X10651586Y-9614484D01*
X10651586Y-9614484D02*
X10670634Y-9624008D01*
X10670634Y-9624008D02*
X10680158Y-9633531D01*
X10680158Y-9633531D02*
X10689682Y-9652579D01*
X10689682Y-9652579D02*
X10699205Y-9690674D01*
X10699205Y-9690674D02*
X10699205Y-9738293D01*
X10699205Y-9738293D02*
X10689682Y-9776389D01*
X10689682Y-9776389D02*
X10680158Y-9795436D01*
X10680158Y-9795436D02*
X10670634Y-9804960D01*
X10670634Y-9804960D02*
X10651586Y-9814484D01*
X10651586Y-9814484D02*
X10632539Y-9814484D01*
X10632539Y-9814484D02*
X10613491Y-9804960D01*
X10613491Y-9804960D02*
X10603967Y-9795436D01*
X10603967Y-9795436D02*
X10594444Y-9776389D01*
X10594444Y-9776389D02*
X10584920Y-9738293D01*
X10584920Y-9738293D02*
X10584920Y-9690674D01*
X10584920Y-9690674D02*
X10594444Y-9652579D01*
X10594444Y-9652579D02*
X10603967Y-9633531D01*
X10603967Y-9633531D02*
X10613491Y-9624008D01*
X10613491Y-9624008D02*
X10632539Y-9614484D01*
X10784920Y-9814484D02*
X10784920Y-9681150D01*
X10784920Y-9700198D02*
X10794444Y-9690674D01*
X10794444Y-9690674D02*
X10813491Y-9681150D01*
X10813491Y-9681150D02*
X10842063Y-9681150D01*
X10842063Y-9681150D02*
X10861110Y-9690674D01*
X10861110Y-9690674D02*
X10870634Y-9709722D01*
X10870634Y-9709722D02*
X10870634Y-9814484D01*
X10870634Y-9709722D02*
X10880158Y-9690674D01*
X10880158Y-9690674D02*
X10899205Y-9681150D01*
X10899205Y-9681150D02*
X10927777Y-9681150D01*
X10927777Y-9681150D02*
X10946825Y-9690674D01*
X10946825Y-9690674D02*
X10956348Y-9709722D01*
X10956348Y-9709722D02*
X10956348Y-9814484D01*
X11051586Y-9814484D02*
X11051586Y-9681150D01*
X11051586Y-9700198D02*
X11061110Y-9690674D01*
X11061110Y-9690674D02*
X11080158Y-9681150D01*
X11080158Y-9681150D02*
X11108729Y-9681150D01*
X11108729Y-9681150D02*
X11127777Y-9690674D01*
X11127777Y-9690674D02*
X11137301Y-9709722D01*
X11137301Y-9709722D02*
X11137301Y-9814484D01*
X11137301Y-9709722D02*
X11146825Y-9690674D01*
X11146825Y-9690674D02*
X11165872Y-9681150D01*
X11165872Y-9681150D02*
X11194443Y-9681150D01*
X11194443Y-9681150D02*
X11213491Y-9690674D01*
X11213491Y-9690674D02*
X11223015Y-9709722D01*
X11223015Y-9709722D02*
X11223015Y-9814484D01*
X11613491Y-9604960D02*
X11442063Y-9862103D01*
X11870634Y-9614484D02*
X11889682Y-9614484D01*
X11889682Y-9614484D02*
X11908729Y-9624008D01*
X11908729Y-9624008D02*
X11918253Y-9633531D01*
X11918253Y-9633531D02*
X11927777Y-9652579D01*
X11927777Y-9652579D02*
X11937301Y-9690674D01*
X11937301Y-9690674D02*
X11937301Y-9738293D01*
X11937301Y-9738293D02*
X11927777Y-9776389D01*
X11927777Y-9776389D02*
X11918253Y-9795436D01*
X11918253Y-9795436D02*
X11908729Y-9804960D01*
X11908729Y-9804960D02*
X11889682Y-9814484D01*
X11889682Y-9814484D02*
X11870634Y-9814484D01*
X11870634Y-9814484D02*
X11851586Y-9804960D01*
X11851586Y-9804960D02*
X11842063Y-9795436D01*
X11842063Y-9795436D02*
X11832539Y-9776389D01*
X11832539Y-9776389D02*
X11823015Y-9738293D01*
X11823015Y-9738293D02*
X11823015Y-9690674D01*
X11823015Y-9690674D02*
X11832539Y-9652579D01*
X11832539Y-9652579D02*
X11842063Y-9633531D01*
X11842063Y-9633531D02*
X11851586Y-9624008D01*
X11851586Y-9624008D02*
X11870634Y-9614484D01*
X12023015Y-9795436D02*
X12032539Y-9804960D01*
X12032539Y-9804960D02*
X12023015Y-9814484D01*
X12023015Y-9814484D02*
X12013491Y-9804960D01*
X12013491Y-9804960D02*
X12023015Y-9795436D01*
X12023015Y-9795436D02*
X12023015Y-9814484D01*
X12156348Y-9614484D02*
X12175396Y-9614484D01*
X12175396Y-9614484D02*
X12194444Y-9624008D01*
X12194444Y-9624008D02*
X12203967Y-9633531D01*
X12203967Y-9633531D02*
X12213491Y-9652579D01*
X12213491Y-9652579D02*
X12223015Y-9690674D01*
X12223015Y-9690674D02*
X12223015Y-9738293D01*
X12223015Y-9738293D02*
X12213491Y-9776389D01*
X12213491Y-9776389D02*
X12203967Y-9795436D01*
X12203967Y-9795436D02*
X12194444Y-9804960D01*
X12194444Y-9804960D02*
X12175396Y-9814484D01*
X12175396Y-9814484D02*
X12156348Y-9814484D01*
X12156348Y-9814484D02*
X12137301Y-9804960D01*
X12137301Y-9804960D02*
X12127777Y-9795436D01*
X12127777Y-9795436D02*
X12118253Y-9776389D01*
X12118253Y-9776389D02*
X12108729Y-9738293D01*
X12108729Y-9738293D02*
X12108729Y-9690674D01*
X12108729Y-9690674D02*
X12118253Y-9652579D01*
X12118253Y-9652579D02*
X12127777Y-9633531D01*
X12127777Y-9633531D02*
X12137301Y-9624008D01*
X12137301Y-9624008D02*
X12156348Y-9614484D01*
X12403967Y-9614484D02*
X12308729Y-9614484D01*
X12308729Y-9614484D02*
X12299206Y-9709722D01*
X12299206Y-9709722D02*
X12308729Y-9700198D01*
X12308729Y-9700198D02*
X12327777Y-9690674D01*
X12327777Y-9690674D02*
X12375396Y-9690674D01*
X12375396Y-9690674D02*
X12394444Y-9700198D01*
X12394444Y-9700198D02*
X12403967Y-9709722D01*
X12403967Y-9709722D02*
X12413491Y-9728770D01*
X12413491Y-9728770D02*
X12413491Y-9776389D01*
X12413491Y-9776389D02*
X12403967Y-9795436D01*
X12403967Y-9795436D02*
X12394444Y-9804960D01*
X12394444Y-9804960D02*
X12375396Y-9814484D01*
X12375396Y-9814484D02*
X12327777Y-9814484D01*
X12327777Y-9814484D02*
X12308729Y-9804960D01*
X12308729Y-9804960D02*
X12299206Y-9795436D01*
X12603967Y-9814484D02*
X12489682Y-9814484D01*
X12546825Y-9814484D02*
X12546825Y-9614484D01*
X12546825Y-9614484D02*
X12527777Y-9643055D01*
X12527777Y-9643055D02*
X12508729Y-9662103D01*
X12508729Y-9662103D02*
X12489682Y-9671627D01*
X12680158Y-9633531D02*
X12689682Y-9624008D01*
X12689682Y-9624008D02*
X12708729Y-9614484D01*
X12708729Y-9614484D02*
X12756348Y-9614484D01*
X12756348Y-9614484D02*
X12775396Y-9624008D01*
X12775396Y-9624008D02*
X12784920Y-9633531D01*
X12784920Y-9633531D02*
X12794444Y-9652579D01*
X12794444Y-9652579D02*
X12794444Y-9671627D01*
X12794444Y-9671627D02*
X12784920Y-9700198D01*
X12784920Y-9700198D02*
X12670634Y-9814484D01*
X12670634Y-9814484D02*
X12794444Y-9814484D01*
X12870634Y-9614484D02*
X12870634Y-9652579D01*
X12946825Y-9614484D02*
X12946825Y-9652579D01*
X13242063Y-9890674D02*
X13232539Y-9881150D01*
X13232539Y-9881150D02*
X13213491Y-9852579D01*
X13213491Y-9852579D02*
X13203968Y-9833531D01*
X13203968Y-9833531D02*
X13194444Y-9804960D01*
X13194444Y-9804960D02*
X13184920Y-9757341D01*
X13184920Y-9757341D02*
X13184920Y-9719246D01*
X13184920Y-9719246D02*
X13194444Y-9671627D01*
X13194444Y-9671627D02*
X13203968Y-9643055D01*
X13203968Y-9643055D02*
X13213491Y-9624008D01*
X13213491Y-9624008D02*
X13232539Y-9595436D01*
X13232539Y-9595436D02*
X13242063Y-9585912D01*
X13308729Y-9633531D02*
X13318253Y-9624008D01*
X13318253Y-9624008D02*
X13337301Y-9614484D01*
X13337301Y-9614484D02*
X13384920Y-9614484D01*
X13384920Y-9614484D02*
X13403968Y-9624008D01*
X13403968Y-9624008D02*
X13413491Y-9633531D01*
X13413491Y-9633531D02*
X13423015Y-9652579D01*
X13423015Y-9652579D02*
X13423015Y-9671627D01*
X13423015Y-9671627D02*
X13413491Y-9700198D01*
X13413491Y-9700198D02*
X13299206Y-9814484D01*
X13299206Y-9814484D02*
X13423015Y-9814484D01*
X13661110Y-9814484D02*
X13661110Y-9614484D01*
X13746825Y-9814484D02*
X13746825Y-9709722D01*
X13746825Y-9709722D02*
X13737301Y-9690674D01*
X13737301Y-9690674D02*
X13718253Y-9681150D01*
X13718253Y-9681150D02*
X13689682Y-9681150D01*
X13689682Y-9681150D02*
X13670634Y-9690674D01*
X13670634Y-9690674D02*
X13661110Y-9700198D01*
X13870634Y-9814484D02*
X13851587Y-9804960D01*
X13851587Y-9804960D02*
X13842063Y-9795436D01*
X13842063Y-9795436D02*
X13832539Y-9776389D01*
X13832539Y-9776389D02*
X13832539Y-9719246D01*
X13832539Y-9719246D02*
X13842063Y-9700198D01*
X13842063Y-9700198D02*
X13851587Y-9690674D01*
X13851587Y-9690674D02*
X13870634Y-9681150D01*
X13870634Y-9681150D02*
X13899206Y-9681150D01*
X13899206Y-9681150D02*
X13918253Y-9690674D01*
X13918253Y-9690674D02*
X13927777Y-9700198D01*
X13927777Y-9700198D02*
X13937301Y-9719246D01*
X13937301Y-9719246D02*
X13937301Y-9776389D01*
X13937301Y-9776389D02*
X13927777Y-9795436D01*
X13927777Y-9795436D02*
X13918253Y-9804960D01*
X13918253Y-9804960D02*
X13899206Y-9814484D01*
X13899206Y-9814484D02*
X13870634Y-9814484D01*
X14051587Y-9814484D02*
X14032539Y-9804960D01*
X14032539Y-9804960D02*
X14023015Y-9785912D01*
X14023015Y-9785912D02*
X14023015Y-9614484D01*
X14203968Y-9804960D02*
X14184920Y-9814484D01*
X14184920Y-9814484D02*
X14146825Y-9814484D01*
X14146825Y-9814484D02*
X14127777Y-9804960D01*
X14127777Y-9804960D02*
X14118253Y-9785912D01*
X14118253Y-9785912D02*
X14118253Y-9709722D01*
X14118253Y-9709722D02*
X14127777Y-9690674D01*
X14127777Y-9690674D02*
X14146825Y-9681150D01*
X14146825Y-9681150D02*
X14184920Y-9681150D01*
X14184920Y-9681150D02*
X14203968Y-9690674D01*
X14203968Y-9690674D02*
X14213491Y-9709722D01*
X14213491Y-9709722D02*
X14213491Y-9728770D01*
X14213491Y-9728770D02*
X14118253Y-9747817D01*
X14289682Y-9804960D02*
X14308730Y-9814484D01*
X14308730Y-9814484D02*
X14346825Y-9814484D01*
X14346825Y-9814484D02*
X14365872Y-9804960D01*
X14365872Y-9804960D02*
X14375396Y-9785912D01*
X14375396Y-9785912D02*
X14375396Y-9776389D01*
X14375396Y-9776389D02*
X14365872Y-9757341D01*
X14365872Y-9757341D02*
X14346825Y-9747817D01*
X14346825Y-9747817D02*
X14318253Y-9747817D01*
X14318253Y-9747817D02*
X14299206Y-9738293D01*
X14299206Y-9738293D02*
X14289682Y-9719246D01*
X14289682Y-9719246D02*
X14289682Y-9709722D01*
X14289682Y-9709722D02*
X14299206Y-9690674D01*
X14299206Y-9690674D02*
X14318253Y-9681150D01*
X14318253Y-9681150D02*
X14346825Y-9681150D01*
X14346825Y-9681150D02*
X14365872Y-9690674D01*
X14442063Y-9890674D02*
X14451587Y-9881150D01*
X14451587Y-9881150D02*
X14470634Y-9852579D01*
X14470634Y-9852579D02*
X14480158Y-9833531D01*
X14480158Y-9833531D02*
X14489682Y-9804960D01*
X14489682Y-9804960D02*
X14499206Y-9757341D01*
X14499206Y-9757341D02*
X14499206Y-9719246D01*
X14499206Y-9719246D02*
X14489682Y-9671627D01*
X14489682Y-9671627D02*
X14480158Y-9643055D01*
X14480158Y-9643055D02*
X14470634Y-9624008D01*
X14470634Y-9624008D02*
X14451587Y-9595436D01*
X14451587Y-9595436D02*
X14442063Y-9585912D01*
D15*
X9497000Y-9902000D02*
X9667000Y-10072000D01*
X9667000Y-9902000D02*
X9497000Y-10072000D01*
X9642105Y-10047105D02*
X9642105Y-9926895D01*
X9521895Y-9926895D01*
X9521895Y-10047105D01*
X9642105Y-10047105D01*
D11*
X10032539Y-10078484D02*
X9918253Y-10078484D01*
X9975396Y-10078484D02*
X9975396Y-9878484D01*
X9975396Y-9878484D02*
X9956348Y-9907055D01*
X9956348Y-9907055D02*
X9937301Y-9926103D01*
X9937301Y-9926103D02*
X9918253Y-9935627D01*
X10118253Y-10059436D02*
X10127777Y-10068960D01*
X10127777Y-10068960D02*
X10118253Y-10078484D01*
X10118253Y-10078484D02*
X10108729Y-10068960D01*
X10108729Y-10068960D02*
X10118253Y-10059436D01*
X10118253Y-10059436D02*
X10118253Y-10078484D01*
X10194444Y-9878484D02*
X10327777Y-9878484D01*
X10327777Y-9878484D02*
X10242063Y-10078484D01*
X10442063Y-9878484D02*
X10461110Y-9878484D01*
X10461110Y-9878484D02*
X10480158Y-9888008D01*
X10480158Y-9888008D02*
X10489682Y-9897531D01*
X10489682Y-9897531D02*
X10499205Y-9916579D01*
X10499205Y-9916579D02*
X10508729Y-9954674D01*
X10508729Y-9954674D02*
X10508729Y-10002293D01*
X10508729Y-10002293D02*
X10499205Y-10040389D01*
X10499205Y-10040389D02*
X10489682Y-10059436D01*
X10489682Y-10059436D02*
X10480158Y-10068960D01*
X10480158Y-10068960D02*
X10461110Y-10078484D01*
X10461110Y-10078484D02*
X10442063Y-10078484D01*
X10442063Y-10078484D02*
X10423015Y-10068960D01*
X10423015Y-10068960D02*
X10413491Y-10059436D01*
X10413491Y-10059436D02*
X10403967Y-10040389D01*
X10403967Y-10040389D02*
X10394444Y-10002293D01*
X10394444Y-10002293D02*
X10394444Y-9954674D01*
X10394444Y-9954674D02*
X10403967Y-9916579D01*
X10403967Y-9916579D02*
X10413491Y-9897531D01*
X10413491Y-9897531D02*
X10423015Y-9888008D01*
X10423015Y-9888008D02*
X10442063Y-9878484D01*
X10632539Y-9878484D02*
X10651586Y-9878484D01*
X10651586Y-9878484D02*
X10670634Y-9888008D01*
X10670634Y-9888008D02*
X10680158Y-9897531D01*
X10680158Y-9897531D02*
X10689682Y-9916579D01*
X10689682Y-9916579D02*
X10699205Y-9954674D01*
X10699205Y-9954674D02*
X10699205Y-10002293D01*
X10699205Y-10002293D02*
X10689682Y-10040389D01*
X10689682Y-10040389D02*
X10680158Y-10059436D01*
X10680158Y-10059436D02*
X10670634Y-10068960D01*
X10670634Y-10068960D02*
X10651586Y-10078484D01*
X10651586Y-10078484D02*
X10632539Y-10078484D01*
X10632539Y-10078484D02*
X10613491Y-10068960D01*
X10613491Y-10068960D02*
X10603967Y-10059436D01*
X10603967Y-10059436D02*
X10594444Y-10040389D01*
X10594444Y-10040389D02*
X10584920Y-10002293D01*
X10584920Y-10002293D02*
X10584920Y-9954674D01*
X10584920Y-9954674D02*
X10594444Y-9916579D01*
X10594444Y-9916579D02*
X10603967Y-9897531D01*
X10603967Y-9897531D02*
X10613491Y-9888008D01*
X10613491Y-9888008D02*
X10632539Y-9878484D01*
X10784920Y-10078484D02*
X10784920Y-9945150D01*
X10784920Y-9964198D02*
X10794444Y-9954674D01*
X10794444Y-9954674D02*
X10813491Y-9945150D01*
X10813491Y-9945150D02*
X10842063Y-9945150D01*
X10842063Y-9945150D02*
X10861110Y-9954674D01*
X10861110Y-9954674D02*
X10870634Y-9973722D01*
X10870634Y-9973722D02*
X10870634Y-10078484D01*
X10870634Y-9973722D02*
X10880158Y-9954674D01*
X10880158Y-9954674D02*
X10899205Y-9945150D01*
X10899205Y-9945150D02*
X10927777Y-9945150D01*
X10927777Y-9945150D02*
X10946825Y-9954674D01*
X10946825Y-9954674D02*
X10956348Y-9973722D01*
X10956348Y-9973722D02*
X10956348Y-10078484D01*
X11051586Y-10078484D02*
X11051586Y-9945150D01*
X11051586Y-9964198D02*
X11061110Y-9954674D01*
X11061110Y-9954674D02*
X11080158Y-9945150D01*
X11080158Y-9945150D02*
X11108729Y-9945150D01*
X11108729Y-9945150D02*
X11127777Y-9954674D01*
X11127777Y-9954674D02*
X11137301Y-9973722D01*
X11137301Y-9973722D02*
X11137301Y-10078484D01*
X11137301Y-9973722D02*
X11146825Y-9954674D01*
X11146825Y-9954674D02*
X11165872Y-9945150D01*
X11165872Y-9945150D02*
X11194443Y-9945150D01*
X11194443Y-9945150D02*
X11213491Y-9954674D01*
X11213491Y-9954674D02*
X11223015Y-9973722D01*
X11223015Y-9973722D02*
X11223015Y-10078484D01*
X11613491Y-9868960D02*
X11442063Y-10126103D01*
X11870634Y-9878484D02*
X11889682Y-9878484D01*
X11889682Y-9878484D02*
X11908729Y-9888008D01*
X11908729Y-9888008D02*
X11918253Y-9897531D01*
X11918253Y-9897531D02*
X11927777Y-9916579D01*
X11927777Y-9916579D02*
X11937301Y-9954674D01*
X11937301Y-9954674D02*
X11937301Y-10002293D01*
X11937301Y-10002293D02*
X11927777Y-10040389D01*
X11927777Y-10040389D02*
X11918253Y-10059436D01*
X11918253Y-10059436D02*
X11908729Y-10068960D01*
X11908729Y-10068960D02*
X11889682Y-10078484D01*
X11889682Y-10078484D02*
X11870634Y-10078484D01*
X11870634Y-10078484D02*
X11851586Y-10068960D01*
X11851586Y-10068960D02*
X11842063Y-10059436D01*
X11842063Y-10059436D02*
X11832539Y-10040389D01*
X11832539Y-10040389D02*
X11823015Y-10002293D01*
X11823015Y-10002293D02*
X11823015Y-9954674D01*
X11823015Y-9954674D02*
X11832539Y-9916579D01*
X11832539Y-9916579D02*
X11842063Y-9897531D01*
X11842063Y-9897531D02*
X11851586Y-9888008D01*
X11851586Y-9888008D02*
X11870634Y-9878484D01*
X12023015Y-10059436D02*
X12032539Y-10068960D01*
X12032539Y-10068960D02*
X12023015Y-10078484D01*
X12023015Y-10078484D02*
X12013491Y-10068960D01*
X12013491Y-10068960D02*
X12023015Y-10059436D01*
X12023015Y-10059436D02*
X12023015Y-10078484D01*
X12156348Y-9878484D02*
X12175396Y-9878484D01*
X12175396Y-9878484D02*
X12194444Y-9888008D01*
X12194444Y-9888008D02*
X12203967Y-9897531D01*
X12203967Y-9897531D02*
X12213491Y-9916579D01*
X12213491Y-9916579D02*
X12223015Y-9954674D01*
X12223015Y-9954674D02*
X12223015Y-10002293D01*
X12223015Y-10002293D02*
X12213491Y-10040389D01*
X12213491Y-10040389D02*
X12203967Y-10059436D01*
X12203967Y-10059436D02*
X12194444Y-10068960D01*
X12194444Y-10068960D02*
X12175396Y-10078484D01*
X12175396Y-10078484D02*
X12156348Y-10078484D01*
X12156348Y-10078484D02*
X12137301Y-10068960D01*
X12137301Y-10068960D02*
X12127777Y-10059436D01*
X12127777Y-10059436D02*
X12118253Y-10040389D01*
X12118253Y-10040389D02*
X12108729Y-10002293D01*
X12108729Y-10002293D02*
X12108729Y-9954674D01*
X12108729Y-9954674D02*
X12118253Y-9916579D01*
X12118253Y-9916579D02*
X12127777Y-9897531D01*
X12127777Y-9897531D02*
X12137301Y-9888008D01*
X12137301Y-9888008D02*
X12156348Y-9878484D01*
X12394444Y-9878484D02*
X12356348Y-9878484D01*
X12356348Y-9878484D02*
X12337301Y-9888008D01*
X12337301Y-9888008D02*
X12327777Y-9897531D01*
X12327777Y-9897531D02*
X12308729Y-9926103D01*
X12308729Y-9926103D02*
X12299206Y-9964198D01*
X12299206Y-9964198D02*
X12299206Y-10040389D01*
X12299206Y-10040389D02*
X12308729Y-10059436D01*
X12308729Y-10059436D02*
X12318253Y-10068960D01*
X12318253Y-10068960D02*
X12337301Y-10078484D01*
X12337301Y-10078484D02*
X12375396Y-10078484D01*
X12375396Y-10078484D02*
X12394444Y-10068960D01*
X12394444Y-10068960D02*
X12403967Y-10059436D01*
X12403967Y-10059436D02*
X12413491Y-10040389D01*
X12413491Y-10040389D02*
X12413491Y-9992770D01*
X12413491Y-9992770D02*
X12403967Y-9973722D01*
X12403967Y-9973722D02*
X12394444Y-9964198D01*
X12394444Y-9964198D02*
X12375396Y-9954674D01*
X12375396Y-9954674D02*
X12337301Y-9954674D01*
X12337301Y-9954674D02*
X12318253Y-9964198D01*
X12318253Y-9964198D02*
X12308729Y-9973722D01*
X12308729Y-9973722D02*
X12299206Y-9992770D01*
X12584920Y-9878484D02*
X12546825Y-9878484D01*
X12546825Y-9878484D02*
X12527777Y-9888008D01*
X12527777Y-9888008D02*
X12518253Y-9897531D01*
X12518253Y-9897531D02*
X12499206Y-9926103D01*
X12499206Y-9926103D02*
X12489682Y-9964198D01*
X12489682Y-9964198D02*
X12489682Y-10040389D01*
X12489682Y-10040389D02*
X12499206Y-10059436D01*
X12499206Y-10059436D02*
X12508729Y-10068960D01*
X12508729Y-10068960D02*
X12527777Y-10078484D01*
X12527777Y-10078484D02*
X12565872Y-10078484D01*
X12565872Y-10078484D02*
X12584920Y-10068960D01*
X12584920Y-10068960D02*
X12594444Y-10059436D01*
X12594444Y-10059436D02*
X12603967Y-10040389D01*
X12603967Y-10040389D02*
X12603967Y-9992770D01*
X12603967Y-9992770D02*
X12594444Y-9973722D01*
X12594444Y-9973722D02*
X12584920Y-9964198D01*
X12584920Y-9964198D02*
X12565872Y-9954674D01*
X12565872Y-9954674D02*
X12527777Y-9954674D01*
X12527777Y-9954674D02*
X12508729Y-9964198D01*
X12508729Y-9964198D02*
X12499206Y-9973722D01*
X12499206Y-9973722D02*
X12489682Y-9992770D01*
X12699206Y-10078484D02*
X12737301Y-10078484D01*
X12737301Y-10078484D02*
X12756348Y-10068960D01*
X12756348Y-10068960D02*
X12765872Y-10059436D01*
X12765872Y-10059436D02*
X12784920Y-10030865D01*
X12784920Y-10030865D02*
X12794444Y-9992770D01*
X12794444Y-9992770D02*
X12794444Y-9916579D01*
X12794444Y-9916579D02*
X12784920Y-9897531D01*
X12784920Y-9897531D02*
X12775396Y-9888008D01*
X12775396Y-9888008D02*
X12756348Y-9878484D01*
X12756348Y-9878484D02*
X12718253Y-9878484D01*
X12718253Y-9878484D02*
X12699206Y-9888008D01*
X12699206Y-9888008D02*
X12689682Y-9897531D01*
X12689682Y-9897531D02*
X12680158Y-9916579D01*
X12680158Y-9916579D02*
X12680158Y-9964198D01*
X12680158Y-9964198D02*
X12689682Y-9983246D01*
X12689682Y-9983246D02*
X12699206Y-9992770D01*
X12699206Y-9992770D02*
X12718253Y-10002293D01*
X12718253Y-10002293D02*
X12756348Y-10002293D01*
X12756348Y-10002293D02*
X12775396Y-9992770D01*
X12775396Y-9992770D02*
X12784920Y-9983246D01*
X12784920Y-9983246D02*
X12794444Y-9964198D01*
X12870634Y-9878484D02*
X12870634Y-9916579D01*
X12946825Y-9878484D02*
X12946825Y-9916579D01*
X13242063Y-10154674D02*
X13232539Y-10145150D01*
X13232539Y-10145150D02*
X13213491Y-10116579D01*
X13213491Y-10116579D02*
X13203968Y-10097531D01*
X13203968Y-10097531D02*
X13194444Y-10068960D01*
X13194444Y-10068960D02*
X13184920Y-10021341D01*
X13184920Y-10021341D02*
X13184920Y-9983246D01*
X13184920Y-9983246D02*
X13194444Y-9935627D01*
X13194444Y-9935627D02*
X13203968Y-9907055D01*
X13203968Y-9907055D02*
X13213491Y-9888008D01*
X13213491Y-9888008D02*
X13232539Y-9859436D01*
X13232539Y-9859436D02*
X13242063Y-9849912D01*
X13308729Y-9897531D02*
X13318253Y-9888008D01*
X13318253Y-9888008D02*
X13337301Y-9878484D01*
X13337301Y-9878484D02*
X13384920Y-9878484D01*
X13384920Y-9878484D02*
X13403968Y-9888008D01*
X13403968Y-9888008D02*
X13413491Y-9897531D01*
X13413491Y-9897531D02*
X13423015Y-9916579D01*
X13423015Y-9916579D02*
X13423015Y-9935627D01*
X13423015Y-9935627D02*
X13413491Y-9964198D01*
X13413491Y-9964198D02*
X13299206Y-10078484D01*
X13299206Y-10078484D02*
X13423015Y-10078484D01*
X13661110Y-10078484D02*
X13661110Y-9878484D01*
X13746825Y-10078484D02*
X13746825Y-9973722D01*
X13746825Y-9973722D02*
X13737301Y-9954674D01*
X13737301Y-9954674D02*
X13718253Y-9945150D01*
X13718253Y-9945150D02*
X13689682Y-9945150D01*
X13689682Y-9945150D02*
X13670634Y-9954674D01*
X13670634Y-9954674D02*
X13661110Y-9964198D01*
X13870634Y-10078484D02*
X13851587Y-10068960D01*
X13851587Y-10068960D02*
X13842063Y-10059436D01*
X13842063Y-10059436D02*
X13832539Y-10040389D01*
X13832539Y-10040389D02*
X13832539Y-9983246D01*
X13832539Y-9983246D02*
X13842063Y-9964198D01*
X13842063Y-9964198D02*
X13851587Y-9954674D01*
X13851587Y-9954674D02*
X13870634Y-9945150D01*
X13870634Y-9945150D02*
X13899206Y-9945150D01*
X13899206Y-9945150D02*
X13918253Y-9954674D01*
X13918253Y-9954674D02*
X13927777Y-9964198D01*
X13927777Y-9964198D02*
X13937301Y-9983246D01*
X13937301Y-9983246D02*
X13937301Y-10040389D01*
X13937301Y-10040389D02*
X13927777Y-10059436D01*
X13927777Y-10059436D02*
X13918253Y-10068960D01*
X13918253Y-10068960D02*
X13899206Y-10078484D01*
X13899206Y-10078484D02*
X13870634Y-10078484D01*
X14051587Y-10078484D02*
X14032539Y-10068960D01*
X14032539Y-10068960D02*
X14023015Y-10049912D01*
X14023015Y-10049912D02*
X14023015Y-9878484D01*
X14203968Y-10068960D02*
X14184920Y-10078484D01*
X14184920Y-10078484D02*
X14146825Y-10078484D01*
X14146825Y-10078484D02*
X14127777Y-10068960D01*
X14127777Y-10068960D02*
X14118253Y-10049912D01*
X14118253Y-10049912D02*
X14118253Y-9973722D01*
X14118253Y-9973722D02*
X14127777Y-9954674D01*
X14127777Y-9954674D02*
X14146825Y-9945150D01*
X14146825Y-9945150D02*
X14184920Y-9945150D01*
X14184920Y-9945150D02*
X14203968Y-9954674D01*
X14203968Y-9954674D02*
X14213491Y-9973722D01*
X14213491Y-9973722D02*
X14213491Y-9992770D01*
X14213491Y-9992770D02*
X14118253Y-10011817D01*
X14289682Y-10068960D02*
X14308730Y-10078484D01*
X14308730Y-10078484D02*
X14346825Y-10078484D01*
X14346825Y-10078484D02*
X14365872Y-10068960D01*
X14365872Y-10068960D02*
X14375396Y-10049912D01*
X14375396Y-10049912D02*
X14375396Y-10040389D01*
X14375396Y-10040389D02*
X14365872Y-10021341D01*
X14365872Y-10021341D02*
X14346825Y-10011817D01*
X14346825Y-10011817D02*
X14318253Y-10011817D01*
X14318253Y-10011817D02*
X14299206Y-10002293D01*
X14299206Y-10002293D02*
X14289682Y-9983246D01*
X14289682Y-9983246D02*
X14289682Y-9973722D01*
X14289682Y-9973722D02*
X14299206Y-9954674D01*
X14299206Y-9954674D02*
X14318253Y-9945150D01*
X14318253Y-9945150D02*
X14346825Y-9945150D01*
X14346825Y-9945150D02*
X14365872Y-9954674D01*
X14442063Y-10154674D02*
X14451587Y-10145150D01*
X14451587Y-10145150D02*
X14470634Y-10116579D01*
X14470634Y-10116579D02*
X14480158Y-10097531D01*
X14480158Y-10097531D02*
X14489682Y-10068960D01*
X14489682Y-10068960D02*
X14499206Y-10021341D01*
X14499206Y-10021341D02*
X14499206Y-9983246D01*
X14499206Y-9983246D02*
X14489682Y-9935627D01*
X14489682Y-9935627D02*
X14480158Y-9907055D01*
X14480158Y-9907055D02*
X14470634Y-9888008D01*
X14470634Y-9888008D02*
X14451587Y-9859436D01*
X14451587Y-9859436D02*
X14442063Y-9849912D01*
M02*
