%TF.GenerationSoftware,KiCad,Pcbnew,8.0.2*%
%TF.CreationDate,2024-05-14T20:45:56-05:00*%
%TF.ProjectId,Uno_R4_LCC_Shield,556e6f5f-5234-45f4-9c43-435f53686965,rev?*%
%TF.SameCoordinates,Original*%
%TF.FileFunction,Soldermask,Top*%
%TF.FilePolarity,Negative*%
%FSLAX46Y46*%
G04 Gerber Fmt 4.6, Leading zero omitted, Abs format (unit mm)*
G04 Created by KiCad (PCBNEW 8.0.2) date 2024-05-14 20:45:56*
%MOMM*%
%LPD*%
G01*
G04 APERTURE LIST*
G04 Aperture macros list*
%AMRoundRect*
0 Rectangle with rounded corners*
0 $1 Rounding radius*
0 $2 $3 $4 $5 $6 $7 $8 $9 X,Y pos of 4 corners*
0 Add a 4 corners polygon primitive as box body*
4,1,4,$2,$3,$4,$5,$6,$7,$8,$9,$2,$3,0*
0 Add four circle primitives for the rounded corners*
1,1,$1+$1,$2,$3*
1,1,$1+$1,$4,$5*
1,1,$1+$1,$6,$7*
1,1,$1+$1,$8,$9*
0 Add four rect primitives between the rounded corners*
20,1,$1+$1,$2,$3,$4,$5,0*
20,1,$1+$1,$4,$5,$6,$7,0*
20,1,$1+$1,$6,$7,$8,$9,0*
20,1,$1+$1,$8,$9,$2,$3,0*%
%AMFreePoly0*
4,1,19,0.500000,-0.750000,0.000000,-0.750000,0.000000,-0.744911,-0.071157,-0.744911,-0.207708,-0.704816,-0.327430,-0.627875,-0.420627,-0.520320,-0.479746,-0.390866,-0.500000,-0.250000,-0.500000,0.250000,-0.479746,0.390866,-0.420627,0.520320,-0.327430,0.627875,-0.207708,0.704816,-0.071157,0.744911,0.000000,0.744911,0.000000,0.750000,0.500000,0.750000,0.500000,-0.750000,0.500000,-0.750000,
$1*%
%AMFreePoly1*
4,1,19,0.000000,0.744911,0.071157,0.744911,0.207708,0.704816,0.327430,0.627875,0.420627,0.520320,0.479746,0.390866,0.500000,0.250000,0.500000,-0.250000,0.479746,-0.390866,0.420627,-0.520320,0.327430,-0.627875,0.207708,-0.704816,0.071157,-0.744911,0.000000,-0.744911,0.000000,-0.750000,-0.500000,-0.750000,-0.500000,0.750000,0.000000,0.750000,0.000000,0.744911,0.000000,0.744911,
$1*%
%AMFreePoly2*
4,1,19,0.550000,-0.750000,0.000000,-0.750000,0.000000,-0.744911,-0.071157,-0.744911,-0.207708,-0.704816,-0.327430,-0.627875,-0.420627,-0.520320,-0.479746,-0.390866,-0.500000,-0.250000,-0.500000,0.250000,-0.479746,0.390866,-0.420627,0.520320,-0.327430,0.627875,-0.207708,0.704816,-0.071157,0.744911,0.000000,0.744911,0.000000,0.750000,0.550000,0.750000,0.550000,-0.750000,0.550000,-0.750000,
$1*%
%AMFreePoly3*
4,1,19,0.000000,0.744911,0.071157,0.744911,0.207708,0.704816,0.327430,0.627875,0.420627,0.520320,0.479746,0.390866,0.500000,0.250000,0.500000,-0.250000,0.479746,-0.390866,0.420627,-0.520320,0.327430,-0.627875,0.207708,-0.704816,0.071157,-0.744911,0.000000,-0.744911,0.000000,-0.750000,-0.550000,-0.750000,-0.550000,0.750000,0.000000,0.750000,0.000000,0.744911,0.000000,0.744911,
$1*%
G04 Aperture macros list end*
%ADD10C,0.000000*%
%ADD11RoundRect,0.155000X-0.155000X0.212500X-0.155000X-0.212500X0.155000X-0.212500X0.155000X0.212500X0*%
%ADD12RoundRect,0.150000X-0.150000X0.662500X-0.150000X-0.662500X0.150000X-0.662500X0.150000X0.662500X0*%
%ADD13FreePoly0,0.000000*%
%ADD14FreePoly1,0.000000*%
%ADD15RoundRect,0.155000X0.212500X0.155000X-0.212500X0.155000X-0.212500X-0.155000X0.212500X-0.155000X0*%
%ADD16O,1.604000X3.804000*%
%ADD17O,3.804000X1.604000*%
%ADD18C,3.250000*%
%ADD19C,1.704000*%
%ADD20C,2.504000*%
%ADD21R,0.449999X1.500000*%
%ADD22R,5.000000X3.400001*%
%ADD23R,2.600000X2.600000*%
%ADD24C,2.600000*%
%ADD25RoundRect,0.155000X-0.212500X-0.155000X0.212500X-0.155000X0.212500X0.155000X-0.212500X0.155000X0*%
%ADD26RoundRect,0.075000X-0.075000X0.212500X-0.075000X-0.212500X0.075000X-0.212500X0.075000X0.212500X0*%
%ADD27RoundRect,0.250000X0.412500X0.650000X-0.412500X0.650000X-0.412500X-0.650000X0.412500X-0.650000X0*%
%ADD28FreePoly2,90.000000*%
%ADD29R,1.500000X1.000000*%
%ADD30FreePoly3,90.000000*%
%ADD31FreePoly0,180.000000*%
%ADD32FreePoly1,180.000000*%
%ADD33RoundRect,0.150000X0.150000X-0.725000X0.150000X0.725000X-0.150000X0.725000X-0.150000X-0.725000X0*%
%ADD34RoundRect,0.150000X0.150000X-0.825000X0.150000X0.825000X-0.150000X0.825000X-0.150000X-0.825000X0*%
%ADD35C,2.000000*%
%ADD36RoundRect,0.155000X0.155000X-0.212500X0.155000X0.212500X-0.155000X0.212500X-0.155000X-0.212500X0*%
%ADD37R,1.600000X1.600000*%
%ADD38O,1.600000X1.600000*%
G04 APERTURE END LIST*
D10*
%TO.C,U3*%
G36*
X153235399Y-41770945D02*
G01*
X153244629Y-41773744D01*
X153253133Y-41778290D01*
X153260591Y-41784409D01*
X153266710Y-41791867D01*
X153271256Y-41800371D01*
X153274055Y-41809601D01*
X153275000Y-41819200D01*
X153275000Y-44180800D01*
X153274055Y-44190399D01*
X153271256Y-44199629D01*
X153266710Y-44208133D01*
X153260591Y-44215591D01*
X153253133Y-44221710D01*
X153244629Y-44226256D01*
X153235399Y-44229055D01*
X153225800Y-44230000D01*
X149774200Y-44230000D01*
X149764601Y-44229055D01*
X149755371Y-44226256D01*
X149746867Y-44221710D01*
X149739409Y-44215591D01*
X149733290Y-44208133D01*
X149728744Y-44199629D01*
X149725945Y-44190399D01*
X149725000Y-44180800D01*
X149725000Y-41819200D01*
X149725945Y-41809601D01*
X149728744Y-41800371D01*
X149733290Y-41791867D01*
X149739409Y-41784409D01*
X149746867Y-41778290D01*
X149755371Y-41773744D01*
X149764601Y-41770945D01*
X149774200Y-41770000D01*
X153225800Y-41770000D01*
X153235399Y-41770945D01*
G37*
%TD*%
D11*
%TO.C,C3*%
X150700000Y-36832500D03*
X150700000Y-37967500D03*
%TD*%
%TO.C,C7*%
X150500000Y-52032500D03*
X150500000Y-53167500D03*
%TD*%
D12*
%TO.C,U1*%
X126035000Y-35012500D03*
X124765000Y-35012500D03*
X124765000Y-41387500D03*
X126035000Y-41387500D03*
%TD*%
D13*
%TO.C,JP2*%
X138350000Y-29500000D03*
D14*
X139650000Y-29500000D03*
%TD*%
D12*
%TO.C,U4*%
X131435000Y-35012500D03*
X130165000Y-35012500D03*
X130165000Y-41387500D03*
X131435000Y-41387500D03*
%TD*%
D15*
%TO.C,C6*%
X149467500Y-38000000D03*
X148332500Y-38000000D03*
%TD*%
D13*
%TO.C,JP4*%
X102350000Y-61500000D03*
D14*
X103650000Y-61500000D03*
%TD*%
D16*
%TO.C,J2*%
X153750000Y-30000000D03*
X160000000Y-30000000D03*
D17*
X156750000Y-25200000D03*
%TD*%
D18*
%TO.C,J1*%
X103680000Y-30300000D03*
X103680000Y-55700000D03*
D19*
X110030000Y-31570000D03*
X112570000Y-32840000D03*
X110030000Y-34110000D03*
X112570000Y-35380000D03*
X110030000Y-36650000D03*
X112570000Y-37920000D03*
X110030000Y-39190000D03*
X112570000Y-40460000D03*
X110030000Y-45540000D03*
X112570000Y-46810000D03*
X110030000Y-48080000D03*
X112570000Y-49350000D03*
X110030000Y-50620000D03*
X112570000Y-51890000D03*
X110030000Y-53160000D03*
X112570000Y-54430000D03*
D20*
X100000000Y-27500000D03*
X100000000Y-58500000D03*
%TD*%
D21*
%TO.C,U3*%
X149225001Y-45899999D03*
X149875002Y-45899999D03*
X150525001Y-45899999D03*
X151175002Y-45899999D03*
X151825001Y-45899999D03*
X152475002Y-45899999D03*
X153125001Y-45899999D03*
X153775002Y-45899999D03*
X153775002Y-40100001D03*
X153125001Y-40100001D03*
X152475002Y-40100001D03*
X151825001Y-40100001D03*
X151175002Y-40100001D03*
X150525001Y-40100001D03*
X149875002Y-40100001D03*
X149225001Y-40100001D03*
D22*
X151500000Y-43000000D03*
%TD*%
D15*
%TO.C,C12*%
X119567500Y-54500000D03*
X118432500Y-54500000D03*
%TD*%
D23*
%TO.C,J3*%
X162000000Y-40500000D03*
D24*
X162000000Y-45500000D03*
%TD*%
D25*
%TO.C,C1*%
X126832500Y-43000000D03*
X127967500Y-43000000D03*
%TD*%
D26*
%TO.C,R1*%
X150700000Y-47762500D03*
X150700000Y-48437500D03*
%TD*%
D25*
%TO.C,C8*%
X122365000Y-47300000D03*
X123500000Y-47300000D03*
%TD*%
D27*
%TO.C,C4*%
X150962500Y-31000000D03*
X147837500Y-31000000D03*
%TD*%
D26*
%TO.C,R2*%
X148500000Y-52000000D03*
X148500000Y-52675000D03*
%TD*%
D11*
%TO.C,C9*%
X132900000Y-40765000D03*
X132900000Y-41900000D03*
%TD*%
D28*
%TO.C,JP5*%
X116500000Y-66059439D03*
D29*
X116500000Y-64759439D03*
D30*
X116500000Y-63459439D03*
%TD*%
D31*
%TO.C,JP1*%
X148000000Y-24000000D03*
D32*
X146700000Y-24000000D03*
%TD*%
D33*
%TO.C,U2*%
X135210000Y-45650000D03*
X136480000Y-45650000D03*
X137750000Y-45650000D03*
X139020000Y-45650000D03*
X140290000Y-45650000D03*
X141560000Y-45650000D03*
X142830000Y-45650000D03*
X144100000Y-45650000D03*
X144100000Y-40500000D03*
X142830000Y-40500000D03*
X141560000Y-40500000D03*
X140290000Y-40500000D03*
X139020000Y-40500000D03*
X137750000Y-40500000D03*
X136480000Y-40500000D03*
X135210000Y-40500000D03*
%TD*%
D34*
%TO.C,U7*%
X117095000Y-52475000D03*
X118365000Y-52475000D03*
X119635000Y-52475000D03*
X120905000Y-52475000D03*
X120905000Y-47525000D03*
X119635000Y-47525000D03*
X118365000Y-47525000D03*
X117095000Y-47525000D03*
%TD*%
D35*
%TO.C,SW1*%
X161000000Y-71000000D03*
X154500000Y-71000000D03*
X161000000Y-66500000D03*
X154500000Y-66500000D03*
%TD*%
D36*
%TO.C,C2*%
X134500000Y-38767500D03*
X134500000Y-37632500D03*
%TD*%
D11*
%TO.C,C11*%
X152000000Y-47932500D03*
X152000000Y-49067500D03*
%TD*%
D13*
%TO.C,JP3*%
X138350000Y-32000000D03*
D14*
X139650000Y-32000000D03*
%TD*%
D28*
%TO.C,JP6*%
X112500000Y-66059439D03*
D29*
X112500000Y-64759439D03*
D30*
X112500000Y-63459439D03*
%TD*%
D36*
%TO.C,C5*%
X151700000Y-37967500D03*
X151700000Y-36832500D03*
%TD*%
D37*
%TO.C,A1*%
X137500000Y-24000000D03*
D38*
X134960000Y-24000000D03*
X132420000Y-24000000D03*
X129880000Y-24000000D03*
X127340000Y-24000000D03*
X124800000Y-24000000D03*
X122260000Y-24000000D03*
X119720000Y-24000000D03*
X114640000Y-24000000D03*
X112100000Y-24000000D03*
X109560000Y-24000000D03*
X107020000Y-24000000D03*
X104480000Y-24000000D03*
X101940000Y-24000000D03*
X101940000Y-72260000D03*
X104480000Y-72260000D03*
X107020000Y-72260000D03*
X109560000Y-72260000D03*
X112100000Y-72260000D03*
X114640000Y-72260000D03*
X117180000Y-72260000D03*
X119720000Y-72260000D03*
X123780000Y-72260000D03*
X126320000Y-72260000D03*
X128860000Y-72260000D03*
X131400000Y-72260000D03*
X133940000Y-72260000D03*
X136480000Y-72260000D03*
X139020000Y-72260000D03*
X141560000Y-72260000D03*
X144100000Y-72260000D03*
X146640000Y-72260000D03*
%TD*%
M02*
