%TF.GenerationSoftware,KiCad,Pcbnew,8.0.2*%
%TF.CreationDate,2024-05-14T20:45:59-05:00*%
%TF.ProjectId,Uno_R4_LCC_Shield,556e6f5f-5234-45f4-9c43-435f53686965,rev?*%
%TF.SameCoordinates,Original*%
%TF.FileFunction,Soldermask,Bot*%
%TF.FilePolarity,Negative*%
%FSLAX46Y46*%
G04 Gerber Fmt 4.6, Leading zero omitted, Abs format (unit mm)*
G04 Created by KiCad (PCBNEW 8.0.2) date 2024-05-14 20:45:59*
%MOMM*%
%LPD*%
G01*
G04 APERTURE LIST*
%ADD10O,1.604000X3.804000*%
%ADD11O,3.804000X1.604000*%
%ADD12C,3.250000*%
%ADD13C,1.704000*%
%ADD14C,2.504000*%
%ADD15R,2.600000X2.600000*%
%ADD16C,2.600000*%
%ADD17C,2.000000*%
%ADD18R,1.600000X1.600000*%
%ADD19O,1.600000X1.600000*%
G04 APERTURE END LIST*
D10*
%TO.C,J2*%
X153750000Y-30000000D03*
X160000000Y-30000000D03*
D11*
X156750000Y-25200000D03*
%TD*%
D12*
%TO.C,J1*%
X103680000Y-30300000D03*
X103680000Y-55700000D03*
D13*
X110030000Y-31570000D03*
X112570000Y-32840000D03*
X110030000Y-34110000D03*
X112570000Y-35380000D03*
X110030000Y-36650000D03*
X112570000Y-37920000D03*
X110030000Y-39190000D03*
X112570000Y-40460000D03*
X110030000Y-45540000D03*
X112570000Y-46810000D03*
X110030000Y-48080000D03*
X112570000Y-49350000D03*
X110030000Y-50620000D03*
X112570000Y-51890000D03*
X110030000Y-53160000D03*
X112570000Y-54430000D03*
D14*
X100000000Y-27500000D03*
X100000000Y-58500000D03*
%TD*%
D15*
%TO.C,J3*%
X162000000Y-40500000D03*
D16*
X162000000Y-45500000D03*
%TD*%
D17*
%TO.C,SW1*%
X161000000Y-71000000D03*
X154500000Y-71000000D03*
X161000000Y-66500000D03*
X154500000Y-66500000D03*
%TD*%
D18*
%TO.C,A1*%
X137500000Y-24000000D03*
D19*
X134960000Y-24000000D03*
X132420000Y-24000000D03*
X129880000Y-24000000D03*
X127340000Y-24000000D03*
X124800000Y-24000000D03*
X122260000Y-24000000D03*
X119720000Y-24000000D03*
X114640000Y-24000000D03*
X112100000Y-24000000D03*
X109560000Y-24000000D03*
X107020000Y-24000000D03*
X104480000Y-24000000D03*
X101940000Y-24000000D03*
X101940000Y-72260000D03*
X104480000Y-72260000D03*
X107020000Y-72260000D03*
X109560000Y-72260000D03*
X112100000Y-72260000D03*
X114640000Y-72260000D03*
X117180000Y-72260000D03*
X119720000Y-72260000D03*
X123780000Y-72260000D03*
X126320000Y-72260000D03*
X128860000Y-72260000D03*
X131400000Y-72260000D03*
X133940000Y-72260000D03*
X136480000Y-72260000D03*
X139020000Y-72260000D03*
X141560000Y-72260000D03*
X144100000Y-72260000D03*
X146640000Y-72260000D03*
%TD*%
M02*
