%TF.GenerationSoftware,KiCad,Pcbnew,8.0.2*%
%TF.CreationDate,2024-05-15T23:10:03-05:00*%
%TF.ProjectId,Uno_R4_LCC_Shield,556e6f5f-5234-45f4-9c43-435f53686965,rev?*%
%TF.SameCoordinates,Original*%
%TF.FileFunction,Paste,Top*%
%TF.FilePolarity,Positive*%
%FSLAX46Y46*%
G04 Gerber Fmt 4.6, Leading zero omitted, Abs format (unit mm)*
G04 Created by KiCad (PCBNEW 8.0.2) date 2024-05-15 23:10:03*
%MOMM*%
%LPD*%
G01*
G04 APERTURE LIST*
G04 Aperture macros list*
%AMRoundRect*
0 Rectangle with rounded corners*
0 $1 Rounding radius*
0 $2 $3 $4 $5 $6 $7 $8 $9 X,Y pos of 4 corners*
0 Add a 4 corners polygon primitive as box body*
4,1,4,$2,$3,$4,$5,$6,$7,$8,$9,$2,$3,0*
0 Add four circle primitives for the rounded corners*
1,1,$1+$1,$2,$3*
1,1,$1+$1,$4,$5*
1,1,$1+$1,$6,$7*
1,1,$1+$1,$8,$9*
0 Add four rect primitives between the rounded corners*
20,1,$1+$1,$2,$3,$4,$5,0*
20,1,$1+$1,$4,$5,$6,$7,0*
20,1,$1+$1,$6,$7,$8,$9,0*
20,1,$1+$1,$8,$9,$2,$3,0*%
G04 Aperture macros list end*
%ADD10C,0.000000*%
%ADD11RoundRect,0.155000X-0.155000X0.212500X-0.155000X-0.212500X0.155000X-0.212500X0.155000X0.212500X0*%
%ADD12RoundRect,0.150000X-0.150000X0.662500X-0.150000X-0.662500X0.150000X-0.662500X0.150000X0.662500X0*%
%ADD13RoundRect,0.155000X0.212500X0.155000X-0.212500X0.155000X-0.212500X-0.155000X0.212500X-0.155000X0*%
%ADD14R,0.449999X1.500000*%
%ADD15R,5.000000X3.400001*%
%ADD16RoundRect,0.155000X-0.212500X-0.155000X0.212500X-0.155000X0.212500X0.155000X-0.212500X0.155000X0*%
%ADD17RoundRect,0.067500X-0.067500X0.137500X-0.067500X-0.137500X0.067500X-0.137500X0.067500X0.137500X0*%
%ADD18RoundRect,0.250000X0.412500X0.650000X-0.412500X0.650000X-0.412500X-0.650000X0.412500X-0.650000X0*%
%ADD19RoundRect,0.150000X0.150000X-0.725000X0.150000X0.725000X-0.150000X0.725000X-0.150000X-0.725000X0*%
%ADD20RoundRect,0.150000X0.150000X-0.825000X0.150000X0.825000X-0.150000X0.825000X-0.150000X-0.825000X0*%
%ADD21RoundRect,0.155000X0.155000X-0.212500X0.155000X0.212500X-0.155000X0.212500X-0.155000X-0.212500X0*%
G04 APERTURE END LIST*
D10*
%TO.C,U3*%
G36*
X153235399Y-41770945D02*
G01*
X153244629Y-41773744D01*
X153253133Y-41778290D01*
X153260591Y-41784409D01*
X153266710Y-41791867D01*
X153271256Y-41800371D01*
X153274055Y-41809601D01*
X153275000Y-41819200D01*
X153275000Y-44180800D01*
X153274055Y-44190399D01*
X153271256Y-44199629D01*
X153266710Y-44208133D01*
X153260591Y-44215591D01*
X153253133Y-44221710D01*
X153244629Y-44226256D01*
X153235399Y-44229055D01*
X153225800Y-44230000D01*
X149774200Y-44230000D01*
X149764601Y-44229055D01*
X149755371Y-44226256D01*
X149746867Y-44221710D01*
X149739409Y-44215591D01*
X149733290Y-44208133D01*
X149728744Y-44199629D01*
X149725945Y-44190399D01*
X149725000Y-44180800D01*
X149725000Y-41819200D01*
X149725945Y-41809601D01*
X149728744Y-41800371D01*
X149733290Y-41791867D01*
X149739409Y-41784409D01*
X149746867Y-41778290D01*
X149755371Y-41773744D01*
X149764601Y-41770945D01*
X149774200Y-41770000D01*
X153225800Y-41770000D01*
X153235399Y-41770945D01*
G37*
%TD*%
D11*
%TO.C,C3*%
X150700000Y-36832500D03*
X150700000Y-37967500D03*
%TD*%
%TO.C,C7*%
X150500000Y-52032500D03*
X150500000Y-53167500D03*
%TD*%
D12*
%TO.C,U1*%
X126035000Y-35012500D03*
X124765000Y-35012500D03*
X124765000Y-41387500D03*
X126035000Y-41387500D03*
%TD*%
%TO.C,U4*%
X131435000Y-35012500D03*
X130165000Y-35012500D03*
X130165000Y-41387500D03*
X131435000Y-41387500D03*
%TD*%
D13*
%TO.C,C6*%
X149467500Y-38000000D03*
X148332500Y-38000000D03*
%TD*%
D14*
%TO.C,U3*%
X149225001Y-45899999D03*
X149875002Y-45899999D03*
X150525001Y-45899999D03*
X151175002Y-45899999D03*
X151825001Y-45899999D03*
X152475002Y-45899999D03*
X153125001Y-45899999D03*
X153775002Y-45899999D03*
X153775002Y-40100001D03*
X153125001Y-40100001D03*
X152475002Y-40100001D03*
X151825001Y-40100001D03*
X151175002Y-40100001D03*
X150525001Y-40100001D03*
X149875002Y-40100001D03*
X149225001Y-40100001D03*
D15*
X151500000Y-43000000D03*
%TD*%
D13*
%TO.C,C12*%
X119567500Y-54500000D03*
X118432500Y-54500000D03*
%TD*%
D16*
%TO.C,C1*%
X126832500Y-43000000D03*
X127967500Y-43000000D03*
%TD*%
D17*
%TO.C,R1*%
X150700000Y-47737500D03*
X150700000Y-48462500D03*
%TD*%
D16*
%TO.C,C8*%
X122365000Y-47300000D03*
X123500000Y-47300000D03*
%TD*%
D18*
%TO.C,C4*%
X150962500Y-31000000D03*
X147837500Y-31000000D03*
%TD*%
D17*
%TO.C,R2*%
X148500000Y-51975000D03*
X148500000Y-52700000D03*
%TD*%
D11*
%TO.C,C9*%
X132900000Y-40765000D03*
X132900000Y-41900000D03*
%TD*%
D19*
%TO.C,U2*%
X135210000Y-45650000D03*
X136480000Y-45650000D03*
X137750000Y-45650000D03*
X139020000Y-45650000D03*
X140290000Y-45650000D03*
X141560000Y-45650000D03*
X142830000Y-45650000D03*
X144100000Y-45650000D03*
X144100000Y-40500000D03*
X142830000Y-40500000D03*
X141560000Y-40500000D03*
X140290000Y-40500000D03*
X139020000Y-40500000D03*
X137750000Y-40500000D03*
X136480000Y-40500000D03*
X135210000Y-40500000D03*
%TD*%
D20*
%TO.C,U7*%
X117095000Y-52475000D03*
X118365000Y-52475000D03*
X119635000Y-52475000D03*
X120905000Y-52475000D03*
X120905000Y-47525000D03*
X119635000Y-47525000D03*
X118365000Y-47525000D03*
X117095000Y-47525000D03*
%TD*%
D21*
%TO.C,C2*%
X134500000Y-38767500D03*
X134500000Y-37632500D03*
%TD*%
D11*
%TO.C,C11*%
X152000000Y-47932500D03*
X152000000Y-49067500D03*
%TD*%
D21*
%TO.C,C5*%
X151700000Y-37967500D03*
X151700000Y-36832500D03*
%TD*%
M02*
